<?xml version="1.0" encoding="UTF-8"?>
<svg width="61px" height="61px" viewBox="0 0 61 61" version="1.1" xmlns="http://www.w3.org/2000/svg" xmlns:xlink="http://www.w3.org/1999/xlink">
    <!-- Generator: Sketch 51.2 (57519) - http://www.bohemiancoding.com/sketch -->
    <title>tutorials / icon / email</title>
    <desc>Created with Sketch.</desc>
    <defs></defs>
    <g id="tutorials-/-icon-/-email" stroke="none" stroke-width="1" fill="none" fill-rule="evenodd">
        <g id="Group" fill-rule="nonzero">
            <circle id="background_51_" fill="#B6B6B6" cx="30.5" cy="30.5" r="30.5"></circle>
            <g id="newsletter" transform="translate(15.387387, 15.387387)">
                <path d="M15.3873439,24.1801802 C15.2622395,24.1801802 15.1378041,24.1449357 15.0280869,24.0744468 L0.309923869,14.585558 C0.106545616,14.4547468 -0.0111996883,14.2222691 0.000842445097,13.9782691 C0.0135535859,13.7349468 0.154045142,13.5160246 0.370134536,13.4069024 L15.3873439,3.84684685 L30.4045532,13.4069024 C30.6199736,13.5160246 30.7611342,13.7342691 30.7738453,13.9782691 C30.7865564,14.2222691 30.6681421,14.4540691 30.4647639,14.585558 L15.7466009,24.0744468 C15.6368836,24.1449357 15.5124483,24.1801802 15.3873439,24.1801802 Z" id="Shape" fill="#A67C52"></path>
                <path d="M25.2792793,24.7297297 L5.4954955,24.7297297 L5.4954955,0.668371074 C5.4954955,0.299430241 5.79093333,0 6.15495495,0 L24.6198198,0 C24.9838414,0 25.2792793,0.299430241 25.2792793,0.668371074 L25.2792793,24.7297297 Z" id="Shape" fill="#E6E6E6"></path>
                <path d="M29.5680861,30.7747748 C29.5128865,30.7747748 29.4570296,30.7675207 29.4024871,30.7536721 L14.2882883,26.7969153 L14.4538873,22.2018018 L30.2252252,14.2882883 L30.2252252,30.1153153 C30.2252252,30.3197477 30.1305972,30.5123099 29.9695981,30.6376072 C29.8539416,30.7272937 29.7119996,30.7747748 29.5680861,30.7747748 Z" id="Shape" fill="#B28F77"></path>
                <path d="M30.1054457,30.7747748 L0.669009905,30.7747748 C0.299047427,30.7747748 0,30.4793369 0,30.1153153 L0,14.2882883 L30.4259015,29.5363099 C30.6941744,29.6807315 30.8299834,29.9860613 30.7537163,30.2782018 C30.6781182,30.5703423 30.4111832,30.7747748 30.1054457,30.7747748 Z" id="Shape" fill="#C19F85"></path>
                <path d="M20.7607608,6.04504505 L10.014014,6.04504505 C9.64325125,6.04504505 9.34234234,5.7993964 9.34234234,5.4954955 C9.34234234,5.19159459 9.64325125,4.94594595 10.014014,4.94594595 L20.7607608,4.94594595 C21.1315235,4.94594595 21.4324324,5.19159459 21.4324324,5.4954955 C21.4324324,5.7993964 21.1315235,6.04504505 20.7607608,6.04504505 Z" id="Shape" fill="#B3B3B3"></path>
                <path d="M20.7607608,10.4414414 L10.014014,10.4414414 C9.64325125,10.4414414 9.34234234,10.1957928 9.34234234,9.89189189 C9.34234234,9.58799099 9.64325125,9.34234234 10.014014,9.34234234 L20.7607608,9.34234234 C21.1315235,9.34234234 21.4324324,9.58799099 21.4324324,9.89189189 C21.4324324,10.1957928 21.1315235,10.4414414 20.7607608,10.4414414 Z" id="Shape" fill="#B3B3B3"></path>
                <path d="M15.8370188,15.3873874 L9.99180999,15.3873874 C9.63330385,15.3873874 9.34234234,15.1417387 9.34234234,14.8378378 C9.34234234,14.5339369 9.63330385,14.2882883 9.99180999,14.2882883 L15.8370188,14.2882883 C16.195525,14.2882883 16.4864865,14.5339369 16.4864865,14.8378378 C16.4864865,15.1417387 16.195525,15.3873874 15.8370188,15.3873874 Z" id="Shape" fill="#B3B3B3"></path>
            </g>
        </g>
    </g>
</svg>