<?xml version="1.0" encoding="UTF-8"?>
<svg width="61px" height="61px" viewBox="0 0 61 61" version="1.1" xmlns="http://www.w3.org/2000/svg" xmlns:xlink="http://www.w3.org/1999/xlink">
    <!-- Generator: Sketch 51.2 (57519) - http://www.bohemiancoding.com/sketch -->
    <title>tutorials / icon / phone</title>
    <desc>Created with Sketch.</desc>
    <defs></defs>
    <g id="tutorials-/-icon-/-phone" stroke="none" stroke-width="1" fill="none" fill-rule="evenodd">
        <g id="iphone">
            <circle id="background_51_" fill="#B6B6B6" fill-rule="nonzero" cx="30.5" cy="30.5" r="30.5"></circle>
            <path d="M20.8828829,47.1131575 C20.8828829,48.7124904 22.2079146,50.009009 23.8423001,50.009009 L37.7071296,50.009009 C39.341635,50.009009 40.6666667,48.7124904 40.6666667,47.1131575 L40.6666667,46.7117117 L20.8828829,46.7117117 L20.8828829,47.1131575 Z" id="Shape" fill="#ECF0F0" fill-rule="nonzero"></path>
            <path d="M40.6665468,13.8868425 C40.6665468,12.2875096 39.3415151,10.990991 37.7070097,10.990991 L23.8423001,10.990991 C22.2077947,10.990991 20.8828829,12.2875096 20.8828829,13.8868425 L20.8828829,14.2882883 L40.6666667,14.2882883 L40.6666667,13.8868425 L40.6665468,13.8868425 Z" id="Shape" fill="#ECF0F0" fill-rule="nonzero"></path>
            <polygon id="Shape" fill="#233540" fill-rule="nonzero" points="20.8828829 14.2882883 40.6666667 14.2882883 40.6666667 46.7117117 20.8828829 46.7117117"></polygon>
            <path d="M22.5247913,45.6124944 C22.2254073,45.6116509 21.9829024,45.3722622 21.981982,45.0766604 L21.981982,15.9234578 C21.9828363,15.6277905 22.2253414,15.3882961 22.5247913,15.3873874 L39.0247582,15.3873874 C39.3242082,15.3882961 39.5667132,15.6277905 39.5675676,15.9234578 L39.5675676,45.0767785 C39.5666472,45.3723804 39.3241423,45.6117691 39.0247582,45.6126126 L22.5247913,45.6126126 L22.5247913,45.6124944 Z" id="Shape" fill="#334D5C" fill-rule="nonzero"></path>
            <path d="M37.7110906,10.4414414 L23.838339,10.4414414 C21.9057048,10.4414414 20.3333333,12.0134846 20.3333333,13.9455679 L20.3333333,47.6039816 C20.3333333,49.5360649 21.9057048,51.1081081 23.838339,51.1081081 L37.7112105,51.1081081 C39.6438447,51.1081081 41.2162162,49.5361848 41.2162162,47.6039816 L41.2162162,13.9455679 C41.2160963,12.0134846 39.6437248,10.4414414 37.7110906,10.4414414 Z M40.6723443,14.3559633 L40.6723443,47.6039816 C40.6723443,49.2389689 39.3465441,50.5643912 37.7110906,50.5643912 L23.838339,50.5643912 C22.2028856,50.5643912 20.8772053,49.2389689 20.8772053,47.6039816 L20.8772053,13.9455679 C20.8772053,12.3105807 22.2030055,10.9851583 23.838339,10.9851583 L37.7112105,10.9851583 C39.346664,10.9851583 40.6724642,12.3105807 40.6724642,13.9455679 L40.6724642,14.3559633 L40.6723443,14.3559633 Z" id="Shape" fill="#ADB0B0" fill-rule="nonzero"></path>
            <path d="M30.5,50.009009 C29.7425424,50.009009 29.1261261,49.3926872 29.1261261,48.6350742 C29.1261261,47.8775831 29.7425424,47.2612613 30.5,47.2612613 C31.2574576,47.2612613 31.8738739,47.8775831 31.8738739,48.6350742 C31.8738739,49.392809 31.2574576,50.009009 30.5,50.009009 Z" id="Shape" fill="#FFFFFF" fill-rule="nonzero"></path>
            <circle id="Oval" fill="#ECF0F0" fill-rule="nonzero" cx="30.2252252" cy="48.3603604" r="1.0990991"></circle>
            <polygon id="Shape" stroke="#FFFFFF" stroke-width="0.907" points="29.6756757 47.8108108 30.7747748 47.8108108 30.7747748 48.9099099 29.6756757 48.9099099"></polygon>
            <path d="M35.1711712,13.2194242 C35.1711712,13.3571783 35.121297,13.4892884 35.032524,13.5866826 C34.9437509,13.6840769 34.8233532,13.7387744 34.6978254,13.7387387 L26.8517241,13.7387387 C26.7261963,13.7387744 26.6057986,13.6840769 26.5170256,13.5866826 C26.4282525,13.4892884 26.3783784,13.3571783 26.3783784,13.2194242 L26.3783784,13.1589542 C26.3783784,13.0212001 26.4282525,12.88909 26.5170256,12.7916957 C26.6057986,12.6943015 26.7261963,12.6396039 26.8517241,12.6396397 L34.6978254,12.6396397 C34.8233532,12.6396039 34.9437509,12.6943015 35.032524,12.7916957 C35.121297,12.88909 35.1711712,13.0212001 35.1711712,13.1589542 L35.1711712,13.2194242 Z" id="Shape" fill="#ADB0B0" fill-rule="nonzero"></path>
            <circle id="Oval" fill="#ADB0B0" fill-rule="nonzero" cx="30.7747748" cy="11.5405405" r="1"></circle>
            <path d="M37.7219962,10.4414414 L23.8919341,10.4414414 C22.6122982,10.4414414 21.4914362,11.1353869 20.8828829,12.1673131 L21.1619327,12.8185763 L37.3324742,50.5643896 L37.5653744,51.1081081 L37.7219962,51.1081081 C39.6486832,51.1081081 41.2162162,49.5361802 41.2162162,47.6039713 L41.2162162,13.9455783 C41.2162162,12.0134893 39.6486832,10.4414414 37.7219962,10.4414414 Z" id="Shape" fill="#D4D4D4" fill-rule="nonzero" opacity="0.1"></path>
        </g>
    </g>
</svg>