<svg width="60" height="60" viewBox="0 0 60 60" fill="none" xmlns="http://www.w3.org/2000/svg">
<path d="M30 60C46.5685 60 60 46.5685 60 30C60 13.4315 46.5685 0 30 0C13.4315 0 0 13.4315 0 30C0 46.5685 13.4315 60 30 60Z" fill="#B6B6B6"/>
<path fill-rule="evenodd" clip-rule="evenodd" d="M48.6222 44.6769L36.5217 39.1308V29.6602H23.4783V39.1308L11.3778 44.6769C9.4133 45.5772 7.82665 48.0511 7.82617 50.2058C13.3128 56.2235 21.2152 60.0004 30 60.0004C38.7848 60.0004 46.6872 56.2235 52.1738 50.2058C52.1734 48.0542 50.5835 45.5758 48.6222 44.6769Z" fill="#335262"/>
<path fill-rule="evenodd" clip-rule="evenodd" d="M30 36.5209C24.237 36.5209 19.5652 31.8491 19.5652 26.0861V22.1731C19.5652 16.4101 24.237 11.7383 30 11.7383C35.763 11.7383 40.4348 16.4101 40.4348 22.1731V26.0861C40.4348 31.8491 35.763 36.5209 30 36.5209Z" fill="#335262"/>
</svg>
