<svg xmlns="http://www.w3.org/2000/svg" width="120" height="120" viewBox="0 0 120 120">
  <path fill="#FFF" fill-rule="evenodd" d="M60,0 C93.137085,0 120,26.862915 120,60 C120,93.137085 93.137085,120 60,120 C26.862915,120 0,93.137085 0,60 C0,26.862915 26.862915,0 60,0 Z M60,10 C32.3857625,10 10,32.3857625 10,60 C10,87.6142375 32.3857625,110 60,110 C87.6142375,110 110,87.6142375 110,60 C110,32.3857625 87.6142375,10 60,10 Z M59.5,30.6333333 C67.4005714,30.6333333 72.1161143,36.577716 72.1161143,46.5341972 C72.1161143,51.6149892 68.9133714,56.156037 65.6433143,58.9735016 C65.8385651,59.4756636 66.2045728,59.7162607 67.2290369,59.9581214 L67.6946286,60.0606364 L68.6114442,60.316495 L68.9004265,60.399987 L69.7659348,60.659821 L70.6275316,60.9348879 L71.1986428,61.1274879 L71.7663451,61.3279972 L72.6100453,61.6445877 L73.166302,61.8668634 L73.7168112,62.098643 L74.2609048,62.3403822 C74.6213467,62.5049627 74.977066,62.6764866 75.3271719,62.8555614 L75.8480091,63.1299127 L76.1050613,63.2714781 L76.6120154,63.5636733 C81.0465254,66.1991148 84.3,70.2935248 84.3,77.2600348 C84.3,79.4069399 82.4972793,80.9339165 79.6571913,82.0072966 L79.1453865,82.1920419 L78.6129794,82.3675731 L78.0609047,82.5340933 L77.777784,82.6140377 L77.1979603,82.7674224 L76.6008057,82.9123039 L76.2960214,82.9816195 L75.6746229,83.1141271 L75.0382301,83.2386395 L74.3877779,83.3553598 L73.7242007,83.464491 L73.0484335,83.5662362 L72.3614107,83.6607988 L71.6640672,83.7483817 L70.9573376,83.8291881 L70.2421565,83.9034211 L69.5194588,83.9712839 L68.4233629,84.0615782 L67.6859626,84.1144042 L66.5721943,84.1830954 L65.8259333,84.222154 L64.7032552,84.2711464 L63.9539752,84.2977073 L63.2051233,84.3196246 C61.957913,84.3523966 60.716381,84.3666667 59.5,84.3666667 C58.283619,84.3666667 57.042087,84.3523966 55.7948767,84.3196246 L54.6713799,84.28502 L53.9222364,84.2560612 L52.8006392,84.2032813 L51.6843879,84.1386822 L50.9447481,84.0887113 L50.209821,84.0329796 L49.4805412,83.9712839 L48.7578435,83.9034211 L48.0426624,83.8291881 L47.3359328,83.7483817 L46.6385893,83.6607988 L45.9515665,83.5662362 L45.2757993,83.464491 L44.6122221,83.3553598 L43.9617699,83.2386395 L43.3253771,83.1141271 L42.7039786,82.9816195 L42.3991943,82.9123039 L41.8020397,82.7674224 L41.222216,82.6140377 L40.9390953,82.5340933 L40.3870206,82.3675731 L39.8546135,82.1920419 L39.3428087,82.0072966 C36.5027207,80.9339165 34.7,79.4069399 34.7,77.2600348 C34.7,70.2935248 37.9534746,66.1991148 42.3879846,63.5636733 L42.8949387,63.2714781 L43.1519909,63.1299127 L43.6728281,62.8555614 C44.022934,62.6764866 44.3786533,62.5049627 44.7390952,62.3403822 L45.2831888,62.098643 L45.833698,61.8668634 L46.3899547,61.6445877 L46.9512909,61.4313602 L47.2336549,61.3279972 L47.8013572,61.1274879 L48.3724684,60.9348879 L48.9463203,60.7497414 L49.5222447,60.571593 L50.0995735,60.399987 L50.9667382,60.1538484 L51.3053714,60.0606364 L51.7709631,59.9581214 C52.7954272,59.7162607 53.1614349,59.4756636 53.3566857,58.9735016 C50.0866286,56.156037 46.8838857,51.6149892 46.8838857,46.5341972 C46.8838857,36.577716 51.5994286,30.6333333 59.5,30.6333333 Z M67.162518,63.3942526 C66.8292491,65.289514 65.7045372,66.8553615 63.9094582,67.881761 C62.543067,68.6607465 60.9048669,69.0484277 59.2666667,69.0484277 C57.6284665,69.0484277 55.9902663,68.6607465 54.6238751,67.881761 C52.867982,66.8777673 51.7535076,65.3576205 51.3937708,63.5178977 L50.9633123,63.6417582 L50.248834,63.8561509 C50.1310512,63.8924101 50.0139228,63.9289416 49.8974576,63.9657588 L49.2066977,64.1901946 C42.3801174,66.4709407 38.0054857,69.8750643 38.0054857,77.2600348 L38.0071865,77.2922001 L38.0209228,77.3598927 L38.0487288,77.431858 L38.0909521,77.5078442 L38.1479404,77.5875996 L38.2200413,77.6708723 L38.3076027,77.7574105 L38.4109721,77.8469624 L38.5304974,77.9392761 L38.6665262,78.0341 L38.8194061,78.131182 L38.989485,78.2302706 L39.1771105,78.3311137 L39.3826303,78.4334597 L39.606392,78.5370567 L39.9769991,78.6942469 L40.2478871,78.7998697 L40.538234,78.9058622 L40.8483877,79.0119725 L41.1786956,79.1179488 L41.5295057,79.2235394 L41.933,79.3363333 L41.9333333,73.3490418 C41.9333333,72.7139067 42.460966,72.2006289 43.1138639,72.2006289 C43.7667619,72.2006289 44.2943946,72.7139067 44.2943946,73.3490418 L44.294,79.8743333 L44.3335219,79.883084 L45.1157844,80.0241586 L45.9512176,80.1592659 L46.5382917,80.2456026 L47.1498665,80.3286577 L47.7862896,80.4081794 L48.7882755,80.5202859 L49.8481259,80.6230258 L50.9670144,80.7155491 L51.7463185,80.7711358 L52.5527309,80.8215522 L53.3865994,80.8665467 L54.689643,80.9233212 L55.5936729,80.9536589 L56.5263759,80.9776932 L57.4880996,80.9951723 L58.9858596,81.0085492 L60.0141404,81.0085492 L61.0200471,81.001375 L61.9964116,80.9872679 L62.9435815,80.9664797 L63.8619045,80.9392622 L64.7517283,80.9058672 L65.6134006,80.8665467 L66.8538856,80.797006 L68.0329856,80.7155491 L68.785529,80.655044 L69.8649284,80.5556153 L70.886072,80.4465365 L71.5350497,80.368876 L72.1590052,80.2875561 L73.0487824,80.1592659 L73.8842156,80.0241586 L74.6664781,79.883084 L74.999,79.8163333 L75,73.3490418 C75,72.7139067 75.5276327,72.2006289 76.1805306,72.2006289 C76.8334286,72.2006289 77.3610612,72.7139067 77.3610612,73.3490418 L77.361,79.2533333 L77.6484838,79.1708081 L78.1516123,79.0119725 L78.461766,78.9058622 L78.7521129,78.7998697 L79.0230009,78.6942469 L79.393608,78.5370567 L79.7223881,78.3821146 L80.010515,78.2302706 L80.1805939,78.131182 L80.3334738,78.0341 L80.4695026,77.9392761 L80.5890279,77.8469624 L80.6923973,77.7574105 L80.7799587,77.6708723 L80.8520596,77.5875996 L80.9090479,77.5078442 L80.9512712,77.431858 L80.9790772,77.3598927 L80.9945143,77.2759741 L80.9945143,77.2600348 C80.9945143,69.8750643 76.6198826,66.4709407 69.7933023,64.1901946 L69.1025424,63.9657588 L68.3958633,63.7481771 C68.157698,63.6767217 67.9169506,63.6063028 67.6736925,63.5368147 L67.162518,63.3942526 Z M59.3716816,33.9912833 L59.1091037,33.9974623 L58.8391978,34.0104588 L58.5626764,34.030939 L58.2802521,34.0595694 L57.9926372,34.0970161 L57.7005442,34.1439455 L57.4046857,34.2010238 L57.105774,34.2689174 L56.8045217,34.3482925 L56.5016412,34.4398155 L56.349813,34.4903406 L56.0458261,34.6013346 L55.8938455,34.66197 L55.5903552,34.7939342 L55.2880866,34.9407113 C52.625541,36.3046288 50.1893714,39.4802672 50.1893714,46.5341972 C50.1893714,50.8269627 53.2964571,54.7491038 56.2051429,56.987243 C56.7046857,57.3722605 56.9491429,58.0091587 56.8322286,58.6316637 C56.4170089,60.9234767 55.5203633,62.1691993 53.6053784,62.8951459 C53.8448386,64.4996885 54.8803822,65.4204757 55.7662075,65.9288625 C57.7937557,67.0846596 60.7359045,67.0846596 62.7671258,65.9288625 C63.6867296,65.4010899 64.7676874,64.4288656 64.9512252,62.7087156 C63.3375579,61.9605586 62.5493629,60.7378654 62.1677714,58.6316637 C62.0508571,58.0091587 62.2953143,57.3722605 62.7948571,56.987243 C65.7035429,54.7491038 68.8106286,50.8269627 68.8106286,46.5341972 C68.8106286,39.4802672 66.374459,36.3046288 63.7119134,34.9407113 L63.4096448,34.7939342 L63.1061545,34.66197 L62.802155,34.5441525 C62.7008162,34.5071638 62.5995112,34.4724218 62.4983588,34.4398155 L62.1954783,34.3482925 L61.894226,34.2689174 L61.5953143,34.2010238 L61.2994558,34.1439455 L61.0073628,34.0970161 L60.7197479,34.0595694 L60.4373236,34.030939 L60.1608022,34.0104588 L59.7586468,33.9935623 L59.3716816,33.9912833 Z"/>
</svg>
