<svg width="50" height="50" viewBox="0 0 50 50" fill="none" xmlns="http://www.w3.org/2000/svg">
<mask id="mask0" mask-type="alpha" maskUnits="userSpaceOnUse" x="0" y="0" width="31" height="44">
<path fill-rule="evenodd" clip-rule="evenodd" d="M0.000488281 0H30.5505V43.7495H0.000488281V0Z" fill="white"/>
</mask>
<path fill-rule="evenodd" clip-rule="evenodd" d="M12.418 12.8603C12.418 9.69777 13.1867 2.34277 20.313 2.34277C27.438 2.34277 28.2067 9.69777 28.2067 12.8603C28.2067 16.4678 25.5955 19.7528 23.1492 21.6228C22.8005 21.8903 22.6292 22.3315 22.7092 22.764C23.0142 24.4315 23.618 25.3778 24.8867 25.9615C24.603 27.1165 23.8242 27.8028 23.1492 28.194C21.5055 29.1428 19.1192 29.1428 17.4755 28.194C16.8005 27.8028 16.023 27.1165 15.738 25.9615C17.0067 25.3778 17.6117 24.4315 17.9167 22.764C17.9955 22.3315 17.8255 21.8903 17.4755 21.6228C15.0305 19.7528 12.418 16.4678 12.418 12.8603ZM23.298 41.3665C22.3555 41.3915 21.363 41.4053 20.313 41.4053C14.4105 41.4053 10.2467 40.9865 7.42174 40.424V35.9365C7.42174 35.5053 7.07299 35.1553 6.64049 35.1553C6.20924 35.1553 5.85924 35.5053 5.85924 35.9365V40.0653C3.34549 39.3965 2.34424 38.6253 2.34424 38.114C2.34424 31.1003 7.05049 28.3815 14.1205 26.464C14.1642 26.454 14.2042 26.444 14.2467 26.4353C14.5955 27.739 15.433 28.8178 16.6942 29.5465C17.7592 30.1615 19.0355 30.469 20.313 30.469C21.5892 30.469 22.8655 30.1615 23.9317 29.5465C25.1917 28.8178 26.0292 27.739 26.378 26.4353C26.4205 26.444 26.4605 26.454 26.5055 26.464C26.7242 26.524 26.9405 26.584 27.1555 26.644C27.8467 25.9865 28.603 25.3965 29.4142 24.884C28.6417 24.6315 27.8605 24.4028 27.0817 24.1915C27.058 24.1865 27.0342 24.1803 27.0105 24.1753C25.7242 23.9115 25.3605 23.6603 25.163 23.0115C27.868 20.7353 30.5505 17.019 30.5505 12.8603C30.5505 4.80777 26.723 -0.000976562 20.313 -0.000976562C13.9017 -0.000976562 10.0742 4.80777 10.0742 12.8603C10.0742 17.019 12.7567 20.7353 15.463 23.0115C15.2642 23.6603 14.9017 23.9115 13.6142 24.1753C13.5905 24.1803 13.5667 24.1865 13.543 24.1915C6.84549 26.004 0.000488281 29.074 0.000488281 38.114C0.000488281 40.6853 3.52424 43.749 20.313 43.749C21.7167 43.749 23.0205 43.7265 24.2455 43.6853C23.8667 42.9465 23.5455 42.1728 23.298 41.3665Z" fill="white"/>
<mask id="mask1" mask-type="alpha" maskUnits="userSpaceOnUse" x="24" y="24" width="26" height="26">
<path fill-rule="evenodd" clip-rule="evenodd" d="M49.9999 24.2188V50H37.1091H24.2183V24.2188L49.9999 24.2188Z" fill="white"/>
</mask>
<path fill-rule="evenodd" clip-rule="evenodd" d="M37.1095 26.5625C31.2933 26.5625 26.562 31.2937 26.562 37.11C26.562 42.925 31.2933 47.6562 37.1095 47.6562C42.9245 47.6562 47.657 42.925 47.657 37.11C47.657 31.2937 42.9245 26.5625 37.1095 26.5625ZM37.1095 50C30.0008 50 24.2183 44.2175 24.2183 37.11C24.2183 30.0012 30.0008 24.2188 37.1095 24.2188C44.217 24.2188 50.0008 30.0012 50.0008 37.11C50.0008 44.2175 44.217 50 37.1095 50Z" fill="white"/>
<path fill-rule="evenodd" clip-rule="evenodd" d="M37.1097 44.1406C36.4622 44.1406 35.9385 43.6156 35.9385 42.9694V31.2494C35.9385 30.6031 36.4622 30.0781 37.1097 30.0781C37.7572 30.0781 38.281 30.6031 38.281 31.2494V42.9694C38.281 43.6156 37.7572 44.1406 37.1097 44.1406Z" fill="white"/>
<path fill-rule="evenodd" clip-rule="evenodd" d="M42.9689 38.2812H31.2501C30.6026 38.2812 30.0776 37.7563 30.0776 37.11C30.0776 36.4625 30.6026 35.9375 31.2501 35.9375H42.9689C43.6164 35.9375 44.1401 36.4625 44.1401 37.11C44.1401 37.7563 43.6164 38.2812 42.9689 38.2812Z" fill="white"/>
</svg>
