<svg xmlns="http://www.w3.org/2000/svg" width="13" height="15" viewBox="0 0 13 15"><path fill="#A3A3A3" d="M13,5.82801724 L13,4.01767241 L10.31784,4.01767241 L10.894,0 L9.05632,0 L8.47912,4.01767241 L5.34196,4.01767241 L5.96362,0 L4.1223,0 L3.5009,4.01767241 L0.52,4.01767241 L0.52,5.82801724 L3.22088,5.82801724 L2.73936,8.94051724 L0,8.94051724 L0,10.7508621 L2.45934,10.7508621 L1.80206,15 L3.64338,15 L4.30066,10.7508621 L7.51218,10.7508621 L6.90196,15 L8.74042,15 L9.35064,10.7508621 L12.48,10.7508621 L12.48,8.94051724 L9.61064,8.94051724 L10.05784,5.82801724 L13,5.82801724 Z M7.77218,8.94051724 L4.58068,8.94051724 L5.06194,5.82801724 L8.21912,5.82801724 L7.77218,8.94051724 Z"/></svg>