<?xml version="1.0" encoding="UTF-8"?>
<svg width="50px" height="50px" viewBox="0 0 50 50" version="1.1" xmlns="http://www.w3.org/2000/svg" xmlns:xlink="http://www.w3.org/1999/xlink">
    <!-- Generator: Sketch 56.3 (81716) - https://sketch.com -->
    <title>lifestyle /autoracing</title>
    <desc>Created with Sketch.</desc>
    <g id="lifestyle-/autoracing" stroke="none" stroke-width="1" fill="none" fill-rule="evenodd">
        <g id="steering-wheel" transform="translate(1.000000, 1.000000)" fill="#999999" fill-rule="nonzero">
            <path d="M24,0 C10.766129,0 0,10.7665071 0,24 C0,37.233871 10.766129,48 24,48 C37.233871,48 48,37.233871 48,24 C48,10.7665071 37.233871,0 24,0 Z M24,4.64516129 C32.2881332,4.64516129 39.3734879,9.88292276 42.1268271,17.2211757 C39.7627111,16.9844853 31.8681955,16.2580645 24,16.2580645 C16.1315682,16.2580645 8.23700539,16.984438 5.87317285,17.2211757 C8.62646485,9.88292276 15.7118668,4.64516129 24,4.64516129 Z M4.64516129,24 C4.64516129,23.9278446 4.64983935,23.8568234 4.65064266,23.784857 C12.1627394,27.5045678 17.7613723,34.4959835 19.7043221,42.8684161 C11.0934035,40.9086914 4.64516129,33.1957693 4.64516129,24 Z M24,31.7419355 C21.0069934,31.7419355 18.5806452,29.3155872 18.5806452,26.3225806 C18.5806452,23.3295269 21.0069934,20.9032258 24,20.9032258 C26.9930066,20.9032258 29.4193548,23.3295269 29.4193548,26.3225806 C29.4193548,29.3155872 26.9930066,31.7419355 24,31.7419355 Z M28.2956779,42.8684161 C30.2386278,34.4959835 35.8372606,27.5045678 43.3493573,23.784857 C43.3501606,23.8568234 43.3548387,23.9278446 43.3548387,24 C43.3548387,33.1957693 36.9065965,40.9086914 28.2956779,42.8684161 Z" id="Shape"></path>
        </g>
    </g>
</svg>