<svg width="30" height="30" viewBox="0 0 30 30" fill="none" xmlns="http://www.w3.org/2000/svg">
<path fill-rule="evenodd" clip-rule="evenodd" d="M29.9999 15C29.9999 23.284 23.2839 30 14.9999 30C6.7159 30 -0.0001 23.284 -0.0001 15C-0.0001 6.716 6.7159 0 14.9999 0C23.2839 0 29.9999 6.716 29.9999 15Z" fill="#00A87E"/>
<path fill-rule="evenodd" clip-rule="evenodd" d="M14.2342 8.60886C13.9822 8.71586 13.7642 8.86186 13.5812 9.04486C13.3882 9.23786 13.2512 9.45786 13.1702 9.70486C13.0892 9.95286 13.0492 10.2109 13.0492 10.4789C13.0822 10.9299 13.2642 11.3199 13.5972 11.6469C13.9302 11.9749 14.3232 12.1609 14.7742 12.2039C15.0752 12.2359 15.3652 12.1979 15.6452 12.0899C15.9242 11.9829 16.1602 11.8219 16.3542 11.6069C16.5362 11.4139 16.6682 11.1939 16.7492 10.9459C16.8292 10.6989 16.8702 10.4409 16.8702 10.1719C16.8382 9.72086 16.6542 9.33186 16.3212 9.00386C15.9882 8.67586 15.5962 8.49086 15.1452 8.44786H15.0722H15.0002C14.7422 8.44786 14.4862 8.50186 14.2342 8.60886ZM14.8712 13.7029H14.6932C13.8772 13.6279 13.1682 13.3019 12.5662 12.7269C11.9642 12.1529 11.6252 11.4519 11.5502 10.6239C11.5072 10.1399 11.5612 9.67786 11.7122 9.23786C11.8622 8.79686 12.1092 8.40986 12.4532 8.07686C12.7862 7.70086 13.2002 7.41386 13.6942 7.21386C14.1882 7.01586 14.6992 6.95386 15.2252 7.02886C16.0532 7.10386 16.7652 7.42886 17.3612 8.00486C17.9582 8.57986 18.2942 9.27486 18.3692 10.0909C18.4122 10.5869 18.3582 11.0509 18.2082 11.4859C18.0572 11.9219 17.8152 12.3109 17.4822 12.6549C17.1812 12.9879 16.8132 13.2459 16.3782 13.4279C15.9422 13.6119 15.4842 13.7029 15.0002 13.7029H14.8712ZM10.2762 21.5049H19.7232V20.7469C19.7232 20.1129 19.6022 19.5129 19.3602 18.9499C19.1182 18.3849 18.7852 17.8909 18.3602 17.4659C17.9362 17.0429 17.4422 16.7089 16.8782 16.4669C16.3142 16.2249 15.7142 16.1039 15.0802 16.1039H15.0002C14.3652 16.1039 13.7672 16.2249 13.2022 16.4669C12.6382 16.7089 12.1442 17.0429 11.7192 17.4659C11.2952 17.8909 10.9592 18.3849 10.7122 18.9499C10.4642 19.5129 10.3412 20.1129 10.3412 20.7469V21.5049H10.2762ZM21.2222 23.0039H8.7772V20.7469C8.7772 19.9089 8.9392 19.1159 9.2612 18.3699C9.5842 17.6229 10.0242 16.9689 10.5832 16.4109C11.1422 15.8519 11.7952 15.4119 12.5422 15.0879C13.2882 14.7659 14.0812 14.6049 14.9192 14.6049H15.0002C15.8382 14.6049 16.6302 14.7659 17.3782 15.0879C18.1242 15.4119 18.7772 15.8519 19.3362 16.4109C19.8952 16.9689 20.3382 17.6229 20.6662 18.3699C20.9932 19.1159 21.1572 19.9089 21.1572 20.7469V23.0039H21.2222Z" fill="white"/>
</svg>
