<svg width="30" height="30" viewBox="0 0 30 30" fill="none" xmlns="http://www.w3.org/2000/svg">
<path fill-rule="evenodd" clip-rule="evenodd" d="M29.9999 15C29.9999 23.284 23.2839 30 14.9999 30C6.71589 30 -0.000106812 23.284 -0.000106812 15C-0.000106812 6.716 6.71589 0 14.9999 0C23.2839 0 29.9999 6.716 29.9999 15Z" fill="#00A87E"/>
<path fill-rule="evenodd" clip-rule="evenodd" d="M9.09126 10.2077C8.90233 10.2879 8.73889 10.3974 8.60169 10.5346C8.45699 10.6793 8.35428 10.8442 8.29355 11.0294C8.23283 11.2153 8.20284 11.4087 8.20284 11.6097C8.22758 11.9478 8.36403 12.2402 8.61369 12.4853C8.86335 12.7313 9.15799 12.8707 9.49612 12.9029C9.72178 12.9269 9.93921 12.8984 10.1491 12.8175C10.3583 12.7373 10.5352 12.6165 10.6807 12.4554C10.8171 12.3107 10.9161 12.1457 10.9768 11.9598C11.0368 11.7746 11.0675 11.5812 11.0675 11.3795C11.0436 11.0414 10.9056 10.7497 10.6559 10.5038C10.4063 10.2579 10.1124 10.1192 9.77426 10.087H9.71953H9.66555C9.47213 10.087 9.28019 10.1275 9.09126 10.2077ZM9.56884 14.0268H9.43539C8.82361 13.9706 8.2913 13.7261 7.84072 13.2951C7.38863 12.8647 7.13522 12.3391 7.07899 11.7184C7.04676 11.3555 7.08724 11.0091 7.20045 10.6793C7.31216 10.3486 7.49809 10.0585 7.756 9.80882C8.00566 9.52692 8.3153 9.31175 8.68641 9.1618C9.05678 9.01336 9.43989 8.96687 9.83424 9.0231C10.455 9.07933 10.9888 9.32299 11.4357 9.75484C11.8832 10.1859 12.1344 10.707 12.1914 11.3188C12.2229 11.6906 12.1831 12.0385 12.0707 12.3646C11.9575 12.6915 11.776 12.9832 11.5264 13.2411C11.3007 13.4907 11.0248 13.6842 10.6987 13.8206C10.3718 13.9586 10.0277 14.0268 9.66555 14.0268H9.56884ZM6.12384 19.8762H13.2065V19.3079C13.2065 18.8325 13.1158 18.3827 12.9344 17.9606C12.7529 17.537 12.5033 17.1666 12.1846 16.848C11.8668 16.5309 11.4964 16.2805 11.0735 16.099C10.6507 15.9176 10.2009 15.8269 9.72553 15.8269H9.66555C9.18948 15.8269 8.74114 15.9176 8.31754 16.099C7.8947 16.2805 7.52433 16.5309 7.2057 16.848C6.88781 17.1666 6.63591 17.537 6.45072 17.9606C6.26479 18.3827 6.17257 18.8325 6.17257 19.3079V19.8762H6.12384ZM14.3304 21H5V19.3079C5 18.6796 5.12146 18.0851 5.36287 17.5258C5.60503 16.9657 5.93491 16.4754 6.35401 16.057C6.77311 15.6379 7.26268 15.3081 7.82272 15.0652C8.38202 14.8237 8.97655 14.703 9.60483 14.703H9.66555C10.2938 14.703 10.8876 14.8237 11.4484 15.0652C12.0077 15.3081 12.4973 15.6379 12.9164 16.057C13.3355 16.4754 13.6676 16.9657 13.9135 17.5258C14.1587 18.0851 14.2816 18.6796 14.2816 19.3079V21H14.3304Z" fill="white"/>
<path fill-rule="evenodd" clip-rule="evenodd" d="M20.0913 10.2077C19.9023 10.2879 19.7389 10.3974 19.6017 10.5346C19.457 10.6793 19.3543 10.8442 19.2936 11.0294C19.2328 11.2153 19.2028 11.4087 19.2028 11.6097C19.2276 11.9478 19.364 12.2402 19.6137 12.4853C19.8633 12.7313 20.158 12.8707 20.4961 12.9029C20.7218 12.9269 20.9392 12.8984 21.1491 12.8175C21.3583 12.7373 21.5352 12.6165 21.6807 12.4554C21.8171 12.3107 21.9161 12.1457 21.9768 11.9598C22.0368 11.7746 22.0675 11.5812 22.0675 11.3795C22.0436 11.0414 21.9056 10.7497 21.6559 10.5038C21.4063 10.2579 21.1124 10.1192 20.7743 10.087H20.7195H20.6656C20.4721 10.087 20.2802 10.1275 20.0913 10.2077ZM20.5688 14.0268H20.4354C19.8236 13.9706 19.2913 13.7261 18.8407 13.2951C18.3886 12.8647 18.1352 12.3391 18.079 11.7184C18.0468 11.3555 18.0872 11.0091 18.2005 10.6793C18.3122 10.3486 18.4981 10.0585 18.756 9.80882C19.0057 9.52692 19.3153 9.31175 19.6864 9.1618C20.0568 9.01336 20.4399 8.96687 20.8342 9.0231C21.455 9.07933 21.9888 9.32299 22.4357 9.75484C22.8832 10.1859 23.1344 10.707 23.1914 11.3188C23.2229 11.6906 23.1831 12.0385 23.0707 12.3646C22.9575 12.6915 22.776 12.9832 22.5264 13.2411C22.3007 13.4907 22.0248 13.6842 21.6987 13.8206C21.3718 13.9586 21.0277 14.0268 20.6656 14.0268H20.5688ZM17.1238 19.8762H24.2065V19.3079C24.2065 18.8325 24.1158 18.3827 23.9344 17.9606C23.7529 17.537 23.5033 17.1666 23.1846 16.848C22.8668 16.5309 22.4964 16.2805 22.0735 16.099C21.6507 15.9176 21.2009 15.8269 20.7255 15.8269H20.6656C20.1895 15.8269 19.7411 15.9176 19.3175 16.099C18.8947 16.2805 18.5243 16.5309 18.2057 16.848C17.8878 17.1666 17.6359 17.537 17.4507 17.9606C17.2648 18.3827 17.1726 18.8325 17.1726 19.3079V19.8762H17.1238ZM25.3304 21H16V19.3079C16 18.6796 16.1215 18.0851 16.3629 17.5258C16.605 16.9657 16.9349 16.4754 17.354 16.057C17.7731 15.6379 18.2627 15.3081 18.8227 15.0652C19.382 14.8237 19.9766 14.703 20.6048 14.703H20.6656C21.2938 14.703 21.8876 14.8237 22.4484 15.0652C23.0077 15.3081 23.4973 15.6379 23.9164 16.057C24.3355 16.4754 24.6676 16.9657 24.9135 17.5258C25.1587 18.0851 25.2816 18.6796 25.2816 19.3079V21H25.3304Z" fill="white"/>
</svg>
