<?xml version="1.0" encoding="UTF-8"?>
<svg width="47px" height="50px" viewBox="0 0 47 50" version="1.1" xmlns="http://www.w3.org/2000/svg" xmlns:xlink="http://www.w3.org/1999/xlink">
    <title>Group</title>
    <g id="Symbols" stroke="none" stroke-width="1" fill="none" fill-rule="evenodd">
        <g id="icon-/-contingent--/-inactive" transform="translate(-2.000000, 0.000000)">
            <g id="Group" transform="translate(2.000581, -0.000000)">
                <path d="M34.6969767,0 C38.1423256,0 40.1993023,2.56395349 40.1993023,6.85930233 C40.1993023,9.0255814 38.8434884,10.9616279 37.4434884,12.1767442 C37.5282429,12.3369509 37.6819035,12.4107953 38.05637,12.4946438 L38.2562791,12.5383721 L38.4732662,12.597892 L39.1235256,12.7877784 L39.1235256,12.7877784 L39.6617923,12.960909 L39.6617923,12.960909 L40.1936258,13.1497185 L40.6124787,13.3134036 C43.2430104,14.3880888 45.4213953,16.2056241 45.4213953,19.9406977 C45.4213953,21.1992204 44.0287817,21.9718831 42.0337868,22.4330117 L41.5808601,22.5304275 C41.4267934,22.5612373 41.2697426,22.5904085 41.110029,22.6180121 L40.6232205,22.6961907 L40.122362,22.7653883 L39.6093803,22.8260302 L39.0862027,22.8785415 L38.5547562,22.9233471 L37.7462979,22.9770377 L37.1899408,23.0050011 C36.3537274,23.0419574 35.5122868,23.0569767 34.6969767,23.0569767 C33.5237209,23.0569767 32.2969767,23.0255814 31.1097674,22.9418605 C30.1167442,22.4662791 29.0655814,22.1023256 28.0365116,21.805814 C28.2527907,21.5604651 28.4551163,21.3069767 28.6434884,21.0488372 L29.303373,21.1461399 L29.303373,21.1461399 L30.038281,21.233511 L30.3538671,21.2652114 L30.3538671,21.2652114 L31.0230755,21.3223101 C31.3705346,21.3486251 31.7374519,21.3714554 32.1246201,21.3902002 L32.9261921,21.4220644 L33.347669,21.4335773 L33.347669,21.4335773 L34.2328853,21.4470972 L34.6969767,21.4488372 C34.9968586,21.4488372 35.287927,21.4466997 35.57038,21.4425793 L36.3920913,21.4244236 C36.6575117,21.4164916 36.9145149,21.4067312 37.163299,21.3952968 L37.8851916,21.3561261 L38.2280162,21.3330638 L38.2280162,21.3330638 L38.8781646,21.2805649 C39.0870908,21.2617259 39.288293,21.2415992 39.4819693,21.2203391 L40.0406187,21.1533135 L40.7965264,21.0420528 L40.7965264,21.0420528 L41.2474871,20.9620826 L41.2466279,18.8132558 C41.2466279,18.5167442 41.4861628,18.2760465 41.7826744,18.2760465 C42.0780233,18.2760465 42.3187209,18.5167442 42.3187209,18.8132558 L42.3196564,20.7156227 C43.3813877,20.4202043 43.812093,20.1098198 43.812093,19.9406977 C43.812093,16.7854651 41.8850465,15.3613721 38.8947337,14.401993 L38.3866513,14.2461823 L37.9115222,14.1116174 C37.6964952,14.7372756 37.2626655,15.255636 36.6388372,15.6159302 C36.0667442,15.9461628 35.3818605,16.1112791 34.6969767,16.1112791 C34.012093,16.1112791 33.3272073,15.9461628 32.7551163,15.6159302 C32.131288,15.255636 31.6974583,14.7372756 31.4824313,14.1116174 L31.5330233,14.0976744 C31.0946512,14.2162791 30.6748837,14.3418605 30.2748837,14.4755814 C30.2051163,13.9162791 30.1016279,13.3848837 29.9655814,12.8837209 L30.5501744,12.7036337 L31.1365116,12.5383721 L31.1865116,12.5267442 C31.6725581,12.427907 31.8551163,12.3569767 31.9504651,12.1767442 C30.5504651,10.9616279 29.1934884,9.0255814 29.1934884,6.85930233 C29.1934884,2.56395349 31.2516279,0 34.6969767,0 Z M34.6969767,1.60930233 C32.3329962,1.60930233 31.3715337,3.20991611 31.0062539,4.84388369 L30.9409081,5.17065755 L30.8900271,5.4955346 L30.8521772,5.81572861 L30.8259252,6.12845334 L30.8051571,6.57744061 L30.8051571,6.57744061 L30.8016279,6.85930233 C30.8016279,8.65581395 32.1167442,10.3011628 33.345814,11.2406977 C33.5865116,11.4244186 33.7027907,11.727907 33.6493023,12.0255814 C33.4864174,12.9144207 33.1589111,13.4469724 32.5041572,13.7800101 C32.6685874,14.2366126 33.0003867,14.5188501 33.2923256,14.6868605 C34.1062791,15.1577907 35.2876744,15.1577907 36.1016279,14.6868605 C36.3935667,14.5188501 36.7253661,14.2366126 36.8902084,13.7797198 C36.2352967,13.4473859 35.9075994,12.9147658 35.7446512,12.0255814 C35.69,11.727907 35.8074419,11.4244186 36.0481395,11.2406977 C37.2772093,10.3011628 38.5911628,8.65581395 38.5911628,6.85930233 L38.5876409,6.57744061 L38.566909,6.12845334 L38.566909,6.12845334 L38.5406959,5.81572861 L38.5028951,5.4955346 L38.4520719,5.17065755 L38.3867914,4.84388369 C38.0218538,3.20991611 37.0609573,1.60930233 34.6969767,1.60930233 Z" id="Shape" fill="#999999"></path>
                <path d="M24.5174419,41.7943023 C22.8662791,41.8943023 21.0011628,41.9524419 18.8953488,41.9524419 C13.4046512,41.9524419 9.53023256,41.5617442 6.90348837,41.0396512 L6.90348837,36.8652326 C6.90348837,36.4640698 6.57790698,36.1384884 6.17674419,36.1384884 C5.7755814,36.1384884 5.45,36.4640698 5.45,36.8652326 L5.45,40.7047674 C3.11162791,40.0838372 2.18023256,39.3663953 2.18023256,38.8896512 C2.18023256,32.3652326 6.55813953,29.8361628 13.1348837,28.0524419 C13.1755814,28.0443023 13.2127907,28.035 13.2523256,28.0256977 C13.5767442,29.2396512 14.355814,30.2419767 15.5290698,30.9198837 C16.5197674,31.4919767 17.7069767,31.779186 18.8953488,31.779186 C19.9139535,31.779186 20.9313953,31.5663953 21.8255814,31.1454651 C21.8139535,30.807093 21.8023256,30.4698837 21.8023256,30.1222093 C21.8023256,29.8780233 21.8360465,29.6431395 21.9,29.4187209 C21.7767442,29.5094186 21.6534884,29.5919767 21.5337209,29.6605814 C20.005814,30.5454651 17.7837209,30.5454651 16.255814,29.6605814 C15.6267442,29.2977907 14.9046512,28.6594186 14.6395349,27.585 C15.8197674,27.0419767 16.3813953,26.1617442 16.6662791,24.6117442 C16.7395349,24.2082558 16.5802326,23.7977907 16.255814,23.5489535 C13.9813953,21.8094186 11.5511628,18.7536047 11.5511628,15.3977907 C11.5511628,12.457093 12.2662791,5.61523256 18.8953488,5.61523256 C25.5232558,5.61523256 26.2383721,12.457093 26.2383721,15.3977907 C26.2383721,18.7536047 23.8081395,21.8094186 21.5337209,23.5489535 C21.2093023,23.7977907 21.05,24.2082558 21.1244186,24.6117442 C21.4081395,26.1617442 21.9709302,27.0419767 23.15,27.585 C23.1197674,27.7094186 23.0813953,27.8256977 23.0395349,27.9373256 C23.3162791,27.7745349 23.6267442,27.6582558 23.9627907,27.607093 C25.3139535,27.4024419 26.572093,27.1001163 27.7430233,26.7105814 C26.9011628,26.4245349 26.0453488,26.1698837 25.1918605,25.9396512 C25.1697674,25.9326744 25.1476744,25.9280233 25.1255814,25.9233721 C23.9290698,25.679186 23.5918605,25.4443023 23.4069767,24.840814 C25.9232558,22.7233721 28.4186047,19.2663953 28.4186047,15.3977907 C28.4186047,7.90709302 24.8581395,3.435 18.8953488,3.435 C12.9313953,3.435 9.37093023,7.90709302 9.37093023,15.3977907 C9.37093023,19.2663953 11.8662791,22.7233721 14.3825581,24.840814 C14.1976744,25.4443023 13.8604651,25.679186 12.6639535,25.9233721 C12.6418605,25.9280233 12.6197674,25.9326744 12.5976744,25.9396512 C6.36744186,27.6233721 0,30.4815116 0,38.8896512 C0,41.2815116 3.27790698,44.1326744 18.8953488,44.1326744 C21.5267442,44.1326744 23.8011628,44.0489535 25.7767442,43.9036047 C25.3372093,43.2489535 24.9127907,42.5501163 24.5174419,41.7943023" id="Fill-7" fill="#5A5A5A"></path>
                <g id="Shape-2" transform="translate(23.255465, 24.510000)" fill="#5A5A5A">
                    <path d="M12.344186,0.268604651 C14.8813953,2.47906977 18.2406977,3.91511628 22.3290698,4.53488372 C22.8616279,4.61627907 23.255814,5.07325581 23.255814,5.61162791 C23.255814,12.5742653 20.7507463,17.3659346 18.1115686,20.4820423 L17.7510722,20.8966269 C17.6909251,20.9640089 17.6307644,21.030537 17.570618,21.0962171 L17.2101327,21.480168 L17.2101327,21.480168 L16.851325,21.8440453 C16.7321504,21.9620232 16.6134781,22.076702 16.4955307,22.1881282 L16.1440859,22.512696 L16.1440859,22.512696 L15.7983266,22.8180276 L15.7983266,22.8180276 L15.4595888,23.1044023 L15.4595888,23.1044023 L15.1292085,23.3720992 L15.1292085,23.3720992 L14.8085217,23.6213976 L14.8085217,23.6213976 L14.4988643,23.8525764 L14.4988643,23.8525764 L14.0579811,24.1659814 L14.0579811,24.1659814 L13.7817425,24.353083 L13.7817425,24.353083 L13.5212095,24.5230421 L13.5212095,24.5230421 L13.1627801,24.7464494 L13.1627801,24.7464494 L12.6628521,25.0370375 L12.6628521,25.0370375 L12.249456,25.2562172 L12.249456,25.2562172 L12.0848837,25.3360465 L12.0848837,25.3360465 C11.9395349,25.4023256 11.7837209,25.4360465 11.627907,25.4360465 C11.472093,25.4360465 11.3162791,25.4023256 11.1709302,25.3360465 L10.8931714,25.1984387 L10.8931714,25.1984387 L10.5929618,25.0370375 L10.5929618,25.0370375 L10.2032102,24.8126497 L10.2032102,24.8126497 L9.7346045,24.5230421 L9.7346045,24.5230421 L9.3378318,24.2616924 L9.3378318,24.2616924 L8.90722473,23.9614583 L8.90722473,23.9614583 L8.60358314,23.7392345 L8.60358314,23.7392345 L8.28824406,23.4990308 L8.28824406,23.4990308 L7.96254349,23.240568 L7.96254349,23.240568 L7.62781742,22.9635671 C7.57135185,22.9158399 7.51456587,22.8673287 7.45748733,22.8180276 L7.11172803,22.512696 L7.11172803,22.512696 L6.76028325,22.1881282 C6.64233585,22.076702 6.52366353,21.9620232 6.40448897,21.8440453 L6.04568121,21.480168 L6.04568121,21.480168 L5.68519597,21.0962171 C5.62504953,21.030537 5.56488886,20.9640089 5.5047418,20.8966269 L5.14424534,20.4820423 C2.50506764,17.3659346 0,12.5742653 0,5.61162791 C0,5.07325581 0.394186047,4.61627907 0.926744186,4.53488372 C5.01511628,3.91511628 8.3744186,2.47906977 10.9116279,0.268604651 C11.322093,-0.0895348837 11.9337209,-0.0895348837 12.344186,0.268604651 Z M17.961394,5.76510757 L6.0259764,18.0186578 C7.36588915,19.8467193 8.81969818,21.1519272 9.96736325,22.0140225 L10.3380034,22.2850854 C10.3976949,22.3275637 10.4562975,22.3687018 10.5137392,22.4085132 L10.8438812,22.631572 L10.8438812,22.631572 L11.1427032,22.8234483 L11.1427032,22.8234483 L11.5246484,23.0542315 C11.5623074,23.0761404 11.5983013,23.0968183 11.6325581,23.1162791 L12.0240158,22.889125 L12.0240158,22.889125 L12.3795555,22.6677442 L12.3795555,22.6677442 L12.6426679,22.4951349 L12.6426679,22.4951349 L12.9245256,22.3020541 L12.9245256,22.3020541 L13.2233088,22.0881129 L13.2233088,22.0881129 L13.5371974,21.8529224 C13.5906698,21.8119317 13.6446958,21.7700393 13.6992374,21.7272372 L14.0323717,21.4594435 C14.1452768,21.366497 14.2599411,21.2698468 14.3760614,21.1694283 L14.7284866,20.8568025 C14.9659441,20.6407621 15.2080119,20.4093887 15.4522635,20.1621638 L15.8199752,19.7793729 L15.8199752,19.7793729 L16.1891426,19.3724159 C18.5279693,16.7176742 20.84487,12.5855335 21.0593023,6.53139535 C19.9790236,6.33145612 18.9458678,6.07579062 17.961394,5.76510757 Z M11.627907,2.50348837 C9.0872093,4.48953488 5.92209302,5.84186047 2.19651163,6.53139535 C2.35409582,10.8788374 3.61959472,14.2475771 5.19576213,16.7889649 L16.4523409,5.23079168 C14.65724,4.52231189 13.0453933,3.61152805 11.627907,2.50348837 Z" id="Shape"></path>
                </g>
            </g>
        </g>
    </g>
</svg>