<svg width="20" height="20" viewBox="0 0 20 20" fill="none" xmlns="http://www.w3.org/2000/svg">
<path fill-rule="evenodd" clip-rule="evenodd" d="M17.5132 8.87287C17.3946 8.87287 17.2988 8.77659 17.2988 8.65845V7.52543C17.2988 7.40683 17.3946 7.31055 17.5132 7.31055C17.6314 7.31055 17.7277 7.40683 17.7277 7.52543V8.65845C17.7277 8.77659 17.6314 8.87287 17.5132 8.87287Z" fill="white"/>
<path fill-rule="evenodd" clip-rule="evenodd" d="M14.6785 6.44443C14.4045 6.44443 14.1306 6.37839 13.9017 6.24629C13.5329 6.03327 13.3301 5.68211 13.3306 5.25839C13.3306 5.14025 13.4264 5.04443 13.5445 5.04443H13.545C13.6636 5.04443 13.7594 5.14071 13.7589 5.25885C13.7589 5.59746 13.9534 5.78071 14.1166 5.87467C14.4422 6.06304 14.9148 6.06304 15.2403 5.87467C15.4036 5.78071 15.598 5.59746 15.5975 5.25885C15.5975 5.14071 15.6934 5.04443 15.812 5.04443C15.9306 5.04443 16.0264 5.14025 16.0264 5.25839C16.0268 5.68211 15.8241 6.03327 15.4552 6.24629C15.2264 6.37839 14.9524 6.44443 14.6785 6.44443Z" fill="white"/>
<path fill-rule="evenodd" clip-rule="evenodd" d="M16.1026 5.01535C16.096 5.01349 16.0895 5.01209 16.083 5.0107C15.8886 4.97116 15.8156 4.94279 15.7774 4.8707C16.3374 4.38465 16.8798 3.61023 16.8798 2.74372C16.8798 1.02558 16.057 0 14.6788 0C13.3007 0 12.4774 1.02558 12.4774 2.74372C12.4774 3.61023 13.0202 4.38465 13.5802 4.8707C13.5421 4.94279 13.4691 4.97116 13.2746 5.0107C13.2677 5.01209 13.2616 5.01349 13.2546 5.01535C13.0984 5.05767 12.9416 5.10326 12.7863 5.15349C12.8407 5.35395 12.8821 5.56651 12.91 5.79023C13.07 5.73674 13.2379 5.68651 13.4133 5.63907C13.9463 5.52837 14.1681 5.31023 14.2598 4.81023C14.2812 4.69116 14.2346 4.56977 14.1384 4.49628C13.6467 4.12047 13.1207 3.46233 13.1207 2.74372C13.1207 1.95907 13.3235 0.643721 14.6788 0.643721C16.0342 0.643721 16.2365 1.95907 16.2365 2.74372C16.2365 3.46233 15.7109 4.12047 15.2193 4.49628C15.123 4.56977 15.076 4.69116 15.0979 4.81023C15.1895 5.31023 15.4114 5.52837 15.9439 5.63907C17.3733 6.02651 18.3249 6.57395 18.3249 7.97628C18.3249 8.1307 17.4272 8.57954 14.6788 8.57954C13.6105 8.57954 12.8226 8.51163 12.2574 8.41954C12.1821 8.52279 12.1012 8.62419 12.0146 8.72233C12.4263 8.84093 12.8467 8.98651 13.244 9.17674C13.7188 9.21023 14.2095 9.22279 14.6788 9.22279C16.6356 9.22279 18.9686 9.00651 18.9686 7.97628C18.9686 6.04977 17.5198 5.3986 16.1026 5.01535Z" fill="white"/>
<path fill-rule="evenodd" clip-rule="evenodd" d="M10.6068 16.7177C9.94632 16.7577 9.20027 16.781 8.35795 16.781C6.16167 16.781 4.6119 16.6247 3.5612 16.4159V14.7461C3.5612 14.5857 3.43097 14.4554 3.2705 14.4554C3.11004 14.4554 2.9798 14.5857 2.9798 14.7461V16.2819C2.04446 16.0336 1.6719 15.7466 1.6719 15.5559C1.6719 12.9461 3.42306 11.9345 6.05376 11.221C6.07004 11.2177 6.08492 11.214 6.10074 11.2103C6.2305 11.6959 6.54213 12.0968 7.01143 12.368C7.40771 12.5968 7.8826 12.7117 8.35795 12.7117C8.76539 12.7117 9.17236 12.6266 9.53004 12.4582C9.52539 12.3229 9.52074 12.188 9.52074 12.0489C9.52074 11.9512 9.53422 11.8573 9.55981 11.7675C9.5105 11.8038 9.4612 11.8368 9.41329 11.8643C8.80213 12.2182 7.91329 12.2182 7.30213 11.8643C7.0505 11.7191 6.76167 11.4638 6.65562 11.034C7.12771 10.8168 7.35236 10.4647 7.46632 9.84472C7.49562 9.68333 7.4319 9.51914 7.30213 9.4196C6.39236 8.72379 5.42027 7.50146 5.42027 6.15914C5.42027 4.98286 5.70632 2.24612 8.35795 2.24612C11.0091 2.24612 11.2952 4.98286 11.2952 6.15914C11.2952 7.50146 10.3231 8.72379 9.41329 9.4196C9.28353 9.51914 9.21981 9.68333 9.24957 9.84472C9.36306 10.4647 9.58818 10.8168 10.0598 11.034C10.0477 11.0838 10.0324 11.1303 10.0156 11.175C10.1263 11.1098 10.2505 11.0633 10.3849 11.0429C10.9254 10.961 11.4286 10.8401 11.897 10.6843C11.5603 10.5698 11.2179 10.468 10.8766 10.3759C10.8677 10.3731 10.8589 10.3712 10.85 10.3694C10.3714 10.2717 10.2366 10.1777 10.1626 9.93635C11.1691 9.08937 12.1672 7.70658 12.1672 6.15914C12.1672 3.16286 10.7431 1.37402 8.35795 1.37402C5.97236 1.37402 4.54818 3.16286 4.54818 6.15914C4.54818 7.70658 5.54632 9.08937 6.55283 9.93635C6.47888 10.1777 6.34399 10.2717 5.86539 10.3694C5.85655 10.3712 5.84771 10.3731 5.83888 10.3759C3.34678 11.0494 0.799805 12.1926 0.799805 15.5559C0.799805 16.5126 2.11097 17.6531 8.35795 17.6531C9.4105 17.6531 10.3203 17.6196 11.1105 17.5615C10.9347 17.2996 10.7649 17.0201 10.6068 16.7177Z" fill="white"/>
<mask id="mask0" mask-type="alpha" maskUnits="userSpaceOnUse" x="10" y="9" width="10" height="11">
<path fill-rule="evenodd" clip-rule="evenodd" d="M19.4048 9.8042V19.9786H10.1025V9.8042L19.4048 9.8042Z" fill="white"/>
</mask>
<g mask="url(#mask0)">
<path fill-rule="evenodd" clip-rule="evenodd" d="M10.9813 12.4168C11.1371 16.7154 14.0008 18.6219 14.7557 19.0507C15.5264 18.6219 18.3729 16.7503 18.5264 12.4168C17.0362 12.1409 15.7701 11.6 14.7538 10.8056C13.7376 11.6 12.4715 12.1409 10.9813 12.4168ZM14.7537 19.9786C14.6914 19.9786 14.6291 19.9651 14.5709 19.9386C14.3886 19.8544 10.1025 17.8089 10.1025 12.0489C10.1025 11.8335 10.2602 11.6507 10.4732 11.6182C12.1086 11.3702 13.4523 10.7958 14.4672 9.91164C14.6314 9.76839 14.876 9.76839 15.0402 9.91164C16.0551 10.7958 17.3988 11.3702 19.0342 11.6182C19.2472 11.6507 19.4049 11.8335 19.4049 12.0489C19.4049 17.8089 15.1188 19.8544 14.9365 19.9386C14.8784 19.9651 14.816 19.9786 14.7537 19.9786Z" fill="white"/>
</g>
<path fill-rule="evenodd" clip-rule="evenodd" d="M12.2561 17.2748L11.8398 16.8693L17.1082 11.46L17.525 11.8655L12.2561 17.2748Z" fill="white"/>
</svg>
