<svg width="20" height="20" viewBox="0 0 20 20" fill="none" xmlns="http://www.w3.org/2000/svg">
<path fill-rule="evenodd" clip-rule="evenodd" d="M17.5132 8.87287C17.3946 8.87287 17.2988 8.77659 17.2988 8.65845V7.52543C17.2988 7.40683 17.3946 7.31055 17.5132 7.31055C17.6314 7.31055 17.7277 7.40683 17.7277 7.52543V8.65845C17.7277 8.77659 17.6314 8.87287 17.5132 8.87287" fill="#AF4B28"/>
<path fill-rule="evenodd" clip-rule="evenodd" d="M14.679 6.44492C14.405 6.44492 14.1311 6.37888 13.9022 6.24678C13.5334 6.03376 13.3306 5.6826 13.3311 5.25888C13.3311 5.14074 13.4269 5.04492 13.545 5.04492H13.5455C13.6641 5.04492 13.7599 5.1412 13.7594 5.25934C13.7594 5.59795 13.9538 5.7812 14.1171 5.87515C14.4427 6.06353 14.9152 6.06353 15.2408 5.87515C15.4041 5.7812 15.5985 5.59795 15.598 5.25934C15.598 5.1412 15.6938 5.04492 15.8124 5.04492C15.9311 5.04492 16.0269 5.14074 16.0269 5.25888C16.0273 5.6826 15.8245 6.03376 15.4557 6.24678C15.2269 6.37888 14.9529 6.44492 14.679 6.44492" fill="#AF4B28"/>
<path fill-rule="evenodd" clip-rule="evenodd" d="M16.1026 5.01535C16.096 5.01349 16.0895 5.01209 16.083 5.0107C15.8886 4.97116 15.8156 4.94279 15.7774 4.8707C16.3374 4.38465 16.8798 3.61023 16.8798 2.74372C16.8798 1.02558 16.057 0 14.6788 0C13.3007 0 12.4774 1.02558 12.4774 2.74372C12.4774 3.61023 13.0202 4.38465 13.5802 4.8707C13.5421 4.94279 13.4691 4.97116 13.2746 5.0107C13.2677 5.01209 13.2616 5.01349 13.2546 5.01535C13.0984 5.05767 12.9416 5.10326 12.7863 5.15349C12.8407 5.35395 12.8821 5.56651 12.91 5.79023C13.07 5.73674 13.2379 5.68651 13.4133 5.63907C13.9463 5.52837 14.1681 5.31023 14.2598 4.81023C14.2812 4.69116 14.2346 4.56977 14.1384 4.49628C13.6467 4.12047 13.1207 3.46233 13.1207 2.74372C13.1207 1.95907 13.3235 0.643721 14.6788 0.643721C16.0342 0.643721 16.2365 1.95907 16.2365 2.74372C16.2365 3.46233 15.7109 4.12047 15.2193 4.49628C15.123 4.56977 15.076 4.69116 15.0979 4.81023C15.1895 5.31023 15.4114 5.52837 15.9439 5.63907C17.3733 6.02651 18.3249 6.57395 18.3249 7.97628C18.3249 8.1307 17.4272 8.57954 14.6788 8.57954C13.6105 8.57954 12.8226 8.51163 12.2574 8.41954C12.1821 8.52279 12.1012 8.62419 12.0146 8.72233C12.4263 8.84093 12.8467 8.98651 13.244 9.17674C13.7188 9.21023 14.2095 9.22279 14.6788 9.22279C16.6356 9.22279 18.9686 9.00651 18.9686 7.97628C18.9686 6.04977 17.5198 5.3986 16.1026 5.01535" fill="#AF4B28"/>
<path fill-rule="evenodd" clip-rule="evenodd" d="M10.6068 16.7168C9.94632 16.7568 9.20027 16.78 8.35795 16.78C6.16167 16.78 4.6119 16.6237 3.5612 16.4149V14.7451C3.5612 14.5847 3.43097 14.4544 3.2705 14.4544C3.11004 14.4544 2.9798 14.5847 2.9798 14.7451V16.281C2.04446 16.0326 1.6719 15.7456 1.6719 15.5549C1.6719 12.9451 3.42306 11.9335 6.05376 11.22C6.07004 11.2168 6.08492 11.213 6.10074 11.2093C6.2305 11.6949 6.54213 12.0958 7.01143 12.367C7.40771 12.5958 7.8826 12.7107 8.35795 12.7107C8.76539 12.7107 9.17236 12.6256 9.53004 12.4572C9.52539 12.3219 9.52074 12.187 9.52074 12.0479C9.52074 11.9503 9.53422 11.8563 9.55981 11.7665C9.5105 11.8028 9.4612 11.8358 9.41329 11.8633C8.80213 12.2172 7.91329 12.2172 7.30213 11.8633C7.0505 11.7182 6.76167 11.4628 6.65562 11.033C7.12771 10.8158 7.35236 10.4637 7.46632 9.84374C7.49562 9.68235 7.4319 9.51816 7.30213 9.41863C6.39236 8.72281 5.42027 7.50049 5.42027 6.15816C5.42027 4.98188 5.70632 2.24514 8.35795 2.24514C11.0091 2.24514 11.2952 4.98188 11.2952 6.15816C11.2952 7.50049 10.3231 8.72281 9.41329 9.41863C9.28353 9.51816 9.21981 9.68235 9.24957 9.84374C9.36306 10.4637 9.58818 10.8158 10.0598 11.033C10.0477 11.0828 10.0324 11.1293 10.0156 11.174C10.1263 11.1089 10.2505 11.0623 10.3849 11.0419C10.9254 10.96 11.4286 10.8391 11.897 10.6833C11.5603 10.5689 11.2179 10.467 10.8766 10.3749C10.8677 10.3721 10.8589 10.3703 10.85 10.3684C10.3714 10.2707 10.2366 10.1768 10.1626 9.93537C11.1691 9.08839 12.1672 7.7056 12.1672 6.15816C12.1672 3.16188 10.7431 1.37305 8.35795 1.37305C5.97236 1.37305 4.54818 3.16188 4.54818 6.15816C4.54818 7.7056 5.54632 9.08839 6.55283 9.93537C6.47888 10.1768 6.34399 10.2707 5.86539 10.3684C5.85655 10.3703 5.84771 10.3721 5.83888 10.3749C3.34678 11.0484 0.799805 12.1917 0.799805 15.5549C0.799805 16.5117 2.11097 17.6521 8.35795 17.6521C9.4105 17.6521 10.3203 17.6186 11.1105 17.5605C10.9347 17.2986 10.7649 17.0191 10.6068 16.7168" fill="white"/>
<mask id="mask0" mask-type="alpha" maskUnits="userSpaceOnUse" x="10" y="9" width="10" height="11">
<path fill-rule="evenodd" clip-rule="evenodd" d="M19.4048 9.80469V19.9791H10.1025V9.80469L19.4048 9.80469Z" fill="white"/>
</mask>
<g mask="url(#mask0)">
<path fill-rule="evenodd" clip-rule="evenodd" d="M10.9813 12.4172C11.1371 16.7159 14.0008 18.6224 14.7557 19.0512C15.5264 18.6224 18.3729 16.7507 18.5264 12.4172C17.0362 12.1414 15.7701 11.6005 14.7538 10.8061C13.7376 11.6005 12.4715 12.1414 10.9813 12.4172M14.7537 19.9791C14.6914 19.9791 14.6291 19.9656 14.5709 19.9391C14.3886 19.8549 10.1025 17.8093 10.1025 12.0493C10.1025 11.834 10.2602 11.6512 10.4732 11.6186C12.1086 11.3707 13.4523 10.7963 14.4672 9.91213C14.6314 9.76887 14.876 9.76887 15.0402 9.91213C16.0551 10.7963 17.3988 11.3707 19.0342 11.6186C19.2472 11.6512 19.4049 11.834 19.4049 12.0493C19.4049 17.8093 15.1188 19.8549 14.9365 19.9391C14.8784 19.9656 14.816 19.9791 14.7537 19.9791" fill="white"/>
</g>
<path fill-rule="evenodd" clip-rule="evenodd" d="M12.2561 17.2739L11.8398 16.8683L17.1082 11.459L17.525 11.8646L12.2561 17.2739Z" fill="white"/>
</svg>
