<?xml version="1.0" encoding="UTF-8"?>
<svg width="50px" height="50px" viewBox="0 0 50 50" version="1.1" xmlns="http://www.w3.org/2000/svg" xmlns:xlink="http://www.w3.org/1999/xlink">
    <title>Health History / blood inactive</title>
    <g id="Health-History-/-blood-inactive" stroke="none" stroke-width="1" fill="none" fill-rule="evenodd">
        <g id="Shape-2" transform="translate(6.000000, 1.000000)" fill="#999999" fill-rule="nonzero">
            <path d="M19.5856957,0.231685477 C19.2577145,-0.0772284924 18.7422855,-0.0772284924 18.4143043,0.231685477 C17.6625652,0.975055096 0,18.6729702 0,30.2115371 C0,42.4150522 9.78913043,49 19,49 C28.2108696,49 38,42.4150522 38,30.2115371 C38,18.6729702 20.3374348,0.975055096 19.5856957,0.231685477 Z M19,37.5635443 C18.9256522,37.5635443 11.5652174,37.4818554 11.5652174,30.2115371 C11.7983183,28.5823694 12.3601686,27.0161474 13.2173913,25.605913 C13.4933043,31.7775147 15.6956522,34.9764547 21.4782609,37.1240577 C20.6764701,37.3822688 19.842562,37.5301513 19,37.5635443 Z" id="Shape"></path>
        </g>
    </g>
</svg>