<?xml version="1.0" encoding="UTF-8"?>
<svg width="50px" height="50px" viewBox="0 0 50 50" version="1.1" xmlns="http://www.w3.org/2000/svg" xmlns:xlink="http://www.w3.org/1999/xlink">
    <title>Health History / Brain &amp; Nervous System active</title>
    <g id="Health-History-/-Brain-&amp;-Nervous-System-active" stroke="none" stroke-width="1" fill="none" fill-rule="evenodd">
        <path d="M46.7349398,25.4596913 C44.7125645,27.3138937 42.2048193,28.3619211 39.454389,28.5231561 C39.130809,31.3447684 37.2702238,33.7632933 34.6006885,34.7307033 C34.5197935,34.7307033 34.4388985,34.8113208 34.3580034,34.8113208 C34.0344234,34.8113208 33.7108434,34.5694683 33.6299484,34.2469983 C33.4681583,33.8439108 33.7108434,33.3602058 34.1153184,33.1989708 C36.4612737,32.3927959 37.9982788,30.2161235 37.9982788,27.7169811 C37.9982788,26.1046312 37.2702238,24.4922813 36.0567986,23.3636364 C35.7332186,23.0411664 35.7332186,22.5574614 35.9759036,22.2349914 C36.2994836,21.9125214 36.7848537,21.9125214 37.1084337,22.1543739 C38.4836489,23.3636364 39.292599,25.0566038 39.535284,26.8301887 C42.0430293,26.6689537 44.3080895,25.6209262 46.0877797,23.7667238 C46.0877797,23.7667238 46.0877797,23.7667238 46.0877797,23.6861063 C47.9483649,21.7512864 49,19.2521441 49,16.5917667 C49,10.948542 44.3889845,6.43396226 38.8072289,6.43396226 C38.8072289,6.43396226 38.7263339,6.43396226 38.7263339,6.43396226 C38.6454389,6.43396226 38.5645439,6.43396226 38.4836489,6.43396226 C38.1600688,6.43396226 37.8364888,6.19210978 37.6746988,5.86963979 C36.8657487,3.53173242 34.6815835,2 32.1738382,2 C28.9380379,2 26.3493976,4.57975986 26.3493976,7.80445969 C26.3493976,10.948542 28.7762478,13.2864494 32.0120482,13.2864494 C32.4974182,13.2864494 32.8209983,13.6089194 32.8209983,14.0926244 C32.8209983,14.5763293 32.4974182,14.8987993 32.0120482,14.8987993 C29.0998279,14.8987993 26.7538726,13.4476844 25.5404475,11.109777 C24.3270224,13.3670669 21.9810671,14.8987993 19.0688468,14.8987993 C18.5834768,14.8987993 18.2598967,14.5763293 18.2598967,14.0926244 C18.2598967,13.6089194 18.5834768,13.2864494 19.0688468,13.2864494 C22.3046472,13.2864494 24.7314974,10.948542 24.7314974,7.80445969 C24.7314974,4.57975986 22.1428571,2 18.9070568,2 C16.4802065,2 14.2960413,3.53173242 13.4061962,5.86963979 C13.3253012,6.19210978 13.0017212,6.43396226 12.5972461,6.43396226 C12.5163511,6.43396226 12.4354561,6.43396226 12.3545611,6.43396226 C12.3545611,6.43396226 12.2736661,6.43396226 12.2736661,6.43396226 C6.61101549,6.67581475 2,11.1903945 2,16.8336192 C2,19.4939966 3.05163511,21.9931389 4.91222031,23.9279588 C4.91222031,23.9279588 4.91222031,23.9279588 4.91222031,24.0085763 C6.6919105,25.7821612 8.95697074,26.8301887 11.464716,27.0720412 C11.707401,25.2984563 12.5163511,23.6054889 13.8915663,22.3962264 C14.2151463,22.0737564 14.7005164,22.1543739 15.0240964,22.4768439 C15.3476764,22.7993139 15.2667814,23.2830189 14.9432014,23.6054889 C13.7297762,24.7341338 13.0017212,26.2658662 13.0017212,27.9588336 C13.0017212,30.3773585 14.5387263,32.6346484 16.8846816,33.4408233 C17.2891566,33.6020583 17.5318417,34.0857633 17.3700516,34.4888508 C17.2891566,34.8113208 16.9655766,35.0531732 16.6419966,35.0531732 C16.5611015,35.0531732 16.4802065,35.0531732 16.3993115,34.9725557 C13.7297762,34.0051458 11.788296,31.5866209 11.545611,28.7650086 C8.79518072,28.6037736 6.28743546,27.5557461 4.26506024,25.7015437 C2.80895009,26.5883362 2,28.2006861 2,30.0548885 C2,31.9090909 2.88984509,33.6826758 4.42685026,34.8113208 C4.75043029,35.0531732 4.8313253,35.3756432 4.75043029,35.6981132 C4.34595525,36.8267581 4.18416523,37.8747856 4.18416523,38.8421955 C4.18416523,44.4854202 8.79518072,49 14.3769363,49 C19.9586919,49 24.6506024,44.4048027 24.6506024,38.8421955 L24.6506024,22.3962264 C24.6506024,21.9125214 24.9741824,21.5900515 25.4595525,21.5900515 C25.9449225,21.5900515 26.2685026,21.9125214 26.2685026,22.3962264 L26.2685026,38.8421955 C26.2685026,44.4854202 30.8795181,49 36.4612737,49 C42.0430293,49 46.6540448,44.4048027 46.6540448,38.8421955 C46.6540448,37.8747856 46.4922547,36.8267581 46.0877797,35.6981132 C46.0068847,35.3756432 46.0877797,34.9725557 46.4113597,34.8113208 C47.9483649,33.6826758 48.83821,31.9897084 48.83821,30.0548885 C48.919105,28.2006861 48.1101549,26.5883362 46.7349398,25.4596913 Z" id="Path-Copy" fill="#FFFFFF" fill-rule="nonzero"></path>
    </g>
</svg>