<svg width="50" height="50" viewBox="0 0 50 50" fill="none" xmlns="http://www.w3.org/2000/svg">
<mask id="mask0" mask-type="alpha" maskUnits="userSpaceOnUse" x="0" y="4" width="49" height="42">
<path fill-rule="evenodd" clip-rule="evenodd" d="M0.000610352 45.2997H48.9335V4H0.000610352L0.000610352 45.2997Z" fill="white"/>
</mask>
<path fill-rule="evenodd" clip-rule="evenodd" d="M45.811 22.3024C45.811 22.8676 45.3524 23.3262 44.7872 23.3262H27.6194H21.3158H4.14691C3.58284 23.3262 3.12311 22.8676 3.12311 22.3024V15.5499C3.12311 14.9847 3.58284 14.525 4.14691 14.525H44.7872C45.3524 14.525 45.811 14.9847 45.811 15.5499V22.3024ZM22.4765 32.635L22.4809 26.4487H26.4565L26.4522 32.635H22.4765ZM45.811 41.1526C45.811 41.7178 45.3524 42.1775 44.7872 42.1775H4.14691C3.58284 42.1775 3.12311 41.7178 3.12311 41.1526V26.3063C3.45242 26.3911 3.79152 26.4487 4.14691 26.4487H19.3529V33.2839C19.3529 34.7174 20.1789 35.7586 21.3158 35.7586H27.6194C28.5933 35.7586 29.5801 34.9087 29.5801 33.2839V26.4487H44.7872C45.1426 26.4487 45.4817 26.3911 45.811 26.3063V41.1526ZM16.3087 8.14739C16.3087 7.58223 16.7673 7.1225 17.3314 7.1225H31.6016C32.1668 7.1225 32.6265 7.58223 32.6265 8.14739V11.4025H16.3087V8.14739ZM44.7872 11.4025H35.7501V8.14739C35.7501 5.86067 33.8894 4 31.6016 4H17.3314C15.0458 4 13.1862 5.86067 13.1862 8.14739V11.4025H4.14691C1.8602 11.4025 0.000610352 13.2632 0.000610352 15.5499V22.3024V41.1526C0.000610352 43.4393 1.8602 45.3 4.14691 45.3H44.7872C47.0739 45.3 48.9335 43.4393 48.9335 41.1526V22.3024V15.5499C48.9335 13.2632 47.0739 11.4025 44.7872 11.4025Z" fill="white"/>
</svg>
