<?xml version="1.0" encoding="UTF-8"?>
<svg width="23px" height="23px" viewBox="0 0 23 23" version="1.1" xmlns="http://www.w3.org/2000/svg" xmlns:xlink="http://www.w3.org/1999/xlink">
    <title>notification</title>
    <g id="Login-to-V1/V2-" stroke="none" stroke-width="1" fill="none" fill-rule="evenodd">
        <g id="Create-a-Client-/-001-Copy-9" transform="translate(-19.000000, -18.000000)" fill="#FFFFFF" fill-rule="nonzero">
            <g id="notification" transform="translate(19.000000, 18.000000)">
                <path d="M9.80069047,15.482458 L5,14 L8.28442648,21.840992 C8.68850459,22.7912154 9.80666072,23.2478669 10.7897029,22.8641392 C11.772745,22.4804115 12.2531667,21.3997596 11.8661082,20.4428927 L9.80069047,15.482458 Z" id="Path"></path>
                <path d="M20,7.99996622 C20.0020344,7.06007569 19.575872,6.17377563 18.8491602,5.60655475 C18.1224483,5.03933388 17.1795882,4.85706985 16.303011,5.11435935 C16.0977613,6.06216118 15.9961605,7.03069995 16.0001109,8.0018412 C15.9962199,8.97155524 16.0974515,9.93867914 16.3019201,10.8851981 C17.1785947,11.1430608 18.1218117,10.9611112 18.8488321,10.3938906 C19.5758525,9.82666996 20.0021701,8.94011 20,7.99996622 Z" id="Path"></path>
                <path d="M18.5920465,0 C18.2599404,0.00251756176 17.9316198,0.0713161378 17.6260465,0.202422342 L17.6260465,0.199718227 L2.4920465,5.24868771 C0.864029831,5.78101211 0.00344649795,6.91674052 0.00382983128,8.51680414 C-0.07129198,10.1112443 0.965746202,11.5431507 2.4954965,11.9572114 L17.7283965,16.8408435 L17.7283965,16.8408435 C18.0045914,16.9447666 18.2968472,16.9986485 18.5916632,17 C21.0637798,17 23,13.267162 23,8.50135206 C23,3.73554207 21.0641632,0 18.5920465,0 Z M18.5920465,16.2246915 C16.6182632,16.2246915 14.9503798,12.6869362 14.9503798,8.49864794 C14.9503798,4.31035972 16.6182632,0.772604358 18.5920465,0.772604358 C20.5658298,0.772604358 22.2337132,4.31074602 22.2337132,8.49864794 C22.2337132,12.6865499 20.5662132,16.2246915 18.5920465,16.2246915 Z" id="Shape"></path>
            </g>
        </g>
    </g>
</svg>