<svg width="27" height="27" viewBox="0 0 27 27" fill="none" xmlns="http://www.w3.org/2000/svg">
<path fill-rule="evenodd" clip-rule="evenodd" d="M18.8984 6.52344H21.7266C23.2891 6.52344 24.5547 7.74609 24.5547 9.22266V19C24.5547 20.4766 23.2891 21.6562 21.7266 21.6562H4.75781C3.19531 21.6562 1.92969 20.4609 1.92969 18.9844V9.21094C1.92969 7.73438 3.19531 6.52734 4.75781 6.52734H7.58594L9.47266 3.85547H17.0156L18.8984 6.52344ZM21.7305 19.8789C22.2578 19.8789 22.6719 19.4922 22.6719 19V9.22656C22.6719 8.72656 22.2383 8.30859 21.7305 8.30859H17.8906L16.0391 5.63672H10.4805L8.59766 8.30859H4.75781C4.23828 8.30859 3.81641 8.71094 3.81641 9.21094V18.9883C3.81641 19.4766 4.23828 19.8789 4.75781 19.8789H21.7305ZM13.2422 9.19531C10.6367 9.19531 8.52734 11.1875 8.52734 13.6445C8.52734 16.1016 10.6367 18.0938 13.2422 18.0938C15.8438 18.0938 17.957 16.1016 17.957 13.6445C17.957 11.1875 15.8438 9.19531 13.2422 9.19531ZM10.4141 13.6484C10.4141 15.1172 11.6836 16.3164 13.2422 16.3164C14.8008 16.3164 16.0703 15.1172 16.0703 13.6484C16.0703 12.1758 14.8008 10.9766 13.2422 10.9766C11.6836 10.9766 10.4141 12.1758 10.4141 13.6484Z" fill="#6F6F6F"/>
</svg>
