<svg xmlns="http://www.w3.org/2000/svg" width="15" height="15" viewBox="0 0 15 15"><path fill="#A3A3A3" d="M13.9275,2.92880827 C11.8506434,2.69742615 9.90513699,1.79799569 8.38375,0.365867541 C7.89562519,-0.121955847 7.10437481,-0.121955847 6.61625,0.365867541 C5.09486301,1.79799569 3.1493566,2.69742615 1.0725,2.92880827 C0.457422248,3.01701534 0.000538552309,3.54349009 0,4.16466803 C0,4.48831584 0.08,12.1246546 7.035,14.9112747 C7.33370659,15.0295751 7.66629341,15.0295751 7.965,14.9112747 C14.92,12.1209058 15,4.48831584 15,4.16466803 C14.9994614,3.54349009 14.5425778,3.01701534 13.9275,2.92880827 Z M7.5,12.3845725 C4.74459467,10.9776694 2.89349018,8.26708807 2.58625,5.18934448 C4.37285019,4.80494171 6.05139481,4.02761663 7.5,2.913813 C8.94721227,4.0257982 10.6234006,4.80259388 12.4075,5.18809488 C12.0890426,8.2602884 10.2442405,10.9655512 7.5,12.3845725 L7.5,12.3845725 Z"/></svg>