<svg xmlns="http://www.w3.org/2000/svg" xmlns:xlink="http://www.w3.org/1999/xlink" width="44" height="44" viewBox="0 0 44 44">
  <defs>
    <polygon id="cases-a" points="0 44 32.052 44 32.052 6.696 0 6.696"/>
    <polygon id="cases-c" points="0 43.702 32.052 43.702 32.052 6.547 0 6.547"/>
  </defs>
  <g fill="none" fill-rule="evenodd" transform="translate(-8 -8)">
    <g transform="translate(8 8)">
      <path fill="#FFF" d="M15.4983155,0 C13.5552219,0 11.9718157,1.4182267 11.9718157,3.16231228 L11.9718157,4.49537132 C11.9718157,5.12857437 12.519166,5.64328328 13.1877153,5.64328328 C13.8601743,5.64328328 14.4036149,5.12857437 14.4036149,4.49537132 L14.4036149,3.16231228 C14.4036149,2.68833573 14.8962302,2.30322979 15.4983155,2.30322979 L39.7381145,2.30322979 C40.3401998,2.30322979 40.8328151,2.68833573 40.8328151,3.16231228 L40.8328151,32.8376877 C40.8328151,33.3116643 40.3401998,33.7004732 39.7381145,33.7004732 L35.9731263,33.7004732 C35.304577,33.7004732 34.7572267,34.2151821 34.7572267,34.8483851 C34.7572267,35.4852911 35.304577,36 35.9731263,36 L39.7381145,36 C41.681208,36 43.2607046,34.5780704 43.2607046,32.8376877 L43.2607046,3.16231228 C43.2607046,1.4182267 41.681208,0 39.7381145,0 L15.4983155,0 Z"/>
      <mask id="cases-b" fill="#fff">
        <use xlink:href="#cases-a"/>
      </mask>
      <path fill="#FFF" d="M8.79895051,14.516331 C8.79895051,15.0531173 8.28026767,15.4892563 7.64217584,15.4892563 L3.95915457,15.4892563 L8.79895051,10.6544515 L8.79895051,14.516331 Z M2.32101239,17.8041474 L7.64217584,17.8041474 C9.55645134,17.8041474 11.1162314,16.3279849 11.1162314,14.516331 L11.1162314,9.01427097 L27.8111018,9.01427097 C28.4491937,9.01427097 28.9678765,9.45040987 28.9678765,9.98719622 L28.9678765,41.4041081 C28.9678765,41.9408945 28.4491937,42.3770334 27.8111018,42.3770334 L3.47778705,42.3770334 C2.83969522,42.3770334 2.32101239,41.9408945 2.32101239,41.4041081 L2.32101239,17.8041474 Z M27.8111018,6.69565217 L9.9594567,6.69565217 C9.90721527,6.69565217 9.86243689,6.72174595 9.81392699,6.72547364 C9.75795402,6.732929 9.70944411,6.74411205 9.65720268,6.75902278 C9.45943152,6.81121035 9.28031803,6.89694705 9.14225137,7.03487132 C9.13851984,7.03859901 9.13851984,7.03487132 9.13851984,7.03859901 L0.339569337,15.8284754 C0.201502683,15.9663997 0.115677466,16.1490561 0.0597044988,16.3466233 C0.0447783741,16.3988109 0.0373153117,16.4472708 0.0298522494,16.4994583 C0.022389187,16.5479182 0,16.5963781 0,16.644838 L0,41.4041081 C0,43.2194897 1.55978003,44.6956522 3.47778705,44.6956522 L27.8111018,44.6956522 C29.7291089,44.6956522 31.2888889,43.2194897 31.2888889,41.4041081 L31.2888889,9.98719622 C31.2888889,8.17181462 29.7291089,6.69565217 27.8111018,6.69565217 L27.8111018,6.69565217 Z" mask="url(#cases-b)"/>
      <path fill="#FFF" d="M23.8215213 23.0434783C24.2566761 23.0434783 24.6113821 22.5954413 24.6113821 22.0457877 24.6113821 21.4961342 24.2566761 21.0434783 23.8215213 21.0434783L7.80489967 21.0434783C7.36608812 21.0434783 7.01138211 21.4961342 7.01138211 22.0457877 7.01138211 22.5954413 7.36608812 23.0434783 7.80489967 23.0434783L23.8215213 23.0434783zM23.8215213 28.826087C24.2566761 28.826087 24.6113821 28.37805 24.6113821 27.8283964 24.6113821 27.2741239 24.2566761 26.826087 23.8215213 26.826087L7.80489967 26.826087C7.36608812 26.826087 7.01138211 27.2741239 7.01138211 27.8283964 7.01138211 28.37805 7.36608812 28.826087 7.80489967 28.826087L23.8215213 28.826087zM23.8215213 34.6521739C24.2566761 34.6521739 24.6113821 34.204137 24.6113821 33.6544834 24.6113821 33.1002109 24.2566761 32.6521739 23.8215213 32.6521739L7.80489967 32.6521739C7.36608812 32.6521739 7.01138211 33.1002109 7.01138211 33.6544834 7.01138211 34.204137 7.36608812 34.6521739 7.80489967 34.6521739L23.8215213 34.6521739z" mask="url(#cases-b)"/>
    </g>
    <g transform="translate(8 8)">
      <path fill="#FFF" d="M15.4983155,0 C13.5552219,0 11.9718157,1.38671055 11.9718157,3.09203868 L11.9718157,4.39547418 C11.9718157,5.01460605 12.519166,5.51787698 13.1877153,5.51787698 C13.8601743,5.51787698 14.4036149,5.01460605 14.4036149,4.39547418 L14.4036149,3.09203868 C14.4036149,2.62859494 14.8962302,2.2520469 15.4983155,2.2520469 L39.7381145,2.2520469 C40.3401998,2.2520469 40.8328151,2.62859494 40.8328151,3.09203868 L40.8328151,32.1079613 C40.8328151,32.5714051 40.3401998,32.9515738 39.7381145,32.9515738 L35.9731263,32.9515738 C35.304577,32.9515738 34.7572267,33.4548447 34.7572267,34.0739765 C34.7572267,34.6967291 35.304577,35.2 35.9731263,35.2 L39.7381145,35.2 C41.681208,35.2 43.2607046,33.8096688 43.2607046,32.1079613 L43.2607046,3.09203868 C43.2607046,1.38671055 41.681208,0 39.7381145,0 L15.4983155,0 Z"/>
      <mask id="cases-d" fill="#fff">
        <use xlink:href="#cases-c"/>
      </mask>
      <path fill="#FFF" d="M8.79895051,14.1937459 C8.79895051,14.7186036 8.28026767,15.1450506 7.64217584,15.1450506 L3.95915457,15.1450506 L8.79895051,10.4176859 L8.79895051,14.1937459 Z M2.32101239,17.4084996 L7.64217584,17.4084996 C9.55645134,17.4084996 11.1162314,15.9651408 11.1162314,14.1937459 L11.1162314,8.81395384 L27.8111018,8.81395384 C28.4491937,8.81395384 28.9678765,9.24040077 28.9678765,9.76525853 L28.9678765,40.4840168 C28.9678765,41.0088746 28.4491937,41.4353215 27.8111018,41.4353215 L3.47778705,41.4353215 C2.83969522,41.4353215 2.32101239,41.0088746 2.32101239,40.4840168 L2.32101239,17.4084996 Z M9.9594567,6.5468599 C9.90721527,6.5468599 9.86243689,6.57237382 9.81392699,6.57601867 C9.75795402,6.58330836 9.70944411,6.5942429 9.65720268,6.60882228 C9.45943152,6.65985012 9.28031803,6.74368156 9.14225137,6.87854085 L0.339569337,15.4767315 C0.201502683,15.6115908 0.115677466,15.7901882 0.0597044988,15.983365 C0.0447783741,16.0343929 0.0373153117,16.0817759 0.0298522494,16.1328037 C0.022389187,16.1801867 0,16.2275697 0,16.2749527 L0,40.4840168 C0,42.2590566 1.55978003,43.7024155 3.47778705,43.7024155 C9.20328752,43.7024155 13.4974129,43.7024155 16.3601631,43.7024155 C18.9048162,43.7024155 22.7217957,43.7024155 27.8111018,43.7024155 C29.7291089,43.7024155 31.2888889,42.2590566 31.2888889,40.4840168 L31.2888889,9.76525853 C31.2888889,7.99021874 29.7291089,6.5468599 27.8111018,6.5468599 L9.9594567,6.5468599 Z" mask="url(#cases-d)"/>
      <path fill="#FFF" d="M23.8215213 22.531401C24.2566761 22.531401 24.6113821 22.0933204 24.6113821 21.5558813 24.6113821 21.0184423 24.2566761 20.5758454 23.8215213 20.5758454L7.80489967 20.5758454C7.36608812 20.5758454 7.01138211 21.0184423 7.01138211 21.5558813 7.01138211 22.0933204 7.36608812 22.531401 7.80489967 22.531401L23.8215213 22.531401zM23.8215213 28.1855072C24.2566761 28.1855072 24.6113821 27.7474267 24.6113821 27.2099876 24.6113821 26.6680323 24.2566761 26.2299517 23.8215213 26.2299517L7.80489967 26.2299517C7.36608812 26.2299517 7.01138211 26.6680323 7.01138211 27.2099876 7.01138211 27.7474267 7.36608812 28.1855072 7.80489967 28.1855072L23.8215213 28.1855072zM23.8215213 33.8821256C24.2566761 33.8821256 24.6113821 33.444045 24.6113821 32.906606 24.6113821 32.3646506 24.2566761 31.92657 23.8215213 31.92657L7.80489967 31.92657C7.36608812 31.92657 7.01138211 32.3646506 7.01138211 32.906606 7.01138211 33.444045 7.36608812 33.8821256 7.80489967 33.8821256L23.8215213 33.8821256z" mask="url(#cases-d)"/>
    </g>
  </g>
</svg>
