<svg xmlns="http://www.w3.org/2000/svg" width="42" height="39.29" viewBox="0 0 42 39.29">
  <path fill="#FF7747" d="M38.9028387,18.0579677 C40.8375889,19.8804361 41.9544115,22.4069663 42,25.0645161 C42,27.922379 40.6608404,30.6227679 38.2121185,32.7368582 L37.9354839,32.9693226 L37.9354839,38.6129032 C37.9354839,38.9870316 37.6321929,39.2903226 37.2580645,39.2903226 C37.166822,39.2896917 37.0769381,39.2708587 36.9935767,39.2352613 L36.9125806,39.194129 L31.6354839,36.027871 C30.1505251,36.3951235 28.6264725,36.5807395 27.0967742,36.5806452 C21.833391,36.5806452 17.0142596,34.4122584 14.3535443,31.0121423 L14.1580645,30.7548387 L14.2522258,30.710129 C15.8063544,31.008645 17.3852045,31.1597029 18.9677419,31.1612903 C28.8241935,31.1612903 37.0616129,25.5177097 38.9028387,18.0579677 Z M18.9677419,2.06057393e-13 C29.4264194,2.06057393e-13 37.9354839,6.68545161 37.9354839,14.9032258 C37.9354839,23.121 29.4264194,29.8064516 18.9677419,29.8064516 C17.319223,29.8045393 15.6753532,29.6315482 14.0625484,29.2902581 L5.04474194,33.8032258 C4.95040709,33.8489304 4.84675268,33.8721193 4.74193548,33.8710467 C4.3678071,33.8710467 4.06451613,33.5676768 4.06451613,33.1935484 L4.06451613,24.116129 C1.53276863,21.7118459 0.0690165957,18.3940079 6.39488462e-14,14.9032258 C6.39488462e-14,6.68545161 8.50906452,2.06057393e-13 18.9677419,2.06057393e-13 Z"/>
</svg>
