<svg width="53" height="53" viewBox="0 0 53 53" fill="none" xmlns="http://www.w3.org/2000/svg">
<path fill-rule="evenodd" clip-rule="evenodd" d="M26.4742 0.0351562C11.8521 0.0351562 -0.000396729 11.8916 -0.000396729 26.5177C-0.000396729 41.1437 11.8521 53.0002 26.4742 53.0002C41.0964 53.0002 52.9489 41.1437 52.9489 26.5177C52.9489 11.8916 41.0964 0.0351562 26.4742 0.0351562Z" class="pf-svg-primary-path"/>
<path fill-rule="evenodd" clip-rule="evenodd" d="M42.7799 17.4819L38.5189 13.2199C38.2254 12.9267 37.7481 12.9267 37.4546 13.2199L22.0031 28.6647L14.5454 21.2082C14.2519 20.915 13.7746 20.915 13.4811 21.2082L9.22009 25.4702C8.92664 25.7634 8.92664 26.2405 9.22009 26.5337L21.4749 38.7801C21.7683 39.0733 22.2418 39.0733 22.5352 38.7801L42.7799 18.5455C43.0734 18.2522 43.0734 17.7752 42.7799 17.4819Z" fill="white"/>
</svg>
