<svg width="20" height="20" viewBox="0 0 20 20" fill="none" xmlns="http://www.w3.org/2000/svg">
<path fill-rule="evenodd" clip-rule="evenodd" d="M4.096 9.36L11.692 1.764L9.92933 0L4.096 5.83333L1.76267 3.5L0 5.264L4.096 9.36Z" transform="translate(4.154 5.31641)" fill="#7FA733"/>
<path fill-rule="evenodd" clip-rule="evenodd" d="M10 2.49609C11.0227 2.49609 11.9973 2.69476 12.896 3.08676C13.808 3.48543 14.6133 4.02809 15.2907 4.70009C15.9667 5.36943 16.5107 6.17343 16.908 7.08943C17.3013 7.99609 17.5 8.97343 17.5 9.99609C17.5 11.0174 17.3013 11.9908 16.908 12.8934C16.5107 13.8028 15.9693 14.6094 15.296 15.2868C14.6253 15.9641 13.8213 16.5081 12.908 16.9041C11.088 17.6908 8.90667 17.6894 7.104 16.9054C6.19467 16.5081 5.38933 15.9628 4.71067 15.2854C4.03333 14.6081 3.488 13.8014 3.092 12.8934C2.69867 11.9908 2.5 11.0174 2.5 9.99609C2.5 8.97343 2.69867 8.00009 3.092 7.09876C3.488 6.18943 4.03067 5.38409 4.704 4.70543C5.37467 4.02809 6.17867 3.48409 7.09333 3.08809C8 2.69476 8.97733 2.49609 10 2.49609ZM19.2067 6.103C18.6827 4.90033 17.9613 3.83367 17.0613 2.935C16.16 2.03367 15.0947 1.31233 13.8933 0.791C11.4747 -0.263667 8.52533 -0.263667 6.10667 0.791C4.90533 1.31233 3.84 2.03367 2.93867 2.935C2.03867 3.83367 1.31733 4.90033 0.793333 6.103C0.266667 7.311 0 8.623 0 9.99633C0 11.3697 0.266667 12.6817 0.793333 13.8897C1.316 15.0897 2.03867 16.1563 2.93867 17.0577C3.84 17.959 4.90533 18.6803 6.10667 19.2017C7.316 19.7297 8.62533 19.9963 10 19.9963C11.3747 19.9963 12.684 19.7297 13.8933 19.2017C15.0947 18.6803 16.16 17.959 17.0613 17.0577C17.9613 16.1563 18.684 15.0897 19.2067 13.8897C19.7333 12.6817 20 11.3697 20 9.99633C20 8.623 19.7333 7.311 19.2067 6.103Z" fill="#7FA733"/>
</svg>
