<svg width="38" height="40" viewBox="0 0 38 40" fill="none" xmlns="http://www.w3.org/2000/svg">
<path fill-rule="evenodd" clip-rule="evenodd" d="M22.5776 14.2783H30.265V11.6963H22.5776V14.2783Z" fill="white"/>
<path fill-rule="evenodd" clip-rule="evenodd" d="M22.5776 23.08H30.265V20.499H22.5776V23.08Z" fill="white"/>
<mask id="mask0" mask-type="alpha" maskUnits="userSpaceOnUse" x="0" y="0" width="37" height="40">
<path fill-rule="evenodd" clip-rule="evenodd" d="M36.6615 39.9998V0H0.760498L0.760498 39.9998H36.6615Z" fill="white"/>
</mask>
<path fill-rule="evenodd" clip-rule="evenodd" d="M34.209 31.022C34.209 36.93 31.9224 37.418 29.3735 37.418H28.2079H20.1737H7.72302C7.21952 37.34 3.74537 36.606 3.26657 31.17H23.6479C24.1343 33.599 25.545 36.65 28.5831 36.65C29.2605 36.65 29.8086 36.072 29.8086 35.359C29.8086 34.647 29.2605 34.068 28.5831 34.068C26.3877 34.068 25.9212 29.797 25.9174 29.757C25.8566 29.095 25.3284 28.589 24.6967 28.589H8.52672V4.30299C8.52672 3.35399 9.26107 2.58199 10.1626 2.58199H32.5741C33.4756 2.58199 34.209 3.35399 34.209 4.30299V31.022ZM32.5741 0H10.1626C7.9083 0 6.0748 1.931 6.0748 4.303V28.589H1.986C1.30865 28.589 0.760498 29.167 0.760498 29.88C0.760498 39.116 7.44565 39.985 7.5131 39.993C7.55775 39.998 7.60145 40 7.64515 40H10.1626H28.2079H29.3735C34.3458 40 36.6619 37.147 36.6619 31.022V4.303C36.6619 1.931 34.8275 0 32.5741 0Z" fill="white"/>
<path fill-rule="evenodd" clip-rule="evenodd" d="M15.7787 12.8109L13.4265 10.9769L11.9673 13.0509L16.0162 16.2099L21.4844 10.4549L19.7506 8.62988L15.7787 12.8109Z" fill="white"/>
<path fill-rule="evenodd" clip-rule="evenodd" d="M15.7787 21.4965L13.4274 19.6615L11.9663 21.7355L16.0162 24.8955L21.4844 19.1405L19.7506 17.3145L15.7787 21.4965Z" fill="white"/>
</svg>
