<svg width="20" height="22" viewBox="0 0 20 22" fill="none" xmlns="http://www.w3.org/2000/svg">
<path fill-rule="evenodd" clip-rule="evenodd" d="M17.2404 11.0004C17.2404 14.9933 13.9923 18.2401 10.0007 18.2401C6.00783 18.2401 2.75977 14.9933 2.75977 11.0004C2.75977 7.00881 6.00783 3.76074 10.0007 3.76074C13.9923 3.76074 17.2404 7.00881 17.2404 11.0004ZM10.0006 2C5.03768 2 1 6.03768 1 11.0006C1 15.9636 5.03768 20.0013 10.0006 20.0013C14.9636 20.0013 19 15.9636 19 11.0006C19 6.03768 14.9636 2 10.0006 2Z" fill="#F8F8F8"/>
<path fill-rule="evenodd" clip-rule="evenodd" d="M10.9367 10.3615V5.93533C10.9367 5.41933 10.516 5 10 5C9.484 5 9.06467 5.41933 9.06467 5.93533V10.3615H4.93669C4.42069 10.3615 4 10.7822 4 11.2968C4 11.8142 4.42069 12.2335 4.93669 12.2335H9.06467V16.0633C9.06467 16.5793 9.484 17 10 17C10.516 17 10.9367 16.5793 10.9367 16.0633V12.2335H15.0647C15.5807 12.2335 16 11.8142 16 11.2968C16 10.7822 15.5807 10.3615 15.0647 10.3615H10.9367Z" fill="#F8F8F8"/>
</svg>
