<svg xmlns="http://www.w3.org/2000/svg" width="12" height="13" viewBox="0 0 12 13">
  <g fill="#6F6F6F" fill-rule="evenodd">
    <path d="M2.2498 9.9998L6.7498 9.9998C6.88787119 9.9998 6.9998 10.1117288 6.9998 10.2498 6.9998 10.3878712 6.88787119 10.4998 6.7498 10.4998L2.2498 10.4998C2.11172881 10.4998 1.9998 10.3878712 1.9998 10.2498 1.9998 10.1117288 2.11172881 9.9998 2.2498 9.9998zM2.2498 7.9998L6.7498 7.9998C6.88787119 7.9998 6.9998 8.11172881 6.9998 8.2498 6.9998 8.38787119 6.88787119 8.4998 6.7498 8.4998L2.2498 8.4998C2.11172881 8.4998 1.9998 8.38787119 1.9998 8.2498 1.9998 8.11172881 2.11172881 7.9998 2.2498 7.9998zM2.2498 5.9998L6.7498 5.9998C6.88787119 5.9998 6.9998 6.11172881 6.9998 6.2498 6.9998 6.38787119 6.88787119 6.4998 6.7498 6.4998L2.2498 6.4998C2.11172881 6.4998 1.9998 6.38787119 1.9998 6.2498 1.9998 6.11172881 2.11172881 5.9998 2.2498 5.9998zM10.8674 0L4.6674 0C4.1704 0 3.7654.393951862 3.7654.878420078L3.7654 1.24871426C3.7654 1.42460399 3.9054 1.56757869 4.0764 1.56757869 4.2484 1.56757869 4.3874 1.42460399 4.3874 1.24871426L4.3874.878420078C4.3874.746759926 4.5134.639786052 4.6674.639786052L10.8674.639786052C11.0214.639786052 11.1474.746759926 11.1474.878420078L11.1474 9.12157992C11.1474 9.25324007 11.0214 9.36124254 10.8674 9.36124254L9.9044 9.36124254C9.7334 9.36124254 9.5934 9.50421724 9.5934 9.68010697 9.5934 9.8570253 9.7334 10 9.9044 10L10.8674 10C11.3644 10 11.7684 9.60501954 11.7684 9.12157992L11.7684.878420078C11.7684.393951862 11.3644 0 10.8674 0L9.21900275.363416861"/>
    <path d="M7.99964222,1.9998 C8.51193458,1.9998 8.93538023,2.36824602 8.99325873,2.84163005 L9,2.95261538 L9,12.0469846 C9,12.5349537 8.61314665,12.9382547 8.11616042,12.9933795 L7.99964222,12.9998 L1.00035778,12.9998 C0.488065423,12.9998 0.0646197656,12.631354 0.00674126538,12.15797 L0,12.0469846 L0,4.87982747 L0.0171735241,4.79350218 L0.0171735241,4.79350218 C0.0279069767,4.75537517 0.042456768,4.71916651 0.0627310674,4.68743397 L0.0976744186,4.64351199 L2.62969589,2.09799502 C2.65617174,2.07137805 2.68789505,2.05147528 2.72295766,2.03668808 L2.79995528,2.01247903 L2.79995528,2.01247903 L2.8647585,1.9998 L7.99964222,1.9998 Z M7.99964222,2.67097912 L3.19749553,2.67097912 L3.19749553,4.26368071 C3.19749553,4.75064784 2.81064218,5.15387723 2.31451533,5.2089969 L2.19821109,5.21541703 L0.667620751,5.21541703 L0.667620751,12.0469846 C0.667620751,12.1801722 0.777233398,12.2919546 0.924134622,12.3211744 L1.00035778,12.3286209 L7.99964222,12.3286209 C8.15696397,12.3286209 8.28905115,12.2358652 8.3235797,12.1115115 L8.33237925,12.0469846 L8.33237925,2.95261538 C8.33237925,2.79722986 8.18318426,2.67097912 7.99964222,2.67097912 Z M2.53094812,3.14576822 L1.13881932,4.54531697 L2.19821109,4.54531697 C2.35553284,4.54531697 2.48762002,4.45256133 2.52214857,4.32820761 L2.53094812,4.26368071 L2.53094812,3.14576822 Z"/>
  </g>
</svg>
