<svg xmlns="http://www.w3.org/2000/svg" xmlns:xlink="http://www.w3.org/1999/xlink" width="29" height="39" viewBox="0 0 29 39">
  <defs>
    <filter id="lionstreet-a">
      <feColorMatrix in="SourceGraphic" values="0 0 0 0 0.333333 0 0 0 0 0.333333 0 0 0 0 0.333333 0 0 0 1.000000 0"/>
    </filter>
    <polygon id="lionstreet-b" points="0 .009 28.954 .009 28.954 38.828 0 38.828"/>
    <polygon id="lionstreet-d" points=".059 .053 5.172 .053 5.172 10.224 .059 10.224"/>
  </defs>
  <g fill="none" fill-rule="evenodd" filter="url(#lionstreet-a)">
    <g transform="translate(0 .074)">
      <mask id="lionstreet-c" fill="#fff">
        <use xlink:href="#lionstreet-b"/>
      </mask>
      <path fill="#FFF" d="M28.2945445,13.8998144 C28.0098246,13.8035099 27.8234773,13.7404338 27.5865221,13.6603725 C27.6106482,14.0279455 27.6286006,14.3020173 27.6465529,14.5761717 C27.6913933,14.5944761 27.7361524,14.6127805 27.7809927,14.6311674 C27.9366342,14.4094529 28.0922756,14.1878207 28.2945445,13.8998144 L28.2945445,13.8998144 Z M27.2501384,17.8877087 C27.6992728,17.3737827 28.0365501,15.9073662 27.8426482,15.4392837 C27.7406202,16.2419581 27.1295894,16.9159243 27.2501384,17.8877087 L27.2501384,17.8877087 Z M7.63590308,0.00888837209 C7.74832885,0.0685014799 7.8599423,0.129846089 7.97350532,0.187397886 C8.755693,0.584241438 9.54965938,0.959317548 10.3166566,1.38452474 C10.7720459,1.63699408 10.8662756,1.65018647 11.0589591,1.14788626 C11.1774773,0.838936998 11.2325529,0.504922199 11.3388863,0.0943915433 C11.7567462,0.340264693 12.1374017,0.539469767 12.4919003,0.778499366 C13.0844913,1.17806385 13.336312,1.17105539 13.8837378,0.676175899 C14.0945361,0.48562833 14.302735,0.292112474 14.5932224,0.0257086681 C14.9040992,0.499562791 15.2278919,0.91429852 15.4611916,1.37603214 C15.6187014,1.68778478 15.7517602,1.76050782 16.0450095,1.58983129 C16.4548275,1.35121395 16.8750431,1.13024144 17.3605697,1.27057548 C17.3605697,1.53384609 17.3132924,1.7868926 17.3695866,2.01338943 C17.5312392,2.66451628 18.0129479,2.88416956 18.6118751,2.60523298 C18.8648331,2.48740846 19.1058499,2.34303425 19.4050291,2.18241691 C19.4050291,2.53185032 19.4065725,2.81078689 19.4047042,3.08972347 C19.3991804,3.96042114 19.769763,4.67231543 20.4016706,5.21015264 C21.0833737,5.79028795 21.8072364,6.32639366 22.551651,6.8213556 C23.2038667,7.25497294 23.5780235,7.7792055 23.5737994,8.60142114 C23.5724997,8.8611463 23.7570599,9.17512516 23.9481188,9.37342326 C24.8215305,10.2797404 25.9090711,10.8665543 27.0345473,11.3810575 C27.6818078,11.6768968 28.2804101,12.0087679 28.6759311,12.6536283 C28.9326258,13.0723218 29.048707,13.4984359 28.8613036,13.9379899 C28.4643204,14.8692076 28.3256566,15.853937 28.1774885,16.8416347 C28.0806594,17.4870723 27.7774997,18.0348863 27.319186,18.4858186 C27.0461636,18.7543662 27.0313793,19.0156579 27.2511944,19.3138884 C27.4130095,19.5334592 27.5550852,19.7697679 27.7317658,19.9758989 C28.0012952,20.2906199 27.9955277,20.6012182 27.8165725,20.9588144 C27.4065109,21.7781442 26.6603905,22.0513091 25.860088,22.2709624 C25.2679843,22.4334761 24.7117854,22.2827531 24.1467322,22.1537975 C24.056158,22.1331019 23.9635529,22.1221357 23.8579507,22.104326 C23.616609,22.6380406 23.7101076,23.1623556 23.8421104,23.6785903 C23.9365838,24.0480596 24.0569703,24.4128292 24.1940908,24.7684465 C24.665158,25.9899793 24.5308807,27.1599793 23.9199311,28.2894127 C23.7447126,28.6133683 23.5564157,28.9340258 23.3396874,29.2302774 C22.5084353,30.3665543 21.9710011,31.615049 21.8539451,33.0377658 C21.8441972,33.1562499 21.7600403,33.2684677 21.7104073,33.3835712 C21.6055361,33.2904825 21.4379535,33.2150385 21.4067602,33.1010892 C21.2887294,32.6695332 21.188651,32.2289074 21.131707,31.785066 C21.0727322,31.3251463 21.0934465,30.8545078 21.0319535,30.3950004 C21.0131888,30.2547488 20.8576286,30.0717869 20.7271692,30.0303958 C20.6406566,30.0029391 20.4469983,30.1672668 20.3723457,30.2902034 C20.217679,30.5448989 20.1058218,30.8272161 19.9860039,31.1024423 C19.9372644,31.2142478 19.9391328,31.3556537 19.8726034,31.4510512 C19.7581468,31.6152964 19.6081104,31.7541463 19.4730207,31.9036326 C19.4290739,31.7154761 19.3509283,31.5282266 19.3467042,31.3392457 C19.3179479,30.0415268 18.8695445,28.9418588 17.8850067,28.0934233 C17.7353765,27.9643852 17.5446426,27.8846537 17.2600039,27.7148017 C17.3452168,27.9671061 17.3830711,28.1042245 17.4369283,28.2345818 C17.8509703,29.2371209 18.010186,30.2829476 17.9837854,31.3662076 C17.9508863,32.7147996 18.0712728,34.0473958 18.4201664,35.3550089 C18.764186,36.6443175 19.534595,37.587326 20.6603961,38.2509032 C20.7624241,38.311011 20.8568975,38.3840638 20.9617686,38.4557975 C20.7625866,38.8169391 20.4278275,38.8434063 20.134172,38.823123 C18.6645137,38.7220364 17.4435894,38.0333937 16.4104745,37.0208778 C16.1253485,36.7414465 15.9996818,36.2743535 15.8623176,35.8718207 C15.8204829,35.7493789 15.9556538,35.4456241 16.0603625,35.4172605 C16.2382616,35.3691082 16.5027546,35.413715 16.6460487,35.5283239 C16.8385697,35.6825099 16.9434409,35.945863 17.0988387,36.152159 C17.3307574,36.4600364 17.5740487,36.7590913 17.8124661,37.0619391 C17.8530011,37.039677 17.8936174,37.0172499 17.9342336,36.9949877 C17.854707,36.4374444 17.7636454,35.8813852 17.6980095,35.3221928 C17.5606454,34.1526875 17.4792504,32.9745247 17.2929031,31.8134296 C17.1575697,30.9699412 16.8963261,30.1467362 16.6765922,29.318419 C16.6414997,29.1863302 16.5299675,29.0751844 16.4316762,28.9193493 C16.082214,29.6454254 15.773693,30.322937 15.4321916,30.9828038 C15.2127826,31.4066918 14.9637238,31.8184592 14.6899703,32.2082943 C14.5666594,32.383918 14.3508246,32.4925903 14.1769059,32.63177 C14.1377518,32.5959032 14.0985165,32.5601188 14.0593625,32.5244169 C14.0818639,32.4129412 14.0805641,32.2887679 14.1305221,32.1919687 C14.6869647,31.1134085 14.5377406,30.0406199 14.0904745,28.983085 C13.7641636,28.2117425 13.2368022,27.610252 12.5698022,27.0957488 C11.8738835,26.5589011 11.2432756,25.9321801 10.6043821,25.3228567 C10.2882252,25.0215755 10.1519983,24.6233302 10.1472868,24.1728926 C10.1422504,23.6935966 10.128116,23.2119095 10.0749899,22.7363239 C10.0094353,22.1482732 9.83705994,22.0579877 9.26502073,22.0887425 C8.78306835,22.114715 8.29404874,22.0894021 7.8146958,22.0314381 C7.66522801,22.0132985 7.53704314,21.8147531 7.3991916,21.6988249 C7.50227563,21.5840512 7.59049412,21.4489941 7.7109619,21.3577192 C8.6009451,20.6840004 8.79411597,19.7280469 8.63847451,18.7129751 C8.54741289,18.1189877 8.25578824,17.5519624 8.02281345,16.9862562 C7.66522801,16.1175374 7.32811317,15.2423873 7.56336246,14.2842076 C7.67928123,13.812085 7.89373501,13.3649455 8.05408796,12.9323175 C7.45061176,12.4368609 6.79409076,11.9536072 6.20214958,11.3994444 C5.14125322,10.4063049 4.52307395,9.12804482 4.08880504,7.75315053 C3.99181345,7.44618013 3.95274062,7.11867907 4.34225042,6.95220761 C6.05000112,6.22209133 7.77131765,5.52709979 9.66590308,5.54886723 C10.4092616,5.55744228 11.148721,5.66545497 11.783228,6.12900254 C12.2411356,6.4635945 12.3861356,6.77913996 12.3096146,7.35952262 C12.2232644,7.2978482 12.1430067,7.25901311 12.0867126,7.1976685 C11.2684577,6.30545074 10.232256,6.04803425 9.07485546,6.08851839 C7.95205994,6.1278482 6.89416919,6.42904693 5.8586986,6.83578478 C5.24279384,7.07770021 5.1912112,7.19692643 5.32662577,7.85926681 C5.57438487,9.07107019 6.12790308,10.1275332 6.94623922,11.0325311 C7.48083025,11.6237975 8.1691944,11.9669645 8.94358375,12.135992 C9.13212437,12.1772182 9.31156695,12.2614021 9.52886387,12.3376706 C9.45884146,12.4639053 9.43455294,12.5466875 9.3809395,12.5981378 C8.49761737,13.4470681 8.13288347,14.5173831 8.21882745,15.7138503 C8.25335126,16.1942182 8.51800672,16.6610638 8.69736807,17.1262605 C8.90248011,17.6582436 9.16331765,18.1701907 9.33780504,18.7114909 C9.54015518,19.3392013 9.41229524,19.9581717 9.1289563,20.5428419 C9.00491429,20.7989391 8.87006835,21.049677 8.72588067,21.3306748 C9.45949132,21.5147087 9.94363697,20.9339962 10.6327322,20.764474 C10.6904885,21.1832499 10.7679031,21.5767953 10.7943036,21.9738863 C10.8389815,22.6440596 10.8294773,23.3183556 10.8882896,23.9868799 C10.911116,24.2460279 11.0174493,24.5196875 11.1552196,24.7425564 C11.619707,25.4941928 12.2264325,26.1158841 12.9298246,26.645641 C13.8978723,27.3747679 14.7355417,28.213474 15.1521832,29.4850554 C15.2900347,29.2625163 15.4457574,29.0490469 15.5605389,28.8149645 C15.6741832,28.5832732 15.7601272,28.3349264 15.8346986,28.0866622 C16.1952896,26.8857425 17.3872952,27.0234381 18.1126202,27.4999307 C18.760693,27.925715 19.1951244,28.5210216 19.5766734,29.175529 C19.630693,29.268123 19.6974661,29.353049 19.7754493,29.466586 C19.9072896,29.3573366 20.0262952,29.2695247 20.1327098,29.1681907 C20.4058947,28.9081357 20.7195333,28.7265755 21.0858919,28.8931294 C21.4554997,29.0610025 21.5567154,29.4367383 21.6009871,29.8131336 C21.6323429,30.0803619 21.6342112,30.3511357 21.6553317,30.7290977 C21.7809171,30.5690575 21.8434661,30.5067235 21.8860319,30.4325163 C22.2653064,29.7711653 22.6059955,29.0838419 23.0254801,28.4502774 C23.7862224,27.3012203 23.9515305,26.0850469 23.5894773,24.7665501 C23.340256,23.8589137 23.1265333,22.9411357 22.8704885,22.0356431 C22.8310095,21.8962161 22.6686258,21.7557171 22.5290683,21.688271 C21.4200824,21.1524127 20.2993989,20.6413725 19.1901692,20.1060089 C18.8499675,19.9418461 18.5446146,19.7037235 18.205144,19.5378292 C17.332707,19.1115501 16.8501048,18.3943789 16.6389003,17.4610998 C16.4670123,16.7019603 16.2874073,15.9442224 16.1371272,15.1806304 C16.1128387,15.0568693 16.2236398,14.9058165 16.2719731,14.7673789 C16.3450824,14.8800089 16.4472728,14.9831569 16.4869143,15.1068355 C16.8149311,16.1316368 17.1315754,17.1602309 17.4515501,18.1877531 C17.614665,18.7114909 17.9954017,19.0567192 18.4566398,19.2630977 C20.1201188,20.0075607 21.7872532,20.7469116 23.4788387,21.4213725 C24.0415361,21.6455607 24.6779115,21.7207573 25.2880487,21.7707235 C26.0599199,21.8340469 26.69727,21.459548 27.2462392,20.9338313 C27.5100011,20.6811146 27.5264101,20.4318609 27.303102,20.1030406 C26.9525025,19.5868059 26.6534857,19.0323133 26.3594241,18.4793049 C26.2396874,18.2542097 26.1028919,18.1639243 25.8788527,18.2687214 C25.2830936,18.547493 24.6855473,18.8237911 24.1017294,19.1268863 C23.5871216,19.3939497 23.112805,19.7586368 22.5765894,19.9581717 C22.2725361,20.0712964 21.86613,19.9920596 21.5308022,19.9028461 C21.1579451,19.8035734 20.8034465,19.6128609 20.4616202,19.4235501 C20.3316482,19.3516516 20.2591888,19.1728123 20.1604913,19.0427023 C20.3038667,18.994715 20.4553653,18.8882689 20.5894801,18.9073979 C22.4949507,19.1794909 24.2528218,18.6562478 25.9776314,17.9193704 C26.4123064,17.7336051 26.7282196,17.4551632 26.9168415,17.0122288 C27.0503064,16.6986622 27.2372224,16.4083471 27.3679255,16.0937911 C27.6269759,15.4701209 27.4554129,15.0639603 26.8411328,14.80877 C26.5800515,14.7002626 26.3051608,14.625066 26.0464353,14.5116114 C25.4442588,14.2475987 25.0189255,13.8076326 24.8396454,13.1573302 C24.8008162,13.0165015 24.8339591,12.8552245 24.8339591,12.6073725 C25.1496286,12.7695564 25.3757798,12.8811146 25.597707,13.0008355 C26.0487098,13.2440702 26.5116538,13.3482901 27.0358471,13.3053323 C27.4924549,13.2679814 27.9594605,13.3607404 28.4460431,13.3979264 C28.4518106,13.0128736 28.2813849,12.6656664 27.9800936,12.4310068 C27.6206398,12.1510808 27.2258499,11.902734 26.8153008,11.7083112 C25.4691972,11.070789 24.1915725,10.3405903 23.22913,9.15624355 C23.1101244,9.00989049 23.0059031,8.79807019 23.0047658,8.61585032 C23.0012728,8.02582072 22.7243513,7.63722241 22.2468667,7.34929852 C21.6554941,6.99277421 21.0588415,6.64309345 20.4868022,6.25639154 C19.4953597,5.58621818 18.843144,4.68303425 18.7487518,3.43264313 C18.3380403,3.3434296 17.9013345,3.33938943 17.5664129,3.14991374 C17.2400207,2.9652203 17.0176874,2.59088626 16.6895894,2.23469175 C16.2805838,2.56639789 15.8165025,2.94271078 15.3215529,3.34408922 C15.1179843,2.63755433 14.9250571,1.96804059 14.7037798,1.200326 C14.4453793,1.42517378 14.276172,1.57424778 14.1049339,1.72093066 C13.7070571,2.06195391 13.533707,2.04562833 13.1148723,1.74987146 C12.734298,1.48099408 12.3192812,1.26257759 11.8755081,0.995514165 C11.6271804,1.84452685 11.7048387,2.69419915 11.1942112,3.4063408 C10.1628835,2.57901311 9.36786106,1.45551628 8.02062017,1.03278266 C7.85986106,1.53598985 7.72347171,2.01652262 7.5532084,2.48435772 C7.24663697,3.32619704 7.24151933,3.31696237 6.48158936,2.88433446 C5.23085266,2.17235772 3.88596751,1.9461907 2.47707115,2.0836389 C2.67901513,2.71901734 2.87486667,3.33534926 3.08542129,3.99801945 C2.72637367,4.05021184 2.46391148,4.08822241 2.2014493,4.12631543 C1.49375182,4.22913362 0.888488515,4.52109767 0.42692549,5.09372981 C0.299146779,5.25236829 0.14309916,5.38734292 4.87394958e-05,5.53320127 L4.87394958e-05,4.46131966 C0.650152381,4.11155645 1.30431765,3.76904905 1.94483585,3.40205328 C2.02111317,3.35835349 2.08349972,3.15453108 2.04816359,3.06968753 C1.92428403,2.77302368 1.78748852,2.4703408 1.5952112,2.21721184 C1.28059776,1.80305328 1.2927014,1.66807865 1.79683025,1.57119704 C3.26803193,1.2882203 4.74410756,1.3783408 6.22091429,1.54398774 C7.15232605,1.64853742 6.94225882,1.7002351 7.1374605,0.873237209 C7.15598151,0.79457759 7.13112437,0.703632558 7.15622521,0.628683298 C7.22649132,0.41917167 7.31243529,0.215101903 7.3922056,0.00888837209 L7.63590308,0.00888837209 Z" mask="url(#lionstreet-c)"/>
    </g>
    <path fill="#FFF" d="M.0000162464986 14.6765493C.264509244 14.4690989.586758543 14.3064203.782691317 14.0458706 1.35245602 13.288545 1.87153165 12.4918896 2.41075294 11.7108178 2.44129636 11.6666233 2.46875294 11.6170693 2.50880056 11.583841 2.53511989 11.5620736 2.58158487 11.5654541 2.69969692 11.540471 2.67703305 11.8025049 2.68824314 12.0437607 2.63162409 12.2673717 2.28411148 13.6387205 1.53311709 14.7870355.641021849 15.84523.486111485 16.028934.216582073 16.1130355.0000162464986 16.2431455L.0000162464986 14.6765493zM5.39824846 38.4186609C4.91142213 38.4186609 4.42467703 38.4232782 3.93793193 38.4173416 3.37271625 38.4105805 3.24412521 38.1971937 3.54070504 37.7057772 4.60444454 35.9428617 5.31319804 34.0230393 5.94770504 32.0746884 6.61608599 30.0220351 6.9058423 27.8989674 6.99040532 25.7428364 6.99714762 25.5700985 7.11964622 25.4020605 7.18836891 25.2318786 7.33361261 25.369904 7.55147815 25.4809674 7.61272745 25.6503247 8.17095714 27.1941641 8.56371625 28.7749421 8.70627927 30.4240732 8.93714202 33.0947899 8.47046134 35.6270689 7.39348095 38.0608173 7.27951176 38.3183987 7.14791513 38.4454579 6.85572185 38.4320182 6.3708451 38.409756 5.8841 38.4259992 5.39824846 38.4259992L5.39824846 38.4186609zM5.7585958 13.9473152C5.7585958 14.3229685 5.80847255 14.7066197 5.75063501 15.0728734 5.32237731 17.786218 4.90638571 20.5029431 3.93638852 23.0917021 3.41674426 24.4786345 2.78702997 25.8069431 1.99907479 27.0574167 1.73076387 27.4832011 1.59705518 27.491941 1.27927367 27.0919643 1.18618123 26.9747169 1.10064342 26.8507909 1.01908599 26.724886.400581793 25.769922.43599916 25.6967042 1.07822325 24.7835436 1.5538395 24.1072687 1.99070784 23.3898501 2.34691232 22.6426662 3.4738507 20.278755 4.55237451 17.891015 5.16023725 15.3199008 5.23870784 14.9878649 5.28890952 14.6484907 5.37850896 14.3199178 5.4201 14.1674632 5.52472745 14.0327359 5.60076106 13.8899283 5.65339972 13.9090573 5.70603838 13.9281863 5.7585958 13.9473152"/>
    <g transform="translate(10.154 28.767)">
      <mask id="lionstreet-e" fill="#fff">
        <use xlink:href="#lionstreet-d"/>
      </mask>
      <path fill="#FFF" d="M0.092864986,0.0694661734 C0.219587675,0.0694661734 0.36702465,0.0265084567 0.469052661,0.0775465116 C0.76782577,0.22670296 1.08820672,0.369180761 1.32922353,0.59295666 C2.36047003,1.5507241 2.70180896,2.77860571 2.4891423,4.14426533 C2.12887619,6.45697357 3.04428515,8.22541332 4.67982017,9.71499894 C4.81052325,9.83406025 4.94813109,9.94528858 5.0791591,10.0640201 C5.10677815,10.0890856 5.11969412,10.1307241 5.17217031,10.2211744 C4.26545322,10.2211744 3.39496583,10.2332949 2.52545322,10.2082294 C2.39596863,10.2044366 2.24901905,10.0457156 2.14796583,9.92591226 C1.26285658,8.87662262 1.08966891,7.63356977 1.16968291,6.305426 C1.24449804,5.06443446 1.32191261,3.81874313 1.29275014,2.57766913 C1.27049244,1.62839429 0.816890196,0.824565539 0.0592347339,0.218869979 C0.0705260504,0.16906871 0.081654902,0.119267442 0.092864986,0.0694661734" mask="url(#lionstreet-e)"/>
    </g>
    <path fill="#FFF" d="M19.6696196,10.6971311 C19.7289193,10.2661522 19.4428997,10.2612051 19.1990398,10.2449619 C19.1391714,10.2409218 19.0037569,10.3913975 19.017079,10.4284186 C19.1264179,10.7307717 19.3751518,10.7343171 19.6696196,10.6971311 M17.1772443,9.99776956 C18.2322106,9.96462368 19.3183703,10.0928372 20.2822751,9.38308668 C20.3038017,9.51830867 20.3431182,9.61016068 20.3271154,9.69063425 C20.24767,10.088797 20.3548969,10.4160507 20.6388045,10.6994397 C20.710614,10.7711734 20.7678829,10.8843805 20.7804739,10.9852199 C20.8042751,11.1760973 20.7425384,11.244203 20.5187429,11.1845899 C20.2792695,11.1207717 19.9983675,11.0809471 19.767586,11.1465793 C19.2186168,11.3027442 19.0094431,11.2928499 18.6769585,10.8337548 C18.3926448,10.4411987 18.0019165,10.3155412 17.5682162,10.2388605 C17.4309333,10.2146195 17.2967373,10.1724038 17.161079,10.1384334 C17.1664403,10.091518 17.1718829,10.0446025 17.1772443,9.99776956"/>
  </g>
</svg>
