<?xml version="1.0" encoding="UTF-8"?>
<svg width="37px" height="41px" viewBox="0 0 37 41" version="1.1" xmlns="http://www.w3.org/2000/svg" xmlns:xlink="http://www.w3.org/1999/xlink">
    <title>iconsnew / documents copy 5</title>
    <g id="Vision_DayOne-(Nationwide)" stroke="none" stroke-width="1" fill="none" fill-rule="evenodd">
        <g id="iconsnew-/-documents-copy-2" transform="translate(-6.607527, -2.528169)" fill="#FFFFFF">
            <path d="M19.6025714,27.3528958 C13.4774286,29.032862 9.39914286,31.4084393 9.39914286,37.5140667 C9.39914286,38.243802 13.0968571,40.2492617 25,40.2492617 C36.9031429,40.2492617 40.6008571,38.243802 40.6008571,37.5140667 C40.6008571,31.4084393 36.5225714,29.032862 30.3974286,27.3528958 C28.2168571,26.89353 27.3091429,25.9931731 26.9362857,23.9247147 C26.8514286,23.4705988 27.0288571,23.0059831 27.3914286,22.7251138 C29.5025714,21.0923966 31.7577143,18.231204 31.7577143,15.099642 C31.7577143,7.13817691 27.5251429,5.9490758 25,5.9490758 C22.4748571,5.9490758 18.2422857,7.13817691 18.2422857,15.099642 C18.2422857,18.231204 20.4974286,21.0923966 22.6085714,22.7251138 C22.9711429,23.0059831 23.1485714,23.4705988 23.0637143,23.9247147 C22.6908571,25.9931731 21.7831429,26.89353 19.6025714,27.3528958 M25,42.6983375 C16.7894286,42.6983375 7,41.7979806 7,37.5140667 C7,29.3636054 13.0737143,26.6021609 19.0162857,24.9773185 C19.0394286,24.9694437 19.0651429,24.9641938 19.0882857,24.9589439 C20.0654286,24.7568229 20.3817143,24.5862014 20.5411429,24.1740847 C18.1677143,22.1187509 15.8431429,18.8060675 15.8431429,15.099642 C15.8431429,7.83641288 19.2657143,3.5 25,3.5 C30.7342857,3.5 34.1568571,7.83641288 34.1568571,15.099642 C34.1568571,18.8060675 31.8322857,22.1187509 29.4588571,24.1740847 C29.6182857,24.5862014 29.9345714,24.7568229 30.9117143,24.9589439 C30.9348571,24.9641938 30.9605714,24.9694437 30.9837143,24.9773185 C36.9262857,26.6021609 43,29.3636054 43,37.5140667 C43,41.7979806 33.2105714,42.6983375 25,42.6983375" id="Fill-1"></path>
            <path d="M24.8505714,30.296 C23.7037143,30.296 22.5568571,30.015125 21.6002857,29.45075 C20.0831429,28.553 19.25,27.085625 19.25,25.316375 C19.25,24.864875 19.61,24.5 20.0497143,24.5 L20.0522857,24.5 C20.492,24.5 20.852,24.8675 20.8494286,25.319 C20.8494286,26.807375 21.6928571,27.615875 22.4,28.035875 C23.8194286,28.87325 25.8791429,28.87325 27.3011429,28.035875 C28.0082857,27.615875 28.8517143,26.807375 28.8491429,25.319 C28.8491429,24.8675 29.2091429,24.5 29.6488571,24.5 L29.6488571,24.5 C30.0911429,24.5 30.4485714,24.864875 30.4511429,25.316375 C30.4511429,27.085625 29.618,28.553 28.1008571,29.45075 C27.1442857,30.015125 25.9974286,30.296 24.8505714,30.296" id="Fill-8"></path>
        </g>
    </g>
</svg>