<svg xmlns="http://www.w3.org/2000/svg" width="42" height="52" viewBox="0 0 42 52">
  <g fill="#555">
    <path d="M40.3846154,5 L32.3076923,5 L32.3076923,10.0357143 L36.3461538,10.0357143 C36.792,10.0357143 37.1538462,10.4117143 37.1538462,10.875 L37.1538462,46.125 C37.1538462,46.5882857 36.792,46.9642857 36.3461538,46.9642857 L5.65384615,46.9642857 C5.208,46.9642857 4.84615385,46.5882857 4.84615385,46.125 L4.84615385,10.875 C4.84615385,10.4117143 5.208,10.0357143 5.65384615,10.0357143 L9.69230769,10.0357143 L9.69230769,5 L1.61538462,5 C0.722884615,5 0,5.75116071 0,6.67857143 L0,50.3214286 C0,51.2488393 0.722884615,52 1.61538462,52 L40.3846154,52 C41.2771154,52 42,51.2488393 42,50.3214286 L42,6.67857143 C42,5.75116071 41.2771154,5 40.3846154,5 Z"/>
    <path d="M21 0C23.6908547 0 25.8848696 2.18573345 25.9956141 4.92544309L26 5.14285714 31 5.14285714 31 11.1428571C31 11.5796044 30.6818935 11.9403956 30.2711516 11.9933176L30.1666667 12 11.8333333 12C11.4087179 12 11.0579487 11.6728047 11.0064967 11.2503273L11 11.1428571 11 5.14285714 16 5.14285714C16 2.30228571 18.2383333 0 21 0zM21 3C19.895 3 19 3.895 19 5 19 6.105 19.895 7 21 7 22.105 7 23 6.105 23 5 23 3.895 22.105 3 21 3zM19.60006 35C19.3952651 35 19.1904702 34.9160015 19.0344741 34.7488616L14.2345941 29.6060963C13.921802 29.2709594 13.921802 28.7292548 14.2345941 28.394118 14.5473863 28.0589811 15.0529737 28.0589811 15.3657659 28.394118L19.60006 32.9308941 28.6342341 23.2513527C28.9470263 22.9162158 29.4526137 22.9162158 29.7654059 23.2513527 30.078198 23.5864895 30.078198 24.1281941 29.7654059 24.463331L20.1656459 34.7488616C20.0096498 34.9160015 19.8048549 35 19.60006 35z"/>
  </g>
</svg>
