<svg width="90" height="80" viewBox="0 0 90 80" fill="none" xmlns="http://www.w3.org/2000/svg">
<g opacity="0.131907">
<path fill-rule="evenodd" clip-rule="evenodd" d="M49.6832 15.9406C53.0351 15.9406 56.0108 15.503 58.099 14.8481C59.1514 14.5199 59.8919 14.1557 60.3281 13.8275L60.616 13.5367L60.3281 13.246C59.8919 12.9178 59.1514 12.5536 58.099 12.2254C56.0108 11.5704 53.0351 11.1328 49.6832 11.1328C46.3282 11.1328 43.351 11.5704 41.2643 12.2254C40.2105 12.5536 39.4714 12.9178 39.0307 13.246L38.7399 13.5367L39.0307 13.8275C39.4744 14.1557 40.2105 14.5199 41.2643 14.8481C43.351 15.503 46.3282 15.9406 49.6832 15.9406ZM49.6832 21.3316C53.0351 21.3316 56.0108 20.894 58.099 20.239C59.1514 19.9108 59.8919 19.5466 60.3281 19.2199L60.619 18.9277L60.3281 18.6354L58.8381 17.8711L54.78 18.7463C53.1985 18.9636 51.4761 19.073 49.6832 19.073C47.8903 19.073 46.1633 18.9636 44.5788 18.7463L40.5208 17.8711L39.0307 18.6354L38.7399 18.9277L39.0307 19.2199C39.4744 19.5466 40.2105 19.9108 41.2643 20.239C43.351 20.894 46.3282 21.3316 49.6832 21.3316ZM49.6832 27.2309C53.0351 27.2309 56.0108 26.8292 58.099 26.1743C59.1514 25.8101 59.8919 25.4459 60.3281 25.1192L60.619 24.827L60.3281 24.5722C60.1108 24.3894 59.8185 24.208 59.4422 24.0611L58.123 23.5516L57.9341 23.5156L54.1819 24.208C52.7653 24.3894 51.2497 24.4628 49.6832 24.4628C48.1136 24.4628 46.5966 24.3894 45.1799 24.208L41.3123 23.5156L41.2523 23.5516C40.2105 23.8798 39.4714 24.208 39.0307 24.5722L38.7399 24.827L39.0307 25.1192C39.4744 25.4459 40.2105 25.8101 41.2643 26.1743C43.351 26.8292 46.3282 27.2309 49.6832 27.2309ZM49.6832 33.1332C53.0351 33.1332 56.0108 32.6956 58.099 32.0407C59.1514 31.7125 59.8919 31.3483 60.3281 31.0216L60.616 30.7293L60.3281 30.4371C60.1108 30.2917 59.8185 30.1104 59.4422 29.9275L58.132 29.418H57.9461L54.1819 30.1104C52.7653 30.2917 51.2497 30.3651 49.6832 30.3651C48.1136 30.3651 46.5966 30.2917 45.1799 30.1104L41.3468 29.418H41.1654L39.9226 29.9275C39.5524 30.1104 39.2526 30.2917 39.0307 30.4371L38.7399 30.7293L39.0202 31.0216L39.1761 31.0935L39.2496 31.1295C39.9676 31.2749 40.6332 31.4577 41.2523 31.6405C41.8729 31.8219 42.4546 32.0407 42.9943 32.2955L43.5084 32.5862L45.009 32.841C46.4227 33.0238 48.0072 33.1332 49.6832 33.1332ZM31.901 38.3391C35.2529 38.3391 38.2286 37.9014 40.3153 37.2465C41.3662 36.9183 42.1022 36.5541 42.546 36.2274L42.8308 35.9352L42.546 35.6429C42.1022 35.3162 41.3662 34.952 40.3153 34.6238C38.2286 33.9689 35.2529 33.5312 31.901 33.5312C28.5415 33.5312 25.5659 33.9689 23.4791 34.6238C22.4253 34.952 21.6892 35.3162 21.2485 35.6429L20.9562 35.9352L21.2485 36.2274C21.6892 36.5541 22.4253 36.9183 23.4791 37.2465C25.5659 37.9014 28.5415 38.3391 31.901 38.3391ZM49.6831 39.1762C53.0351 39.1762 56.0107 38.7386 58.099 38.0837C59.1513 37.7555 59.8919 37.3913 60.3281 37.0646L60.6189 36.7723L60.3281 36.4816C59.8919 36.1534 59.1513 35.7892 58.1065 35.461L57.7527 35.3516L57.0496 35.5344C54.9029 36.008 52.371 36.2628 49.6831 36.2628C48.7837 36.2628 47.9052 36.2268 47.0462 36.1893L45.9924 36.0799L45.5262 37.5741L44.5248 38.6292L44.7646 38.848L45.2713 38.9215C46.619 39.0668 48.1136 39.1762 49.6831 39.1762ZM31.901 43.73C35.253 43.73 38.2287 43.2924 40.3154 42.6375C41.3662 42.3093 42.1023 41.9451 42.546 41.6169L42.8338 41.3261L42.546 41.0354L41.0484 40.2695L36.9949 41.1433C35.4134 41.3621 33.6894 41.4715 31.901 41.4715C30.1081 41.4715 28.3827 41.3621 26.7967 41.1433L22.7387 40.2695L21.2486 41.0354L20.9532 41.3261L21.2486 41.6169C21.6893 41.9451 22.4253 42.3093 23.4792 42.6375C25.5659 43.2924 28.5416 43.73 31.901 43.73ZM49.6831 44.3839C53.0351 44.3839 56.0107 43.9463 58.099 43.2914C59.1513 42.9647 59.8919 42.6005 60.3281 42.2708L60.6189 41.98L60.3281 41.7252C60.0583 41.5079 59.6685 41.2891 59.1258 41.0703H59.0464C56.5759 41.8346 53.2644 42.3082 49.6831 42.3082C48.7837 42.3082 47.9052 42.2708 47.0462 42.2348L45.9159 42.0894L45.8934 42.2348C45.76 42.6365 45.5411 43.0006 45.2818 43.3274L44.5308 44.0197L45.009 44.0932C46.4256 44.2745 48.0071 44.3839 49.6831 44.3839ZM31.901 49.6308C35.253 49.6308 38.2287 49.1932 40.3154 48.5383C41.3662 48.2101 42.1023 47.8459 42.546 47.5177L42.8338 47.2269L42.546 46.9362C42.1023 46.608 41.3662 46.2797 40.3244 45.9141H40.2179L39.263 46.1344C37.1148 46.608 34.5904 46.8627 31.901 46.8627C29.2057 46.8627 26.6722 46.608 24.5241 46.1703L23.5661 45.9141H23.4717C22.4253 46.2797 21.6893 46.608 21.2486 46.9362L20.9532 47.2269L21.2486 47.5177C21.6893 47.8459 22.4253 48.2101 23.4792 48.5383C25.5659 49.1932 28.5416 49.6308 31.901 49.6308ZM49.6832 50.4332C53.0351 50.4332 56.0108 49.9956 58.099 49.3392C59.1514 49.0125 59.8919 48.6468 60.3282 48.3201L60.616 48.0293L60.3282 47.7371C59.8919 47.4104 59.1514 47.0821 58.1065 46.718L57.7857 46.6445L57.0467 46.8259C54.903 47.2635 52.371 47.5183 49.6832 47.5183C48.7837 47.5183 47.9053 47.5183 47.0463 47.4448L45.9999 47.3369L45.5262 48.9031C45.2234 49.3392 44.8157 49.7408 44.4049 50.0316L45.5442 50.2144C46.8154 50.3598 48.2156 50.4332 49.6832 50.4332ZM70.8607 54.9118C74.2156 54.9118 77.1928 54.4757 79.2795 53.8192C80.3289 53.4925 81.0694 53.1283 81.5057 52.8001L81.7965 52.5094L81.5057 52.2171C81.0694 51.8889 80.3289 51.5262 79.2795 51.198C77.1928 50.5416 74.2156 50.1055 70.8607 50.1055C67.5057 50.1055 64.5286 50.5416 62.4418 51.198C61.388 51.5262 60.6489 51.8889 60.2082 52.2171L59.9159 52.5094L60.2082 52.8001C60.6519 53.1283 61.388 53.4925 62.4418 53.8192C64.5286 54.4757 67.5057 54.9118 70.8607 54.9118ZM31.9056 55.5325C35.253 55.5325 38.2287 55.0949 40.3154 54.4384C41.3663 54.1117 42.1023 53.7475 42.546 53.4193L42.8339 53.1286L42.546 52.8378C42.3242 52.655 42.0289 52.5096 41.6571 52.3268L40.3529 51.8172L40.1565 51.7812L36.3968 52.5096C34.9787 52.691 33.4676 52.7629 31.9011 52.7629L27.981 52.5456L28.786 53.5287L29.8428 55.4605L31.9056 55.5325ZM49.6831 55.7846C51.359 55.7846 52.9436 55.6752 54.3647 55.4923L57.8336 54.7639L57.2309 54.145L56.8412 52.8711L56.2296 53.0165C54.2658 53.3806 52.0366 53.562 49.6831 53.562C48.7836 53.562 47.9052 53.562 47.0462 53.4901L45.9519 53.3806L45.5261 54.7639L44.8635 55.4578L49.6831 55.7846ZM70.8607 60.3042C74.2157 60.3042 77.1928 59.8666 79.2796 59.2102C80.3289 58.8835 81.0695 58.5193 81.5057 58.1911L81.7935 57.9003L81.5057 57.6081L80.0156 56.8438L75.9576 57.7175C74.3761 57.9003 72.6491 58.0457 70.8607 58.0457C69.0678 58.0457 67.3454 57.9003 65.7608 57.7175L61.6983 56.8438L60.2082 57.6081L59.9204 57.9003L60.2082 58.1911C60.652 58.5193 61.3925 58.8835 62.4419 59.2102C64.5286 59.8666 67.5058 60.3042 70.8607 60.3042ZM31.9085 61.5786C35.2529 61.5786 38.2286 61.141 40.3153 60.486C41.3662 60.1578 42.1022 59.7936 42.546 59.4669L42.8338 59.1747L42.546 58.8839C42.1022 58.5557 41.3662 58.1915 40.3198 57.8633L40.002 57.7539L39.263 57.9367C37.1148 58.4103 34.5903 58.6636 31.8905 58.6636L30.7902 58.6276L31.012 60.7783L30.9686 61.5426L31.9085 61.5786ZM49.6831 61.8331C53.035 61.8331 56.0107 61.394 58.0989 60.7391L58.3208 60.6656L57.228 59.5371L56.8307 58.2617L56.2251 58.3711C54.2658 58.7353 52.0367 58.9181 49.6831 58.9181C48.7837 58.9181 47.9052 58.9181 47.0462 58.8447L45.9669 58.7353L46.0358 59.1729C46.0358 59.7919 45.832 60.3389 45.5261 60.811L44.8516 61.5034L45.5441 61.6128C46.8154 61.7582 48.2155 61.8331 49.6831 61.8331ZM70.8607 66.202C74.2157 66.202 77.1928 65.7643 79.2796 65.1079C80.3289 64.7797 81.0695 64.417 81.5057 64.0888L81.7935 63.798L81.5057 63.5058C81.2883 63.3245 80.9915 63.1791 80.6242 62.9962L79.302 62.4867L79.1117 62.4492L75.3595 63.1791C73.9428 63.3245 72.4302 63.4324 70.8607 63.4324C69.2897 63.4324 67.7711 63.3245 66.3575 63.1791L62.4928 62.4492L62.4299 62.4867C61.388 62.8134 60.649 63.1791 60.2082 63.5058L59.9204 63.798L60.2082 64.0888C60.652 64.417 61.3925 64.7797 62.4419 65.1079C64.5286 65.7643 67.5058 66.202 70.8607 66.202ZM31.901 66.7847C35.253 66.7847 38.2287 66.3486 40.3154 65.6921C41.3662 65.3654 42.1023 64.9997 42.546 64.673L42.8308 64.3808L42.546 64.09C42.3272 63.9446 42.0318 63.7618 41.6646 63.6164L41.2718 63.4336C38.7893 64.2354 35.4823 64.709 31.8906 64.709L30.4214 64.6355L29.5475 66.7112L31.901 66.7847ZM18.1994 69.9177C17.336 69.9177 16.6329 69.2268 16.6329 68.3516V67.7686L14.4937 66.9308C13.7906 66.4587 13.1865 65.8023 12.7938 64.9645C12.422 64.1627 12.7608 63.253 13.5433 62.8888C14.3228 62.4887 15.2597 62.8529 15.627 63.6172C15.9808 64.3815 17.1126 64.9286 18.4213 64.7817C19.0374 64.7098 19.5216 64.5269 19.8244 64.2362C20.0898 64.0174 20.2502 63.7266 20.2472 63.253C20.2322 62.9248 20.1333 62.8154 19.9219 62.7075C19.5726 62.5247 19.0479 62.3793 18.0495 62.1964C17.288 62.0511 16.1262 61.8338 15.1968 61.3227C14.1219 60.7397 13.2705 59.7566 13.0801 58.2264L13.0741 58.1545C12.9467 56.2226 13.9331 54.7659 15.3212 54.0016L16.6329 53.528V53.1638C16.6329 52.2886 17.336 51.5977 18.1994 51.5977C19.0584 51.5977 19.769 52.2886 19.769 53.1638V53.6734L21.2846 54.3657C21.8347 54.7299 22.3369 55.2035 22.7866 55.749C23.3248 56.4414 23.2004 57.4261 22.5273 57.9356C21.8467 58.4812 20.8588 58.3718 20.3266 57.6809C19.4961 56.6243 18.3119 56.3335 17.4199 56.5149C17.0481 56.5883 16.7603 56.7337 16.5594 56.915L16.2057 57.6434V57.8997L16.2177 58.0076C16.2791 58.2624 16.4035 58.4092 16.6839 58.5546C17.0886 58.7734 17.6568 58.9188 18.6462 59.1361C19.3942 59.247 20.553 59.4658 21.4629 59.9754C22.5453 60.5943 23.3143 61.6134 23.3758 63.1811C23.4013 64.6363 22.8151 65.8023 21.8887 66.6041L19.769 67.6592V68.3516C19.769 69.2268 19.0629 69.9177 18.1994 69.9177ZM18.0105 70.6456C23.4522 70.6456 27.879 66.2394 27.879 60.7767C27.879 55.3484 23.4522 50.9062 18.0105 50.9062C12.5553 50.9062 8.13306 55.3484 8.13306 60.7767C8.13306 66.2394 12.5553 70.6456 18.0105 70.6456ZM18.0105 73.7778C10.8254 73.7778 5 67.9508 5 60.7766C5 54.5105 9.45977 49.2666 15.3871 48.0646L17.8831 47.7724L17.7542 47.2269C17.7542 45.9515 18.5742 45.0403 19.4017 44.4588L19.6235 44.2759L19.3762 44.1306C18.5742 43.5476 17.7542 42.6019 17.7542 41.3265C17.7542 40.7075 17.9626 40.1605 18.2654 39.6869L19.2773 38.6304L18.2654 37.5753C17.9626 37.1377 17.7542 36.5547 17.7542 35.9357C17.7542 34.6618 18.5742 33.7506 19.3762 33.1316C20.2097 32.5127 21.31 32.0391 22.5303 31.6389C25.0007 30.8731 28.3122 30.3995 31.901 30.3995C32.7975 30.3995 33.6744 30.4355 34.5349 30.4715L35.5813 30.5824L36.046 29.0882C36.3533 28.6146 36.7565 28.2144 37.1613 27.9237L37.3772 27.7768L37.1613 27.6314C36.3563 27.0484 35.5408 26.1013 35.5408 24.8274C35.5408 23.552 36.3563 22.6423 37.1613 22.0593L37.3907 21.8764L37.1613 21.7311C36.3563 21.1496 35.5408 20.2009 35.5408 18.927C35.5408 18.308 35.7447 17.761 36.046 17.2874L37.0639 16.2308L36.046 15.2117C35.7447 14.7381 35.5408 14.1911 35.5408 13.5362C35.5408 12.2608 36.3563 11.3511 37.1613 10.7321C37.9918 10.1132 39.0966 9.63957 40.3199 9.23792C42.7859 8.47359 46.0973 8 49.6831 8C53.2644 8 56.5759 8.47359 59.0419 9.23792C60.2667 9.63957 61.37 10.1132 62.2005 10.7321C63.0055 11.3511 63.8225 12.2608 63.8225 13.5362C63.8225 14.1911 63.6171 14.7381 63.3113 15.2117L62.2964 16.2308L63.3113 17.2874C63.6171 17.761 63.8225 18.308 63.8225 18.927C63.8225 20.2009 63.0055 21.1496 62.2005 21.7311L61.9681 21.8764L62.1975 22.0593C63.0055 22.6423 63.8225 23.552 63.8225 24.8274C63.8225 26.1013 63.0055 27.0484 62.2005 27.6314L61.9786 27.7768L62.1975 27.9237C63.0055 28.5426 63.8225 29.4523 63.8225 30.7277C63.8225 32.0016 63.0055 32.9128 62.2005 33.5318L61.8587 33.7506L62.2005 33.9694C63.0055 34.5509 63.8225 35.4981 63.8225 36.7735C63.8225 37.3924 63.6171 37.9754 63.3113 38.413L62.3789 39.3962L63.3083 40.3434C63.6171 40.817 63.8225 41.3625 63.8225 41.9814C63.8225 43.2568 63.0055 44.204 62.2005 44.787L61.8587 45.0043L62.1975 45.2591C62.5977 45.5513 63.0055 45.914 63.3113 46.3891L63.701 47.663L66.969 47.1534C68.2073 47.044 69.516 46.9721 70.8607 46.9721C74.4465 46.9721 77.7534 47.4097 80.2239 48.21C81.4442 48.5742 82.5475 49.0853 83.378 49.7027C84.183 50.2857 85 51.2329 85 52.5083C85 53.1272 84.7916 53.6728 84.4888 54.1464L83.4769 55.2029L84.4888 56.222C84.7916 56.6956 85 57.2427 85 57.8991C85 59.173 84.183 60.0842 83.378 60.7032L83.1456 60.8485L83.375 60.9939C84.18 61.5769 85 62.5241 85 63.7995C85 65.0733 84.183 65.9831 83.378 66.6035C82.5475 67.2225 81.4442 67.6961 80.2239 68.0962C77.7534 68.8621 74.4465 69.3341 70.8607 69.3341C67.2719 69.3341 63.9634 68.8621 61.5004 68.0962C60.2771 67.6961 59.1693 67.2225 58.3358 66.6035C57.9341 66.3113 57.5338 65.9111 57.228 65.4375L56.8667 64.273L56.2296 64.4184C54.2658 64.7811 52.0367 64.9639 49.6831 64.9639C48.7837 64.9639 47.9052 64.9639 47.0462 64.892L45.9159 64.7811L45.5262 66.0565C45.2234 66.4941 44.8201 66.8943 44.4184 67.185C43.5849 67.804 42.48 68.315 41.2523 68.6792C38.7893 69.481 35.4823 69.9171 31.901 69.9171C31.0016 69.9171 30.1201 69.9171 29.2566 69.8452L27.4742 69.6624L27.2014 69.9546C24.8478 72.321 21.5948 73.7778 18.0105 73.7778Z" fill="#DBDBDB"/>
</g>
</svg>
