<svg xmlns="http://www.w3.org/2000/svg" width="11" height="12" viewBox="0 0 11 12">
  <path fill="#6F6F6F" fill-rule="evenodd" d="M5.14285714,0.000225 C6.78122449,0.000225 7.75910204,1.23920011 7.75910204,3.31440842 C7.75910204,4.37338714 7.09493878,5.31986813 6.41681633,5.90710633 L6.42665886,5.92678026 C6.43529615,5.9231036 6.44419685,5.9199553 6.45332177,5.917375 L6.51386939,5.909 C6.62953897,5.909 6.72489486,5.99634633 6.74077426,6.11006845 C6.76608766,6.11727997 6.79757434,6.1242478 6.83191837,6.13135182 C6.83853061,6.13285179 6.84587755,6.13435176 6.8524898,6.13660172 C8.55036735,6.60084239 10.2857143,7.38982654 10.2857143,9.71852976 C10.2857143,10.9425052 7.48873469,11.19975 5.14285714,11.19975 C2.79697959,11.19975 0,10.9425052 0,9.71852976 C0,7.38982654 1.73534694,6.60084239 3.43322449,6.13660172 C3.43983673,6.13435176 3.44718367,6.13285179 3.45379592,6.13135182 L3.546,6.110225 L3.55096803,6.08018056 C3.57234218,6.00115278 3.63349864,5.93901389 3.71070952,5.91731944 L3.77199184,5.909 C3.80282894,5.909 3.83229387,5.91532603 3.8591915,5.92678026 L3.86889796,5.90710633 L3.86889796,5.90710633 C3.19077551,5.31986813 2.52661224,4.37338714 2.52661224,3.31440842 C2.52661224,1.23920011 3.5044898,0.000225 5.14285714,0.000225 Z M6.07158367,7.3235 C5.79827755,7.48475 5.47060408,7.565 5.14293061,7.565 C4.81525714,7.565 4.48758367,7.48475 4.21427755,7.3235 C3.98565741,7.18821694 3.81139986,7.00766151 3.69775667,6.79305726 L3.60073469,6.81533808 L3.60073469,6.81533808 C1.85069388,7.29532844 0.685469388,7.9740648 0.685469388,9.71852976 C0.685469388,9.81460777 0.909815532,9.98808598 1.48453618,10.1472278 L1.48577143,8.91605 C1.48577143,8.78705 1.58789388,8.6828 1.71426122,8.6828 C1.84062857,8.6828 1.94275102,8.78705 1.94275102,8.91605 L1.94185023,10.2543633 C2.63985772,10.392858 3.67214054,10.5000141 5.14285714,10.5000141 C6.61338126,10.5000141 7.64558634,10.3928861 8.34358996,10.2544177 L8.3428898,8.91605 C8.3428898,8.78705 8.44501224,8.6828 8.57137959,8.6828 C8.69774694,8.6828 8.79986939,8.78705 8.79986939,8.91605 L8.80020035,10.1474985 C9.37564432,9.98828269 9.6002449,9.81466223 9.6002449,9.71852976 C9.6002449,7.9740648 8.43502041,7.29532844 6.68497959,6.81533808 L6.58862543,6.7920726 C6.47499414,7.00710925 6.30055339,7.18801008 6.07158367,7.3235 Z M5.14285714,0.699960942 C4.42138776,0.699960942 3.21208163,1.03970412 3.21208163,3.31440842 C3.21208163,4.20914044 3.85640816,5.02662402 4.45959184,5.49311465 C4.56318367,5.57336303 4.61387755,5.70611037 4.58963265,5.83585776 C4.52051246,6.21930825 4.3870597,6.46225961 4.13168002,6.62145637 C4.21747766,6.76071869 4.33560019,6.85559921 4.44276735,6.91925 C4.84831837,7.1585 5.43680816,7.1585 5.84309388,6.91925 C5.95052828,6.85544048 6.06897277,6.76024528 6.15623025,6.62114749 C5.89831074,6.46163322 5.76511276,6.21881411 5.69608163,5.83585776 C5.67183673,5.70611037 5.72253061,5.57336303 5.82612245,5.49311465 C6.42930612,5.02662402 7.07363265,4.20914044 7.07363265,3.31440842 C7.07363265,1.03970412 5.86432653,0.699960942 5.14285714,0.699960942 Z"/>
</svg>
