<svg xmlns="http://www.w3.org/2000/svg" width="42" height="44" viewBox="0 0 42 44"><path fill="#6F6F6F" d="M41.2758621 13.483871 39.1034483 13.483871 39.1034483 4.96774194 41.2758621 4.96774194C41.6755862 4.96774194 42 5.28567742 42 5.67741935L42 12.7741935C42 13.1659355 41.6755862 13.483871 41.2758621 13.483871ZM41.2758621 24.8387097 39.1034483 24.8387097 39.1034483 16.3225806 41.2758621 16.3225806C41.6755862 16.3225806 42 16.6405161 42 17.0322581L42 24.1290323C42 24.5207742 41.6755862 24.8387097 41.2758621 24.8387097ZM33.6613103 0 7 0 7 44 33.6613103 44C35.7308966 44 37.4137931 42.4081935 37.4137931 40.4516129L37.4137931 3.5483871C37.4137931 1.59180645 35.7308966 0 33.6613103 0ZM22.2068966 13.483871C24.2033448 13.483871 25.8275862 15.0756774 25.8275862 17.0322581 25.8275862 18.9888387 24.2033448 20.5806452 22.2068966 20.5806452 20.2104483 20.5806452 18.5862069 18.9888387 18.5862069 17.0322581 18.5862069 15.0756774 20.2104483 13.483871 22.2068966 13.483871ZM29.4482759 29.8064516 14.9655172 29.8064516C14.565069 29.8064516 14.2413793 29.4885161 14.2413793 29.0967742 14.2413793 25.5753548 17.1647241 22.7096774 20.7586207 22.7096774L23.6551724 22.7096774C27.249069 22.7096774 30.1724138 25.5753548 30.1724138 29.0967742 30.1724138 29.4885161 29.8487241 29.8064516 29.4482759 29.8064516ZM5.79310345 0 1.44827586 0C.648103448 0 0 .63516129 0 1.41935484L0 42.5806452C0 43.3648387.648103448 44 1.44827586 44L5.79310345 44 5.79310345 0Z"/></svg>