<svg width="36" height="39" viewBox="0 0 36 39" fill="none" xmlns="http://www.w3.org/2000/svg">
<mask id="mask0" mask-type="alpha" maskUnits="userSpaceOnUse" x="0" y="6" width="28" height="33">
<path fill-rule="evenodd" clip-rule="evenodd" d="M0.429688 38.7883H27.3815V6.02344H0.429688V38.7883Z" fill="white"/>
</mask>
<path fill-rule="evenodd" clip-rule="evenodd" d="M8.00897 12.766C8.00897 13.2288 7.56219 13.6049 7.01255 13.6049H3.84005L8.00897 9.43595V12.766ZM2.42897 15.6022H7.01255C8.66147 15.6022 10.005 14.3293 10.005 12.7672V8.02288H24.3858C24.9354 8.02288 25.3822 8.39895 25.3822 8.86181V35.9518C25.3822 36.4147 24.9354 36.7907 24.3858 36.7907H3.4254C2.87576 36.7907 2.42897 36.4147 2.42897 35.9518V15.6022ZM24.3858 6.02344H9.00862C8.96362 6.02344 8.92505 6.04594 8.88326 6.04915C8.83504 6.05558 8.79326 6.06522 8.74826 6.07808C8.5779 6.12308 8.42362 6.19701 8.30469 6.31594C8.30147 6.31915 8.30147 6.31594 8.30147 6.31915L0.722187 13.8984C0.603259 14.0174 0.52933 14.1749 0.481116 14.3452C0.468259 14.3902 0.46183 14.432 0.455402 14.477C0.448973 14.5188 0.429688 14.5606 0.429688 14.6024V35.9516C0.429688 37.517 1.77326 38.7899 3.4254 38.7899H24.3858C26.0379 38.7899 27.3815 37.517 27.3815 35.9516V8.86165C27.3815 7.29629 26.0379 6.02344 24.3858 6.02344Z" fill="#6F6F6F"/>
<path fill-rule="evenodd" clip-rule="evenodd" d="M7.26 20.5168H21.3386C21.7211 20.5168 22.0329 20.205 22.0329 19.8225C22.0329 19.44 21.7211 19.125 21.3386 19.125H7.26C6.87429 19.125 6.5625 19.44 6.5625 19.8225C6.5625 20.205 6.87429 20.5168 7.26 20.5168" fill="#6F6F6F"/>
<path fill-rule="evenodd" clip-rule="evenodd" d="M7.26 24.2551H21.3386C21.7211 24.2551 22.0329 23.9433 22.0329 23.5608C22.0329 23.1751 21.7211 22.8633 21.3386 22.8633H7.26C6.87429 22.8633 6.5625 23.1751 6.5625 23.5608C6.5625 23.9433 6.87429 24.2551 7.26 24.2551" fill="#6F6F6F"/>
<path fill-rule="evenodd" clip-rule="evenodd" d="M7.26 27.9973H21.3386C21.7211 27.9973 22.0329 27.6855 22.0329 27.303C22.0329 26.9173 21.7211 26.6055 21.3386 26.6055H7.26C6.87429 26.6055 6.5625 26.9173 6.5625 27.303C6.5625 27.6855 6.87429 27.9973 7.26 27.9973" fill="#6F6F6F"/>
<path fill-rule="evenodd" clip-rule="evenodd" d="M32.1482 0.214844H12.2196C10.6221 0.214844 9.32031 1.44592 9.32031 2.95984V4.11699C9.32031 4.66663 9.77031 5.11342 10.32 5.11342C10.8728 5.11342 11.3196 4.66663 11.3196 4.11699V2.95984C11.3196 2.54842 11.7246 2.21413 12.2196 2.21413H32.1482C32.6432 2.21413 33.0482 2.54842 33.0482 2.95984V28.7191C33.0482 29.1306 32.6432 29.4681 32.1482 29.4681H29.0528C28.5032 29.4681 28.0532 29.9148 28.0532 30.4645C28.0532 31.0173 28.5032 31.4641 29.0528 31.4641H32.1482C33.7457 31.4641 35.0442 30.2298 35.0442 28.7191V2.95984C35.0442 1.44592 33.7457 0.214844 32.1482 0.214844" fill="#6F6F6F"/>
</svg>
