<svg width="30" height="30" viewBox="0 0 30 30" fill="none" xmlns="http://www.w3.org/2000/svg">
<path fill-rule="evenodd" clip-rule="evenodd" d="M15 30C23.2843 30 30 23.2843 30 15C30 6.71573 23.2843 0 15 0C6.71573 0 0 6.71573 0 15C0 23.2843 6.71573 30 15 30Z" fill="#4089BC"/>
<path d="M13.1012 17.9996C13.1012 17.2635 13.0524 16.227 13.5659 15.2811C13.8755 14.7109 14.4177 14.1208 15.1919 13.5117C16.7302 12.2861 17.3753 11.6514 17.3753 10.348C17.3753 8.89604 16.3009 8.30889 14.8548 8.30889C13.9083 8.30889 12.8506 8.45371 10.9756 9.38678L10 7.32409C11.5719 6.4415 13.2562 6 15.0521 6C16.5695 6 17.774 6.37488 18.6643 7.12506C19.5546 7.87525 20 8.91011 20 10.2305C20 10.8164 19.9147 11.3377 19.7445 11.795C19.2815 13.0384 18.2911 13.8519 17.1896 14.7187C15.431 16.1115 15.3777 16.5907 15.3777 18H13.1012V17.9996Z" fill="white"/>
<path d="M14.5 24C15.3284 24 16 23.3284 16 22.5C16 21.6716 15.3284 21 14.5 21C13.6716 21 13 21.6716 13 22.5C13 23.3284 13.6716 24 14.5 24Z" fill="white"/>
</svg>
