<?xml version="1.0" encoding="UTF-8"?>
<svg width="50px" height="50px" viewBox="0 0 50 50" version="1.1" xmlns="http://www.w3.org/2000/svg" xmlns:xlink="http://www.w3.org/1999/xlink">
    <title>Health History / Digestive inactive</title>
    <g id="Health-History-/-Digestive-inactive" stroke="none" stroke-width="1" fill="none" fill-rule="evenodd">
        <polygon id="Clip-2" points="1.00003857 1.2282579 19.5777524 1.2282579 19.5777524 48.5470897 1.00003857 48.5470897"></polygon>
        <path d="M16.6318608,28.6503698 C19.8893423,25.5397558 20.5599201,19.1893998 18.0673334,15.0611463 C17.2964415,13.7836022 15.490243,10.7916762 14.8998075,8.4333022 C14.1272801,5.34961283 13.8028949,2.47802326 13.7996238,2.44890075 C13.7151201,1.69556181 13.0445423,1.15322371 12.2932771,1.23674487 C11.545283,1.32191448 11.0071852,2.00107344 11.0905986,2.75496186 C11.1042282,2.87914465 11.4373363,5.8337059 12.2572949,9.10586738 C12.9480445,11.8659122 14.9036238,15.1056543 15.7383023,16.4892484 C17.5548593,19.4982083 17.0778223,24.4391446 14.7569689,26.6563019 C13.4997719,27.8569187 11.8707586,29.3570028 10.3851289,30.3306838 C7.35880598,32.3121135 4.50040005,34.1841965 2.7874282,37.9800137 C-0.089514022,44.3589428 1.32851264,47.4585671 1.49970079,47.7910034 C1.74448894,48.2668542 2.2318845,48.5470897 2.7323645,48.5470897 C2.94008005,48.5470897 3.14997635,48.4987353 3.34624301,48.3965318 C4.01409487,48.0470617 4.28396153,47.2360272 3.93722376,46.5629125 C3.92741042,46.5403838 2.9640682,44.2287157 5.26911116,39.1168907 C6.65224598,36.0513342 8.9551082,34.5435573 11.9040149,32.6121304 C13.541206,31.5395427 15.2907052,29.9312108 16.6318608,28.6503698" id="Fill-1" fill="#999999"></path>
        <polygon id="Clip-5" points="9.76360291 1 49.9324668 1 49.9324668 49.1500905 9.76360291 49.1500905"></polygon>
        <path d="M39.9672587,8.25142387 C37.2064409,6.9420098 31.8112883,5.01882505 26.4897358,6.71672244 C25.3328528,6.7387017 24.4600113,6.43483851 23.8314128,5.80842976 C22.6107432,4.59187804 22.6450898,2.48132015 22.6461802,2.42142668 C22.6718039,1.66588981 22.0868202,1.03013988 21.3361002,1.00156685 C20.6028261,0.965301082 19.9507846,1.5631368 19.9218898,2.32142107 C19.9169832,2.456044 19.8199402,5.65347602 21.8960054,7.74260414 C23.1074069,8.96190327 24.7549565,9.54050714 26.7781387,9.45698597 C26.9062572,9.45204064 27.0327402,9.42896242 27.1543165,9.38720184 C31.6417358,7.87997448 36.3804854,9.58666357 38.8065595,10.7372775 C43.2509091,12.845088 48.8439639,20.0932966 46.7340972,28.9558814 C43.9961772,40.4532293 35.1565446,43.1314014 28.2234246,43.3533919 C23.7719876,43.497356 20.6251787,42.4588363 17.5328883,41.2906389 C15.7501328,40.6164253 11.7637387,41.0208436 10.5005446,44.1984942 C9.81197576,45.9315584 9.76563501,47.6717659 9.76360291,47.7448469 C9.74600835,48.5036807 10.3424409,49.1322873 11.0947965,49.1498707 C11.1057002,49.1504202 11.1160587,49.1504202 11.1269624,49.1504202 C11.8651432,49.1504202 12.4713891,48.5558814 12.488835,47.8074878 C12.4893802,47.7948497 12.5324498,46.4760945 13.0318395,45.2194306 C13.6326335,43.7067084 15.9251372,43.6176924 16.5760883,43.8633106 C19.8014039,45.0809613 23.360918,46.2546535 28.3095639,46.0991503 C39.4509683,45.7425369 46.9352706,39.8812192 49.3842424,29.5971261 C51.8751935,19.1361001 45.3771313,10.8175018 39.9672587,8.25142387" id="Fill-4" fill="#999999"></path>
        <path d="M21.6061304,26.9445598 C21.1879734,26.9445598 20.8008919,27.1687482 20.5937215,27.5347028 C20.3025926,28.0479184 19.9645778,28.5144281 19.5785867,28.9171979 C18.9548949,29.5666849 18.2772297,30.1244085 17.6731645,30.6205901 C16.9796889,31.1909518 16.3810756,31.6832871 15.9765482,32.2008985 C15.2721689,33.1020479 15.1042519,34.1548542 15.4777038,35.3307443 C16.0899467,37.2572259 18.0913215,38.951277 20.5779112,39.6463709 C20.6226163,39.659009 20.6673215,39.6732955 20.7114815,39.6881315 C23.0470549,40.5024628 25.6094252,41.2876717 28.9857571,41.1766765 C29.2060119,41.1695332 29.430083,41.1585436 29.6574252,41.1437076 C37.9464208,40.599721 43.1513038,36.1763961 44.7088978,28.3528806 C44.7099882,28.3484847 44.7110786,28.3435394 44.7121689,28.338594 C44.8550075,27.6149271 44.2880149,26.9445598 43.5558312,26.9445598 L21.6061304,26.9445598 Z" id="Fill-7" fill="#999999"></path>
        <path d="M26.5426187,25.0648391 C25.789718,25.0648391 25.1796558,24.4499694 25.1796558,23.6911357 C25.1796558,22.3388621 25.9162009,21.5965127 26.3561654,21.1536308 C26.7236202,20.7832803 26.7339787,20.7426187 26.7339787,20.5590919 C26.7339787,20.3761147 26.7236202,20.335453 26.3567106,19.9656521 C25.9162009,19.5222206 25.1796558,18.7804208 25.1796558,17.4286967 C25.1796558,16.076423 25.9162009,15.3340737 26.3561654,14.8900928 C26.7236202,14.5202918 26.7339787,14.4790807 26.7339787,14.295554 C26.7339787,13.5367202 27.3445861,12.9218506 28.0969417,12.9218506 C28.8498424,12.9218506 29.4599046,13.5367202 29.4599046,14.295554 C29.4599046,15.6478276 28.7239046,16.3901769 28.283395,16.8336083 C27.9268439,17.1935186 27.9055817,17.2385761 27.9055817,17.4286967 C27.9055817,17.6116739 27.9164854,17.6523356 28.2828498,18.0221365 C28.7233595,18.4650185 29.4599046,19.2073678 29.4599046,20.5590919 C29.4599046,21.9113656 28.7233595,22.6531654 28.283395,23.0965968 C27.9164854,23.4669473 27.9055817,23.5076089 27.9055817,23.6911357 C27.9055817,24.4499694 27.2949743,25.0648391 26.5426187,25.0648391" id="Fill-9" fill="#999999"></path>
        <path d="M32.1525743,25.0648391 C31.3996735,25.0648391 30.7896113,24.4499694 30.7896113,23.6911357 C30.7896113,22.3388621 31.5267017,21.5965127 31.9661209,21.1536308 C32.3335758,20.7832803 32.3444795,20.7426187 32.3444795,20.5590919 C32.3444795,20.3761147 32.3335758,20.335453 31.9666661,19.9656521 C31.5267017,19.5222206 30.7896113,18.7804208 30.7896113,17.4286967 C30.7896113,16.076423 31.5267017,15.3340737 31.9661209,14.8900928 C32.3335758,14.5202918 32.3444795,14.4790807 32.3444795,14.295554 C32.3444795,13.5367202 32.9545417,12.9218506 33.7074424,12.9218506 C34.459798,12.9218506 35.0704054,13.5367202 35.0704054,14.295554 C35.0704054,15.6478276 34.3338602,16.3901769 33.8933506,16.8336083 C33.5367995,17.1935186 33.5155372,17.2385761 33.5155372,17.4286967 C33.5155372,17.6116739 33.5258958,17.6523356 33.8928054,18.0221365 C34.333315,18.4650185 35.0704054,19.2073678 35.0704054,20.5590919 C35.0704054,21.9113656 34.333315,22.6531654 33.8933506,23.0965968 C33.5258958,23.4669473 33.5155372,23.5076089 33.5155372,23.6911357 C33.5155372,24.4499694 32.905475,25.0648391 32.1525743,25.0648391" id="Fill-11" fill="#999999"></path>
        <path d="M37.7625843,25.0648391 C37.0096836,25.0648391 36.3996214,24.4499694 36.3996214,23.6911357 C36.3996214,22.3388621 37.1356214,21.5970622 37.5755858,21.1536308 C37.9430406,20.7838298 37.9533992,20.7426187 37.9533992,20.5590919 C37.9533992,20.3761147 37.9430406,20.335453 37.576131,19.9656521 C37.1356214,19.5222206 36.3996214,18.7804208 36.3996214,17.4286967 C36.3996214,16.076423 37.1356214,15.3340737 37.5755858,14.8906423 C37.9326821,14.530732 37.9533992,14.4856745 37.9533992,14.295554 C37.9533992,13.5367202 38.5640066,12.9218506 39.3163621,12.9218506 C40.0692629,12.9218506 40.6793251,13.5367202 40.6793251,14.295554 C40.6793251,15.6478276 39.9433251,16.3901769 39.5033606,16.8336083 C39.1468095,17.1929692 39.1255473,17.2385761 39.1255473,17.4286967 C39.1255473,17.6116739 39.136451,17.6523356 39.5028155,18.0221365 C39.9433251,18.4650185 40.6793251,19.2073678 40.6793251,20.5590919 C40.6793251,21.9113656 39.9433251,22.6531654 39.5033606,23.0965968 C39.136451,23.4669473 39.1255473,23.5076089 39.1255473,23.6911357 C39.1255473,24.4499694 38.5154851,25.0648391 37.7625843,25.0648391" id="Fill-13" fill="#999999"></path>
    </g>
</svg>