<?xml version="1.0" encoding="UTF-8"?>
<svg width="50px" height="50px" viewBox="0 0 50 50" version="1.1" xmlns="http://www.w3.org/2000/svg" xmlns:xlink="http://www.w3.org/1999/xlink">
    <title>Health History / Digestive active</title>
    <g id="Health-History-/-Digestive-active" stroke="none" stroke-width="1" fill="none" fill-rule="evenodd">
        <g id="Group-9-Copy" transform="translate(4.000000, 5.000000)">
            <g id="Group-8">
                <path d="M13.1074609,23.1360237 C15.8388895,20.5332651 16.4011752,15.2197018 14.3111181,11.765449 C13.6647181,10.6964835 12.1502038,8.19303518 11.6551181,6.21970184 C11.0073466,3.63947196 10.7353466,1.23671334 10.7326038,1.21234552 C10.6617466,0.582000694 10.0994609,0.128207591 9.46951806,0.198092648 C8.84231806,0.269357016 8.39111806,0.837632878 8.46106091,1.46843748 C8.47248948,1.57234552 8.75180377,4.04452943 9.43934663,6.78246046 C10.0185466,9.09188575 11.6583181,11.8026903 12.3582038,12.9603915 C13.8814038,15.4780926 13.4814038,19.6123455 11.5353466,21.4675179 C10.4811752,22.4721156 9.11523234,23.7272881 7.86951806,24.5420007 C5.33191806,26.1999317 2.93511806,27.7663685 1.4987752,30.9424605 C-0.913567658,36.2799317 0.275460913,38.8734949 0.41900377,39.1516559 C0.624260913,39.5498168 1.03294663,39.7842995 1.45260377,39.7842995 C1.6267752,39.7842995 1.8027752,39.7438398 1.96734663,39.6583225 C2.52734663,39.3659087 2.75363234,38.6872881 2.46288948,38.1240697 C2.45466091,38.1052191 1.64688948,36.1709662 3.57968948,31.8937248 C4.73946091,29.3286674 6.67043234,28.0670582 9.14311806,26.4509662 C10.5159181,25.5534949 11.9828895,24.2077478 13.1074609,23.1360237" id="Fill-1" fill="#FFFFFF"></path>
                <path d="M32.6744095,6.06751794 C30.3594381,4.97188575 25.8355523,3.36269035 21.3733809,4.78338 C20.4033238,4.80177081 19.6714381,4.54751794 19.1443523,4.02338 C18.1208095,3.00544897 18.1496095,1.23947196 18.1505238,1.18935702 C18.1720095,0.557173108 17.6814952,0.025219085 17.0520095,0.00131103899 C16.4371523,-0.0290337886 15.8904095,0.471196096 15.8661809,1.10567886 C15.8620666,1.21832253 15.7806952,3.89372483 17.5214952,5.64177081 C18.5372666,6.66200069 19.9187523,7.14613863 21.6152095,7.07625357 C21.7226381,7.07211564 21.8286952,7.05280529 21.9306381,7.01786276 C25.6933809,5.75671334 29.6668666,7.18475931 31.7011523,8.14751794 C35.4277809,9.9111961 40.1176095,15.9760237 38.3484666,23.3916559 C36.0526952,33.0118858 28.6405809,35.2528053 22.8270952,35.4385524 C19.0945238,35.5590122 16.4558952,34.6900467 13.8629809,33.7125754 C12.3681238,33.1484375 9.0254952,33.4868283 7.9662952,36.1456789 C7.38892377,37.5957938 7.35006663,39.0518858 7.34836269,39.1130352 C7.33360948,39.7479777 7.83372377,40.2739547 8.46458091,40.2886674 C8.47372377,40.2891271 8.48240948,40.2891271 8.49155234,40.2891271 C9.11052377,40.2891271 9.61886663,39.7916559 9.6334952,39.165449 C9.63395234,39.1548743 9.67006663,38.051426 10.0888095,36.9999317 C10.5925809,35.7341846 12.5148666,35.6597018 13.0606952,35.8652191 C15.7651523,36.8840697 18.7498381,37.8661386 22.8993238,37.7360237 C32.2414952,37.4376329 38.5171523,32.5332651 40.5706381,23.9282076 C42.6593238,15.1751041 37.2106381,8.21464437 32.6744095,6.06751794" id="Fill-4" fill="#FFFFFF"></path>
                <path d="M17.2784323,21.7087133 C16.9278038,21.7087133 16.6032323,21.8962995 16.4295181,22.2025064 C16.1854038,22.6319317 15.9019752,23.0222766 15.5783181,23.3592881 C15.0553466,23.9027363 14.4871181,24.369403 13.9806038,24.7845754 C13.3991181,25.2618168 12.8971752,25.6737708 12.5579752,26.1068743 C11.9673466,26.8608972 11.8265466,27.7418168 12.1396895,28.7257248 C12.6530609,30.3376789 14.3312323,31.7551501 16.4162609,32.3367593 C16.4537466,32.347334 16.4912323,32.3592881 16.5282609,32.3717018 C18.4866609,33.0530812 20.6352323,33.7100926 23.4663181,33.6172191 C23.6510038,33.6112421 23.8388895,33.6020467 24.0295181,33.5896329 C30.9799181,33.1344605 35.3442609,29.433311 36.6503181,22.8871041 C36.6512323,22.883426 36.6521466,22.8792881 36.6530609,22.8751501 C36.7728323,22.2696329 36.2974038,21.7087133 35.6834609,21.7087133 L17.2784323,21.7087133 Z" id="Fill-7" fill="#FFFFFF"></path>
                <path d="M21.4177238,20.1358858 C20.7864095,20.1358858 20.2748666,19.621403 20.2748666,18.9864605 C20.2748666,17.8549662 20.8924666,17.2338168 21.2613809,16.8632421 C21.5694952,16.553357 21.5781809,16.519334 21.5781809,16.3657708 C21.5781809,16.2126674 21.5694952,16.1786444 21.2618381,15.8692191 C20.8924666,15.4981846 20.2748666,14.8774949 20.2748666,13.7464605 C20.2748666,12.6149662 20.8924666,11.9938168 21.2613809,11.6223225 C21.5694952,11.3128972 21.5781809,11.2784145 21.5781809,11.1248513 C21.5781809,10.4899087 22.0901809,9.97542598 22.7210381,9.97542598 C23.3523523,9.97542598 23.8638952,10.4899087 23.8638952,11.1248513 C23.8638952,12.2563455 23.2467523,12.8774949 22.8773809,13.2485294 C22.5784095,13.5496789 22.5605809,13.58738 22.5605809,13.7464605 C22.5605809,13.8995639 22.5697238,13.9335869 22.8769238,14.2430122 C23.2462952,14.6135869 23.8638952,15.2347363 23.8638952,16.3657708 C23.8638952,17.4972651 23.2462952,18.1179547 22.8773809,18.4889892 C22.5697238,18.7988743 22.5605809,18.8328972 22.5605809,18.9864605 C22.5605809,19.621403 22.0485809,20.1358858 21.4177238,20.1358858" id="Fill-9" fill="#FFFFFF"></path>
                <path d="M26.1217238,20.1358858 C25.4904095,20.1358858 24.9788666,19.621403 24.9788666,18.9864605 C24.9788666,17.8549662 25.5969238,17.2338168 25.9653809,16.8632421 C26.2734952,16.553357 26.2826381,16.519334 26.2826381,16.3657708 C26.2826381,16.2126674 26.2734952,16.1786444 25.9658381,15.8692191 C25.5969238,15.4981846 24.9788666,14.8774949 24.9788666,13.7464605 C24.9788666,12.6149662 25.5969238,11.9938168 25.9653809,11.6223225 C26.2734952,11.3128972 26.2826381,11.2784145 26.2826381,11.1248513 C26.2826381,10.4899087 26.7941809,9.97542598 27.4254952,9.97542598 C28.0563523,9.97542598 28.5683523,10.4899087 28.5683523,11.1248513 C28.5683523,12.2563455 27.9507523,12.8774949 27.5813809,13.2485294 C27.2824095,13.5496789 27.2645809,13.58738 27.2645809,13.7464605 C27.2645809,13.8995639 27.2732666,13.9335869 27.5809238,14.2430122 C27.9502952,14.6135869 28.5683523,15.2347363 28.5683523,16.3657708 C28.5683523,17.4972651 27.9502952,18.1179547 27.5813809,18.4889892 C27.2732666,18.7988743 27.2645809,18.8328972 27.2645809,18.9864605 C27.2645809,19.621403 26.7530381,20.1358858 26.1217238,20.1358858" id="Fill-11" fill="#FFFFFF"></path>
                <path d="M30.8257695,20.1358858 C30.1944552,20.1358858 29.6829123,19.621403 29.6829123,18.9864605 C29.6829123,17.8549662 30.3000552,17.2342766 30.6689695,16.8632421 C30.9770838,16.5538168 30.9857695,16.519334 30.9857695,16.3657708 C30.9857695,16.2126674 30.9770838,16.1786444 30.6694266,15.8692191 C30.3000552,15.4981846 29.6829123,14.8774949 29.6829123,13.7464605 C29.6829123,12.6149662 30.3000552,11.9938168 30.6689695,11.6227823 C30.9683981,11.3216329 30.9857695,11.2839317 30.9857695,11.1248513 C30.9857695,10.4899087 31.4977695,9.97542598 32.1286266,9.97542598 C32.7599409,9.97542598 33.2714838,10.4899087 33.2714838,11.1248513 C33.2714838,12.2563455 32.6543409,12.8774949 32.2854266,13.2485294 C31.9864552,13.5492191 31.9686266,13.58738 31.9686266,13.7464605 C31.9686266,13.8995639 31.9777695,13.9335869 32.2849695,14.2430122 C32.6543409,14.6135869 33.2714838,15.2347363 33.2714838,16.3657708 C33.2714838,17.4972651 32.6543409,18.1179547 32.2854266,18.4889892 C31.9777695,18.7988743 31.9686266,18.8328972 31.9686266,18.9864605 C31.9686266,19.621403 31.4570838,20.1358858 30.8257695,20.1358858" id="Fill-13" fill="#FFFFFF"></path>
            </g>
        </g>
    </g>
</svg>