<?xml version="1.0" encoding="UTF-8"?>
<svg width="56px" height="56px" viewBox="0 0 56 56" version="1.1" xmlns="http://www.w3.org/2000/svg" xmlns:xlink="http://www.w3.org/1999/xlink">
    <title>iconsnew / user</title>
    <g id="2021-Update" stroke="none" stroke-width="1" fill="none" fill-rule="evenodd" opacity="0.127232143">
        <g id="DocManagement" transform="translate(-1258.000000, -41.000000)" fill="#FFFFFF" fill-rule="nonzero">
            <g id="Group" transform="translate(1251.000000, 34.000000)">
                <g id="Group-7" transform="translate(7.000000, 7.000000)">
                    <path d="M19.4444444,31.6733092 L2.33333333,31.6733092 C1.40885669,31.6733092 0.65942029,32.4227456 0.65942029,33.3472222 L0.65942029,50.2800926 C0.65942029,53.0779045 2.94591316,55.3405797 5.75555556,55.3405797 L50.2444444,55.3405797 C53.0540868,55.3405797 55.3405797,53.0779045 55.3405797,50.2800926 L55.3405797,33.3472222 C55.3405797,32.4227456 54.5911433,31.6733092 53.6666667,31.6733092 L36.5555556,31.6733092 L36.3943466,31.6809719 C35.5455031,31.7620838 34.8816425,32.4771266 34.8816425,33.3472222 L34.8808986,41.8321014 L21.1179855,41.8321014 L21.1183575,33.3472222 C21.1183575,32.4227456 20.3689211,31.6733092 19.4444444,31.6733092 Z M38.2287246,35.0203913 L51.9927536,35.0203913 L51.9927536,50.2800926 C51.9927536,51.2210585 51.2129354,51.9927536 50.2444444,51.9927536 L5.75555556,51.9927536 L5.59598873,51.9857116 C4.702825,51.9064873 4.00724638,51.1687826 4.00724638,50.2800926 L4.00724638,35.0203913 L17.7701594,35.0203913 L17.7705314,43.5069444 C17.7705314,44.4314211 18.5199678,45.1808575 19.4444444,45.1808575 L36.5555556,45.1808575 L36.7167646,45.1731948 C37.565608,45.0920828 38.2294686,44.3770401 38.2294686,43.5069444 L38.2287246,35.0203913 Z" id="Path"></path>
                    <path d="M46.1805556,0.65942029 C47.0506512,0.65942029 47.7656939,1.3232809 47.8468059,2.17212434 L47.8544686,2.33333333 L47.8544686,25.8611111 C47.8544686,26.7855878 47.1050322,27.5350242 46.1805556,27.5350242 C45.3104599,27.5350242 44.5954172,26.8711635 44.5143052,26.0223201 L44.5066425,25.8611111 L44.5058986,4.00724638 L11.4929855,4.00724638 L11.4933575,25.8611111 C11.4933575,26.7312068 10.8294969,27.4462495 9.98065344,27.5273615 L9.81944444,27.5350242 C8.94934878,27.5350242 8.23430606,26.8711635 8.1531941,26.0223201 L8.1455314,25.8611111 L8.1455314,2.33333333 C8.1455314,1.46323767 8.80939202,0.748194953 9.65823545,0.667082993 L9.81944444,0.65942029 L46.1805556,0.65942029 Z" id="Path"></path>
                    <path d="M36.5555556,10.8191425 C37.4800322,10.8191425 38.2294686,11.5685789 38.2294686,12.4930556 C38.2294686,13.3631512 37.565608,14.0781939 36.7167646,14.1593059 L36.5555556,14.1669686 L19.4444444,14.1669686 C18.5199678,14.1669686 17.7705314,13.4175322 17.7705314,12.4930556 C17.7705314,11.6229599 18.434392,10.9079172 19.2832354,10.8268052 L19.4444444,10.8191425 L36.5555556,10.8191425 Z" id="Path"></path>
                    <path d="M36.5555556,21.513587 C37.4800322,21.513587 38.2294686,22.2630234 38.2294686,23.1875 C38.2294686,24.0575957 37.565608,24.7726384 36.7167646,24.8537503 L36.5555556,24.861413 L19.4444444,24.861413 C18.5199678,24.861413 17.7705314,24.1119766 17.7705314,23.1875 C17.7705314,22.3174043 18.434392,21.6023616 19.2832354,21.5212497 L19.4444444,21.513587 L36.5555556,21.513587 Z" id="Path"></path>
                </g>
            </g>
        </g>
    </g>
</svg>