<svg xmlns="http://www.w3.org/2000/svg" width="22" height="22" viewBox="0 0 22 22">
  <path fill="#858585" d="M13.6551724 0C14.4438306 0 15.0919481.581668348 15.1654683 1.32541688L15.1724138 1.46666667 15.1724138 3.66666667 21.6206897 3.66666667C21.830177 3.66666667 22 3.83082893 22 4.03333333 22 4.21052469 21.8699792 4.35836034 21.6971339 4.39255064L21.6206897 4.4.379310345 4.4C.169823026 4.4 0 4.23583774 0 4.03333333 0 3.85614198.130020754 3.70830633.30286608 3.67411603L.379310345 3.66666667 6.82758621 3.66666667 6.82758621 1.46666667C6.82758621.70429713 7.42931208.0777835147 8.19870712.00671398744L8.34482759 0 13.6551724 0zM13.6551724.733333333L8.34482759.733333333C7.9607675.733333333 7.64336546 1.00921713 7.59313221 1.36715768L7.5862069 1.46666667 7.5862069 3.66666667 14.4137931 3.66666667 14.4137931 1.46666667C14.4137931 1.09540858 14.1283961.788586616 13.7581127.740027802L13.6551724.733333333zM18.9655172 5.13333235L3.03448276 5.13333235C2.92925076 5.13309786 2.82864688 5.17513219 2.75672206 5.24938738 2.68479723 5.32364257 2.64801634 5.42344427 2.65517241 5.52493333L3.66793103 19.9565667C3.75666087 21.1062062 4.74552188 21.9963023 5.93810345 22L16.0618966 22C17.2548118 21.9960813 18.2437259 21.1054583 18.332069 19.9554667L19.3448276 5.52493333C19.3519837 5.42344427 19.3152028 5.32364257 19.2432779 5.24938738 19.1713531 5.17513219 19.0707492 5.13309786 18.9655172 5.13333235z"/>
</svg>
