<svg xmlns="http://www.w3.org/2000/svg" width="12" height="12" viewBox="0 0 12 12" >
	<g fill="none" fill-rule="evenodd" transform="translate(-308 -197)">
		<g transform="translate(308 197)">
			<path fill="#111" fill-rule="nonzero" d="M9,10 L2,10 L2,3 L4,3 L4,1 L1,1 C0.44771525,1 0,1.44771525 0,2 L0,11 C0,11.5522847 0.44771525,12 1,12 L10,12 C10.5522847,12 11,11.5522847 11,11 L11,8 L9,8 L9,10 Z"/>
			<path fill="#111" fill-rule="nonzero" d="M11.581,0.413 C11.3167056,0.148341002 10.9580266,-0.000373564031 10.584,-0.000373564031 C10.2099734,-0.000373564031 9.85129438,0.148341002 9.587,0.413 L5,5 L4,8 L7,7 L11.587,2.413 C11.851659,2.14870562 12.0003736,1.79002661 12.0003736,1.416 C12.0003736,1.04197339 11.851659,0.683294378 11.587,0.419 L11.581,0.413 Z"/>
		</g>
	</g>
</svg>
