<?xml version="1.0" encoding="UTF-8"?>
<svg width="22px" height="22px" viewBox="0 0 22 22" version="1.1" xmlns="http://www.w3.org/2000/svg" xmlns:xlink="http://www.w3.org/1999/xlink">
    <title>n-edit copy</title>
    <defs>
        <filter id="filter-1">
            <feColorMatrix in="SourceGraphic" type="matrix" values="0 0 0 0 0.519871 0 0 0 0 0.519871 0 0 0 0 0.519871 0 0 0 1.000000 0"></feColorMatrix>
        </filter>
    </defs>
    <g id="2021-Update" stroke="none" stroke-width="1" fill="none" fill-rule="evenodd">
        <g id="n-edit-copy" transform="translate(-1197.000000, -413.000000)" filter="url(#filter-1)">
            <g transform="translate(1197.000000, 413.000000)">
                <path d="M16.5,18.3333333 L3.66666667,18.3333333 L3.66666667,5.5 L7.33333333,5.5 L7.33333333,1.83333333 L1.83333333,1.83333333 C0.820811292,1.83333333 0,2.65414463 0,3.66666667 L0,20.1666667 C0,21.1791887 0.820811292,22 1.83333333,22 L18.3333333,22 C19.3458554,22 20.1666667,21.1791887 20.1666667,20.1666667 L20.1666667,14.6666667 L16.5,14.6666667 L16.5,18.3333333 Z" id="Path" fill="#111111" fill-rule="nonzero"></path>
                <path d="M21.2318333,0.757166667 C20.7472936,0.271958504 20.0897154,-0.00068486739 19.404,-0.00068486739 C18.7182846,-0.00068486739 18.0607064,0.271958504 17.5761667,0.757166667 L9.16666667,9.16666667 L7.33333333,14.6666667 L12.8333333,12.8333333 L21.2428333,4.42383333 C21.7280415,3.93929364 22.0006849,3.28171545 22.0006849,2.596 C22.0006849,1.91028455 21.7280415,1.25270636 21.2428333,0.768166667 L21.2318333,0.757166667 Z" id="Path" fill="#111111" fill-rule="nonzero"></path>
            </g>
        </g>
    </g>
</svg>