<svg width="32" height="36" viewBox="0 0 32 36" fill="none" xmlns="http://www.w3.org/2000/svg">
<mask id="mask0" mask-type="alpha" maskUnits="userSpaceOnUse" x="0" y="0" width="30" height="36">
<path fill-rule="evenodd" clip-rule="evenodd" d="M0.429688 0.785156H29.1243V35.5221H0.429688V0.785156Z" fill="white"/>
</mask>
<path fill-rule="evenodd" clip-rule="evenodd" d="M17.7971 35.5226H2.69254C1.4454 35.5226 0.429688 34.5069 0.429688 33.2572V3.05058C0.429688 1.80087 1.4454 0.785156 2.69254 0.785156H19.3065C19.5097 0.785156 19.7 0.864871 19.8414 1.0063L28.9031 10.068C29.0471 10.2094 29.1243 10.4023 29.1243 10.6029V20.418H27.6148V10.914L18.9954 2.29458H2.69254C2.27854 2.29458 1.93912 2.63401 1.93912 3.05058V33.2572C1.93912 33.6737 2.27854 34.0132 2.69254 34.0132H17.7971V35.5226Z" fill="#767676"/>
<path fill-rule="evenodd" clip-rule="evenodd" d="M14.7787 13.6227H5.71694C5.29779 13.6227 4.96094 13.2859 4.96094 12.8693C4.96094 12.4501 5.29779 12.1133 5.71694 12.1133H14.7787C15.1952 12.1133 15.5321 12.4501 15.5321 12.8693C15.5321 13.2859 15.1952 13.6227 14.7787 13.6227" fill="#767676"/>
<path fill-rule="evenodd" clip-rule="evenodd" d="M23.8404 18.154H5.71694C5.30037 18.154 4.96094 17.8171 4.96094 17.4005C4.96094 16.9814 5.30037 16.6445 5.71694 16.6445H23.8404C24.2569 16.6445 24.5938 16.9814 24.5938 17.4005C24.5938 17.8171 24.2569 18.154 23.8404 18.154" fill="#767676"/>
<path fill-rule="evenodd" clip-rule="evenodd" d="M16.2881 22.6852H5.71694C5.30037 22.6852 4.96094 22.3458 4.96094 21.9292C4.96094 21.5126 5.30037 21.1758 5.71694 21.1758H16.2881C16.7072 21.1758 17.0441 21.5126 17.0441 21.9292C17.0441 22.3458 16.7072 22.6852 16.2881 22.6852" fill="#767676"/>
<path fill-rule="evenodd" clip-rule="evenodd" d="M16.2881 27.2165H5.71694C5.30037 27.2165 4.96094 26.8796 4.96094 26.463C4.96094 26.0439 5.30037 25.707 5.71694 25.707H16.2881C16.7072 25.707 17.0441 26.0439 17.0441 26.463C17.0441 26.8796 16.7072 27.2165 16.2881 27.2165" fill="#767676"/>
<mask id="mask1" mask-type="alpha" maskUnits="userSpaceOnUse" x="19" y="23" width="13" height="13">
<path fill-rule="evenodd" clip-rule="evenodd" d="M19.4648 23.8672H31.2862V35.6878H19.4648V23.8672Z" fill="white"/>
</mask>
<path fill-rule="evenodd" clip-rule="evenodd" d="M21.9963 31.1525L21.2788 33.873L23.9994 33.1556L29.4637 27.6913L27.4605 25.6882L21.9963 31.1525ZM20.2195 35.6893C20.0215 35.6893 19.8287 35.6096 19.6872 35.4656C19.4944 35.2779 19.4224 35.0002 19.4892 34.7405L20.5872 30.5722C20.6207 30.4436 20.6901 30.3253 20.7827 30.2302L26.9258 24.087C27.2215 23.7939 27.6972 23.7939 27.993 24.087L31.0658 27.1599C31.3615 27.4556 31.3615 27.9339 31.0658 28.227L24.9227 34.3702C24.8275 34.4653 24.7092 34.5322 24.5807 34.5656L20.4124 35.6636C20.3481 35.679 20.2838 35.6893 20.2195 35.6893Z" fill="#767676"/>
<path fill-rule="evenodd" clip-rule="evenodd" d="M23.4309 34.0485L21.0703 31.7856L22.1117 30.6953L24.4749 32.9582L23.4309 34.0485Z" fill="#767676"/>
<path fill-rule="evenodd" clip-rule="evenodd" d="M28.3724 11.3586H19.3107C18.8915 11.3586 18.5547 11.0217 18.5547 10.6026V2.29688H20.0667V9.84916H28.3724V11.3586Z" fill="#767676"/>
</svg>
