<?xml version="1.0" encoding="utf-8"?>
<!-- Generator: Adobe Illustrator 25.4.1, SVG Export Plug-In . SVG Version: 6.00 Build 0)  -->
<svg version="1.1" id="Layer_1" xmlns="http://www.w3.org/2000/svg" xmlns:xlink="http://www.w3.org/1999/xlink" x="0px" y="0px"
	 viewBox="0 0 27.1 23.8" enable-background="new 0 0 27.1 23.8" xml:space="preserve">
<path fill="#212121" d="M25.8,1.3C25.1,0.5,24,0,22.8,0H4.4C3.1,0,2,0.5,1.3,1.3C0.5,2.2,0,3.3,0,4.5v1.2c0,0,0,0,0,0l0,8.5
	c0,0,0,0,0,0l0,5.1c0,1.2,0.5,2.4,1.3,3.2c0.8,0.8,1.9,1.3,3.1,1.3h18.4c1.2,0,2.3-0.5,3.1-1.3c0.8-0.8,1.3-2,1.3-3.2v-5.1v-3.4V5.7
	v0V4.5C27.1,3.3,26.6,2.2,25.8,1.3z M1.8,4.5c0-0.8,0.3-1.5,0.8-1.9C3,2.1,3.7,1.8,4.4,1.8h18.4c0.7,0,1.3,0.3,1.8,0.8
	c0.5,0.5,0.8,1.2,0.8,1.9v0.7L13.5,12L1.8,5.2L1.8,4.5z M25.3,19.3c0,0.8-0.3,1.5-0.8,1.9c-0.5,0.5-1.1,0.8-1.8,0.8H4.4
	c-0.7,0-1.3-0.3-1.8-0.8c-0.5-0.5-0.8-1.2-0.8-1.9v-5.1v-3.4V7.3l11.3,6.5c0.3,0.2,0.6,0.2,0.9,0l11.3-6.5l0,3.5l0,0V19.3z"/>
</svg>
