<?xml version="1.0" encoding="UTF-8"?>
<svg width="50px" height="50px" viewBox="0 0 50 50" version="1.1" xmlns="http://www.w3.org/2000/svg" xmlns:xlink="http://www.w3.org/1999/xlink">
    <title>Health History / Endocrine inactive</title>
    <g id="Health-History-/-Endocrine-inactive" stroke="none" stroke-width="1" fill="none" fill-rule="evenodd">
        <path d="M35.1333401,25.8290137 C33.6017632,26.6749632 32.1411547,27.4902181 30.6727798,28.2911843 C26.7526499,30.4297402 22.8424289,30.3455951 18.9627376,28.1940735 C17.6435301,27.4624344 16.3543167,26.6781384 14.9263804,25.8448902 C14.8144379,27.3804061 14.8425574,28.9524379 14.5600231,30.4678437 C13.988795,33.5309374 13.4344387,36.6189041 12.5230982,39.5917667 C11.7306631,42.1767151 9.87263193,43.8966623 7.00122655,44.4065605 C5.65282829,44.6460301 4.29103978,45.0548483 3.06208256,45.6449225 C1.67190672,46.3125266 0.842246777,45.9232894 0,44.4491623 C2.10601865,43.761448 4.11723432,42.9001514 6.21843248,42.4714876 C8.73767427,41.9573557 10.0477764,40.4480359 10.8450319,38.2195135 C12.1104107,34.681979 12.3768766,30.9920307 12.6918153,27.297584 C12.885974,25.0198447 12.3980332,23.1707692 10.8659207,21.2772396 C7.57673953,17.2120782 5.93054209,12.3425107 4.95037573,7.25887595 C4.92520206,7.12921839 4.92332742,6.99532711 4.90538449,6.86434652 C4.7990659,6.09910231 4.65364777,5.25844503 5.74548882,5.12587679 C6.82983134,4.99436698 6.87401916,5.8874165 7.03764803,6.61720333 C7.32714525,7.90689914 7.54353171,9.21855734 7.92702849,10.4804694 C9.56010348,15.8527907 12.0381033,20.7228874 16.610874,24.2950854 C18.8931083,26.0777446 21.4809082,27.2171434 24.3290145,27.762499 C24.7893714,27.8506132 25.3105199,27.8236233 25.7668597,27.7082545 C33.9081322,25.6493454 39.0821251,20.3442344 42.1431364,12.8471168 C42.9722608,10.8167852 43.4489537,8.64409497 44.0539252,6.52723686 C44.2748644,5.75352522 44.3533312,4.81258179 45.484004,5.03247043 C46.5474577,5.2391287 46.3393732,6.12397539 46.1843141,6.85984819 C44.8870666,13.0177884 42.4377219,18.610263 37.9562728,23.2088726 C37.6742741,23.4980883 37.3968281,23.9418347 37.3893296,24.3189001 C37.2947944,28.8807293 37.6274082,33.3991629 39.0173163,37.7871452 C39.8196601,40.3204952 41.275716,42.0370025 44.1471214,42.5445192 C46.1294141,42.8951238 48.0155648,43.7773245 50,44.4404303 C48.8671848,46.2458456 48.7999657,46.2371136 47.0886917,45.6435995 C45.6607553,45.1482547 44.2191609,44.6539683 42.7448943,44.3353812 C40.3584838,43.8201908 38.7926279,42.4108925 37.7698805,40.3051479 C36.3379271,37.3566292 35.7999068,34.1895448 35.490592,30.9753604 C35.3274988,29.2818739 35.2519777,27.57992 35.1333401,25.8290137" id="Fill-1" fill="#999999"></path>
        <path d="M27.5576238,43.6993554 C28.8384303,44.0141324 29.6651351,43.5444862 29.8878248,42.2479871 C30.2159991,40.3349283 30.6379375,38.4367199 30.9459416,36.5210092 C31.2771142,34.4607715 30.0535474,33.4252164 28.183172,34.3279129 C26.3133417,35.230079 24.6716525,35.2210626 22.8059108,34.3231395 C20.9900494,33.448818 19.7424964,34.45149 20.0453217,36.4037965 C20.3565967,38.4083449 20.76845,40.3980428 21.1456869,42.3927792 C21.3787342,43.6253683 22.2493228,44.05338 23.423827,43.9947737 C24.8035764,43.9258251 26.1797824,43.8003917 27.5576238,43.6993554" id="Path" stroke="#999999"></path>
        <path d="M21.2152028,17 C20.6141658,16.84164 19.9724802,16.8002482 19.6192588,16.5438656 C19.263234,16.2858357 19.1945521,15.8142566 19,15.4363756 C19.513853,15.3097288 20.0173337,15.1188319 20.5438018,15.0731155 C21.1644623,15.0191619 21.8053068,15.1081236 22.437461,15.1050346 C24.3759737,15.0953559 26.3147668,15.0743511 28.2532795,15.0514929 C29.0651281,15.0418142 29.8820227,14.9672676 30.6857416,15.0168967 C31.132034,15.0442854 31.7653095,15.1867887 31.9315478,15.4229901 C32.0983468,15.6604271 31.9424809,16.2193204 31.6565398,16.3850938 C31.1838959,16.6591863 30.4575493,16.9155688 29.9008051,16.8570848 C26.9805611,16.5496317 24.0802209,16.246915 21.2152028,17" id="Fill-6" fill="#999999"></path>
        <path d="M25.0810234,18 C25.5513403,18.1248701 26.1077023,18.1579989 26.4868162,18.4100751 C26.785043,18.6082108 27.0806909,19.1459166 26.9798752,19.4058503 C26.876715,19.6713054 26.3065202,19.8749626 25.908181,19.9378223 C25.3628384,20.0240422 24.7724805,20.0210691 24.2287791,19.9259299 C23.7973818,19.8505407 23.4079519,19.5793517 23,19.3950197 C23.2283593,19.0352749 23.3718458,18.572746 23.7087577,18.3446669 C24.0505933,18.1129777 24.5835097,18.112553 25.0810234,18" id="Fill-8" fill="#999999"></path>
        <path d="M22.9524235,40 C23.4713581,40.510477 24.0503259,40.8400548 23.9965125,41.0853954 C23.9224176,41.4236075 23.3702213,41.6980099 23.0230029,42 C22.6617227,41.7125408 22.0989801,41.4594082 22.0059559,41.1266716 C21.936999,40.8804886 22.4800009,40.5306939 22.9524235,40" id="Fill-10" fill="#999999"></path>
        <path d="M26.9445784,40 C27.4667573,40.5029474 28.044159,40.8231579 27.997328,41.0715789 C27.9326309,41.4096842 27.3917736,41.6930526 27.0550237,42 C26.6830829,41.7176842 26.1081175,41.4726316 26.006876,41.1404211 C25.9324337,40.8953684 26.47681,40.5364211 26.9445784,40" id="Fill-12" fill="#999999"></path>
        <path d="M28,37.0576539 C27.4549271,37.5274056 27.0926645,38.0716168 26.8500367,37.9922299 C26.5188372,37.8840994 26.278938,37.3007422 26,36.9210536 C26.3097912,36.5922822 26.5998531,36.0562835 26.9356701,36.0020813 C27.1896317,35.9610191 27.5019414,36.5350688 28,37.0576539" id="Fill-14" fill="#999999"></path>
        <path d="M25,37.037781 C24.4155898,37.5189797 24.0725302,38.0204682 23.7486453,37.9993558 C23.4868695,37.9826303 23.2488537,37.336371 23,36.9692342 C23.2940809,36.624855 23.5635682,36.0701742 23.8905794,36.0032725 C24.1429762,35.9519995 24.467278,36.5124382 25,37.037781" id="Fill-16" fill="#999999"></path>
    </g>
</svg>