<?xml version="1.0" encoding="UTF-8"?>
<svg width="50px" height="50px" viewBox="0 0 50 50" version="1.1" xmlns="http://www.w3.org/2000/svg" xmlns:xlink="http://www.w3.org/1999/xlink">
    <!-- Generator: Sketch 56.3 (81716) - https://sketch.com -->
    <title>icon / entity  / inactive</title>
    <desc>Created with Sketch.</desc>
    <g id="icon-/-entity--/-inactive" stroke="none" stroke-width="1" fill="none" fill-rule="evenodd">
        <g id="hotel" transform="translate(2.000000, 2.000000)" fill="#999999" fill-rule="nonzero">
            <path d="M1.5,44.5 L1.5,25.5 L9.5,25.5 C10.0522847,25.5 10.5,25.0522847 10.5,24.5 C10.5,23.9477153 10.0522847,23.5 9.5,23.5 L0.5,23.5 C-0.0522847498,23.5 -0.5,23.9477153 -0.5,24.5 L-0.5,45.5 C-0.5,46.0522847 -0.0522847498,46.5 0.5,46.5 L9.5,46.5 C10.0522847,46.5 10.5,46.0522847 10.5,45.5 C10.5,44.9477153 10.0522847,44.5 9.5,44.5 L1.5,44.5 Z" id="Shape"></path>
            <path d="M44.5,25.5 L44.5,44.5 L36.5,44.5 C35.9477153,44.5 35.5,44.9477153 35.5,45.5 C35.5,46.0522847 35.9477153,46.5 36.5,46.5 L45.5,46.5 C46.0522847,46.5 46.5,46.0522847 46.5,45.5 L46.5,24.5 C46.5,23.9477153 46.0522847,23.5 45.5,23.5 L36.5,23.5 C35.9477153,23.5 35.5,23.9477153 35.5,24.5 C35.5,25.0522847 35.9477153,25.5 36.5,25.5 L44.5,25.5 Z" id="Shape"></path>
            <path d="M8.5,0.5 C8.5,-0.0522847498 8.94771525,-0.5 9.5,-0.5 L36.5,-0.5 C37.0522847,-0.5 37.5,-0.0522847498 37.5,0.5 L37.5,45.5 C37.5,46.0522847 37.0522847,46.5 36.5,46.5 L9.5,46.5 C8.94771525,46.5 8.5,46.0522847 8.5,45.5 L8.5,0.5 Z M10.5,1.5 L10.5,44.5 L35.5,44.5 L35.5,1.5 L10.5,1.5 Z" id="Rectangle-path"></path>
            <path d="M18.5,10.5 L27.5,10.5 C28.0522847,10.5 28.5,10.0522847 28.5,9.5 C28.5,8.94771525 28.0522847,8.5 27.5,8.5 L18.5,8.5 C17.9477153,8.5 17.5,8.94771525 17.5,9.5 C17.5,10.0522847 17.9477153,10.5 18.5,10.5 Z" id="Shape"></path>
            <path d="M18.5,19.5 L27.5,19.5 C28.0522847,19.5 28.5,19.0522847 28.5,18.5 C28.5,17.9477153 28.0522847,17.5 27.5,17.5 L18.5,17.5 C17.9477153,17.5 17.5,17.9477153 17.5,18.5 C17.5,19.0522847 17.9477153,19.5 18.5,19.5 Z" id="Shape"></path>
            <path d="M18.5,28.5 L27.5,28.5 C28.0522847,28.5 28.5,28.0522847 28.5,27.5 C28.5,26.9477153 28.0522847,26.5 27.5,26.5 L18.5,26.5 C17.9477153,26.5 17.5,26.9477153 17.5,27.5 C17.5,28.0522847 17.9477153,28.5 18.5,28.5 Z" id="Shape"></path>
            <path d="M19.5,37.5 L26.5,37.5 L26.5,45.5 C26.5,46.0522847 26.9477153,46.5 27.5,46.5 C28.0522847,46.5 28.5,46.0522847 28.5,45.5 L28.5,36.5 C28.5,35.9477153 28.0522847,35.5 27.5,35.5 L18.5,35.5 C17.9477153,35.5 17.5,35.9477153 17.5,36.5 L17.5,45.5 C17.5,46.0522847 17.9477153,46.5 18.5,46.5 C19.0522847,46.5 19.5,46.0522847 19.5,45.5 L19.5,37.5 Z" id="Shape"></path>
        </g>
    </g>
</svg>