<svg xmlns="http://www.w3.org/2000/svg" width="20" height="20" viewBox="0 0 20 20"><g fill="none" fill-rule="evenodd"><path fill="#C03E3E" d="M19.2066667,6.103 C18.6826667,4.90033333 17.9613333,3.83366667 17.0613333,2.935 C16.16,2.03366667 15.0946667,1.31233333 13.8933333,0.791 C11.4746667,-0.263666667 8.52533333,-0.263666667 6.10666667,0.791 C4.90533333,1.31233333 3.84,2.03366667 2.93866667,2.935 C2.03866667,3.83366667 1.31733333,4.90033333 0.793333333,6.103 C0.266666667,7.311 0,8.623 0,9.99633333 C0,11.3696667 0.266666667,12.6816667 0.793333333,13.8896667 C1.316,15.0896667 2.03866667,16.1563333 2.93866667,17.0576667 C3.84,17.959 4.90533333,18.6803333 6.10666667,19.2016667 C7.316,19.7296667 8.62533333,19.9963333 10,19.9963333 C11.3746667,19.9963333 12.684,19.7296667 13.8933333,19.2016667 C15.0946667,18.6803333 16.16,17.959 17.0613333,17.0576667 C17.9613333,16.1563333 18.684,15.0896667 19.2066667,13.8896667 C19.7333333,12.6816667 20,11.3696667 20,9.99633333 C20,8.623 19.7333333,7.311 19.2066667,6.103"/><text fill="#FFF" font-family="OpenSans-Bold, Open Sans" font-size="12" font-weight="bold">
                <tspan x="8.283" y="14">!</tspan>
            </text></g></svg>