<?xml version="1.0" encoding="UTF-8"?>
<svg width="19px" height="19px" viewBox="0 0 19 19" version="1.1" xmlns="http://www.w3.org/2000/svg" xmlns:xlink="http://www.w3.org/1999/xlink">
    <title>launch-app</title>
    <defs>
        <filter id="filter-1">
            <feColorMatrix in="SourceGraphic" type="matrix" values="0 0 0 0 1.000000 0 0 0 0 0.466667 0 0 0 0 0.278431 0 0 0 1.000000 0"></feColorMatrix>
        </filter>
    </defs>
    <g id="2021-Update" stroke="none" stroke-width="1" fill="none" fill-rule="evenodd">
        <g id="launch-app" transform="translate(-1192.000000, -245.000000)" filter="url(#filter-1)">
            <g transform="translate(1192.000000, 245.000000)">
                <polygon id="Path" fill="#111111" fill-rule="nonzero" points="13 3.71135689 7 9.71135689 9.28864311 12 15.2886431 6 19 9.71135689 19 0 9.28864311 0"></polygon>
                <path d="M15.8333333,15.8333333 L3.16666667,15.8333333 L3.16666667,3.16666667 L6.33333333,3.16666667 L6.33333333,0 L3.16666667,0 C1.41776496,0 0,1.41776496 0,3.16666667 L0,15.8333333 C0,17.582235 1.41776496,19 3.16666667,19 L15.8333333,19 C17.582235,19 19,17.582235 19,15.8333333 L19,12.6666667 L15.8333333,12.6666667 L15.8333333,15.8333333 Z" id="Path" fill="#111111" fill-rule="nonzero"></path>
            </g>
        </g>
    </g>
</svg>