<svg width="34" height="20" viewBox="0 0 34 20" fill="none" xmlns="http://www.w3.org/2000/svg">
<path fill-rule="evenodd" clip-rule="evenodd" d="M16.6531 0C23.8694 0 29.299 5.2041 33.2281 9.73145L33.3061 9.82715L32.8291 10.3037C30.999 12.1602 28.7179 14.459 26.0378 16.2715C22.8893 18.3965 19.8189 19.4287 16.6531 19.4287C9.48878 19.4287 5.3602 15.2051 0.581122 10.3125L0 9.71387L0.0867347 9.62793C3.43469 6.17578 5.87194 4.07617 8.24847 2.58496C11.0673 0.824219 13.7388 0 16.6531 0ZM9.71429 9.71387C9.71429 13.5391 12.8281 16.6533 16.6531 16.6533C20.4781 16.6533 23.5918 13.5391 23.5918 9.71387C23.5918 5.88965 20.4781 2.77539 16.6531 2.77539C12.8281 2.77539 9.71429 5.88965 9.71429 9.71387Z" fill="#BBBDBF"/>
<path d="M3.67755 1.63061C3.67755 1.03214 3.85102 0.468367 4.15459 0C1.85612 0 0 1.87347 0 4.18061C0 6.48775 1.8648 8.35255 4.15459 8.35255C6.44439 8.35255 8.31786 6.48775 8.31786 4.18061C7.84949 4.48418 7.28571 4.65765 6.68724 4.65765C5.03061 4.64898 3.67755 3.29592 3.67755 1.63061Z" transform="translate(12.4898 5.55078)" fill="#BBBDBF"/>
</svg>
