<svg width="40" height="40" viewBox="0 0 40 40" fill="none" xmlns="http://www.w3.org/2000/svg">
<path d="M37.7933 0H2.20667C0.988333 0 0 0.988333 0 2.20667V37.7933C0 39.0133 0.988333 40 2.20667 40H21.3633V24.51H16.1483V18.475H21.3633V14.0167C21.3633 8.85167 24.52 6.04167 29.1283 6.04167C31.3367 6.04167 33.235 6.20333 33.7883 6.27667V11.6767H30.5867C28.0867 11.6767 27.6 12.8783 27.6 14.6283V18.48H33.5733L32.7983 24.53H27.6V40H37.7917C39.0133 40 40 39.0133 40 37.7933V2.20667C40 0.988333 39.0133 0 37.7933 0Z" fill="#3B5998"/>
</svg>
