<svg xmlns="http://www.w3.org/2000/svg" width="15" height="15" viewBox="0 0 15 15"><path fill="#A3A3A3" fill-rule="evenodd" d="M7.5,0 C11.6421356,0 15,3.35786438 15,7.5 C15,11.6421356 11.6421356,15 7.5,15 C3.35786438,15 0,11.6421356 0,7.5 C0,3.35786438 3.35786438,0 7.5,0 Z M8.11911111,2 L6.94933333,2 L6.94933333,3.16914286 C5.26933333,3.34514286 4.27377778,4.42628571 4.27377778,5.696 C4.27377778,7.40571429 5.66755556,7.896 6.94933333,8.21028571 L6.94933333,10.1588571 C6.11555556,10.008 5.43111111,9.568 4.97066667,9.07771429 L4,10.4731429 C4.68444444,11.1645714 5.64266667,11.6674286 6.94933333,11.7805714 L6.94933333,12.912 L8.11911111,12.912 L8.11911111,11.7805714 C9.94844444,11.592 10.8568889,10.5108571 10.8568889,9.11542857 C10.8568889,7.39314286 9.41333333,6.89028571 8.11911111,6.56342857 L8.11911111,4.82857143 C8.67911111,4.96685714 9.22666667,5.23085714 9.67466667,5.64571429 L10.6577778,4.31314286 C9.98577778,3.68457143 9.12711111,3.30742857 8.11911111,3.19428571 L8.11911111,2 Z M8.11911111,8.49942857 C8.66666667,8.67542857 9.05244444,8.87657143 9.05244444,9.29142857 C9.05244444,9.69371429 8.75377778,10.0582857 8.11911111,10.184 L8.11911111,8.49942857 Z M6.94933333,4.75314286 L6.94933333,6.27428571 C6.43911111,6.11085714 6.09066667,5.92228571 6.09066667,5.55771429 C6.09066667,5.13028571 6.40177778,4.82857143 6.94933333,4.75314286 Z"/></svg>