<svg xmlns="http://www.w3.org/2000/svg" width="201" height="49" viewBox="0 0 201 49">
  <g fill="#FFF">
    <path d="M5.952,18.496 C5.952,8.448 11.712,5.76 18.816,5.44 L9.664,47.936 L18.88,47.936 L27.904,6.016 C30.848,6.4 33.792,6.848 36.352,7.104 L27.584,47.936 L36.8,47.936 C38.784,36.928 40.32,28.864 41.536,22.592 C43.136,21.376 44.48,20.736 46.272,20.736 C48,20.736 49.216,22.208 49.216,24.512 C49.216,25.024 49.152,25.6 49.024,26.176 L46.592,37.696 C46.336,38.912 46.208,39.936 46.208,40.96 C46.208,45.76 49.152,47.936 54.144,47.936 C59.136,47.936 66.368,39.424 69.312,36.48 L67.136,36.48 C64.576,38.528 61.248,42.112 58.688,42.112 C56.192,42.112 55.488,41.152 55.488,39.744 C55.488,39.168 55.616,38.464 55.808,37.696 L58.432,25.472 C58.56,24.96 58.56,24.448 58.56,23.936 C58.56,19.648 54.656,15.936 51.2,15.936 C48.128,15.936 44.864,17.792 42.048,19.968 C45.056,4.8 45.952,3.008 47.552,0.128 C45.76,1.28 42.944,1.664 39.808,1.664 C33.28,1.664 25.472,0 22.528,0 C6.72,0 0,8.128 0,16.64 C0,21.248 2.432,22.848 6.848,22.848 C6.784,22.272 5.952,21.76 5.952,18.496 Z"/>
    <path d="M83.44,16 L83.056,17.664 C81.904,16.704 80.304,16.064 78.768,16.064 C65.968,16.064 62,29.248 62,40.256 C62,44.032 63.792,48.384 69.936,48.384 C73.84,48.384 76.72,45.76 78.64,43.136 C79.472,46.464 82.288,48 86.448,48 C91.44,48 98.672,39.488 101.616,36.544 L99.44,36.544 C96.88,38.592 93.552,42.176 90.992,42.176 C88.432,42.176 87.792,41.152 87.792,39.744 C87.792,39.168 87.92,38.464 88.048,37.76 L92.656,16 L83.44,16 Z M79.28,19.648 C80.176,19.648 81.392,19.904 82.416,20.8 L78.832,37.76 C78.64,38.528 78.512,39.232 78.448,39.872 C77.232,41.664 75.824,43.072 74.352,43.072 C72.752,43.072 70.64,42.368 70.64,38.528 C70.64,29.824 74.48,19.648 79.28,19.648 Z"/>
    <path d="M124.096,25.472 C124.224,24.96 124.224,24.448 124.224,23.936 C124.224,19.648 120.32,15.936 116.864,15.936 C114.048,15.936 111.104,17.472 108.48,19.392 L109.248,15.936 L100.032,15.936 L93.248,47.936 L102.464,47.936 L107.904,22.08 C109.248,21.184 110.4,20.736 111.936,20.736 C113.664,20.736 114.88,22.208 114.88,24.512 C114.88,25.024 114.816,25.6 114.688,26.176 L112.256,37.696 C112,38.912 111.872,39.936 111.872,40.96 C111.872,45.76 114.816,47.936 119.808,47.936 C124.8,47.936 129.664,41.024 132.608,38.08 L130.432,38.08 C127.872,40.128 126.912,42.112 124.352,42.112 C121.856,42.112 121.152,41.152 121.152,39.744 C121.152,39.104 121.28,38.4 121.472,37.696 L124.096,25.472 Z"/>
    <path d="M151.424,15.936 C151.424,15.872 143.872,21.696 139.072,25.536 L143.872,3.136 L134.4,4.416 L125.12,47.936 L134.336,47.936 L137.984,30.72 C139.328,29.824 140.48,29.312 142.08,29.312 C143.808,29.312 145.024,30.784 145.024,33.088 C145.024,33.6 144.96,34.176 144.832,34.752 L144.128,37.696 C143.808,38.912 143.68,40.064 143.68,41.088 C143.68,45.76 146.752,47.936 151.68,47.936 C156.672,47.936 162.816,39.424 165.76,36.48 L163.584,36.48 C161.024,38.528 158.784,42.112 156.224,42.112 C153.728,42.112 153.024,41.152 153.024,39.744 C153.024,39.104 153.152,38.4 153.344,37.696 L154.24,34.048 C154.368,33.536 154.432,32.96 154.432,32.448 C154.432,28.224 150.464,24.512 147.008,24.512 C146.432,24.512 145.92,24.576 145.344,24.704 L158.336,15.936 L151.424,15.936 Z"/>
    <path d="M167.408 16.92C166.32 21.784 165.04 27.416 162.864 31.576 160.304 31.768 158 34.712 158 39.768 158 46.04 161.584 48.152 168.944 48.152 177.584 48.152 181.36 42.968 181.36 37.016 181.36 29.528 176.688 26.456 176.688 15.896L176.688 15 167.408 16.92zM167.792 35.416C167.792 33.496 167.216 32.344 165.68 31.832 167.088 28.632 167.984 24.536 169.008 21.4 169.136 29.4 172.016 32.792 172.016 36.76 172.016 41.688 168.88 44.376 166.704 44.376 163.312 44.376 161.264 42.712 161.264 38.936 162.032 39.32 162.8 39.512 163.568 39.512 165.808 39.512 167.728 37.848 167.792 35.416zM192.536 33.016L200.856 3 191.64 3 187.096 33.016 192.536 33.016zM193.176 42.68C193.176 39.864 190.936 37.624 188.12 37.624 185.304 37.624 183 39.864 183 42.68 183 45.496 185.304 47.8 188.12 47.8 190.936 47.8 193.176 45.496 193.176 42.68z"/>
  </g>
</svg>
