<svg xmlns="http://www.w3.org/2000/svg" width="261" height="108" viewBox="0 0 261 108">
  <g fill="#FFF">
    <g transform="translate(35)">
      <path d="M16.589,17.543 L19.186,5.353 C21.677,5.883 24.168,6.36 26.606,6.36 C30.74,5.459 30.899,2.226 31.641,0 C30.157,0.477 28.514,0.636 26.871,0.636 C23.532,0.636 20.193,0 18.073,0 C4.982,0 0,6.731 0,13.78 C0,17.596 2.014,18.921 5.671,18.921 C5.618,18.444 4.929,18.02 4.929,15.317 C4.929,6.89 7.738,4.558 11.819,4.346 L4.187,39.75 L11.819,39.75 L15.741,21.465 L23.691,21.465 L24.751,17.543 L16.589,17.543 Z"/>
      <path d="M29.15,13.25 L25.334,31.27 C25.122,32.277 25.016,33.178 25.016,33.973 C25.016,37.948 27.56,39.75 31.641,39.75 C35.775,39.75 41.764,32.701 44.202,30.263 L42.4,30.263 C40.28,31.959 37.524,34.927 35.404,34.927 C33.284,34.927 32.754,34.079 32.754,32.913 C32.754,32.436 32.86,31.853 32.966,31.27 L36.782,13.25 L29.15,13.25 Z M30.157,6.254 C30.157,8.586 32.012,10.441 34.344,10.441 C36.676,10.441 38.584,8.586 38.584,6.254 C38.584,3.922 36.676,2.014 34.344,2.014 C32.012,2.014 30.157,3.922 30.157,6.254 Z"/>
      <path d="M63.653,21.147 C63.759,20.723 63.759,20.299 63.759,19.875 C63.759,16.324 60.526,13.25 57.664,13.25 C55.332,13.25 52.894,14.522 50.721,16.112 L51.357,13.25 L43.725,13.25 L38.107,39.75 L45.739,39.75 L50.244,18.338 C51.357,17.596 52.311,17.225 53.583,17.225 C55.014,17.225 56.021,18.444 56.021,20.352 C56.021,20.776 55.968,21.253 55.862,21.73 L53.848,31.27 C53.636,32.277 53.53,33.125 53.53,33.973 C53.53,37.948 55.968,39.75 60.102,39.75 C64.236,39.75 68.264,34.026 70.702,31.588 L68.9,31.588 C66.78,33.284 65.985,34.927 63.865,34.927 C61.798,34.927 61.215,34.132 61.215,32.966 C61.215,32.436 61.321,31.853 61.48,31.27 L63.653,21.147 Z"/>
      <path d="M83.475,13.25 L83.157,14.628 C82.203,13.833 80.878,13.303 79.606,13.303 C69.006,13.303 65.72,24.221 65.72,33.337 C65.72,36.464 67.204,40.068 72.292,40.068 C75.525,40.068 77.91,37.895 79.5,35.722 C80.189,38.478 82.521,39.75 85.966,39.75 C90.1,39.75 96.089,32.701 98.527,30.263 L96.725,30.263 C94.605,31.959 91.849,34.927 89.729,34.927 C87.609,34.927 87.079,34.079 87.079,32.913 C87.079,32.436 87.185,31.853 87.291,31.27 L91.107,13.25 L83.475,13.25 Z M80.03,16.271 C80.772,16.271 81.779,16.483 82.627,17.225 L79.659,31.27 C79.5,31.906 79.394,32.489 79.341,33.019 C78.334,34.503 77.168,35.669 75.949,35.669 C74.624,35.669 72.875,35.086 72.875,31.906 C72.875,24.698 76.055,16.271 80.03,16.271 Z"/>
      <path d="M116.971,21.147 C117.077,20.723 117.077,20.299 117.077,19.875 C117.077,16.324 113.844,13.25 110.982,13.25 C108.65,13.25 106.212,14.522 104.039,16.112 L104.675,13.25 L97.043,13.25 L91.425,39.75 L99.057,39.75 L103.562,18.338 C104.675,17.596 105.629,17.225 106.901,17.225 C108.332,17.225 109.339,18.444 109.339,20.352 C109.339,20.776 109.286,21.253 109.18,21.73 L107.166,31.27 C106.954,32.277 106.848,33.125 106.848,33.973 C106.848,37.948 109.286,39.75 113.42,39.75 C117.554,39.75 121.582,34.026 124.02,31.588 L122.218,31.588 C120.098,33.284 119.303,34.927 117.183,34.927 C115.116,34.927 114.533,34.132 114.533,32.966 C114.533,32.436 114.639,31.853 114.798,31.27 L116.971,21.147 Z"/>
      <path d="M135.468,18.497 C136.157,18.285 136.687,18.179 137.164,18.179 C137.8,18.179 138.224,18.338 138.489,18.497 C138.701,17.808 138.754,17.331 138.754,16.748 C138.754,13.833 135.786,13.091 132.924,13.091 C122.642,13.091 119.303,23.32 119.303,31.058 C119.303,37.312 122.165,39.75 126.564,39.75 C135.945,39.75 138.807,33.125 141.351,30.263 L139.549,30.263 C137.111,33.019 134.09,35.245 130.327,35.245 C127.094,35.245 126.458,32.701 126.458,29.574 C126.458,23.85 129.32,15.211 133.772,15.211 C134.938,15.211 135.733,15.741 135.733,17.013 C135.733,17.437 135.627,17.914 135.468,18.497 Z"/>
      <path d="M142.464,13.25 L138.648,31.27 C138.436,32.277 138.33,33.178 138.33,33.973 C138.33,37.948 140.874,39.75 144.955,39.75 C149.089,39.75 155.078,32.701 157.516,30.263 L155.714,30.263 C153.594,31.959 150.838,34.927 148.718,34.927 C146.598,34.927 146.068,34.079 146.068,32.913 C146.068,32.436 146.174,31.853 146.28,31.27 L150.096,13.25 L142.464,13.25 Z M143.471,6.254 C143.471,8.586 145.326,10.441 147.658,10.441 C149.99,10.441 151.898,8.586 151.898,6.254 C151.898,3.922 149.99,2.014 147.658,2.014 C145.326,2.014 143.471,3.922 143.471,6.254 Z"/>
      <path d="M170.13,13.25 L169.812,14.628 C168.858,13.833 167.533,13.303 166.261,13.303 C155.661,13.303 152.375,24.221 152.375,33.337 C152.375,36.464 153.859,40.068 158.947,40.068 C162.18,40.068 164.565,37.895 166.155,35.722 C166.844,38.478 169.176,39.75 172.621,39.75 C176.755,39.75 182.744,32.701 185.182,30.263 L183.38,30.263 C181.26,31.959 178.504,34.927 176.384,34.927 C174.264,34.927 173.734,34.079 173.734,32.913 C173.734,32.436 173.84,31.853 173.946,31.27 L177.762,13.25 L170.13,13.25 Z M166.685,16.271 C167.427,16.271 168.434,16.483 169.282,17.225 L166.314,31.27 C166.155,31.906 166.049,32.489 165.996,33.019 C164.989,34.503 163.823,35.669 162.604,35.669 C161.279,35.669 159.53,35.086 159.53,31.906 C159.53,24.698 162.71,16.271 166.685,16.271 Z"/>
      <path d="M193.715,2.65 L185.871,3.71 L180.041,31.27 C179.829,32.171 179.723,33.072 179.723,33.92 C179.723,37.259 181.366,39.75 185.129,39.75 C186.931,39.75 189.157,39.432 190.641,34.874 C190.217,35.033 189.634,35.033 189.263,35.033 C187.779,35.033 187.355,34.185 187.355,33.072 C187.355,32.489 187.461,31.906 187.62,31.27 L193.715,2.65 Z"/>
    </g>
    <g transform="translate(0 53)">
      <path d="M22.536 23.832L26.064 7.272C29.448 7.992 32.832 8.64 36.144 8.64 41.76 7.416 41.976 3.024 42.984 0 40.968.648 38.736.864 36.504.864 31.968.864 27.432 0 24.552 0 6.768 0 0 9.144 0 18.72 0 23.904 2.736 25.704 7.704 25.704 7.632 25.056 6.696 24.48 6.696 20.808 6.696 9.36 10.512 6.192 16.056 5.904L5.688 54 16.056 54 21.384 29.16 32.184 29.16 33.624 23.832 22.536 23.832zM57.816 18L57.384 19.872C56.088 18.792 54.288 18.072 52.56 18.072 38.16 18.072 33.696 32.904 33.696 45.288 33.696 49.536 35.712 54.432 42.624 54.432 47.016 54.432 50.256 51.48 52.416 48.528 53.352 52.272 56.52 54 61.2 54 66.816 54 74.952 44.424 78.264 41.112L75.816 41.112C72.936 43.416 69.192 47.448 66.312 47.448 63.432 47.448 62.712 46.296 62.712 44.712 62.712 44.064 62.856 43.272 63 42.48L68.184 18 57.816 18zM53.136 22.104C54.144 22.104 55.512 22.392 56.664 23.4L52.632 42.48C52.416 43.344 52.272 44.136 52.2 44.856 50.832 46.872 49.248 48.456 47.592 48.456 45.792 48.456 43.416 47.664 43.416 43.344 43.416 33.552 47.736 22.104 53.136 22.104z"/>
      <path d="M92.232,25.128 C93.168,24.84 93.888,24.696 94.536,24.696 C95.4,24.696 95.976,24.912 96.336,25.128 C96.624,24.192 96.696,23.544 96.696,22.752 C96.696,18.792 92.664,17.784 88.776,17.784 C74.808,17.784 70.272,31.68 70.272,42.192 C70.272,50.688 74.16,54 80.136,54 C92.88,54 96.768,45 100.224,41.112 L97.776,41.112 C94.464,44.856 90.36,47.88 85.248,47.88 C80.856,47.88 79.992,44.424 79.992,40.176 C79.992,32.4 83.88,20.664 89.928,20.664 C91.512,20.664 92.592,21.384 92.592,23.112 C92.592,23.688 92.448,24.336 92.232,25.128 Z"/>
      <path d="M112.392 20.88L116.712 20.88 117.288 18 112.968 18C114.336 11.52 115.416 6.624 115.416 6.624L104.76 8.064 102.6 18 100.224 18 99.648 20.88 102.024 20.88 97.416 42.48C97.128 43.776 96.984 45.072 96.984 46.224 96.984 50.688 99.144 54 104.184 54 106.632 54 109.8 53.568 111.816 47.376 111.24 47.592 110.448 47.592 109.944 47.592 108 47.592 107.424 46.512 107.424 45 107.424 44.208 107.568 43.344 107.784 42.48L112.392 20.88zM156.6 23.832L160.128 7.272C163.512 7.992 166.896 8.64 170.208 8.64 175.824 7.416 176.04 3.024 177.048 0 175.032.648 172.8.864 170.568.864 166.032.864 161.496 0 158.616 0 140.832 0 134.064 9.144 134.064 18.72 134.064 23.904 136.8 25.704 141.768 25.704 141.696 25.056 140.76 24.48 140.76 20.808 140.76 9.36 144.576 6.192 150.12 5.904L139.752 54 150.12 54 155.448 29.16 166.248 29.16 167.688 23.832 156.6 23.832z"/>
      <path d="M173.664,18 L168.48,42.48 C168.192,43.848 168.048,45.072 168.048,46.152 C168.048,51.552 171.504,54 177.048,54 C182.664,54 190.8,44.424 194.112,41.112 L191.664,41.112 C188.784,43.416 185.04,47.448 182.16,47.448 C179.28,47.448 178.56,46.296 178.56,44.712 C178.56,44.064 178.704,43.272 178.848,42.48 L184.032,18 L173.664,18 Z M175.032,8.496 C175.032,11.664 177.552,14.184 180.72,14.184 C183.888,14.184 186.48,11.664 186.48,8.496 C186.48,5.328 183.888,2.736 180.72,2.736 C177.552,2.736 175.032,5.328 175.032,8.496 Z"/>
      <path d="M220.536,28.728 C220.68,28.152 220.68,27.576 220.68,27 C220.68,22.176 216.288,18 212.4,18 C209.232,18 205.92,19.728 202.968,21.888 L203.832,18 L193.464,18 L185.832,54 L196.2,54 L202.32,24.912 C203.832,23.904 205.128,23.4 206.856,23.4 C208.8,23.4 210.168,25.056 210.168,27.648 C210.168,28.224 210.096,28.872 209.952,29.52 L207.216,42.48 C206.928,43.848 206.784,45 206.784,46.152 C206.784,51.552 210.096,54 215.712,54 C221.328,54 226.8,46.224 230.112,42.912 L227.664,42.912 C224.784,45.216 223.704,47.448 220.824,47.448 C218.016,47.448 217.224,46.368 217.224,44.784 C217.224,44.064 217.368,43.272 217.584,42.48 L220.536,28.728 Z"/>
      <path d="M260.784,3.6 L250.2,5.04 L247.032,19.872 C245.736,18.864 243.936,18.072 242.208,18.072 C227.808,18.072 223.344,32.904 223.344,45.288 C223.344,49.536 225.36,54.432 232.272,54.432 C236.592,54.432 239.832,51.552 241.992,48.6 C242.712,51.84 244.944,54 249.12,54 C251.568,54 254.592,53.568 256.608,47.376 C256.032,47.592 255.24,47.592 254.736,47.592 C252.72,47.592 252.144,46.44 252.144,44.928 C252.144,44.136 252.288,43.344 252.504,42.48 L260.784,3.6 Z M242.784,22.104 C243.792,22.104 245.16,22.392 246.312,23.328 L242.208,42.48 C241.992,43.344 241.848,44.136 241.776,44.928 C240.408,46.872 238.896,48.456 237.24,48.456 C235.44,48.456 233.064,47.664 233.064,43.344 C233.064,33.552 237.384,22.104 242.784,22.104 Z"/>
    </g>
  </g>
</svg>
