<?xml version="1.0" encoding="UTF-8"?>
<svg width="50px" height="50px" viewBox="0 0 50 50" version="1.1" xmlns="http://www.w3.org/2000/svg" xmlns:xlink="http://www.w3.org/1999/xlink">
    <!-- Generator: Sketch 56.3 (81716) - https://sketch.com -->
    <title>lifestyle / fam health</title>
    <desc>Created with Sketch.</desc>
    <g id="lifestyle-/-fam-health" stroke="none" stroke-width="1" fill="none" fill-rule="evenodd">
        <g id="Group-3" transform="translate(3.000000, 3.000000)" fill="#999999" fill-rule="nonzero">
            <path d="M18.9285714,16 L6.07142857,16 C5.47969491,16 5,15.5522847 5,15 L5,1 C5,0.44771525 5.47969491,0 6.07142857,0 L18.9285714,0 C19.5203051,0 20,0.44771525 20,1 L20,15 C20,15.5522847 19.5203051,16 18.9285714,16 Z M12.5,8 C13.1630412,8 13.798926,7.7366079 14.267767,7.26776695 C14.7366079,6.79892601 15,6.16304122 15,5.5 C15,4.11928813 13.8807119,3 12.5,3 C11.1192881,3 10,4.11928813 10,5.5 C10,6.88071187 11.1192881,8 12.5,8 Z M15.125,13 C15.3570644,13 15.5796241,12.9122026 15.7437184,12.7559223 C15.9078128,12.599642 16,12.3876804 16,12.1666667 L16,11.3333333 C16,9.49238417 14.4329966,8 12.5,8 C10.5670034,8 9,9.49238417 9,11.3333333 L9,12.1666667 C9,12.626904 9.39175084,13 9.875,13 L15.125,13 Z" id="Combined-Shape"></path>
            <path d="M9.28571429,41.6666667 L0.714285714,41.6666667 C0.319796607,41.6666667 0,41.3681898 0,41 L0,31.6666667 C0,31.2984768 0.319796607,31 0.714285714,31 L9.28571429,31 C9.68020339,31 10,31.2984768 10,31.6666667 L10,41 C10,41.3681898 9.68020339,41.6666667 9.28571429,41.6666667 Z M5,36.3333333 C5.44202748,36.3333333 5.86595067,36.1577386 6.1785113,35.845178 C6.49107193,35.5326173 6.66666667,35.1086941 6.66666667,34.6666667 C6.66666667,33.7461921 5.92047458,33 5,33 C4.07952542,33 3.33333333,33.7461921 3.33333333,34.6666667 C3.33333333,35.5871412 4.07952542,36.3333333 5,36.3333333 Z M6.75,39.6666667 C6.90470962,39.6666667 7.05308273,39.6081351 7.16247896,39.5039482 C7.27187518,39.3997613 7.33333333,39.2584536 7.33333333,39.1111111 L7.33333333,38.5555556 C7.33333333,37.3282561 6.28866442,36.3333333 5,36.3333333 C3.71133558,36.3333333 2.66666667,37.3282561 2.66666667,38.5555556 L2.66666667,39.1111111 C2.66666667,39.417936 2.9278339,39.6666667 3.25,39.6666667 L6.75,39.6666667 Z" id="Combined-Shape-Copy-2"></path>
            <path d="M26.2857143,41.6666667 L17.7142857,41.6666667 C17.3197966,41.6666667 17,41.3681898 17,41 L17,31.6666667 C17,31.2984768 17.3197966,31 17.7142857,31 L26.2857143,31 C26.6802034,31 27,31.2984768 27,31.6666667 L27,41 C27,41.3681898 26.6802034,41.6666667 26.2857143,41.6666667 Z M22,36.3333333 C22.4420275,36.3333333 22.8659507,36.1577386 23.1785113,35.845178 C23.4910719,35.5326173 23.6666667,35.1086941 23.6666667,34.6666667 C23.6666667,33.7461921 22.9204746,33 22,33 C21.0795254,33 20.3333333,33.7461921 20.3333333,34.6666667 C20.3333333,35.5871412 21.0795254,36.3333333 22,36.3333333 Z M23.75,39.6666667 C23.9047096,39.6666667 24.0530827,39.6081351 24.162479,39.5039482 C24.2718752,39.3997613 24.3333333,39.2584536 24.3333333,39.1111111 L24.3333333,38.5555556 C24.3333333,37.3282561 23.2886644,36.3333333 22,36.3333333 C20.7113356,36.3333333 19.6666667,37.3282561 19.6666667,38.5555556 L19.6666667,39.1111111 C19.6666667,39.417936 19.9278339,39.6666667 20.25,39.6666667 L23.75,39.6666667 Z" id="Combined-Shape-Copy-3"></path>
            <path d="M43.2857143,41.6666667 L34.7142857,41.6666667 C34.3197966,41.6666667 34,41.3681898 34,41 L34,31.6666667 C34,31.2984768 34.3197966,31 34.7142857,31 L43.2857143,31 C43.6802034,31 44,31.2984768 44,31.6666667 L44,41 C44,41.3681898 43.6802034,41.6666667 43.2857143,41.6666667 Z M39,36.3333333 C39.4420275,36.3333333 39.8659507,36.1577386 40.1785113,35.845178 C40.4910719,35.5326173 40.6666667,35.1086941 40.6666667,34.6666667 C40.6666667,33.7461921 39.9204746,33 39,33 C38.0795254,33 37.3333333,33.7461921 37.3333333,34.6666667 C37.3333333,35.5871412 38.0795254,36.3333333 39,36.3333333 Z M40.75,39.6666667 C40.9047096,39.6666667 41.0530827,39.6081351 41.162479,39.5039482 C41.2718752,39.3997613 41.3333333,39.2584536 41.3333333,39.1111111 L41.3333333,38.5555556 C41.3333333,37.3282561 40.2886644,36.3333333 39,36.3333333 C37.7113356,36.3333333 36.6666667,37.3282561 36.6666667,38.5555556 L36.6666667,39.1111111 C36.6666667,39.417936 36.9278339,39.6666667 37.25,39.6666667 L40.75,39.6666667 Z" id="Combined-Shape-Copy-4"></path>
            <path d="M37.9285714,16 L25.0714286,16 C24.4796949,16 24,15.5522847 24,15 L24,1 C24,0.44771525 24.4796949,0 25.0714286,0 L37.9285714,0 C38.5203051,0 39,0.44771525 39,1 L39,15 C39,15.5522847 38.5203051,16 37.9285714,16 Z M31.5,8 C32.1630412,8 32.798926,7.7366079 33.267767,7.26776695 C33.7366079,6.79892601 34,6.16304122 34,5.5 C34,4.11928813 32.8807119,3 31.5,3 C30.1192881,3 29,4.11928813 29,5.5 C29,6.88071187 30.1192881,8 31.5,8 Z M34.125,13 C34.3570644,13 34.5796241,12.9122026 34.7437184,12.7559223 C34.9078128,12.599642 35,12.3876804 35,12.1666667 L35,11.3333333 C35,9.49238417 33.4329966,8 31.5,8 C29.5670034,8 28,9.49238417 28,11.3333333 L28,12.1666667 C28,12.626904 28.3917508,13 28.875,13 L34.125,13 Z" id="Combined-Shape-Copy"></path>
            <g id="Group-2" transform="translate(4.000000, 13.000000)">
                <path d="M36,18 L34,18 L34,14 C34,13.4477153 33.5522847,13 33,13 L3,13 C2.44771525,13 2,13.4477153 2,14 L2,18 L0,18 L0,14 C0,12.3431458 1.34314575,11 3,11 L33,11 C34.6568542,11 36,12.3431458 36,14 L36,18 Z" id="Path"></path>
                <path d="M25,7 L11,7 C9.34314575,7 8,5.65685425 8,4 L8,0 L10,0 L10,4 C10,4.55228475 10.4477153,5 11,5 L25,5 C25.5522847,5 26,4.55228475 26,4 L26,0 L28,0 L28,4 C28,5.65685425 26.6568542,7 25,7 Z" id="Path"></path>
                <rect id="Rectangle" x="17" y="6" width="2" height="12"></rect>
            </g>
        </g>
    </g>
</svg>