<svg xmlns="http://www.w3.org/2000/svg" width="70" height="69" viewBox="0 0 70 69">
  <g fill="#6B6B6B" fill-rule="evenodd" transform="translate(.004 -.002)">
    <path d="M25.99586 26.00207L25.99586 29.9121824 25.4955485 29.9121824C24.8170438 27.4582498 24.2344893 26.6357779 21.9590999 26.6357779L20.4650189 26.6357779C19.8413429 26.6357779 19.7042712 26.7773509 19.7042712 27.4312835L19.7042712 33.249261 22.3908756 33.249261C23.8712494 33.249261 24.1385391 32.6155531 24.4606575 31.0717329L24.960969 31.0717329 24.960969 36.0672385 24.4606575 36.0672385C24.1385391 34.5234183 23.8712494 33.8897104 22.3908756 33.8897104L19.7042712 33.8897104 19.7042712 39.20207C19.7042712 40.3413958 19.8413429 40.4088116 21.6849566 40.5031936L21.6849566 41.00207 14.99586 41.00207 14.99586 40.5031936C16.4556731 40.4088116 16.6407198 40.3413958 16.6407198 39.20207L16.6407198 27.7953284C16.6407198 26.6627442 16.572184 26.5885869 14.99586 26.5009464L14.99586 26.00207 25.99586 26.00207zM37.99586 26.00207L37.99586 29.9121824 37.5020944 29.9121824C36.8231667 27.4582498 36.2333912 26.6357779 33.9565832 26.6357779L32.4684286 26.6357779C31.8443637 26.6357779 31.7072066 26.7773509 31.7072066 27.4312835L31.7072066 33.249261 34.3886281 33.249261C35.8767827 33.249261 36.1442391 32.6155531 36.4597004 31.0717329L36.9603238 31.0717329 36.9603238 36.0672385 36.4597004 36.0672385C36.1442391 34.5234183 35.8767827 33.8897104 34.3886281 33.8897104L31.7072066 33.8897104 31.7072066 39.20207C31.7072066 40.3413958 31.8443637 40.4088116 33.6891268 40.5031936L33.6891268 41.00207 26.99586 41.00207 26.99586 40.5031936C28.4565832 40.4088116 28.6348874 40.3413958 28.6348874 39.20207L28.6348874 27.7953284C28.6348874 26.6627442 28.5663089 26.5885869 26.99586 26.5009464L26.99586 26.00207 37.99586 26.00207zM44.633402 33.3765623L45.5407472 33.3765623C47.839355 33.3765623 48.4778571 32.2372447 48.4778571 29.9793243 48.4778571 27.6247345 47.395764 26.5613714 45.9574539 26.5613714 44.7274971 26.5613714 44.633402 26.6994705 44.633402 27.3692512L44.633402 33.3765623zM44.633402 39.5219725C44.633402 40.68891 44.7476603 40.7303397 46.2666233 40.8546289L46.2666233 41.3655956 39.99586 41.3655956 39.99586 40.8546289C41.5618706 40.7786744 41.6290813 40.68891 41.6290813 39.5219725L41.6290813 27.8387881C41.6290813 26.6718507 41.4946598 26.6028011 39.99586 26.5130367L39.99586 26.00207 46.9790573 26.00207C49.7884668 26.00207 51.6165993 26.8168547 51.6165993 29.7445558 51.6165993 31.8160424 49.7279771 33.1210789 47.4293694 33.3765623L47.4293694 33.5629961C49.6204399 34.1430123 51.4552935 36.9257093 51.9190477 39.2112495 52.4701759 41.7177483 52.6449239 42.4013389 53.99586 42.4911033L53.99586 43.00207 52.3760808 43.00207C50.3261528 43.00207 49.5733924 42.3737191 49.0625907 40.8131992 48.820632 39.9293649 48.6257208 38.7002828 48.464415 37.740494 48.1821298 35.8761561 47.0193838 33.9358637 45.520584 33.9358637L44.633402 33.9358637 44.633402 39.5219725z"/>
    <path d="M3.0843,65.8398 L55.3104,65.8398 L65.9088,54.9792 L65.9088,3.1671 L3.0843,3.1671 L3.0843,65.8398 Z M56.5938,69 L0,69 L0,0 L69,0 L69,56.2902 L56.5938,69 Z"/>
    <polygon points="65.628 65.699 65.628 66.07 65.019 66.07 65.019 67.799 64.592 67.799 64.592 66.07 63.976 66.07 63.976 65.699"/>
    <path d="M67.24096,65.69877 L67.85696,65.69877 L67.85696,67.79877 L67.45096,67.79877 L67.45096,66.37777 C67.45096,66.33577 67.45796,66.27977 67.45796,66.20277 L67.45796,66.03477 L67.07296,67.79877 L66.65296,67.79877 L66.26796,66.03477 L66.26796,66.20277 L66.26796,66.37777 L66.26796,67.79877 L65.87596,67.79877 L65.87596,65.69877 L66.49896,65.69877 L66.86996,67.35077 L67.24096,65.69877 Z"/>
  </g>
</svg>
