<svg xmlns="http://www.w3.org/2000/svg" xmlns:xlink="http://www.w3.org/1999/xlink" width="347" height="245" viewBox="0 0 347 245">
  <defs>
    <polygon id="ffr-logo-stacked-rgb-a" points="0 0 194.829 0 194.829 18.121 0 18.121"/>
  </defs>
  <g fill="none" fill-rule="evenodd">
    <g transform="translate(76.167 226.864)">
      <mask id="ffr-logo-stacked-rgb-b" fill="#fff">
        <use xlink:href="#ffr-logo-stacked-rgb-a"/>
      </mask>
      <path fill="#193345" d="M5.177,11.405 C5.494,11.405 5.74,11.454 5.915,11.552 C6.09,11.649 6.243,11.812 6.373,12.04 L9.328,17.204 C9.63,17.726 10.126,17.986 10.818,17.986 L14.555,17.986 L10.769,11.796 C10.59,11.503 10.38,11.254 10.14,11.05 C9.9,10.848 9.642,10.677 9.366,10.537 C9.943,10.318 10.453,10.037 10.897,9.696 C11.341,9.354 11.716,8.964 12.02,8.529 C12.326,8.094 12.556,7.62 12.712,7.107 C12.865,6.594 12.943,6.048 12.943,5.471 C12.943,4.714 12.812,4.014 12.552,3.371 C12.292,2.727 11.874,2.17 11.301,1.697 C10.726,1.226 9.986,0.857 9.078,0.592 C8.171,0.328 7.073,0.196 5.787,0.196 L-2.84217094e-14,0.196 L-2.84217094e-14,17.986 L4.127,17.986 L4.127,11.405 L5.177,11.405 Z M4.127,3.286 L5.787,3.286 C6.853,3.286 7.642,3.504 8.15,3.944 C8.659,4.383 8.913,4.995 8.913,5.775 C8.913,6.167 8.856,6.531 8.742,6.869 C8.629,7.206 8.445,7.502 8.194,7.753 C7.941,8.006 7.618,8.204 7.222,8.347 C6.827,8.489 6.349,8.561 5.787,8.561 L4.127,8.561 L4.127,3.286 Z M23.444,0.196 L23.444,17.986 L34.897,17.986 L34.897,14.811 L27.595,14.811 L27.595,10.575 L33.188,10.575 L33.188,7.522 L27.595,7.522 L27.595,3.371 L34.897,3.371 L34.897,0.196 L23.444,0.196 Z M55.386,1.892 C55.069,1.599 54.708,1.338 54.305,1.105 C53.902,0.874 53.469,0.674 53.005,0.508 C52.541,0.341 52.051,0.215 51.534,0.128 C51.016,0.044 50.485,-1.42108547e-14 49.941,-1.42108547e-14 C48.964,-1.42108547e-14 48.096,0.148 47.339,0.446 C46.582,0.743 45.943,1.14 45.423,1.637 C44.901,2.134 44.506,2.698 44.238,3.335 C43.969,3.97 43.835,4.62 43.835,5.288 C43.835,6.117 43.949,6.815 44.177,7.381 C44.404,7.947 44.704,8.42 45.074,8.798 C45.444,9.177 45.865,9.482 46.338,9.714 C46.81,9.946 47.294,10.141 47.791,10.3 C48.287,10.458 48.771,10.603 49.244,10.734 C49.716,10.863 50.137,11.014 50.508,11.185 C50.879,11.356 51.177,11.572 51.406,11.833 C51.633,12.093 51.748,12.431 51.748,12.846 C51.748,13.563 51.539,14.086 51.124,14.415 C50.709,14.745 50.127,14.909 49.379,14.909 C48.824,14.909 48.345,14.833 47.938,14.677 C47.53,14.522 47.171,14.351 46.856,14.165 C46.543,13.978 46.263,13.807 46.015,13.652 C45.766,13.497 45.52,13.419 45.276,13.419 C45.088,13.419 44.913,13.465 44.75,13.554 C44.588,13.643 44.462,13.762 44.373,13.907 L43.152,15.837 C43.501,16.187 43.911,16.505 44.384,16.789 C44.857,17.075 45.361,17.321 45.898,17.529 C46.435,17.736 46.991,17.897 47.565,18.01 C48.139,18.125 48.702,18.181 49.257,18.181 C50.265,18.181 51.167,18.029 51.96,17.724 C52.755,17.418 53.423,16.999 53.963,16.466 C54.504,15.933 54.918,15.308 55.203,14.593 C55.487,13.876 55.631,13.106 55.631,12.284 C55.631,11.543 55.516,10.911 55.289,10.385 C55.06,9.861 54.762,9.415 54.391,9.048 C54.02,8.681 53.596,8.381 53.121,8.144 C52.644,7.909 52.159,7.703 51.661,7.528 C51.164,7.353 50.679,7.195 50.202,7.052 C49.726,6.91 49.303,6.754 48.932,6.583 C48.563,6.41 48.263,6.208 48.036,5.971 C47.807,5.735 47.694,5.438 47.694,5.08 C47.694,4.518 47.882,4.073 48.261,3.743 C48.639,3.414 49.215,3.248 49.989,3.248 C50.436,3.248 50.835,3.307 51.186,3.425 C51.535,3.543 51.847,3.675 52.12,3.822 C52.393,3.97 52.637,4.102 52.852,4.22 C53.068,4.337 53.269,4.396 53.457,4.396 C53.668,4.396 53.841,4.347 53.976,4.25 C54.109,4.152 54.239,4.006 54.361,3.81 L55.386,1.892 Z M81.778,5.508 C81.334,4.401 80.711,3.44 79.905,2.625 C79.099,1.812 78.128,1.171 76.992,0.703 C75.857,0.235 74.597,-1.42108547e-14 73.214,-1.42108547e-14 C71.829,-1.42108547e-14 70.568,0.233 69.428,0.697 C68.288,1.16 67.314,1.799 66.504,2.614 C65.693,3.428 65.067,4.388 64.623,5.495 C64.179,6.603 63.958,7.799 63.958,9.085 C63.958,10.371 64.179,11.567 64.623,12.675 C65.067,13.783 65.693,14.745 66.504,15.562 C67.314,16.381 68.288,17.022 69.428,17.486 C70.568,17.95 71.829,18.181 73.214,18.181 C74.597,18.181 75.857,17.95 76.992,17.486 C78.128,17.022 79.099,16.381 79.905,15.562 C80.711,14.745 81.334,13.783 81.778,12.675 C82.222,11.567 82.445,10.371 82.445,9.085 C82.445,7.807 82.222,6.614 81.778,5.508 L81.778,5.508 Z M77.878,11.473 C77.65,12.176 77.322,12.773 76.894,13.261 C76.467,13.749 75.945,14.122 75.325,14.379 C74.706,14.634 74.002,14.762 73.214,14.762 C72.415,14.762 71.705,14.634 71.082,14.379 C70.46,14.122 69.934,13.749 69.507,13.261 C69.079,12.773 68.752,12.176 68.525,11.473 C68.296,10.769 68.183,9.973 68.183,9.085 C68.183,8.206 68.296,7.414 68.525,6.711 C68.752,6.007 69.079,5.409 69.507,4.921 C69.934,4.432 70.46,4.059 71.082,3.797 C71.705,3.537 72.415,3.406 73.214,3.406 C74.002,3.406 74.706,3.537 75.325,3.797 C75.945,4.059 76.467,4.432 76.894,4.921 C77.322,5.409 77.65,6.007 77.878,6.711 C78.105,7.414 78.22,8.206 78.22,9.085 C78.22,9.973 78.105,10.769 77.878,11.473 L77.878,11.473 Z M97.543,14.452 C97.106,14.268 96.738,14.004 96.437,13.658 C96.136,13.311 95.907,12.893 95.747,12.401 C95.589,11.908 95.509,11.348 95.509,10.721 L95.509,0.196 L91.381,0.196 L91.381,10.734 C91.381,11.825 91.557,12.826 91.907,13.738 C92.256,14.649 92.762,15.435 93.421,16.094 C94.081,16.753 94.882,17.266 95.826,17.632 C96.771,17.999 97.837,18.181 99.025,18.181 C100.206,18.181 101.268,17.999 102.213,17.632 C103.157,17.266 103.958,16.753 104.618,16.094 C105.277,15.435 105.784,14.649 106.139,13.738 C106.492,12.826 106.669,11.825 106.669,10.734 L106.669,0.196 L102.542,0.196 L102.542,10.734 C102.542,11.361 102.463,11.919 102.305,12.412 C102.145,12.905 101.916,13.323 101.614,13.663 C101.314,14.007 100.944,14.268 100.509,14.452 C100.074,14.634 99.58,14.726 99.025,14.726 C98.472,14.726 97.978,14.634 97.543,14.452 L97.543,14.452 Z M121.737,11.405 C122.054,11.405 122.301,11.454 122.477,11.552 C122.65,11.649 122.804,11.812 122.933,12.04 L125.888,17.204 C126.19,17.726 126.687,17.986 127.378,17.986 L131.114,17.986 L127.329,11.796 C127.151,11.503 126.941,11.254 126.701,11.05 C126.46,10.848 126.201,10.677 125.926,10.537 C126.503,10.318 127.015,10.037 127.458,9.696 C127.901,9.354 128.276,8.964 128.582,8.529 C128.886,8.094 129.116,7.62 129.271,7.107 C129.425,6.594 129.503,6.048 129.503,5.471 C129.503,4.714 129.373,4.014 129.112,3.371 C128.852,2.727 128.435,2.17 127.861,1.697 C127.287,1.226 126.546,0.857 125.638,0.592 C124.73,0.328 123.634,0.196 122.347,0.196 L116.559,0.196 L116.559,17.986 L120.687,17.986 L120.687,11.405 L121.737,11.405 Z M120.687,3.286 L122.347,3.286 C123.415,3.286 124.202,3.504 124.71,3.944 C125.219,4.383 125.473,4.995 125.473,5.775 C125.473,6.167 125.417,6.531 125.302,6.869 C125.189,7.206 125.005,7.502 124.753,7.753 C124.501,8.006 124.177,8.204 123.782,8.347 C123.387,8.489 122.909,8.561 122.347,8.561 L120.687,8.561 L120.687,3.286 Z M150.993,13.462 C150.88,13.515 150.773,13.583 150.676,13.663 C150.431,13.876 150.19,14.053 149.95,14.195 C149.709,14.337 149.457,14.453 149.193,14.542 C148.927,14.633 148.641,14.696 148.331,14.732 C148.022,14.769 147.68,14.787 147.305,14.787 C146.655,14.787 146.044,14.662 145.474,14.409 C144.905,14.156 144.407,13.788 143.978,13.304 C143.552,12.82 143.213,12.222 142.966,11.514 C142.717,10.806 142.592,9.997 142.592,9.085 C142.592,8.215 142.717,7.429 142.966,6.728 C143.213,6.028 143.559,5.432 144.003,4.939 C144.447,4.447 144.978,4.069 145.596,3.804 C146.215,3.54 146.899,3.406 147.647,3.406 C148.08,3.406 148.456,3.44 148.778,3.504 C149.098,3.57 149.38,3.649 149.62,3.743 C149.86,3.836 150.068,3.938 150.243,4.049 C150.417,4.158 150.578,4.26 150.724,4.353 C150.871,4.447 151.01,4.527 151.14,4.592 C151.27,4.656 151.408,4.689 151.555,4.689 C151.775,4.689 151.945,4.642 152.068,4.549 C152.19,4.455 152.296,4.352 152.385,4.237 L153.777,2.369 C153.444,2.019 153.062,1.7 152.629,1.411 C152.198,1.122 151.726,0.874 151.213,0.666 C150.7,0.459 150.148,0.295 149.559,0.177 C148.969,0.059 148.34,-1.42108547e-14 147.672,-1.42108547e-14 C146.297,-1.42108547e-14 145.039,0.225 143.899,0.673 C142.759,1.12 141.781,1.746 140.963,2.552 C140.144,3.358 139.508,4.317 139.051,5.428 C138.596,6.54 138.367,7.758 138.367,9.085 C138.367,10.388 138.567,11.595 138.966,12.705 C139.364,13.817 139.938,14.777 140.682,15.587 C141.427,16.397 142.334,17.032 143.405,17.492 C144.476,17.951 145.687,18.181 147.037,18.181 C148.511,18.181 149.786,17.944 150.865,17.467 C151.944,16.992 152.842,16.285 153.557,15.348 L151.921,13.627 C151.832,13.538 151.739,13.475 151.641,13.438 C151.543,13.402 151.446,13.383 151.348,13.383 C151.226,13.383 151.108,13.409 150.993,13.462 L150.993,13.462 Z M162.642,0.196 L162.642,17.986 L174.095,17.986 L174.095,14.811 L166.793,14.811 L166.793,10.575 L172.386,10.575 L172.386,7.522 L166.793,7.522 L166.793,3.371 L174.095,3.371 L174.095,0.196 L162.642,0.196 Z M194.584,1.892 C194.267,1.599 193.906,1.338 193.504,1.105 C193.1,0.874 192.668,0.674 192.204,0.508 C191.74,0.341 191.249,0.215 190.732,0.128 C190.215,0.044 189.684,-1.42108547e-14 189.139,-1.42108547e-14 C188.162,-1.42108547e-14 187.295,0.148 186.538,0.446 C185.781,0.743 185.142,1.14 184.621,1.637 C184.099,2.134 183.706,2.698 183.437,3.335 C183.168,3.97 183.033,4.62 183.033,5.288 C183.033,6.117 183.147,6.815 183.375,7.381 C183.604,7.947 183.902,8.42 184.273,8.798 C184.644,9.177 185.065,9.482 185.537,9.714 C186.008,9.946 186.492,10.141 186.989,10.3 C187.487,10.458 187.971,10.603 188.443,10.734 C188.914,10.863 189.335,11.014 189.706,11.185 C190.077,11.356 190.375,11.572 190.604,11.833 C190.832,12.093 190.946,12.431 190.946,12.846 C190.946,13.563 190.739,14.086 190.324,14.415 C189.909,14.745 189.325,14.909 188.577,14.909 C188.024,14.909 187.543,14.833 187.136,14.677 C186.729,14.522 186.369,14.351 186.056,14.165 C185.743,13.978 185.461,13.807 185.213,13.652 C184.964,13.497 184.718,13.419 184.474,13.419 C184.287,13.419 184.112,13.465 183.95,13.554 C183.786,13.643 183.66,13.762 183.571,13.907 L182.35,15.837 C182.7,16.187 183.111,16.505 183.583,16.789 C184.055,17.075 184.56,17.321 185.098,17.529 C185.635,17.736 186.189,17.897 186.764,18.01 C187.337,18.125 187.902,18.181 188.455,18.181 C189.465,18.181 190.365,18.029 191.16,17.724 C191.953,17.418 192.621,16.999 193.162,16.466 C193.704,15.933 194.116,15.308 194.402,14.593 C194.686,13.876 194.829,13.106 194.829,12.284 C194.829,11.543 194.715,10.911 194.487,10.385 C194.258,9.861 193.96,9.415 193.589,9.048 C193.218,8.681 192.796,8.381 192.319,8.144 C191.844,7.909 191.357,7.703 190.861,7.528 C190.364,7.353 189.877,7.195 189.401,7.052 C188.925,6.91 188.502,6.754 188.132,6.583 C187.761,6.41 187.462,6.208 187.234,5.971 C187.005,5.735 186.892,5.438 186.892,5.08 C186.892,4.518 187.081,4.073 187.459,3.743 C187.838,3.414 188.415,3.248 189.187,3.248 C189.636,3.248 190.034,3.307 190.384,3.425 C190.735,3.543 191.045,3.675 191.318,3.822 C191.591,3.97 191.835,4.102 192.05,4.22 C192.266,4.337 192.468,4.396 192.655,4.396 C192.866,4.396 193.04,4.347 193.174,4.25 C193.309,4.152 193.437,4.006 193.559,3.81 L194.584,1.892 L194.584,1.892 Z" mask="url(#ffr-logo-stacked-rgb-b)"/>
    </g>
    <path fill="#193345" d="M11.89,188.433 C12.406,188.433 12.847,188.506 13.213,188.652 C13.578,188.797 13.883,188.989 14.124,189.232 C14.367,189.473 14.552,189.759 14.681,190.087 C14.811,190.416 14.897,190.768 14.94,191.144 L15.101,192.563 L16.81,192.563 L16.649,186.787 L0,186.787 L0,188.175 L0.419,188.175 C0.786,188.175 1.132,188.199 1.461,188.248 C1.788,188.297 2.076,188.402 2.323,188.563 C2.57,188.723 2.767,188.952 2.912,189.248 C3.057,189.544 3.13,189.933 3.13,190.417 L3.13,206.776 C3.13,207.26 3.057,207.65 2.912,207.946 C2.767,208.241 2.57,208.466 2.323,208.615 C2.076,208.766 1.788,208.865 1.461,208.914 C1.132,208.963 0.786,208.987 0.419,208.987 L0,208.987 L0,210.373 L10.277,210.373 L10.277,208.987 L9.179,208.987 C8.815,208.987 8.464,208.96 8.131,208.905 C7.797,208.852 7.51,208.741 7.267,208.575 C7.026,208.408 6.832,208.17 6.687,207.857 C6.542,207.545 6.47,207.131 6.47,206.615 L6.47,199.596 L14.438,199.596 L14.438,197.983 L6.47,197.983 L6.47,188.433 L11.89,188.433 Z M33.73,210.373 L33.73,208.987 L33.294,208.987 C32.928,208.987 32.579,208.96 32.246,208.905 C31.912,208.852 31.624,208.741 31.382,208.575 C31.14,208.408 30.947,208.17 30.802,207.857 C30.657,207.545 30.584,207.131 30.584,206.615 L30.584,190.546 C30.584,190.031 30.657,189.617 30.802,189.304 C30.947,188.992 31.14,188.754 31.382,188.587 C31.624,188.42 31.912,188.31 32.246,188.255 C32.579,188.202 32.928,188.175 33.294,188.175 L33.73,188.175 L33.73,186.787 L24.115,186.787 L24.115,188.175 L24.534,188.175 C24.911,188.175 25.263,188.202 25.59,188.255 C25.918,188.31 26.207,188.42 26.454,188.587 C26.701,188.754 26.895,188.992 27.034,189.304 C27.173,189.617 27.244,190.031 27.244,190.546 L27.244,206.615 C27.244,207.131 27.173,207.545 27.034,207.857 C26.895,208.17 26.701,208.408 26.454,208.575 C26.207,208.741 25.918,208.852 25.59,208.905 C25.263,208.96 24.911,208.987 24.534,208.987 L24.115,208.987 L24.115,210.373 L33.73,210.373 Z M53.391,199.177 C53.972,198.984 54.552,198.726 55.134,198.403 C55.714,198.081 56.236,197.677 56.698,197.193 C57.161,196.709 57.534,196.137 57.819,195.475 C58.105,194.814 58.247,194.043 58.247,193.161 C58.247,191.03 57.547,189.436 56.149,188.377 C54.752,187.317 52.621,186.787 49.761,186.787 L40.872,186.787 L40.872,188.175 L41.292,188.175 C41.656,188.175 42.004,188.199 42.332,188.248 C42.66,188.297 42.948,188.402 43.195,188.563 C43.442,188.723 43.639,188.952 43.784,189.248 C43.929,189.544 44.002,189.933 44.002,190.417 L44.002,206.776 C44.002,207.26 43.929,207.65 43.784,207.946 C43.639,208.241 43.442,208.466 43.195,208.615 C42.948,208.766 42.66,208.865 42.332,208.914 C42.004,208.963 41.656,208.987 41.292,208.987 L40.872,208.987 L40.872,210.373 L50.487,210.373 L50.487,208.987 L50.051,208.987 C49.685,208.987 49.339,208.963 49.011,208.914 C48.683,208.865 48.395,208.766 48.148,208.615 C47.899,208.466 47.704,208.241 47.559,207.946 C47.414,207.65 47.341,207.26 47.341,206.776 L47.341,199.969 L50.083,199.969 L54.552,207.405 C54.928,208.029 55.28,208.535 55.609,208.922 C55.937,209.309 56.332,209.61 56.794,209.826 C57.257,210.04 57.819,210.187 58.481,210.261 C59.142,210.336 59.989,210.373 61.022,210.373 L61.489,210.373 L61.489,208.987 L61.393,208.987 C60.693,208.987 60.08,208.766 59.554,208.325 C59.027,207.884 58.484,207.223 57.924,206.341 L53.391,199.177 Z M47.341,188.369 L49.583,188.369 C50.52,188.369 51.313,188.458 51.964,188.634 C52.614,188.812 53.143,189.097 53.552,189.491 C53.96,189.883 54.256,190.388 54.44,191.006 C54.622,191.625 54.714,192.375 54.714,193.257 C54.714,194.118 54.631,194.87 54.465,195.515 C54.296,196.16 54.021,196.699 53.633,197.129 C53.246,197.559 52.729,197.881 52.084,198.097 C51.439,198.312 50.632,198.42 49.664,198.42 L47.341,198.42 L47.341,188.369 Z M77.424,210.253 C78.424,209.957 79.279,209.524 79.99,208.954 C80.7,208.384 81.246,207.688 81.628,206.865 C82.008,206.042 82.199,205.11 82.199,204.065 C82.199,203.217 82.06,202.455 81.78,201.783 C81.5,201.111 81.098,200.503 80.571,199.96 C80.043,199.417 79.401,198.926 78.643,198.485 C77.884,198.044 77.021,197.624 76.053,197.226 C75.096,196.838 74.289,196.465 73.633,196.104 C72.977,195.744 72.447,195.362 72.045,194.959 C71.641,194.556 71.352,194.105 71.181,193.603 C71.009,193.103 70.923,192.526 70.923,191.869 C70.923,191.299 71.015,190.783 71.197,190.321 C71.38,189.858 71.644,189.463 71.987,189.136 C72.332,188.807 72.754,188.554 73.254,188.377 C73.754,188.199 74.322,188.11 74.956,188.11 C75.655,188.11 76.241,188.235 76.715,188.482 C77.187,188.729 77.57,189.049 77.86,189.442 C78.15,189.834 78.357,190.281 78.482,190.781 C78.605,191.28 78.667,191.789 78.667,192.305 C79.463,192.305 80.095,192.125 80.562,191.765 C81.03,191.404 81.264,190.87 81.264,190.16 C81.264,189.676 81.126,189.21 80.852,188.764 C80.579,188.318 80.178,187.922 79.651,187.578 C79.124,187.234 78.479,186.959 77.715,186.755 C76.95,186.551 76.074,186.449 75.086,186.449 C74.041,186.449 73.079,186.583 72.197,186.852 C71.315,187.122 70.552,187.511 69.907,188.022 C69.261,188.532 68.758,189.159 68.399,189.901 C68.038,190.644 67.857,191.487 67.857,192.434 C67.857,193.338 67.981,194.149 68.229,194.87 C68.476,195.591 68.853,196.244 69.358,196.83 C69.864,197.417 70.498,197.949 71.262,198.427 C72.025,198.907 72.918,199.355 73.939,199.775 C74.908,200.173 75.716,200.552 76.367,200.912 C77.018,201.273 77.542,201.649 77.94,202.041 C78.338,202.434 78.624,202.862 78.796,203.324 C78.967,203.787 79.053,204.318 79.053,204.922 C79.053,206.266 78.637,207.295 77.804,208.01 C76.971,208.726 75.811,209.083 74.327,209.083 C73.553,209.083 72.891,208.938 72.342,208.648 C71.795,208.358 71.342,207.97 70.987,207.486 C70.633,207.002 70.367,206.443 70.189,205.808 C70.012,205.174 69.907,204.512 69.874,203.824 C69.11,203.824 68.522,204.028 68.107,204.438 C67.693,204.846 67.487,205.384 67.487,206.051 C67.487,206.739 67.626,207.371 67.906,207.946 C68.186,208.522 68.603,209.01 69.156,209.414 C69.71,209.817 70.398,210.132 71.222,210.357 C72.045,210.583 72.993,210.697 74.069,210.697 C75.306,210.697 76.425,210.549 77.424,210.253 L77.424,210.253 Z M99.603,188.433 L102.814,188.433 C103.308,188.433 103.722,188.506 104.055,188.652 C104.388,188.797 104.658,188.992 104.862,189.241 C105.066,189.488 105.223,189.775 105.33,190.102 C105.437,190.431 105.513,190.778 105.556,191.144 L105.717,192.563 L107.426,192.563 L107.265,186.787 L88.664,186.787 L88.503,192.563 L90.214,192.563 L90.391,191.144 C90.434,190.778 90.505,190.431 90.609,190.102 C90.711,189.775 90.866,189.488 91.076,189.241 C91.285,188.992 91.554,188.797 91.883,188.652 C92.211,188.506 92.617,188.433 93.101,188.433 L96.263,188.433 L96.263,206.776 C96.263,207.26 96.19,207.65 96.045,207.946 C95.9,208.241 95.704,208.466 95.456,208.615 C95.209,208.766 94.921,208.865 94.594,208.914 C94.265,208.963 93.919,208.987 93.552,208.987 L92.794,208.987 L92.794,210.373 L103.071,210.373 L103.071,208.987 L102.312,208.987 C101.947,208.987 101.597,208.96 101.264,208.905 C100.93,208.852 100.643,208.741 100.402,208.575 C100.159,208.408 99.965,208.17 99.82,207.857 C99.675,207.545 99.603,207.131 99.603,206.615 L99.603,188.433 Z M142.044,188.433 C142.561,188.433 143.002,188.506 143.367,188.652 C143.733,188.797 144.036,188.989 144.279,189.232 C144.52,189.473 144.706,189.759 144.835,190.087 C144.964,190.416 145.05,190.768 145.094,191.144 L145.254,192.563 L146.965,192.563 L146.803,186.787 L130.155,186.787 L130.155,188.175 L130.575,188.175 C130.939,188.175 131.286,188.199 131.615,188.248 C131.942,188.297 132.229,188.402 132.478,188.563 C132.725,188.723 132.922,188.952 133.067,189.248 C133.212,189.544 133.284,189.933 133.284,190.417 L133.284,206.776 C133.284,207.26 133.212,207.65 133.067,207.946 C132.922,208.241 132.725,208.466 132.478,208.615 C132.229,208.766 131.942,208.865 131.615,208.914 C131.286,208.963 130.939,208.987 130.575,208.987 L130.155,208.987 L130.155,210.373 L140.431,210.373 L140.431,208.987 L139.334,208.987 C138.968,208.987 138.619,208.96 138.286,208.905 C137.953,208.852 137.664,208.741 137.422,208.575 C137.18,208.408 136.987,208.17 136.842,207.857 C136.696,207.545 136.624,207.131 136.624,206.615 L136.624,199.596 L144.594,199.596 L144.594,197.983 L136.624,197.983 L136.624,188.433 L142.044,188.433 Z M163.883,210.373 L163.883,208.987 L163.448,208.987 C163.082,208.987 162.733,208.96 162.399,208.905 C162.066,208.852 161.779,208.741 161.536,208.575 C161.295,208.408 161.101,208.17 160.956,207.857 C160.811,207.545 160.737,207.131 160.737,206.615 L160.737,190.546 C160.737,190.031 160.811,189.617 160.956,189.304 C161.101,188.992 161.295,188.754 161.536,188.587 C161.779,188.42 162.066,188.31 162.399,188.255 C162.733,188.202 163.082,188.175 163.448,188.175 L163.883,188.175 L163.883,186.787 L154.269,186.787 L154.269,188.175 L154.688,188.175 C155.064,188.175 155.416,188.202 155.745,188.255 C156.073,188.31 156.36,188.42 156.607,188.587 C156.854,188.754 157.048,188.992 157.189,189.304 C157.328,189.617 157.399,190.031 157.399,190.546 L157.399,206.615 C157.399,207.131 157.328,207.545 157.189,207.857 C157.048,208.17 156.854,208.408 156.607,208.575 C156.36,208.741 156.073,208.852 155.745,208.905 C155.416,208.96 155.064,208.987 154.688,208.987 L154.269,208.987 L154.269,210.373 L163.883,210.373 Z M190.917,210.373 L190.917,190.546 C190.917,190.031 190.988,189.617 191.127,189.304 C191.268,188.992 191.46,188.754 191.709,188.587 C191.956,188.42 192.243,188.31 192.572,188.255 C192.9,188.202 193.252,188.175 193.628,188.175 L194.048,188.175 L194.048,186.787 L185.756,186.787 L185.756,188.175 L186.191,188.175 C186.556,188.175 186.904,188.199 187.231,188.248 C187.56,188.297 187.847,188.402 188.095,188.563 C188.342,188.723 188.538,188.952 188.684,189.248 C188.829,189.544 188.902,189.933 188.902,190.417 L188.902,205.05 L177.076,186.787 L171.026,186.787 L171.026,188.175 L171.445,188.175 C171.811,188.175 172.158,188.199 172.487,188.248 C172.814,188.297 173.102,188.402 173.349,188.563 C173.597,188.723 173.792,188.952 173.938,189.248 C174.083,189.544 174.156,189.933 174.156,190.417 L174.156,206.615 C174.156,207.131 174.086,207.545 173.946,207.857 C173.807,208.17 173.613,208.408 173.366,208.575 C173.117,208.741 172.83,208.852 172.502,208.905 C172.174,208.96 171.822,208.987 171.445,208.987 L171.026,208.987 L171.026,210.373 L179.319,210.373 L179.319,208.987 L178.882,208.987 C178.517,208.987 178.167,208.96 177.835,208.905 C177.5,208.852 177.213,208.741 176.971,208.575 C176.729,208.408 176.535,208.17 176.39,207.857 C176.245,207.545 176.173,207.131 176.173,206.615 L176.173,191.336 L188.563,210.373 L190.917,210.373 Z M214.968,202.485 L216.291,206.18 C216.377,206.427 216.443,206.647 216.492,206.841 C216.541,207.035 216.565,207.223 216.565,207.405 C216.565,208.46 215.903,208.987 214.58,208.987 L213.823,208.987 L213.823,210.373 L222.904,210.373 L222.904,208.987 L222.469,208.987 C222.146,208.987 221.867,208.96 221.63,208.905 C221.393,208.852 221.184,208.759 221.001,208.624 C220.819,208.489 220.659,208.309 220.526,208.083 C220.391,207.857 220.258,207.572 220.131,207.227 L212.661,186.787 L210.079,186.787 L202.754,206.406 C202.55,206.933 202.365,207.362 202.198,207.696 C202.032,208.029 201.856,208.293 201.674,208.486 C201.492,208.68 201.286,208.812 201.061,208.882 C200.835,208.951 200.561,208.987 200.238,208.987 L199.608,208.987 L199.608,210.373 L207.676,210.373 L207.676,208.987 L206.917,208.987 C206.175,208.987 205.624,208.858 205.264,208.599 C204.903,208.341 204.724,207.933 204.724,207.374 C204.724,207.19 204.75,206.973 204.804,206.72 C204.857,206.467 204.934,206.212 205.03,205.953 L206.288,202.485 L214.968,202.485 Z M214.37,200.823 L206.917,200.823 L209.16,194.741 C209.354,194.225 209.525,193.754 209.675,193.329 C209.826,192.905 209.961,192.499 210.079,192.112 C210.197,191.724 210.308,191.345 210.41,190.974 C210.512,190.602 210.601,190.219 210.677,189.821 C210.859,190.617 211.093,191.441 211.378,192.297 C211.662,193.152 211.977,194.069 212.322,195.047 L214.37,200.823 Z M248.68,210.373 L248.68,190.546 C248.68,190.031 248.75,189.617 248.89,189.304 C249.031,188.992 249.223,188.754 249.472,188.587 C249.719,188.42 250.006,188.31 250.335,188.255 C250.662,188.202 251.014,188.175 251.391,188.175 L251.81,188.175 L251.81,186.787 L243.519,186.787 L243.519,188.175 L243.954,188.175 C244.319,188.175 244.666,188.199 244.994,188.248 C245.323,188.297 245.61,188.402 245.857,188.563 C246.104,188.723 246.301,188.952 246.446,189.248 C246.591,189.544 246.665,189.933 246.665,190.417 L246.665,205.05 L234.839,186.787 L228.788,186.787 L228.788,188.175 L229.208,188.175 C229.574,188.175 229.92,188.199 230.249,188.248 C230.577,188.297 230.864,188.402 231.111,188.563 C231.36,188.723 231.555,188.952 231.7,189.248 C231.845,189.544 231.919,189.933 231.919,190.417 L231.919,206.615 C231.919,207.131 231.848,207.545 231.709,207.857 C231.57,208.17 231.376,208.408 231.129,208.575 C230.88,208.741 230.593,208.852 230.265,208.905 C229.936,208.96 229.584,208.987 229.208,208.987 L228.788,208.987 L228.788,210.373 L237.082,210.373 L237.082,208.987 L236.645,208.987 C236.28,208.987 235.931,208.96 235.598,208.905 C235.263,208.852 234.976,208.741 234.734,208.575 C234.491,208.408 234.298,208.17 234.152,207.857 C234.007,207.545 233.936,207.131 233.936,206.615 L233.936,191.336 L246.326,210.373 L248.68,210.373 Z M265.26,187.336 C263.937,187.928 262.833,188.756 261.945,189.821 C261.059,190.885 260.389,192.16 259.937,193.644 C259.486,195.129 259.259,196.764 259.259,198.549 C259.259,200.366 259.474,202.023 259.905,203.517 C260.335,205.012 260.972,206.292 261.817,207.357 C262.66,208.422 263.706,209.244 264.954,209.826 C266.201,210.406 267.648,210.697 269.294,210.697 C270.52,210.697 271.58,210.58 272.472,210.35 C273.365,210.119 274.102,209.826 274.683,209.471 C275.263,209.115 275.695,208.72 275.981,208.285 C276.266,207.849 276.408,207.421 276.408,207.002 C276.408,206.668 276.349,206.4 276.231,206.196 C276.112,205.992 275.963,205.83 275.779,205.712 C275.5,206.077 275.18,206.43 274.819,206.768 C274.459,207.107 274.042,207.405 273.569,207.664 C273.095,207.921 272.549,208.129 271.932,208.285 C271.313,208.441 270.601,208.519 269.794,208.519 C268.579,208.519 267.537,208.276 266.673,207.793 C265.806,207.309 265.094,206.628 264.535,205.752 C263.975,204.876 263.567,203.824 263.308,202.597 C263.051,201.372 262.922,200.022 262.922,198.549 C262.922,196.893 263.045,195.422 263.292,194.136 C263.539,192.851 263.937,191.77 264.486,190.894 C265.035,190.018 265.745,189.35 266.617,188.893 C267.487,188.436 268.546,188.208 269.794,188.208 C270.514,188.208 271.12,188.334 271.608,188.587 C272.098,188.84 272.496,189.167 272.802,189.571 C273.11,189.975 273.329,190.429 273.464,190.934 C273.598,191.44 273.666,191.95 273.666,192.467 C274.075,192.467 274.454,192.412 274.803,192.305 C275.152,192.198 275.457,192.045 275.716,191.845 C275.973,191.647 276.175,191.404 276.32,191.12 C276.465,190.835 276.537,190.515 276.537,190.16 C276.537,189.633 276.401,189.143 276.126,188.692 C275.852,188.239 275.438,187.847 274.884,187.514 C274.329,187.181 273.637,186.919 272.802,186.731 C271.969,186.543 270.988,186.449 269.859,186.449 C268.116,186.449 266.583,186.745 265.26,187.336 L265.26,187.336 Z M293.151,210.373 L293.151,208.987 L292.714,208.987 C292.349,208.987 291.999,208.96 291.665,208.905 C291.332,208.852 291.045,208.741 290.803,208.575 C290.561,208.408 290.367,208.17 290.222,207.857 C290.076,207.545 290.005,207.131 290.005,206.615 L290.005,190.546 C290.005,190.031 290.076,189.617 290.222,189.304 C290.367,188.992 290.561,188.754 290.803,188.587 C291.045,188.42 291.332,188.31 291.665,188.255 C291.999,188.202 292.349,188.175 292.714,188.175 L293.151,188.175 L293.151,186.787 L283.535,186.787 L283.535,188.175 L283.954,188.175 C284.33,188.175 284.682,188.202 285.011,188.255 C285.339,188.31 285.626,188.42 285.875,188.587 C286.122,188.754 286.316,188.992 286.455,189.304 C286.594,189.617 286.665,190.031 286.665,190.546 L286.665,206.615 C286.665,207.131 286.594,207.545 286.455,207.857 C286.316,208.17 286.122,208.408 285.875,208.575 C285.626,208.741 285.339,208.852 285.011,208.905 C284.682,208.96 284.33,208.987 283.954,208.987 L283.535,208.987 L283.535,210.373 L293.151,210.373 Z M314.393,202.485 L315.716,206.18 C315.802,206.427 315.869,206.647 315.917,206.841 C315.966,207.035 315.99,207.223 315.99,207.405 C315.99,208.46 315.328,208.987 314.005,208.987 L313.248,208.987 L313.248,210.373 L322.329,210.373 L322.329,208.987 L321.894,208.987 C321.571,208.987 321.292,208.96 321.055,208.905 C320.818,208.852 320.608,208.759 320.426,208.624 C320.243,208.489 320.084,208.309 319.95,208.083 C319.815,207.857 319.685,207.572 319.555,207.227 L312.085,186.787 L309.504,186.787 L302.179,206.406 C301.975,206.933 301.79,207.362 301.623,207.696 C301.457,208.029 301.281,208.293 301.099,208.486 C300.917,208.68 300.711,208.812 300.486,208.882 C300.26,208.951 299.986,208.987 299.664,208.987 L299.035,208.987 L299.035,210.373 L307.101,210.373 L307.101,208.987 L306.342,208.987 C305.6,208.987 305.049,208.858 304.689,208.599 C304.328,208.341 304.149,207.933 304.149,207.374 C304.149,207.19 304.175,206.973 304.229,206.72 C304.282,206.467 304.358,206.212 304.455,205.953 L305.713,202.485 L314.393,202.485 Z M313.795,200.823 L306.342,200.823 L308.585,194.741 C308.779,194.225 308.95,193.754 309.1,193.329 C309.251,192.905 309.386,192.499 309.504,192.112 C309.622,191.724 309.732,191.345 309.834,190.974 C309.936,190.602 310.026,190.219 310.102,189.821 C310.284,190.617 310.518,191.441 310.803,192.297 C311.087,193.152 311.402,194.069 311.746,195.047 L313.795,200.823 Z M345.927,210.373 L346.154,203.275 L344.427,203.275 L344.104,205.743 C344.061,206.098 343.978,206.453 343.854,206.809 C343.731,207.164 343.556,207.483 343.33,207.769 C343.104,208.053 342.817,208.285 342.467,208.463 C342.118,208.639 341.695,208.728 341.201,208.728 L334.683,208.728 L334.683,190.417 C334.683,189.933 334.755,189.544 334.9,189.248 C335.046,188.952 335.242,188.723 335.489,188.563 C335.736,188.402 336.025,188.297 336.353,188.248 C336.68,188.199 337.028,188.175 337.393,188.175 L337.829,188.175 L337.829,186.787 L328.213,186.787 L328.213,188.175 L328.633,188.175 C329.009,188.175 329.361,188.202 329.69,188.255 C330.018,188.31 330.305,188.42 330.553,188.587 C330.801,188.754 330.994,188.992 331.134,189.304 C331.273,189.617 331.344,190.031 331.344,190.546 L331.344,206.615 C331.344,207.131 331.273,207.545 331.134,207.857 C330.994,208.17 330.801,208.408 330.553,208.575 C330.305,208.741 330.018,208.852 329.69,208.905 C329.361,208.96 329.009,208.987 328.633,208.987 L328.213,208.987 L328.213,210.373 L345.927,210.373 L345.927,210.373 Z"/>
    <polyline fill="#2D6891" points="134.075 0 134.075 164.182 166.767 164.182 166.767 96.832 184.781 96.832 184.781 66.899 166.767 66.899 166.767 31.522 184.781 31.522 184.781 0 134.075 0"/>
    <polyline fill="#193345" points="72.53 0 72.53 164.182 105.222 164.182 105.222 96.832 123.235 96.832 123.235 66.899 105.222 66.899 105.222 31.522 123.235 31.522 123.235 0 72.53 0"/>
    <path fill="#193345" d="M246.282,48.419 C246.282,21.681 223.6,0.005 195.62,0.005 L195.62,32.05 C205.534,32.05 213.571,39.731 213.571,49.205 C213.571,58.679 205.534,66.36 195.62,66.36 L195.62,96.832 L239.048,164.182 L273.753,164.182 L225.701,87.309 C238.166,78.49 246.282,64.378 246.282,48.419"/>
  </g>
</svg>
