<svg xmlns="http://www.w3.org/2000/svg" width="64" height="52" viewBox="0 0 64 52"><g fill="none" fill-rule="evenodd"><polyline fill="#A0A0A0" points="20 0 20 52 30.316 52 30.316 30.669 36 30.669 36 21.188 30.316 21.188 30.316 9.984 36 9.984 36 0 20 0"/><polyline fill="#5E5E5E" points="0 0 0 52 10.316 52 10.316 30.669 16 30.669 16 21.188 10.316 21.188 10.316 9.984 16 9.984 16 0 0 0"/><path fill="#5E5E5E" d="M55.2101801,15.3342307 C55.2101801,6.86546837 47.9526832,0 39,0 L39,10.1496556 C42.1721552,10.1496556 44.7437318,12.5824689 44.7437318,15.5831816 C44.7437318,18.5838942 42.1721552,21.0167076 39,21.0167076 L39,30.6681447 L52.8955371,52 L64,52 L48.6249344,27.6519123 C52.613326,24.8586586 55.2101801,20.3889461 55.2101801,15.3342307"/></g></svg>