<?xml version="1.0" encoding="UTF-8"?>
<svg width="44px" height="46px" viewBox="0 0 44 46" version="1.1" xmlns="http://www.w3.org/2000/svg" xmlns:xlink="http://www.w3.org/1999/xlink">
    <title>file-history copy</title>
    <g id="Pacific-Life---ACC-UW" stroke="none" stroke-width="1" fill="none" fill-rule="evenodd">
        <g id="Illustration-Convert" transform="translate(-256.000000, -343.000000)" fill-rule="nonzero">
            <g id="file-history-copy" transform="translate(256.000000, 343.000000)">
                <path d="M36,46 L2,46 C0.895,46 0,45.105 0,44 L0,2 C0,0.895 0.895,0 2,0 L26,0 L38,12 L38,44 C38,45.105 37.105,46 36,46 Z" id="Path" class="pf-svg-primary-path"></path>
                <path d="M26,0 L26,10 C26,11.105 26.895,12 28,12 L38,12 L26,0 Z" id="Path" fill="#fff"></path>
                <circle id="Oval" fill="#FFFFFF" cx="33" cy="29" r="10"></circle>
                <path d="M33,40 C26.935,40 22,35.065 22,29 C22,22.935 26.935,18 33,18 C39.065,18 44,22.935 44,29 C44,35.065 39.065,40 33,40 Z M33,20 C28.037,20 24,24.037 24,29 C24,33.963 28.037,38 33,38 C37.963,38 42,33.963 42,29 C42,24.037 37.963,20 33,20 Z" id="Shape" class="pf-svg-primary-path" ></path>
                <path d="M37,30 L33,30 C32.447,30 32,29.553 32,29 L32,25 C32,24.447 32.447,24 33,24 C33.553,24 34,24.447 34,25 L34,28 L37,28 C37.553,28 38,28.447 38,29 C38,29.553 37.553,30 37,30 Z" id="Path" fill="#444444"></path>
            </g>
        </g>
    </g>
</svg>
