<svg width="21" height="20" viewBox="0 0 21 20" fill="none" xmlns="http://www.w3.org/2000/svg">
<path fill-rule="evenodd" clip-rule="evenodd" d="M6.03132 8.8516H19.581L16.4695 16.7067H2.91948L6.03132 8.8516ZM12.4059 7.84024C12.3966 7.76733 12.3575 7.69958 12.2985 7.65409C12.2398 7.6099 12.1688 7.59183 12.0998 7.60183C12.0269 7.61054 11.962 7.64764 11.9165 7.70539C11.8717 7.76346 11.8517 7.8354 11.8607 7.90798L11.9101 8.30221H11.3142L11.2571 7.84024C11.2478 7.76571 11.2104 7.6999 11.151 7.65474C11.0932 7.61022 11.0216 7.59086 10.9507 7.60183C10.8777 7.61054 10.8129 7.64764 10.7681 7.70506C10.7229 7.76313 10.7029 7.83507 10.7123 7.90798L10.761 8.30221H10.1654L10.108 7.84024C10.0987 7.767 10.0593 7.69893 10.0003 7.65377C9.94252 7.6099 9.87283 7.59118 9.80186 7.60183C9.72895 7.61054 9.66379 7.64764 9.61862 7.70539C9.57346 7.76313 9.55378 7.8354 9.56281 7.90798L9.61185 8.30221H9.01632L8.95889 7.84024C8.95018 7.76733 8.91083 7.69958 8.85147 7.65442C8.79308 7.60957 8.72146 7.59118 8.65242 7.60183C8.57951 7.61054 8.51467 7.64764 8.46983 7.70539C8.42466 7.76313 8.40466 7.8354 8.41401 7.90798L8.46273 8.30221H7.8672L7.80978 7.84024C7.80074 7.76733 7.76139 7.69958 7.70203 7.65442C7.64331 7.6099 7.57266 7.59183 7.5033 7.60183C7.43072 7.61054 7.36555 7.64764 7.32039 7.70539C7.27522 7.76313 7.25554 7.8354 7.26458 7.90798L7.31393 8.30221H6.71808L6.66066 7.84024C6.65195 7.76765 6.61259 7.6999 6.55291 7.65442C6.4942 7.61022 6.42419 7.59183 6.35419 7.60183C6.28128 7.61054 6.21643 7.64764 6.17159 7.70539C6.12643 7.76313 6.10642 7.8354 6.11578 7.90798L6.16449 8.30221H5.84479C5.73156 8.30221 5.63123 8.37027 5.58929 8.47544L5.57251 8.5177L5.51251 7.84959C5.50573 7.77571 5.47057 7.70926 5.41315 7.66183C5.35701 7.61538 5.28507 7.59441 5.21442 7.60054C5.14119 7.60731 5.07506 7.64183 5.02828 7.69829C4.98118 7.75442 4.95892 7.8254 4.96537 7.89863L5.11829 9.59843C5.11958 9.6123 5.12603 9.62424 5.12926 9.63714L4.64374 10.8624L4.36339 7.84895C4.34984 7.70248 4.22112 7.58925 4.06434 7.60086C3.99143 7.60764 3.92562 7.64248 3.87852 7.69893C3.83174 7.75539 3.80948 7.82636 3.81658 7.89959L4.19693 11.9902L3.28783 14.2859L2.64843 7.02372H13.2608L13.4925 8.30221H12.4637L12.4059 7.84024ZM1.95462 16.1354L0.972932 4.47193H6.10041L7.55826 5.81816C7.60923 5.86493 7.67537 5.89074 7.74473 5.89074H14.5856L15.0172 8.30221H14.05L13.76 6.70016C13.7361 6.5695 13.6223 6.47466 13.4897 6.47466H2.34755C2.27077 6.47466 2.19689 6.50692 2.14528 6.56369C2.09334 6.62015 2.06721 6.69661 2.07366 6.77339L2.83597 15.4253L2.40175 16.5209L1.95462 16.1354ZM20.2124 8.42222C20.1614 8.34705 20.0762 8.30221 19.9852 8.30221H15.5759L15.0858 5.56781C15.0623 5.43684 14.9487 5.34167 14.8155 5.34167H7.8524L6.39455 3.99544C6.34358 3.94866 6.27744 3.92285 6.20808 3.92285H0.674767C0.597988 3.92285 0.524434 3.95479 0.472494 4.01125C0.420232 4.0677 0.394424 4.14416 0.400876 4.22062L1.41708 16.2934C1.42321 16.3654 1.45676 16.4312 1.51128 16.4786L2.36651 17.2158L2.37102 17.21C2.41457 17.2374 2.46232 17.2558 2.51523 17.2558H16.6563C16.7692 17.2558 16.8698 17.1877 16.9118 17.0825L20.2407 8.67804C20.274 8.5932 20.2633 8.49739 20.2124 8.42222Z" fill="white"/>
</svg>
