<?xml version="1.0" encoding="UTF-8"?>
<svg width="24px" height="24px" viewBox="0 0 24 24" version="1.1" xmlns="http://www.w3.org/2000/svg" xmlns:xlink="http://www.w3.org/1999/xlink">
    <title>Logo_box / Paclife Copy 3</title>
    <g id="Pacific-Life---ACC-UW" stroke="none" stroke-width="1" fill="none" fill-rule="evenodd">
        <g id="Submission-Type-/-Active" transform="translate(-1126.000000, -355.000000)" fill-rule="nonzero">
            <g id="Logo_box-/-Paclife-Copy-3" transform="translate(1126.000000, 355.000000)">
                <path d="M22.4,18.4 L8.8,18.4 C8.358,18.4 8,18.042 8,17.6 L8,0.8 C8,0.358 8.358,0 8.8,0 L18.4,0 L23.2,4.8 L23.2,17.6 C23.2,18.042 22.842,18.4 22.4,18.4 Z" id="Path" class="pf-svg-primary-path" transform="translate(15.600000, 9.200000) rotate(-360.000000) translate(-15.600000, -9.200000) "></path>
                <path d="M18.4,0 L18.4,4 C18.4,4.442 18.758,4.8 19.2,4.8 L23.2,4.8 L18.4,0 Z" id="Path" fill="#fff"></path>
                <path d="M18.4,21.6 L4.8,21.6 C4.358,21.6 4,21.242 4,20.8 L4,4 C4,3.558 4.358,3.2 4.8,3.2 L14.4,3.2 L19.2,8 L19.2,20.8 C19.2,21.242 18.842,21.6 18.4,21.6 Z" id="Path" class="pf-svg-primary-path" transform="translate(11.600000, 12.400000) rotate(-360.000000) translate(-11.600000, -12.400000) "></path>
                <path d="M14.4,3.2 L14.4,7.2 C14.4,7.642 14.758,8 15.2,8 L19.2,8 L14.4,3.2 Z" id="Path" fill="#fff"></path>
                <g id="Group" transform="translate(0.000000, 5.600000)">
                    <path d="M14.4,18.4 L0.8,18.4 C0.358,18.4 0,18.042 0,17.6 L0,0.8 C0,0.358 0.358,0 0.8,0 L10.4,0 L15.2,4.8 L15.2,17.6 C15.2,18.042 14.842,18.4 14.4,18.4 Z" id="Path" class="pf-svg-primary-path" transform="translate(7.600000, 9.200000) rotate(-360.000000) translate(-7.600000, -9.200000) "></path>
                    <path d="M10.4,0 L10.4,4 C10.4,4.442 10.758,4.8 11.2,4.8 L15.2,4.8 L10.4,0 Z" id="Path" fill="#fff"></path>
                </g>
            </g>
        </g>
    </g>
</svg>
