<svg width="50px" height="50px" viewBox="0 0 60 75" fill="none" xmlns="http://www.w3.org/2000/svg">
<path d="M18.2154 31.9132C18.6708 48.0794 24.3631 59.2363 29.6 59.2363C34.8369 59.2363 40.5292 48.0794 40.9846 31.9132H18.2154ZM0.227691 31.9132C1.13846 43.9809 9.33539 53.9994 20.4923 57.6425C16.6215 51.9501 14.1169 42.8425 13.8892 31.9132H0.227691ZM20.2646 1.63014C9.10769 5.27322 0.910769 15.2917 0 27.3594H13.6615C14.1169 16.4301 16.3938 7.32245 20.2646 1.63014ZM38.9354 1.63014C42.8062 7.32245 45.3108 16.4301 45.5385 27.3594H59.2C58.0615 15.2917 49.8646 5.27322 38.9354 1.63014ZM38.9354 57.6425C50.0923 53.9994 58.2892 43.9809 59.2 31.9132H45.5385C45.0831 42.8425 42.8062 51.9501 38.9354 57.6425ZM40.9846 27.3594C40.5292 11.1932 34.8369 0.0362949 29.6 0.0362949C24.3631 0.0362949 18.6708 11.1932 18.2154 27.3594H40.9846Z" fill="white"/>
<rect x="17" y="70" width="25.02" height="4.87912" rx="2.43956" fill="white"/>
</svg>
