<?xml version="1.0" encoding="UTF-8"?>
<svg width="50px" height="50px" viewBox="0 0 50 50" version="1.1" xmlns="http://www.w3.org/2000/svg" xmlns:xlink="http://www.w3.org/1999/xlink">
    <!-- Generator: Sketch 56.3 (81716) - https://sketch.com -->
    <title>lifestyle / globaltravel</title>
    <desc>Created with Sketch.</desc>
    <g id="lifestyle-/-globaltravel" stroke="none" stroke-width="1" fill="none" fill-rule="evenodd">
        <g id="passport" transform="translate(8.000000, 3.000000)" fill-rule="nonzero">
            <path d="M14,18.2 C14.14,23.17 15.89,26.6 17.5,26.6 C19.11,26.6 20.86,23.17 21,18.2 L14,18.2 Z" id="Path" fill="#111111"></path>
            <path d="M8.47,18.2 C8.75,21.91 11.27,24.99 14.7,26.11 C13.51,24.36 12.74,21.56 12.67,18.2 L8.47,18.2 L8.47,18.2 Z" id="Path" fill="#111111"></path>
            <path d="M14.63,8.89 C11.2,10.01 8.68,13.09 8.4,16.8 L12.6,16.8 C12.74,13.44 13.44,10.64 14.63,8.89 Z" id="Path" fill="#111111"></path>
            <path d="M20.37,8.89 C21.56,10.64 22.33,13.44 22.4,16.8 L26.6,16.8 C26.25,13.09 23.73,10.01 20.37,8.89 Z" id="Path" fill="#111111"></path>
            <path d="M20.37,26.11 C23.8,24.99 26.32,21.91 26.6,18.2 L22.4,18.2 C22.26,21.56 21.56,24.36 20.37,26.11 Z" id="Path" fill="#111111"></path>
            <path d="M21,16.8 C20.86,11.83 19.11,8.4 17.5,8.4 C15.89,8.4 14.14,11.83 14,16.8 L21,16.8 Z" id="Path" fill="#111111"></path>
            <path d="M30.1,0 L0.7,0 C0.28,0 0,0.28 0,0.7 L0,42.7 C0,43.12 0.28,43.4 0.7,43.4 L30.1,43.4 C32.83,43.4 35,41.23 35,38.5 L35,4.9 C35,2.17 32.83,0 30.1,0 Z M21.7,35 L13.3,35 C12.88,35 12.6,34.72 12.6,34.3 L12.6,34.3 C12.6,33.88 12.88,33.6 13.3,33.6 L21.7,33.6 C22.12,33.6 22.4,33.88 22.4,34.3 L22.4,34.3 C22.4,34.72 22.12,35 21.7,35 Z M17.5,28 C11.69,28 7,23.31 7,17.5 C7,11.69 11.69,7 17.5,7 C23.31,7 28,11.69 28,17.5 C28,23.31 23.31,28 17.5,28 Z" id="Shape" fill="#999999"></path>
        </g>
        <g id="passport-copy" transform="translate(16.000000, 11.000000)" fill="#999999" fill-rule="nonzero">
            <path d="M6,10.2 C6.14,15.17 7.89,18.6 9.5,18.6 C11.11,18.6 12.86,15.17 13,10.2 L6,10.2 Z" id="Path"></path>
            <path d="M0.47,10.2 C0.75,13.91 3.27,16.99 6.7,18.11 C5.51,16.36 4.74,13.56 4.67,10.2 L0.47,10.2 L0.47,10.2 Z" id="Path"></path>
            <path d="M6.63,0.89 C3.2,2.01 0.68,5.09 0.4,8.8 L4.6,8.8 C4.74,5.44 5.44,2.64 6.63,0.89 Z" id="Path"></path>
            <path d="M12.37,0.89 C13.56,2.64 14.33,5.44 14.4,8.8 L18.6,8.8 C18.25,5.09 15.73,2.01 12.37,0.89 Z" id="Path"></path>
            <path d="M12.37,18.11 C15.8,16.99 18.32,13.91 18.6,10.2 L14.4,10.2 C14.26,13.56 13.56,16.36 12.37,18.11 Z" id="Path"></path>
            <path d="M13,8.8 C12.86,3.83 11.11,0.4 9.5,0.4 C7.89,0.4 6.14,3.83 6,8.8 L13,8.8 Z" id="Path"></path>
        </g>
    </g>
</svg>