<?xml version="1.0" encoding="UTF-8"?>
<svg width="20px" height="20px" viewBox="0 0 20 20" version="1.1" xmlns="http://www.w3.org/2000/svg" xmlns:xlink="http://www.w3.org/1999/xlink">
    <title>icon / graycheck</title>
    <g id="icon-/-graycheck" stroke="none" stroke-width="1" fill="none" fill-rule="evenodd">
        <g id="Page-1" transform="translate(0.000000, 0.000000)">
            <path d="M19.2066667,6.10346667 C18.6826667,4.9008 17.9613333,3.83413333 17.0613333,2.93546667 C16.16,2.03413333 15.0946667,1.3128 13.8933333,0.791466667 C11.4746667,-0.2632 8.52533333,-0.2632 6.10666667,0.791466667 C4.90533333,1.3128 3.84,2.03413333 2.93866667,2.93546667 C2.03866667,3.83413333 1.31733333,4.9008 0.793333333,6.10346667 C0.266666667,7.31146667 0,8.62346667 0,9.9968 C0,11.3701333 0.266666667,12.6821333 0.793333333,13.8901333 C1.316,15.0901333 2.03866667,16.1568 2.93866667,17.0581333 C3.84,17.9594667 4.90533333,18.6808 6.10666667,19.2021333 C7.316,19.7301333 8.62533333,19.9968 10,19.9968 C11.3746667,19.9968 12.684,19.7301333 13.8933333,19.2021333 C15.0946667,18.6808 16.16,17.9594667 17.0613333,17.0581333 C17.9613333,16.1568 18.684,15.0901333 19.2066667,13.8901333 C19.7333333,12.6821333 20,11.3701333 20,9.9968 C20,8.62346667 19.7333333,7.31146667 19.2066667,6.10346667" id="Fill-2" fill="#989898"></path>
            <polygon id="Fill-1" fill="#FFFFFF" points="8.25 14.6765333 15.846 7.08053333 14.0833333 5.31653333 8.25 11.1498667 5.91666667 8.81653333 4.154 10.5805333"></polygon>
        </g>
    </g>
</svg>