<?xml version="1.0" encoding="UTF-8"?>
<svg width="30px" height="30px" viewBox="0 0 30 30" version="1.1" xmlns="http://www.w3.org/2000/svg" xmlns:xlink="http://www.w3.org/1999/xlink">
    <title>icon / greencheck alt</title>
    <g id="Symbols" stroke="none" stroke-width="1" fill="none" fill-rule="evenodd">
        <g id="FFStatusModule-/-responsesrecevied" transform="translate(-24.000000, -201.000000)">
            <g id="Group" transform="translate(24.000000, 201.000000)">
                <g id="Page-1" transform="translate(0.000000, 0.000000)">
                    <path d="M28.81,9.1552 C28.024,7.3512 26.942,5.7512 25.592,4.4032 C24.24,3.0512 22.642,1.9692 20.84,1.1872 C17.212,-0.3948 12.788,-0.3948 9.16,1.1872 C7.358,1.9692 5.76,3.0512 4.408,4.4032 C3.058,5.7512 1.976,7.3512 1.19,9.1552 C0.4,10.9672 0,12.9352 0,14.9952 C0,17.0552 0.4,19.0232 1.19,20.8352 C1.974,22.6352 3.058,24.2352 4.408,25.5872 C5.76,26.9392 7.358,28.0212 9.16,28.8032 C10.974,29.5952 12.938,29.9952 15,29.9952 C17.062,29.9952 19.026,29.5952 20.84,28.8032 C22.642,28.0212 24.24,26.9392 25.592,25.5872 C26.942,24.2352 28.026,22.6352 28.81,20.8352 C29.6,19.0232 30,17.0552 30,14.9952 C30,12.9352 29.6,10.9672 28.81,9.1552" id="Fill-2" fill="#59AF6E"></path>
                    <polygon id="Fill-1" fill="#FFFFFF" points="12.375 22.0148 23.769 10.6208 21.125 7.9748 12.375 16.7248 8.875 13.2248 6.231 15.8708"></polygon>
                </g>
            </g>
        </g>
    </g>
</svg>