<?xml version="1.0" encoding="UTF-8"?>
<svg width="50px" height="50px" viewBox="0 0 50 50" version="1.1" xmlns="http://www.w3.org/2000/svg" xmlns:xlink="http://www.w3.org/1999/xlink">
    <title>Health History / Growths active</title>
    <g id="Health-History-/-Growths-active" stroke="none" stroke-width="1" fill="none" fill-rule="evenodd">
        <path d="M30,11.2370188 C26.6275541,10.9224605 23.3256007,10.9201796 20,11.2350821 C20.0245915,11.3169818 20.027199,11.3464622 20.0412705,11.369487 C20.4726774,12.0737894 20.8509003,12.8150607 21.3488435,13.4732703 C22.3501248,14.7967906 23.416234,16.0753372 24.4570773,17.3713569 C24.6249017,17.5803881 24.8001888,17.7838676 24.9804662,18 C25.0379661,17.9356595 25.0833727,17.8887921 25.1243285,17.8385678 C25.8804595,16.9117205 26.6356913,15.9842707 27.3917774,15.0574234 C28.1432329,14.1363001 28.9015667,13.2197817 29.4785443,12.1826733 C29.6400746,11.8923449 29.799447,11.6008976 30,11.2370188 M24.9356264,8.66226957 C26.8943267,8.66085965 28.8508649,8.69788138 30.7910462,8.99451001 C30.9477535,9.01843315 30.9973414,8.9639921 31.0350377,8.83468894 C31.1774561,8.34653881 31.3473712,7.86516538 31.4709415,7.37274001 C31.7033703,6.44628718 31.915729,5.51928857 31.9919675,4.55990733 C32.0577244,3.73301293 31.7198683,3.21457229 30.974028,2.88942691 C30.9027248,2.85836323 30.8334427,2.82297883 30.7625155,2.791051 C29.9574516,2.42801975 29.0975826,2.26528788 28.2250697,2.16477434 C26.4857314,1.96442948 24.7396717,1.97088782 22.993941,2.05693832 C21.9526882,2.10828664 20.9175927,2.21921538 19.9167622,2.52571345 C19.2847627,2.71923612 18.6792727,2.96706339 18.2108429,3.44138723 C18.1156623,3.53780745 18.0260749,3.68516667 18.0217977,3.81178643 C18.0054407,4.29502459 17.9739958,4.78613101 18.0411628,5.26200121 C18.2098559,6.4566569 18.5184292,7.62338711 18.8997628,8.77219772 C18.9617125,8.95871628 19.0361649,9.01561331 19.2435413,8.98427674 C21.1296693,8.69906389 23.0318723,8.66408882 24.9356264,8.66226957 M32.9077661,8 C32.8791185,8.03240321 32.8710614,8.03733723 32.8694052,8.04407406 C32.7638565,8.47162565 32.663366,8.90069541 32.5530279,9.32691861 C31.8867914,11.8999139 30.841869,14.2728442 29.2669653,16.3721737 C28.1952753,17.8007141 27.1456081,19.2478045 26.0805429,20.682038 C25.9807685,20.8163477 25.9678323,20.9009376 26.0749028,21.0424585 C27.3668216,22.7498658 28.6518469,24.4631559 29.9390657,26.1745484 C30.1429115,26.4455872 30.3488611,26.7148233 30.5653298,27 C30.6300555,26.9172603 30.6830089,26.8522167 30.733366,26.7848958 C31.7059532,25.4846873 32.6682898,24.1756545 33.653276,22.8861206 C34.7487346,21.4518871 35.4711921,19.8345256 35.8428504,18.0374995 C36.1033201,16.7781864 36.0612438,15.5471965 35.5556579,14.3489419 C35.0294367,13.1017267 34.5320422,11.840848 34.0128038,10.5902643 C33.6559617,9.73089129 33.2834082,8.87891931 32.9077661,8 M9,42.0245208 C10.9490371,43.6868477 12.8850418,45.3381099 14.8334673,47 C14.9812941,46.809522 15.1128421,46.639669 15.2447195,46.4701558 C18.1295542,42.7628475 21.0133538,39.0546657 23.902611,35.3510942 C24.0282779,35.190025 24.0358998,35.0936941 23.904587,34.9267529 C22.4086754,33.0241569 20.9220794,31.1137476 19.4326134,29.2058133 C19.3811422,29.1399589 19.3251543,29.0777927 19.2595685,29 C15.8314161,33.3520702 12.4226948,37.6793904 9,42.0245208 M16.3712443,7 C16.3257949,7.06912448 16.3048814,7.09324431 16.2924203,7.1210273 C15.3531496,9.21555134 14.4200128,11.3127871 13.4736904,13.4041713 C12.9659713,14.5261477 12.8943922,15.6855645 13.126324,16.8731925 C13.5081759,18.8278977 14.3773648,20.5592922 15.6284056,22.1132847 C16.358445,23.0200856 17.0883396,23.9269816 17.8091539,24.8408234 C18.5264907,25.7501933 19.2634852,26.6442444 19.9889363,27.5472394 C22.0611568,30.1264436 24.1531798,32.6902814 26.2501294,35.2500279 C29.3530506,39.0375546 32.4668391,42.8164229 35.5764256,46.5986213 C35.6854848,46.7312566 35.7994704,46.8599908 35.9193003,47 C37.9568904,45.3584245 39.9729874,43.7340706 42,42.1010107 C41.9372113,42.0194219 41.8913755,41.9561014 41.8416276,41.8958257 C38.9585151,38.402304 36.0760788,34.9080687 33.1909378,31.416117 C32.3438699,30.3908578 31.4858864,29.3744473 30.6396395,28.3485696 C30.3508598,27.9984753 30.088886,27.6271155 29.8042599,27.2735959 C26.649369,23.3547185 23.4896964,19.4395993 20.3370272,15.5190092 C18.5043215,13.239852 17.2873798,10.6650246 16.5798477,7.84961739 C16.5124223,7.58130214 16.4478465,7.31236843 16.3712443,7 M17.5079127,28.2272812 C17.3211783,27.9875361 17.1352046,27.7508965 16.9514652,27.5124414 C15.7729659,25.9835767 14.5567681,24.4821361 13.4273294,22.9174387 C12.2518727,21.2890545 11.4503601,19.4774933 11.1286142,17.471814 C10.8809344,15.9276607 11.0709965,14.4427509 11.7011775,13.014218 C13.1098144,9.82104083 14.5529649,6.64262679 15.9128266,3.42861887 C16.4745509,2.10103882 17.4512458,1.33225878 18.7158387,0.835568883 C19.9457754,0.35254321 21.240223,0.166499494 22.5481717,0.0837019179 C24.3526209,-0.0305329372 26.1586864,-0.0380339294 27.961234,0.125124594 C29.2116602,0.238308355 30.4418821,0.456362675 31.6061671,0.956110305 C32.5009042,1.34014199 33.2553529,1.90171309 33.7795212,2.73996091 C33.879116,2.89924949 33.9378271,3.084481 34.0146506,3.25810269 C35.3876331,6.36274901 36.7661301,9.46491093 38.1296047,12.5737616 C38.4839151,13.381671 38.798863,14.2065891 38.9141933,15.0941905 C39.0780613,16.355265 38.9358712,17.5854755 38.5869328,18.8001584 C38.1562267,20.2995447 37.4873488,21.6903815 36.56946,22.9392728 C35.628895,24.2189325 34.6080361,25.4390143 33.6222612,26.6850867 C33.3067904,27.0838337 33.0023488,27.4921362 32.6708097,27.8768367 C32.5008567,28.0740603 32.4949618,28.2069282 32.6641066,28.4143282 C33.7333606,29.7257118 34.7838364,31.0524319 35.849002,32.3672077 C38.4194994,35.5398408 40.9946081,38.7086516 43.5677677,41.8791347 C43.6228182,41.9469303 43.6776311,42.0150125 43.7312079,42.0840981 C44.139618,42.6104097 44.0815725,43.1680631 43.5642023,43.5942819 C41.1264346,45.6028278 38.6867653,47.6090805 36.2476665,49.6160498 C36.1986535,49.6563736 36.1489749,49.6959807 36.0987259,49.7347756 C35.608263,50.1135041 35.0374586,50.055025 34.6470659,49.5731938 C33.4269698,48.0669754 32.2095359,46.5585594 30.9940035,45.0486144 C29.0411842,42.6228795 27.0907894,40.195138 25.139016,37.7684476 C25.0702741,37.6829745 24.9982996,37.6000814 24.9120634,37.4971219 C24.67817,37.786364 24.4576352,38.0557786 24.2406183,38.3279643 C21.2736431,42.0485042 18.3072384,45.7694741 15.3404534,49.4901095 C14.9859053,49.934818 14.5968912,50.0938677 14.1664704,49.946619 C14.0205723,49.896692 13.8785249,49.8102633 13.7590586,49.7109827 C11.3238581,47.6867659 8.89189015,45.658727 6.46015995,43.630258 C5.89429967,43.1582211 5.85379619,42.6015232 6.31944362,42.0302056 C8.59809729,39.2345811 10.8744691,36.437141 13.1483213,33.6375987 C14.5707446,31.886332 15.9873682,30.1302399 17.4059884,28.3759155 C17.4403118,28.3334895 17.4680747,28.2857602 17.5079127,28.2272812" id="Fill-1" fill="#FFFFFF"></path>
    </g>
</svg>