<svg width="28" height="20" viewBox="0 0 28 20" fill="none" xmlns="http://www.w3.org/2000/svg">
<path fill-rule="evenodd" clip-rule="evenodd" d="M28 16.6533V20H0.0004L0.0004 16.6533H28V16.6533Z" fill="white"/>
<path fill-rule="evenodd" clip-rule="evenodd" d="M1.6734 16.6533H26.3264C27.2464 16.6533 28.0004 17.4063 28.0004 18.3263C28.0004 19.2473 27.2464 20.0003 26.3264 20.0003H1.6734C0.7534 20.0003 0.0004 19.2473 0.0004 18.3263C0.0004 17.4063 0.7534 16.6533 1.6734 16.6533Z" fill="#B3B3B3"/>
<path fill-rule="evenodd" clip-rule="evenodd" d="M14.0002 0H28V3.347H0.0004V0H14.0002Z" fill="white"/>
<path fill-rule="evenodd" clip-rule="evenodd" d="M26.3264 0C27.2464 0 28.0004 0.753 28.0004 1.673C28.0004 2.594 27.2464 3.347 26.3264 3.347H1.6734C0.7534 3.347 0.0004 2.594 0.0004 1.673C0.0004 0.753 0.7534 0 1.6734 0H26.3264Z" fill="#B3B3B3"/>
<path fill-rule="evenodd" clip-rule="evenodd" d="M28 8V11H11V8H28V8Z" fill="white"/>
<path fill-rule="evenodd" clip-rule="evenodd" d="M12.6854 8H26.3136C27.2404 8 28 8.67493 28 9.49955C28 10.3251 27.2404 11 26.3136 11H12.6854C11.7586 11 11 10.3251 11 9.49955C11 8.67493 11.7586 8 12.6854 8Z" fill="#B3B3B3"/>
</svg>
