<?xml version="1.0" encoding="UTF-8"?>
<svg width="50px" height="50px" viewBox="0 0 50 50" version="1.1" xmlns="http://www.w3.org/2000/svg" xmlns:xlink="http://www.w3.org/1999/xlink">
    <!-- Generator: Sketch 56.3 (81716) - https://sketch.com -->
    <title>lifestyle / hanggliding</title>
    <desc>Created with Sketch.</desc>
    <g id="lifestyle-/-hanggliding" stroke="none" stroke-width="1" fill="none" fill-rule="evenodd">
        <g id="Group" transform="translate(28.150003, 22.740130) rotate(34.000000) translate(-28.150003, -22.740130) translate(3.150003, 11.740130)">
            <path d="M14.5818724,18.0180202 L14.5818724,9.84308729 L11.9664878,9.84308729 L11.9664878,19.3257125 C11.9664878,20.047931 12.5519616,20.6334048 13.2741801,20.6334048 L21.1220168,20.6334048 L21.1220168,18.0180202 L14.5818724,18.0180202 Z" id="Path" fill="#979797" fill-rule="nonzero"></path>
            <rect id="Rectangle" fill="#999999" x="22.2307692" y="13.7661642" width="5.23076923" height="7.84615385" rx="2"></rect>
            <path d="M31.3846154,9.84308729 L28.7692308,9.84308729 L28.7692308,19.3257125 C28.7692308,20.047931 29.3547046,20.6334048 30.0769231,20.6334048 L37.9247597,20.6334048 L37.9247597,18.0180202 L31.3846154,18.0180202 L31.3846154,9.84308729 Z" id="Path" fill="#979797" fill-rule="nonzero" transform="translate(33.346995, 15.238246) scale(-1, 1) translate(-33.346995, -15.238246) "></path>
            <path d="M25.0886709,-5.32907052e-15 C29.5279016,-5.32907052e-15 43.3108176,7.81564222 46.954105,11.7127554 C49.3829633,14.3108309 50.223765,17.5188534 49.4765102,21.3368229 C41.4328446,15.4667069 33.3035648,12.5316489 25.0886709,12.5316489 C16.873777,12.5316489 8.63121862,15.4667069 0.360995729,21.3368229 C-0.581686569,17.5188534 0.321878561,14.3108309 3.07169112,11.7127554 C7.19640996,7.81564222 20.6494402,-5.32907052e-15 25.0886709,-5.32907052e-15 Z" id="Triangle" fill="#999999"></path>
        </g>
    </g>
</svg>