<?xml version="1.0" encoding="UTF-8"?>
<svg width="50px" height="50px" viewBox="0 0 50 50" version="1.1" xmlns="http://www.w3.org/2000/svg" xmlns:xlink="http://www.w3.org/1999/xlink">
    <!-- Generator: Sketch 56.3 (81716) - https://sketch.com -->
    <title>lifestyle / health</title>
    <desc>Created with Sketch.</desc>
    <g id="lifestyle-/-health" stroke="none" stroke-width="1" fill="none" fill-rule="evenodd">
        <g id="hospital-34" transform="translate(5.000000, 5.000000)" fill="#999999" fill-rule="nonzero">
            <path d="M20,-2.84217094e-14 C8.95652174,-2.84217094e-14 0,8.95652174 0,20 C0,31.0434783 8.95652174,40 20,40 C31.0434783,40 40,31.0434783 40,20 C40,8.95652174 31.0434783,-2.84217094e-14 20,-2.84217094e-14 Z M31.3043478,23.4782609 C31.3043478,24 30.9565217,24.3478261 30.4347826,24.3478261 L24.3478261,24.3478261 L24.3478261,30.4347826 C24.3478261,30.9565217 24,31.3043478 23.4782609,31.3043478 L16.5217391,31.3043478 C16,31.3043478 15.6521739,30.9565217 15.6521739,30.4347826 L15.6521739,24.3478261 L9.56521739,24.3478261 C9.04347826,24.3478261 8.69565217,24 8.69565217,23.4782609 L8.69565217,16.5217391 C8.69565217,16 9.04347826,15.6521739 9.56521739,15.6521739 L15.6521739,15.6521739 L15.6521739,9.56521739 C15.6521739,9.04347826 16,8.69565217 16.5217391,8.69565217 L23.4782609,8.69565217 C24,8.69565217 24.3478261,9.04347826 24.3478261,9.56521739 L24.3478261,15.6521739 L30.4347826,15.6521739 C30.9565217,15.6521739 31.3043478,16 31.3043478,16.5217391 L31.3043478,23.4782609 Z" id="Shape"></path>
        </g>
    </g>
</svg>