<svg width="20" height="20" viewBox="0 0 20 20" fill="none" xmlns="http://www.w3.org/2000/svg">
<path fill-rule="evenodd" clip-rule="evenodd" d="M10 3.05312C10 3.05312 8.41159 3.23353 7.99941 2.37563C7.99941 2.37563 7.99732 2.37191 7.99397 2.36489C7.58011 1.53919 6.47258 1.34267 5.78562 1.96731C4.53818 3.10183 1.93189 5.17023 0 4.65622C0 4.65622 0.531144 5.94309 2.27202 5.67225C2.27202 5.67225 3.0968 6.50746 4.51724 5.96579C4.51724 5.96579 5.31898 6.53016 6.51028 6.01079C6.51028 6.01079 7.33506 6.66558 8.31986 6.0785C8.31986 6.0785 9.34361 6.80099 10 6.0785V3.05312Z" fill="white"/>
<mask id="mask0" mask-type="alpha" maskUnits="userSpaceOnUse" x="9" y="1" width="11" height="6">
<path fill-rule="evenodd" clip-rule="evenodd" d="M9.97559 1.66699H19.9066V6.31756H9.97559V1.66699Z" fill="white"/>
</mask>
<g mask="url(#mask0)">
<path fill-rule="evenodd" clip-rule="evenodd" d="M9.97559 3.07525C9.97559 3.07525 11.5531 3.25005 11.9628 2.41885C11.9628 2.41885 11.9645 2.41525 11.9678 2.40845C12.3788 1.60845 13.4787 1.41805 14.161 2.02325C15.3998 3.12245 17.9882 5.12645 19.9068 4.62845C19.9068 4.62845 19.3793 5.87525 17.6504 5.61285C17.6504 5.61285 16.8313 6.42205 15.4206 5.89725C15.4206 5.89725 14.6244 6.44405 13.4417 5.94085C13.4417 5.94085 12.6222 6.57525 11.6442 6.00645C11.6442 6.00645 10.6275 6.70645 9.97559 6.00645V3.07525Z" fill="white"/>
</g>
<path fill-rule="evenodd" clip-rule="evenodd" d="M9.80108 20H9.7994C9.80108 20 9.6001 19.7045 9.6001 19.7045V2H10.0001V19.7045L9.80108 20Z" fill="white"/>
<path fill-rule="evenodd" clip-rule="evenodd" d="M10.9926 8.15753C10.9926 8.15753 10.4527 7.28698 11.712 6.90628C11.712 6.90628 12.9885 6.3385 14.2377 7.82523C14.2377 7.82523 15.209 8.96079 14.5983 9.93389C14.5983 9.93389 14.426 10.4996 11.6332 11.5622C11.5245 11.6036 11.4138 11.6405 11.3026 11.6741C10.7239 11.8497 8.49967 12.6509 9.90808 14.2595L9.21398 14.7998C9.21398 14.7998 7.3823 13.3672 9.21398 11.7451C9.21398 11.7451 10.1001 10.9341 11.5999 10.4475C13.0997 9.96096 13.627 9.55564 13.627 9.55564C13.627 9.55564 14.4593 9.12283 13.1275 8.96079C13.1275 8.96079 11.5325 9.0654 10.9926 8.15753Z" fill="white"/>
<path fill-rule="evenodd" clip-rule="evenodd" d="M10.7519 15.2002C10.7519 15.2002 12.0108 16.3605 11.461 17.2309C11.461 17.2309 11.2267 17.5584 10.4374 17.947C9.72401 18.2981 9.06814 18.7634 8.56826 19.3771C8.41569 19.5642 8.27293 19.767 8.15701 19.9786C8.15701 19.9786 7.92859 20.137 8.02277 19.5963C8.02277 19.5963 7.95714 18.1725 9.19685 17.6587C9.19685 17.6587 11.4662 16.8815 10.1566 15.9184V15.6811L10.7519 15.2002Z" fill="white"/>
<path fill-rule="evenodd" clip-rule="evenodd" d="M8.62306 11.5998C8.66568 11.5594 8.70614 11.519 8.7522 11.4794C8.772 11.4622 9.06988 11.2006 9.60019 10.8859C9.27606 10.7251 8.89899 10.5643 8.47068 10.4291C6.93784 9.94504 6.39891 9.54176 6.39891 9.54176C6.39891 9.54176 5.5479 9.11113 6.90986 8.9499C6.90986 8.9499 8.53956 9.05399 9.0914 8.15069C9.0914 8.15069 9.64367 7.28453 8.35618 6.90574C8.35618 6.90574 7.05148 6.34082 5.77475 7.82006C5.77475 7.82006 4.78213 8.9499 5.40628 9.91811C5.40628 9.91811 5.58234 10.4814 8.43668 11.5386C8.4978 11.561 8.56065 11.5798 8.62306 11.5998Z" fill="white"/>
<path fill-rule="evenodd" clip-rule="evenodd" d="M10.7707 14.9087C10.3398 15.2962 9.45365 15.8807 9.45365 15.8807C8.77304 16.3833 9.05026 16.8356 9.48111 17.1549C9.34079 17.2227 9.20046 17.2841 9.07086 17.328C8.88934 17.4065 8.73227 17.4981 8.59538 17.6C8.25979 17.3724 8.14049 17.2091 8.14049 17.2091C7.58605 16.3292 8.85157 15.1568 8.85157 15.1568C9.31332 14.7898 10.066 14.3447 10.066 14.3447C10.7913 13.4985 10.569 12.8663 10.0935 12.4246C10.3772 12.2481 10.7162 12.1019 11.0376 12C12.4434 13.5735 10.7707 14.9087 10.7707 14.9087Z" fill="white"/>
<path fill-rule="evenodd" clip-rule="evenodd" d="M11.3352 18C11.2116 18.0699 11.0776 18.142 10.9186 18.2162C10.7367 18.3016 10.5649 18.3929 10.3999 18.4873C10.7673 18.7413 11.105 19.03 11.3921 19.3658C11.5557 19.5563 11.7084 19.7626 11.8324 19.978C11.8324 19.978 12.0762 20.1393 11.9755 19.5889C11.9755 19.5889 12.0211 18.6392 11.3352 18Z" fill="white"/>
<path fill-rule="evenodd" clip-rule="evenodd" d="M11.1999 1.4C11.1999 2.17334 10.5732 2.8 9.7999 2.8C9.02657 2.8 8.3999 2.17334 8.3999 1.4C8.3999 0.627088 9.02657 0 9.7999 0C10.5732 0 11.1999 0.627088 11.1999 1.4Z" fill="white"/>
</svg>
