<?xml version="1.0" encoding="UTF-8"?>
<svg width="35px" height="44px" viewBox="0 0 35 44" version="1.1" xmlns="http://www.w3.org/2000/svg" xmlns:xlink="http://www.w3.org/1999/xlink">
    <title>Shape</title>
    <g id="Symbols" stroke="none" stroke-width="1" fill="none" fill-rule="evenodd">
        <path d="M25.2,0 L25.2,9.22580645 C25.2,9.58490323 25.4635111,9.88198208 25.805056,9.92900149 L25.9,9.93548387 L35,9.93548387 L35,42.5806452 C35,43.3187097 34.4450381,43.9247595 33.7348765,43.9935056 L33.6,44 L1.4,44 C0.672,44 0.0742145329,43.4373658 0.006405862,42.7173863 L0,42.5806452 L0,1.41935484 C0,0.681290323 0.554961938,0.0752405402 1.26512355,0.0064944223 L1.4,0 L25.2,0 Z M26.3949,15.8208387 C26.14857,15.5711032 25.765593,15.5461297 25.4919336,15.7459181 L25.4051,15.8208387 L14.7,26.6739355 L9.5949,21.4982581 C9.3212,21.2207742 8.8788,21.2207742 8.6051,21.4982581 C8.35877,21.7479935 8.334137,22.1362652 8.531201,22.4137079 L8.6051,22.5017419 L14.2051,28.1791613 C14.3416,28.3175484 14.5208,28.3870968 14.7,28.3870968 C14.84336,28.3870968 14.98672,28.3425858 15.1082176,28.2539272 L15.1949,28.1791613 L26.3949,16.8243226 C26.6686,16.5468387 26.6686,16.0983226 26.3949,15.8208387 Z M27,0 L35,8 L27,8 L27,0 Z" id="Shape" fill="#A7A7A7" fill-rule="nonzero"></path>
    </g>
</svg>