<svg width="20" height="20" viewBox="0 0 20 20" fill="none" xmlns="http://www.w3.org/2000/svg">
<path fill-rule="evenodd" clip-rule="evenodd" d="M5.1998 9.41386C5.1998 10.589 4.18862 11.6002 2.98614 11.6002C1.78366 11.6002 0.799805 10.589 0.799805 9.41386C0.799805 8.21138 1.78366 7.2002 2.98614 7.2002C4.18862 7.2002 5.1998 8.21138 5.1998 9.41386ZM11.9998 9.41386C11.9998 10.589 10.9886 11.6002 9.78614 11.6002C8.58366 11.6002 7.5998 10.589 7.5998 9.41386C7.5998 8.21138 8.58366 7.2002 9.78614 7.2002C10.9886 7.2002 11.9998 8.21138 11.9998 9.41386ZM16.9861 11.6002C18.1886 11.6002 19.1998 10.589 19.1998 9.41386C19.1998 8.21138 18.1886 7.2002 16.9861 7.2002C15.7837 7.2002 14.7998 8.21138 14.7998 9.41386C14.7998 10.589 15.7837 11.6002 16.9861 11.6002Z" fill="#999999"/>
</svg>
