<svg width="50" height="50" viewBox="0 0 50 50" fill="none" xmlns="http://www.w3.org/2000/svg">
<path fill-rule="evenodd" clip-rule="evenodd" d="M24.1036 31.0641H44.4346C44.7416 31.0641 44.9906 30.6751 44.9906 30.1961C44.9906 29.7171 44.7416 29.3281 44.4346 29.3281H24.1036C23.7956 29.3281 23.5466 29.7171 23.5466 30.1961C23.5466 30.6751 23.7956 31.0641 24.1036 31.0641Z" fill="white"/>
<path fill-rule="evenodd" clip-rule="evenodd" d="M24.1036 35.1665H40.9296C41.2376 35.1665 41.4866 34.7505 41.4866 34.2395C41.4866 33.7265 41.2376 33.3105 40.9296 33.3105H24.1036C23.7956 33.3105 23.5466 33.7265 23.5466 34.2395C23.5466 34.7505 23.7956 35.1665 24.1036 35.1665Z" fill="white"/>
<path fill-rule="evenodd" clip-rule="evenodd" d="M24.1036 23.0417H32.8906C33.1976 23.0417 33.4466 22.6247 33.4466 22.1107C33.4466 21.5977 33.1976 21.1797 32.8906 21.1797H24.1036C23.7956 21.1797 23.5466 21.5977 23.5466 22.1107C23.5466 22.6247 23.7956 23.0417 24.1036 23.0417Z" fill="white"/>
<path fill-rule="evenodd" clip-rule="evenodd" d="M24.1036 27.0847H32.8906C33.1976 27.0847 33.4466 26.6677 33.4466 26.1537C33.4466 25.6407 33.1976 25.2227 32.8906 25.2227H24.1036C23.7956 25.2227 23.5466 25.6407 23.5466 26.1537C23.5466 26.6677 23.7956 27.0847 24.1036 27.0847Z" fill="white"/>
<path fill-rule="evenodd" clip-rule="evenodd" d="M36.047 12.042H5.33598C4.87498 12.042 4.50098 12.417 4.50098 12.878C4.50098 13.338 4.87498 13.712 5.33598 13.712H36.047C36.508 13.712 36.883 13.338 36.883 12.878C36.883 12.417 36.508 12.042 36.047 12.042Z" fill="white"/>
<mask id="mask0" mask-type="alpha" maskUnits="userSpaceOnUse" x="0" y="8" width="50" height="35">
<path fill-rule="evenodd" clip-rule="evenodd" d="M0 25.2822V8H49.541V25.2822V42.5645H0V25.2822Z" fill="white"/>
</mask>
<path fill-rule="evenodd" clip-rule="evenodd" d="M47.816 11.645V15.239H1.725V11.645C1.725 11.134 1.925 10.652 2.289 10.289C2.653 9.92502 3.135 9.72502 3.646 9.72502H45.895C46.407 9.72502 46.889 9.92402 47.254 10.289C47.617 10.651 47.816 11.133 47.816 11.645ZM45.895 40.839H3.646C3.133 40.839 2.651 40.64 2.287 40.275C1.924 39.913 1.725 39.431 1.725 38.918V16.964H47.816V38.918C47.816 39.429 47.615 39.911 47.252 40.275C46.887 40.639 46.405 40.839 45.895 40.839ZM48.498 9.09902L48.47 9.06802C47.778 8.37902 46.864 7.99902 45.895 7.99902H3.646C2.674 7.99902 1.759 8.37902 1.07 9.06802C0.38 9.75802 0 10.673 0 11.645V38.918C0 39.884 0.378 40.796 1.071 41.494C1.763 42.185 2.677 42.564 3.646 42.564H45.895C46.867 42.564 47.782 42.185 48.471 41.494C49.161 40.804 49.541 39.889 49.541 38.918V11.645C49.541 10.688 49.171 9.78502 48.498 9.09902Z" fill="white"/>
<path fill-rule="evenodd" clip-rule="evenodd" d="M9.73058 30.0035C7.19058 30.6865 5.50058 31.6505 5.50058 34.1305C5.50058 34.4275 7.03358 35.2425 11.9686 35.2425C16.9046 35.2425 18.4386 34.4275 18.4386 34.1305C18.4386 31.6505 16.7476 30.6865 14.2076 30.0035C13.3036 29.8165 12.9266 29.4515 12.7716 28.6105C12.7376 28.4255 12.8106 28.2375 12.9596 28.1235C13.8356 27.4605 14.7716 26.2975 14.7716 25.0255C14.7716 21.7915 13.0156 21.3085 11.9686 21.3085C10.9226 21.3085 9.16658 21.7915 9.16658 25.0255C9.16658 26.2975 10.1026 27.4605 10.9776 28.1235C11.1276 28.2375 11.2006 28.4255 11.1666 28.6105C11.0116 29.4515 10.6346 29.8165 9.73058 30.0035ZM11.9686 36.2375C8.56358 36.2375 4.50458 35.8715 4.50458 34.1305C4.50458 30.8195 7.02358 29.6985 9.48758 29.0385C9.49758 29.0355 9.50758 29.0335 9.51758 29.0305C9.92258 28.9485 10.0536 28.8785 10.1206 28.7115C9.13558 27.8765 8.17158 26.5315 8.17158 25.0255C8.17158 22.0745 9.59058 20.3135 11.9686 20.3135C14.3476 20.3135 15.7666 22.0745 15.7666 25.0255C15.7666 26.5315 14.8026 27.8765 13.8176 28.7115C13.8846 28.8785 14.0146 28.9485 14.4206 29.0305C14.4306 29.0335 14.4406 29.0355 14.4506 29.0385C16.9146 29.6985 19.4336 30.8195 19.4336 34.1305C19.4336 35.8715 15.3746 36.2375 11.9686 36.2375Z" fill="white"/>
<path fill-rule="evenodd" clip-rule="evenodd" d="M6.99283 35.6496C6.80983 35.6496 6.66083 35.5016 6.66083 35.3176V33.3456C6.66083 33.1626 6.80983 33.0146 6.99283 33.0146C7.17583 33.0146 7.32483 33.1626 7.32483 33.3456V35.3176C7.32483 35.5016 7.17583 35.6496 6.99283 35.6496Z" fill="white"/>
<path fill-rule="evenodd" clip-rule="evenodd" d="M16.9454 35.6496C16.7624 35.6496 16.6134 35.5016 16.6134 35.3176V33.3456C16.6134 33.1626 16.7624 33.0146 16.9454 33.0146C17.1284 33.0146 17.2774 33.1626 17.2774 33.3456V35.3176C17.2774 35.5016 17.1284 35.6496 16.9454 35.6496Z" fill="white"/>
<path fill-rule="evenodd" clip-rule="evenodd" d="M11.9688 31.4243C11.4938 31.4243 11.0178 31.3103 10.6208 31.0803C9.99179 30.7173 9.64579 30.1203 9.64679 29.4023C9.64679 29.2183 9.79579 29.0703 9.97879 29.0703C10.1618 29.0703 10.3108 29.2193 10.3098 29.4023C10.3098 30.0073 10.6598 30.3363 10.9528 30.5063C11.5418 30.8463 12.3958 30.8463 12.9848 30.5063C13.2788 30.3363 13.6288 30.0073 13.6278 29.4023C13.6278 29.2193 13.7758 29.0703 13.9588 29.0703H13.9598C14.1428 29.0703 14.2908 29.2183 14.2908 29.4023C14.2918 30.1203 13.9458 30.7173 13.3168 31.0803C12.9198 31.3103 12.4448 31.4243 11.9688 31.4243Z" fill="white"/>
</svg>
