<svg xmlns="http://www.w3.org/2000/svg" width="12" height="12" viewBox="0 0 12 12">
  <path fill="#479BD7" d="M11.1428571,0 C11.5798297,0 11.9404303,0.3269873 11.9933216,0.749624678 L12,0.857142857 L12,11.1428571 C12,11.5798297 11.6730127,11.9404303 11.2503753,11.9933216 L11.1428571,12 L0.857142857,12 C0.420170308,12 0.0595697346,11.6730127 0.00667835971,11.2503753 L0,11.1428571 L0,0.857142857 C0,0.420170308 0.3269873,0.0595697346 0.749624678,0.00667835971 L0.857142857,0 L11.1428571,0 Z M5.98079563,4.60304673 L5.86628571,4.60564286 C5.51561678,4.64443085 5.17240403,4.73138413 4.84625869,4.86371535 L4.605,4.97142857 L4.5255,5.31085714 L4.73160406,5.26292769 C5.00930159,5.20669312 5.38569048,5.16545238 5.52835714,5.30828571 C5.67235714,5.45357143 5.62457143,5.86264286 5.58664286,6.0645 L5.55435486,6.22576933 L5.55435486,6.22576933 L5.46659829,6.61470343 L5.46659829,6.61470343 L5.35721429,7.06430952 L5.35721429,7.06430952 L5.01065771,8.44289695 L5.01065771,8.44289695 L4.926124,8.80092819 C4.91456343,8.85265695 4.90442171,8.8999499 4.89593086,8.94211067 L4.87564286,9.0525 C4.80079067,9.33388111 4.8725487,9.63404067 5.06657143,9.85114286 C5.23895204,10.0095652 5.46935068,10.0893395 5.70278571,10.0714286 C6.05676745,10.0358364 6.40398118,9.95301955 6.73525147,9.82549079 L6.98057143,9.7215 L7.05985714,9.38228571 C6.91478571,9.43585714 6.29314286,9.56378571 6.048,9.36085714 C5.86706494,9.21124675 5.90227155,8.85297521 5.96790512,8.53770119 L6.04478571,8.21442857 L6.04478571,8.21442857 L6.655655,5.7414596 L6.655655,5.7414596 L6.67178571,5.62992857 L6.67178571,5.62992857 C6.74453474,5.3451461 6.67983294,5.04272864 6.49692857,4.81264286 C6.35307443,4.68505976 6.17059771,4.61177009 5.98079563,4.60304673 L5.98079563,4.60304673 Z M6.64285714,1.92857143 C6.28781695,1.92857143 6,2.21638838 6,2.57142857 C6,2.92646877 6.28781695,3.21428571 6.64285714,3.21428571 C6.99789734,3.21428571 7.28571429,2.92646877 7.28571429,2.57142857 C7.28571429,2.21638838 6.99789734,1.92857143 6.64285714,1.92857143 Z"/>
</svg>
