<svg width="40" height="40" viewBox="0 0 40 40" fill="none" xmlns="http://www.w3.org/2000/svg">
<path fill-rule="evenodd" clip-rule="evenodd" d="M20 0C14.5667 0 13.8883 0.0253906 11.755 0.119141C9.625 0.220703 8.17505 0.554688 6.90002 1.05078C5.58496 1.56055 4.46838 2.24414 3.35669 3.35742C2.245 4.46875 1.55835 5.58398 1.05005 6.90039C0.555054 8.17578 0.218384 9.625 0.119995 11.7559C0.0200195 13.8887 0 14.5664 0 20C0 25.4336 0.0250244 26.1113 0.119995 28.2441C0.219971 30.373 0.555054 31.8242 1.05005 33.0996C1.56006 34.4141 2.245 35.5312 3.35669 36.6426C4.46838 37.7539 5.58337 38.4414 6.90002 38.9492C8.17664 39.4434 9.62671 39.7812 11.755 39.8809C13.8883 39.9805 14.5667 40 20 40C25.4333 40 26.1117 39.9746 28.245 39.8809C30.3733 39.7793 31.825 39.4434 33.1 38.9492C34.4133 38.4395 35.5316 37.7539 36.6433 36.6426C37.7533 35.5312 38.4417 34.418 38.95 33.0996C39.4434 31.8242 39.7816 30.373 39.88 28.2441C39.98 26.1113 40 25.4336 40 20C40 14.5664 39.975 13.8887 39.88 11.7559C39.78 9.62695 39.4434 8.17383 38.95 6.90039C38.4399 5.58594 37.7533 4.46875 36.6433 3.35742C35.5316 2.24414 34.4183 1.55859 33.1 1.05078C31.825 0.554688 30.3733 0.21875 28.245 0.119141C26.1117 0.0195312 25.4333 0 20 0ZM20 3.60156C25.3384 3.60156 25.975 3.62695 28.0834 3.71875C30.0333 3.81055 31.0917 4.13477 31.795 4.41016C32.7317 4.77148 33.395 5.20508 34.0984 5.9043C34.7966 6.60352 35.23 7.26953 35.5917 8.20508C35.865 8.9082 36.1917 9.9668 36.28 11.918C36.375 14.0273 36.3967 14.6602 36.3967 20C36.3967 25.3398 36.3717 25.9766 36.2733 28.084C36.1716 30.0332 35.8467 31.0918 35.5717 31.7949C35.1984 32.7324 34.7733 33.3965 34.0734 34.0996C33.375 34.7969 32.7001 35.2305 31.7733 35.5918C31.0734 35.8652 29.9984 36.1934 28.0483 36.2812C25.925 36.375 25.3 36.3965 19.9501 36.3965C14.5984 36.3965 13.9734 36.373 11.8517 36.2734C9.90002 36.1719 8.82507 35.8477 8.125 35.5723C7.17664 35.1992 6.52502 34.7734 5.82666 34.0742C5.125 33.375 4.67664 32.7012 4.32666 31.7734C4.05164 31.0742 3.72839 30 3.62671 28.0488L3.6228 27.9395C3.55066 25.9258 3.52502 25.207 3.52502 19.9766C3.52502 14.75 3.55066 14.0273 3.62244 11.9961L3.62671 11.875C3.72839 9.92383 4.05164 8.85156 4.32666 8.15039C4.67664 7.20117 5.125 6.55078 5.82666 5.84961C6.52502 5.15039 7.17664 4.70117 8.125 4.35156C8.82507 4.07617 9.87671 3.75 11.8267 3.65039L11.9436 3.64648L11.9832 3.64453H12.0052C13.9912 3.57617 14.7296 3.55078 19.925 3.55078L20 3.60156ZM9.72998 20C9.72998 14.3301 14.325 9.73047 20 9.73047C25.6699 9.73047 30.27 14.3262 30.27 20C30.27 25.6699 25.6749 30.2695 20 30.2695C14.33 30.2695 9.72998 25.6758 9.72998 20ZM20 26.668C16.3167 26.668 13.3334 23.6836 13.3334 20C13.3334 16.3164 16.3167 13.334 20 13.334C23.6833 13.334 26.6667 16.3164 26.6667 20C26.6667 23.6836 23.6833 26.668 20 26.668ZM30.6766 11.7246C32 11.7246 33.0767 10.6484 33.0767 9.32422C33.0767 8 31.9983 6.92383 30.6766 6.92578C29.3533 6.92578 28.2766 8 28.2766 9.32422C28.2766 10.6465 29.3516 11.7246 30.6766 11.7246Z" fill="#8A3AB9"/>
</svg>
