<svg xmlns="http://www.w3.org/2000/svg" xmlns:xlink="http://www.w3.org/1999/xlink" width="423" height="850" viewBox="0 0 423 850">
  <defs>
    <path id="iphone_blank-a" d="M77.8326917,0 L30.9458128,0 C13.0439453,0 0,13.2322544 0,30.5143838 L0,769.500376 C0,792.034354 20.1552734,812 42.9458128,812 L332.054187,812 C354.007812,812 375,791.879271 375,769.500376 L375,32.5119237 C375,11.7980569 360.830078,0.12318076 344.054187,0 L295.268428,0 C294.806692,0.0821205069 293.237128,0.12318076 292.559739,0.12318076 C288.02832,0.12318076 286.578149,4.06140452 286.578149,13.2322544 C286.578149,22.4031044 275.921875,30.1529901 268.128242,30.1529901 L236.453202,30.1529901 L119.175012,30.1529901 L105.582031,30.1529901 C101.877348,30.1529901 88.2895291,25.8831632 87.1855469,13.2322544 C86.0815646,0.581345648 85.9246363,0.12318076 79.5413812,0.12318076 C78.8639913,0.12318076 78.2944281,0.0821205069 77.8326917,0 Z"/>
    <linearGradient id="iphone_blank-c" x1="75.295%" x2="16.753%" y1="0%" y2="155.716%">
      <stop offset="0%" stop-color="#0F94C9"/>
      <stop offset="100%" stop-color="#00BC1C"/>
    </linearGradient>
    <polygon id="iphone_blank-d" points="0 870 430 870 430 0 0 0"/>
    <linearGradient id="iphone_blank-f" x1="50%" x2="50%" y1="0%" y2="100%">
      <stop offset="0%" stop-color="#454545"/>
      <stop offset="22.628%" stop-color="#999"/>
      <stop offset="100%" stop-color="#FFF"/>
    </linearGradient>
    <linearGradient id="iphone_blank-g" x1="100%" x2="30.057%" y1="50%" y2="50%">
      <stop offset="0%"/>
      <stop offset="22.218%" stop-color="#BABABA"/>
      <stop offset="54.678%" stop-color="#000108"/>
      <stop offset="100%" stop-color="#060606"/>
    </linearGradient>
    <circle id="iphone_blank-h" cx="138" cy="31" r="8"/>
    <filter id="iphone_blank-i" width="131.2%" height="131.2%" x="-15.6%" y="-15.6%" filterUnits="objectBoundingBox">
      <feGaussianBlur in="SourceAlpha" result="shadowBlurInner1" stdDeviation="2.5"/>
      <feOffset in="shadowBlurInner1" result="shadowOffsetInner1"/>
      <feComposite in="shadowOffsetInner1" in2="SourceAlpha" k2="-1" k3="1" operator="arithmetic" result="shadowInnerInner1"/>
      <feColorMatrix in="shadowInnerInner1" result="shadowMatrixInner1" values="0 0 0 0 1   0 0 0 0 1   0 0 0 0 1  0 0 0 0.048997962 0"/>
      <feGaussianBlur in="SourceAlpha" result="shadowBlurInner2" stdDeviation=".5"/>
      <feOffset dy="1" in="shadowBlurInner2" result="shadowOffsetInner2"/>
      <feComposite in="shadowOffsetInner2" in2="SourceAlpha" k2="-1" k3="1" operator="arithmetic" result="shadowInnerInner2"/>
      <feColorMatrix in="shadowInnerInner2" result="shadowMatrixInner2" values="0 0 0 0 0.992214073   0 0 0 0 0.992214073   0 0 0 0 0.992214073  0 0 0 0.160127944 0"/>
      <feGaussianBlur in="SourceAlpha" result="shadowBlurInner3" stdDeviation=".5"/>
      <feOffset dy="-1" in="shadowBlurInner3" result="shadowOffsetInner3"/>
      <feComposite in="shadowOffsetInner3" in2="SourceAlpha" k2="-1" k3="1" operator="arithmetic" result="shadowInnerInner3"/>
      <feColorMatrix in="shadowInnerInner3" result="shadowMatrixInner3" values="0 0 0 0 1   0 0 0 0 1   0 0 0 0 1  0 0 0 0.438207654 0"/>
      <feMerge>
        <feMergeNode in="shadowMatrixInner1"/>
        <feMergeNode in="shadowMatrixInner2"/>
        <feMergeNode in="shadowMatrixInner3"/>
      </feMerge>
    </filter>
    <circle id="iphone_blank-j" cx="138" cy="31" r="6"/>
    <circle id="iphone_blank-k" cx="169" cy="31" r="8"/>
    <filter id="iphone_blank-l" width="131.2%" height="131.2%" x="-15.6%" y="-15.6%" filterUnits="objectBoundingBox">
      <feGaussianBlur in="SourceAlpha" result="shadowBlurInner1" stdDeviation="2.5"/>
      <feOffset in="shadowBlurInner1" result="shadowOffsetInner1"/>
      <feComposite in="shadowOffsetInner1" in2="SourceAlpha" k2="-1" k3="1" operator="arithmetic" result="shadowInnerInner1"/>
      <feColorMatrix in="shadowInnerInner1" result="shadowMatrixInner1" values="0 0 0 0 1   0 0 0 0 1   0 0 0 0 1  0 0 0 0.048997962 0"/>
      <feGaussianBlur in="SourceAlpha" result="shadowBlurInner2" stdDeviation=".5"/>
      <feOffset dy="1" in="shadowBlurInner2" result="shadowOffsetInner2"/>
      <feComposite in="shadowOffsetInner2" in2="SourceAlpha" k2="-1" k3="1" operator="arithmetic" result="shadowInnerInner2"/>
      <feColorMatrix in="shadowInnerInner2" result="shadowMatrixInner2" values="0 0 0 0 0.992214073   0 0 0 0 0.992214073   0 0 0 0 0.992214073  0 0 0 0.160127944 0"/>
      <feGaussianBlur in="SourceAlpha" result="shadowBlurInner3" stdDeviation=".5"/>
      <feOffset dy="-1" in="shadowBlurInner3" result="shadowOffsetInner3"/>
      <feComposite in="shadowOffsetInner3" in2="SourceAlpha" k2="-1" k3="1" operator="arithmetic" result="shadowInnerInner3"/>
      <feColorMatrix in="shadowInnerInner3" result="shadowMatrixInner3" values="0 0 0 0 1   0 0 0 0 1   0 0 0 0 1  0 0 0 0.438207654 0"/>
      <feMerge>
        <feMergeNode in="shadowMatrixInner1"/>
        <feMergeNode in="shadowMatrixInner2"/>
        <feMergeNode in="shadowMatrixInner3"/>
      </feMerge>
    </filter>
    <circle id="iphone_blank-m" cx="169" cy="31" r="6"/>
    <circle id="iphone_blank-n" cx="251" cy="31" r="5"/>
    <filter id="iphone_blank-o" width="150%" height="150%" x="-25%" y="-25%" filterUnits="objectBoundingBox">
      <feGaussianBlur in="SourceAlpha" result="shadowBlurInner1" stdDeviation="2.5"/>
      <feOffset in="shadowBlurInner1" result="shadowOffsetInner1"/>
      <feComposite in="shadowOffsetInner1" in2="SourceAlpha" k2="-1" k3="1" operator="arithmetic" result="shadowInnerInner1"/>
      <feColorMatrix in="shadowInnerInner1" result="shadowMatrixInner1" values="0 0 0 0 1   0 0 0 0 1   0 0 0 0 1  0 0 0 0.048997962 0"/>
      <feGaussianBlur in="SourceAlpha" result="shadowBlurInner2" stdDeviation=".5"/>
      <feOffset dy="1" in="shadowBlurInner2" result="shadowOffsetInner2"/>
      <feComposite in="shadowOffsetInner2" in2="SourceAlpha" k2="-1" k3="1" operator="arithmetic" result="shadowInnerInner2"/>
      <feColorMatrix in="shadowInnerInner2" result="shadowMatrixInner2" values="0 0 0 0 0.992214073   0 0 0 0 0.992214073   0 0 0 0 0.992214073  0 0 0 0.160127944 0"/>
      <feGaussianBlur in="SourceAlpha" result="shadowBlurInner3" stdDeviation=".5"/>
      <feOffset dy="-1" in="shadowBlurInner3" result="shadowOffsetInner3"/>
      <feComposite in="shadowOffsetInner3" in2="SourceAlpha" k2="-1" k3="1" operator="arithmetic" result="shadowInnerInner3"/>
      <feColorMatrix in="shadowInnerInner3" result="shadowMatrixInner3" values="0 0 0 0 1   0 0 0 0 1   0 0 0 0 1  0 0 0 0.438207654 0"/>
      <feMerge>
        <feMergeNode in="shadowMatrixInner1"/>
        <feMergeNode in="shadowMatrixInner2"/>
        <feMergeNode in="shadowMatrixInner3"/>
      </feMerge>
    </filter>
    <circle id="iphone_blank-p" cx="283" cy="31" r="8"/>
    <filter id="iphone_blank-q" width="131.2%" height="131.2%" x="-15.6%" y="-15.6%" filterUnits="objectBoundingBox">
      <feGaussianBlur in="SourceAlpha" result="shadowBlurInner1" stdDeviation="2.5"/>
      <feOffset in="shadowBlurInner1" result="shadowOffsetInner1"/>
      <feComposite in="shadowOffsetInner1" in2="SourceAlpha" k2="-1" k3="1" operator="arithmetic" result="shadowInnerInner1"/>
      <feColorMatrix in="shadowInnerInner1" result="shadowMatrixInner1" values="0 0 0 0 1   0 0 0 0 1   0 0 0 0 1  0 0 0 0.048997962 0"/>
      <feGaussianBlur in="SourceAlpha" result="shadowBlurInner2" stdDeviation=".5"/>
      <feOffset dy="1" in="shadowBlurInner2" result="shadowOffsetInner2"/>
      <feComposite in="shadowOffsetInner2" in2="SourceAlpha" k2="-1" k3="1" operator="arithmetic" result="shadowInnerInner2"/>
      <feColorMatrix in="shadowInnerInner2" result="shadowMatrixInner2" values="0 0 0 0 0.992214073   0 0 0 0 0.992214073   0 0 0 0 0.992214073  0 0 0 0.160127944 0"/>
      <feGaussianBlur in="SourceAlpha" result="shadowBlurInner3" stdDeviation=".5"/>
      <feOffset dy="-1" in="shadowBlurInner3" result="shadowOffsetInner3"/>
      <feComposite in="shadowOffsetInner3" in2="SourceAlpha" k2="-1" k3="1" operator="arithmetic" result="shadowInnerInner3"/>
      <feColorMatrix in="shadowInnerInner3" result="shadowMatrixInner3" values="0 0 0 0 1   0 0 0 0 1   0 0 0 0 1  0 0 0 0.438207654 0"/>
      <feMerge>
        <feMergeNode in="shadowMatrixInner1"/>
        <feMergeNode in="shadowMatrixInner2"/>
        <feMergeNode in="shadowMatrixInner3"/>
      </feMerge>
    </filter>
    <linearGradient id="iphone_blank-r" x1="100%" x2="0%" y1="50%" y2="50%">
      <stop offset="0%" stop-color="#FFF" stop-opacity="0"/>
      <stop offset="100%" stop-color="#FFF" stop-opacity=".55"/>
    </linearGradient>
  </defs>
  <g fill="none" fill-rule="evenodd">
    <path fill="#000105" d="M53.4888889,0 L361.511111,0 C391.052209,0 415,24.2553427 415,54.1758242 L415,795.824176 C415,825.744657 391.052209,850 361.511111,850 L53.4888889,850 C23.9477913,850 0,825.744657 0,795.824176 L0,54.1758242 C0,24.2553427 23.9477913,0 53.4888889,0 Z"/>
    <g transform="translate(24 18)">
      <mask id="iphone_blank-b" fill="#fff">
        <use xlink:href="#iphone_blank-a"/>
      </mask>
      <use fill="#E3ECF6" xlink:href="#iphone_blank-a"/>
      <g mask="url(#iphone_blank-b)">
        <g transform="translate(-335 -26)">
          <polygon fill="url(#iphone_blank-c)" points="170.5 -170.5 1010.5 -170.5 1010.5 1010.5 170.5 1010.5" transform="rotate(90 590.5 420)"/>
          <g opacity=".777" transform="translate(304 16)">
            <mask id="iphone_blank-e" fill="#fff">
              <use xlink:href="#iphone_blank-d"/>
            </mask>
            <polygon fill="#1B1B1B" points="0 870 430 870 430 0 0 0" mask="url(#iphone_blank-e)"/>
          </g>
        </g>
      </g>
    </g>
    <path fill="url(#iphone_blank-f)" fill-opacity=".65" d="M364.862669,0 L54.1373309,0 C39.6303884,0.935420149 26.2512781,7.93542015 14,21 C21.878964,13.7272451 35.9319006,3.99513752 54.5112799,3.99513752 C252.905405,3.99513752 356.231218,3.99513752 364.48872,3.99513752 C383.068099,3.99513752 397.121036,13.7272451 405,21 C392.748722,7.93542015 379.369612,0.935420149 364.862669,0 Z" opacity=".596"/>
    <path fill="url(#iphone_blank-g)" d="M410.775295,787.391083 L410.775295,58.6089171 C410.775295,39.0550654 403.979196,31.8265548 399.924969,27.1849666 C395.870741,22.5433784 395.698183,20.1759601 401.52341,23.6804634 C407.348637,27.1849666 419,37.3920246 419,58.6089171 L419,787.391083 C419,808.607975 407.348637,818.815033 401.52341,822.319537 C395.698183,825.82404 395.870741,823.456622 399.924969,818.815033 C403.979196,814.173445 410.775295,806.944935 410.775295,787.391083 Z" opacity=".65"/>
    <path fill="url(#iphone_blank-g)" d="M17.7752949,787.391083 L17.7752949,58.6089171 C17.7752949,39.0550654 10.9791963,31.8265548 6.9249689,27.1849666 C2.87074147,22.5433784 2.6981825,20.1759601 8.52340983,23.6804634 C14.3486371,27.1849666 26,37.3920246 26,58.6089171 L26,787.391083 C26,808.607975 14.3486371,818.815033 8.52340983,822.319537 C2.6981825,825.82404 2.87074147,823.456622 6.9249689,818.815033 C10.9791963,814.173445 17.7752949,806.944935 17.7752949,787.391083 Z" opacity=".65" transform="matrix(-1 0 0 1 30 0)"/>
    <path fill="#000" d="M2 112L6 112C7.1045695 112 8 112.895431 8 114L8 144C8 145.104569 7.1045695 146 6 146L2 146C.8954305 146 1.3527075e-16 145.104569 0 144L0 114C-1.3527075e-16 112.895431.8954305 112 2 112zM2 172L6 172C7.1045695 172 8 172.895431 8 174L8 234C8 235.104569 7.1045695 236 6 236L2 236C.8954305 236 1.3527075e-16 235.104569 0 234L0 174C-1.3527075e-16 172.895431.8954305 172 2 172zM417 152L421 152C422.104569 152 423 152.895431 423 154L423 230C423 231.104569 422.104569 232 421 232L417 232C415.895431 232 415 231.104569 415 230L415 154C415 152.895431 415.895431 152 417 152z"/>
    <g opacity=".496">
      <use fill="#000" xlink:href="#iphone_blank-h"/>
      <use fill="#000" filter="url(#iphone_blank-i)" xlink:href="#iphone_blank-h"/>
    </g>
    <circle cx="138" cy="31" r="5.714" fill="#141414"/>
    <circle cx="138" cy="31" r="5" fill="#334B80" stroke="#192E65" stroke-linejoin="square" stroke-width="2"/>
    <use stroke="#272149" xlink:href="#iphone_blank-j"/>
    <circle cx="138" cy="31" r="1.636" fill="#14285E"/>
    <circle cx="136.364" cy="29.364" r="1.091" fill="#92B6D7"/>
    <circle cx="139.636" cy="32.636" r="1.091" fill="#516C9D"/>
    <g opacity=".496">
      <use fill="#000" xlink:href="#iphone_blank-k"/>
      <use fill="#000" filter="url(#iphone_blank-l)" xlink:href="#iphone_blank-k"/>
    </g>
    <circle cx="169" cy="31" r="5.714" fill="#141414"/>
    <circle cx="169" cy="31" r="5" fill="#334B80" stroke="#192E65" stroke-linejoin="square" stroke-width="2"/>
    <use stroke="#272149" xlink:href="#iphone_blank-m"/>
    <circle cx="169" cy="31" r="1.636" fill="#14285E"/>
    <circle cx="167.364" cy="29.364" r="1.091" fill="#92B6D7"/>
    <circle cx="170.636" cy="32.636" r="1.091" fill="#516C9D"/>
    <g opacity=".496">
      <use fill="#000" xlink:href="#iphone_blank-n"/>
      <use fill="#000" filter="url(#iphone_blank-o)" xlink:href="#iphone_blank-n"/>
    </g>
    <circle cx="251" cy="31" r="3.571" fill="#141414"/>
    <circle cx="252.071" cy="31.357" r="1.071" fill="#141414"/>
    <circle cx="283" cy="31" r="8" fill="#181819"/>
    <g opacity=".496">
      <use fill="#000" xlink:href="#iphone_blank-p"/>
      <use fill="#000" filter="url(#iphone_blank-q)" xlink:href="#iphone_blank-p"/>
    </g>
    <circle cx="283" cy="31" r="6" fill="#1E1939"/>
    <circle cx="283" cy="31" r="3.818" fill="#342B64"/>
    <circle cx="283" cy="31" r="1.636" fill="#51439F"/>
    <circle cx="281.364" cy="29.364" r="1.091" fill="#FFF" opacity=".34"/>
    <rect width="45" height="7" x="189" y="28" fill="#181819" rx="3.5" transform="matrix(-1 0 0 1 423 0)"/>
    <path fill="url(#iphone_blank-r)" d="M37.0652498,800.248865 C37.0652498,807.3466 39.7451172,819.070974 45.9863281,824.024638 C41.6597518,821.901877 38.6848004,818.712173 35.1915662,815.17253 C28.2884321,808.17677 24,798.161462 24,790.680938 L24,48.1644307 C24,40.6841635 28.2884321,31.6911887 35.1915662,24.6954286 C38.6848004,21.1555289 41.9487305,21.9507628 47,20 C40.4462891,25.5698764 37.0652498,31.4987694 37.0652498,38.596504 L37.0652498,800.248865 Z" opacity=".3"/>
    <g transform="translate(23 24)">
      <rect width="375" height="20"/>
      <path fill="#FFF" d="M350,9 L345.090909,15 L346.727,10.5 L344,10.5 L348.363636,5 L347.173,9 L350,9 Z"/>
      <g transform="translate(315 4)">
        <rect width="20" height="7.5" x="2" y="2.5" fill="#4CD964" rx="1"/>
        <path fill="#FFF" d="M25.0004626 4.56312786C25.8628415 4.7853101 26.5 5.56824687 26.5 6.5 26.5 7.43175313 25.8628415 8.2146899 25.0004626 8.43687214zM22 .5C23.1045695.5 24 1.3954305 24 2.5L24 10C24 11.1045695 23.1045695 12 22 12L2 12C.8954305 12 1.3527075e-16 11.1045695 0 10L0 2.5C-1.3527075e-16 1.3954305.8954305.5 2 .5L22 .5zM22 1.5L2 1.5C1.44771525 1.5 1 1.94771525 1 2.5L1 2.5 1 10C1 10.5522847 1.44771525 11 2 11L2 11 22 11C22.5522847 11 23 10.5522847 23 10L23 10 23 2.5C23 1.94771525 22.5522847 1.5 22 1.5L22 1.5z"/>
      </g>
      <path fill="#FFF" d="M55.5,11.5 C56.4664983,11.5 57.3414983,11.8917508 57.9748737,12.5251263 L55.5,15 L53.0251263,12.5251263 C53.6585017,11.8917508 54.5335017,11.5 55.5,11.5 Z M55.5,8.5 C57.2954257,8.5 58.9208312,9.22794288 60.0971775,10.4047895 L59.0355339,11.4644661 C58.1307119,10.5596441 56.8807119,10 55.5,10 C54.1192881,10 52.8692881,10.5596441 51.9644661,11.4644661 L50.9038059,10.4038059 C52.0800746,9.22753728 53.7050746,8.5 55.5,8.5 Z M55.5,5.5 C58.1233526,5.5 60.4983526,6.56332372 62.2175144,8.28248558 L61.1578535,9.34414518 C59.7100594,7.89584262 57.7096473,7 55.5,7 C53.290861,7 51.290861,7.8954305 49.8431458,9.34314575 L48.7824856,8.28248558 C50.5016474,6.56332372 52.8766474,5.5 55.5,5.5 Z"/>
      <g fill="#FFF" transform="translate(26 5)">
        <rect width="3" height="10" x="13.5" rx="1"/>
        <rect width="3" height="8" x="9" y="2" rx="1"/>
        <rect width="3" height="6" x="4.5" y="4" rx="1"/>
        <rect width="3" height="5" y="5" rx="1"/>
      </g>
    </g>
    <path fill="#000" d="M2,252 L6,252 C7.1045695,252 8,252.895431 8,254 L8,314 C8,315.104569 7.1045695,316 6,316 L2,316 C0.8954305,316 1.3527075e-16,315.104569 0,314 L0,254 C-1.3527075e-16,252.895431 0.8954305,252 2,252 Z"/>
  </g>
</svg>
