<?xml version="1.0" encoding="UTF-8"?>
<svg width="50px" height="50px" viewBox="0 0 50 50" version="1.1" xmlns="http://www.w3.org/2000/svg" xmlns:xlink="http://www.w3.org/1999/xlink">
    <!-- Generator: Sketch 56.3 (81716) - https://sketch.com -->
    <title>lifestyle / legal</title>
    <desc>Created with Sketch.</desc>
    <g id="lifestyle-/-legal" stroke="none" stroke-width="1" fill="none" fill-rule="evenodd">
        <g id="scales" transform="translate(0.000000, 1.000000)" fill="#999999" fill-rule="nonzero">
            <path d="M48.4460523,30.6571965 L42.6033836,7.6912569 L47.2441319,6.83110934 C48.4190312,6.61599858 49.3933222,5.77129182 49.7999991,4.61518193 C50.2066759,3.45907205 49.9839546,2.16719964 49.2157322,1.22620055 C48.4475098,0.28520146 47.2504974,-0.161964167 46.0755981,0.0531466392 L29.0984723,3.13247487 C27.7530126,1.73367829 25.827374,1.10388929 23.9454234,1.44714637 C22.0634728,1.79040346 20.4645735,3.06304811 19.6667357,4.85276998 L2.75638312,8.03531592 C0.940146223,8.36784838 -0.270619503,10.1547178 0.0520621791,12.0264006 C0.374743861,13.8980833 2.10867996,15.1458111 3.92491686,14.8132786 L8.78267854,13.9187252 L1.70470275,35.8180818 L0.03536884,35.8180818 C0.03536884,41.9936847 4.89337947,47 10.8860393,47 C16.8786991,47 21.7367097,41.9936847 21.7367097,35.8180818 L20.0673758,35.8180818 L14.2414004,12.9037511 L20.8352694,11.7339504 C22.1808986,13.125174 24.1018223,13.7500655 25.9786572,13.4071345 C27.8554922,13.0642035 29.4508462,11.7968259 30.2503127,10.0136553 L37.1947417,8.74063691 L30.0833793,30.6571965 L28.297192,30.6571965 C28.297192,36.8327994 33.1552026,41.8391147 39.1478624,41.8391147 C45.1405222,41.8391147 49.9985328,36.8327994 49.9985328,30.6571965 L48.4460523,30.6571965 Z M4.5687954,35.8180818 L11.7008629,13.7004348 L17.3535232,35.8180818 L4.5687954,35.8180818 Z M32.9474719,30.6571965 L40.0795394,8.53954946 L45.7321997,30.6571965 L32.9474719,30.6571965 Z" id="Layer_2"></path>
        </g>
    </g>
</svg>