<svg width="40" height="40" viewBox="0 0 40 40" fill="none" xmlns="http://www.w3.org/2000/svg">
<path fill-rule="evenodd" clip-rule="evenodd" d="M2.95166 0H37.0416C38.6666 0 40 1.28906 40 2.88086V37.1191C40 38.7109 38.6666 40 37.0366 40H2.95166C1.31995 40 0 38.7109 0 37.1191V2.88086C0 1.28906 1.31995 0 2.95166 0ZM5.45667 8.94531C5.45667 10.8438 6.98828 12.3887 8.89502 12.3887C10.7933 12.3887 12.335 10.8438 12.335 8.94531C12.335 7.04883 10.795 5.50781 8.89502 5.50781C6.98999 5.50781 5.45667 7.04883 5.45667 8.94531ZM28.1549 34.0859H34.0782L34.08 23.6094C34.08 18.4668 32.97 14.5176 26.9683 14.5176C24.08 14.5176 22.1466 16.1016 21.3517 17.6016H21.2749V15H15.585V34.0859H21.5083V24.6406C21.5083 22.1504 21.98 19.7422 25.0682 19.7422C28.11 19.7422 28.1549 22.5918 28.1549 24.8047V34.0859ZM5.92505 34.0859V15H11.865V34.0859H5.92505Z" fill="#0077B5"/>
</svg>
