<svg xmlns="http://www.w3.org/2000/svg" xmlns:xlink="http://www.w3.org/1999/xlink" width="56" height="74" viewBox="0 0 56 74">
  <defs>
    <polygon id="black-a" points="0 .017 55.91 .017 55.91 73.674 0 73.674"/>
    <polygon id="black-c" points=".114 .1 9.988 .1 9.988 19.4 .114 19.4"/>
  </defs>
  <g fill="none" fill-rule="evenodd">
    <g transform="translate(0 .14)">
      <mask id="black-b" fill="#fff">
        <use xlink:href="#black-a"/>
      </mask>
      <path fill="#FFF" d="M54.6377412,26.3740068 C54.0879373,26.1912753 53.7280941,26.0715924 53.2705255,25.9196812 C53.3171137,26.6171273 53.3517804,27.1371611 53.3864471,27.6573514 C53.4730353,27.6920829 53.5594667,27.7268144 53.6460549,27.7617023 C53.9466039,27.3410131 54.2471529,26.9204803 54.6377412,26.3740068 L54.6377412,26.3740068 Z M52.6209569,33.9407805 C53.488251,32.9656389 54.1395451,30.1832076 53.7651137,29.2950512 C53.5680941,30.8180744 52.3881725,32.096882 52.6209569,33.9407805 L52.6209569,33.9407805 Z M14.7451922,0.0168651163 C14.9622902,0.129977167 15.1778196,0.24637463 15.3971137,0.355575476 C16.9075451,1.10856068 18.4407216,1.82024355 19.9218196,2.62704693 C20.8011922,3.10609133 20.9831529,3.13112304 21.3552314,2.17804059 C21.5840941,1.59182918 21.6904471,0.958057505 21.8957804,0.179101903 C22.7026824,0.645630444 23.4377412,1.0236093 24.1222902,1.47715264 C25.2666039,2.23530063 25.7528784,2.22200254 26.8099765,1.28300042 C27.2170353,0.921448626 27.6190745,0.554264693 28.1800157,0.0487805497 C28.7803294,0.947888372 29.4055843,1.73482283 29.8560941,2.61093277 C30.160251,3.20246342 30.4171922,3.34045074 30.9834667,3.01660296 C31.7748392,2.56384186 32.5862902,2.14456068 33.5238588,2.41083552 C33.5238588,2.91037463 33.4325647,3.39051416 33.5412706,3.82027738 C33.8534275,5.05574884 34.7836235,5.47252685 35.9401725,4.94326258 C36.4286431,4.7196981 36.8940549,4.44575729 37.4717804,4.14099619 C37.4717804,4.80402368 37.4747608,5.33328795 37.4711529,5.86255222 C37.4604863,7.51464524 38.1760941,8.86541903 39.3963294,9.88593066 C40.7127216,10.9867002 42.1105255,12.0039264 43.5480157,12.943085 C44.8074667,13.7658461 45.5299765,14.7605438 45.5218196,16.3206452 C45.5193098,16.8134571 45.875702,17.4092118 46.2446431,17.7854698 C47.9312314,19.5051484 50.0313098,20.6185903 52.2046431,21.5948271 C53.4545255,22.1561632 54.6104471,22.7858672 55.3742118,24.0094486 C55.869898,24.8038926 56.0940549,25.6124169 55.7321725,26.4464423 C54.9655843,28.2133683 54.6978196,30.0818292 54.411702,31.9559222 C54.2247216,33.1805987 53.6393098,34.2200406 52.7542902,35.0756558 C52.2270745,35.5852076 52.1985255,36.080992 52.6229961,36.6468651 C52.9354667,37.0634867 53.2098196,37.5118672 53.5509961,37.9029877 C54.0714667,38.5001505 54.0603294,39.0894909 53.7147608,39.7680068 C52.9229176,41.3226326 51.4821333,41.8409455 49.9367216,42.2577235 C48.793349,42.5660829 47.7193098,42.2800956 46.6281725,42.0354106 C46.4532706,41.9961421 46.2744471,41.9753345 46.0705255,41.9415416 C45.6044863,42.9542309 45.7850353,43.949085 46.0399373,44.9286072 C46.2223686,45.6296516 46.4548392,46.3217784 46.7196235,46.9965395 C47.6292706,49.3143197 47.3699765,51.5343197 46.1902118,53.6773471 C45.8518588,54.2920321 45.488251,54.9004592 45.0697412,55.4625776 C43.4645647,57.6185903 42.4267608,59.987529 42.2007216,62.6870427 C42.181898,62.9118588 42.0193882,63.1247848 41.9235451,63.3431865 C41.7210353,63.1665564 41.3974275,63.0234063 41.3371922,62.8071949 C41.1092706,61.988345 40.9160157,61.1522858 40.8060549,60.3101252 C40.6921725,59.4374571 40.7321725,58.5444507 40.6134275,57.6725649 C40.5771922,57.4064465 40.2768,57.0592879 40.0248784,56.980751 C39.8578196,56.9286537 39.4838588,57.240455 39.339702,57.4737192 C39.0410353,57.9569877 38.8250353,58.4926664 38.5936627,59.0148905 C38.4995451,59.2270342 38.5031529,59.4953429 38.3746824,59.6763535 C38.1536627,59.9879983 37.8639373,60.2514571 37.6030745,60.5350977 C37.5182118,60.1780829 37.3673098,59.822789 37.3591529,59.4642097 C37.3036235,57.0018715 36.4377412,54.9153218 34.5365647,53.3054698 C34.2476235,53.0606283 33.8793098,52.9093429 33.3296627,52.5870596 C33.4942118,53.0657911 33.5673098,53.3259645 33.6713098,53.5733091 C34.4708392,55.4755628 34.7782902,57.4599518 34.7273098,59.5153683 C34.6637804,62.0742351 34.896251,64.602751 35.5699765,67.083863 C36.2342902,69.5302436 37.7219765,71.3195416 39.8959373,72.5786368 C40.0929569,72.6926875 40.2753882,72.8313006 40.477898,72.9674106 C40.0932706,73.6526537 39.4468392,73.7028736 38.8797804,73.6643873 C36.0418196,73.4725818 33.6841725,72.1659264 31.6891922,70.2447425 C31.1386039,69.7145395 30.8959373,68.8282605 30.6306824,68.0644803 C30.549898,67.8321548 30.8109176,67.2557996 31.0131137,67.2019814 C31.3566431,67.1106156 31.8673882,67.1952541 32.1440941,67.4127171 C32.5158588,67.7052753 32.7183686,68.2049708 33.0184471,68.5964042 C33.4662902,69.1805818 33.9360941,69.7480195 34.3964863,70.3226537 C34.4747608,70.2804127 34.5531922,70.2378588 34.6316235,70.1956178 C34.4780549,69.137715 34.3022118,68.0826283 34.1754667,67.0215966 C33.9102118,64.8025353 33.7530353,62.5670469 33.3931922,60.3639433 C33.1318588,58.7634782 32.6273882,57.2014994 32.2030745,55.6298207 C32.1353098,55.3791907 31.9199373,55.1682985 31.7301333,54.8726114 C31.0553098,56.2502943 30.4595451,57.5358292 29.8000941,58.7878841 C29.3764078,59.5921844 28.8954667,60.3734867 28.3668392,61.1131738 C28.1287216,61.4464085 27.7119373,61.6526072 27.3760941,61.9166918 C27.3004863,61.8486368 27.2247216,61.7807383 27.1491137,61.7129962 C27.1925647,61.5014782 27.1900549,61.2658672 27.2865255,61.082197 C28.3610353,59.0356981 28.0728784,57.0001505 27.2091922,54.9935459 C26.5790745,53.5299729 25.5607216,52.3886833 24.2727216,51.4124465 C22.9288784,50.3938123 21.7111529,49.2046495 20.4774275,48.0484973 C19.8669176,47.4768355 19.6038588,46.7211907 19.5947608,45.8665142 C19.5850353,44.9570808 19.5577412,44.0431104 19.4551529,43.1407171 C19.3285647,42.0249285 18.995702,41.8536178 17.8910745,41.9119729 C16.9604078,41.9612541 16.0160941,41.9132245 15.0904471,41.8032414 C14.8018196,41.7688228 14.5542902,41.3920956 14.2880941,41.1721294 C14.4871529,40.9543535 14.6575059,40.6980913 14.8901333,40.5249032 C16.6087216,39.2465649 16.9817412,37.4327044 16.6811922,35.5066706 C16.505349,34.3796178 15.9422118,33.3037235 15.4923294,32.2303323 C14.8018196,30.5819941 14.1508392,28.9214529 14.6051137,27.1033683 C14.8289569,26.2075459 15.2430745,25.3591273 15.5527216,24.5382436 C14.3873882,23.5981463 13.1196235,22.6812034 11.9765647,21.629715 C9.92793725,19.7452964 8.73421176,17.3198799 7.89562353,14.7111061 C7.70832941,14.1286495 7.63287843,13.5072372 8.38503529,13.1913683 C11.6827608,11.8060195 15.0066824,10.4873175 18.6651922,10.5286199 C20.1006431,10.5448905 21.5285647,10.7498376 22.7538196,11.6293894 C23.6380549,12.2642562 23.9180549,12.8629835 23.7702902,13.9642224 C23.6035451,13.8471992 23.4485647,13.7735121 23.3398588,13.6571146 C21.7597804,11.9641886 19.7588392,11.4757573 17.5238588,11.5525734 C15.355702,11.6271992 13.3128784,12.1987044 11.313349,12.9704634 C10.1240157,13.4294825 10.0244078,13.6557066 10.285898,14.912455 C10.7643294,17.2117742 11.8331922,19.216345 13.4134275,20.9335205 C14.4457412,22.0554106 15.7749961,22.706548 17.2703686,23.0272668 C17.6344471,23.1054909 17.9809569,23.2652245 18.4005647,23.4099391 C18.265349,23.6494613 18.2184471,23.8065353 18.1149176,23.904159 C16.4091922,25.5149497 15.7048784,27.5458038 15.8708392,29.8160237 C15.9375059,30.7274909 16.4485647,31.6133006 16.7949176,32.4959814 C17.1909961,33.5053852 17.6946824,34.4767721 18.0316235,35.5038545 C18.4223686,36.6948947 18.1754667,37.8693514 17.6283294,38.9787256 C17.3888,39.4646537 17.1284078,39.9404127 16.8499765,40.4735882 C18.2666039,40.8227805 19.2015059,39.7209159 20.5321725,39.3992584 C20.643702,40.1938588 20.7931922,40.940586 20.8441725,41.6940406 C20.9304471,42.9656516 20.9120941,44.245085 21.0256627,45.513567 C21.0697412,46.0052837 21.2750745,46.5245353 21.5411137,46.9474148 C22.4380549,48.3735966 23.6096627,49.5532161 24.9679373,50.5583958 C26.8372706,51.9418672 28.4548392,53.5332584 29.2593882,55.9460025 C29.5255843,55.5237488 29.8262902,55.1187044 30.0479373,54.674548 C30.2673882,54.2349285 30.433349,53.7637066 30.577349,53.292641 C31.2736627,51.0139729 33.5754667,51.2752414 34.9760941,52.1793556 C36.2275451,52.9872541 37.0664471,54.1168101 37.8032314,55.358696 C37.9075451,55.5343873 38.0364863,55.695529 38.1870745,55.9109581 C38.4416627,55.7036643 38.6714667,55.5370469 38.8769569,55.3447721 C39.4044863,54.8513345 40.0101333,54.5068355 40.7175843,54.8228609 C41.4313098,55.1413894 41.6267608,55.8543239 41.712251,56.5685099 C41.7728,57.0755586 41.7764078,57.5893345 41.8171922,58.306493 C42.059702,58.0028271 42.1804863,57.8845522 42.2626824,57.7437488 C42.9950745,56.4888778 43.6529569,55.1847256 44.4629961,53.9825776 C45.9320157,51.8023154 46.2512314,49.4947044 45.5520941,46.9929412 C45.0708392,45.2707594 44.6581333,43.5293345 44.163702,41.8112203 C44.0874667,41.5466664 43.773898,41.2800786 43.5044078,41.152104 C41.3629176,40.1353471 39.1988392,39.1656812 37.0568784,38.149863 C36.3999373,37.8383746 35.8102902,37.3865522 35.1547608,37.0717784 C33.4700549,36.2629412 32.5381333,34.9021548 32.1302902,33.1313175 C31.7983686,31.6908989 31.4515451,30.25314 31.161349,28.8042732 C31.1144471,28.5694444 31.3284078,28.2828313 31.4217412,28.0201548 C31.5629176,28.233863 31.760251,28.4295797 31.8368,28.664252 C32.4702118,30.6087467 33.0816627,32.5604381 33.6995451,34.5100956 C34.0145255,35.5038545 34.7497412,36.1589032 35.6404078,36.550493 C38.8526431,37.9630638 42.0719373,39.3659349 45.3384471,40.6456812 C46.4250353,41.0710638 47.653898,41.2137446 48.8320941,41.3085522 C50.3226039,41.4287044 51.553349,40.7181167 52.6134275,39.720603 C53.1227608,39.2410892 53.1544471,38.7681463 52.7232314,38.1442309 C52.0462118,37.1647087 51.4688,36.1125945 50.9009569,35.0632964 C50.6697412,34.6361928 50.4055843,34.464882 49.9729569,34.6637277 C48.8225255,35.1926791 47.6686431,35.716937 46.5412706,36.2920406 C45.5475451,36.7987763 44.6316235,37.4907467 43.5961725,37.8693514 C43.0090353,38.0839983 42.224251,37.9336516 41.5767216,37.7643746 C40.8567216,37.576011 40.1721725,37.2141463 39.5120941,36.8549412 C39.2611137,36.7185184 39.1211922,36.3791822 38.9306039,36.132307 C39.2074667,36.0412541 39.5000157,35.8392795 39.7589961,35.8755755 C43.4385255,36.3918545 46.8330353,35.3990342 50.163702,34.0008567 C51.0030745,33.6483789 51.6131137,33.1200533 51.977349,32.2796135 C52.2350745,31.684641 52.5960157,31.1337869 52.8484078,30.536937 C53.3486431,29.3535628 53.017349,28.5828989 51.8311529,28.0986918 C51.3269961,27.8928059 50.7961725,27.7501252 50.2965647,27.5348524 C49.1337412,27.0339053 48.3124078,26.1990977 47.9662118,24.9651907 C47.8912314,24.6979772 47.9552314,24.3919645 47.9552314,23.9216812 C48.5648,24.2294148 49.0015059,24.4410892 49.4300549,24.668252 C50.3009569,25.1297742 51.1949176,25.3275247 52.2071529,25.2460152 C53.0888784,25.1751442 53.9906824,25.3511484 54.9302902,25.4217066 C54.9414275,24.6910934 54.6123294,24.0322901 54.0305255,23.5870385 C53.3364078,23.0558968 52.5740549,22.5846748 51.7812706,22.21577 C49.181898,21.0061125 46.7147608,19.6206072 44.856251,17.3733852 C44.6264471,17.0956896 44.4251922,16.6937742 44.4229961,16.3480237 C44.416251,15.2284803 43.8815059,14.49114 42.9594667,13.9448228 C41.8175059,13.2683408 40.665349,12.604844 39.5607216,11.8711019 C37.6462118,10.5994909 36.3867608,8.88575729 36.2044863,6.5132203 C35.4113882,6.34394334 34.5680941,6.33627738 33.921349,5.97675941 C33.2910745,5.62631543 32.8617412,4.91604059 32.2281725,4.24018436 C31.4383686,4.86957548 30.5422118,5.58360507 29.5864471,6.34519493 C29.193349,5.00459027 28.8208,3.73423087 28.3935059,2.27754165 C27.8945255,2.7041759 27.5677804,2.98703425 27.2371137,3.2653556 C26.4688,3.91242537 26.1340549,3.88144863 25.3252706,3.32026892 C24.5903686,2.81009133 23.7889569,2.39566004 22.9320157,1.88892431 C22.4524863,3.49987146 22.6024471,5.11207019 21.6164078,6.46331332 C19.6248784,4.89351205 18.0896627,2.76174884 15.4880941,1.9596389 C15.1776627,2.91444228 14.9142902,3.82622241 14.5855059,4.71390951 C13.9935059,6.31124567 13.9836235,6.29372347 12.5161725,5.47283975 C10.1009569,4.12190951 7.50393725,3.69277209 4.7833098,3.95357125 C5.17327059,5.1591611 5.55146667,6.32861142 5.9580549,7.58598562 C5.26472157,7.68501734 4.75789804,7.75713996 4.25107451,7.82941903 C2.88448627,8.02450994 1.71570196,8.57849302 0.824407843,9.66502579 C0.577662745,9.96603214 0.276329412,10.2221378 9.41176471e-05,10.4988947 L9.41176471e-05,8.46506808 C1.25546667,7.8014148 2.51868235,7.15152896 3.7555451,6.45517801 C3.90283922,6.37226047 4.0233098,5.98552051 3.95507451,5.82453531 C3.71585882,5.26163467 3.45170196,4.68731332 3.08040784,4.20701734 C2.47287843,3.42117801 2.49625098,3.1650723 3.46974118,2.98124567 C6.31068235,2.44431543 9.16103529,2.61531332 12.0128,2.92961776 C13.8113882,3.12799408 13.4057412,3.2260871 13.7826824,1.65691163 C13.8184471,1.50766004 13.7704471,1.33509767 13.8189176,1.19288626 C13.9546039,0.795351374 14.1205647,0.408142072 14.2746039,0.0168651163 L14.7451922,0.0168651163 Z" mask="url(#black-b)"/>
    </g>
    <path fill="#FFF" d="M.000031372549 27.8478114C.510776471 27.4541877 1.13305098 27.1455154 1.51140392 26.6511391 2.61163922 25.2141624 3.61399216 23.7025598 4.65524706 22.220526 4.71422745 22.1366698 4.76724706 22.0426444 4.84458039 21.9795958 4.89540392 21.9382934 4.98512941 21.9447078 5.21320784 21.897304 5.16944314 22.3944964 5.1910902 22.8522638 5.08175686 23.2765514 4.41069804 25.8785979 2.96050196 28.057452 1.23783529 30.0653082.938698039 30.4138748.418227451 30.573452.000031372549 30.8203273L.000031372549 27.8478114zM10.4242039 72.8969463C9.48412549 72.8969463 8.54420392 72.9057074 7.60428235 72.8944431 6.51283137 72.8816144 6.26451765 72.4767264 6.83722353 71.5442951 8.89134118 68.1992761 10.2599686 64.5565362 11.4852235 60.8596651 12.7758902 56.9648871 13.3354196 52.9365023 13.4987137 48.8453818 13.5117333 48.5176228 13.7482824 48.1987814 13.8809882 47.8758723 14.1614588 48.1377666 14.5821647 48.3485023 14.7004392 48.6698469 15.7784 51.5991831 16.5368314 54.598608 16.8121255 57.7277285 17.2579294 62.7952423 16.3567529 67.6000795 14.2770667 72.2179611 14.0569882 72.7067053 13.8028706 72.947792 13.2386353 72.9222909 12.3023216 72.8800499 11.3624 72.9108702 10.4242039 72.9108702L10.4242039 72.8969463zM11.1200471 26.4641366C11.1200471 27.1769146 11.2163608 27.9048681 11.1046745 28.599811 10.2776941 33.7482085 9.4744 38.9030203 7.60130196 43.8150245 6.59785098 46.4466397 5.38185098 48.9670203 3.86028235 51.3397137 3.34216471 52.1476123 3.08396863 52.1641958 2.47032157 51.4052655 2.29055686 51.1827962 2.12538039 50.9476545 1.9678902 50.7087581.773537255 48.8967751.841929412 48.757849 2.08208627 47.0251852 3.00051765 45.741997 3.84412549 44.3807412 4.53196863 42.9630076 6.70812549 38.4776376 8.79079216 33.9470541 9.96459608 29.0685298 10.1161255 28.4385129 10.2130667 27.7945721 10.3860863 27.171126 10.4664 26.8818533 10.6684392 26.6262169 10.8152627 26.3552486 10.9169098 26.3915446 11.0185569 26.4278406 11.1200471 26.4641366"/>
    <g transform="translate(19.608 54.584)">
      <mask id="black-d" fill="#fff">
        <use xlink:href="#black-c"/>
      </mask>
      <path fill="#FFF" d="M0.17932549,0.131807611 C0.424031373,0.131807611 0.708737255,0.0502980973 0.905756863,0.147139535 C1.48269804,0.430154334 2.10136471,0.700496829 2.56677647,1.12509725 C4.55814902,2.94239958 5.21728627,5.27222622 4.80661961,7.8634778 C4.11093333,12.2516934 5.87861961,15.6071945 9.03689412,18.4335877 C9.28928627,18.6594989 9.55501176,18.8705476 9.80803137,19.095833 C9.86136471,19.1433932 9.88630588,19.2223996 9.98763922,19.3940233 C8.23673725,19.3940233 6.55579608,19.4170211 4.87673725,19.3694609 C4.62669804,19.3622643 4.34293333,19.0611015 4.14779608,18.8337822 C2.43861961,16.8428224 2.10418824,14.4842093 2.25869804,11.9641416 C2.40316863,9.60943975 2.55265882,7.2458203 2.4963451,4.89096195 C2.45336471,3.08977378 1.57744314,1.56456025 0.114384314,0.415291755 C0.136188235,0.32079704 0.157678431,0.226302326 0.17932549,0.131807611" mask="url(#black-d)"/>
    </g>
    <path fill="#FFF" d="M37.9827137,20.2971205 C38.0972235,19.4793658 37.5449098,19.4699789 37.0740078,19.4391586 C36.9584,19.4314926 36.6969098,19.7170106 36.7226353,19.7872558 C36.9337725,20.3609514 37.4140863,20.3676786 37.9827137,20.2971205 M33.169851,18.9701268 C35.2070275,18.9072347 37.3044392,19.1505116 39.1657725,17.8038055 C39.2073412,18.0603805 39.2832627,18.2346638 39.2523608,18.3873573 C39.098949,19.1428457 39.3060078,19.7637886 39.8542431,20.3015011 C39.9929098,20.437611 40.103498,20.6524144 40.1278118,20.8437505 C40.1737725,21.2059281 40.0545569,21.3351543 39.6224,21.2220423 C39.1599686,21.1009514 38.6175373,21.0253869 38.1718902,21.1499197 C37.1118118,21.4462326 36.7078902,21.4274588 36.065851,20.5563552 C35.5168314,19.8115053 34.7623216,19.5730782 33.9248314,19.4275814 C33.6597333,19.3815856 33.4005961,19.3014841 33.1386353,19.2370275 C33.1489882,19.1480085 33.159498,19.0589894 33.169851,18.9701268"/>
  </g>
</svg>
