<svg width="12" height="15" viewBox="0 0 12 15" fill="none" xmlns="http://www.w3.org/2000/svg">
<path fill-rule="evenodd" clip-rule="evenodd" d="M3.333 6.667H8.666V4.667C8.666 3.931 8.406 3.302 7.885 2.781C7.364 2.261 6.735 2 6 2C5.264 2 4.635 2.261 4.114 2.781C3.594 3.302 3.333 3.931 3.333 4.667V6.667ZM12 7.667V13.667C12 13.944 11.902 14.181 11.708 14.375C11.514 14.569 11.277 14.667 11 14.667H1C0.722 14.667 0.485 14.569 0.291 14.375C0.097 14.181 0 13.944 0 13.667V7.667C0 7.389 0.097 7.153 0.291 6.958C0.485 6.764 0.722 6.667 1 6.667H1.333V4.667C1.333 3.389 1.791 2.292 2.708 1.375C3.625 0.458 4.722 0 6 0C7.277 0 8.375 0.458 9.291 1.375C10.208 2.292 10.666 3.389 10.666 4.667V6.667H11C11.277 6.667 11.514 6.764 11.708 6.958C11.902 7.153 12 7.389 12 7.667Z" fill="white"/>
</svg>
