<svg width="130" height="73" viewBox="0 0 130 73" fill="none" xmlns="http://www.w3.org/2000/svg">
<path fill-rule="evenodd" clip-rule="evenodd" d="M5.01666 46.5375L6.50408 41.4508H12.3853L13.7771 46.5375H19.2254L13.8081 27.2198C13.4979 26.0873 12.8169 25.55 11.6396 25.55H3.93243V27.3438H4.58503C5.38367 27.3438 5.82175 27.6563 5.82175 28.2826C5.82175 28.6907 5.72742 29.0368 5.41856 29.9872L0 46.5375H5.01666ZM11.6396 37.9512H7.27299L9.59523 30.2855L11.6396 37.9512Z" fill="white"/>
<path fill-rule="evenodd" clip-rule="evenodd" d="M25.634 46.5375V27.1539C25.634 26.1467 25.0359 25.55 24.0655 25.55H19.2256V27.3438H19.5473C20.3767 27.3438 20.725 27.6912 20.725 28.5112V46.5375H25.634Z" fill="white"/>
<path fill-rule="evenodd" clip-rule="evenodd" d="M33.8733 46.5375V27.1539C33.8733 26.1467 33.2739 25.55 32.3037 25.55H27.4648V27.3438H27.7878C28.6171 27.3438 28.9653 27.6912 28.9653 28.5112V46.5375H33.8733Z" fill="white"/>
<path fill-rule="evenodd" clip-rule="evenodd" d="M43.0281 46.5375V32.4704C43.0281 31.4718 42.4251 30.8739 41.4437 30.8739H36.6196V32.7541H36.9058C37.7387 32.7541 38.089 33.1268 38.089 33.9397V46.5375H43.0281ZM43.0281 27.7432C43.0281 26.3718 41.9986 25.55 40.2243 25.55C38.4741 25.55 37.4165 26.3718 37.4165 27.7432C37.4165 29.1133 38.4741 29.9351 40.2243 29.9351C41.9986 29.9351 43.0281 29.1133 43.0281 27.7432V27.7432Z" fill="white"/>
<path fill-rule="evenodd" clip-rule="evenodd" d="M46.7142 35.5846C48.343 34.8274 50.1203 34.4045 51.5259 34.4045C52.8395 34.4045 53.3097 34.8598 53.3097 36.1884V36.5215C51.3236 36.8233 50.7009 36.9443 49.5804 37.1876C48.9289 37.3361 48.3365 37.5194 47.7506 37.7627C45.7894 38.5187 44.8594 39.9994 44.8594 42.2699C44.8594 45.1453 46.1336 46.5375 48.7752 46.5375C49.7368 46.5375 50.6063 46.3554 51.384 46.0535C52.0658 45.7454 52.4717 45.5009 53.4674 44.7424V44.9557C53.4674 45.9001 53.977 46.3841 54.9622 46.3841H59.5073V44.6513H59.2826C58.4354 44.6513 58.1214 44.3157 58.1214 43.4126V36.2183C58.1214 32.3586 56.7356 31.025 52.7488 31.025C51.4602 31.025 50.2018 31.1785 48.9788 31.4517C47.7545 31.7261 47.124 31.9656 45.6475 32.668L46.7142 35.5846ZM53.3097 39.1225V42.0503C52.4808 42.8649 51.4602 43.3502 50.6011 43.3502C49.7065 43.3502 49.3873 42.9298 49.3873 41.8095C49.3873 40.693 49.6408 40.1778 50.5354 39.8473C51.2066 39.5728 52.0657 39.332 53.3097 39.1225V39.1225Z" fill="white"/>
<path fill-rule="evenodd" clip-rule="evenodd" d="M66.8046 46.5375V36.2419C67.6914 35.3604 68.6128 34.9632 69.6674 34.9632C70.7953 34.9632 71.0656 35.3604 71.0656 36.8844V46.5375H75.9857V36.1137C75.9857 33.6945 75.79 32.9263 74.9698 32.097C74.2893 31.3948 73.2454 31.025 71.9018 31.025C69.9125 31.025 68.5103 31.6289 66.6128 33.3533V32.7258C66.6128 31.726 66.1068 31.2068 65.0975 31.2068H60.4224V33.047H60.7073C61.5369 33.047 61.8858 33.4118 61.8858 34.2075V46.5375H66.8046Z" fill="white"/>
<path fill-rule="evenodd" clip-rule="evenodd" d="M89.7183 43.3412H83.1315L89.4192 34.2201V31.025H79.4639C78.3369 31.025 77.8169 31.5535 77.8169 32.7068V35.5354H79.6822V35.2538C79.6822 34.5351 80.0445 34.1905 80.7979 34.1905H84.1879L77.8169 43.4003V46.5375H89.7183V43.3412Z" fill="white"/>
<mask id="mask0" mask-type="alpha" maskUnits="userSpaceOnUse" x="96" y="19" width="34" height="34">
<path fill-rule="evenodd" clip-rule="evenodd" d="M96.5161 19.5178H129.792V52.925H96.5161V19.5178Z" fill="white"/>
</mask>
<g mask="url(#mask0)">
<path fill-rule="evenodd" clip-rule="evenodd" d="M129.792 36.2075C129.792 26.6481 122.687 19.5178 113.169 19.5178C103.65 19.5178 96.5161 26.6481 96.5161 36.2075C96.5161 45.7939 103.65 52.9254 113.169 52.9254C122.687 52.9254 129.792 45.7939 129.792 36.2075V36.2075ZM126.591 36.2075C126.591 44.0609 120.901 49.773 113.155 49.773C105.37 49.773 99.7164 44.0609 99.7164 36.2075C99.7164 28.3823 105.37 22.6702 113.155 22.6702C120.901 22.6702 126.591 28.3823 126.591 36.2075V36.2075ZM108.994 45.017V30.0321H106.345C105.035 30.0321 104.514 30.5581 104.514 31.8828V45.017H108.994ZM117.634 45.017H122.112V31.8828C122.112 30.5581 121.623 30.0321 120.274 30.0321H117.634V45.017ZM115.393 45.017V27.6669C115.393 26.2833 114.939 25.8213 113.578 25.8213H109.614V27.7117H109.849H110.265C110.414 27.7117 110.56 27.8064 110.679 27.9292C110.853 28.1455 110.913 28.3618 110.913 28.8252V45.017H115.393Z" fill="white"/>
</g>
</svg>
