<svg width="130" height="73" viewBox="0 0 130 73" fill="none" xmlns="http://www.w3.org/2000/svg">
<path fill-rule="evenodd" clip-rule="evenodd" d="M18.0864 18.2501H17.8376L19.2895 26.2939L9.09961 24.7956C9.21368 25.0246 9.61426 25.4184 9.79984 25.6388L11.2307 27.2627C11.4823 27.5495 11.692 27.8264 11.9687 28.1199L14.876 31.4575C15.097 31.7078 15.3361 32.0945 15.6877 32.1815C16.0655 32.2754 16.5955 32.3422 16.9951 32.4138C17.8955 32.575 18.7703 32.7305 19.6695 32.8936C20.6974 33.0798 24.2433 33.7675 25.0066 33.8428C24.8921 33.5024 22.6575 29.8408 22.4817 29.355L28.2337 30.7762L28.1993 19.8087L18.0864 18.2501Z" fill="white"/>
<path fill-rule="evenodd" clip-rule="evenodd" d="M6.40869 36.8991V36.908L14.7813 39.154C15.2945 39.2968 15.5138 39.123 15.9821 38.9679C19.0061 37.9673 22.0744 36.8938 25.0989 35.9494C24.8239 35.8113 15.6442 34.4494 15.3696 34.5055L6.40869 36.8991Z" fill="white"/>
<path fill-rule="evenodd" clip-rule="evenodd" d="M8.73047 47.2022C9.4814 47.0564 10.383 46.7529 11.154 46.532C11.9647 46.2996 12.797 46.0701 13.6127 45.8406L18.5789 44.4436C18.8276 44.3476 19.9305 43.1792 20.1895 42.9281C20.7456 42.3876 21.2674 41.9134 21.8246 41.3709C22.2897 40.9183 24.8802 38.5368 25.0357 38.2554C23.8543 38.6135 17.2461 41.2481 15.8944 41.7669C15.0493 42.0909 12.9689 43.8701 12.2419 44.4441L8.73047 47.2022Z" fill="white"/>
<mask id="mask0" mask-type="alpha" maskUnits="userSpaceOnUse" x="15" y="41" width="11" height="14">
<path fill-rule="evenodd" clip-rule="evenodd" d="M15.2412 41.3055H25.0896V54.3164H15.2412V41.3055Z" fill="white"/>
</mask>
<g mask="url(#mask0)">
<path fill-rule="evenodd" clip-rule="evenodd" d="M21.858 48.0259C22.2287 47.6703 22.1548 47.7119 22.4056 47.1801C22.7177 46.518 22.9997 45.8906 23.3008 45.2303C23.6246 44.5199 24.9502 41.7602 25.0896 41.3055C24.7072 41.499 24.0414 42.3967 23.6377 42.7402L20.062 46.3436C19.3041 47.1757 17.0934 51.1305 16.2868 52.5102L15.2412 54.3164L21.858 48.0259Z" fill="white"/>
</g>
<path fill-rule="evenodd" clip-rule="evenodd" d="M80.1035 34.5026C79.6645 34.0998 79.1881 33.6296 78.2975 33.4521C73.6389 32.5247 72.1337 39.3948 75.9251 41.2648C76.6024 41.5992 77.4782 41.7378 78.3161 41.5545C79.1902 41.3641 79.6492 40.8822 80.0935 40.4199L80.1076 41.4931H82.4659L82.4649 30.6587H80.122L80.1035 34.5026ZM77.9313 35.3302C79.1467 35.1716 80.0396 36.1504 80.132 37.2614C80.2386 38.5392 79.5047 39.592 78.3527 39.6976C75.6859 39.9418 75.3141 35.6718 77.9313 35.3302V35.3302Z" fill="white"/>
<path fill-rule="evenodd" clip-rule="evenodd" d="M29.709 41.4846L32.1696 41.492L33.1181 39.1737L37.5598 39.1658C37.9013 39.3337 38.3679 41.0585 38.6718 41.4934H41.0999C41.0762 41.2132 38.2028 34.8191 37.6856 33.6666C37.3288 32.8703 36.8237 31.8566 36.54 31.0434L34.3066 31.0348L29.709 41.4846ZM33.9902 37.1291C34.15 36.6919 35.2295 34.0575 35.4129 33.8561L36.7935 37.1305L33.9902 37.1291Z" fill="white"/>
<path fill-rule="evenodd" clip-rule="evenodd" d="M61.6476 33.445C59.0818 33.8394 57.5488 35.987 57.9716 38.2632C58.3657 40.3846 60.448 42.0192 63.1284 41.6092C65.3566 41.2685 67.2384 39.3502 66.7754 36.7807C66.3952 34.6666 64.2734 33.041 61.6476 33.445M61.8803 35.3919C64.7628 34.8001 65.5405 39.0835 62.8814 39.6595C60.0135 40.2811 59.181 35.9461 61.8803 35.3919" fill="white"/>
<path fill-rule="evenodd" clip-rule="evenodd" d="M89.1024 34.1174L89.6661 35.8062C90.5656 35.5985 91.1527 35.3032 92.2214 35.3953C93.1933 35.479 93.7034 35.9271 93.7094 36.9206C93.1264 36.8529 92.6897 36.6609 91.9758 36.6304C90.1738 36.552 88.2195 37.1992 88.3898 39.4303C88.5567 41.6266 91.415 42.1733 93.1123 41.1275C93.3256 40.9959 93.4846 40.7812 93.6917 40.7033L93.6922 41.4931H95.9679C95.967 40.2147 95.9675 38.9364 95.9675 37.6578C95.9675 36.1774 95.995 35.4997 95.2338 34.4862C94.0222 32.8723 89.8354 33.473 89.1024 34.1174M93.7429 38.3792C93.7415 39.2752 93.4356 39.7117 92.7074 39.9482C91.0535 40.4847 90.2459 39.2806 90.8284 38.5103C91.3943 37.7608 93.4734 37.9276 93.7429 38.3792" fill="white"/>
<path fill-rule="evenodd" clip-rule="evenodd" d="M49.0837 40.2151L47.7411 38.8891L47.2709 39.2328C47.1033 39.3531 46.9524 39.4584 46.7173 39.5461C43.7973 40.6365 42.6472 36.3873 45.0774 35.4608C46.3292 34.9834 47.1073 35.8075 47.5933 36.2036L49.0311 34.7076C48.6606 34.1534 47.7047 33.666 46.9605 33.5004C44.201 32.8878 41.3984 34.5697 41.4359 37.5926C41.4876 41.7935 46.9347 42.9097 49.0837 40.2151" fill="white"/>
<path fill-rule="evenodd" clip-rule="evenodd" d="M57.3159 40.215L55.9674 38.889C55.7191 39.0023 54.8422 40.055 53.4226 39.6071C50.8041 38.7811 52.1003 34.3905 54.824 35.4902C55.3114 35.6865 55.5412 35.9177 55.8361 36.1986L57.2865 34.7237C55.5132 32.3703 49.6337 32.9959 49.678 37.5928C49.717 41.6855 55.0378 42.9757 57.3159 40.215" fill="white"/>
<path fill-rule="evenodd" clip-rule="evenodd" d="M123.394 38.1135V37.1165C123.168 36.6063 123.015 33.8743 120.024 33.6624C115.581 33.3478 114.359 39.4235 118.012 41.2511C118.838 41.6643 119.969 41.7788 120.981 41.5381C121.732 41.359 122.789 40.7511 123.093 40.2151L122.382 39.6004C122.062 39.7697 121.044 41.0358 119.127 40.5604C118.016 40.2846 117.231 39.3721 117.09 38.1165L123.394 38.1135ZM117.114 37.1826C117.092 35.877 118.328 34.6194 119.685 34.6282C121.111 34.637 122.135 35.7987 122.163 37.1826H117.114Z" fill="white"/>
<path fill-rule="evenodd" clip-rule="evenodd" d="M70.57 34.932L70.565 33.5597L68.2046 33.5297L68.2058 41.4777L70.5487 41.4926C70.8037 39.487 69.5938 35.7594 73.1775 35.7562L73.1782 33.3788C72.145 33.3832 71.6172 33.6055 71.0433 34.2876C70.7747 34.6071 70.8061 34.7415 70.57 34.932" fill="white"/>
<path fill-rule="evenodd" clip-rule="evenodd" d="M98.4458 41.2639L98.4702 41.4955L105.694 41.4934C105.761 41.1141 105.731 40.8041 105.728 40.3955C103.99 40.3955 101.317 40.4455 99.6884 40.3867L99.6765 31.1015L98.4458 31.1011V41.2639Z" fill="white"/>
<path fill-rule="evenodd" clip-rule="evenodd" d="M84.6396 41.4689L87 41.495V33.5272L84.6396 33.5295V41.4689Z" fill="white"/>
<path fill-rule="evenodd" clip-rule="evenodd" d="M110.532 33.8467V34.8227L111.628 34.8495L111.628 41.4931H112.825L112.825 34.8544L115.337 34.8325L115.336 33.879C114.946 33.7765 113.347 33.8395 112.825 33.8381C112.51 30.8521 114.647 31.7277 115.354 31.7733L115.351 30.7975C114.201 30.3786 112.731 30.6054 112.176 31.3379C111.875 31.7333 111.68 32.2395 111.638 32.8686C111.542 34.2976 111.888 33.6544 110.532 33.8467" fill="white"/>
<path fill-rule="evenodd" clip-rule="evenodd" d="M107.55 41.4939L108.729 41.4934L108.762 33.8052L107.565 33.8049L107.55 41.4939Z" fill="white"/>
<path fill-rule="evenodd" clip-rule="evenodd" d="M84.5874 32.6748H87.0679L87.0638 30.6581L84.6144 30.6585L84.5874 32.6748Z" fill="white"/>
<path fill-rule="evenodd" clip-rule="evenodd" d="M107.477 32.1502H108.846L108.836 30.8713H107.514L107.477 32.1502Z" fill="white"/>
</svg>
