<svg width="73" height="41" viewBox="0 0 73 41" fill="none" xmlns="http://www.w3.org/2000/svg">
<mask id="mask0" mask-type="alpha" maskUnits="userSpaceOnUse" x="0" y="10" width="14" height="20">
<path fill-rule="evenodd" clip-rule="evenodd" d="M0 10.8516V29.6701H13.3025V10.8516L0 10.8516Z" fill="white"/>
</mask>
<g mask="url(#mask0)">
<path fill-rule="evenodd" clip-rule="evenodd" d="M11.1261 14.8732C11.1261 14.8732 10.6184 13.4909 8.93572 13.4331C8.44461 13.4165 6.87158 13.7825 5.29855 15.6059C5.12776 15.8045 3.44508 17.5702 2.68747 20.4172C2.65225 20.5494 2.30136 22.1557 2.44225 23.6124C2.49342 24.1392 2.77453 26.0098 4.61538 26.3432C5.31251 26.4695 6.66357 25.96 7.25437 25.4445C7.43712 25.2857 5.64811 27.3676 3.63182 27.3583C3.03238 27.3556 1.88401 27.3038 1.18555 25.7361C0.213959 23.5566 0.807416 19.0302 3.60258 15.4717C3.60258 15.4717 5.6614 12.61 8.08042 12.2812C8.33894 12.246 10.5187 11.8594 11.1441 14.8154C11.2125 15.1416 11.1261 14.8732 11.1261 14.8732ZM10.7853 22.3224C10.6902 22.6857 10.2629 24.092 8.01335 27.3682C7.92828 27.4918 9.35976 24.8931 9.63888 23.6655C9.7379 23.2298 9.7884 22.5296 8.757 22.8996C8.43069 23.0165 5.21021 24.8938 5.14375 24.8858C5.0773 24.8785 5.63487 24.4195 5.28597 23.8841C5.04606 23.5134 4.39279 23.6702 4.41472 23.6702C4.41472 23.6702 6.06949 22.3795 8.86399 21.3824C9.42156 21.1831 9.98578 21.1187 10.1665 21.1353C10.3486 21.1513 11.089 21.1625 10.7853 22.3224ZM11.3847 11.2701C10.9022 10.9864 10.3632 10.8516 9.78972 10.8516C7.27168 10.8516 4.07911 13.4502 1.95648 17.4936C-0.649279 22.4591 -0.652602 27.7241 1.94917 29.252C4.55095 30.7798 8.77227 27.9925 11.3767 23.0271C12.5184 20.8529 13.1604 18.6209 13.3026 16.6706V15.0757C13.1611 13.318 12.5218 11.9377 11.3847 11.2701Z" fill="white"/>
</g>
<path fill-rule="evenodd" clip-rule="evenodd" d="M21.662 21.303C21.662 21.1733 21.5677 21.1048 21.4859 21.0223C21.3909 20.9272 21.3303 20.8786 21.2221 20.8314H22.9019C22.7938 20.8727 22.7192 20.9338 22.6513 21.0363C22.5906 21.1254 22.5563 21.2005 22.5504 21.3163V22.5613C22.5504 22.6498 22.5702 22.7043 22.5972 22.7795C22.6315 22.8686 22.6724 22.9231 22.7331 22.991C22.2655 23.3601 20.6931 23.9753 19.5007 23.9613C17.1079 23.9274 15.38 22.2035 15.3872 19.9961C15.3938 17.8977 17.3586 16.0734 19.5614 16.1139C20.5909 16.1346 21.7768 16.5582 22.1026 16.7498L22.2252 18.4351C21.757 17.2313 20.8626 16.6168 19.4935 16.5549C17.7655 16.4871 16.4385 18.1185 16.4385 19.9907C16.4385 21.8025 17.5762 23.5104 19.6425 23.4964C20.4689 23.4904 21.1542 23.2643 21.662 22.7861V21.303Z" fill="white"/>
<path fill-rule="evenodd" clip-rule="evenodd" d="M29.3841 17.0401C29.3841 16.8886 29.3698 16.8031 29.2948 16.6842C29.2185 16.5784 29.1367 16.5118 29.0052 16.4727H30.4166C30.2926 16.5118 30.2306 16.5647 30.1406 16.6503C30.0793 16.7103 30.0036 16.7959 30.0036 17.0799L29.9961 21.3584C29.9961 21.5824 30.0656 23.9104 27.2509 23.9633C25.0761 24.0024 24.3605 22.8088 24.3605 21.3251L24.3537 17.0199C24.3537 16.9082 24.3258 16.8285 24.2712 16.7299C24.1956 16.6046 23.9959 16.4857 23.9755 16.4727H25.7918C25.7849 16.4727 25.5921 16.5784 25.5164 16.6842C25.4408 16.7959 25.4203 16.8886 25.4203 17.0199L25.4135 21.6549C25.4135 22.6703 25.9983 23.5218 27.3613 23.5016C28.8607 23.4748 29.3773 22.6377 29.3773 21.6092L29.3841 17.0401Z" fill="white"/>
<path fill-rule="evenodd" clip-rule="evenodd" d="M31.8508 23.9616C31.8375 23.9616 31.5701 23.8598 31.509 23.7101C31.4552 23.5672 31.5163 23.4512 31.5701 23.3077L32.2795 21.5724H35.1206L35.7511 23.1378C35.8248 23.3292 35.9183 23.4782 35.838 23.6683C35.7644 23.8328 35.4763 23.9541 35.469 23.9541L37.5735 23.9616C37.5463 23.9541 37.2383 23.8186 37.0977 23.6555C36.9769 23.5261 36.9304 23.4243 36.8634 23.2537L33.9612 16.1133L30.9933 23.2672C30.9197 23.4438 30.8659 23.5598 30.7385 23.7034C30.6376 23.8186 30.4299 23.9474 30.4166 23.9541L31.8508 23.9616ZM34.9202 21.0836H32.474L33.6739 18.0547L34.9202 21.0836Z" fill="white"/>
<path fill-rule="evenodd" clip-rule="evenodd" d="M39.3012 20.4191V23.3968C39.3012 23.5443 39.375 23.6369 39.457 23.744C39.5382 23.8439 39.7215 23.9642 39.7276 23.9642H37.9313C37.9521 23.951 38.1488 23.824 38.2234 23.6977C38.2838 23.6038 38.3241 23.5231 38.3241 23.4034L38.3315 17.0473C38.3315 16.9269 38.2973 16.8535 38.2429 16.753C38.1683 16.6201 37.9722 16.4793 37.9521 16.4727H40.3722C41.2875 16.4727 42.6232 16.9607 42.6567 18.309C42.6977 19.744 41.1995 20.1454 41.1183 20.1579C41.1458 20.1923 41.8979 20.7465 42.5419 21.9209C42.9347 22.6489 43.5861 23.5833 43.8299 23.7242C44.0266 23.8379 44.1623 23.8974 44.3725 23.9642H43.0435C42.9012 23.9318 42.7998 23.8842 42.6843 23.7969C42.5822 23.7169 42.5218 23.6508 42.4606 23.5443C42.4606 23.5443 41.3849 21.6517 41.1552 21.3264C40.9464 21.0301 40.7765 20.7868 40.4877 20.5792C40.3098 20.4515 40.1009 20.4191 39.9317 20.4191H39.3012ZM39.3072 16.8672L39.3011 19.9778C39.328 19.9851 40.1822 20.0049 40.2842 19.9646C40.4434 19.9381 40.6737 19.8667 40.798 19.8138C41.5803 19.4825 41.8153 18.9409 41.769 18.2578C41.6756 17.1654 40.4917 16.8672 39.7302 16.8672H39.3072Z" fill="white"/>
<path fill-rule="evenodd" clip-rule="evenodd" d="M48.0136 23.9642C50.4194 23.9642 52.3525 22.218 52.2405 20.0108C52.1422 17.9181 50.6173 16.4727 48.6836 16.4727H45.1605C45.1801 16.4793 45.404 16.6131 45.4828 16.7469C45.5486 16.8549 45.5876 16.935 45.5876 17.0616V23.3746C45.5876 23.4892 45.5486 23.5687 45.4958 23.6701C45.3969 23.8304 45.1143 23.9503 45.0883 23.9576L48.0136 23.9642ZM48.4408 16.9609C50.0386 16.9609 51.2216 18.466 51.2021 20.0578C51.1689 22.7533 49.7365 23.4224 47.9284 23.4224C47.4153 23.4224 47.0931 23.4224 46.6067 23.2614V16.9609H48.4408Z" fill="white"/>
<path fill-rule="evenodd" clip-rule="evenodd" d="M54.7033 23.4027C54.7033 23.5429 54.7575 23.6368 54.8384 23.744C54.9187 23.8505 55.1013 23.9642 55.1079 23.9642H53.3187C53.3388 23.951 53.5348 23.8233 53.609 23.6964C53.6699 23.6038 53.7107 23.5238 53.7107 23.4027V17.0262C53.7107 16.9058 53.6833 16.8324 53.6224 16.7319C53.5481 16.599 53.3522 16.4779 53.3321 16.4727H55.1079C55.1013 16.4727 54.9187 16.5785 54.8384 16.6856C54.7575 16.7927 54.7033 16.886 54.7033 17.0262V23.4027Z" fill="white"/>
<path fill-rule="evenodd" clip-rule="evenodd" d="M57.6149 23.9616C57.6016 23.9616 57.3335 23.8598 57.2731 23.7101C57.22 23.5672 57.2797 23.4512 57.3335 23.3077L58.0437 21.5724H60.885L61.5156 23.1378C61.5886 23.3292 61.6828 23.4782 61.6025 23.6683C61.5288 23.8328 61.2401 23.9541 61.2335 23.9541L63.3381 23.9616C63.3109 23.9541 63.003 23.8186 62.8622 23.6555C62.7415 23.5261 62.695 23.4243 62.6273 23.2537L59.7262 16.1133L56.7574 23.2672C56.6837 23.4438 56.6299 23.5598 56.5025 23.7034C56.4023 23.8186 56.1939 23.9474 56.1813 23.9541L57.6149 23.9616ZM60.6846 21.0836H58.2382L59.4382 18.0547L60.6846 21.0836Z" fill="white"/>
<path fill-rule="evenodd" clip-rule="evenodd" d="M64.4898 17.5687V23.6469C64.4898 23.7487 64.5373 23.8235 64.5998 23.905C64.6819 24.0075 64.7641 24.0688 64.887 24.1025H63.6193C63.7422 24.0823 63.8047 24.0075 63.8936 23.9185C63.9547 23.8572 63.9622 23.7689 63.9622 23.6738V17.0854C63.9622 16.8811 63.8733 16.8265 63.7633 16.7113C63.6329 16.5744 63.3586 16.4727 63.3383 16.4727H64.9012L69.5079 22.0877V16.9297C69.5079 16.8265 69.4597 16.7585 69.4054 16.6776C69.3368 16.5744 69.2676 16.5198 69.1583 16.4727H70.4951C70.3926 16.5198 70.324 16.5744 70.2554 16.6634C70.1869 16.745 70.1115 16.8131 70.1115 16.9223L70.104 24.3209L64.4898 17.5687Z" fill="white"/>
<path fill-rule="evenodd" clip-rule="evenodd" d="M72.2844 16.4727C71.8883 16.4727 71.5687 16.7908 71.5687 17.1864C71.5687 17.5815 71.8883 17.8996 72.2844 17.8996C72.6805 17.8996 73.0001 17.5815 73.0001 17.1864C73.0001 16.7908 72.6805 16.4727 72.2844 16.4727ZM72.2843 16.6133C72.6021 16.6133 72.8603 16.869 72.8603 17.1865C72.8603 17.5028 72.6021 17.7603 72.2843 17.7603C71.9666 17.7603 71.7102 17.5028 71.7102 17.1865C71.7102 16.869 71.9666 16.6133 72.2843 16.6133ZM72.1143 17.1375V16.9297H72.2558C72.3597 16.9297 72.4126 16.9654 72.4126 17.0327C72.4126 17.086 72.3779 17.1375 72.2728 17.1375H72.1143ZM72.6216 17.5699L72.5335 17.4172C72.4563 17.2839 72.4357 17.2627 72.3707 17.2403V17.236C72.4989 17.2203 72.5754 17.1385 72.5754 17.024C72.5754 16.904 72.4989 16.8125 72.336 16.8125H71.9612V17.5699H72.1143V17.2585H72.1428C72.2103 17.2585 72.2364 17.2663 72.2674 17.2966C72.2978 17.3275 72.3439 17.3924 72.3707 17.4463L72.432 17.5699H72.6216Z" fill="white"/>
</svg>
