<?xml version="1.0" encoding="UTF-8"?>
<svg width="142px" height="80px" viewBox="0 0 142 80" version="1.1" xmlns="http://www.w3.org/2000/svg" xmlns:xlink="http://www.w3.org/1999/xlink">
    <!-- Generator: Sketch 56.3 (81716) - https://sketch.com -->
    <title>Logo / Penn color</title>
    <desc>Created with Sketch.</desc>
    <g id="Logo-/-Penn-color" stroke="none" stroke-width="1" fill="none" fill-rule="evenodd">
        <g id="Page-1" transform="translate(3.000000, 13.000000)">
            <path d="M31.6598937,0 L17.7539856,0 C15.9080963,0 14.4123163,1.45297848 14.4123163,3.24604805 L14.4123163,26.7017058 C14.4123163,27.4183263 13.8136918,27.9998214 13.0743982,27.9998214 L7.5132854,27.9998214 C6.77555486,27.9998214 6.17693029,27.4183263 6.17693029,26.7017058 L6.17693029,21.2966866 C6.17693029,20.5815844 6.77555486,19.998571 7.5132854,19.998571 L13.6339481,19.998571 L13.6339481,13.9999107 L3.34010628,13.9999107 C1.49577993,13.9999107 0,15.4528892 0,17.2444405 L0,30.753952 C0,32.5470215 1.49577993,34 3.34010628,34 L17.2475774,34 C19.0919037,34 20.5892466,32.5470215 20.5892466,30.753952 L20.5892466,21.673216 L20.5845577,21.673216 L20.5845577,12.9674913 L20.5892466,12.9674913 L20.5892466,7.29829419 C20.5892466,6.5801554 21.1863082,6.00017862 21.9256018,6.00017862 L27.4882776,6.00017862 C28.2260081,6.00017862 28.8246327,6.5801554 28.8246327,7.29829419 L28.8246327,12.7017951 C28.8246327,13.4184156 28.2260081,13.9999107 27.4882776,13.9999107 L21.3644889,13.9999107 L21.3644889,19.998571 L31.6598937,19.998571 C33.5057831,19.998571 35,18.5455926 35,16.7540413 L35,3.24604805 C35,1.45297848 33.5057831,0 31.6598937,0" id="Fill-1" fill="#116C55"></path>
            <path d="M37,34.979898 C37,36.8070807 36.2530983,38.1572157 34.7576425,39.0288029 C33.2621867,39.90039 31.4296337,40.3354335 29.2566786,40.3354335 C28.8600936,40.3354335 28.5791793,40.3279328 28.4106307,40.3129313 C28.4106307,41.750075 28.4568989,43.6462646 28.5494354,46 L25,46 C25.1090609,43.7917792 25.1635913,41.1875188 25.1635913,38.1917192 C25.1635913,35.4389439 25.1090609,33.0657066 25,31.0705071 L27.1977417,31.0705071 C27.5083999,31.0705071 28.1082346,31.0585059 28.9922886,31.0360036 C29.8746902,31.0120012 30.6414211,31 31.290829,31 C32.8903883,31 34.2420821,31.330033 35.3459102,31.9870987 C36.4497384,32.6441644 37,33.6417642 37,34.979898 M33.7413936,35.609961 C33.7413936,33.9747975 32.5450289,33.1572157 30.1539521,33.1572157 C29.5557698,33.1572157 28.9245387,33.2142214 28.2586064,33.3282328 C28.3511429,34.7728773 28.3974112,36.409541 28.3974112,38.2367237 C28.6072707,38.2517252 28.8518315,38.2607261 29.1310934,38.2607261 C32.2046268,38.2607261 33.7413936,37.3771377 33.7413936,35.609961" id="Fill-3" fill="#090909"></path>
            <path d="M48,38.8711043 C48,39.2712582 47.9741528,39.7929973 47.9207352,40.4363217 L39.4376795,40.5656022 C39.5617461,41.452097 39.9873636,42.1893036 40.716255,42.777222 C41.4451465,43.3651404 42.4014934,43.6590997 43.587019,43.6590997 C44.9052269,43.6590997 46.3061459,43.4836476 47.789776,43.1312043 L47.5261344,45.4120816 C46.3130385,45.8045402 44.8121769,46 43.0218265,46 C40.7541643,46 39.0189546,45.4320893 37.8110281,44.2947287 C36.6031017,43.1589073 36,41.7891497 36,40.1885341 C36,38.518661 36.5738082,37.0688726 37.7197013,35.842247 C38.8638713,34.6140823 40.4577829,34 42.4945434,34 C44.3555428,34 45.7392303,34.4509427 46.6438828,35.352828 C47.5485353,36.2547134 48,37.4290112 48,38.8711043 L48,38.8711043 Z M44.9172889,38.7664486 C44.9172889,36.9611389 44.0557151,36.0592536 42.3360138,36.0592536 C40.6938541,36.0592536 39.7185526,36.993459 39.4118323,38.8587918 L44.9172889,38.7664486 Z" id="Fill-5" fill="#090909"></path>
            <path d="M61,46 L57.6137625,46 C57.8018868,43.9401198 57.8951165,41.8578842 57.8951165,39.7500998 C57.8951165,38.4726547 57.6970033,37.6055888 57.3024417,37.150499 C56.9078801,36.6938124 56.3085461,36.4654691 55.5027747,36.4654691 C54.5338513,36.4654691 53.618202,36.7848303 52.7524972,37.4187625 C52.7957825,40.5916168 52.8157603,43.4530938 52.8157603,46 L49.3928968,46 C49.5460599,43.4530938 49.6226415,41.4506986 49.6226415,39.9944112 C49.6226415,38.049501 49.4145394,36.2147705 49,34.4886228 L52.2563818,34.1469062 L52.472808,35.4403194 L52.6759156,35.4403194 C53.8396226,34.4806387 55.1748058,34 56.6864595,34 C57.9916759,34 59.0371809,34.2954092 59.8229745,34.8862275 C60.6071032,35.4754491 61,36.5644711 61,38.1500998 C61,38.3864271 60.9900111,38.7025948 60.9683685,39.097006 C60.9467259,39.4914172 60.936737,39.897006 60.936737,40.3105788 C60.936737,41.4091816 60.9583796,43.3061876 61,46" id="Fill-7" fill="#090909"></path>
            <path d="M74,46 L70.6154273,46 C70.8018868,43.9401198 70.8951165,41.8578842 70.8951165,39.7500998 C70.8951165,38.4726547 70.6986681,37.6055888 70.3024417,37.150499 C69.9078801,36.6938124 69.3085461,36.4654691 68.5027747,36.4654691 C67.5338513,36.4654691 66.618202,36.7848303 65.7524972,37.4187625 C65.7957825,40.5916168 65.8174251,43.4530938 65.8174251,46 L62.3928968,46 C62.5460599,43.4530938 62.6226415,41.4506986 62.6226415,39.9944112 C62.6226415,38.049501 62.4145394,36.2147705 62,34.4886228 L65.2580466,34.1469062 L65.4744728,35.4403194 L65.6775805,35.4403194 C66.8396226,34.4806387 68.1748058,34 69.6864595,34 C70.9916759,34 72.0388457,34.2954092 72.8229745,34.8862275 C73.6071032,35.4754491 74,36.5644711 74,38.1500998 C74,38.3864271 73.9900111,38.7025948 73.9683685,39.097006 C73.9467259,39.4914172 73.936737,39.897006 73.936737,40.3105788 C73.936737,41.4091816 73.9583796,43.3061876 74,46" id="Fill-9" fill="#090909"></path>
            <path d="M94,46 L91.5163286,46 C91.5163286,44.2881254 91.3780588,41.8107294 91.1049759,38.5693189 C90.831893,35.3279084 90.6867097,33.3854732 90.669426,32.7405063 L90.5380697,32.7405063 C89.6565997,35.2359855 88.540071,37.9454491 87.1884836,40.86739 C85.8351678,43.7908379 85.1593741,45.4996986 85.1593741,46 L83.377422,46 C83.377422,45.4620253 82.746566,43.721519 81.4865824,40.7754671 C80.2283271,37.8309222 79.429819,35.8583484 79.0962431,34.8592526 C78.7609388,33.8616637 78.5310652,33.1549126 78.4083508,32.7405063 L78.2752661,32.7405063 C78.2493405,33.7923448 78.0765032,35.9156118 77.7532976,39.1103074 C77.4335486,42.3065099 77.27281,44.6015672 77.27281,46 L75,46 C75,45.9231465 75.2990085,43.808921 75.8987538,39.6588306 C76.4967707,35.5072333 76.7957791,32.6214587 76.7957791,31 L80.2715364,31 C80.2715364,31.8453888 80.9749841,33.9581073 82.3853361,37.3366486 C83.7956882,40.7166968 84.4991358,42.7631103 84.4991358,43.477396 L84.6322205,43.477396 C84.6322205,42.7631103 85.4238152,40.7091621 87.0104612,37.3200723 C88.5971073,33.9294756 89.3887019,31.8227848 89.3887019,31 L92.7832257,31 C92.7832257,32.6214587 92.9871737,35.4936709 93.3916128,39.6181435 C93.796052,43.742616 94,45.8688969 94,46" id="Fill-11" fill="#090909"></path>
            <path d="M104,45.6802785 L102.165351,45.754184 C102.056975,45.2946847 101.99969,44.9187308 101.99969,44.6231088 L101.880477,44.6231088 C100.832327,45.5421074 99.5581359,46 98.0594519,46 C96.6939155,46 95.7015018,45.6577855 95.0822109,44.9733565 C94.4613717,44.2905342 94.1532745,42.9136431 94.1532745,40.8410764 C94.1532745,40.5470612 94.1610156,40.1084483 94.1764979,39.5268443 C94.1919802,38.9452403 94.1997213,38.5500067 94.1997213,38.3363235 C94.1997213,37.1329495 94.1331475,35.7158924 94,34.0867586 L96.200031,34 C96.1055891,35.5809345 96.0575941,36.9321194 96.0575941,38.0519481 C96.0575941,40.6322131 96.2186097,42.3127594 96.5375445,43.0951935 C96.8580276,43.8760209 97.5779532,44.2680412 98.6973216,44.2680412 C99.960675,44.2680412 101.001084,43.9402865 101.821644,43.2847771 C101.821644,38.7331637 101.782939,35.6660865 101.703979,34.0867586 L103.828147,34.0931852 C103.764669,35.632347 103.739898,37.6679609 103.739898,40.3863971 C103.739898,42.131209 103.826599,43.8953006 104,45.6802785" id="Fill-13" fill="#090909"></path>
            <path d="M112,44.094243 L111.87346,45.652074 C111.313071,45.8840247 110.784664,46 110.289631,46 C109.013111,46 108.14124,45.6332672 107.674017,44.902936 C107.205403,44.1726047 106.971792,42.8639641 106.971792,40.9785811 C106.971792,39.7577056 106.973182,37.988298 106.988478,36.0229861 C106.590783,36.0229861 105.874652,36.0511963 105.1029,36.0982134 L105,34.4291088 C105.688319,34.4463483 106.574096,34.430676 107.105284,34.430676 C107.105284,33.9511023 107.14561,32.9888204 107.216528,31.1912026 L108.885181,31 C108.764203,32.6769408 108.698848,33.7034793 108.698848,34.430676 C109.39412,34.430676 110.414779,34.3899279 111.760826,34.309999 L111.685737,36.0950789 C110.410608,36.0480619 109.387167,36.0229861 108.614025,36.0229861 C108.600119,37.2297566 108.598729,38.7625118 108.598729,40.2717584 C108.598729,41.9173545 108.753079,43.0065824 109.060389,43.5378748 C109.36909,44.0676 109.941994,44.3340299 110.777712,44.3340299 C111.05443,44.3340299 111.461859,44.2541009 112,44.094243" id="Fill-15" fill="#090909"></path>
            <path d="M122,45.6802785 L120.165351,45.754184 C120.055427,45.2946847 119.99969,44.9187308 119.99969,44.6231088 L119.882025,44.6231088 C118.832327,45.5421074 117.558136,46 116.059452,46 C114.693915,46 113.701502,45.6577855 113.082211,44.9733565 C112.46292,44.2905342 112.153275,42.9136431 112.153275,40.8410764 C112.153275,40.5470612 112.161016,40.1084483 112.176498,39.5268443 C112.193528,38.9452403 112.20127,38.5500067 112.20127,38.3363235 C112.20127,37.1329495 112.133148,35.7158924 112,34.0867586 L114.201579,34 C114.105589,35.5809345 114.059142,36.9321194 114.059142,38.0519481 C114.059142,40.6322131 114.21861,42.3127594 114.539093,43.0951935 C114.858028,43.8760209 115.577953,44.2680412 116.69887,44.2680412 C117.960675,44.2680412 119.002632,43.9402865 119.823192,43.2847771 C119.823192,38.7331637 119.782939,35.6660865 119.703979,34.0867586 L121.835888,34 C121.770862,35.5391619 121.741446,37.6679609 121.741446,40.3863971 C121.741446,42.131209 121.826599,43.8953006 122,45.6802785" id="Fill-17" fill="#090909"></path>
            <path d="M133,45.7025694 L131.025666,45.7742019 C130.923659,45.3848949 130.874301,45.0158318 130.874301,44.6654555 L130.74926,44.6654555 C129.71767,45.55619 128.312603,46 126.535703,46 C125.57157,46 124.740704,45.7321568 124.044752,45.1964703 C123.348799,44.6607838 123,43.8961848 123,42.9057877 C123,41.6818064 123.546232,40.7007527 124.637052,39.9595121 C125.726226,39.2167142 127.751563,38.82585 130.711418,38.7853621 C130.736097,38.5953802 130.74926,38.3773683 130.74926,38.1313262 C130.74926,37.1549442 130.472853,36.5040228 129.924975,36.1785622 C129.375452,35.8531015 128.542942,35.6895925 127.427443,35.6895925 C126.111221,35.6895925 124.816387,35.8453153 123.541296,36.1552037 L123.755183,34.5123281 C125.01382,34.1712951 126.46002,34 128.093781,34 C129.586048,34 130.739388,34.2927589 131.553801,34.8751622 C132.366568,35.4591228 132.772952,36.4526343 132.772952,37.8572541 C132.772952,38.2309888 132.754854,38.9068258 132.717012,39.8878796 C132.679171,40.8673761 132.659427,41.5198547 132.659427,41.8437581 C132.659427,43.2888658 132.772952,44.5751363 133,45.7025694 M130.772294,43.3932001 C130.731162,42.1863483 130.711418,41.1040747 130.711418,40.143265 C129.133597,40.143265 127.934189,40.2538282 127.113195,40.4765118 C125.737743,40.873605 125.051662,41.6304179 125.051662,42.7500649 C125.051662,43.829224 125.856203,44.3695821 127.465285,44.3695821 C128.850609,44.3695821 129.9513,44.0441215 130.772294,43.3932001" id="Fill-19" fill="#090909"></path>
            <path d="M136,46 L134.108247,46 C134.226804,43.3604726 134.286082,40.3772731 134.286082,37.0504016 C134.286082,33.819256 134.190722,31.17659 134,29.1208345 L136,29 C135.875,31.17659 135.813144,33.8600572 135.813144,37.0504016 C135.813144,40.3380412 135.875,43.3196714 136,46" id="Fill-21" fill="#090909"></path>
        </g>
    </g>
</svg>