<?xml version="1.0" encoding="UTF-8"?>
<svg width="142px" height="80px" viewBox="0 0 142 80" version="1.1" xmlns="http://www.w3.org/2000/svg" xmlns:xlink="http://www.w3.org/1999/xlink">
    <!-- Generator: Sketch 56.3 (81716) - https://sketch.com -->
    <title>Logo / Paclife ALT Color</title>
    <desc>Created with Sketch.</desc>
    <g id="Logo-/-Paclife-ALT-Color" stroke="none" stroke-width="1" fill="none" fill-rule="evenodd">
        <g id="paclife_alt" transform="translate(18.000000, 14.000000)" fill-rule="nonzero">
            <path d="M16.8752,46.4058062 L13.8729708,46.4058062 L15.35145,42.2806396 L16.8752,46.4058062 Z M22.3231583,51.7720562 L22.1652625,51.6870354 C21.4144292,51.2751812 21.0986375,50.1721187 20.7563458,49.2413062 L16.8409708,38.7495146 L13.1077833,38.7462021 L13.1077833,39.0895979 L13.3230958,39.1635771 C13.3230958,39.1635771 13.4931375,39.2220979 13.5947208,39.2905562 C13.8155542,39.4396187 13.9723458,39.6770146 13.728325,40.3549729 C13.62895,40.6519937 13.5439292,40.8706187 13.5439292,40.8706187 C13.5439292,40.8706187 10.4544708,49.2203271 10.4522625,49.2247437 C10.1265333,50.1533479 9.84386667,51.2740771 9.0808875,51.6848271 L8.82361667,51.7853062 L8.82361667,52.1154521 L13.0238667,52.1154521 L13.0238667,51.7853062 L12.7180125,51.6627437 C12.350325,51.5136812 12.25095,51.1548271 12.6462417,50.0186396 L13.1287625,48.5048271 L17.5929083,48.5048271 C17.703325,48.8173062 17.8457625,49.2622854 18.0632833,49.9093271 C18.2774917,50.5453271 18.58445,51.4275562 18.1328458,51.6748896 L17.8568042,51.7853062 L17.8568042,52.1154521 L22.3529708,52.1154521 L22.3231583,51.7720562 Z" id="Fill-1" fill="#22406E"></path>
            <path d="M49.5996083,38.7455396 L49.5996083,39.0745813 L49.9065667,39.1993521 C50.3946083,39.3947896 50.3813583,40.6336646 50.3714208,41.3734563 C50.3714208,41.3767688 50.3703167,49.4714146 50.3703167,49.4758313 C50.3780458,50.1471646 50.3890875,51.4798938 49.9120875,51.6653938 L49.5996083,51.7857479 L49.5996083,52.1136854 L53.8992333,52.1136854 L53.8992333,51.7923729 L53.5955875,51.6687063 C53.1097542,51.4699563 53.1207958,50.1427479 53.1274208,49.4714146 L53.1274208,41.4087896 C53.1108583,40.2869563 53.2687542,39.3307479 53.5955875,39.1971437 L53.8992333,39.0723729 L53.8992333,38.7455396 L49.5996083,38.7455396 Z" id="Fill-3" fill="#22406E"></path>
            <path d="M33.5390625,38.7455396 L33.5390625,39.0745813 L33.8449167,39.1993521 C34.3329583,39.3947896 34.3208125,40.6336646 34.3097708,41.3734563 C34.3097708,41.3767688 34.3097708,49.4714146 34.3097708,49.4758313 C34.3175,50.1471646 34.3274375,51.4798938 33.8515417,51.6653938 L33.5390625,51.7857479 L33.5390625,52.1114771 L37.8375833,52.1114771 L37.8375833,51.7923729 L37.5339375,51.6687063 C37.0492083,51.4699563 37.0591458,50.1427479 37.066875,49.4714146 L37.066875,41.4087896 C37.0503125,40.2869563 37.2071042,39.3307479 37.5339375,39.1971437 L37.8375833,39.0723729 L37.8375833,38.7455396 L33.5390625,38.7455396 Z" id="Fill-5" fill="#22406E"></path>
            <path d="M80.669975,41.3733458 C80.6799125,40.6335542 80.6931625,39.3946792 80.2051208,39.1992417 L79.8981625,39.0744708 L79.8981625,38.7454292 L84.1966833,38.7454292 L84.1966833,39.0733667 L83.8930375,39.1970333 C83.5662042,39.3306375 83.4094125,40.2868458 83.425975,41.4086792 L83.425975,49.4713042 C83.41935,50.1415333 83.4072042,51.4698458 83.8930375,51.6685958 L84.1966833,51.7933667 L84.1966833,52.1168875 L79.8981625,52.1168875 L79.8981625,51.7856375 L80.2106417,51.6652833 C80.6876417,51.4797833 80.6766,50.1470542 80.6688708,49.4757208 C80.6688708,49.4713042 80.669975,41.3766583 80.669975,41.3733458" id="Fill-7" fill="#22406E"></path>
            <path d="M4.63661667,44.8352396 L4.19053333,44.8694688 L3.91559583,44.8716771 L3.91559583,38.8771563 C4.24684583,38.8407188 4.6553875,38.8208438 5.1357,38.8208438 C6.1725125,38.8208438 6.98297083,39.0836354 7.48205417,39.5838229 C7.91047083,40.0122396 8.12909583,40.6349896 8.12909583,41.4355104 C8.12909583,43.4848438 6.33040833,44.7170938 4.63661667,44.8352396 M9.607575,37.6195104 C8.63480417,36.6467396 7.18061667,36.1112188 5.51111667,36.1112188 L0.0212,36.1112188 L0.0212,36.4612396 L0.3027625,36.5539896 C1.00390833,36.8819271 0.967470833,38.6331354 0.967470833,39.8963021 C0.967470833,41.3648438 0.966366667,48.2736146 0.967470833,48.3453854 C0.967470833,48.3453854 0.969679167,48.6744271 0.969679167,48.6755313 C0.9785125,49.6206979 0.992866667,51.3696979 0.3027625,51.6556771 L0.000220833333,51.7815521 L0.000220833333,52.1116979 L5.03411667,52.1116979 L5.03411667,51.7848646 L4.8143875,51.6766563 C3.91449167,51.0804063 3.91449167,49.7929479 3.91559583,48.4502813 L3.91559583,45.6357604 L4.45442917,45.8278854 C4.45442917,45.8278854 5.29690833,46.1260104 6.06430417,46.1260104 C8.4051375,46.1260104 10.9248458,44.5227604 10.9248458,41.0026771 C10.9248458,39.6511771 10.4699292,38.4818646 9.607575,37.6195104" id="Fill-9" fill="#22406E"></path>
            <path d="M32.1702271,48.5094646 L32.0863104,48.5712979 C31.9460812,48.6739854 31.7992271,48.7722562 31.8036437,48.7678396 C30.9987062,49.2757562 29.7587271,49.8797354 28.4226854,49.8797354 C27.3781437,49.8797354 26.5157896,49.5473813 25.8599146,48.8915062 C25.0273729,48.0589646 24.5691437,46.7240271 24.5691437,45.1318187 C24.5691437,42.6905062 26.0133937,40.9856729 28.0803937,40.9856729 C29.0465396,40.9856729 30.0436021,41.3257562 30.9622687,41.9705896 L31.2305812,42.1582979 L31.7329771,42.5105271 L31.7329771,41.8977146 L31.7329771,39.2720062 L31.7329771,39.0257771 L31.3674979,38.9308187 C30.0977062,38.5984646 29.0686229,38.4438812 28.1322896,38.4438812 C26.3369146,38.4438812 24.7678937,39.0633187 23.5941646,40.2370479 C22.3354146,41.4969021 21.6419979,43.3353396 21.6419979,45.4144854 C21.6419979,47.5212354 22.2956646,49.2901104 23.5334354,50.5267771 C24.7734146,51.7667562 26.5467062,52.4226312 28.6622896,52.4226312 C29.7267062,52.4226312 30.6707687,52.2139437 31.4679771,51.8020896 L31.5242896,51.7744854 L31.6302896,51.7192771 L31.6744562,51.6077562 L32.5876021,48.5094646 L32.1702271,48.5094646 Z" id="Fill-11" fill="#22406E"></path>
            <path d="M65.1323625,48.5094646 C65.1323625,48.5094646 64.7613625,48.7722562 64.7657792,48.7678396 C63.9608417,49.2757562 62.7208625,49.8797354 61.3848208,49.8797354 C60.3402792,49.8797354 59.477925,49.5473813 58.82205,48.8915062 C57.9895083,48.0589646 57.5312792,46.7240271 57.5312792,45.1318187 C57.5312792,42.6905062 58.9755292,40.9856729 61.0425292,40.9856729 C62.0097792,40.9856729 63.0068417,41.3257562 63.9244042,41.9705896 L64.6951125,42.5105271 L64.6951125,39.2720062 L64.6951125,39.0257771 L64.3296333,38.9308187 C63.0598417,38.5984646 62.0307583,38.4438812 61.094425,38.4438812 C59.29905,38.4438812 57.7300292,39.0633187 56.5563,40.2370479 C55.29755,41.4969021 54.6041333,43.3353396 54.6041333,45.4144854 C54.6041333,47.5212354 55.2578,49.2901104 56.4955708,50.5267771 C57.73555,51.7667562 59.5088417,52.4226312 61.624425,52.4226312 C62.6888417,52.4226312 63.6329042,52.2139437 64.4301125,51.8020896 L64.592425,51.7192771 L65.5497375,48.5094646 L65.1323625,48.5094646 Z" id="Fill-13" fill="#22406E"></path>
            <path d="M47.3330854,38.7531583 L43.8074813,38.7454292 L39.5089604,38.7454292 L39.5089604,39.075575 L39.8148146,39.1992417 C40.3028563,39.3946792 40.2907104,40.6335542 40.2796687,41.3766583 C40.2796687,41.3766583 40.2796687,49.4724083 40.2796687,49.4757208 C40.2862937,50.1470542 40.2973354,51.4797833 39.8203354,51.6652833 L39.5089604,51.7856375 L39.5089604,52.1124708 L43.8074813,52.1124708 L43.8074813,51.7933667 L43.5038354,51.6685958 C43.0180021,51.4698458 43.0290438,50.1415333 43.0367729,49.4724083 L43.0367729,46.8014292 L45.3886479,46.8014292 L45.4096271,46.8014292 L45.4295021,46.7992208 C45.4361271,46.7981167 46.4552729,46.7164083 46.6142729,47.1426167 L46.6849396,47.330325 L46.9676063,47.3855333 L47.1520021,43.8113458 L46.7975646,43.8069292 L46.7268979,44.0299708 C46.6341479,44.3203667 45.6956063,44.388825 45.4272938,44.375575 L45.4096271,44.3744708 L43.0356688,44.3744708 C43.0345646,43.209575 43.0356688,41.7222625 43.0400854,41.0851583 L46.2156687,41.0851583 C46.9245438,41.0851583 47.2977521,41.2529917 47.4269396,41.6284083 L47.5009188,41.8437208 L47.8200229,41.8437208 L48.5962521,38.664825 C48.5962521,38.664825 47.5760021,38.7531583 47.3330854,38.7531583" id="Fill-15" fill="#22406E"></path>
            <path d="M93.5889458,38.7531583 L90.0633417,38.7454292 L85.7648208,38.7454292 L85.7648208,39.075575 L86.070675,39.1992417 C86.5587167,39.3946792 86.5465708,40.6335542 86.5355292,41.3766583 C86.5355292,41.3766583 86.534425,49.4724083 86.534425,49.4757208 C86.5421542,50.1470542 86.5531958,51.4797833 86.0773,51.6652833 L85.7648208,51.7856375 L85.7648208,52.1124708 L90.0633417,52.1124708 L90.0633417,51.7933667 L89.7596958,51.6685958 C89.2738625,51.4698458 89.2849042,50.1415333 89.2926333,49.4724083 L89.2926333,46.8014292 L91.6445083,46.8014292 L91.6665917,46.8014292 L91.6853625,46.7992208 C91.6930917,46.7981167 92.7111333,46.7164083 92.8712375,47.1426167 L92.9408,47.330325 L93.2234667,47.3855333 L93.4078625,43.8113458 L93.053425,43.8069292 L92.9827583,44.0299708 C92.8900083,44.3203667 91.9525708,44.388825 91.6831542,44.375575 L91.6654875,44.3744708 L89.2926333,44.3744708 C89.290425,43.209575 89.2915292,41.7222625 89.2959458,41.0851583 L92.4726333,41.0851583 C93.1804042,41.0851583 93.5536125,41.2529917 93.6828,41.6284083 L93.7567792,41.8437208 L94.0758833,41.8437208 L94.8521125,38.664825 C94.8521125,38.664825 93.8318625,38.7531583 93.5889458,38.7531583" id="Fill-17" fill="#22406E"></path>
            <path d="M104.605769,48.8496583 C103.796415,49.5143667 102.474727,49.8820542 101.102248,49.8820542 C99.7297688,49.8820542 99.1390396,49.6965542 99.1390396,49.6965542 C99.1390396,49.622575 99.1390396,49.5474917 99.1401438,49.4713042 L99.1401438,46.2791583 L101.094519,46.2758458 C101.102248,46.2747417 102.135748,46.2471375 102.281498,46.6203458 L102.35106,46.80695 L102.654706,46.8643667 L102.826956,43.5717417 L102.472519,43.567325 L102.401852,43.7914708 C102.309102,44.0807625 101.426873,44.1315542 101.15856,44.1183042 L99.1390396,44.1172 C99.1390396,43.0450542 99.1390396,41.6880333 99.1434563,41.0851583 L101.664269,41.0851583 C102.373144,41.0851583 103.024602,41.0785333 103.234394,41.6284083 L103.309477,41.8437208 L103.639623,41.8437208 L104.25354,38.664825 C104.25354,38.664825 103.237706,38.7410125 102.99479,38.744325 L95.6123312,38.744325 L95.6123312,39.0744708 L95.9181854,39.1992417 C96.4062271,39.3946792 96.3940812,40.6335542 96.3841438,41.3766583 C96.3841438,41.3766583 96.3830396,49.4713042 96.3830396,49.4746167 C96.3896646,50.1062 96.3962896,51.4024917 95.9899562,51.6619708 C95.8729146,51.7370542 95.6123312,51.7779083 95.6123312,51.7812208 L95.6123312,52.1113667 L104.154165,52.1113667 L104.971248,48.8496583 L104.605769,48.8496583 Z" id="Fill-19" fill="#22406E"></path>
            <path d="M79.0055542,48.1099771 L78.865325,48.2413729 C77.778825,49.2516854 76.4295333,49.7264771 74.9952208,49.7264771 C73.5598042,49.7264771 72.9757,49.6756854 72.9757,49.6756854 L72.9757,39.2898938 C72.9757,38.3690188 72.9757,36.8143521 73.7817417,36.5471438 L74.0842833,36.4610188 L74.0842833,36.1109979 L69.1044917,36.1109979 L69.1044917,36.4610188 L69.4070333,36.5460396 C70.0573875,36.8143521 70.0441375,38.3911021 70.0342,39.2898938 L70.0342,48.9800604 C70.0441375,49.8755396 70.0573875,51.4191646 69.4158667,51.6687063 L69.1044917,51.7901646 L69.1044917,52.1136854 L78.0084917,52.1136854 L79.4262417,48.1099771 L79.0055542,48.1099771 Z" id="Fill-22" fill="#22406E"></path>
            <path d="M53.3650375,1.46589167 C56.20385,1.46589167 58.9443917,1.8887875 61.5314542,2.67164167 C60.993725,3.03380833 60.3036208,3.45118333 59.3893708,3.91382917 C56.0536833,5.60430833 55.614225,5.741225 54.1346417,6.483225 C53.2248083,6.94035 52.4706625,7.42949583 51.8589542,7.887725 L51.83135,7.86012083 C51.83135,7.86012083 51.2097042,7.05739167 50.8066833,6.7681 C50.4036625,6.47770417 49.6329542,6.32312083 49.3613292,6.1851 C48.8324333,5.91789167 48.763975,5.73349583 48.0230792,5.50051667 C47.3738292,5.29624583 46.9796417,5.40776667 46.5490167,5.32826667 C46.2111417,5.264225 45.7661625,5.07762083 45.2140792,5.13614167 C44.9016,5.1681625 44.4102458,5.3901 44.060225,5.4199125 C43.6119333,5.45745417 43.159225,5.27968333 42.8246625,5.33930833 C42.4790583,5.4000375 42.0164125,5.77324583 41.4720583,5.87593333 C41.0933292,5.9466 40.668225,5.86489167 40.3877667,5.93224583 C40.1073083,6.00070417 39.5176833,6.50751667 39.2339125,6.61130833 C38.9501417,6.71289167 38.2997875,6.7681 38.3450583,7.32901667 C38.3859125,7.834725 39.4900792,7.94735 39.4900792,7.94735 C39.4900792,7.94735 44.2424125,8.59770417 48.7617667,10.9606208 C48.101475,11.7710792 47.4743083,12.6853292 46.8846833,13.6470583 C46.5291417,13.53885 46.0466208,13.3875792 45.73635,13.3566625 C45.2449958,13.3058708 44.7392875,13.5432667 44.4367458,13.532225 C43.7654125,13.5035167 43.6792875,13.3522458 42.9141,13.4836417 C42.3344125,13.5841208 42.2792042,13.7585792 41.7712875,13.9021208 C41.44335,13.9937667 41.0182458,13.8469125 40.4142667,14.0412458 C40.124975,14.1339958 39.6490792,14.6419125 39.3377042,14.7876625 C39.0881625,14.9047042 38.6222042,14.910225 38.2821208,15.161975 C38.0127042,15.3618292 38.031475,15.6146833 37.4893292,15.9481417 C37.1426208,16.16235 36.8754125,16.0938917 36.5110375,16.4417042 C36.3133917,16.6305167 36.24935,16.9650792 35.6619333,17.4155792 C34.8757667,18.0195583 34.9939125,18.500975 35.0667875,18.67985 C35.2776833,19.2021208 36.4569333,18.6831625 36.4569333,18.6831625 C36.4569333,18.6831625 40.2994333,17.3736208 44.9921417,17.1296 C43.808475,19.5521417 42.7551,21.8962875 42.2041208,23.4123083 C42.0683083,23.7866208 41.9556833,24.1101417 41.8640375,24.3729333 C41.7712875,24.3464333 41.7933708,24.3596833 41.7712875,24.3464333 C41.4720583,24.1598292 41.4720583,23.734725 41.6409958,22.9121208 C41.8165583,22.0530792 42.4801625,20.4167042 42.6833292,19.9816625 L42.4161208,19.9816625 C42.1743083,20.3968292 41.5084958,21.6301833 41.3450792,21.9791 C41.1275583,22.4406417 41.0403292,22.5742458 40.5180583,23.6651625 C40.429725,23.8506625 40.1150375,24.3861833 39.8500375,24.3729333 C39.6457667,24.3629958 39.4127875,24.2227667 39.4127875,24.0173917 C39.4127875,23.9147042 39.5607458,23.7027042 39.6137458,23.6232042 C40.2751417,22.6460167 40.6516625,21.6555792 40.7896833,21.2558708 L40.5257875,21.2558708 C40.5257875,21.2558708 38.799975,25.1745583 35.1849333,25.1745583 C33.9228708,25.1745583 32.6586,24.5805167 32.6586,24.5805167 C32.6586,24.5805167 30.9438292,25.3600583 28.6029958,25.3600583 C26.7987875,25.3600583 25.6670167,25.0034125 25.2419125,24.8399958 C27.7207667,11.6153917 38.9689125,1.46589167 53.3650375,1.46589167 M63.2672042,2.23549583 C63.5852042,2.05882917 63.8038292,1.88437083 64.1096833,1.79162083 C64.4243708,1.69555833 64.7258083,1.792725 65.0062667,1.779475 C65.2304125,1.76732917 65.6621417,1.40295417 65.8586833,1.4184125 C66.08835,1.434975 66.2815792,1.49901667 66.439475,1.58293333 C66.6139333,1.67568333 67.2775375,1.21745417 67.46635,1.2262875 C67.5944333,1.23180833 68.0316833,1.23843333 67.9334125,1.71764167 C67.8483917,2.09968333 67.5966417,3.20385 67.0533917,4.57632917 C66.8866625,4.999225 66.691225,5.44751667 66.4648708,5.90795417 C66.2131208,6.41918333 65.922725,6.94587083 65.5881625,7.47035 C64.2057458,9.63230833 62.9922667,9.14868333 60.3776,10.3577458 C58.3713292,11.2852458 57.5277458,11.9378083 57.1920792,12.260225 C57.045225,12.1696833 56.8751833,12.061475 56.6896833,11.9433292 C57.0562667,11.5911 57.8678292,11.0224542 59.6190375,10.126975 C61.45085,9.1895375 64.4597042,7.89214167 65.0946,6.867475 C65.1453917,6.78576667 65.0912875,6.72724583 65.0449125,6.66762083 C64.3614333,7.12805833 63.7607667,7.44495417 63.4460792,7.60395417 C60.4913292,9.10120417 59.4799125,9.4711 58.1681625,10.1291833 C57.5310583,10.4482875 56.6300583,11.0301833 55.9830167,11.4806833 C55.8140792,11.3669542 55.6440375,11.2510167 55.4751,11.1317667 C56.0481625,10.6790583 56.83985,10.1170375 57.7563083,9.65770417 C59.0680583,8.99851667 60.1932042,8.44643333 63.352225,6.60799583 C63.6415167,6.4401625 65.220475,5.46849583 66.4173917,4.59620417 C66.4438917,4.4924125 66.4670792,4.39082917 66.4891625,4.2936625 C65.405975,4.919725 61.8825792,6.80012083 61.1604542,7.16670417 C58.2046,8.66395417 58.3393083,8.55905833 57.0275583,9.21824583 C56.1431208,9.66212083 55.3437042,10.2296625 54.7816833,10.6271625 C54.6083292,10.4935583 54.4460167,10.3632667 54.3002667,10.2384958 C55.0146625,9.7659125 55.6694333,9.30105833 56.6134958,8.79976667 C57.9407042,8.09530833 58.1030167,7.96501667 61.0588708,6.469975 C62.5605375,5.71030833 65.2083292,3.94364167 66.5896417,3.06251667 C66.6051,2.94437083 66.6194542,2.90462083 66.6338083,2.8030375 C65.1630583,3.61570417 60.9760583,5.79864167 60.2804333,6.15087083 C57.3256833,7.64812083 56.9900167,7.768475 55.6782667,8.4276625 C54.9031417,8.81632917 54.1788083,9.2889125 53.6686833,9.65549583 C53.5483292,9.5406625 53.4290792,9.42693333 53.3120375,9.3154125 C53.7879333,8.95435 54.5862458,8.38901667 55.7345792,7.73093333 C57.0275583,6.9900375 57.2771,6.89839167 60.2329542,5.40114167 C60.4880167,5.27195417 61.907975,4.48468333 63.3422875,3.61901667 C63.7464125,3.37499583 64.1792458,3.10889167 64.5612875,2.87149583 C64.8240792,2.70807917 65.0758292,2.45632917 65.3099125,2.3260375 L65.1619542,2.25205833 C64.5336833,2.51926667 63.7375792,2.94768333 63.524475,3.07135 C61.9963083,3.96020417 59.9955583,4.8336 59.4015167,5.1350375 C56.4478708,6.6322875 56.1111,6.75374583 54.79935,7.410725 C54.077225,7.77399583 53.2756,8.31614167 52.7102667,8.73130833 C52.5744542,8.59770417 52.4485792,8.47514167 52.3381625,8.364725 C52.9432458,7.8645375 53.7570167,7.291475 54.8037667,6.76699583 C56.1155167,6.1089125 56.3992875,5.98855833 59.3529333,4.49020417 C59.893975,4.217475 60.3455792,3.96130833 60.7276208,3.72612083 C60.7938708,3.7437875 62.0912667,3.00951667 63.2672042,2.23549583 M61.7048083,12.4876833 C61.6451833,12.8807667 61.4221417,13.0298292 61.2465792,13.1126417 C61.0710167,13.1965583 60.7861417,13.4096625 60.70885,13.5278083 C60.6746208,13.5819125 60.6315583,13.5576208 60.6039542,13.5311208 C60.5884958,13.5167667 60.450475,13.4416833 60.3831208,13.3820583 C60.3610375,13.3621833 60.3455792,13.3423083 60.3433708,13.3235375 C60.3345375,13.2495583 60.3522042,13.1910375 60.3522042,13.1910375 L60.3621417,13.0530167 C60.3798083,13.015475 60.36435,12.8377042 60.36435,12.8377042 C60.36435,12.8377042 60.3025167,12.538475 60.3433708,12.2944542 C60.3963708,11.981975 60.7121625,11.7357458 60.7121625,11.7357458 L60.8512875,11.7843292 C60.8512875,11.7843292 60.6933917,11.9654125 60.5984333,12.2171625 C60.54985,12.34635 60.5156208,12.7162458 60.6105792,12.9326625 C60.6249333,12.9657875 60.6216208,13.1170583 60.6216208,13.1170583 L60.6989125,13.1844125 C60.6989125,13.1844125 60.7960792,13.1203708 60.8269958,13.094975 C61.0147042,12.9414958 61.0942042,12.8840792 61.0942042,12.8840792 C61.0942042,12.8840792 60.8038083,12.6886417 60.9451417,12.4037667 C61.07985,12.1288292 61.3923292,12.2182667 61.3923292,12.2182667 C61.4883917,11.8914333 61.4387042,11.5557667 61.4387042,11.5557667 L61.6341417,11.6198083 C61.6341417,11.6198083 61.7732667,12.0438083 61.7048083,12.4876833 M58.3050792,17.1715583 C57.7176625,17.1682458 56.8873292,16.9176 56.594725,16.4637875 C56.6687042,17.3151 57.66135,17.9952667 58.56235,18.0559958 L58.56235,18.1112042 C58.3713292,18.1675167 58.1670583,18.1984333 57.9561625,18.196225 C56.8155583,18.1896 55.8913708,17.2808708 55.8913708,16.1678708 C55.8913708,16.0320583 55.918975,15.8311 55.9476833,15.6875583 C56.7769125,16.3577875 58.6672458,17.3250375 59.6841833,15.9194333 L59.7206208,16.0121833 C59.496475,16.6261 58.9962875,17.175975 58.3050792,17.1715583 M50.3451417,25.25185 C50.24135,25.2639958 50.2766833,25.2761417 50.168475,25.2860792 C50.6013083,23.4575792 51.7043708,19.0122042 54.4095792,14.4619333 C54.7827875,14.737975 55.0809125,14.96985 55.3039542,15.1498292 C53.3473708,18.1664125 51.2847875,22.0067042 50.3451417,25.25185 M48.0208708,25.3280375 C47.9214958,25.3214125 47.9634542,25.3147875 47.8662875,25.30485 C48.3344542,23.3515792 49.6417875,18.3044333 52.8416625,13.3654958 C53.162975,13.5797042 53.4599958,13.7828708 53.7305167,13.9727875 C51.5442667,17.1406417 49.068725,21.6301833 48.0208708,25.3280375 M45.6601625,24.6975583 C46.2950583,22.2650792 47.8011417,17.1318083 51.1876208,12.3220583 C51.5188708,12.5208083 51.8324542,12.7151417 52.129475,12.9039542 C49.8736625,15.9382042 47.0668708,20.779975 45.8136417,24.8179125 C45.7142667,24.7781625 45.7573292,24.7395167 45.6601625,24.6975583 M43.7367042,23.8042875 C43.6516833,23.7523917 43.7124125,23.7038083 43.6373292,23.6574333 C44.4455792,21.0008083 46.378975,15.5694125 49.5269542,11.3702667 C49.8449542,11.5436208 50.1508083,11.7158708 50.4456208,11.8859125 C48.2704125,14.5491625 45.2759125,19.494725 43.7367042,23.8042875 M82.4763917,29.935725 C82.471975,29.6497458 82.4642458,29.3648708 82.4509958,29.0811 C82.299725,29.0888292 74.4899542,29.6199333 70.6353083,29.6199333 C65.58485,29.6199333 58.3260583,29.5415375 58.3260583,29.5415375 L24.7649125,29.2091833 C24.768225,29.1285792 24.7847875,28.5864333 24.7892042,28.5069333 L58.2896208,28.3954125 C58.2896208,28.3954125 65.58485,28.4804333 70.6353083,28.4804333 C74.4645583,28.4804333 82.2566625,28.4495167 82.4112458,28.4550375 C82.3825375,28.0354542 82.3461,27.4601833 82.3008292,27.0450167 C82.1429333,27.05385 74.402725,27.6589333 70.6353083,27.6589333 C65.58485,27.6589333 58.3260583,27.3365167 58.3260583,27.3365167 L49.7223917,27.3619125 L38.3616208,27.0262458 L24.9294333,26.9069958 C24.9426833,26.7943708 25.01335,26.2566417 25.0277042,26.1451208 C25.4936625,26.2146833 25.9309125,26.3736833 27.550725,26.3736833 C29.6806625,26.3736833 30.7395583,25.8646625 30.7395583,25.8646625 C30.7395583,25.8646625 32.2853917,26.3195792 34.4153292,26.3195792 C35.4157042,26.3195792 37.5721417,25.3070583 38.9137042,25.708975 C41.0624125,26.3538083 41.9126208,25.3854542 41.9126208,25.3854542 C41.9126208,25.3854542 42.4117042,26.0424333 43.32485,26.2334542 C44.0977667,26.3957667 44.9645375,25.8712875 44.9645375,25.8712875 C44.9645375,25.8712875 46.1736,26.7524125 49.6451,26.7303292 C53.9071833,26.7049333 55.0665583,24.4910792 55.0665583,24.4910792 L55.2200375,24.4910792 C55.2200375,24.4910792 55.06435,25.0950583 55.3083708,25.6283708 C55.746725,26.5845792 57.0960167,26.7170792 57.0960167,26.7170792 C56.9381208,24.03285 58.1151625,22.2816417 58.1151625,22.2816417 L58.2730583,22.2816417 L58.1295167,22.8513917 C57.6458917,24.7715375 58.48285,26.5359958 58.48285,26.5359958 L58.8980167,26.3228917 C58.8980167,26.3228917 58.5192875,25.0906417 58.9223083,23.4045792 C59.324225,21.7174125 59.8840375,20.8550583 59.8840375,20.8550583 L60.0883083,20.8550583 C60.0883083,20.8550583 59.6676208,22.1634958 59.6786625,23.2014125 C59.6897042,24.0670792 60.1468292,26.0689333 61.7975583,26.6651833 C63.060725,27.1212042 63.9286,26.0954333 63.9286,26.0954333 C63.9286,26.0954333 66.5752875,26.7700792 68.8211625,26.7700792 C74.0284125,26.7700792 75.1988292,25.8955792 75.1988292,25.8955792 C75.1988292,25.8955792 75.5433292,26.5216417 78.2087875,26.5216417 C79.7634542,26.5216417 80.9471208,26.4156417 81.6659333,26.3273083 C81.8922875,26.2986 82.0733708,26.2732042 82.2036625,26.252225 C82.1429333,25.8094542 82.0733708,25.3688917 81.9960792,24.9327458 C80.524225,16.7851 75.8017042,9.76812083 69.2208708,5.27305833 L68.8399333,6.33857917 C75.2650792,10.6050792 79.9268708,17.2598917 81.3667042,25.1314958 C80.6213917,25.3898708 79.5724333,25.6846833 78.2087875,25.6846833 C76.1627667,25.6846833 75.6725167,25.0343292 75.6725167,25.0343292 C75.6725167,25.0343292 74.9283083,25.5599125 73.5823292,25.5599125 C72.4240583,25.5599125 71.4799958,24.7185375 71.4799958,24.7185375 C71.4799958,24.7185375 70.2146208,25.8757042 68.1454125,25.8757042 C65.564975,25.8757042 64.2609542,24.2669333 63.8137667,23.5613708 C63.3632667,22.8480792 63.1093083,22.2551417 63.1093083,22.2551417 L62.901725,22.2551417 C62.9569333,22.5400167 63.0154542,22.8701625 63.1490583,23.2257042 C63.497975,24.1576208 63.7044542,24.4723083 63.83585,24.7163292 C63.9076208,24.8499333 64.0776625,25.2098917 63.7132875,25.3169958 C63.4990792,25.3788292 63.3290375,25.2352875 63.2627875,25.1182458 C63.1225583,24.9294333 62.66985,24.27135 62.3562667,23.2665583 C62.0228083,22.2010375 61.9422042,21.4115583 61.8881,20.8550583 L61.7279958,20.8550583 C61.6540167,21.3949958 61.5734125,22.131475 61.6374542,23.1296417 C61.7081208,24.2227667 62.013975,24.9879542 62.0912667,25.1679333 C62.1034125,25.1944333 62.1674542,25.33135 62.1773917,25.4119542 C62.2182458,25.7443083 61.9554542,25.9198708 61.6794125,25.8580375 C61.4398083,25.8039333 61.2366417,25.5742667 61.1085583,25.3589542 C60.0010792,23.4973292 61.34485,19.9662042 61.7699542,18.7670792 C62.3485375,17.136225 62.5263083,15.6334542 62.5263083,15.6334542 C62.5263083,15.6334542 63.2749333,14.4089333 63.67685,13.5940583 C64.1891833,12.5561417 64.5546625,11.5425167 64.89585,11.2013292 C65.4214333,10.6757458 66.1866208,9.45343333 67.0401417,7.90649583 C67.2035583,7.61057917 67.9223708,6.0294125 68.0614958,5.6319125 C68.161975,5.343725 68.3088292,5.03787083 68.3960583,4.7276 C68.8145375,3.23255833 69.0640792,1.63151667 69.08285,1.38418333 C69.1104542,1.01539167 68.4358083,0.754808333 68.4358083,0.754808333 C68.4358083,0.754808333 67.8804125,0.541704167 67.4796,0.542808333 C67.2709125,0.5439125 66.9738917,0.764745833 66.7265583,0.878475 C66.4008292,1.02864167 66.2396208,0.930370833 66.2396208,0.930370833 C66.2396208,0.930370833 65.7449542,0.730516667 65.4810583,0.783516667 C65.2558083,0.8287875 64.9930167,1.11807917 64.7909542,1.20420417 C64.4287875,1.35657917 64.3360375,1.27818333 64.3360375,1.27818333 C64.3360375,1.27818333 63.9175583,1.16445417 63.6161208,1.26382917 C63.3422875,1.355475 63.0750792,1.4946 62.6179542,1.86449583 C59.3452042,0.658745833 55.8085583,-0.000441666668 52.1173292,-0.000441666668 C35.5084542,-0.000441666668 22.0133292,13.3356833 21.7571625,29.8838292 C21.7549542,30.0406208 21.75385,30.7252042 21.75385,30.7252042 L82.4808083,30.7252042 C82.4808083,30.7252042 82.4797042,30.0925167 82.4763917,29.935725" id="Fill-24" fill="#1A77B2"></path>
        </g>
    </g>
</svg>