<svg xmlns="http://www.w3.org/2000/svg" width="121" height="80" viewBox="0 0 121 80"><g fill="#FFF" fill-rule="evenodd"><g transform="translate(30)"><path d="M36.8906425,18.324147 C37.2048287,17.1382027 37.8422977,16.3903288 39.2165997,16.4480372 C37.9430612,15.3436324 36.9685476,15.5672236 35.2527694,17.2323586 C35.76615,17.574404 36.2716002,17.9115431 36.8906425,18.324147 M30.2799047,21.9107175 C29.4619012,21.6819863 28.9900388,21.5401683 28.5132782,21.4182095 C25.5664128,20.6630928 25.4301955,20.7294459 24.3332263,23.4394082 C24.3099014,23.4973503 24.3577174,23.5842635 24.394804,23.77094 C26.4380636,23.7943037 28.3504706,23.4242218 30.2799047,21.9107175 M43.862916,3.48886152 C42.1226466,3.81104774 40.42063,4.07318911 38.7440376,4.4486447 C36.1738689,5.02409406 33.7751382,6.01378286 31.8312426,7.8567161 C30.6479714,8.97864377 29.8931782,10.3592082 29.7431992,12.0360252 C30.2789717,11.5458535 30.8208087,11.1014748 31.3034005,10.6000886 C34.3011142,7.48569962 38.1431886,6.31938081 42.2688936,5.79883628 C42.4608574,5.77453797 42.6630841,5.81215362 42.8503829,5.77290251 C46.7759604,4.94769457 49.7062652,6.47545072 52.000034,9.81389812 C51.2569033,9.686332 50.580715,9.56203681 49.9017277,9.45503079 C45.7624943,8.80271467 41.6395883,8.43730549 37.6692271,10.2769678 C35.1013909,11.4664167 33.3340647,13.3549093 32.7777662,16.4132252 C33.1351034,16.1856622 33.5344254,16.0041258 33.8423138,15.7223589 C35.1461747,14.5282372 36.5694589,13.6553672 38.4289184,13.9170413 C40.1971777,14.166099 41.5297281,15.3160632 41.8849661,16.9456853 C42.2649284,18.6897898 41.7937658,20.1745567 40.3707148,21.3074653 C40.1307018,21.4983472 39.879726,21.6754445 39.6364475,21.8567473 C40.8943584,25.229773 40.2263338,28.2507069 38.1413226,31.0550588 C38.949763,28.6605073 38.8555305,26.4175865 37.1399855,24.2739617 C37.0079667,25.8082597 37.051351,27.2469999 36.7213039,28.5939205 C36.3865918,29.960934 35.868313,31.3587877 35.1037234,32.5290783 C33.3445609,35.2215178 30.6041206,35.3801577 27.7426242,34.9703574 C27.4421997,34.9271345 27.1427082,34.8757342 26.748751,34.813353 C26.6118339,35.503752 26.5052392,36.1429844 26.3554935,36.7721704 C26.0895899,37.8889581 25.419466,38.7263152 24.2821448,38.8980388 C20.6245702,39.450358 17.2940105,38.7417353 14.399626,36.2598032 C13.0897006,35.1367074 13.2056253,33.6760052 13.6884503,32.4428661 C14.1708089,31.2108951 15.3302887,31.0087986 16.500498,31.0069295 C17.0707913,31.0057613 17.6413179,31.1010854 18.2116113,31.1520184 C18.0180148,29.8723854 17.6599778,29.5011353 16.4386871,29.6522988 C15.1968704,29.806266 14.0187307,29.9852323 12.8333602,29.3076834 C12.5021469,29.1184369 11.8922013,29.4331467 11.407277,29.4936589 C11.0916913,29.5331436 10.7712075,29.5310409 10.4528228,29.5476292 C10.4460586,29.2179665 10.3007446,28.7848025 10.4560883,28.5770986 C11.1164157,27.6944159 11.8317898,26.8456105 12.5982454,26.0535791 C12.9378557,25.7026555 13.4309437,25.484438 13.8811139,25.2596786 C15.9143437,24.2445233 17.4824755,22.9368538 18.1992491,20.5743106 C18.8241227,18.5154962 20.4939509,17.2022194 22.7338392,16.5830798 C21.8097074,13.716113 21.7978117,10.9619932 23.3489163,8.35366323 C24.1484933,7.00861168 25.2466287,5.97873722 26.6130002,5.20609774 C24.9011872,7.36631082 23.7468388,9.62581987 24.9657971,12.6969859 C26.2498318,7.05206827 30.2635773,4.54770703 35.237375,2.91972037 C21.7304028,0.17120786 7.07747931,8.31978579 3.29814883,23.1767996 C-0.496109569,38.0926901 8.48000441,51.9861825 21.0024333,56.0047489 C20.2795952,48.3708745 23.0802137,42.5551679 29.9288653,38.7875282 C28.3341432,42.1149947 27.5882135,45.5247015 28.614275,49.143514 C29.541439,45.7653482 31.4256229,43.0574887 33.9377126,40.6841981 C36.4185469,38.3403459 39.0183382,36.047193 40.5398202,32.901263 C41.3939773,31.1351965 42.0104539,29.2539467 42.9490471,27.377136 C42.9490471,29.1859582 43.0847979,31.0071631 42.923623,32.8014998 C42.439865,38.1875469 40.2568894,42.9343617 36.9333271,47.1068952 C33.9360798,50.8698621 31.7605682,54.8508129 32.2044407,59.8272933 C23.4265882,60.9744539 10.4019746,56.4659495 3.89713178,44.6812699 C-3.04132059,32.1113343 -0.563751724,17.1522209 10.1241753,7.58593014 C20.3330092,-1.55116839 34.536229,-1.80816973 43.862916,3.48886152"/><path d="M0,0 C4.76943995,1.73770726 9.11597159,4.21929289 13.3131725,7.03422243 C14.9853482,8.15555362 15.100218,9.48410479 14.9537004,11.1230265 C14.3650515,17.7062812 11.9823241,23.554847 7.55960335,28.5763707 C7.43207445,28.721103 7.33502122,28.8915656 7.20186605,29 C11.6970251,17.6504559 10.1136976,7.825426 0,0" transform="translate(46 21)"/><path d="M49.2186277 32.0000683C49.4653783 33.4066221 49.8429228 34.80393 49.9351404 36.2213891 50.2398694 40.908084 49.4226934 45.4861996 48.5005172 50.044638 48.3916365 50.5830307 48.1951034 51.1164448 48.1759294 51.6572082 48.0980923 53.837568 47.0122525 55.1758447 45.1122042 55.9804703 42.8478506 56.9394303 40.6193341 57.9894264 38.3752958 59.0000683 38.2502085 58.8793982 38.1251213 58.7589652 38.000034 58.638295 38.5136222 57.1992623 38.8621775 55.664215 39.5757228 54.3415851 41.0201612 51.6636091 42.6314588 49.0802253 44.230202 46.4954191 46.9595241 42.0827804 48.9869423 37.4413664 48.7559418 32.0126332L49.2186277 32.0000683ZM42.000034 12.5724609C45.7444971 11.7026681 49.319607 11.8392218 52.8723795 12.8795298 53.1994616 12.9752825 53.5153751 13.1509863 53.8467878 13.1865987 56.3923299 13.4599419 57.5807661 15.2339606 58.3527711 17.4876861 58.9668193 19.2801006 59.5879333 21.0701567 60.000034 23.0000683 59.819512 22.8566752 59.6173365 22.7347438 59.4612033 22.5670587 55.4979256 18.3107817 50.6552872 15.9061161 45.0103289 15.1422173 44.5948093 15.0860864 44.1863555 14.7330279 43.840811 14.4356286 43.5271769 14.1660589 43.326141 13.7611147 43.0343884 13.458291 42.7503854 13.1632501 42.414186 12.9222176 42.000034 12.5724609M18.3455362 46.0000683C17.2552223 44.7866208 16.0369777 43.4311596 14.7904072 42.0440393 14.7221465 42.3886711 14.6538858 42.7342074 14.5772666 43.1209005 12.9285616 41.5374939 12.5338569 39.1895203 13.5758774 37.0000683 15.9745215 39.9762486 19.1414467 41.2518837 23.000034 41.1026337 21.4760093 42.7063926 19.9993491 44.2599492 18.3455362 46.0000683M11.0164024 38.0000683C10.4030786 35.8932363 9.66273384 34.1563701 10.167357 32.1861788 10.2846071 31.7284077 10.7249056 31.3922321 11.0164024 31.0000683 11.2757368 31.3868059 11.6647384 31.7274211 11.7720141 32.168667 12.2399966 34.0934759 11.9873797 35.9282597 11.0164024 38.0000683"/></g><g transform="translate(0 64)"><path d="M3.86618121 15.9912996C2.9707134 12.0551931 2.08281411 8.1521695 1.19484474 4.24923077 1.17893684 4.24973974 1.16302894 4.25024871 1.14712103 4.2508425L1.14712103 15.9697532 0 15.9697532 0 1.0377255 3.31725342 1.0377255C4.09702101 4.38767015 4.88113349 7.7563618 5.68402711 11.2058946 5.91626849 10.1579288 6.13855867 9.18435725 6.34732362 8.20654428 6.8362639 5.91644133 7.31630417 3.62353905 7.81050036 1.33504783 7.8379012 1.20831472 7.95969828 1.0174516 8.04000866 1.01567021 9.01859001.993530087 9.99766191 1.00133427 11 1.00133427L11 15.962967 8.39110381 15.962967 8.39110381 4.23659139C8.36244155 4.23022929 8.33384937 4.22386718 8.30518711 4.21750508 8.18591287 4.70781122 8.05346381 5.19404563 7.94953684 5.68910214 7.25904973 8.97644369 6.56870278 12.2638701 5.89657633 15.5568103 5.82082107 15.9280178 5.6850783 16.0128459 5.39866595 15.9985099 4.88730043 15.9728919 4.37439318 15.9912996 3.86618121 15.9912996M68.0258032 8.02967607C68.0258032 9.34067292 67.9811716 10.6534016 68.0359669 11.9622336 68.1237278 14.057404 69.0853859 15.1532207 71.0327412 15.3662361 72.8340052 15.5633186 74.2079539 14.8359491 74.6854687 12.9529281 74.9603291 11.8688013 75.0078773 10.7801717 74.9430067 9.6594166 74.8563948 8.16415283 74.9338153 6.66040309 74.912339 5.16063655 74.9049151 4.64584949 74.8527712 4.12422168 74.7500741 3.61956583 74.4500255 2.14473768 73.6205833 1.28115964 72.2466346 1.06320858 71.4319517.933927321 70.6096682.980686786 69.8138986 1.2641011 69.1674021 1.49426157 68.6775142 1.90288734 68.440215 2.51993909 68.2410959 3.03784345 68.0672533 3.59506041 68.0431256 4.14171318 67.9861208 5.4354783 68.0248311 6.73331321 68.0258032 8.02967607M71.3750353 16C69.6559643 15.9715114 68.0021175 15.6825552 66.6203914 14.5960904 65.3281054 13.5800245 64.5668922 12.2514496 64.229459 10.6403263 63.803823 8.60758842 64.0049749 6.6087079 64.5481557 4.66412031 65.1855491 2.38217185 66.7978575.91331852 69.1377949.316096247 71.0713631-.177475879 73.0134157-.104652343 74.8916582.616655695 76.5144838 1.23985545 77.6582038 2.39100419 78.2394762 3.976583 79.290486 6.84337114 79.2609672 9.73180718 78.0960361 12.5728776 77.6092415 13.7600485 76.5796195 14.4521751 75.4913136 15.0502633 74.2166151 15.750876 72.822781 15.9888297 71.3750353 16M80 7.00073458C80.5721716 7.00073458 81.099723 7.00073458 81.6273482 7.00073458 84.0723899 7.00080937 86.5175055 6.99826676 88.9625472 7.00223024 89.8316463 7.00365111 90.6764071 7.63713466 90.9381546 8.47096085 90.9710482 8.57573129 90.9984103 8.68798 90.9985578 8.79678871 91.0012129 11.1513942 90.9996641 13.5060745 90.9981891 15.86068 90.9981153 15.8973235 90.9882325 15.9339669 90.9787184 15.9994765L88.2202287 15.9994765C88.2202287 15.8626991 88.2202287 15.7186678 88.2202287 15.5746365 88.2202287 13.4318153 88.184975 11.2880968 88.2352004 9.14647223 88.2599075 8.09517819 87.7254234 7.82154859 86.8746149 7.88645991L86.8746149 16 84.0799127 16 84.0799127 15.5691026C84.0799127 13.4262067 84.0800602 11.2833855 84.0798389 9.1405644 84.0798389 8.15612603 83.7479528 7.84353468 82.7032492 7.89281643L82.7032492 15.9998504 80 15.9998504 80 7.00073458Z"/><polygon points="101 7 104.103 7 104.103 10.153 105.875 10.153 105.875 7.001 109 7.001 109 16 105.906 16 105.906 11.256 104.145 11.256 104.145 15.994 101 15.994"/><path d="M20 15.9881189 19.5016616 15.9881189C17.9268613 15.9881189 16.3501527 16.02474 14.7781694 15.9693947 14.1818716 15.9484147 13.5587669 15.7802733 13.0153563 15.563404 12.2843872 15.2716381 12.0046852 14.6908134 12.0031404 14.0329866 11.9976881 11.7649581 12.0005051 9.49692946 12.0028678 7.22890087 12.0029587 7.15671137 12.0317649 7.08444667 12.0497574 7L15.0631419 7C15.0745008 7.14490538 15.0953103 7.28800602 15.0954012 7.43110666 15.0974913 9.62393786 15.1365659 11.817521 15.0790444 14.0092995 15.0527826 15.0119815 15.6907902 15.2941973 16.8582143 15.1500439L16.8582143 7.01804737 20 7.01804737 20 15.9881189ZM29.0215437 7.0491819 32.0694148 7.0491819C32.0831983 7.15833254 32.1084982 7.26461675 32.1082262 7.37090096 32.102604 9.66004704 32.1061405 11.9492686 32.0804779 14.2382638 32.0697776 15.1972355 32.9229929 15.3615272 33.8636244 15.2283136L33.8636244 7 37 7 37 15.9665702C36.907687 15.9747923 36.7935199 15.9937259 36.6792621 15.9938013 34.9870684 15.9956871 33.2946933 16.0088123 31.6028623 15.9899542 30.5967592 15.9787148 29.3644077 15.4722619 29.1399728 14.6767521 29.0715088 14.4343125 29.0078509 14.1835753 29.0067627 13.9363834 28.9965158 11.7244801 29.0006871 9.51250133 29.0016846 7.30052256 29.0016846 7.22788118 29.0128383 7.15523981 29.0215437 7.0491819M42.8402929 10.9714833C41.7192067 10.945635 41.2688061 11.3023262 41.2678958 12.1799654 41.2671676 12.8669735 41.2642547 13.554132 41.268715 14.2411401 41.2739946 15.0574648 41.8693099 15.4016075 42.8402929 15.1435756L42.8402929 10.9714833ZM45.9816281 15.9940891C43.8768152 15.9940891 41.8597521 16.0115968 39.8434173 15.9863497 38.8872717 15.9744024 38.0723997 15.2265305 38.0330761 14.33747 37.9900204 13.3622235 37.9917499 12.3841968 38.022426 11.4084244 38.046457 10.6403398 38.7856857 10.0850527 39.7077873 10.0824228 40.7362992 10.0794923 41.7648111 10.0817465 42.8399288 10.0817465 42.8399288 9.50444327 42.8791613 8.95704589 42.8267299 8.41558459 42.7889538 8.02485482 42.3931692 7.79034181 41.9026257 7.78711078 40.9166233 7.78072385 39.9306209 7.78500685 38.9446186 7.78485657 38.7800421 7.78485657 38.6155566 7.78485657 38.4223977 7.78485657L38.4223977 7.03337801C38.5017731 7.02330921 38.5874294 7.00294618 38.6731766 7.00287104 40.6147784 7.00114281 42.5564713 6.99693495 44.4981642 7.00377272 45.2966513 7.00662805 45.9153606 7.39472792 45.9902756 7.92920116 46.0161272 8.11374584 45.9822653 8.30370062 45.9821742 8.49110063 45.981264 10.8326991 45.9816281 13.1742975 45.9816281 15.515896L45.9816281 15.9940891ZM97.0038593 10.9602206C95.9169962 10.8604174 95.3581678 11.250104 95.3559877 12.0570142 95.3542618 12.7384448 95.3538984 13.4198754 95.3561694 14.101306 95.3587128 14.881349 95.7023487 15.1491283 96.6386951 15.1480154 96.9537174 15.1476398 97.0609957 15.0678568 97.0516395 14.8072223 97.0221175 13.9901903 97.0151231 13.1726373 97.0049494 12.3552332 96.999045 11.8876985 97.0038593 11.4201639 97.0038593 10.9602206M99.964142 15.9890087 96.4418516 15.9890087C95.7456779 15.9890087 95.0472332 15.9595366 94.3536937 15.9949626 92.7407034 16.0773505 92.1042095 15.1352854 92.0371719 14.1841405 91.9745852 13.2943213 92.0057423 12.3990692 92.0249997 11.5066452 92.0392611 10.8439695 92.7129073 10.0881145 93.7895059 10.1236894 94.7263065 10.15465 95.6660139 10.1221265 96.6040863 10.1345554 96.9035754 10.1384998 97.0138514 10.0511999 96.9976824 9.81199963 96.9677063 9.36746218 96.9797876 8.92002217 96.9243771 8.47801515 96.8649698 8.0051964 96.5301451 7.78341143 95.9529676 7.78162524 95.0146227 7.77864826 94.0762779 7.780881 93.137933 7.78073215 92.4701912 7.7805833 92.4693737 7.78036002 92.5069801 7.21912498 92.510977 7.15921327 92.5305069 7.1000458 92.5503093 7.00433591 92.8745969 7.00433591 93.1884383 7.00433591 93.5021889 7.00433591 95.167047 7.00441034 96.8321776 6.98870677 98.4963091 7.01661595 98.867741 7.02286761 99.2782328 7.12706189 99.5898941 7.28997709 99.8020891 7.400944 99.988668 7.69209258 99.9903031 7.90360697 100.010287 10.532131 99.9943907 13.1607294 99.9868513 15.7894022 99.9866696 15.8378525 99.9761325 15.8863773 99.964142 15.9890087M115.003042 11.0350292C113.916648 10.9290173 113.351309 11.3221694 113.349222 12.1276063 113.347407 12.8215967 113.345592 13.5155127 113.349767 14.2094287 113.354395 14.9544895 113.710295 15.2221247 114.629265 15.2215302 114.942243 15.2213058 115.053859 15.1438814 115.043151 14.8819041 115.014748 14.1887326 115.010756 13.4947422 115.004222 12.8011239 114.998596 12.2094974 115.003042 11.617871 115.003042 11.0350292L115.003042 11.0350292ZM110.530332 7.00568576C111.235962 7.00568576 111.912463 7.00568576 112.588873 7.00568576 113.828081 7.00568576 115.067834 6.98737191 116.305953 7.0164805 116.697607 7.02571187 117.108952 7.11839779 117.467302 7.25210374 117.822295 7.38454409 118.001788 7.66111291 117.999987 8.01041598 117.986633 10.5516479 117.983276 13.0929543 117.976833 15.6342607 117.976561 15.732679 117.976833 15.8310973 117.976833 15.9884772L117.480279 15.9884772C115.757493 15.9884772 114.033436 15.9540085 112.312465 15.9986764 110.764 16.0388775 110.087499 15.1574307 110.030511 14.1599218 109.98042 13.2816762 110.002471 12.3998572 110.022979 11.5200482 110.041673 10.715728 110.793492 10.1303551 111.767272 10.1282706 112.70421 10.1262605 113.641329 10.1182203 114.577904 10.1329607 114.901862 10.1380231 115.00885 10.0407215 114.989884 9.78745439 114.956763 9.34330646 114.969467 8.89573399 114.912025 8.45411723 114.856127 8.02478416 114.513929 7.80174239 113.99006 7.8003279 112.845681 7.7972756 111.701301 7.7993601 110.530332 7.7993601L110.530332 7.00568576ZM55.206897 8.21360381C54.8380153 8.17691144 54.5390544 8.3513081 54.3576736 8.7220449 54.2674039 8.90651397 54.1542608 9.08112647 54.0649856 9.26595528 53.829596 9.75374791 53.5476945 10.2295256 53.3854386 10.7386142 53.2170627 11.2666965 53.7015355 11.6840542 54.2743654 11.5455585 54.4602597 11.5005924 54.653192 11.3838243 54.7833945 11.2490698 55.4228557 10.587528 55.8020648 9.79353395 55.9734242 8.92370902 56.0672893 8.44713993 55.8034418 8.2179925 55.206897 8.21360381M59.1201637 8.47239291C58.5457273 8.47239291 58.0268297 8.46879562 57.5080851 8.47404767 57.2732309 8.47634993 57.3260922 8.62793977 57.3212727 8.77974544 57.3046723 9.300849 57.3675551 9.85252952 57.2069822 10.3357896 56.7801137 11.6197346 56.023302 11.9769456 54.521383 12.1129951 53.8780968 12.1712713 53.2505696 12.0669498 52.6928866 11.7261425 52.1679455 11.4053361 51.8787766 10.7870337 52.0486825 10.2255686 52.4108322 9.02853408 53.0980292 8.09561267 54.4856576 7.81538371 54.791733 7.75358226 55.1165508 7.75581258 55.4324946 7.75833068 56.7059855 7.76847504 57.9794763 7.79466332 59.2529672 7.79998731 59.3633563 7.80041898 59.5110772 7.71631432 59.5784735 7.62861237 59.8613695 7.26060952 60.1045621 6.86541114 60.391283 6.50028612 61.0351047 5.6802477 61.9575383 5.28094842 62.995716 5L62.995716 5.55283166C61.6548289 5.52585198 61.1650012 6.71792222 60.8264899 7.87740101L63 7.87740101C62.9751376 8.42843402 62.9323742 8.46901146 62.4149301 8.46937119 61.8794321 8.46973092 61.343322 8.48447981 60.808742 8.46332774 60.5297475 8.45232003 60.4156864 8.54412289 60.3363562 8.79348709 59.8899039 10.195783 59.3597608 11.5752002 58.4196557 12.7564785 57.2558655 14.2187773 55.7003967 15.0332759 53.7138519 14.9989577 53.4499279 14.9944251 53.1824848 14.9421925 52.9249103 14.8812543 52.3001371 14.7334057 52.2755807 14.6836911 52.4181761 14.1405002 52.9733346 14.2435986 53.5213021 14.3988576 54.0782966 14.4369889 55.0323246 14.5023877 55.8227962 14.1177653 56.4175815 13.4335606 57.2284021 12.5007831 57.8014615 11.4342583 58.2795847 10.3197457 58.5359353 9.72223565 58.8179133 9.13443832 59.1201637 8.47239291M20 7 28 7 28 8.04452866 25.6786846 8.04452866 25.6786846 16 22.3005177 16C22.3005177 15.8535224 22.3005177 15.7069686 22.3005177 15.5604148 22.3005177 13.2391554 22.3006089 10.9179722 22.3004264 8.59678893 22.3004264 8.05290316 22.3000616 8.05267476 21.6679209 8.05221797 21.1228022 8.05183731 20.5776835 8.05214184 20 8.05214184L20 7Z"/><polygon points="47 7 49.944 7 49.944 14.96 53 14.96 53 16 47 16"/><path d="M1.42651419,0.286280431 C0.559649866,0.0387928345 0.137229987,0.286491779 0.194691515,1 L0,0.970200042 C0.0885218128,0.702634459 0.0674855287,0.341336383 0.294931526,0.192336591 C0.5484964,0.0261120012 1.04729634,-0.0309517487 1.40406607,0.0156503137 C1.9247494,0.0835984456 2.04320203,0.424607188 1.9874347,0.631621792 C1.57574474,0.774915209 1.28660172,0.875516486 1.00296485,0.974215639 C1.11520542,0.79192866 1.27078921,0.539263056 1.42651419,0.286280431" transform="translate(119 7)"/></g></g></svg>