<svg width="130" height="73" viewBox="0 0 130 73" fill="none" xmlns="http://www.w3.org/2000/svg">
<mask id="mask0" mask-type="alpha" maskUnits="userSpaceOnUse" x="9" y="20" width="27" height="34">
<path fill-rule="evenodd" clip-rule="evenodd" d="M9.15479 20.9382H35.9325V53.8375H9.15479V20.9382Z" fill="white"/>
</mask>
<g mask="url(#mask0)">
<path fill-rule="evenodd" clip-rule="evenodd" d="M24.4704 20.938C24.2324 20.9389 23.9935 20.9499 23.75 20.9627C8.59396 21.8104 9.15699 36.6212 9.15699 36.6212C9.36298 47.5639 18.9683 53.3181 25.3173 53.8382V42.2595C25.2788 42.2577 18.0895 41.9374 18.0895 34.7286C18.0895 31.3433 19.405 29.5648 20.9138 28.6377L20.9321 28.6267C21.9126 27.977 23.1302 27.5929 24.4494 27.5929C27.6939 27.5929 30.3259 29.9271 30.3259 32.8033C30.3259 35.4176 28.1516 37.5793 25.3209 37.9534V42.212C25.3612 42.213 35.8958 42.3042 35.9324 32.1107C35.9498 26.7808 31.831 20.9033 24.4704 20.938" fill="white"/>
</g>
<path fill-rule="evenodd" clip-rule="evenodd" d="M43.3823 29.5096V35.1935C44.2108 35.1917 44.4141 35.1972 44.4608 35.1972C48.0678 35.1707 49.2131 34.8084 49.268 32.362C49.3239 29.8125 47.7263 29.505 44.2081 29.505C43.938 29.505 43.8474 29.4968 43.3823 29.5096M43.3823 37.0395V42.3019H41.0835V27.6097C42.6407 27.6107 43.2312 27.6581 44.5459 27.6189C49.8796 27.6189 51.456 29.5214 51.5137 32.2617C51.5897 35.877 48.8661 37.0441 45.3625 37.0441C44.7537 37.0441 44.1367 37.0377 43.3823 37.0395" fill="white"/>
<path fill-rule="evenodd" clip-rule="evenodd" d="M59.2298 33.4618C58.8114 33.2665 58.2438 33.2692 57.819 33.2692C57.1388 33.2692 56.454 33.4992 55.945 34.1169C55.4351 34.7347 55.1925 35.3205 55.1925 36.1892V42.3021H53.0347V31.6404H54.8657L54.9453 33.0064C55.6466 31.7381 56.6884 31.3402 58.069 31.3402C58.4132 31.3402 58.8297 31.3776 59.4779 31.4972L59.2298 33.4618Z" fill="white"/>
<path fill-rule="evenodd" clip-rule="evenodd" d="M73.4306 42.3016V35.946C73.4306 34.8109 73.004 34.1904 72.624 33.736C72.1718 33.3746 71.8761 33.1976 70.9825 33.1976C70.5037 33.1976 70.1156 33.2971 69.5919 33.5553C69.0673 33.8145 68.4695 34.5025 68.2406 35.5272V42.3016H66.1387V31.4775H67.9413L68.0255 32.9421C68.7185 31.8936 70.1183 31.2567 71.6902 31.2567C74.2866 31.2567 75.625 32.8609 75.625 35.7024V42.3016H73.4306Z" fill="white"/>
<path fill-rule="evenodd" clip-rule="evenodd" d="M86.4848 32.5947L85.4924 34.2044C85.3038 34.0109 84.4359 33.5574 83.9553 33.3831C83.4765 33.2106 83.0599 33.196 82.5967 33.196C81.585 33.196 80.8096 33.6924 80.2155 34.4151C79.6222 35.1378 79.4611 35.7145 79.4611 36.9738C79.4611 38.2257 79.8099 38.9092 80.4169 39.5662C81.0229 40.2214 81.6574 40.4778 82.7331 40.4778C83.568 40.4778 84.6446 40.2022 85.4933 39.5425L86.5168 41.0873C85.518 41.7462 83.7758 42.4196 82.3019 42.4196C80.8728 42.4196 79.6918 41.9287 78.7589 40.9496C77.826 39.9714 77.2603 38.7723 77.2603 36.9738C77.2603 34.8623 77.8443 33.8996 78.8129 32.8666C79.7815 31.8337 81.1072 31.3181 82.7907 31.3181C83.3318 31.3181 83.9186 31.4349 84.5522 31.6676C85.1848 31.9003 86.1854 32.3474 86.4848 32.5947" fill="white"/>
<path fill-rule="evenodd" clip-rule="evenodd" d="M95.4973 35.6022V39.1545C95.587 39.879 96.151 39.9958 96.649 40.265C97.0665 40.4275 97.5938 40.5488 97.9902 40.5488C99.7132 40.5488 101.07 39.3142 101.123 36.9262C101.123 35.5794 100.927 34.6997 100.322 34.0756C99.7159 33.4523 99.1208 33.1932 98.3482 33.1932C98.0598 33.1932 97.0802 33.2598 96.5941 33.6722C96.1766 33.8575 95.4085 35.1578 95.4973 35.6022M95.4176 41.382V46.5303H93.2827V31.4777H95.0862L95.2565 32.8081C96.0356 32.0918 97.1324 31.2815 98.4882 31.2815C100.132 31.2815 101.05 31.7523 101.965 32.695C102.88 33.6376 103.365 35.0574 103.365 36.876C103.365 38.4957 102.703 39.9913 101.781 41.017C100.858 42.0417 100.019 42.4478 98.382 42.4478C97.8922 42.4478 97.1333 42.2735 96.5831 42.0891C96.064 41.9167 95.576 41.5882 95.4176 41.382" fill="white"/>
<path fill-rule="evenodd" clip-rule="evenodd" d="M111.42 37.2249C110.814 37.0917 110.028 36.9457 109.412 36.9995C108.441 36.9995 108.114 37.1026 107.569 37.4968C107.077 37.8536 106.744 38.236 106.744 38.9066C106.744 40.0153 107.38 40.6888 108.708 40.6888C109.892 40.6888 110.753 40.3402 111.354 38.8857C111.475 38.2268 111.493 37.7861 111.42 37.2249M111.602 41.0775C110.833 42.0265 109.871 42.501 108.286 42.501C107.437 42.501 106.26 42.1314 105.638 41.5237C105.013 40.9169 104.622 40.228 104.622 39.3255C104.622 38.2433 104.928 37.1693 105.889 36.4228C106.85 35.6764 108.061 35.5021 109.552 35.5021C109.955 35.5021 110.907 35.5888 111.42 35.7613C111.42 33.9025 110.638 33.1342 109.074 33.1342C107.874 33.1342 106.497 33.3851 105.85 34.022L105.121 32.2399C105.486 31.9479 106.323 31.7244 106.967 31.5154C107.611 31.3064 108.465 31.2289 109.052 31.2289C110.623 31.2289 111.563 31.5793 112.275 32.2837C112.986 32.9864 113.569 33.4937 113.569 35.8242V39.6467C113.569 40.9023 114.264 40.6486 114.925 40.561L115.058 42.345C114.29 42.6242 113.051 42.3815 112.663 42.1625C112.276 41.9435 111.771 41.5812 111.602 41.0775" fill="white"/>
<mask id="mask1" mask-type="alpha" maskUnits="userSpaceOnUse" x="116" y="27" width="5" height="16">
<path fill-rule="evenodd" clip-rule="evenodd" d="M116.328 27.0066H120.387V42.4061H116.328V27.0066Z" fill="white"/>
</mask>
<g mask="url(#mask1)">
<path fill-rule="evenodd" clip-rule="evenodd" d="M116.328 39.2861V27.0066H118.438L118.528 38.9667C118.532 39.537 118.535 40.1858 118.868 40.5152C119.212 40.674 119.858 40.57 120.178 40.4213L120.388 42.322C117.97 42.6697 116.328 41.9935 116.328 39.2861" fill="white"/>
</g>
<mask id="mask2" mask-type="alpha" maskUnits="userSpaceOnUse" x="9" y="20" width="112" height="34">
<path fill-rule="evenodd" clip-rule="evenodd" d="M9.15479 53.8375H120.387V20.9382H9.15479V53.8375Z" fill="white"/>
</mask>
<g mask="url(#mask2)">
<path fill-rule="evenodd" clip-rule="evenodd" d="M61.1457 42.2707H63.2971V31.5078H61.1457V42.2707ZM62.1948 27.1935C61.402 27.1935 60.7603 27.8377 60.7603 28.6334C60.7603 29.43 61.402 30.0779 62.1948 30.0779C62.9858 30.0779 63.6285 29.43 63.6285 28.6334C63.6285 27.8377 62.9858 27.1935 62.1948 27.1935V27.1935Z" fill="white"/>
<path fill-rule="evenodd" clip-rule="evenodd" d="M88.3532 42.2707H90.5046V31.5078H88.3532V42.2707ZM89.4014 27.1935C88.6095 27.1935 87.9678 27.8377 87.9678 28.6334C87.9678 29.43 88.6095 30.0779 89.4014 30.0779C90.1943 30.0779 90.836 29.43 90.836 28.6334C90.836 27.8377 90.1943 27.1935 89.4014 27.1935V27.1935Z" fill="white"/>
</g>
</svg>
