<svg width="130" height="73" viewBox="0 0 130 73" fill="none" xmlns="http://www.w3.org/2000/svg">
<mask id="mask0" mask-type="alpha" maskUnits="userSpaceOnUse" x="36" y="7" width="58" height="59">
<path fill-rule="evenodd" clip-rule="evenodd" d="M36.2666 7.97961H93.6303V65.1615H36.2666V7.97961Z" fill="white"/>
</mask>
<g mask="url(#mask0)">
<path fill-rule="evenodd" clip-rule="evenodd" d="M71.8189 36.2154H68.5273L90.42 7.97961H36.2666V57.8469L36.3665 57.7442C36.4479 57.6911 40.0539 53.2281 43.3657 48.8214C46.343 44.9914 49.1441 41.2546 49.3853 40.8964C49.9775 40.041 50.8341 38.18 50.8341 38.18H55.2486C55.2486 38.18 55.3852 39.8918 55.5097 40.2964C55.628 40.6711 58.3108 49.4547 58.3692 49.5507L59.8512 47.6475L57.3162 39.8687C57.3162 39.8687 56.7223 38.4055 56.5261 38.18H61.6793C61.6793 38.18 61.6424 38.9337 61.849 39.5735C62.0583 40.2167 63.1627 44.1826 63.1627 44.1826C63.1627 44.1826 66.6692 39.8022 66.8822 39.4806C67.2614 38.9533 67.3146 38.18 67.3146 38.18H71.6044C71.6044 38.18 70.8244 38.7544 69.4436 40.4887C68.9813 41.0656 64.452 46.8118 64.452 46.8118C64.452 46.8118 64.8412 48.1514 65.0324 48.8214C65.0857 49.0137 65.1256 49.1463 65.1256 49.1595C65.1256 49.1661 65.222 49.0434 65.3984 48.8214C66.5577 47.3525 71.8854 40.4026 72.2147 39.8022C72.4676 39.3214 72.8502 38.7677 73.0715 38.18H77.2582C77.2582 38.18 77.3579 39.4209 77.4843 39.7691L80.1074 48.8214C81.0971 51.6132 83.1711 58.8684 83.9896 59.445H78.5804C78.5804 59.445 78.5637 58.3807 78.3192 57.5418C78.0781 56.7163 76.1403 50.4427 76.1403 50.4427H67.5391L66.1885 52.3495C66.1885 52.3495 67.8085 57.4127 67.9118 57.6581C68.0847 58.1056 68.8615 59.445 68.8615 59.445H63.6836C63.6836 59.445 63.5454 58.6792 63.4972 58.3543C63.4507 58.0924 62.9982 56.6698 62.9982 56.6698C62.9982 56.6698 61.8206 57.9497 61.5061 58.5433C61.1818 59.1402 61.0404 59.445 61.0404 59.445H56.9853C56.9853 59.445 56.8471 58.6792 56.794 58.3543C56.754 58.0924 56.2633 56.5537 56.2633 56.5537C56.2633 56.5537 55.1224 57.9266 54.7979 58.52C54.4819 59.1168 54.3456 59.445 54.3456 59.445H50.3335C50.3335 59.445 51.4663 58.3708 51.8522 57.9034C52.5223 57.1308 55.0159 53.8845 55.0159 53.8845L54.0179 50.4427H45.4965C45.4965 50.4427 40.6345 56.8123 40.4399 57.0081C40.242 57.1971 38.8249 59.2298 38.8 59.445H36.2666V65.1615H93.6304V7.97961L71.8189 36.2154Z" fill="white"/>
</g>
<path fill-rule="evenodd" clip-rule="evenodd" d="M51.7192 42.2461C51.1036 43.5624 47.4858 47.9558 47.4858 47.9558H53.2111C53.2111 47.9558 52.105 44.5438 51.9138 43.778C51.749 43.1611 51.794 42.3853 51.794 42.2793L51.7192 42.2461Z" fill="white"/>
<path fill-rule="evenodd" clip-rule="evenodd" d="M60.8924 50.5555L59.3638 52.535L60.3503 55.5558L61.9239 53.4004C61.7674 53.2413 60.8924 50.5555 60.8924 50.5555" fill="white"/>
<path fill-rule="evenodd" clip-rule="evenodd" d="M73.7352 42.2461C73.1215 43.5624 69.4971 47.9558 69.4971 47.9558H75.234C75.234 47.9558 74.1146 44.5438 73.9281 43.778C73.7802 43.1611 73.8183 42.3853 73.8183 42.2793L73.7352 42.2461Z" fill="white"/>
</svg>
