<?xml version="1.0" encoding="UTF-8"?>
<svg width="96px" height="48px" viewBox="0 0 96 48" version="1.1" xmlns="http://www.w3.org/2000/svg" xmlns:xlink="http://www.w3.org/1999/xlink">
    <!-- Generator: Sketch 51.2 (57519) - http://www.bohemiancoding.com/sketch -->
    <title>Group 27</title>
    <desc>Created with Sketch.</desc>
    <defs></defs>
    <g id="Symbols" stroke="none" stroke-width="1" fill="none" fill-rule="evenodd">
        <g id="Logo-/-PacLife-Alt" transform="translate(-23.000000, -16.000000)" fill="#6B6B6B">
            <g id="Group-27" transform="translate(23.000000, 16.000000)">
                <path d="M15.2832,42.0279 L12.5642,42.0279 L13.9032,38.2919 L15.2832,42.0279 Z M20.2172,46.8879 L20.0742,46.8109 C19.3942,46.4379 19.1082,45.4389 18.7982,44.5959 L15.2522,35.0939 L11.8712,35.0909 L11.8712,35.4019 L12.0662,35.4689 C12.0662,35.4689 12.2202,35.5219 12.3122,35.5839 C12.5122,35.7189 12.6542,35.9339 12.4332,36.5479 C12.3432,36.8169 12.2662,37.0149 12.2662,37.0149 C12.2662,37.0149 9.4682,44.5769 9.4662,44.5809 C9.1712,45.4219 8.9152,46.4369 8.2242,46.8089 L7.9912,46.8999 L7.9912,47.1989 L11.7952,47.1989 L11.7952,46.8999 L11.5182,46.7889 C11.1852,46.6539 11.0952,46.3289 11.4532,45.2999 L11.8902,43.9289 L15.9332,43.9289 C16.0332,44.2119 16.1622,44.6149 16.3592,45.2009 C16.5532,45.7769 16.8312,46.5759 16.4222,46.7999 L16.1722,46.8999 L16.1722,47.1989 L20.2442,47.1989 L20.2172,46.8879 Z" id="Fill-1"></path>
                <path d="M44.9204,35.0903 L44.9204,35.3883 L45.1984,35.5013 C45.6404,35.6783 45.6284,36.8003 45.6194,37.4703 C45.6194,37.4733 45.6184,44.8043 45.6184,44.8083 C45.6254,45.4163 45.6354,46.6233 45.2034,46.7913 L44.9204,46.9003 L44.9204,47.1973 L48.8144,47.1973 L48.8144,46.9063 L48.5394,46.7943 C48.0994,46.6143 48.1094,45.4123 48.1154,44.8043 L48.1154,37.5023 C48.1004,36.4863 48.2434,35.6203 48.5394,35.4993 L48.8144,35.3863 L48.8144,35.0903 L44.9204,35.0903 Z" id="Fill-3"></path>
                <path d="M30.375,35.0903 L30.375,35.3883 L30.652,35.5013 C31.094,35.6783 31.083,36.8003 31.073,37.4703 C31.073,37.4733 31.073,44.8043 31.073,44.8083 C31.08,45.4163 31.089,46.6233 30.658,46.7913 L30.375,46.9003 L30.375,47.1953 L34.268,47.1953 L34.268,46.9063 L33.993,46.7943 C33.554,46.6143 33.563,45.4123 33.57,44.8043 L33.57,37.5023 C33.555,36.4863 33.697,35.6203 33.993,35.4993 L34.268,35.3863 L34.268,35.0903 L30.375,35.0903 Z" id="Fill-5"></path>
                <path d="M73.0596,37.4702 C73.0686,36.8002 73.0806,35.6782 72.6386,35.5012 L72.3606,35.3882 L72.3606,35.0902 L76.2536,35.0902 L76.2536,35.3872 L75.9786,35.4992 C75.6826,35.6202 75.5406,36.4862 75.5556,37.5022 L75.5556,44.8042 C75.5496,45.4112 75.5386,46.6142 75.9786,46.7942 L76.2536,46.9072 L76.2536,47.2002 L72.3606,47.2002 L72.3606,46.9002 L72.6436,46.7912 C73.0756,46.6232 73.0656,45.4162 73.0586,44.8082 C73.0586,44.8042 73.0596,37.4732 73.0596,37.4702" id="Fill-7"></path>
                <path d="M4.1992,40.6055 L3.7952,40.6365 L3.5462,40.6385 L3.5462,35.2095 C3.8462,35.1765 4.2162,35.1585 4.6512,35.1585 C5.5902,35.1585 6.3242,35.3965 6.7762,35.8495 C7.1642,36.2375 7.3622,36.8015 7.3622,37.5265 C7.3622,39.3825 5.7332,40.4985 4.1992,40.6055 M8.7012,34.0705 C7.8202,33.1895 6.5032,32.7045 4.9912,32.7045 L0.0192,32.7045 L0.0192,33.0215 L0.2742,33.1055 C0.9092,33.4025 0.8762,34.9885 0.8762,36.1325 C0.8762,37.4625 0.8752,43.7195 0.8762,43.7845 C0.8762,43.7845 0.8782,44.0825 0.8782,44.0835 C0.8862,44.9395 0.8992,46.5235 0.2742,46.7825 L0.0002,46.8965 L0.0002,47.1955 L4.5592,47.1955 L4.5592,46.8995 L4.3602,46.8015 C3.5452,46.2615 3.5452,45.0955 3.5462,43.8795 L3.5462,41.3305 L4.0342,41.5045 C4.0342,41.5045 4.7972,41.7745 5.4922,41.7745 C7.6122,41.7745 9.8942,40.3225 9.8942,37.1345 C9.8942,35.9105 9.4822,34.8515 8.7012,34.0705" id="Fill-9"></path>
                <path d="M29.1353,43.9331 L29.0593,43.9891 C28.9323,44.0821 28.7993,44.1711 28.8033,44.1671 C28.0743,44.6271 26.9513,45.1741 25.7413,45.1741 C24.7953,45.1741 24.0143,44.8731 23.4203,44.2791 C22.6663,43.5251 22.2513,42.3161 22.2513,40.8741 C22.2513,38.6631 23.5593,37.1191 25.4313,37.1191 C26.3063,37.1191 27.2093,37.4271 28.0413,38.0111 L28.2843,38.1811 L28.7393,38.5001 L28.7393,37.9451 L28.7393,35.5671 L28.7393,35.3441 L28.4083,35.2581 C27.2583,34.9571 26.3263,34.8171 25.4783,34.8171 C23.8523,34.8171 22.4313,35.3781 21.3683,36.4411 C20.2283,37.5821 19.6003,39.2471 19.6003,41.1301 C19.6003,43.0381 20.1923,44.6401 21.3133,45.7601 C22.4363,46.8831 24.0423,47.4771 25.9583,47.4771 C26.9223,47.4771 27.7773,47.2881 28.4993,46.9151 L28.5503,46.8901 L28.6463,46.8401 L28.6863,46.7391 L29.5133,43.9331 L29.1353,43.9331 Z" id="Fill-11"></path>
                <path d="M58.9878,43.9331 C58.9878,43.9331 58.6518,44.1711 58.6558,44.1671 C57.9268,44.6271 56.8038,45.1741 55.5938,45.1741 C54.6478,45.1741 53.8668,44.8731 53.2728,44.2791 C52.5188,43.5251 52.1038,42.3161 52.1038,40.8741 C52.1038,38.6631 53.4118,37.1191 55.2838,37.1191 C56.1598,37.1191 57.0628,37.4271 57.8938,38.0111 L58.5918,38.5001 L58.5918,35.5671 L58.5918,35.3441 L58.2608,35.2581 C57.1108,34.9571 56.1788,34.8171 55.3308,34.8171 C53.7048,34.8171 52.2838,35.3781 51.2208,36.4411 C50.0808,37.5821 49.4528,39.2471 49.4528,41.1301 C49.4528,43.0381 50.0448,44.6401 51.1658,45.7601 C52.2888,46.8831 53.8948,47.4771 55.8108,47.4771 C56.7748,47.4771 57.6298,47.2881 58.3518,46.9151 L58.4988,46.8401 L59.3658,43.9331 L58.9878,43.9331 Z" id="Fill-13"></path>
                <path d="M42.8677,35.0972 L39.6747,35.0902 L35.7817,35.0902 L35.7817,35.3892 L36.0587,35.5012 C36.5007,35.6782 36.4897,36.8002 36.4797,37.4732 C36.4797,37.4732 36.4797,44.8052 36.4797,44.8082 C36.4857,45.4162 36.4957,46.6232 36.0637,46.7912 L35.7817,46.9002 L35.7817,47.1962 L39.6747,47.1962 L39.6747,46.9072 L39.3997,46.7942 C38.9597,46.6142 38.9697,45.4112 38.9767,44.8052 L38.9767,42.3862 L41.1067,42.3862 L41.1257,42.3862 L41.1437,42.3842 C41.1497,42.3832 42.0727,42.3092 42.2167,42.6952 L42.2807,42.8652 L42.5367,42.9152 L42.7037,39.6782 L42.3827,39.6742 L42.3187,39.8762 C42.2347,40.1392 41.3847,40.2012 41.1417,40.1892 L41.1257,40.1882 L38.9757,40.1882 C38.9747,39.1332 38.9757,37.7862 38.9797,37.2092 L41.8557,37.2092 C42.4977,37.2092 42.8357,37.3612 42.9527,37.7012 L43.0197,37.8962 L43.3087,37.8962 L44.0117,35.0172 C44.0117,35.0172 43.0877,35.0972 42.8677,35.0972" id="Fill-15"></path>
                <path d="M84.7598,35.0972 L81.5668,35.0902 L77.6738,35.0902 L77.6738,35.3892 L77.9508,35.5012 C78.3928,35.6782 78.3818,36.8002 78.3718,37.4732 C78.3718,37.4732 78.3708,44.8052 78.3708,44.8082 C78.3778,45.4162 78.3878,46.6232 77.9568,46.7912 L77.6738,46.9002 L77.6738,47.1962 L81.5668,47.1962 L81.5668,46.9072 L81.2918,46.7942 C80.8518,46.6142 80.8618,45.4112 80.8688,44.8052 L80.8688,42.3862 L82.9988,42.3862 L83.0188,42.3862 L83.0358,42.3842 C83.0428,42.3832 83.9648,42.3092 84.1098,42.6952 L84.1728,42.8652 L84.4288,42.9152 L84.5958,39.6782 L84.2748,39.6742 L84.2108,39.8762 C84.1268,40.1392 83.2778,40.2012 83.0338,40.1892 L83.0178,40.1882 L80.8688,40.1882 C80.8668,39.1332 80.8678,37.7862 80.8718,37.2092 L83.7488,37.2092 C84.3898,37.2092 84.7278,37.3612 84.8448,37.7012 L84.9118,37.8962 L85.2008,37.8962 L85.9038,35.0172 C85.9038,35.0172 84.9798,35.0972 84.7598,35.0972" id="Fill-17"></path>
                <path d="M94.7373,44.2412 C94.0043,44.8432 92.8073,45.1762 91.5643,45.1762 C90.3213,45.1762 89.7863,45.0082 89.7863,45.0082 C89.7863,44.9412 89.7863,44.8732 89.7873,44.8042 L89.7873,41.9132 L91.5573,41.9102 C91.5643,41.9092 92.5003,41.8842 92.6323,42.2222 L92.6953,42.3912 L92.9703,42.4432 L93.1263,39.4612 L92.8053,39.4572 L92.7413,39.6602 C92.6573,39.9222 91.8583,39.9682 91.6153,39.9562 L89.7863,39.9552 C89.7863,38.9842 89.7863,37.7552 89.7903,37.2092 L92.0733,37.2092 C92.7153,37.2092 93.3053,37.2032 93.4953,37.7012 L93.5633,37.8962 L93.8623,37.8962 L94.4183,35.0172 C94.4183,35.0172 93.4983,35.0862 93.2783,35.0892 L86.5923,35.0892 L86.5923,35.3882 L86.8693,35.5012 C87.3113,35.6782 87.3003,36.8002 87.2913,37.4732 C87.2913,37.4732 87.2903,44.8042 87.2903,44.8072 C87.2963,45.3792 87.3023,46.5532 86.9343,46.7882 C86.8283,46.8562 86.5923,46.8932 86.5923,46.8962 L86.5923,47.1952 L94.3283,47.1952 L95.0683,44.2412 L94.7373,44.2412 Z" id="Fill-19"></path>
                <path d="M71.5522,43.5713 L71.4252,43.6903 C70.4412,44.6053 69.2192,45.0353 67.9202,45.0353 C66.6202,45.0353 66.0912,44.9893 66.0912,44.9893 L66.0912,35.5833 C66.0912,34.7493 66.0912,33.3413 66.8212,33.0993 L67.0952,33.0213 L67.0952,32.7043 L62.5852,32.7043 L62.5852,33.0213 L62.8592,33.0983 C63.4482,33.3413 63.4362,34.7693 63.4272,35.5833 L63.4272,44.3593 C63.4362,45.1703 63.4482,46.5683 62.8672,46.7943 L62.5852,46.9043 L62.5852,47.1973 L70.6492,47.1973 L71.9332,43.5713 L71.5522,43.5713 Z" id="Fill-22"></path>
                <path d="M48.3306,1.3276 C50.9016,1.3276 53.3836,1.7106 55.7266,2.4196 C55.2396,2.7476 54.6146,3.1256 53.7866,3.5446 C50.7656,5.0756 50.3676,5.1996 49.0276,5.8716 C48.2036,6.2856 47.5206,6.7286 46.9666,7.1436 L46.9416,7.1186 C46.9416,7.1186 46.3786,6.3916 46.0136,6.1296 C45.6486,5.8666 44.9506,5.7266 44.7046,5.6016 C44.2256,5.3596 44.1636,5.1926 43.4926,4.9816 C42.9046,4.7966 42.5476,4.8976 42.1576,4.8256 C41.8516,4.7676 41.4486,4.5986 40.9486,4.6516 C40.6656,4.6806 40.2206,4.8816 39.9036,4.9086 C39.4976,4.9426 39.0876,4.7816 38.7846,4.8356 C38.4716,4.8906 38.0526,5.2286 37.5596,5.3216 C37.2166,5.3856 36.8316,5.3116 36.5776,5.3726 C36.3236,5.4346 35.7896,5.8936 35.5326,5.9876 C35.2756,6.0796 34.6866,6.1296 34.7276,6.6376 C34.7646,7.0956 35.7646,7.1976 35.7646,7.1976 C35.7646,7.1976 40.0686,7.7866 44.1616,9.9266 C43.5636,10.6606 42.9956,11.4886 42.4616,12.3596 C42.1396,12.2616 41.7026,12.1246 41.4216,12.0966 C40.9766,12.0506 40.5186,12.2656 40.2446,12.2556 C39.6366,12.2296 39.5586,12.0926 38.8656,12.2116 C38.3406,12.3026 38.2906,12.4606 37.8306,12.5906 C37.5336,12.6736 37.1486,12.5406 36.6016,12.7166 C36.3396,12.8006 35.9086,13.2606 35.6266,13.3926 C35.4006,13.4986 34.9786,13.5036 34.6706,13.7316 C34.4266,13.9126 34.4436,14.1416 33.9526,14.4436 C33.6386,14.6376 33.3966,14.5756 33.0666,14.8906 C32.8876,15.0616 32.8296,15.3646 32.2976,15.7726 C31.5856,16.3196 31.6926,16.7556 31.7586,16.9176 C31.9496,17.3906 33.0176,16.9206 33.0176,16.9206 C33.0176,16.9206 36.4976,15.7346 40.7476,15.5136 C39.6756,17.7076 38.7216,19.8306 38.2226,21.2036 C38.0996,21.5426 37.9976,21.8356 37.9146,22.0736 C37.8306,22.0496 37.8506,22.0616 37.8306,22.0496 C37.5596,21.8806 37.5596,21.4956 37.7126,20.7506 C37.8716,19.9726 38.4726,18.4906 38.6566,18.0966 L38.4146,18.0966 C38.1956,18.4726 37.5926,19.5896 37.4446,19.9056 C37.2476,20.3236 37.1686,20.4446 36.6956,21.4326 C36.6156,21.6006 36.3306,22.0856 36.0906,22.0736 C35.9056,22.0646 35.6946,21.9376 35.6946,21.7516 C35.6946,21.6586 35.8286,21.4666 35.8766,21.3946 C36.4756,20.5096 36.8166,19.6126 36.9416,19.2506 L36.7026,19.2506 C36.7026,19.2506 35.1396,22.7996 31.8656,22.7996 C30.7226,22.7996 29.5776,22.2616 29.5776,22.2616 C29.5776,22.2616 28.0246,22.9676 25.9046,22.9676 C24.2706,22.9676 23.2456,22.6446 22.8606,22.4966 C25.1056,10.5196 35.2926,1.3276 48.3306,1.3276 M57.2986,2.0246 C57.5866,1.8646 57.7846,1.7066 58.0616,1.6226 C58.3466,1.5356 58.6196,1.6236 58.8736,1.6116 C59.0766,1.6006 59.4676,1.2706 59.6456,1.2846 C59.8536,1.2996 60.0286,1.3576 60.1716,1.4336 C60.3296,1.5176 60.9306,1.1026 61.1016,1.1106 C61.2176,1.1156 61.6136,1.1216 61.5246,1.5556 C61.4476,1.9016 61.2196,2.9016 60.7276,4.1446 C60.5766,4.5276 60.3996,4.9336 60.1946,5.3506 C59.9666,5.8136 59.7036,6.2906 59.4006,6.7656 C58.1486,8.7236 57.0496,8.2856 54.6816,9.3806 C52.8646,10.2206 52.1006,10.8116 51.7966,11.1036 C51.6636,11.0216 51.5096,10.9236 51.3416,10.8166 C51.6736,10.4976 52.4086,9.9826 53.9946,9.1716 C55.6536,8.3226 58.3786,7.1476 58.9536,6.2196 C58.9996,6.1456 58.9506,6.0926 58.9086,6.0386 C58.2896,6.4556 57.7456,6.7426 57.4606,6.8866 C54.7846,8.2426 53.8686,8.5776 52.6806,9.1736 C52.1036,9.4626 51.2876,9.9896 50.7016,10.3976 C50.5486,10.2946 50.3946,10.1896 50.2416,10.0816 C50.7606,9.6716 51.4776,9.1626 52.3076,8.7466 C53.4956,8.1496 54.5146,7.6496 57.3756,5.9846 C57.6376,5.8326 59.0676,4.9526 60.1516,4.1626 C60.1756,4.0686 60.1966,3.9766 60.2166,3.8886 C59.2356,4.4556 56.0446,6.1586 55.3906,6.4906 C52.7136,7.8466 52.8356,7.7516 51.6476,8.3486 C50.8466,8.7506 50.1226,9.2646 49.6136,9.6246 C49.4566,9.5036 49.3096,9.3856 49.1776,9.2726 C49.8246,8.8446 50.4176,8.4236 51.2726,7.9696 C52.4746,7.3316 52.6216,7.2136 55.2986,5.8596 C56.6586,5.1716 59.0566,3.5716 60.3076,2.7736 C60.3216,2.6666 60.3346,2.6306 60.3476,2.5386 C59.0156,3.2746 55.2236,5.2516 54.5936,5.5706 C51.9176,6.9266 51.6136,7.0356 50.4256,7.6326 C49.7236,7.9846 49.0676,8.4126 48.6056,8.7446 C48.4966,8.6406 48.3886,8.5376 48.2826,8.4366 C48.7136,8.1096 49.4366,7.5976 50.4766,7.0016 C51.6476,6.3306 51.8736,6.2476 54.5506,4.8916 C54.7816,4.7746 56.0676,4.0616 57.3666,3.2776 C57.7326,3.0566 58.1246,2.8156 58.4706,2.6006 C58.7086,2.4526 58.9366,2.2246 59.1486,2.1066 L59.0146,2.0396 C58.4456,2.2816 57.7246,2.6696 57.5316,2.7816 C56.1476,3.5866 54.3356,4.3776 53.7976,4.6506 C51.1226,6.0066 50.8176,6.1166 49.6296,6.7116 C48.9756,7.0406 48.2496,7.5316 47.7376,7.9076 C47.6146,7.7866 47.5006,7.6756 47.4006,7.5756 C47.9486,7.1226 48.6856,6.6036 49.6336,6.1286 C50.8216,5.5326 51.0786,5.4236 53.7536,4.0666 C54.2436,3.8196 54.6526,3.5876 54.9986,3.3746 C55.0586,3.3906 56.2336,2.7256 57.2986,2.0246 M55.8836,11.3096 C55.8296,11.6656 55.6276,11.8006 55.4686,11.8756 C55.3096,11.9516 55.0516,12.1446 54.9816,12.2516 C54.9506,12.3006 54.9116,12.2786 54.8866,12.2546 C54.8726,12.2416 54.7476,12.1736 54.6866,12.1196 C54.6666,12.1016 54.6526,12.0836 54.6506,12.0666 C54.6426,11.9996 54.6586,11.9466 54.6586,11.9466 L54.6676,11.8216 C54.6836,11.7876 54.6696,11.6266 54.6696,11.6266 C54.6696,11.6266 54.6136,11.3556 54.6506,11.1346 C54.6986,10.8516 54.9846,10.6286 54.9846,10.6286 L55.1106,10.6726 C55.1106,10.6726 54.9676,10.8366 54.8816,11.0646 C54.8376,11.1816 54.8066,11.5166 54.8926,11.7126 C54.9056,11.7426 54.9026,11.8796 54.9026,11.8796 L54.9726,11.9406 C54.9726,11.9406 55.0606,11.8826 55.0886,11.8596 C55.2586,11.7206 55.3306,11.6686 55.3306,11.6686 C55.3306,11.6686 55.0676,11.4916 55.1956,11.2336 C55.3176,10.9846 55.6006,11.0656 55.6006,11.0656 C55.6876,10.7696 55.6426,10.4656 55.6426,10.4656 L55.8196,10.5236 C55.8196,10.5236 55.9456,10.9076 55.8836,11.3096 M52.8046,15.5516 C52.2726,15.5486 51.5206,15.3216 51.2556,14.9106 C51.3226,15.6816 52.2216,16.2976 53.0376,16.3526 L53.0376,16.4026 C52.8646,16.4536 52.6796,16.4816 52.4886,16.4796 C51.4556,16.4736 50.6186,15.6506 50.6186,14.6426 C50.6186,14.5196 50.6436,14.3376 50.6696,14.2076 C51.4206,14.8146 53.1326,15.6906 54.0536,14.4176 L54.0866,14.5016 C53.8836,15.0576 53.4306,15.5556 52.8046,15.5516 M45.5956,22.8696 C45.5016,22.8806 45.5336,22.8916 45.4356,22.9006 C45.8276,21.2446 46.8266,17.2186 49.2766,13.0976 C49.6146,13.3476 49.8846,13.5576 50.0866,13.7206 C48.3146,16.4526 46.4466,19.9306 45.5956,22.8696 M43.4906,22.9386 C43.4006,22.9326 43.4386,22.9266 43.3506,22.9176 C43.7746,21.1486 44.9586,16.5776 47.8566,12.1046 C48.1476,12.2986 48.4166,12.4826 48.6616,12.6546 C46.6816,15.5236 44.4396,19.5896 43.4906,22.9386 M41.3526,22.3676 C41.9276,20.1646 43.2916,15.5156 46.3586,11.1596 C46.6586,11.3396 46.9426,11.5156 47.2116,11.6866 C45.1686,14.4346 42.6266,18.8196 41.4916,22.4766 C41.4016,22.4406 41.4406,22.4056 41.3526,22.3676 M39.6106,21.5586 C39.5336,21.5116 39.5886,21.4676 39.5206,21.4256 C40.2526,19.0196 42.0036,14.1006 44.8546,10.2976 C45.1426,10.4546 45.4196,10.6106 45.6866,10.7646 C43.7166,13.1766 41.0046,17.6556 39.6106,21.5586 M74.6956,27.1116 C74.6916,26.8526 74.6846,26.5946 74.6726,26.3376 C74.5356,26.3446 67.4626,26.8256 63.9716,26.8256 C59.3976,26.8256 52.8236,26.7546 52.8236,26.7546 L22.4286,26.4536 C22.4316,26.3806 22.4466,25.8896 22.4506,25.8176 L52.7906,25.7166 C52.7906,25.7166 59.3976,25.7936 63.9716,25.7936 C67.4396,25.7936 74.4966,25.7656 74.6366,25.7706 C74.6106,25.3906 74.5776,24.8696 74.5366,24.4936 C74.3936,24.5016 67.3836,25.0496 63.9716,25.0496 C59.3976,25.0496 52.8236,24.7576 52.8236,24.7576 L45.0316,24.7806 L34.7426,24.4766 L22.5776,24.3686 C22.5896,24.2666 22.6536,23.7796 22.6666,23.6786 C23.0886,23.7416 23.4846,23.8856 24.9516,23.8856 C26.8806,23.8856 27.8396,23.4246 27.8396,23.4246 C27.8396,23.4246 29.2396,23.8366 31.1686,23.8366 C32.0746,23.8366 34.0276,22.9196 35.2426,23.2836 C37.1886,23.8676 37.9586,22.9906 37.9586,22.9906 C37.9586,22.9906 38.4106,23.5856 39.2376,23.7586 C39.9376,23.9056 40.7226,23.4306 40.7226,23.4306 C40.7226,23.4306 41.8176,24.2286 44.9616,24.2086 C48.8216,24.1856 49.8716,22.1806 49.8716,22.1806 L50.0106,22.1806 C50.0106,22.1806 49.8696,22.7276 50.0906,23.2106 C50.4876,24.0766 51.7096,24.1966 51.7096,24.1966 C51.5666,21.7656 52.6326,20.1796 52.6326,20.1796 L52.7756,20.1796 L52.6456,20.6956 C52.2076,22.4346 52.9656,24.0326 52.9656,24.0326 L53.3416,23.8396 C53.3416,23.8396 52.9986,22.7236 53.3636,21.1966 C53.7276,19.6686 54.2346,18.8876 54.2346,18.8876 L54.4196,18.8876 C54.4196,18.8876 54.0386,20.0726 54.0486,21.0126 C54.0586,21.7966 54.4726,23.6096 55.9676,24.1496 C57.1116,24.5626 57.8976,23.6336 57.8976,23.6336 C57.8976,23.6336 60.2946,24.2446 62.3286,24.2446 C67.0446,24.2446 68.1046,23.4526 68.1046,23.4526 C68.1046,23.4526 68.4166,24.0196 70.8306,24.0196 C72.2386,24.0196 73.3106,23.9236 73.9616,23.8436 C74.1666,23.8176 74.3306,23.7946 74.4486,23.7756 C74.3936,23.3746 74.3306,22.9756 74.2606,22.5806 C72.9276,15.2016 68.6506,8.8466 62.6906,4.7756 L62.3456,5.7406 C68.1646,9.6046 72.3866,15.6316 73.6906,22.7606 C73.0156,22.9946 72.0656,23.2616 70.8306,23.2616 C68.9776,23.2616 68.5336,22.6726 68.5336,22.6726 C68.5336,22.6726 67.8596,23.1486 66.6406,23.1486 C65.5916,23.1486 64.7366,22.3866 64.7366,22.3866 C64.7366,22.3866 63.5906,23.4346 61.7166,23.4346 C59.3796,23.4346 58.1986,21.9776 57.7936,21.3386 C57.3856,20.6926 57.1556,20.1556 57.1556,20.1556 L56.9676,20.1556 C57.0176,20.4136 57.0706,20.7126 57.1916,21.0346 C57.5076,21.8786 57.6946,22.1636 57.8136,22.3846 C57.8786,22.5056 58.0326,22.8316 57.7026,22.9286 C57.5086,22.9846 57.3546,22.8546 57.2946,22.7486 C57.1676,22.5776 56.7576,21.9816 56.4736,21.0716 C56.1716,20.1066 56.0986,19.3916 56.0496,18.8876 L55.9046,18.8876 C55.8376,19.3766 55.7646,20.0436 55.8226,20.9476 C55.8866,21.9376 56.1636,22.6306 56.2336,22.7936 C56.2446,22.8176 56.3026,22.9416 56.3116,23.0146 C56.3486,23.3156 56.1106,23.4746 55.8606,23.4186 C55.6436,23.3696 55.4596,23.1616 55.3436,22.9666 C54.3406,21.2806 55.5576,18.0826 55.9426,16.9966 C56.4666,15.5196 56.6276,14.1586 56.6276,14.1586 C56.6276,14.1586 57.3056,13.0496 57.6696,12.3116 C58.1336,11.3716 58.4646,10.4536 58.7736,10.1446 C59.2496,9.6686 59.9426,8.5616 60.7156,7.1606 C60.8636,6.8926 61.5146,5.4606 61.6406,5.1006 C61.7316,4.8396 61.8646,4.5626 61.9436,4.2816 C62.3226,2.9276 62.5486,1.4776 62.5656,1.2536 C62.5906,0.9196 61.9796,0.6836 61.9796,0.6836 C61.9796,0.6836 61.4766,0.4906 61.1136,0.4916 C60.9246,0.4926 60.6556,0.6926 60.4316,0.7956 C60.1366,0.9316 59.9906,0.8426 59.9906,0.8426 C59.9906,0.8426 59.5426,0.6616 59.3036,0.7096 C59.0996,0.7506 58.8616,1.0126 58.6786,1.0906 C58.3506,1.2286 58.2666,1.1576 58.2666,1.1576 C58.2666,1.1576 57.8876,1.0546 57.6146,1.1446 C57.3666,1.2276 57.1246,1.3536 56.7106,1.6886 C53.7466,0.5966 50.5436,-0.000400000001 47.2006,-0.000400000001 C32.1586,-0.000400000001 19.9366,12.0776 19.7046,27.0646 C19.7026,27.2066 19.7016,27.8266 19.7016,27.8266 L74.6996,27.8266 C74.6996,27.8266 74.6986,27.2536 74.6956,27.1116" id="Fill-24"></path>
            </g>
        </g>
    </g>
</svg>