<svg width="130" height="73" viewBox="0 0 130 73" fill="none" xmlns="http://www.w3.org/2000/svg">
<path fill-rule="evenodd" clip-rule="evenodd" d="M3.66016 27.375C9.66944 27.3752 15.6787 27.3755 21.688 27.3759C21.6958 27.3759 21.7037 27.3793 21.719 27.3829V32.9857C19.7082 30.1414 16.9786 28.6956 13.4703 28.9058C11.014 29.0529 8.96519 30.1207 7.33338 31.9593C6.47191 32.93 5.86278 34.0472 5.49281 35.2915C5.12427 36.531 5.02551 37.792 5.20055 39.0732C5.37615 40.3587 5.81194 41.5509 6.50431 42.6487C7.19427 43.7428 8.08378 44.6441 9.17291 45.3655C9.12115 45.3967 9.07562 45.3846 9.03378 45.3846C7.28792 45.3854 5.54206 45.3852 3.7962 45.386C3.75099 45.386 3.70361 45.3726 3.66016 45.3976V27.375Z" fill="white"/>
<path fill-rule="evenodd" clip-rule="evenodd" d="M13.6569 45.6248C13.551 45.5794 13.4363 45.5905 13.3261 45.5783C11.8616 45.4166 10.5496 44.882 9.38113 43.989C9.31153 43.9358 9.33886 43.8924 9.35521 43.838C10.013 41.6491 11.2384 39.8438 13.036 38.4272C13.8685 37.7713 14.7837 37.2584 15.7732 36.8772C15.7915 36.8701 15.8118 36.8678 15.8642 36.8555C14.3851 37.9633 13.6232 39.4043 13.7286 41.2252C13.8341 43.0482 14.7586 44.3922 16.3384 45.3114C15.824 45.4632 15.3086 45.5549 14.7842 45.5997C14.7458 45.603 14.6992 45.58 14.669 45.6248H13.6569Z" fill="white"/>
<path fill-rule="evenodd" clip-rule="evenodd" d="M35.7394 29.0327C35.2936 29.5723 34.855 30.1034 34.4093 30.6429C34.1773 30.4373 33.9409 30.2493 33.6716 30.1088C32.8936 29.703 32.0755 29.5413 31.2159 29.7735C30.407 29.9921 29.8307 30.5182 29.4801 31.263C28.9999 32.2833 29.0272 33.3144 29.57 34.3048C30.0034 35.0956 30.6967 35.5482 31.59 35.6812C32.4373 35.8073 33.2326 35.6588 33.9652 35.2034C34.0315 35.1622 34.0544 35.1202 34.0537 35.0441C34.05 34.6282 34.0519 34.2123 34.0519 33.7838H31.9344V31.9649H36.0815V33.1401C36.0815 34.0861 36.0797 35.0322 36.0841 35.9783C36.0846 36.0819 36.052 36.1456 35.9727 36.2096C34.8457 37.1175 33.563 37.5997 32.1117 37.6314C31.0963 37.6535 30.1305 37.4625 29.2539 36.9362C27.9504 36.1536 27.2115 34.9886 26.9928 33.4955C26.8438 32.4783 26.9504 31.487 27.3996 30.5525C28.0174 29.2673 29.0112 28.3993 30.3693 27.9498C31.1076 27.7055 31.8664 27.6872 32.6323 27.7459C33.3586 27.8016 34.0526 27.9729 34.6995 28.3153C35.0696 28.5112 35.4044 28.7576 35.7394 29.0327" fill="white"/>
<path fill-rule="evenodd" clip-rule="evenodd" d="M52.4147 33.8026C52.4149 34.18 52.4679 34.4709 52.6196 34.7942C52.8968 35.3852 53.352 35.7576 54.0108 35.8265C54.687 35.8973 55.2519 35.6509 55.6194 35.0813C56.1363 34.2801 56.1449 33.4266 55.6733 32.6083C55.1022 31.617 53.7471 31.4723 52.9688 32.2904C52.5672 32.7126 52.4153 33.2314 52.4147 33.8026M52.4419 36.5214V37.4606H50.3594V27.49H52.4372V31.1834C52.5544 31.0548 52.6306 30.9358 52.7299 30.8361C53.4243 30.1388 54.2623 29.8834 55.2249 30.0457C56.5416 30.2678 57.3976 31.0495 57.8309 32.2852C58.195 33.3237 58.1842 34.3848 57.8041 35.4143C57.3552 36.6299 56.4821 37.3789 55.1772 37.5731C54.227 37.7145 53.3923 37.4611 52.6932 36.7942C52.6115 36.7163 52.5397 36.6281 52.4419 36.5214" fill="white"/>
<path fill-rule="evenodd" clip-rule="evenodd" d="M79.3939 30.3565C78.9615 31.4095 78.5428 32.4289 78.1211 33.4558H80.6672C80.2446 32.4272 79.8257 31.4075 79.3939 30.3565M84.4952 37.4735C83.7883 37.4735 83.0804 37.4719 82.3725 37.4755C82.2863 37.4759 82.2808 37.4172 82.26 37.3663C81.9967 36.7243 81.7324 36.0827 81.474 35.4387C81.4388 35.351 81.3971 35.3216 81.3012 35.3219C80.0322 35.3255 78.7631 35.3256 77.4941 35.3217C77.3977 35.3214 77.3571 35.3512 77.322 35.4386C77.063 36.0823 76.7979 36.7236 76.5352 37.3658C76.5111 37.4247 76.4948 37.4732 76.4069 37.4725C75.7324 37.4675 75.0578 37.4697 74.3832 37.4694C74.3715 37.4694 74.3597 37.4659 74.3359 37.4622C74.4163 37.2732 74.4946 37.0884 74.5733 36.9038C75.8477 33.9178 77.1227 30.932 78.3944 27.9448C78.4332 27.8537 78.4759 27.8213 78.5774 27.8223C79.1465 27.8282 79.7157 27.827 80.2849 27.823C80.3694 27.8224 80.4085 27.847 80.4422 27.9261C81.7831 31.0757 83.1269 34.2242 84.4697 37.373C84.4824 37.4028 84.506 37.4307 84.4952 37.4735" fill="white"/>
<path fill-rule="evenodd" clip-rule="evenodd" d="M47.0465 33.855C47.0621 33.1535 46.8032 32.5797 46.2333 32.1571C45.4811 31.5993 44.3812 31.6846 43.7409 32.3584C43.3428 32.7773 43.2023 33.2951 43.2065 33.8624C43.213 34.7396 43.7142 35.4597 44.5472 35.7402C45.3181 35.9999 46.2581 35.7715 46.7407 34.9744C46.9483 34.6313 47.0387 34.2549 47.0465 33.855M45.1195 37.6354C43.9116 37.6153 42.8688 37.2116 42.0586 36.2937C41.5729 35.7433 41.2909 35.0954 41.1872 34.3687C40.9292 32.5622 41.9811 30.8411 43.7156 30.243C44.8466 29.853 45.9646 29.9026 47.0303 30.439C48.1625 31.009 48.8477 31.9381 49.0541 33.1964C49.2127 34.163 49.0201 35.0626 48.4843 35.8824C48.0254 36.5848 47.3886 37.0723 46.6044 37.3678C46.1267 37.5478 45.6312 37.6365 45.1195 37.6354" fill="white"/>
<path fill-rule="evenodd" clip-rule="evenodd" d="M97.141 36.1856C97.5532 36.1723 97.9462 36.0818 98.2842 35.8248C98.7055 35.5045 98.7834 35.0521 98.7617 34.563C98.7593 34.5067 98.7211 34.4984 98.6813 34.4826C98.4301 34.3823 98.1718 34.3077 97.9032 34.2741C97.4385 34.216 96.9758 34.2121 96.5389 34.4104C95.9474 34.6788 95.7956 35.4644 96.2482 35.8907C96.4973 36.1255 96.8124 36.1713 97.141 36.1856V36.1856ZM98.7058 37.462V36.6829C98.5234 36.8643 98.3524 37.016 98.1598 37.1439C97.5355 37.5583 96.8448 37.6604 96.1164 37.5851C95.558 37.5274 95.0497 37.3425 94.6298 36.959C94.1515 36.5219 93.9617 35.9638 93.9649 35.3293C93.9674 34.8338 94.0786 34.3714 94.3833 33.9684C94.6787 33.5775 95.0776 33.3335 95.5387 33.1955C96.5677 32.8876 97.5931 32.9406 98.6114 33.2576C98.6428 33.2673 98.6716 33.2898 98.7077 33.2792C98.7826 32.5664 98.4097 32.0682 97.7957 31.9123C97.2903 31.7838 96.7828 31.828 96.2766 31.9044C95.88 31.9642 95.4966 32.0762 95.1205 32.2253C95.1116 32.2063 95.103 32.1921 95.0979 32.1767C94.9311 31.6698 94.7646 31.1628 94.595 30.6464C94.8301 30.5274 95.0737 30.4383 95.3204 30.3599C96.2671 30.0586 97.2363 29.9771 98.2189 30.1071C98.8112 30.1855 99.3657 30.3758 99.8264 30.7801C100.186 31.096 100.403 31.4986 100.545 31.9469C100.674 32.3552 100.725 32.776 100.726 33.2027C100.727 34.5993 100.726 35.9959 100.727 37.3925V37.462H98.7058Z" fill="white"/>
<path fill-rule="evenodd" clip-rule="evenodd" d="M62.1024 36.1856C62.5021 36.172 62.891 36.0847 63.2263 35.8301C63.6499 35.5085 63.7279 35.0506 63.7243 34.5612C63.7239 34.5036 63.6798 34.4986 63.6414 34.4832C63.3865 34.3807 63.1236 34.3061 62.8509 34.2726C62.386 34.2156 61.923 34.2134 61.4873 34.4144C60.8911 34.6894 60.7519 35.479 61.2213 35.9053C61.4662 36.1277 61.7744 36.1725 62.1024 36.1856M63.6799 33.2913C63.6913 32.823 63.6011 32.4116 63.211 32.1245C62.9591 31.9391 62.6656 31.8635 62.359 31.8448C61.6121 31.7991 60.89 31.9208 60.1906 32.1829C60.1555 32.1961 60.1202 32.2087 60.0721 32.2262C59.8982 31.6976 59.7256 31.1731 59.5514 30.6435C60.0881 30.3948 60.6415 30.2253 61.2179 30.1363C61.9942 30.0164 62.7717 30.0024 63.5422 30.1768C64.1261 30.309 64.6459 30.5634 65.0323 31.0392C65.3424 31.4209 65.5068 31.8671 65.6009 32.3429C65.6582 32.6326 65.6821 32.9254 65.6821 33.2205C65.6819 34.6041 65.6821 35.9876 65.6821 37.3712C65.6821 37.3999 65.6821 37.4286 65.6821 37.4634H63.6676V36.6855C63.553 36.7885 63.4621 36.8765 63.3648 36.9567C62.7937 37.4277 62.1342 37.6269 61.3971 37.6056C60.9047 37.5914 60.4336 37.503 60.0025 37.2587C59.2479 36.8309 58.9174 36.1638 58.9219 35.3144C58.9244 34.8505 59.027 34.4143 59.2966 34.0278C59.5906 33.6064 60.0028 33.3451 60.4854 33.1991C61.5265 32.8839 62.5637 32.9404 63.5932 33.2653C63.6167 33.2726 63.6404 33.2794 63.6799 33.2913" fill="white"/>
<path fill-rule="evenodd" clip-rule="evenodd" d="M102.258 30.1391H104.333V31.1377C104.407 31.1023 104.434 31.0449 104.472 31.0003C104.869 30.5284 105.336 30.1553 105.959 30.0443C106.726 29.9077 107.457 30.0011 108.092 30.495C108.544 30.8472 108.78 31.3336 108.902 31.8822C109.013 32.3803 108.985 32.886 108.986 33.3899C108.988 34.7107 108.987 36.0315 108.987 37.3523V37.4612H106.903V37.3249C106.903 36.0209 106.902 34.7169 106.903 33.4129C106.904 33.1245 106.878 32.8399 106.765 32.5721C106.536 32.0244 106.057 31.8242 105.489 31.8827C104.805 31.9531 104.414 32.3861 104.351 33.1104C104.341 33.2276 104.34 33.3457 104.34 33.4634C104.339 34.7464 104.339 36.0293 104.339 37.3123V37.4599H102.258V30.1391Z" fill="white"/>
<path fill-rule="evenodd" clip-rule="evenodd" d="M21.7949 36.5141C21.7187 36.4792 21.7241 36.4298 21.7117 36.3927C20.8852 33.9306 19.2144 32.34 16.6834 31.762C14.401 31.2408 12.3446 31.8133 10.5994 33.3849C9.35839 34.5025 8.65531 35.9116 8.44299 37.5647C8.43507 37.6264 8.41917 37.6729 8.36471 37.7122C7.71372 38.1815 7.11355 38.7088 6.56322 39.2925C6.54955 39.307 6.53312 39.3189 6.51525 39.3343C6.01592 36.9929 6.7193 34.0324 9.03848 32.0175C11.2968 30.0553 14.5723 29.5123 17.3782 30.8298C19.7999 31.9668 21.2359 33.8917 21.7949 36.5141" fill="white"/>
<path fill-rule="evenodd" clip-rule="evenodd" d="M126.288 31.2355C125.863 31.6915 125.443 32.1432 125.017 32.6009C124.82 32.3692 124.603 32.1795 124.341 32.0464C122.962 31.3459 121.765 32.1881 121.583 33.4734C121.499 34.0702 121.603 34.6341 121.965 35.1269C122.417 35.7418 123.169 35.9771 123.951 35.7682C124.367 35.6569 124.727 35.449 125.027 35.1402C125.051 35.1163 125.066 35.085 125.076 35.0713C125.501 35.484 125.911 35.8813 126.328 36.2855C126.078 36.5936 125.794 36.8454 125.47 37.0524C124.649 37.5771 123.751 37.729 122.795 37.6058C122.02 37.506 121.34 37.199 120.76 36.6788C120.057 36.0493 119.643 35.2635 119.533 34.3294C119.387 33.0925 119.723 32.0025 120.605 31.1086C121.23 30.4765 121.998 30.1143 122.885 30.0244C123.454 29.9668 124.022 29.9739 124.577 30.1394C125.248 30.3393 125.817 30.6969 126.288 31.2355" fill="white"/>
<path fill-rule="evenodd" clip-rule="evenodd" d="M110.891 28.2657H112.974V30.135H114.685V31.9123H112.997C112.963 31.9584 112.977 32.0019 112.977 32.042C112.976 33.0262 112.976 34.0103 112.976 34.9944C112.976 35.0911 112.979 35.1873 112.998 35.2831C113.058 35.5732 113.241 35.7358 113.54 35.7548C113.891 35.7772 114.227 35.7176 114.547 35.5699C114.588 35.5508 114.631 35.5343 114.671 35.5171C114.707 35.5496 114.692 35.5851 114.692 35.6158C114.693 36.0995 114.693 36.5831 114.693 37.0668C114.693 37.1198 114.702 37.1701 114.636 37.2049C113.77 37.6644 112.867 37.7326 111.949 37.4101C111.361 37.2039 111.078 36.7249 110.955 36.1386C110.879 35.7736 110.881 35.4034 110.881 35.0333C110.882 34.0323 110.882 33.0314 110.882 32.0304V31.922H110.023V30.1323H110.891V28.2657Z" fill="white"/>
<path fill-rule="evenodd" clip-rule="evenodd" d="M84.5664 31.9219V30.1382H85.4366V28.269H87.5239V30.1308H89.2332V31.9153H87.5249V32.0521C87.5249 33.0195 87.5243 33.987 87.5257 34.9544C87.5259 35.0551 87.5305 35.1568 87.5455 35.2561C87.5924 35.5657 87.7871 35.7377 88.1012 35.7556C88.4525 35.7755 88.7884 35.7146 89.1078 35.5659C89.1452 35.5485 89.1835 35.5332 89.2138 35.5201C89.247 35.5304 89.241 35.5503 89.241 35.5651C89.2416 36.0741 89.2403 36.5831 89.2432 37.092C89.2435 37.1565 89.2201 37.1878 89.1651 37.2176C88.5762 37.5369 87.9464 37.6427 87.2837 37.5848C87.0311 37.5628 86.7824 37.5229 86.5444 37.4323C85.9635 37.211 85.6529 36.7689 85.5213 36.1817C85.4593 35.9054 85.4416 35.6249 85.4419 35.3424C85.4431 34.2529 85.4424 33.1635 85.4424 32.074V31.9219H84.5664Z" fill="white"/>
<path fill-rule="evenodd" clip-rule="evenodd" d="M8.45649 43.1635C7.99051 42.667 7.5994 42.122 7.27794 41.5266C7.04945 41.1034 6.86502 40.6619 6.71587 40.2049C6.69192 40.1316 6.7005 40.0839 6.75203 40.0253C7.90557 38.7132 9.27655 37.6904 10.8645 36.9608C12.0286 36.426 13.2494 36.0825 14.5234 35.9334C15.5709 35.8108 16.6175 35.8191 17.6628 35.9607C17.6953 35.9651 17.7272 35.9741 17.7593 35.9809C13.4458 36.8097 10.3583 39.2104 8.45649 43.1635" fill="white"/>
<mask id="mask0" mask-type="alpha" maskUnits="userSpaceOnUse" x="3" y="27" width="124" height="19">
<path fill-rule="evenodd" clip-rule="evenodd" d="M3.66016 45.6247H126.327V27.375H3.66016V45.6247Z" fill="white"/>
</mask>
<g mask="url(#mask0)">
<path fill-rule="evenodd" clip-rule="evenodd" d="M90.6172 37.4635H92.6912V27.4868H90.6172V37.4635Z" fill="white"/>
<path fill-rule="evenodd" clip-rule="evenodd" d="M67.3125 37.4636H69.3814V27.4831H67.3125V37.4636Z" fill="white"/>
<path fill-rule="evenodd" clip-rule="evenodd" d="M37.7266 37.4633H39.7912V27.484H37.7266V37.4633Z" fill="white"/>
<path fill-rule="evenodd" clip-rule="evenodd" d="M16.6285 37.2197C15.5151 38.6509 15.8895 40.5958 17.2342 41.537C18.0146 42.0832 18.878 42.2334 19.7966 41.9678C20.7088 41.7041 21.3421 41.1113 21.7413 40.255C21.7272 40.4025 21.6787 40.5375 21.6295 40.6712C20.974 42.4547 19.7851 43.7564 18.0707 44.5802C17.8393 44.6915 17.597 44.7787 17.3547 44.8645C17.2973 44.8848 17.2506 44.87 17.199 44.8459C15.6808 44.1385 14.7828 42.9588 14.6249 41.2958C14.4625 39.5852 15.1507 38.2358 16.5662 37.2571C16.5861 37.2434 16.6077 37.2321 16.6285 37.2197" fill="white"/>
<path fill-rule="evenodd" clip-rule="evenodd" d="M116.074 37.4638H118.148V30.1417H116.074V37.4638Z" fill="white"/>
<path fill-rule="evenodd" clip-rule="evenodd" d="M38.6956 41.035H39.1726V45.3427C39.0564 45.3427 38.9444 45.3417 38.8324 45.3431C38.7688 45.3439 38.7502 45.2899 38.7208 45.2528C37.858 44.1642 36.9964 43.0746 36.1345 41.9854C36.0962 41.9369 36.0565 41.8896 35.9985 41.8184V45.3356H35.5273V41.029C35.6624 41.029 35.7961 41.0313 35.9296 41.028C35.9944 41.0264 36.0141 41.0763 36.0439 41.1141C36.8858 42.1816 37.727 43.2497 38.5684 44.3176C38.6046 44.3636 38.6422 44.4085 38.6956 44.4741V41.035Z" fill="white"/>
<path fill-rule="evenodd" clip-rule="evenodd" d="M47.2315 41.8074V45.3346H46.7578V41.0293C46.8953 41.0293 47.0366 41.0285 47.1778 41.0298C47.2286 41.0303 47.2436 41.078 47.2685 41.1095C48.1031 42.1669 48.937 43.2248 49.7712 44.2826C49.8151 44.3383 49.86 44.3932 49.9267 44.4762V41.0349H50.3994V45.3427C50.2838 45.3427 50.1749 45.3414 50.066 45.3432C49.9965 45.3444 49.9772 45.2851 49.9455 45.2451C49.2795 44.4032 48.6149 43.5602 47.9501 42.7175C47.7186 42.4241 47.4869 42.1309 47.2315 41.8074" fill="white"/>
<path fill-rule="evenodd" clip-rule="evenodd" d="M79.0445 43.2403C79.0748 43.2419 79.0993 43.2445 79.1236 43.2442C79.5661 43.2381 80.0086 43.2329 80.4511 43.2246C80.6298 43.2213 80.801 43.1794 80.9651 43.108C81.4561 42.8944 81.6335 42.3038 81.3285 41.8741C81.1517 41.6251 80.8825 41.5343 80.5944 41.5113C80.0854 41.4708 79.5747 41.4972 79.0648 41.4955C79.0581 41.4954 79.0513 41.5045 79.0445 41.5094V43.2403ZM78.5625 41.029H79.4475C79.8058 41.029 80.1642 41.024 80.5224 41.0302C80.9657 41.038 81.3586 41.1858 81.6721 41.5027C82.1423 41.9779 82.1526 43.0524 81.2281 43.4408C81.1 43.4946 80.9678 43.5346 80.8079 43.5678C81.2486 44.1538 81.6812 44.7289 82.1322 45.3286C81.9258 45.3286 81.7473 45.3297 81.569 45.3281C81.5075 45.3275 81.4904 45.2695 81.4616 45.2311C81.0903 44.7363 80.7193 44.2413 80.3517 43.7437C80.3048 43.6803 80.2591 43.6507 80.1765 43.6518C79.8058 43.657 79.435 43.6541 79.0502 43.6541V45.3224H78.5625V41.029Z" fill="white"/>
<path fill-rule="evenodd" clip-rule="evenodd" d="M76.2492 43.4585H74.944V43.0449H76.7166C76.7166 43.6009 76.7163 44.1515 76.7173 44.7021C76.7174 44.74 76.7005 44.7622 76.6742 44.7865C76.0166 45.3952 74.8397 45.599 74.0347 45.2207C73.1919 44.8247 72.7821 44.1425 72.7813 43.2179C72.7804 42.2747 73.2049 41.5864 74.052 41.1645C74.8123 40.7859 75.953 40.9593 76.5532 41.5462C76.4549 41.6623 76.3558 41.7792 76.2484 41.906C76.0757 41.7619 75.8948 41.6378 75.69 41.5493C74.6575 41.1034 73.49 41.7053 73.3126 42.8108C73.2021 43.4987 73.3375 44.1497 73.9228 44.6078C74.511 45.068 75.1679 45.0638 75.8327 44.7851C76.247 44.6115 76.2447 44.6003 76.2488 44.1591C76.251 43.9289 76.2492 43.6987 76.2492 43.4585" fill="white"/>
<path fill-rule="evenodd" clip-rule="evenodd" d="M87.4666 43.1792C87.4666 43.1637 87.4669 43.13 87.4666 43.0964C87.4565 41.8827 86.1661 41.0682 85.0601 41.5775C84.3957 41.8834 84.0335 42.5117 84.0604 43.312C84.0901 44.1987 84.8049 44.9264 85.6889 44.9649C86.6503 45.0067 87.4951 44.2262 87.4666 43.1792M85.7802 41.0015C87.0068 41.0107 87.9873 42.0034 87.9736 43.2223C87.96 44.4372 86.965 45.409 85.7463 45.3975C84.5353 45.3861 83.5567 44.3944 83.5665 43.1885C83.5764 41.9688 84.5647 40.9923 85.7802 41.0015" fill="white"/>
<path fill-rule="evenodd" clip-rule="evenodd" d="M41.9761 43.7494H43.9353C43.6099 43.0218 43.2904 42.3072 42.9597 41.5676C42.6264 42.3069 42.3041 43.0218 41.9761 43.7494M45.1667 45.3428C45.0005 45.3428 44.85 45.3408 44.6996 45.3437C44.6347 45.3449 44.6271 45.295 44.6094 45.2552C44.4691 44.9403 44.3269 44.626 44.1929 44.3084C44.1576 44.2247 44.1119 44.2011 44.024 44.2016C43.3158 44.2052 42.6076 44.2053 41.8993 44.2014C41.8137 44.2009 41.7742 44.2277 41.7406 44.3053C41.5905 44.6521 41.433 44.9958 41.2786 45.3395H40.7937C40.7881 45.291 40.8158 45.2563 40.8326 45.2191C41.4496 43.8505 42.0682 42.4827 42.6827 41.113C42.7213 41.0271 42.7692 41.0103 42.8586 40.9961C43.1182 40.9547 43.2334 41.0657 43.337 41.2992C43.9187 42.6097 44.5204 43.9114 45.1151 45.2162C45.1319 45.2532 45.1459 45.2916 45.1667 45.3428" fill="white"/>
<path fill-rule="evenodd" clip-rule="evenodd" d="M61.0479 43.7506H63.0097C62.6826 43.0206 62.3608 42.3025 62.0314 41.5675C61.6978 42.3081 61.3742 43.0264 61.0479 43.7506M64.2225 45.3409C64.0423 45.3409 63.8601 45.3886 63.7284 45.3277C63.5926 45.2649 63.58 45.0593 63.5114 44.9174C63.4127 44.713 63.3224 44.5044 63.2341 44.2953C63.2058 44.2282 63.171 44.2015 63.0949 44.2018C62.3741 44.2049 61.6533 44.205 60.9325 44.2017C60.8555 44.2014 60.8224 44.2304 60.7936 44.2962C60.6538 44.616 60.5072 44.9328 60.3681 45.2528C60.3385 45.3208 60.303 45.3486 60.2274 45.3447C60.1014 45.3381 59.9748 45.3429 59.8487 45.3429C59.8314 45.2928 59.8636 45.2592 59.8801 45.223C60.5041 43.8485 61.1294 42.4747 61.7519 41.0997C61.7837 41.0295 61.8215 41.0099 61.8984 40.997C62.1693 40.9513 62.295 41.0613 62.4055 41.3131C62.973 42.6067 63.5651 43.8895 64.1486 45.1761C64.1709 45.2252 64.1927 45.2744 64.2225 45.3409" fill="white"/>
<path fill-rule="evenodd" clip-rule="evenodd" d="M95.6758 41.4872V43.3748C96.0522 43.3748 96.4187 43.3766 96.7852 43.3738C96.9074 43.3729 97.0285 43.3531 97.1478 43.3249C97.621 43.2132 97.9202 42.8643 97.9197 42.4239C97.9193 41.9775 97.6416 41.6336 97.1868 41.5418C96.6872 41.441 96.1807 41.5077 95.6758 41.4872M95.6437 43.8074V45.3373H95.1719V41.0607C95.1953 41.0245 95.218 41.0293 95.2379 41.0293C95.7986 41.0301 96.3595 41.023 96.92 41.0354C97.3065 41.044 97.6646 41.1528 97.9747 41.4C98.5956 41.895 98.6387 43.2015 97.5851 43.6372C97.3045 43.7532 97.0132 43.8073 96.7107 43.8074C96.3612 43.8074 96.0118 43.8074 95.6437 43.8074" fill="white"/>
<path fill-rule="evenodd" clip-rule="evenodd" d="M89.6763 41.0349H90.1524C90.179 41.0784 90.1661 41.1258 90.1662 41.1708C90.1688 41.991 90.1689 42.8113 90.173 43.6316C90.1741 43.8567 90.2214 44.075 90.3188 44.2787C90.5612 44.7863 90.9946 44.9691 91.5272 44.9603C91.9619 44.9532 92.3402 44.8164 92.5799 44.4241C92.7238 44.1886 92.7829 43.9263 92.7842 43.6531C92.7882 42.8286 92.7875 42.004 92.7887 41.1795C92.7887 41.1341 92.7887 41.0887 92.7887 41.0362H93.2671C93.2706 41.0488 93.2785 41.064 93.2784 41.0793C93.2763 41.9416 93.282 42.8041 93.2676 43.6663C93.2595 44.146 93.1183 44.5886 92.7666 44.9369C92.3988 45.301 91.9357 45.4132 91.4343 45.4075C91.0102 45.4027 90.6142 45.3034 90.2809 45.0289C89.9118 44.7249 89.7488 44.3139 89.697 43.8511C89.6764 43.6669 89.6755 43.4818 89.6758 43.2966C89.6769 42.5856 89.6763 41.8746 89.6763 41.1637V41.0349Z" fill="white"/>
<path fill-rule="evenodd" clip-rule="evenodd" d="M55.7358 44.3293C55.832 44.4349 55.9282 44.5404 56.0254 44.6471C55.3996 45.4365 53.9799 45.7199 52.9776 44.9245C51.992 44.1424 51.889 42.614 52.7636 41.6547C53.5988 40.7386 55.1543 40.7363 56.0357 41.6503C55.9245 41.7635 55.8133 41.8768 55.702 41.9901C54.9356 41.2206 53.8091 41.2318 53.1385 41.9092C52.4937 42.5604 52.4785 43.7053 53.1111 44.402C53.7027 45.0535 54.8621 45.2249 55.7358 44.3293" fill="white"/>
<path fill-rule="evenodd" clip-rule="evenodd" d="M28.6809 45.3368H28.1953V41.034H31.2884V41.4786H28.6869V43.0148H31.0062V43.453H28.6809V45.3368Z" fill="white"/>
<path fill-rule="evenodd" clip-rule="evenodd" d="M116.02 29.3177H118.207V27.4866H116.02V29.3177Z" fill="white"/>
<path fill-rule="evenodd" clip-rule="evenodd" d="M65.8164 41.0343H66.2967V44.8903H68.7245V45.3375H65.8164V41.0343Z" fill="white"/>
<path fill-rule="evenodd" clip-rule="evenodd" d="M57.7188 45.335H58.2056V41.0356H57.7188V45.335Z" fill="white"/>
<path fill-rule="evenodd" clip-rule="evenodd" d="M33.0273 45.3332H33.5052V41.0345H33.0273V45.3332Z" fill="white"/>
<path fill-rule="evenodd" clip-rule="evenodd" d="M15.932 36.8862C15.9275 36.8937 15.922 36.9031 15.9165 36.9124C15.9012 36.9024 15.8858 36.8924 15.8705 36.8823C15.8812 36.8731 15.8924 36.8564 15.9026 36.8571C15.9127 36.8576 15.922 36.8755 15.932 36.8862" fill="white"/>
</g>
</svg>
