<svg width="130" height="73" viewBox="0 0 130 73" fill="none" xmlns="http://www.w3.org/2000/svg">
<path fill-rule="evenodd" clip-rule="evenodd" d="M39.9425 10.8699C39.9425 10.8699 64.7707 4.64028 73.8047 4.56545C83.5392 4.48971 87.3833 5.92416 89.24 10.1901C90.6974 13.5508 87.5353 16.552 87.5353 16.552C87.5353 16.552 93.2352 17.9482 96.3414 20.3645C98.5386 22.0635 98.6705 24.1021 98.6705 24.1021C98.6705 24.1021 100.281 25.4425 100.508 25.8769C100.527 25.9143 97.3457 25.4051 96.1895 25.1971C79.2776 22.3282 53.6731 22.3464 35.7386 41.3739C34.6024 42.582 35.6433 40.2789 40.5678 33.8804C53.6923 16.8541 74.9976 16.0794 74.9976 16.0794C74.9976 16.0794 74.1078 12.8519 64.5628 11.6437C58.6918 10.9265 39.9425 10.8699 39.9425 10.8699" fill="white"/>
<path fill-rule="evenodd" clip-rule="evenodd" d="M6.47766 65.4791C7.1597 65.4791 7.51949 65.4033 7.51949 64.8184C7.51949 64.2143 7.19723 64.1012 6.47766 64.1012H6.32568V65.4791H6.47766ZM6.28812 68.2357H5.54932V63.4214H6.64882C7.15967 63.4214 7.55699 63.4588 7.84171 63.686C8.12551 63.9123 8.31502 64.2892 8.31502 64.7427C8.31502 65.5165 7.93601 65.9508 7.1972 66.0448L8.86432 68.2357H7.97354L6.36411 66.0831H6.26889L6.28812 68.2357Z" fill="white"/>
<path fill-rule="evenodd" clip-rule="evenodd" d="M10.4551 63.4215H13.1448V64.0822H11.2314V65.2903H13.1448V65.9884H11.2314V67.5369H13.1448V68.2349H10.4551" fill="white"/>
<path fill-rule="evenodd" clip-rule="evenodd" d="M16.894 68.2353H16.0985V64.0816H14.8296V63.4219H18.1629V64.0816H16.894" fill="white"/>
<mask id="mask0" mask-type="alpha" maskUnits="userSpaceOnUse" x="5" y="4" width="119" height="66">
<path fill-rule="evenodd" clip-rule="evenodd" d="M5.49316 69.2165H123.595V4.56226H5.49316V69.2165Z" fill="white"/>
</mask>
<g mask="url(#mask0)">
<path fill-rule="evenodd" clip-rule="evenodd" d="M20.0952 68.2347H20.8716V63.4213H20.0952V68.2347Z" fill="white"/>
<path fill-rule="evenodd" clip-rule="evenodd" d="M24.3185 65.4791C25.0005 65.4791 25.3603 65.4033 25.3603 64.8184C25.3603 64.2143 25.0381 64.1012 24.3185 64.1012H24.1665V65.4791H24.3185ZM24.1289 68.2357H23.3901V63.4214H24.4887C25.0005 63.4214 25.3978 63.4588 25.7008 63.686C25.9846 63.9123 26.1742 64.2892 26.1742 64.7427C26.1742 65.5165 25.7951 65.9508 25.0756 66.0448L26.7427 68.2357H25.8144L24.204 66.0831H24.1097L24.1289 68.2357Z" fill="white"/>
<path fill-rule="evenodd" clip-rule="evenodd" d="M28.3521 63.4215H31.0418V64.0822H29.1284V65.2903H31.0418V65.9884H29.1284V67.5369H31.0418V68.2349H28.3521" fill="white"/>
<path fill-rule="evenodd" clip-rule="evenodd" d="M37.177 65.1957C37.1395 65.422 37.0635 65.6492 36.95 65.8573L35.6811 68.4232L34.4122 65.7998C34.317 65.6109 34.242 65.4037 34.166 65.1957C34.166 65.422 34.1275 65.6492 34.0708 65.8573L33.5599 68.2352H32.8403L33.9765 63.2329L35.3973 66.2524C35.4348 66.3473 35.53 66.5544 35.6619 66.9139C35.7571 66.6493 35.8706 66.423 35.9466 66.2524L37.329 63.2329L38.5027 68.2352H37.7648L37.2338 65.8573C37.253 65.7815 37.2338 65.5552 37.177 65.1957" fill="white"/>
<path fill-rule="evenodd" clip-rule="evenodd" d="M40.2642 63.4215H42.9722V64.0822H41.0597V65.2903H42.9722V65.9884H41.0597V67.5369H42.9722V68.2349H40.2642" fill="white"/>
<path fill-rule="evenodd" clip-rule="evenodd" d="M45.2456 63.2327L48.3134 66.1782C48.5029 66.3671 48.6732 66.5551 48.8435 66.7622V63.4216H49.5631V68.423L46.4385 65.4218C46.2682 65.2529 46.1162 65.0823 45.9652 64.8934V68.235H45.2456" fill="white"/>
<path fill-rule="evenodd" clip-rule="evenodd" d="M53.4834 68.2353H52.6878V64.0816H51.4189V63.4219H54.7523V64.0816H53.4834" fill="white"/>
<path fill-rule="evenodd" clip-rule="evenodd" d="M58.5972 69.2166H59.0137V62.4778H58.5972V69.2166Z" fill="white"/>
<path fill-rule="evenodd" clip-rule="evenodd" d="M64.6193 67.5928C65.055 67.5928 65.3773 67.5736 65.5668 67.4422C65.7554 67.3099 65.8698 67.0827 65.8698 66.819C65.8698 66.517 65.7371 66.2724 65.4908 66.1593C65.3013 66.0644 65.0935 66.0452 64.8472 66.0452H64.3355V67.5736H64.6193V67.5928ZM64.6577 65.4603C65.358 65.4603 65.6803 65.2905 65.6803 64.7987C65.6803 64.1946 65.358 64.0815 64.6577 64.0815H64.3537V65.4603H64.6577ZM63.5774 63.4218H64.7904C65.3013 63.4218 65.6803 63.44 65.9833 63.6663C66.2863 63.8744 66.4566 64.2521 66.4566 64.6856C66.4566 65.1957 66.2104 65.5552 65.7554 65.6866C66.3239 65.7815 66.6644 66.2341 66.6644 66.8756C66.6644 67.2716 66.5134 67.6311 66.2671 67.8766C65.9266 68.216 65.4716 68.2352 64.7904 68.2352H63.5591L63.5774 63.4218Z" fill="white"/>
<path fill-rule="evenodd" clip-rule="evenodd" d="M68.729 63.4215H71.4187V64.0822H69.5053V65.2903H71.4187V65.9884H69.5053V67.5369H71.4187V68.2349H68.729" fill="white"/>
<path fill-rule="evenodd" clip-rule="evenodd" d="M73.5962 63.2327L76.6649 66.1782C76.8535 66.3671 77.0238 66.5551 77.195 66.7622V63.4216H77.9146V68.423L74.7891 65.4218C74.6188 65.2529 74.4485 65.0823 74.3158 64.8934V68.235H73.5962" fill="white"/>
<path fill-rule="evenodd" clip-rule="evenodd" d="M80.3008 63.4215H83.0088V64.0822H81.0963V65.2903H83.0088V65.9884H81.0963V67.5369H83.0088V68.2349H80.3008" fill="white"/>
<path fill-rule="evenodd" clip-rule="evenodd" d="M85.3193 63.4215H88.009V64.0822H86.0957V65.2903H88.009V65.9701H86.0957V68.2349H85.3193" fill="white"/>
<path fill-rule="evenodd" clip-rule="evenodd" d="M90.0161 68.2347H90.7924V63.4213H90.0161V68.2347Z" fill="white"/>
<path fill-rule="evenodd" clip-rule="evenodd" d="M94.6367 68.2353H93.8604V64.0816H92.5723V63.4219H95.9248V64.0816H94.6367" fill="white"/>
<path fill-rule="evenodd" clip-rule="evenodd" d="M97.8375 66.9895C97.951 67.4238 98.2733 67.6501 98.7658 67.6501C99.2391 67.6501 99.5229 67.3664 99.5229 66.9329C99.5229 66.4602 99.1631 66.3471 98.6706 66.1016C97.8183 65.6864 97.345 65.3662 97.345 64.6298C97.345 63.8551 97.9135 63.3085 98.8034 63.3085C99.5229 63.3085 100.015 63.5913 100.186 64.1014L99.5797 64.4226C99.3902 64.1197 99.1631 63.9874 98.8601 63.9874C98.4436 63.9874 98.179 64.2328 98.179 64.5914C98.179 65.0641 98.5571 65.1955 99.1064 65.4419C99.9587 65.837 100.356 66.1774 100.356 66.8754C100.356 67.7633 99.75 68.3674 98.7658 68.3674C97.9327 68.3674 97.4017 67.9704 97.2314 67.2724" fill="white"/>
<path fill-rule="evenodd" clip-rule="evenodd" d="M104.239 69.2166H104.656V62.4778H104.239V69.2166Z" fill="white"/>
<path fill-rule="evenodd" clip-rule="evenodd" d="M109.333 63.4215H110.11V67.5369H111.871V68.2349H109.333" fill="white"/>
<path fill-rule="evenodd" clip-rule="evenodd" d="M113.632 68.2347H114.409V63.4213H113.632V68.2347Z" fill="white"/>
<path fill-rule="evenodd" clip-rule="evenodd" d="M116.682 63.4215H119.371V64.0822H117.458V65.2903H119.371V65.9701H117.458V68.2349H116.682" fill="white"/>
<path fill-rule="evenodd" clip-rule="evenodd" d="M120.905 63.4215H123.594V64.0822H121.682V65.2903H123.594V65.9884H121.682V67.5369H123.594V68.2349H120.905" fill="white"/>
<path fill-rule="evenodd" clip-rule="evenodd" d="M7.51958 51.6989C7.89859 53.0959 8.93951 53.8323 10.5306 53.8323C12.065 53.8323 12.9924 52.907 12.9924 51.5292C12.9924 50.0007 11.837 49.6421 10.2093 48.8492C7.46282 47.4904 5.92845 46.452 5.92845 44.0923C5.92845 41.5811 7.78507 39.8254 10.6258 39.8254C12.9356 39.8254 14.546 40.7699 15.1328 42.3932L13.1444 43.4125C12.5383 42.4498 11.8187 41.9972 10.8337 41.9972C9.45127 41.9972 8.59894 42.7892 8.59894 43.9609C8.59894 45.4702 9.82937 45.9237 11.5725 46.7349C14.3373 47.9996 15.6254 49.1129 15.6254 51.3594C15.6254 54.2658 13.6744 56.1729 10.4363 56.1729C7.76584 56.1729 6.02366 54.9091 5.49268 52.6433" fill="white"/>
<path fill-rule="evenodd" clip-rule="evenodd" d="M25.3597 48.6228L20.0947 40.1658H22.7652L26.0418 45.4701C26.1168 45.5833 26.3448 45.9985 26.7046 46.7157C26.8932 46.2065 27.1211 45.7722 27.3674 45.4136L30.7382 40.1849H33.276L27.8975 48.642V55.7768H25.379" fill="white"/>
<path fill-rule="evenodd" clip-rule="evenodd" d="M50.8133 45.9237C50.6805 46.66 50.4342 47.3572 50.0937 48.0744L46.0033 56.3809L41.9119 47.9056C41.6089 47.2824 41.3443 46.6217 41.1548 45.9237C41.1356 46.66 41.0221 47.3773 40.871 48.0744L39.1847 55.7394H36.8364L40.5295 39.5435L45.1509 49.3209C45.2828 49.6038 45.5675 50.3027 46.0033 51.4352C46.3063 50.5674 46.6661 49.8684 46.8931 49.3209L51.401 39.5435L55.1884 55.7394H52.8209L51.098 48.0562C51.0412 47.7724 50.9652 47.0752 50.8133 45.9237" fill="white"/>
<path fill-rule="evenodd" clip-rule="evenodd" d="M62.3657 40.1661H71.0775V42.3178H64.9035V46.2251H71.0775V48.4526H64.9035V53.474H71.0775V55.758H62.3657" fill="white"/>
<path fill-rule="evenodd" clip-rule="evenodd" d="M84.3915 55.758H81.8537V42.3178H77.7065V40.1661H88.5386V42.3178H84.3915" fill="white"/>
<path fill-rule="evenodd" clip-rule="evenodd" d="M97.2886 46.8103C99.5233 46.8103 100.64 46.5466 100.64 44.6769C100.64 42.7524 99.5609 42.3372 97.2886 42.3372H96.8336V46.8103H97.2886ZM96.6826 55.7583H94.2959V40.1664H97.8379C99.5234 40.1664 100.773 40.2978 101.72 41.0342C102.667 41.7706 103.236 42.997 103.236 44.4506C103.236 46.9618 102.004 48.3771 99.6552 48.6599L105.034 55.7391H102.175L96.9664 48.7731H96.6826V55.7583Z" fill="white"/>
<path fill-rule="evenodd" clip-rule="evenodd" d="M118.234 49.6226L116.643 46.0739C116.473 45.6587 116.265 45.092 116.056 44.3C115.867 45.092 115.659 45.6587 115.488 46.0739L113.898 49.6226H118.234ZM119.143 51.7368H112.951L111.132 55.7391H108.462L116.019 39.5431L123.574 55.7391H120.886L119.143 51.7368Z" fill="white"/>
<path fill-rule="evenodd" clip-rule="evenodd" d="M121.473 40.7702V41.4683H121.833C122.212 41.4683 122.382 41.3935 122.382 41.1288C122.382 40.8651 122.212 40.7702 121.833 40.7702H121.473ZM122.723 41.0914C122.723 41.3734 122.553 41.5814 122.25 41.6198L122.704 42.5441H122.326L121.909 41.6754H121.473V42.5441H121.132V40.543H121.871C122.439 40.543 122.723 40.7137 122.723 41.0914V41.0914ZM122.95 40.4865C122.647 40.1844 122.269 40.0339 121.833 40.0339C121.417 40.0339 121.038 40.1844 120.754 40.4682C120.451 40.7702 120.28 41.1663 120.28 41.5815C120.28 41.9775 120.432 42.3744 120.735 42.6765C121.018 42.9785 121.417 43.1291 121.814 43.1291C122.231 43.1291 122.61 42.9785 122.913 42.6765C123.196 42.3927 123.367 42.0158 123.367 41.6006C123.386 41.1663 123.235 40.7702 122.95 40.4865V40.4865ZM123.083 40.335C123.405 40.6571 123.595 41.1097 123.595 41.5815C123.595 42.0532 123.423 42.4876 123.083 42.8079C122.742 43.1482 122.287 43.3371 121.833 43.3371C121.359 43.3371 120.924 43.1482 120.583 42.8079C120.242 42.4684 120.072 42.035 120.072 41.5815C120.072 41.1097 120.261 40.6753 120.602 40.335C120.924 40.0147 121.359 39.8258 121.833 39.8258C122.306 39.8258 122.742 39.9955 123.083 40.335V40.335Z" fill="white"/>
</g>
</svg>
