<svg width="130" height="73" viewBox="0 0 130 73" fill="none" xmlns="http://www.w3.org/2000/svg">
<path fill-rule="evenodd" clip-rule="evenodd" d="M9.20644 16.4249H25.5819C26.6222 16.4249 27.4646 17.2819 27.4646 18.3385V35.5003C27.4646 36.5582 26.6222 37.4124 25.5819 37.4124H21.8398C21.4207 37.0426 20.9218 36.6127 20.7308 36.4829C20.467 36.3042 20.2581 36.1828 20.3763 35.9427C20.5824 35.5268 20.7748 34.9839 20.9163 35.0313C21.0579 35.0788 21.7203 35.1765 21.9099 35.2714C22.0047 35.3202 22.3813 35.3202 22.7606 35.1262C23.3762 34.8387 23.5178 34.36 23.6112 34.3097C23.706 34.2637 23.8957 33.9748 23.8957 33.9748C23.8957 33.9748 24.0372 33.831 24.0372 33.6384C24.0853 33.3983 24.1307 32.9182 23.9424 32.6293C23.8009 32.3892 23.4697 32.0542 23.2333 31.9579C22.9021 31.8128 22.8073 31.7193 22.8073 31.4778C22.7606 31.2852 23.1852 31.2377 23.2333 30.9014C23.2333 30.699 23.122 30.5162 22.9241 30.5162V30.4408C23.0945 30.4198 23.3762 30.3263 23.3281 30.0374C23.2814 29.7499 23.0917 29.5573 23.0917 29.5573C23.0917 29.5573 23.045 29.2698 23.1852 29.1735C23.3762 29.0758 23.8009 29.1735 24.1307 29.126C24.4619 29.0758 24.7944 29.0283 24.7944 28.6933C24.7944 28.1644 24.4619 27.8294 24.1307 27.3004C23.8009 26.7728 23.4697 26.4365 23.4229 26.3401C23.3762 26.1964 23.3625 26.0135 23.3625 26.0135C23.3625 26.0135 23.6607 25.7581 23.75 25.6702C23.9204 25.5041 24.1293 25.2738 23.9878 24.9863C23.9397 24.8411 23.75 24.8411 23.6566 24.6988C23.515 24.5522 23.5604 24.2647 23.4202 24.1209C23.324 23.9772 23.324 23.6883 23.1838 23.4482C23.089 23.1607 22.9502 22.6764 22.9502 22.6764C22.9502 22.6764 23.4614 22.3414 23.5081 22.1976C23.7445 21.6226 23.706 21.2011 23.706 21.2011C23.706 21.2011 23.8957 20.4334 23.4229 19.9533C23.2814 19.7621 23.0917 19.5695 22.9021 19.4732C22.619 19.282 22.3359 19.088 22.1476 18.9931C21.8151 18.8479 21.3932 18.7404 21.062 18.6441C20.7308 18.5004 20.5893 18.5004 20.4477 18.5004C20.2581 18.5478 20.0684 18.5478 19.9736 18.5004C19.8334 18.5004 19.2645 18.3078 18.9347 18.3566C18.6502 18.3566 18.2723 18.5478 17.658 18.5967C17.0423 18.6916 16.5229 18.5478 16.1917 18.6441C15.8619 18.7879 15.6722 18.7404 15.4826 18.8367C15.2929 18.9316 15.0538 18.9931 15.0538 18.9931C15.0538 18.9931 14.7226 19.088 14.5811 19.1368C14.4863 19.2331 14.2032 19.4243 14.2032 19.4243L13.9201 19.7133C13.8239 19.7133 13.5408 19.857 13.4941 19.9533L13.3044 20.1445C13.3044 20.1445 13.1629 20.1934 13.068 20.2897C12.9746 20.386 12.785 20.6735 12.6901 20.721C12.5486 20.7698 12.3947 20.9136 12.0635 21.2011C11.7323 21.5389 11.3544 22.019 11.3063 22.1614C11.2596 22.2577 11.0232 22.7378 11.0232 22.8355C10.9765 22.9779 10.8816 23.4594 10.7868 23.5529C10.7401 23.652 10.4556 24.227 10.4556 24.3219C10.4089 24.4671 10.4089 24.9472 10.3608 25.091C10.3141 25.2347 10.1244 25.8126 10.1244 26.2438C10.1244 26.6291 10.3608 26.9166 10.3608 27.0603C10.4089 27.2041 10.5037 27.8754 10.5037 28.1644C10.5504 28.4044 10.7758 29.2209 10.8693 29.4135C10.9174 29.6034 11.1056 29.8434 11.1056 29.8434C11.1056 29.8434 11.2266 30.3124 11.5124 30.6013C11.7955 30.9363 12.0772 31.2852 12.2215 31.3815C12.5046 31.6216 12.5747 32.2217 12.5747 32.2217C12.5747 32.2217 12.1377 32.3055 12.0429 32.4018C11.948 32.5455 11.5578 33.5672 11.1565 34.2623C10.7758 34.9225 10.0983 35.5784 10.0543 35.8729C10.0145 36.1367 10.3635 36.3754 10.2701 36.4229C10.2151 36.4522 9.81248 36.977 9.48541 37.4124H9.20644C8.16614 37.4124 7.32373 36.5582 7.32373 35.5003V18.3385C7.32373 17.2819 8.16614 16.4249 9.20644 16.4249" fill="#FEFEFE"/>
<path fill-rule="evenodd" clip-rule="evenodd" d="M35.3957 30.6021C35.3957 31.864 35.3661 33.7716 35.3069 35.2413C35.2773 36.0347 35.0996 36.5325 32.7553 36.5325C32.073 36.5325 32.073 36.7082 32.073 37.0304C32.073 37.2953 32.073 37.4124 32.3098 37.4124C32.5171 37.4124 32.6369 37.3553 36.9985 37.3553C48.6018 37.3553 47.6869 37.4124 48.0126 37.4124C48.1606 37.4124 48.2804 37.3553 48.3086 37.1782C48.8133 34.2136 49.4364 31.8054 49.4364 31.6604C49.4364 31.3955 49.3772 31.3076 48.8133 31.3076C48.5468 31.3076 48.6018 31.5112 48.3988 32.1303C47.1498 35.9176 45.6527 36.4433 41.5378 36.4433C39.2837 36.4433 38.4519 36.2969 38.4223 35.2413C38.3631 33.7716 38.3335 31.864 38.3335 30.6021V23.4124C38.3335 21.3291 38.3631 20.6235 38.3927 19.2737C38.4223 17.5419 38.927 17.3076 41.5082 17.3076C41.8352 17.3076 41.8352 17.0705 41.8352 16.807C41.8352 16.6313 41.776 16.4249 41.5674 16.4249C41.3305 16.4249 38.7494 16.5435 36.8505 16.5435C34.9798 16.5435 32.5467 16.4249 32.3098 16.4249C32.1026 16.4249 32.042 16.6313 32.042 16.807C32.042 17.0705 32.042 17.3076 32.369 17.3076C34.8022 17.3076 35.3069 17.5419 35.3365 19.2737C35.3661 20.6235 35.3957 21.3291 35.3957 23.4124V30.6021" fill="#FEFEFE"/>
<path fill-rule="evenodd" clip-rule="evenodd" d="M51.7253 19.1624C52.5166 19.1624 53.0985 18.4909 53.0985 17.7949C53.0985 17.0964 52.5166 16.4249 51.7253 16.4249C50.934 16.4249 50.3521 17.0964 50.3521 17.7949C50.3521 18.4909 50.934 19.1624 51.7253 19.1624" fill="#FEFEFE"/>
<path fill-rule="evenodd" clip-rule="evenodd" d="M77.7328 36.6729C73.4222 36.6729 72.9431 32.9862 72.9431 31.6592C72.9431 26.822 75.1405 25.4053 76.9164 25.4053C78.3791 25.4053 78.5772 26.3498 78.6615 26.7912C78.972 28.4138 79.0831 28.7081 79.9864 28.7081C81.0276 28.7081 81.4786 27.7931 81.4786 27.4414C81.4786 26.822 80.7479 24.6375 76.887 24.6375C73.2535 24.6375 70.4927 27.2928 70.4927 31.6592C70.4927 35.8769 73.0541 38.3249 76.3236 38.3249C78.1838 38.3249 79.8178 37.5276 81.2538 35.8181C81.4224 35.6401 81.4786 35.493 81.4786 35.3753C81.4786 35.1693 81.1414 34.9619 81.0557 34.9619C80.9165 34.9619 80.8028 35.2282 80.5779 35.4342C80.0132 35.9372 78.7739 36.6729 77.7328 36.6729" fill="#FEFEFE"/>
<path fill-rule="evenodd" clip-rule="evenodd" d="M96.1264 31.4812C96.1264 27.5002 93.2029 24.6375 89.2455 24.6375C85.3176 24.6375 82.394 27.5885 82.394 31.4812C82.394 35.4047 85.1983 38.3249 89.2455 38.3249C93.3797 38.3249 96.1264 35.6107 96.1264 31.4812M93.3207 31.4812C93.3207 33.9895 92.7301 37.5571 89.2455 37.5571C85.7903 37.5571 85.1983 33.9895 85.1983 31.4812C85.1983 28.5904 86.1733 25.4053 89.2455 25.4053C92.3472 25.4053 93.3207 28.5904 93.3207 31.4812" fill="#FEFEFE"/>
<path fill-rule="evenodd" clip-rule="evenodd" d="M53.475 28.2782V34.6231C53.475 36.2962 53.5346 36.6506 54.8476 36.6506H56.7248C57.5004 36.6506 57.7684 36.3548 57.9484 35.9445C58.0675 35.6808 58.1271 33.5947 58.1271 31.715V27.6907C58.1271 26.6623 57.8591 26.0748 56.3675 25.9269C56.1279 25.899 56.0981 25.7818 56.0981 25.5753C56.0981 25.3409 56.1874 25.1929 56.3363 25.1664C59.7378 24.4883 60.1561 23.725 60.5162 23.725C60.5758 23.725 60.6041 23.8143 60.6041 24.0487C60.6041 24.2245 60.5432 24.8706 60.5432 26.1627C62.0971 25.1357 63.6185 24.1352 65.2306 24.1352C66.2458 24.1352 69.1709 24.3431 69.1709 28.5405V35.5915C69.1709 36.0924 69.2588 36.6506 71.1106 36.6506C71.4083 36.6506 71.4083 36.825 71.4083 37.0301C71.4083 37.2074 71.4083 37.4125 70.9915 37.4125C70.0954 37.4125 69.5594 37.3553 67.9771 37.3553C65.5596 37.3553 65.0818 37.4125 64.8421 37.4125C64.6635 37.4125 64.6337 37.2074 64.6337 37.0608C64.6337 36.9129 64.6947 36.6506 65.052 36.6506C66.484 36.6506 66.7534 36.532 66.7534 35.5622V30.3043C66.7534 27.5735 66.5138 25.7511 63.4087 25.7511C62.2758 25.7511 60.6637 26.7502 60.5432 27.1032V34.6231C60.5432 36.2962 60.6041 36.6506 61.9171 36.6506C62.7238 36.6506 62.7834 36.6799 62.7834 37.0301C62.7834 37.2074 62.7834 37.4125 62.4842 37.4125C62.3353 37.4125 58.3398 37.3567 55.6912 37.3553C52.9887 37.3553 49.2072 37.4125 48.7606 37.4125C48.521 37.4125 48.521 37.2381 48.521 37.0887C48.521 36.7078 48.5508 36.6506 49.6539 36.6506C50.4309 36.6506 50.6989 36.3548 50.8775 35.9445C50.998 35.6808 51.0576 33.5947 51.0576 31.715V27.6907C51.0576 26.6623 50.7882 26.0748 49.2966 25.9269C49.0584 25.899 49.0286 25.7818 49.0286 25.5753C49.0286 25.3409 49.1165 25.1929 49.2668 25.1664C52.6711 24.4883 53.088 23.725 53.4453 23.725C53.5644 23.725 53.6253 23.8729 53.6253 24.0487C53.6253 24.1659 53.475 24.4604 53.475 28.2782" fill="#FEFEFE"/>
<mask id="mask0" mask-type="alpha" maskUnits="userSpaceOnUse" x="95" y="15" width="23" height="24">
<path fill-rule="evenodd" clip-rule="evenodd" d="M95.8623 15.5125H117.953V38.2314H95.8623V15.5125Z" fill="white"/>
</mask>
<g mask="url(#mask0)">
<path fill-rule="evenodd" clip-rule="evenodd" d="M100.609 20.1639V35.3813C100.609 37.0908 100.666 37.4529 101.963 37.4529H103.497C104.265 37.4529 104.529 37.1507 104.707 36.7315C104.823 36.462 104.884 34.3305 104.884 32.41V28.298C104.884 27.2472 104.619 26.6469 103.145 26.4958C102.909 26.4673 102.88 26.3475 102.88 26.1365C102.88 25.897 102.968 25.7459 103.115 25.7188C106.474 25.0258 106.889 24.2459 107.241 24.2459C107.302 24.2459 107.33 24.3372 107.33 24.5767C107.33 24.7564 107.271 25.4165 107.271 26.7368C108.804 25.6874 110.306 24.6651 111.898 24.6651C112.901 24.6651 115.788 24.8776 115.788 29.1663V36.3708C115.788 36.8826 115.83 37.4529 117.657 37.4529C117.953 37.4529 117.953 37.6312 117.953 37.8408C117.953 38.0218 117.953 38.2314 117.541 38.2314C116.656 38.2314 116.172 38.173 114.609 38.173C112.223 38.173 111.751 38.2314 111.515 38.2314C111.338 38.2314 111.308 38.0218 111.308 37.8721C111.308 37.721 111.368 37.4529 111.721 37.4529C113.136 37.4529 113.401 37.3318 113.401 36.3408V30.9685C113.401 28.1782 113.166 26.3162 110.101 26.3162C108.98 26.3162 107.39 27.337 107.271 27.6977V35.3813C107.271 37.0908 107.33 37.4529 108.628 37.4529C109.424 37.4529 109.48 37.4815 109.48 37.8408C109.48 38.0218 109.48 38.2314 109.186 38.2314C109.039 38.2314 105.201 38.173 102.653 38.173C100.098 38.173 96.3916 38.2314 96.0975 38.2314C95.8623 38.2314 95.8623 38.0532 95.8623 37.9006C95.8623 37.5114 95.8917 37.4529 96.9838 37.4529C97.6013 37.4529 97.8659 37.1507 98.0424 36.7315C98.1614 36.462 98.2202 32.4984 98.2202 31.208V20.7043C98.2202 18.0937 98.132 17.7344 96.5106 17.5818C96.3342 17.5533 96.2459 17.4321 96.2459 17.2225C96.2459 16.9844 96.3342 16.8333 96.4812 16.8034C98.8699 16.3842 100.283 15.5116 100.578 15.5116C100.696 15.5116 100.756 15.6627 100.756 15.8424C100.756 15.9636 100.609 16.263 100.609 20.1639" fill="#FEFEFE"/>
</g>
<mask id="mask1" mask-type="alpha" maskUnits="userSpaceOnUse" x="7" y="15" width="116" height="43">
<path fill-rule="evenodd" clip-rule="evenodd" d="M7.32373 57.4875H122.676V15.5125H7.32373V57.4875Z" fill="white"/>
</mask>
<g mask="url(#mask1)">
<path fill-rule="evenodd" clip-rule="evenodd" d="M32.042 42.7743H117.183V41.975H32.042V42.7743Z" fill="#FEFEFE"/>
<path fill-rule="evenodd" clip-rule="evenodd" d="M32.042 54.75H33.2757V51.0086H36.4718V49.9716H33.2757V47.5718H36.6195V46.5375H32.042V54.75Z" fill="#FEFEFE"/>
<path fill-rule="evenodd" clip-rule="evenodd" d="M37.5352 46.9518H38.9084V45.625H37.5352V46.9518ZM37.6135 54.75H38.833V48.3755H37.6135V54.75Z" fill="#FEFEFE"/>
<path fill-rule="evenodd" clip-rule="evenodd" d="M40.2812 54.7499H41.4268V51.8631C41.4268 50.3451 42.0113 49.2931 43.3138 49.2931C44.3135 49.3531 44.6301 50.0646 44.6301 51.5213V54.7499H45.7742V51.0427C45.7742 49.3656 45.0563 48.3624 43.4484 48.3624C42.5834 48.3624 41.7559 48.7908 41.4143 49.4996H41.3907V48.5089H40.2812V54.7499" fill="#FEFEFE"/>
<path fill-rule="evenodd" clip-rule="evenodd" d="M50.9464 52.238C50.9464 53.1462 50.3274 53.8403 49.1514 53.8403C48.6102 53.8403 47.9523 53.494 47.9523 52.8489C47.9523 51.7716 49.5444 51.6762 50.1878 51.6762C50.4397 51.6762 50.6931 51.6994 50.9464 51.6994V52.238ZM47.486 49.8925C47.9653 49.5106 48.685 49.272 49.3544 49.272C50.5405 49.272 50.9464 49.8107 50.9464 50.8634C50.4786 50.8389 50.1504 50.8389 49.684 50.8389C48.4576 50.8389 46.6899 51.3175 46.6899 52.8489C46.6899 54.1772 47.663 54.7499 49.0521 54.7499C50.1374 54.7499 50.7679 54.1881 51.0472 53.8158H51.0716V54.6054H52.1829C52.157 54.4254 52.1325 54.1035 52.1325 53.4094V50.8866C52.1325 49.2243 51.3869 48.3624 49.5444 48.3624C48.7225 48.3624 48.0157 48.6011 47.4226 48.9365L47.486 49.8925V49.8925Z" fill="#FEFEFE"/>
<path fill-rule="evenodd" clip-rule="evenodd" d="M53.0981 54.7499H54.2423V51.8631C54.2423 50.3451 54.8268 49.2931 56.1307 49.2931C57.129 49.3531 57.4456 50.0646 57.4456 51.5213V54.7499H58.5911V51.0427C58.5911 49.3656 57.8719 48.3624 56.264 48.3624C55.4003 48.3624 54.5714 48.7908 54.2298 49.4996H54.2048V48.5089H53.0981V54.7499" fill="#FEFEFE"/>
<path fill-rule="evenodd" clip-rule="evenodd" d="M64.036 48.6011C63.7073 48.4702 63.115 48.3624 62.6551 48.3624C60.7648 48.3624 59.5068 49.7029 59.5068 51.5562C59.5068 53.3031 60.7896 54.7499 62.6551 54.7499C63.0666 54.7499 63.6121 54.7145 64.0843 54.499L64.0001 53.494C63.648 53.7203 63.1633 53.8403 62.7753 53.8403C61.3102 53.8403 60.7178 52.6444 60.7178 51.5562C60.7178 50.3957 61.4317 49.272 62.7035 49.272C63.0666 49.272 63.503 49.3552 63.9393 49.5352L64.036 48.6011" fill="#FEFEFE"/>
<path fill-rule="evenodd" clip-rule="evenodd" d="M65 46.9518H66.3732V45.625H65V46.9518ZM65.0811 54.75H66.295V48.3755H65.0811V54.75Z" fill="#FEFEFE"/>
<path fill-rule="evenodd" clip-rule="evenodd" d="M72.0025 52.238C72.0025 53.1462 71.385 53.8403 70.209 53.8403C69.6663 53.8403 69.0099 53.494 69.0099 52.8489C69.0099 51.7716 70.6019 51.6762 71.2454 51.6762C71.4973 51.6762 71.7492 51.6994 72.0025 51.6994V52.238ZM68.545 49.8925C69.0243 49.5106 69.7426 49.272 70.4134 49.272C71.5981 49.272 72.0026 49.8107 72.0026 50.8634C71.5347 50.8389 71.208 50.8389 70.7402 50.8389C69.5137 50.8389 67.7461 51.3175 67.7461 52.8489C67.7461 54.1772 68.7192 54.7499 70.1097 54.7499C71.195 54.7499 71.827 54.1881 72.1033 53.8158H72.1292V54.6054H73.2391C73.216 54.4254 73.1901 54.1035 73.1901 53.4094V50.8866C73.1901 49.2243 72.4445 48.3624 70.602 48.3624C69.7815 48.3624 69.0718 48.6011 68.4817 48.9365L68.545 49.8925V49.8925Z" fill="#FEFEFE"/>
<path fill-rule="evenodd" clip-rule="evenodd" d="M74.1548 54.75H75.528V45.625H74.1548V54.75Z" fill="#FEFEFE"/>
<path fill-rule="evenodd" clip-rule="evenodd" d="M88.7134 46.0688C87.9818 45.8152 87.4156 45.625 86.1293 45.625C83.4446 45.625 81.4785 47.4333 81.4785 50.1508C81.4785 52.9561 83.3296 54.75 86.1178 54.75C87.4903 54.75 88.3239 54.5238 88.8025 54.3595V49.7718H85.6881V50.8064H87.542V53.4864C87.2259 53.5498 87.0002 53.6391 86.1293 53.6391C84.3012 53.6391 82.8151 52.2602 82.8151 50.1868C82.8151 48.2157 84.1632 46.7373 86.1925 46.7373C87.3279 46.7373 87.9962 46.9391 88.6127 47.3454L88.7134 46.0688" fill="#FEFEFE"/>
<path fill-rule="evenodd" clip-rule="evenodd" d="M89.7183 54.7499H90.9267V51.9106C90.9267 50.3451 91.6342 49.3656 92.7108 49.3656C92.9188 49.3656 93.1605 49.3907 93.3802 49.4758V48.4461C93.1224 48.3987 92.9452 48.3624 92.5834 48.3624C91.8905 48.3624 91.1962 48.827 90.8754 49.4758H90.8476V48.5089H89.7183V54.7499" fill="#FEFEFE"/>
<path fill-rule="evenodd" clip-rule="evenodd" d="M95.5298 51.5562C95.5298 50.3957 96.2589 49.272 97.5045 49.272C98.7389 49.272 99.468 50.3957 99.468 51.5562C99.468 52.6444 98.8628 53.8403 97.5045 53.8403C96.135 53.8403 95.5298 52.6444 95.5298 51.5562M94.2954 51.5562C94.2954 53.3031 95.6044 54.7499 97.5046 54.7499C99.3935 54.7499 100.704 53.3031 100.704 51.5562C100.704 49.7029 99.4188 48.3624 97.5046 48.3624C95.5805 48.3624 94.2954 49.7029 94.2954 51.5562" fill="#FEFEFE"/>
<path fill-rule="evenodd" clip-rule="evenodd" d="M107.113 48.3624H105.967V51.2506C105.967 52.7673 105.383 53.8193 104.079 53.8193C103.081 53.7593 102.766 53.0477 102.766 51.5925V48.3624H101.62V52.0696C101.62 53.7467 102.339 54.7499 103.943 54.7499C104.81 54.7499 105.638 54.3216 105.978 53.6128H106.003V54.6034H107.113V48.3624" fill="#FEFEFE"/>
<path fill-rule="evenodd" clip-rule="evenodd" d="M112.389 51.6656C112.412 52.662 111.936 54.0705 110.792 54.0705C109.592 54.0705 109.093 52.7615 109.093 51.7026C109.093 50.5172 109.651 49.3105 110.805 49.3105C111.959 49.3105 112.412 50.5172 112.389 51.6656M108.028 57.4874H109.093V53.998H109.116C109.444 54.5822 110.022 55.0186 111.041 55.0186C112.786 55.0186 113.521 53.3243 113.521 51.5789C113.521 49.8705 112.706 48.3624 111.029 48.3624C110.009 48.3624 109.352 48.9352 109.071 49.41H109.048V48.5117H108.028V57.4874" fill="#FEFEFE"/>
<path fill-rule="evenodd" clip-rule="evenodd" d="M114.437 50.6422C114.437 51.9011 115.458 52.9249 116.724 52.9249C117.985 52.9249 119.014 51.9011 119.014 50.6422C119.014 49.3847 117.985 48.3624 116.724 48.3624C115.458 48.3624 114.437 49.3847 114.437 50.6422V50.6422ZM114.854 50.6422C114.854 49.5379 115.653 48.6825 116.734 48.6825C117.793 48.6825 118.594 49.5379 118.594 50.6422C118.594 51.7479 117.793 52.6018 116.734 52.6018C115.653 52.6018 114.854 51.7479 114.854 50.6422V50.6422ZM116.318 49.7093H116.802C117.065 49.7093 117.318 49.7912 117.318 50.0749C117.318 50.401 117.117 50.4662 116.802 50.4662H116.318V49.7093ZM115.909 51.8859H116.318V50.7847H116.662L117.359 51.8859H117.792L117.081 50.7847C117.47 50.7847 117.726 50.4966 117.726 50.0931C117.726 49.6229 117.44 49.3908 116.869 49.3908H115.909V51.8859V51.8859Z" fill="#FEFEFE"/>
</g>
</svg>
