<svg width="130" height="73" viewBox="0 0 130 73" fill="none" xmlns="http://www.w3.org/2000/svg">
<path fill-rule="evenodd" clip-rule="evenodd" d="M20.6757 24.0263H32.5097C32.5097 24.0263 27.806 26.5907 28.2615 31.8693C28.2615 31.8693 27.1992 36.0924 33.8751 38.5058C33.8751 38.5058 42.0678 40.0135 41.0061 41.8238C41.0061 41.8238 41.9159 41.9747 40.2474 44.3876C40.2474 44.3876 37.2128 46.1978 37.5165 41.3715H27.9578C27.9578 41.3715 26.4405 45.4437 31.4474 48.9126H15.062C13.9997 48.3094 8.23423 48.6107 7.32373 39.7122V24.0263H16.8824V41.9747C16.8824 41.9747 19.1584 44.9908 20.6757 41.8238V24.0263" fill="white"/>
<path fill-rule="evenodd" clip-rule="evenodd" d="M42.2194 33.2266C49.9571 35.9414 50.2608 38.2039 50.2608 38.2039C53.1435 45.4436 46.3157 48.1584 46.3157 48.1584H67.2535V42.4269H58.7572V23.8759H45.5571C45.5571 23.8759 49.8052 24.0263 50.2608 30.6628H41.3089C41.3089 30.6628 41.7644 28.4003 39.3367 28.0984C39.3367 28.0984 34.4817 30.5118 42.2194 33.2266" fill="white"/>
<path fill-rule="evenodd" clip-rule="evenodd" d="M69.833 48.6112H78.3294V23.725H69.833V48.6112Z" fill="white"/>
<path fill-rule="evenodd" clip-rule="evenodd" d="M81.8188 23.725H100.784V29.7577H90.7708V33.2266H99.8733V38.6561H90.7708V48.6106H81.8188V23.725" fill="white"/>
<path fill-rule="evenodd" clip-rule="evenodd" d="M102.453 23.725H121.418V29.7577H111.404V33.2266H120.811V38.6561H111.404V42.276H121.418V48.6106H102.453V23.725" fill="white"/>
</svg>
