<svg width="130" height="73" viewBox="0 0 130 73" fill="none" xmlns="http://www.w3.org/2000/svg">
<path fill-rule="evenodd" clip-rule="evenodd" d="M87.9339 24.6207C87.0688 26.5796 86.265 28.3997 85.4587 30.2257H91.3341C90.1804 28.3238 89.0871 26.5217 87.9339 24.6207M74.8858 50.5609H55.0718C56.315 48.5665 56.9604 46.3631 57.9975 44.2992C61.5308 45.9929 65.0981 45.6733 68.5917 44.2888C72.0053 42.9362 74.5871 40.5674 76.0988 37.1903C79.128 30.4233 77.1877 23.2552 70.1287 18.9518C70.9097 17.0071 71.7013 15.051 72.4775 13.0886C72.6206 12.7273 72.9029 12.8173 73.1578 12.8171C76.8956 12.8135 80.6333 12.8148 84.3711 12.8148C90.9178 12.8148 97.4646 12.821 104.011 12.8021C104.511 12.8008 104.755 12.9442 104.979 13.3976C110.974 25.5284 116.986 37.6503 122.993 49.7745C123.11 50.0112 123.211 50.256 123.357 50.5802H122.633C115.995 50.5802 109.358 50.5724 102.721 50.595C102.197 50.5969 101.92 50.4233 101.648 50.0042C100.54 48.2974 99.386 46.6199 98.2706 44.9176C98.0377 44.562 97.7977 44.4076 97.349 44.4089C91.1874 44.4271 85.0257 44.4269 78.8642 44.4095C78.4101 44.4081 78.1916 44.5571 77.982 44.9465C76.9667 46.8343 75.9151 48.7026 74.8858 50.5609" fill="white"/>
<path fill-rule="evenodd" clip-rule="evenodd" d="M70.4032 12.8378C70.3465 12.9942 70.3162 13.0978 70.2727 13.1958C69.5215 14.8861 68.7686 16.5758 67.991 18.3216C64.092 16.9568 60.3082 17.2996 56.6754 19.13C54.0593 20.4481 51.9731 22.38 50.758 25.0836C48.4586 30.1999 48.2083 37.9551 56.0084 43.4625C54.8888 45.7406 53.7594 48.0252 52.6478 50.3182C52.5151 50.5918 52.3208 50.5808 52.093 50.5808C48.1516 50.5798 44.2102 50.5711 40.2689 50.593C39.8402 50.5955 39.7445 50.3331 39.5942 50.0686C37.7219 46.769 35.8529 43.4674 33.9763 40.1701C33.8449 39.9393 33.7631 39.6674 33.527 39.5066C31.4453 42.7848 30.0232 46.3921 28.3156 49.8555C28.1397 50.2121 27.9844 50.4115 27.5324 50.4103C20.8502 50.3932 14.168 50.3987 7.4858 50.3971C7.33164 50.3971 7.17775 50.3759 6.93115 50.3579C12.2518 37.5854 18.4072 25.2607 24.3607 12.8378C29.4276 12.8378 34.4555 12.8435 39.4834 12.8271C39.882 12.8257 39.9699 13.0701 40.1067 13.3226C41.7295 16.3199 43.3523 19.3169 44.9747 22.3141C45.0813 22.511 45.1489 22.7332 45.3582 22.8893C47.3226 19.7441 49.2931 16.6076 51.2375 13.4551C51.5146 13.0057 51.8041 12.821 52.3535 12.8233C58.1294 12.8468 63.9057 12.8378 69.6819 12.8378H70.4032Z" fill="white"/>
<path fill-rule="evenodd" clip-rule="evenodd" d="M65.7419 29.1384C66.0893 29.2656 66.4134 29.2267 66.644 29.4758C66.6296 29.6718 66.6143 29.8847 66.5952 30.1443C66.8364 30.0268 66.8964 29.7112 67.1782 29.8108C67.5286 29.9336 67.3107 30.5104 67.7676 30.5492C68.2324 29.9721 68.2141 29.8548 67.555 29.6246C67.2638 29.5228 67.0611 29.3394 66.8414 29.1399C66.5439 28.8695 66.1972 28.6004 65.7419 29.1384M69.2344 36.8569C68.9355 36.6917 68.8473 36.3677 68.6821 36.1114C68.1245 35.2459 67.4865 35.0496 66.5916 35.5261C66.3093 35.6764 66.0293 35.6623 65.7351 35.6363C64.8715 35.5601 64.409 35.947 64.3572 36.8087C64.319 37.4441 64.3761 38.0722 64.561 38.6859C64.7093 39.1786 65.0389 39.4329 65.5479 39.4638C66.0312 39.4931 66.3804 39.3347 66.5236 38.8259C66.6469 38.3884 67.0097 38.2638 67.3787 38.3994C67.7578 38.5387 67.6746 38.8956 67.5742 39.2126C67.279 40.1431 67.3034 40.1732 68.2143 40.3239C68.5688 40.3826 68.9676 40.434 69.0642 40.8703C69.1826 41.4052 69.0667 41.9294 68.7227 42.3417C68.478 42.6353 68.1868 42.4069 68.068 42.1621C67.7612 41.5306 67.2358 41.3089 66.5916 41.2526C66.5239 41.2466 66.4295 41.2597 66.3936 41.221C65.3258 40.0717 63.6076 40.5783 62.4305 39.6577C62.0433 39.3549 61.6296 39.1653 61.6321 38.6C61.6325 38.4912 61.6041 38.3636 61.5437 38.2762C60.9577 37.4256 60.2869 36.6466 59.5143 35.8055C59.502 36.4994 60.3435 36.8777 59.8443 37.6549C59.5472 36.9887 59.0419 36.5892 58.8723 35.9249C58.6797 35.171 58.2843 34.5312 57.7036 33.9262C57.1813 33.3822 56.8988 32.4785 57.1461 31.6596C57.3988 30.8225 57.3635 29.8581 58.1028 29.1991C58.2619 29.0574 58.1904 28.8427 58.0709 28.7019C57.429 27.9442 57.2971 27.0298 57.1867 26.0879C57.1014 25.3586 55.747 24.8263 55.0685 24.9005C54.067 25.01 53.4772 25.9061 52.397 26.0794C52.6477 25.7046 52.6432 25.4753 52.4216 25.1717C52.1067 24.7402 52.4688 24.4073 52.8061 24.166C53.1162 23.9443 53.4672 23.7798 53.8039 23.5878C53.8114 23.3718 53.525 23.0742 53.7996 22.9849C54.8495 22.6435 55.2588 21.4055 56.4128 21.1997C56.8844 21.1156 57.302 21.0743 57.7123 21.3279C58.2605 21.6669 58.8119 21.7464 59.4579 21.5717C60.147 21.3853 60.8541 21.4105 61.4142 21.9933C61.5014 22.0842 61.7029 22.2043 61.7552 22.1689C62.5171 21.6532 63.4212 22.5255 64.2135 21.8815C64.4447 21.6937 65.021 22.0806 65.3622 21.6299C65.7044 22.012 65.8178 22.2235 65.3966 22.6661C64.9211 23.1659 64.6265 23.8588 64.3346 24.5045C64.137 24.942 64.3496 25.3564 64.7437 25.6196C65.0032 25.7928 65.2918 25.9463 65.5894 26.0343C66.242 26.2274 66.7849 26.5429 67.144 27.141C67.2059 27.2438 67.2813 27.3852 67.4523 27.3609C67.6798 26.2203 67.05 25.2334 66.8248 24.1793C67.588 23.9871 68.3031 24.2251 68.6264 24.7971C68.7463 25.0092 68.8981 25.1836 69.0833 25.0592C69.5476 24.747 69.7679 25.0683 70.0427 25.3332C70.6594 25.9275 71.308 26.4803 72.0996 26.8388C72.3202 26.9388 72.4621 27.118 72.4631 27.3663C72.4642 27.6402 72.3172 27.8328 72.0699 27.949C71.6961 28.1248 71.2904 28.1685 70.762 28.2384C71.4672 28.5689 71.2574 29.372 71.9052 29.7428C71.9986 29.7428 72.203 29.5418 72.4499 29.7284C72.4162 30.0617 72.1606 30.1741 71.9129 30.2819C71.6674 30.1561 71.871 29.9221 71.7237 29.7762C71.231 30.06 70.7388 30.3476 70.7249 31.0185C70.7177 31.3742 70.2749 31.32 70.1913 31.657C70.0542 32.2105 69.7105 32.7074 69.8603 33.3301C69.9186 33.5722 69.7933 33.84 69.6124 34.0098C68.9088 34.6702 68.8091 35.372 69.3643 36.1774C69.5173 36.3998 69.6027 36.6807 69.2344 36.8569" fill="white"/>
<path fill-rule="evenodd" clip-rule="evenodd" d="M12.1324 59.1848C11.6025 59.1848 11.1324 59.1696 10.6639 59.1904C10.3781 59.2032 10.2764 59.0131 10.15 58.8275C9.52777 57.9148 8.90393 57.0029 8.18493 55.9505V59.156H6.40869V56.2032V53.2093C6.92922 53.2093 7.41807 53.222 7.90597 53.2046C8.20518 53.1938 8.27315 53.4328 8.39319 53.606C9.01853 54.5072 9.63327 55.4159 10.383 56.3006V53.2406H12.1324V53.9333V59.1848Z" fill="white"/>
<path fill-rule="evenodd" clip-rule="evenodd" d="M101.096 59.1336H99.4384C99.4384 58.3882 99.4447 57.6699 99.4358 56.9517C99.4309 56.5542 99.5064 56.0419 98.9039 56.0544C98.3298 56.0664 98.2839 56.5398 98.2859 56.9952C98.289 57.6918 98.2867 58.3886 98.2867 59.1234H96.6186C96.6186 58.4297 96.6322 57.719 96.6134 57.0089C96.6025 56.5981 96.6895 56.049 96.0532 56.0544C95.4798 56.0593 95.428 56.5344 95.4293 56.9903C95.4315 57.6873 95.4299 58.3844 95.4299 59.1215H93.7881V54.987C94.7629 54.7413 95.1867 54.8342 95.3456 55.3238C96.562 54.5122 97.2889 54.5291 98.1074 55.3988C98.2647 55.2753 98.4152 55.1384 98.5832 55.0285C99.6996 54.299 100.97 54.8536 101.08 56.1731C101.161 57.1345 101.096 58.108 101.096 59.1336" fill="white"/>
<path fill-rule="evenodd" clip-rule="evenodd" d="M43.2696 59.162H42.8872H41.6455V54.8624C42.1859 55.0679 42.8763 54.4713 43.2446 55.3066C44.4383 54.5264 45.1488 54.5374 45.9913 55.3928C46.4707 54.9424 47.0248 54.6643 47.7249 54.7786C48.4549 54.8979 48.9037 55.2676 48.9395 56.0045C48.9898 57.0359 48.9522 58.0714 48.9522 59.1334H47.3249C47.3249 58.3654 47.3225 57.6044 47.326 56.8436C47.3278 56.4626 47.3073 56.0664 46.8139 56.0492C46.3149 56.0317 46.1713 56.4206 46.1591 56.8296C46.1367 57.5748 46.1527 58.3213 46.1527 59.0994C45.6047 59.2186 45.0756 59.146 44.4799 59.1516C44.4799 58.3775 44.4797 57.6384 44.4799 56.8992C44.4801 56.5069 44.4988 56.0621 43.9584 56.0505C43.4336 56.0394 43.2891 56.4584 43.2759 56.8906C43.2533 57.6295 43.2696 58.3696 43.2696 59.162" fill="white"/>
<path fill-rule="evenodd" clip-rule="evenodd" d="M37.889 54.9875C37.6161 55.6327 37.2836 56.2113 37.2352 56.881H38.4453C38.2494 56.2143 38.0692 55.6009 37.889 54.9875M34.6006 59.1466C35.2038 57.5354 35.7853 55.9762 36.371 54.4189C36.8269 53.2064 36.8292 53.2074 38.1577 53.2084C38.361 53.2086 38.5643 53.2084 38.8488 53.2084C39.5863 55.1654 40.3287 57.1353 41.101 59.1846C40.4922 59.1846 39.954 59.2145 39.4207 59.1765C38.8468 59.1354 39.1386 58.4851 38.784 58.2303H36.8056C36.3999 59.2649 36.3999 59.2649 34.6006 59.1466" fill="white"/>
<path fill-rule="evenodd" clip-rule="evenodd" d="M85.7568 56.7752C86.2655 56.9198 86.7599 57.0602 87.2484 57.1989C87.1589 58.4744 86.1968 59.2582 84.7121 59.2942C82.8225 59.3398 81.7138 58.3861 81.5173 56.5459C81.3312 54.8032 82.1736 53.4545 83.6253 53.1706C85.461 52.8115 86.7499 53.4324 87.1871 54.9131C86.7959 55.0104 86.4044 55.1014 86.0166 55.2062C85.7382 55.2813 85.5768 55.2121 85.4326 54.9355C85.2274 54.5424 84.8619 54.3701 84.4065 54.4495C83.9489 54.5292 83.6171 54.7634 83.4625 55.2189C83.2749 55.7716 83.3064 56.3374 83.3983 56.8942C83.4806 57.3917 83.7185 57.7819 84.3 57.8395C84.8507 57.8939 85.2753 57.7239 85.5397 57.2215C85.6112 57.0858 85.6743 56.9456 85.7568 56.7752" fill="white"/>
<path fill-rule="evenodd" clip-rule="evenodd" d="M105.205 57.0567C105.215 56.4034 104.963 56.003 104.525 55.9752C104.07 55.9464 103.768 56.3319 103.748 56.969C103.727 57.6217 104.04 58.0874 104.512 58.0442C105.104 57.9899 105.189 57.5377 105.205 57.0567V57.0567ZM102.143 54.903C102.637 54.903 103.086 54.903 103.535 54.903C103.677 55.0265 103.588 55.2052 103.656 55.3824C103.731 55.3384 103.808 55.3056 103.87 55.2547C104.938 54.3774 106.327 54.7942 106.7 56.1199C106.79 56.4426 106.834 56.7879 106.839 57.1234C106.86 58.6917 105.633 59.9656 103.765 58.886V60.7815C103.208 60.9361 102.696 60.8154 102.143 60.8711V54.903Z" fill="white"/>
<path fill-rule="evenodd" clip-rule="evenodd" d="M31.2744 59.1398H29.5928C29.5928 58.383 29.603 57.6459 29.5886 56.9093C29.5811 56.5264 29.5867 56.0745 29.0515 56.0487C28.484 56.0215 28.3342 56.4481 28.3204 56.9093C28.2987 57.6308 28.3146 58.3534 28.3146 59.1186H26.6572V58.8536V53.266C27.2115 53.1592 27.7431 53.216 28.3386 53.2291V55.2466C28.7903 55.1067 29.0767 54.8008 29.5005 54.7626C30.5569 54.6677 31.1818 55.1634 31.266 56.2343C31.2748 56.3468 31.274 56.4602 31.2741 56.5731C31.2747 57.4072 31.2744 58.2412 31.2744 59.1398" fill="white"/>
<path fill-rule="evenodd" clip-rule="evenodd" d="M121.08 57.5349C121.336 56.6553 121.593 55.7756 121.849 54.8971H123.468C122.984 56.2114 122.515 57.4886 122.044 58.765C121.982 58.9337 121.906 59.0977 121.842 59.2659C121.231 60.8746 120.432 61.2709 118.726 60.7912C118.691 60.4699 118.655 60.1395 118.615 59.7765C118.905 59.7909 119.168 59.8322 119.426 59.8109C119.996 59.7638 120.246 59.3536 120.027 58.8286C119.493 57.5455 118.946 56.2675 118.378 54.927H120.124C120.4 55.793 120.677 56.6625 120.954 57.532C120.996 57.5329 121.038 57.5338 121.08 57.5349" fill="white"/>
<path fill-rule="evenodd" clip-rule="evenodd" d="M110.604 57.1232C110.189 57.2683 109.83 57.3908 109.473 57.5195C109.229 57.6075 109.114 57.7837 109.163 58.043C109.217 58.3218 109.422 58.3714 109.67 58.3704C110.331 58.3676 110.611 58.0245 110.604 57.1232M110.676 56.2495C110.404 55.6158 109.854 55.6123 109.541 55.8837C108.919 56.4231 108.326 56.0831 107.651 56.071C107.714 55.4418 108.072 55.1258 108.583 54.9401C109.443 54.628 110.329 54.7023 111.191 54.8707C111.952 55.0194 112.238 55.5449 112.269 56.526C112.296 57.3951 112.188 58.2699 112.389 59.2006C111.799 59.0392 111.096 59.5423 110.654 58.7398C109.991 59.297 109.247 59.4194 108.431 59.1987C107.833 59.0368 107.502 58.6432 107.477 58.0381C107.452 57.4411 107.8 57.075 108.345 56.8886C109.086 56.6355 109.902 56.6496 110.676 56.2495" fill="white"/>
<path fill-rule="evenodd" clip-rule="evenodd" d="M70.5541 57.1285C70.127 57.2835 69.7446 57.403 69.3797 57.5625C69.188 57.6463 69.0764 57.8239 69.1453 58.0567C69.2111 58.2791 69.3613 58.3621 69.5943 58.373C70.281 58.4049 70.6024 58.027 70.5541 57.1285M72.3824 59.231C71.752 59.0149 71.0459 59.57 70.6346 58.7398C69.9527 59.2988 69.1846 59.4371 68.3473 59.1867C67.7872 59.0192 67.4735 58.6408 67.4438 58.0565C67.4149 57.4829 67.7122 57.0926 68.2402 56.9326C68.8859 56.7366 69.552 56.6093 70.2065 56.4405C70.3687 56.3986 70.5935 56.3869 70.5712 56.1277C70.5493 55.8711 70.3526 55.8086 70.1396 55.7823C69.9127 55.7546 69.6427 55.7057 69.4848 55.8713C68.8866 56.4983 68.242 56.0432 67.5803 56.0924C67.7173 55.4256 68.0686 55.0967 68.606 54.9202C69.4532 54.6419 70.3144 54.7061 71.1556 54.872C71.8933 55.0172 72.1714 55.4818 72.2111 56.3237C72.2546 57.2471 72.1033 58.1795 72.3824 59.231" fill="white"/>
<path fill-rule="evenodd" clip-rule="evenodd" d="M53.0631 56.5715C52.9894 56.075 52.8399 55.7301 52.3108 55.748C51.8064 55.7651 51.5189 56.0064 51.5142 56.5715H53.0631ZM51.507 57.4563C51.6736 58.2357 52.0663 58.5458 52.5974 58.222C53.2925 57.7982 53.9332 58.121 54.6193 58.0899C54.0968 59.161 52.4554 59.6588 51.1704 59.173C50.0902 58.7648 49.5477 57.5901 49.8797 56.3785C50.2243 55.1217 51.3885 54.5465 53.0007 54.8364C54.2096 55.0538 54.8483 55.9939 54.7385 57.4563H51.507Z" fill="white"/>
<path fill-rule="evenodd" clip-rule="evenodd" d="M114.926 55.3786C115.185 55.2207 115.386 55.0049 115.67 54.8982C116.805 54.4713 117.698 54.9761 117.838 56.1498C117.868 56.3957 117.861 56.6468 117.862 56.8955C117.865 57.6371 117.863 58.3786 117.863 59.152H116.226C116.09 58.5637 116.198 57.9582 116.166 57.3611C116.153 57.1129 116.161 56.863 116.138 56.6158C116.108 56.2937 115.975 56.0421 115.602 56.0407C115.22 56.0394 114.992 56.2854 114.957 56.6189C114.897 57.201 114.908 57.7909 114.894 58.3775C114.887 58.6224 114.892 58.8676 114.892 59.1486H113.3V54.8501C113.838 55.0791 114.542 54.4647 114.926 55.3786" fill="white"/>
<path fill-rule="evenodd" clip-rule="evenodd" d="M73.2192 54.9161H74.712C74.8965 55.0143 74.6878 55.2762 74.8782 55.4486C75.2468 55.017 75.7201 54.7904 76.2882 54.768C77.1562 54.7336 77.7355 55.2015 77.7725 56.0719C77.8155 57.0836 77.7824 58.0985 77.7824 59.1485H76.1377C76.1377 58.437 76.1442 57.6991 76.1351 56.9614C76.1302 56.5537 76.1533 56.0722 75.5811 56.0506C75.0068 56.0286 74.8958 56.4781 74.8871 56.9366C74.8734 57.6564 74.8835 58.3769 74.8835 59.1417C74.3019 59.2099 73.7761 59.2064 73.2192 59.1452V54.9161Z" fill="white"/>
<path fill-rule="evenodd" clip-rule="evenodd" d="M16.3527 57.005C16.3455 56.3268 16.068 55.9195 15.6022 55.9035C15.0721 55.885 14.7196 56.3382 14.7165 57.0423C14.7135 57.7156 15.044 58.1839 15.522 58.1831C16.0508 58.1821 16.3606 57.7429 16.3527 57.005M15.6147 54.7546C17.0968 54.7818 18.0973 55.7379 18.0495 57.0813C18.0015 58.4304 16.9821 59.3136 15.4948 59.2943C14.0064 59.2749 13.0298 58.3417 13.068 56.9756C13.1058 55.6298 14.1403 54.7275 15.6147 54.7546" fill="white"/>
<path fill-rule="evenodd" clip-rule="evenodd" d="M89.595 57.0604C89.5982 57.7514 89.9089 58.1889 90.3917 58.1817C90.9131 58.1739 91.2342 57.7278 91.2314 57.0147C91.2287 56.3254 90.9202 55.9003 90.4263 55.9052C89.8861 55.9105 89.5916 56.3198 89.595 57.0604M90.4078 54.7557C91.8988 54.741 92.8925 55.6407 92.8974 57.0101C92.9025 58.3488 91.9321 59.2753 90.5031 59.296C88.9791 59.3182 87.9733 58.4593 87.9492 57.1152C87.9238 55.6937 88.8856 54.7707 90.4078 54.7557" fill="white"/>
<path fill-rule="evenodd" clip-rule="evenodd" d="M66.7334 56.256C66.1099 56.2134 65.5007 56.699 64.8849 56.0402C64.5789 55.7129 64.0677 55.858 63.7468 56.243C63.3997 56.6594 63.4083 57.519 63.7609 57.8872C64.1074 58.2491 64.6531 58.3686 64.9028 58.013C65.4046 57.2984 65.9946 57.6338 66.5766 57.6671C66.6629 57.672 66.748 57.6973 66.8354 57.7136C66.4904 58.977 65.4962 59.4937 63.8665 59.2719C62.6164 59.1018 61.8812 58.3079 61.866 57.112C61.8503 55.8796 62.5488 54.9564 63.6301 54.8258C65.0748 54.6512 66.4261 54.7965 66.7334 56.256" fill="white"/>
<path fill-rule="evenodd" clip-rule="evenodd" d="M25.0007 53.1265V54.74C25.2638 54.9418 25.5608 54.7499 25.8395 54.9092V56.0417H25.0787C24.9307 56.6504 24.9894 57.2342 25.0234 57.8057C25.0578 58.3882 25.568 57.9755 25.846 58.1324C25.8854 58.45 25.9265 58.7809 25.9724 59.1515C25.3824 59.3697 24.7973 59.3701 24.2277 59.272C23.7438 59.1888 23.4283 58.8525 23.3914 58.3386C23.3528 57.7992 23.3143 57.2559 23.3388 56.7174C23.3589 56.2742 23.2451 56.0252 22.7437 56.0816V54.944C22.913 54.9083 23.0813 54.8727 23.2983 54.8269C23.1524 53.6128 24.3039 53.7728 25.0007 53.1265" fill="white"/>
<path fill-rule="evenodd" clip-rule="evenodd" d="M57.2893 59.1968H55.6167V54.9829C56.6669 54.7254 57.0553 54.8151 57.1864 55.3415C57.8603 54.6768 58.1433 54.6288 58.976 55.0558C58.8261 55.4017 58.6753 55.7493 58.5282 56.0888C57.6342 56.0396 57.3819 56.2194 57.3013 57.1153C57.241 57.7853 57.2893 58.4652 57.2893 59.1968" fill="white"/>
<path fill-rule="evenodd" clip-rule="evenodd" d="M20.5602 59.1917C20.3677 59.2075 20.2367 59.2266 20.1052 59.2281C19.7244 59.2323 19.3435 59.2294 18.9224 59.2294V54.9525C20.1348 54.7567 20.3422 54.8109 20.4557 55.4053C20.9429 54.7347 21.5345 54.6128 22.2698 55.0338C22.1267 55.3751 21.9812 55.7225 21.8393 56.0611C20.8616 56.0808 20.6283 56.2876 20.5674 57.2832C20.5291 57.9088 20.5602 58.5385 20.5602 59.1917" fill="white"/>
<path fill-rule="evenodd" clip-rule="evenodd" d="M60.965 59.1491H59.3525V54.9561C59.8671 54.8156 60.3954 54.8944 60.965 54.9101V59.1491Z" fill="white"/>
<path fill-rule="evenodd" clip-rule="evenodd" d="M111.9 15.2303C111.895 14.0833 111.014 13.1445 109.932 13.1343C108.828 13.1238 107.921 14.0909 107.931 15.2681C107.942 16.4342 108.794 17.3311 109.899 17.3384C111.03 17.3459 111.904 16.4245 111.9 15.2303M112.337 15.2689C112.329 16.664 111.28 17.7268 109.912 17.7265C108.553 17.7261 107.416 16.5628 107.446 15.2011C107.476 13.8395 108.579 12.7661 109.938 12.7751C111.293 12.7839 112.346 13.878 112.337 15.2689" fill="white"/>
<path fill-rule="evenodd" clip-rule="evenodd" d="M59.4133 53.2261H60.9331C61.0595 53.5804 61.0134 53.9237 60.971 54.3034H59.3718C59.3082 53.9396 59.2596 53.5843 59.4133 53.2261" fill="white"/>
<path fill-rule="evenodd" clip-rule="evenodd" d="M73.8605 28.8623C72.9434 29.138 72.6055 28.8671 72.7554 27.9764C73.7486 28.381 73.7486 28.381 73.8605 28.8623" fill="white"/>
<path fill-rule="evenodd" clip-rule="evenodd" d="M109.461 15.1352C109.835 15.1501 110.165 15.1864 110.357 14.8499C110.44 14.7047 110.433 14.5382 110.319 14.4062C110.076 14.1249 109.777 14.1826 109.461 14.2304V15.1352ZM110.962 16.6245C110.422 16.7421 110.425 16.4059 110.379 16.1212C110.295 15.5961 110.014 15.3811 109.433 15.5483C109.433 15.7863 109.435 16.03 109.432 16.2739C109.429 16.4467 109.477 16.6644 109.194 16.6541C108.951 16.6451 109.005 16.4468 109.004 16.3025C109 15.5172 109.002 14.7317 109.002 13.889C109.667 13.8245 110.33 13.6919 110.772 14.263C111.06 14.6342 110.835 15.0311 110.437 15.3206C110.855 15.6608 110.805 16.1547 110.962 16.6245V16.6245Z" fill="white"/>
</svg>
