<svg width="130" height="73" viewBox="0 0 130 73" fill="none" xmlns="http://www.w3.org/2000/svg">
<path fill-rule="evenodd" clip-rule="evenodd" d="M11.6134 36.4983C11.6252 36.4435 11.5721 36.4062 11.5357 36.4065C11.4977 36.407 11.4563 36.4468 11.4597 36.5085C11.4624 36.557 11.4977 36.5807 11.5237 36.5838C11.5693 36.5892 11.6139 36.5672 11.6134 36.4983M8.69336 28.4472C8.66642 28.6752 8.74661 28.822 8.83723 28.9683C9.03467 29.2865 9.09991 29.6537 9.22462 29.9988C9.35853 30.369 9.43327 30.759 9.60781 31.118C9.69454 31.2964 9.73705 31.505 9.79014 31.698C9.88341 32.0369 10.0017 32.3571 10.1582 32.6711C10.2685 32.8926 10.3441 33.1313 10.407 33.3748C10.5042 33.7511 10.6439 34.1163 10.7483 34.491C10.8609 34.8946 11.0454 35.2745 11.1255 35.6893C11.1627 35.8828 11.3221 36.0468 11.2752 36.2591C11.3346 36.3053 11.3807 36.3469 11.4324 36.3797C11.6173 36.4971 11.7629 36.4653 11.7923 36.2658C11.8204 36.0763 11.8697 35.9271 12.0039 35.7828C12.0914 35.6889 12.0284 35.524 12.072 35.3896C12.2102 34.9639 12.3633 34.542 12.5075 34.1197C12.6291 33.7627 12.7547 33.3983 12.8846 33.0426C12.9667 32.8173 13.1295 32.5847 13.0819 32.315C13.0587 32.1845 13.1865 32.1303 13.2256 32.0268C13.35 31.698 13.4311 31.3587 13.5191 31.0201C13.5616 30.8568 13.6318 30.6958 13.6952 30.5454C13.8767 30.1152 13.9734 29.6621 14.1281 29.2268C14.1955 29.037 14.2848 28.8539 14.3524 28.6607C14.4138 28.4853 14.597 28.4424 14.7882 28.4447C15.423 28.452 16.058 28.4495 16.693 28.4485C17.1909 28.4477 17.6887 28.4423 18.1866 28.4423C18.2474 28.4423 18.3082 28.4628 18.366 28.4734C18.4549 28.7455 18.4745 44.6578 18.3819 45.1064H17.6505H14.8868C14.451 45.1064 14.4427 45.103 14.4423 44.6776C14.4398 42.1911 14.4395 39.7047 14.4384 37.2181C14.4382 36.7482 14.4392 36.2782 14.4356 35.8082C14.4346 35.6917 14.4567 35.5653 14.3625 35.4633C14.2441 35.5609 14.1128 35.8746 14.0398 36.0708C13.89 36.4726 13.8361 36.904 13.608 37.2855C13.5172 37.4369 13.4968 37.6509 13.4425 37.8361C13.3273 38.2294 13.1571 38.5979 13.0149 38.9774C12.8809 39.3355 12.7507 39.7053 12.6528 40.0818C12.5531 40.465 12.3926 40.8324 12.2675 41.2096C12.1419 41.5889 12.0134 41.9681 11.9138 42.3545C11.8707 42.5214 11.7788 42.6674 11.7159 42.8175C11.5209 43.2833 11.4803 43.811 11.1574 44.2246C11.1535 44.5301 10.9073 44.7705 10.9646 45.0966H10.237C10.2559 44.8092 10.0791 44.5819 10.0295 44.3085C10.0008 44.1513 9.9172 43.9791 9.85569 43.8149C9.74686 43.5234 9.67819 43.215 9.56281 42.9367C9.44277 42.6472 9.37893 42.3347 9.22276 42.059C9.0943 41.8319 9.02392 41.5824 8.94825 41.333C8.83272 40.9517 8.68371 40.5805 8.55572 40.2027C8.43474 39.8452 8.3178 39.4864 8.21021 39.1248C8.18592 39.0429 8.16521 38.9703 8.11944 38.8929C7.93866 38.5883 7.84571 38.2463 7.75338 37.9078C7.69904 37.709 7.60483 37.5266 7.54863 37.3263C7.46766 37.0379 7.35462 36.7548 7.27677 36.4622C7.24827 36.3556 7.21417 36.2358 7.06407 36.2525C6.91662 36.2689 6.90199 36.3845 6.90136 36.5005C6.89934 36.8961 6.89841 37.2921 6.89841 37.6879C6.89825 40.0753 6.89856 42.4629 6.89856 44.8503V45.0291C6.62841 45.1226 5.09971 45.146 4.57764 45.0661V28.5062C4.60224 28.4633 4.67339 28.4478 4.7486 28.4477C6.05138 28.4471 7.35431 28.4472 8.69336 28.4472" fill="white"/>
<path fill-rule="evenodd" clip-rule="evenodd" d="M71.2245 36.9648C71.1991 36.6384 71.3243 36.2213 71.0565 35.8605C71.0841 35.5656 71.0005 35.2939 70.9067 35.0173C70.8381 34.8144 70.7881 34.5885 70.7045 34.4062C70.5754 34.1243 70.448 33.832 70.2842 33.5656C70.157 33.3585 69.9756 33.1894 69.7654 33.0511C69.4808 32.8634 69.1059 32.9591 68.8334 32.7418C68.8138 32.726 68.7496 32.7343 68.7301 32.7546C68.5713 32.9192 68.3399 32.8913 68.1503 32.9772C67.4238 33.3068 67.1541 33.9933 66.8583 34.6385C66.7404 34.8955 66.616 35.1975 66.6856 35.5138C66.6929 35.5478 66.692 35.6007 66.6711 35.621C66.4631 35.8243 66.5599 36.0823 66.5392 36.3182C66.5285 36.4408 66.5754 36.6052 66.5118 36.6794C66.3245 36.8983 66.3838 37.1429 66.3809 37.38C66.3734 38.0102 66.377 38.6407 66.3792 39.2709C66.3796 39.3814 66.3522 39.5269 66.4105 39.5958C66.5947 39.8142 66.5243 40.0594 66.5383 40.2974C66.5448 40.4077 66.5129 40.5492 66.5696 40.6218C66.6995 40.7885 66.6864 40.9645 66.6848 41.1484C66.6839 41.259 66.7284 41.3602 66.755 41.4645C66.8198 41.717 66.9603 41.9385 67.0077 42.2001C67.0464 42.413 67.1538 42.6224 67.3188 42.7847C67.4669 42.9302 67.6208 43.0701 67.7654 43.2192C67.9829 43.4436 68.2176 43.6181 68.5492 43.6506C68.8619 43.6816 69.14 43.6645 69.4436 43.5283C69.9398 43.3054 70.2289 42.9015 70.5421 42.5048C70.5752 42.463 70.6012 42.4179 70.5913 42.3724C70.5376 42.1288 70.751 41.9839 70.8149 41.783C70.8378 41.7105 70.9024 41.6413 70.8996 41.5535C70.8885 41.2104 71.1359 40.9082 71.0589 40.5542C71.0543 40.5336 71.0652 40.5009 71.0807 40.4857C71.2747 40.2963 71.2245 40.0528 71.2269 39.8237C71.2304 39.4899 71.2222 39.1562 71.2222 38.8226C71.2222 38.7133 71.2046 38.6001 71.274 38.5001C71.4011 38.3175 71.4003 38.1424 71.2725 37.9514C71.2231 37.8775 71.2293 37.7611 71.2264 37.6638C71.2202 37.4537 71.2245 37.2436 71.2245 36.9648M74.9142 38.1882C74.9145 38.4853 74.9176 38.7823 74.9134 39.0792C74.9104 39.2969 74.9645 39.5263 74.7848 39.7125C74.7561 39.7422 74.7468 39.8102 74.7568 39.8542C74.8376 40.2113 74.6252 40.5209 74.5782 40.858C74.541 41.1238 74.4407 41.4158 74.2864 41.6669C74.112 41.9503 74.001 42.2721 73.8227 42.548C73.6667 42.7899 73.5567 43.0814 73.3129 43.2546C73.0818 43.4187 73.0714 43.7246 72.8427 43.8896C72.6264 44.046 72.5051 44.3302 72.1945 44.3607C72.0723 44.6003 71.7942 44.6361 71.6115 44.7997C71.425 44.967 71.2073 45.0763 70.9485 45.1209C70.76 45.1531 70.563 45.2221 70.3989 45.307C70.2183 45.4003 70.05 45.4166 69.8655 45.4136C69.6774 45.4108 69.5052 45.4645 69.3242 45.5084C68.953 45.5983 68.5633 45.6079 68.1879 45.4909C68.1062 45.4653 68.0339 45.4159 67.9417 45.4178C67.297 45.4317 66.7666 45.1313 66.2035 44.8633C65.5064 44.5317 65.0377 43.972 64.4948 43.4777C64.3724 43.3664 64.404 43.2141 64.2843 43.1104C63.7628 42.6583 63.5974 41.9918 63.2864 41.4135C63.1227 41.1093 63.0548 40.7707 62.963 40.4381C62.8688 40.0966 62.8435 39.7652 62.8354 39.4224C62.8347 39.3856 62.8382 39.3439 62.823 39.3127C62.5307 38.7128 62.7395 38.0735 62.6735 37.4563C62.6556 37.2884 62.8717 37.2042 62.8325 37.022C62.7462 36.6213 62.948 36.2555 63.012 35.8766C63.0498 35.6528 63.1778 35.4043 63.2625 35.1744C63.3625 34.9028 63.4509 34.624 63.5883 34.3695C63.8203 33.9396 64.0915 33.5356 64.3943 33.1469C64.6514 32.8168 64.8889 32.4761 65.226 32.2226C65.8299 31.7684 66.4353 31.3305 67.2059 31.1627C67.5256 31.093 67.8345 31.0411 68.1582 31.0481C68.3299 31.0518 68.5048 31.0692 68.6497 30.9334C68.7277 30.8603 68.8325 30.8736 68.9337 30.8986C69.2571 30.9781 69.5927 30.9969 69.9158 31.0569C70.4126 31.149 70.9224 31.2199 71.3714 31.5199C71.5975 31.671 71.8087 31.8597 72.0782 31.9588C72.2865 32.0353 72.4214 32.2413 72.5735 32.3925C72.7547 32.5729 72.947 32.7481 73.1247 32.9346C73.3391 33.1597 73.4611 33.4411 73.6485 33.6828C73.8664 33.9637 74.0594 34.2757 74.2034 34.6155C74.2928 34.8261 74.3331 35.0501 74.4352 35.2599C74.5624 35.5212 74.5722 35.834 74.732 36.0967C74.777 36.1706 74.7415 36.2905 74.7518 36.3884C74.7677 36.541 74.7097 36.7097 74.876 36.8289C74.9522 36.8834 74.912 36.9912 74.9126 37.0747C74.9156 37.4458 74.9139 37.8172 74.9142 38.1882" fill="white"/>
<path fill-rule="evenodd" clip-rule="evenodd" d="M42.6392 37.802C42.7791 37.6086 42.7436 37.4693 42.7438 37.3396C42.7464 35.4837 42.7458 33.628 42.7458 31.7722C42.7458 31.6979 42.7468 31.6236 42.7443 31.5495C42.7396 31.4145 42.8031 31.3351 42.9391 31.3343C43.4723 31.3312 44.0056 31.3331 44.5302 31.3331C44.6172 31.6455 44.623 44.7196 44.5356 45.1045C43.9139 45.1045 43.2822 45.1052 42.6507 45.1035C42.5738 45.1032 42.4972 45.0803 42.4674 45.0006C42.3647 44.7255 42.1468 44.5156 42.0196 44.2682C41.8709 43.9791 41.6746 43.7037 41.577 43.3959C41.4491 42.9932 41.1583 42.6938 40.9798 42.3258C40.7111 41.7716 40.4067 41.2373 40.0783 40.7136C39.8004 40.2699 39.6173 39.7687 39.3563 39.3136C39.0463 38.773 38.7416 38.2351 38.5018 37.6569C38.4162 37.4506 38.3455 37.1811 38.0915 37.0671C38.0549 36.7798 37.8383 36.5767 37.7336 36.3187C37.6489 36.11 37.6048 35.8507 37.3033 35.7337C37.2512 36.18 37.2889 36.6167 37.2815 37.0506C37.2739 37.4958 37.2795 37.9413 37.2794 38.3866C37.2794 38.8322 37.2792 39.2775 37.2792 39.7229C37.2791 40.1684 37.2792 40.6137 37.2792 41.0591V42.3953V43.7315V45.1065C36.7153 45.1065 36.1843 45.1102 35.6537 45.104C35.5061 45.1023 35.4318 45.0004 35.428 44.8591C35.4243 44.7108 35.4349 44.5624 35.4349 44.4139C35.434 40.1582 35.4326 35.9023 35.4316 31.6464C35.4316 31.573 35.438 31.4996 35.4433 31.3913C35.8337 31.3199 36.2265 31.3667 36.6156 31.3588C37.0263 31.3504 37.4373 31.3568 37.8482 31.3568H39.0595C39.3769 31.9862 39.8161 32.5863 40.115 33.2671C40.2756 33.6323 40.5727 33.9227 40.7299 34.3004C40.8497 34.5879 41.0245 34.8521 41.1363 35.1478C41.2125 35.3495 41.4077 35.4761 41.4938 35.6902C41.6427 36.0606 41.8331 36.4178 42.038 36.7617C42.2336 37.0904 42.4307 37.4195 42.6392 37.802" fill="white"/>
<path fill-rule="evenodd" clip-rule="evenodd" d="M26.4346 45.0905C26.3522 45.0952 26.2781 45.1033 26.204 45.1035C25.719 45.1047 25.234 45.1041 24.7502 45.1041C24.6222 44.9613 24.6683 44.7934 24.6681 44.6389C24.6653 41.2242 24.6657 37.8098 24.6653 34.3952C24.6653 33.5044 24.6643 32.6136 24.6663 31.7229C24.6666 31.6139 24.6431 31.502 24.6862 31.3996C24.7599 31.3265 24.8464 31.3359 24.9344 31.3361C25.9677 31.3383 27.0011 31.3468 28.0342 31.3318C28.2416 31.3288 28.3695 31.4019 28.4497 31.561C28.7463 32.1494 29.1309 32.687 29.4179 33.2852C29.5702 33.6025 29.6661 33.9684 29.9445 34.2387C30.0961 34.3861 30.1885 34.615 30.2543 34.8237C30.3786 35.2175 30.6363 35.5441 30.7747 35.933C30.8395 36.1154 31.0385 36.2491 31.1269 36.4528C31.2851 36.8172 31.5054 37.1553 31.6551 37.5223C31.7117 37.6615 31.7952 37.7339 31.9155 37.8288C32.009 37.6952 31.9805 37.5469 31.9806 37.4084C31.9823 35.5403 31.9816 33.6722 31.9816 31.804V31.4098C32.3663 31.3308 33.4944 31.341 33.7862 31.4212C33.8429 31.5322 33.8226 31.6581 33.8228 31.7785C33.8228 36.0095 33.8215 40.2406 33.819 44.4716C33.8187 45.1205 33.8689 45.1018 33.1908 45.1027C32.8172 45.1031 32.4435 45.0943 32.0703 45.1059C31.8625 45.1124 31.7586 44.9987 31.6797 44.8384C31.6583 44.7954 31.6705 44.7267 31.6404 44.6988C31.2015 44.2922 31.0878 43.6983 30.7834 43.2129C30.6349 42.9757 30.5218 42.7168 30.3498 42.4824C30.1924 42.2685 30.1013 42.0021 29.9621 41.7661C29.7802 41.4586 29.6493 41.1271 29.4299 40.8333C29.2208 40.553 29.0747 40.2197 28.9379 39.8945C28.7463 39.4392 28.403 39.0728 28.218 38.6144C28.1265 38.3873 28.0058 38.1689 27.8749 37.961C27.4387 37.2683 27.115 36.5167 26.7183 35.8036C26.6939 35.7598 26.6665 35.7194 26.6068 35.7287C26.5026 35.7528 26.5202 35.84 26.5188 35.9076C26.5126 36.2042 26.5109 36.5011 26.5107 36.7979C26.5106 39.4329 26.5114 42.068 26.5104 44.7031C26.5104 44.824 26.5371 44.9514 26.4346 45.0905" fill="white"/>
<path fill-rule="evenodd" clip-rule="evenodd" d="M86.379 34.8385C86.3112 34.9408 86.3001 35.0267 86.3069 35.1137C86.3264 35.3637 86.1002 35.5519 86.1344 35.8047C85.9605 35.9024 85.9697 36.071 85.9912 36.2264C86.0173 36.4156 85.8071 36.5151 85.8373 36.7019C85.8892 37.02 85.6016 37.2804 85.6731 37.6058C85.6784 37.6295 85.643 37.6736 85.6156 37.6908C85.5093 37.757 85.5281 37.8625 85.53 37.957C85.5357 38.243 85.3931 38.4917 85.302 38.7453C85.2363 38.9284 85.2071 39.0592 85.3218 39.2208C86.0106 39.2208 86.6948 39.2248 87.3788 39.219C87.6739 39.2163 87.7432 39.06 87.637 38.7795C87.5283 38.4926 87.3548 38.2218 87.3703 37.8961C87.3723 37.8498 87.3547 37.7998 87.3355 37.7561C87.1442 37.3185 86.9472 36.883 86.9168 36.3959C86.9131 36.3371 86.8916 36.2722 86.8585 36.2234C86.7319 36.0382 86.6713 35.8012 86.6537 35.6125C86.6261 35.3186 86.5245 35.0834 86.379 34.8385M81.743 45.1049C81.7213 44.8507 81.8133 44.6328 81.8856 44.4393C82.0782 43.9238 82.2358 43.4057 82.2994 42.8598C82.318 42.6999 82.4436 42.5942 82.4899 42.4352C82.6205 41.9868 82.6316 41.4999 82.891 41.0897C82.9097 41.0601 82.9235 41.0168 82.9168 40.9846C82.8642 40.7261 82.9972 40.5072 83.0791 40.2838C83.2376 39.8519 83.319 39.3985 83.4856 38.967C83.5737 38.738 83.5776 38.4646 83.6693 38.2258C83.8375 37.788 83.8604 37.3058 84.091 36.8878C84.1408 36.7974 84.1263 36.6954 84.1294 36.5967C84.1324 36.5005 84.1134 36.3979 84.2211 36.3334C84.2764 36.3001 84.3001 36.2388 84.3013 36.1738C84.3074 35.8156 84.5307 35.5013 84.5649 35.1739C84.6176 34.6705 84.9537 34.2544 84.9302 33.745C85.094 33.5646 85.0073 33.2883 85.1776 33.1083C85.2078 33.0762 85.2253 33.0193 85.225 32.9739C85.223 32.6392 85.3539 32.3442 85.4925 32.0502C85.5362 31.9575 85.5213 31.8564 85.5263 31.7581C85.5403 31.477 85.65 31.357 85.9328 31.355C86.6789 31.3498 87.4252 31.351 88.1714 31.3595C88.4546 31.3628 88.7417 31.316 89.0377 31.3987C89.0649 31.7189 89.1799 32.0066 89.3426 32.2782C89.4477 32.4538 89.3667 32.6643 89.4561 32.8525C89.6013 33.1584 89.6804 33.4926 89.8011 33.8097C89.885 34.0303 89.9037 34.2998 89.9741 34.5443C90.0468 34.7965 90.1471 35.0411 90.215 35.2914C90.2832 35.5428 90.4269 35.7693 90.4277 36.0476C90.4285 36.2834 90.5571 36.5049 90.6186 36.736C90.6974 37.0326 90.8348 37.3104 90.8892 37.6227C90.9446 37.9413 91.051 38.2594 91.1874 38.5536C91.3905 38.992 91.4391 39.4697 91.5961 39.9179C91.744 40.3399 91.9288 40.7546 92.021 41.1885C92.082 41.4759 92.2457 41.7348 92.244 42.0334C92.243 42.1976 92.359 42.3171 92.4089 42.4592C92.5625 42.8978 92.627 43.3597 92.8084 43.7939C92.9101 44.0372 92.9706 44.3233 93.0609 44.5778C93.1215 44.7484 93.1589 44.8902 93.1279 45.0829H89.5537C89.362 44.7512 89.246 44.3939 89.1473 44.0287C89.0466 43.6549 88.9343 43.2843 88.8326 42.9106C88.8141 42.8425 88.7769 42.8061 88.719 42.7773C88.6881 42.762 88.633 42.7318 88.636 42.7207C88.7506 42.2872 88.3593 41.9623 88.3864 41.5422C88.4002 41.3258 88.2844 41.2366 88.0663 41.2074C87.9928 41.1975 87.9173 41.2019 87.8425 41.2018C86.971 41.2013 86.0997 41.2006 85.2281 41.2013C84.7526 41.2015 84.647 41.2835 84.5276 41.7214C84.4338 42.0653 84.3906 42.4224 84.2349 42.7504C84.2008 42.8221 84.2229 42.9207 84.2215 43.0069C84.2202 43.0793 84.2464 43.1583 84.1853 43.2184C83.963 43.4365 83.9742 43.7317 83.93 44.0049C83.9138 44.104 83.9012 44.1999 83.8514 44.2857C83.7628 44.4385 83.715 44.5972 83.703 44.7763C83.6879 45.0023 83.5923 45.0992 83.3866 45.1023C82.8401 45.11 82.2932 45.1049 81.743 45.1049" fill="white"/>
<path fill-rule="evenodd" clip-rule="evenodd" d="M60.4148 34.9411C60.3097 34.7214 60.1976 34.4612 60.0634 34.2131C59.8538 33.8262 59.564 33.4936 59.2065 33.2448C58.8984 33.0303 58.521 32.9826 58.1493 33.0609C57.8767 33.1183 57.4237 33.714 57.3971 34.0115C57.3915 34.0728 57.4234 34.1521 57.3948 34.1942C57.1959 34.4871 57.34 34.7719 57.3999 35.0594C57.41 35.1072 57.4029 35.1745 57.4324 35.2002C57.7347 35.4628 57.959 35.8007 58.3181 36.014C58.6085 36.1866 58.8729 36.3922 59.1886 36.5354C59.344 36.6058 59.5007 36.7283 59.6579 36.827C60.2237 37.1824 60.868 37.4298 61.3154 37.9583C61.4087 38.0684 61.5438 38.138 61.5673 38.3081C61.5823 38.4143 61.6844 38.4877 61.757 38.5724C61.9592 38.8085 62.021 39.1156 62.1216 39.4012C62.3477 40.0424 62.2748 40.7078 62.277 41.3667C62.2779 41.6329 62.2792 41.888 62.1633 42.1546C62.0726 42.3631 62.0478 42.6148 61.9841 42.8469C61.8862 43.2037 61.726 43.5196 61.5064 43.8082C61.3679 43.9902 61.2701 44.1939 61.1036 44.3657C60.767 44.7131 60.3849 44.9948 59.9556 45.1914C59.688 45.314 59.4029 45.4653 59.0757 45.4165C58.9557 45.3986 58.8293 45.4006 58.7302 45.5069C58.6655 45.5766 58.5674 45.5614 58.4819 45.556C58.1172 45.5328 57.7361 45.6456 57.3932 45.4266C57.3563 45.4032 57.2959 45.4157 57.2464 45.412C56.6232 45.3644 56.0791 45.1188 55.5687 44.7729C55.3353 44.6145 55.1201 44.4436 54.911 44.253C54.6419 44.008 54.485 43.6998 54.3082 43.4004C54.2365 43.2789 54.1251 43.2003 54.0261 43.0585C54.0261 42.9825 54.0294 42.8727 54.0255 42.7633C54.018 42.556 54.0814 42.402 54.3101 42.3586C54.3579 42.3495 54.4269 42.3408 54.4456 42.3086C54.6335 41.9839 55.0201 41.9058 55.2633 41.6428C55.5599 41.3224 55.763 41.3851 55.9293 41.7956C56.1687 42.3871 56.5617 42.8673 57.0421 43.2815C57.0785 43.313 57.1227 43.3549 57.1651 43.3571C57.6691 43.3835 58.1843 43.4653 58.636 43.147C58.7854 43.0417 58.9258 42.915 58.9032 42.7044C58.8936 42.6136 58.9233 42.5499 58.9672 42.4699C59.105 42.2187 59.0952 41.9284 59.0065 41.6803C58.8606 41.2727 58.6192 40.8792 58.2595 40.6472C57.8946 40.412 57.5419 40.1512 57.1542 39.9434C56.9477 39.8329 56.7467 39.6834 56.5463 39.5473C56.2805 39.367 56.0372 39.1509 55.7401 39.0182C55.6845 38.9934 55.6166 38.9928 55.5875 38.9267C55.4832 38.691 55.272 38.5385 55.0871 38.3889C54.7522 38.1184 54.636 37.7383 54.4703 37.3812C54.2414 36.888 54.1476 36.3673 54.1717 35.8218C54.1885 35.4391 54.1465 35.0519 54.1869 34.6728C54.2267 34.3021 54.2861 33.9249 54.4393 33.5783C54.5211 33.3933 54.674 33.2382 54.6224 33.0094C54.6039 32.9269 54.6707 32.875 54.7293 32.8278C54.9331 32.6628 55.0667 32.4453 55.2043 32.227C55.3681 31.9671 55.5551 31.7248 55.8617 31.6081C56.0543 31.5348 56.1617 31.3459 56.3802 31.2786C56.7559 31.1625 57.1167 31.0224 57.5217 31.044C57.6847 31.0529 57.87 31.1038 58.0006 30.925C58.0576 30.847 58.1711 30.8519 58.2387 30.9095C58.4395 31.0804 58.6664 31.066 58.9043 31.0422C59.0756 31.0248 59.2447 31.0204 59.4026 31.1349C59.5497 31.2419 59.7448 31.2092 59.9204 31.2891C60.5755 31.588 61.0269 32.0766 61.4264 32.6507C61.5957 32.8942 61.7378 33.1484 61.8843 33.4024C62.0466 33.6838 62.0189 33.8896 61.7805 34.0809C61.5474 34.268 61.3468 34.4874 61.1384 34.6987C60.952 34.8875 60.7833 35.0973 60.4148 34.9411" fill="white"/>
<path fill-rule="evenodd" clip-rule="evenodd" d="M100.163 28.6353V42.8053H104.204V45.0612C104.085 45.1191 103.984 45.1013 103.886 45.1013C101.471 45.1021 99.0563 45.1018 96.6417 45.1018C96.5793 45.1018 96.517 45.1044 96.455 45.1007C96.216 45.0863 96.1732 45.0491 96.1631 44.8155C96.1556 44.6429 96.1649 44.4694 96.1649 44.2963C96.1643 39.2375 96.1638 34.1788 96.1631 29.12C96.1631 29.0457 96.1592 28.9712 96.164 28.8974C96.1805 28.6537 96.2316 28.5965 96.4846 28.5957C97.6422 28.5924 98.7997 28.5949 99.9574 28.5972C100.005 28.5972 100.053 28.6143 100.163 28.6353" fill="white"/>
<path fill-rule="evenodd" clip-rule="evenodd" d="M46.0088 45.0496V31.3763H53.2677C53.3269 31.6206 53.2937 31.8534 53.2962 32.0828C53.2996 32.392 53.3009 32.7013 53.2948 33.0106C53.289 33.3078 53.2456 33.3502 52.9431 33.351C51.8726 33.3536 50.8021 33.3517 49.7317 33.3539C49.5978 33.3542 49.4556 33.322 49.3215 33.4367V37.0838H53.0991C53.1852 37.305 53.1442 37.5031 53.1481 37.6962C53.1547 38.0299 53.1512 38.3641 53.1475 38.6979C53.1433 39.0643 53.1315 39.0764 52.7702 39.0768C51.7745 39.0779 50.7788 39.0753 49.7829 39.0781C49.6372 39.0784 49.4816 39.0403 49.3281 39.1646V43.1222H53.4555C53.4555 43.7418 53.4555 44.3072 53.4555 44.8727C53.4555 45.0298 53.363 45.0919 53.2188 45.0971C53.0944 45.1014 52.9698 45.1039 52.8454 45.1039C50.717 45.1036 48.5885 45.1035 46.46 45.1004C46.3258 45.1002 46.1874 45.1233 46.0088 45.0496" fill="white"/>
<path fill-rule="evenodd" clip-rule="evenodd" d="M118.879 45.0797V31.3773H126.017C126.017 31.6481 126.017 31.9152 126.017 32.1823C126.017 32.5163 126.021 32.8504 126.015 33.1841C126.009 33.477 125.99 33.4944 125.688 33.4948C124.63 33.4967 123.572 33.4944 122.514 33.4964C122.392 33.4967 122.267 33.4738 122.125 33.5344V37.0824H125.87C125.854 37.7693 125.896 38.4145 125.841 39.0859H122.121V43.1126H126.325C126.317 43.7874 126.347 44.421 126.301 45.0797H118.879Z" fill="white"/>
<path fill-rule="evenodd" clip-rule="evenodd" d="M110.038 31.4266C110.149 31.3323 110.278 31.3583 110.4 31.3582C112.603 31.3571 114.806 31.3569 117.009 31.3582C117.343 31.3583 117.352 31.3673 117.352 31.682C117.353 32.1521 117.353 32.6221 117.348 33.0921C117.344 33.4404 117.287 33.4948 116.932 33.4955C115.886 33.497 114.841 33.495 113.795 33.4976C113.674 33.4979 113.548 33.4687 113.413 33.5397V37.0826H117.17C117.206 37.7653 117.214 38.4076 117.131 39.0712H113.398C113.387 41.0768 113.399 43.0603 113.391 45.0028C113.284 45.1165 113.194 45.1003 113.108 45.1003C112.25 45.1003 111.391 45.1 110.532 45.0983C110.012 45.0973 110.003 45.0884 110.003 44.5511C110.005 42.7206 110.009 40.8901 110.009 39.0597C110.009 36.6478 110.006 34.2359 110.006 31.8241C110.006 31.69 109.987 31.5526 110.038 31.4266" fill="white"/>
<path fill-rule="evenodd" clip-rule="evenodd" d="M80.6771 45.0802H77.3853C77.2623 44.9052 77.3112 44.7136 77.3109 44.5353C77.3067 42.0987 77.3081 39.6622 77.3082 37.2258C77.3082 36.0755 77.3086 34.9252 77.3087 33.775V33.3696C76.3225 33.3232 75.3581 33.3695 74.4041 33.3438C74.2673 33.0775 74.2318 32.2162 74.3169 31.4013C74.6304 31.3388 83.3612 31.3391 83.6641 31.4018C83.7343 32.1226 83.6968 33.086 83.5739 33.3608H80.6858V37.2788C80.6858 38.5774 80.6877 39.876 80.6853 41.1747C80.6831 42.4692 80.6957 43.7639 80.6771 45.0802" fill="white"/>
<path fill-rule="evenodd" clip-rule="evenodd" d="M105.509 31.3777H108.614C108.716 31.4949 108.682 31.6111 108.682 31.7179C108.684 35.998 108.683 40.278 108.683 44.5581C108.683 44.6568 108.682 44.7559 108.68 44.8548C108.677 45.0183 108.602 45.1042 108.428 45.1029C107.482 45.0961 106.537 45.0929 105.591 45.0865C105.569 45.0865 105.548 45.067 105.526 45.0565C105.454 44.7762 105.436 31.8029 105.509 31.3777" fill="white"/>
<path fill-rule="evenodd" clip-rule="evenodd" d="M20 31.3762H23.1387C23.1373 35.9524 23.1404 40.5086 23.1368 45.084H20.0408C19.9377 44.9355 19.9687 44.7583 19.9687 44.5916C19.9687 40.4219 19.9711 36.2521 19.9743 32.0824C19.9745 31.8609 19.9485 31.6378 20 31.3762" fill="white"/>
</svg>
