<svg width="60" height="60" viewBox="0 15 60 30" fill="none" xmlns="http://www.w3.org/2000/svg">
<g>
<path fill-rule="evenodd" clip-rule="evenodd" d="M31.1095 16.2885C33.6338 16.2885 36.0708 16.6602 38.3713 17.3481C37.8931 17.6663 37.2795 18.0331 36.4665 18.4396C33.5013 19.9251 33.1095 20.0455 31.7938 20.6975C30.9848 21.0992 30.3142 21.529 29.7702 21.9317C29.7555 21.9162 29.7457 21.9074 29.7457 21.9074C29.7457 21.9074 29.1929 21.202 28.8345 20.9478C28.4762 20.6926 27.7908 20.5568 27.5493 20.4355C27.079 20.2007 27.0181 20.0387 26.3593 19.8339C25.782 19.6544 25.4314 19.7524 25.0485 19.6826C24.7481 19.6263 24.3524 19.4623 23.8614 19.5137C23.5836 19.5419 23.1467 19.7369 22.8354 19.7631C22.4368 19.7961 22.0342 19.6399 21.7367 19.6923C21.4294 19.7456 21.018 20.0736 20.5349 20.1638C20.1972 20.2259 19.8201 20.1541 19.5698 20.2133C19.3204 20.2735 18.7961 20.7188 18.5437 20.81C18.2914 20.8993 17.7141 20.9478 17.7543 21.4407C17.7897 21.8851 18.7715 21.9841 18.7715 21.9841C18.7715 21.9841 22.9974 22.5556 27.0161 24.632C26.429 25.3442 25.8713 26.1476 25.347 26.9927C25.0308 26.8976 24.6018 26.7647 24.3259 26.7375C23.8889 26.6929 23.4402 26.9024 23.1702 26.8918C22.5733 26.8665 22.4967 26.7336 21.8162 26.8491C21.3008 26.9374 21.2527 27.0907 20.801 27.2168C20.5084 27.2973 20.1304 27.1683 19.5933 27.3391C19.3361 27.4206 18.9129 27.8669 18.636 27.995C18.4141 28.0978 18.0008 28.1027 17.6974 28.3239C17.4578 28.4995 17.4745 28.7217 16.9924 29.0147C16.6841 29.203 16.4465 29.1428 16.1225 29.4494C15.9467 29.6144 15.8898 29.9084 15.3674 30.3042C14.6684 30.835 14.7734 31.258 14.8382 31.4152C15.0257 31.8742 16.0753 31.4181 16.0753 31.4181C16.0753 31.4181 19.4922 30.2674 23.6641 30.0529C22.6115 32.1817 21.6749 34.2416 21.1849 35.5729C21.0641 35.9028 20.964 36.187 20.8835 36.418C20.801 36.3947 20.8197 36.4063 20.801 36.3947C20.5349 36.2307 20.5339 35.8562 20.6842 35.1343C20.8403 34.3794 21.4304 32.9415 21.611 32.5592H21.3744C21.1584 32.924 20.5663 34.0078 20.421 34.3144C20.2276 34.72 20.15 34.8374 19.6856 35.797C19.6071 35.959 19.3272 36.4296 19.0916 36.418C18.91 36.4092 18.7028 36.286 18.7028 36.1055C18.7028 36.0153 18.8344 35.829 18.8815 35.7592C19.4696 34.9005 19.8044 34.0301 19.9272 33.6789H19.6925C19.6925 33.6789 18.1579 37.1224 14.9433 37.1224C13.821 37.1224 12.6968 36.6004 12.6968 36.6004C12.6968 36.6004 11.172 37.2854 9.09044 37.2854C7.48609 37.2854 6.47969 36.972 6.10168 36.8274C8.30594 25.2074 18.3081 16.2885 31.1095 16.2885M39.9148 16.9648C40.1975 16.8096 40.3919 16.6563 40.6639 16.5748C40.9447 16.4904 41.2118 16.5757 41.4622 16.5641C41.6605 16.5534 42.0444 16.2332 42.2192 16.2458C42.4244 16.2614 42.5952 16.3176 42.7356 16.3914C42.8908 16.4729 43.4818 16.0702 43.6488 16.078C43.7626 16.0828 44.1515 16.0887 44.0641 16.5088C43.9885 16.8455 43.7656 17.8158 43.2815 19.0218C43.1333 19.3934 42.9595 19.7874 42.7582 20.192C42.5343 20.6412 42.2761 21.104 41.9786 21.5649C40.7493 23.4647 39.6703 23.0397 37.3462 24.1022C35.5612 24.9172 34.8121 25.4907 34.5126 25.774C34.382 25.6944 34.2308 25.5993 34.0659 25.4955C34.3918 25.186 35.1135 24.6863 36.6707 23.8994C38.2996 23.0756 40.9752 21.9356 41.5397 21.0351C41.5849 20.9633 41.5368 20.9119 41.4955 20.8595C40.8878 21.2641 40.3536 21.5416 40.0738 21.6823C37.4464 22.998 36.547 23.3231 35.3815 23.9014C34.814 24.1818 34.0128 24.6931 33.4375 25.089C33.2872 24.989 33.136 24.8872 32.9858 24.7824C33.4954 24.3846 34.1994 23.8907 35.0153 23.487C36.1808 22.9078 37.1823 22.4226 39.9904 20.8071C40.2486 20.6596 41.6517 19.8048 42.716 19.0393C42.7396 18.9481 42.7602 18.8588 42.7798 18.7734C41.8166 19.3236 38.6835 20.976 38.0424 21.2981C35.413 22.6138 35.5327 22.5216 34.3663 23.1009C33.5808 23.4909 32.869 23.9897 32.3692 24.339C32.2151 24.2215 32.0707 24.1071 31.9411 23.9974C32.5764 23.5821 33.1586 23.1736 33.9981 22.7331C35.1793 22.1141 35.3226 21.9996 37.9511 20.6858C39.2864 20.0183 41.6418 18.4658 42.8701 17.6916C42.8829 17.5877 42.8957 17.5528 42.9094 17.4635C41.6016 18.1777 37.8784 20.0959 37.2588 20.4054C34.6314 21.7211 34.3329 21.8269 33.1665 22.4062C32.4782 22.7477 31.8331 23.163 31.3795 23.4851C31.2725 23.3842 31.1674 23.2843 31.0624 23.1863C31.4855 22.869 32.1954 22.3722 33.2175 21.7939C34.3663 21.1428 34.5892 21.0623 37.2166 19.7466C37.4434 19.6331 38.7061 18.9413 39.9815 18.1806C40.3409 17.9661 40.7258 17.7323 41.0665 17.5237C41.2992 17.3801 41.523 17.1589 41.7312 17.0444L41.6006 16.9794C41.0409 17.2142 40.334 17.5906 40.1435 17.6993C38.7846 18.4804 37.0055 19.2479 36.4773 19.5128C33.8508 20.8285 33.5514 20.9352 32.3849 21.5125C31.7438 21.8317 31.03 22.3082 30.5273 22.673C30.4065 22.5556 30.2946 22.4479 30.1964 22.3508C30.7344 21.9113 31.459 21.4077 32.3889 20.9469C33.5553 20.3686 33.8076 20.2628 36.4341 18.9461C36.9152 18.7065 37.3168 18.4814 37.6575 18.2747C37.7164 18.2902 38.8691 17.645 39.9148 16.9648M38.5254 25.9739C38.4724 26.3193 38.2741 26.4503 38.118 26.5231C37.9619 26.5968 37.7085 26.7841 37.6398 26.8879C37.6094 26.9354 37.5711 26.9141 37.5475 26.8908C37.5328 26.8782 37.411 26.8122 37.3511 26.7608C37.3305 26.7423 37.3168 26.7249 37.3148 26.7084C37.307 26.6434 37.3227 26.5919 37.3227 26.5919L37.3315 26.4707C37.3482 26.4377 37.3335 26.2815 37.3335 26.2815C37.3335 26.2815 37.2785 26.0185 37.3148 25.8041C37.3619 25.5295 37.6427 25.3131 37.6427 25.3131L37.7665 25.3558C37.7665 25.3558 37.6261 25.5149 37.5416 25.7362C37.4984 25.8497 37.469 26.1747 37.5534 26.3649C37.5652 26.394 37.5622 26.5269 37.5622 26.5269L37.6319 26.5861C37.6319 26.5861 37.7174 26.5298 37.7449 26.5075C37.9118 26.3727 37.9825 26.3222 37.9825 26.3222C37.9825 26.3222 37.7242 26.1505 37.8499 25.9001C37.9697 25.6585 38.2486 25.7371 38.2486 25.7371C38.333 25.4499 38.2888 25.155 38.2888 25.155L38.4626 25.2112C38.4626 25.2112 38.5863 25.5838 38.5254 25.9739M35.5033 30.0898C34.98 30.0869 34.2416 29.8666 33.9814 29.4688C34.0472 30.2159 34.9309 30.8136 35.7311 30.867V30.9155C35.5612 30.965 35.3806 30.9922 35.192 30.9902C34.1788 30.9844 33.356 30.1859 33.356 29.2078C33.356 29.0885 33.3805 28.9119 33.4061 28.7857C34.1434 29.3747 35.8244 30.2247 36.7296 28.9895L36.761 29.071C36.5617 29.6115 36.1179 30.0937 35.5033 30.0898M28.4241 37.1903C28.3318 37.201 28.3633 37.2117 28.267 37.2204C28.6519 35.6136 29.6328 31.7073 32.0383 27.7087C32.3702 27.9513 32.6353 28.1551 32.8336 28.3132C31.0938 30.964 29.2597 34.3377 28.4241 37.1903M26.3573 37.2573C26.269 37.2524 26.3063 37.2456 26.2199 37.2369C26.6362 35.5205 27.7987 31.0853 30.6441 26.7452C30.9298 26.9335 31.1939 27.112 31.4345 27.2789C29.4904 30.0626 27.2891 34.0078 26.3573 37.2573M24.2591 36.7032C24.8227 34.5657 26.1619 30.0558 29.1733 25.8283C29.4678 26.003 29.7467 26.1738 30.0108 26.3397C28.0049 29.006 25.509 33.2607 24.3946 36.809C24.3062 36.7741 24.3445 36.7401 24.2591 36.7032M22.5477 35.9183C22.4721 35.8727 22.5261 35.83 22.4594 35.7892C23.1781 33.4547 24.8973 28.6819 27.6966 24.992C27.9793 25.1443 28.2513 25.2956 28.5145 25.4451C26.5792 27.7854 23.9164 32.1313 22.5477 35.9183M56.9961 41.3062C56.9921 41.0549 56.9853 40.8046 56.9735 40.5553C56.839 40.562 49.8943 41.0287 46.4677 41.0287C41.9757 41.0287 35.521 40.9599 35.521 40.9599L5.67752 40.6668C5.68046 40.597 5.69519 40.1206 5.69912 40.0507L35.4895 39.9527C35.4895 39.9527 41.9757 40.0274 46.4677 40.0274C49.8717 40.0274 56.8007 40.0003 56.9391 40.0051C56.9126 39.6364 56.8802 39.1309 56.84 38.7661C56.6996 38.7738 49.8168 39.3055 46.4677 39.3055C41.9757 39.3055 35.521 39.0222 35.521 39.0222L27.8704 39.0445L17.7681 38.7496L5.82381 38.6448C5.83559 38.5458 5.89843 38.0733 5.9112 37.9753C6.32554 38.0364 6.71435 38.1761 8.15473 38.1761C10.0487 38.1761 10.9903 37.7288 10.9903 37.7288C10.9903 37.7288 12.3649 38.1286 14.2589 38.1286C15.1485 38.1286 17.066 37.2388 18.259 37.592C20.1697 38.1587 20.9257 37.3077 20.9257 37.3077C20.9257 37.3077 21.3695 37.885 22.1815 38.0529C22.8688 38.1955 23.6396 37.7346 23.6396 37.7346C23.6396 37.7346 24.7147 38.5089 27.8016 38.4895C31.5916 38.4672 32.6225 36.5218 32.6225 36.5218H32.759C32.759 36.5218 32.6206 37.0525 32.8376 37.5212C33.2274 38.3614 34.4272 38.4779 34.4272 38.4779C34.2868 36.1191 35.3334 34.5803 35.3334 34.5803H35.4738L35.3462 35.0809C34.9171 36.7682 35.6604 38.3188 35.6604 38.3188L36.0296 38.1315C36.0296 38.1315 35.6928 37.0487 36.0512 35.567C36.4086 34.0845 36.9064 33.3267 36.9064 33.3267H37.088C37.088 33.3267 36.7139 34.4764 36.7237 35.3885C36.7345 36.1492 37.141 37.9083 38.6079 38.4323C39.7312 38.833 40.5029 37.9316 40.5029 37.9316C40.5029 37.9316 42.8564 38.5245 44.8535 38.5245C49.4839 38.5245 50.5247 37.756 50.5247 37.756C50.5247 37.756 50.831 38.3061 53.2012 38.3061C54.5837 38.3061 55.6362 38.213 56.2754 38.1354C56.4767 38.1101 56.6367 38.0878 56.7536 38.0694C56.6996 37.6803 56.6377 37.2932 56.569 36.9099C55.2602 29.7502 51.0608 23.5841 45.2089 19.6341L44.8712 20.5704C50.5836 24.3195 54.73 30.1674 56.0093 37.0846C55.3475 37.3116 54.4138 37.5707 53.2012 37.5707C51.3818 37.5707 50.9459 36.9992 50.9459 36.9992C50.9459 36.9992 50.2841 37.461 49.0882 37.461C48.0573 37.461 47.2178 36.7217 47.2178 36.7217C47.2178 36.7217 46.0926 37.7385 44.2526 37.7385C41.958 37.7385 40.7984 36.3248 40.4008 35.7048C40.0002 35.078 39.7744 34.557 39.7744 34.557H39.5898C39.6398 34.8073 39.6909 35.0974 39.8097 35.4099C40.12 36.2288 40.3036 36.5053 40.4204 36.7197C40.4842 36.8371 40.6354 37.1534 40.3114 37.2476C40.1209 37.3019 39.9697 37.1758 39.9108 37.0729C39.7861 36.907 39.3836 36.3287 39.1057 35.4458C38.8082 34.5094 38.7375 33.8157 38.6884 33.3267H38.5461C38.4803 33.8011 38.4096 34.4483 38.4655 35.3254C38.5294 36.286 38.8004 36.9584 38.8691 37.1166C38.8799 37.1399 38.9368 37.2602 38.9457 37.331C38.983 37.6231 38.7483 37.7773 38.5029 37.723C38.2898 37.6755 38.1091 37.4727 37.9952 37.2844C37.0104 35.6485 38.2063 32.5456 38.5834 31.4909C39.0979 30.0588 39.2559 28.7382 39.2559 28.7382C39.2559 28.7382 39.9226 27.6622 40.279 26.9461C40.7346 26.034 41.0596 25.1433 41.363 24.8435C41.8304 24.3816 42.5108 23.3075 43.2698 21.9482C43.4151 21.6881 44.0552 20.2987 44.179 19.9494C44.2673 19.6962 44.3979 19.4274 44.4755 19.1547C44.8476 17.841 45.0695 16.4341 45.0862 16.2167C45.1107 15.8927 44.5108 15.6637 44.5108 15.6637C44.5108 15.6637 44.0169 15.4764 43.6605 15.4774C43.475 15.4783 43.2108 15.6724 42.9919 15.7723C42.7022 15.9033 42.5579 15.8179 42.5579 15.8179C42.5579 15.8179 42.118 15.6423 41.8844 15.6889C41.6841 15.7287 41.4494 15.9829 41.2707 16.0586C40.9487 16.1925 40.8662 16.1236 40.8662 16.1236C40.8662 16.1236 40.4941 16.0236 40.225 16.111C39.9815 16.1915 39.7439 16.3138 39.3374 16.6388C36.4272 15.5793 33.2823 15 30 15C15.231 15 3.23074 26.7191 3.00295 41.2606C3.00098 41.3984 3 42 3 42H57C57 42 56.999 41.444 56.9961 41.3062" fill="white"/>
</g>
</svg>
