<svg xmlns="http://www.w3.org/2000/svg" xmlns:xlink="http://www.w3.org/1999/xlink" width="197" height="220" viewBox="0 0 197 220">
  <defs>
    <polygon id="nw_largelogo-a" points=".237 .504 8.612 .504 8.612 8.884 .237 8.884"/>
    <polygon id="nw_largelogo-c" points=".202 .12 10.647 .12 10.647 13.958 .202 13.958"/>
    <polygon id="nw_largelogo-e" points=".609 .175 134.39 .175 134.39 216.725 .609 216.725"/>
  </defs>
  <g fill="none" fill-rule="evenodd">
    <g fill="#FFFFFE" transform="translate(0 170)">
      <path d="M64.3055572.66486825C65.9786763.66486825 67.3655895 1.95006825 67.3655895 3.53564325 67.3655895 5.12189325 65.9786763 6.40574325 64.3055572 6.40574325 62.6331111 6.40574325 61.2468845 5.12189325 61.2468845 3.53564325 61.2468845 1.95006825 62.6331111.66486825 64.3055572.66486825M142.506.6669C144.180486.6669 145.567392 1.95075 145.567392 3.53565 145.567392 5.1219 144.180486 6.406425 142.50668 6.406425 140.840353 6.406425 139.448687 5.1219 139.448687 3.53565 139.448687 1.950075 140.840353.6669 142.506.6669M43.2388489 15.67215L43.2395288 26.4222 38.4995719 26.4222 38.4995719 24.613875C37.2595144 25.938225 35.735277 26.77725 33.3612194 26.840025 29.6267698 26.949375 26.6850324 24.688125 26.6850324 21.3084 26.6850324 16.107525 32.2666511 14.96475 37.7333741 14.96475L38.3486439 14.96475C38.3486439 13.527 37.7055 12.196575 34.8201906 12.196575 32.8608453 12.196575 31.1985971 12.81825 30.0149676 13.904325L27.1473345 11.059875C29.1209568 9.13275 31.8954496 8.1459 34.9595612 8.14657465 37.9923993 8.14657465 39.6580468 8.57115 41.3536079 10.083825 42.9546691 11.508075 43.2388489 14.186475 43.2388489 15.67215M38.3486439 18.6651L37.8890612 18.6651C37.0909101 18.6651 35.1614784 18.7596 33.7038669 19.157175 32.6990396 19.431225 31.8594173 20.085975 31.8594173 20.9979 31.8594173 22.28445 33.1579424 22.8501 34.327295 22.8501 36.8448022 22.8501 38.3486439 21.26655 38.3486439 19.21185L38.3486439 18.6651M53.6814388 8.570475L53.6814388 2.943 48.5743597 2.943 48.5743597 8.570475 45.0533849 8.570475 45.0533849 12.814875 48.5743597 12.814875 48.5750396 20.3931C48.5750396 22.92975 49.0074281 24.437025 50.0258525 25.448175 50.9851295 26.397225 52.4454604 26.841375 54.6094424 26.841375 55.9813921 26.841375 57.3655791 26.57205 58.4390719 26.112375L58.4390719 22.096125C57.7938885 22.310775 56.8529676 22.455225 55.6768165 22.455225 54.0900324 22.455225 53.6814388 21.5946 53.6814388 20.142675L53.6814388 12.814875 58.4390719 12.81555 58.4390719 8.570475 53.6814388 8.570475M188.777007 17.8146L188.777007 19.161225 175.602076 19.161225C175.689097 20.983725 177.764018 22.552425 180.207421 22.64355 182.492417 22.734 183.744032 21.83895 184.920183 20.570625L188.166496 22.92975C186.196273 25.40565 183.75627 26.8434 180.299881 26.8434 174.82364 26.8434 170.350867 23.463 170.350867 17.49735 170.350867 12.7251 173.343594 8.147925 179.662176 8.147925 186.16432 8.147925 188.777007 13.157775 188.777007 17.8146M183.343597 15.494625C183.116525 13.5513 182.041673 12.1257 179.486773 12.176325 177.320752 12.2256 175.843424 13.678875 175.612953 15.494625L183.343597 15.494625"/>
      <polyline points="17.978 .517 17.979 18.105 6.915 .517 0 .516 .001 26.422 5.625 26.422 5.625 8.241 16.996 26.422 23.599 26.422 23.598 .517 17.978 .517"/>
      <polyline points="132.724 8.571 129.825 19.66 126.926 8.571 121.568 8.571 118.769 19.634 115.869 8.571 110.219 8.571 115.975 26.422 121.105 26.422 124.189 15.2 127.657 26.422 132.405 26.422 138.145 8.571 132.724 8.571"/>
      <polyline points="66.892 8.573 61.724 8.573 61.724 26.423 66.892 26.423 66.892 8.573"/>
      <polygon points="139.927 26.423 145.099 26.423 145.099 8.573 139.927 8.573"/>
      <path d="M107.032468 9.784125C105.946058 8.662275 104.595863 8.13645 102.591647 8.1513 100.614626 8.16345 98.3282698 9.117225 97.2432194 10.51245L97.2432194 8.57655 92.2877482 8.57655 92.2884281 26.42355 97.4600935 26.42355 97.4600935 16.72245C97.4600935 15.462225 97.8047806 14.53005 98.4071331 13.870575 98.9313022 13.287375 99.692741 12.917475 100.660176 12.859425 101.828169 12.7926 102.452277 13.295475 102.897583 13.857075 103.451665 14.550975 103.602594 15.76395 103.602594 17.396775L103.602594 26.42355 108.76814 26.42355 108.76814 15.277275C108.76814 13.09635 108.48464 11.285325 107.032468 9.784125M167.400291.517725L167.400291 26.4222 162.529802 26.4222 162.528442 24.438375C161.391723 25.739775 159.528917 26.8434 156.947504 26.8434 154.462629 26.8434 152.308165 26.013825 150.716622 24.432975 149.010863 22.74075 148.065183 20.272275 148.065183 17.4987 148.065183 12.077775 151.724169 8.1486 156.77754 8.1486 158.986392 8.1486 160.819284 8.82225 162.225227 10.1412L162.225227.517725 167.400291.517725zM162.372076 17.4987C162.372076 15.0957 160.806367 12.6690744 157.800723 12.6690744 154.804597 12.667725 153.238888 15.0957 153.238888 17.4987 153.238888 19.890225 154.805277 22.322925 157.800723 22.322925 160.806367 22.322925 162.372076 19.890225 162.372076 17.4987L162.372076 17.4987zM89.3249353 17.4933C89.3249353 22.91355 85.2403597 26.8434 79.597554 26.8434 73.9567878 26.8434 69.8701727 22.91355 69.8694928 17.4933 69.8694928 12.0744 73.9554281 8.14455 79.597554 8.14455 85.2403597 8.14455 89.3249353 12.0744 89.3249353 17.4933M79.597554 12.670425C76.5973489 12.670425 75.0363993 15.0984 75.0363993 17.4933 75.0363993 19.8909 76.5973489 22.317525 79.597554 22.317525 82.5896007 22.317525 84.1587086 19.8909 84.1587086 17.4933 84.1587086 15.0984 82.5896007 12.670425 79.597554 12.670425"/>
    </g>
    <g transform="translate(188 169)">
      <mask id="nw_largelogo-b" fill="#fff">
        <use xlink:href="#nw_largelogo-a"/>
      </mask>
      <path fill="#FFFFFE" d="M2.81561538,7.05876923 L3.69276923,7.05876923 L3.69276923,5.09884615 L4.33453846,5.09884615 L5.53015385,7.05876923 L6.45230769,7.05876923 L5.20269231,5.031 C5.85553846,4.95276231 6.35053846,4.54914692 6.35053846,3.71353846 C6.35053846,2.79069231 5.81192308,2.27215385 4.662,2.27215385 L2.81561538,2.27215385 L2.81561538,7.05876923 Z M3.69276923,3.01637769 L4.33453846,3.01637769 C4.87592308,3.00461538 5.47407692,3.03714692 5.47407692,3.68099308 C5.47407692,4.32276923 4.87592308,4.35738462 4.33453846,4.35738462 L3.69276923,4.35738462 L3.69276923,3.01637769 Z M0.236769231,4.69453846 C0.236769231,7.00337769 2.11638462,8.88369231 4.42523077,8.88369231 C6.73476923,8.88369231 8.61438462,7.00337769 8.61438462,4.69453846 C8.61438462,2.38637769 6.73476923,0.504 4.42453846,0.504 C2.11638462,0.504 0.236769231,2.38637769 0.236769231,4.69453846 L0.236769231,4.69453846 Z M0.978923077,4.69453846 C0.978923077,2.79069231 2.52207692,1.24753154 4.42453846,1.24753154 C6.32907692,1.24753154 7.87292308,2.79069231 7.87292308,4.69453846 C7.87292308,6.59699308 6.32907692,8.14153154 4.42523077,8.14153154 C2.52207692,8.14153154 0.978923077,6.59699308 0.978923077,4.69453846 L0.978923077,4.69453846 Z" mask="url(#nw_largelogo-b)"/>
    </g>
    <g fill="#FFFFFE" transform="translate(29 205)">
      <polygon points=".219 11.468 1.728 11.468 1.728 .827 .219 .827"/>
      <path d="M3.82106557 10.1103522L4.58595082 8.97741106C5.68286885 9.84211694 6.8987541 10.3362353 8.09380328 10.3362353 9.30834426 10.3362353 10.1901803 9.67764706 10.1901803 8.64917576L10.1901803 8.60682353C10.1901803 7.53670588 8.99580328 7.12517647 7.66229508 6.73341176 6.07539344 6.26047059 4.31104918 5.68376471 4.31104918 3.72847059L4.31104918 3.68752941C4.31104918 1.85505882 5.7615082.641647059 7.76042623.641647059 8.99580328.641647059 10.367623 1.09341176 11.4067377 1.81482353L10.7204918 3.00847059C9.78018033 2.37105882 8.7007377 1.97929412 7.72211475 1.97929412 6.52639344 1.97929412 5.7615082 2.63717647 5.7615082 3.52305882L5.7615082 3.564C5.7615082 4.57341176 7.01503279 4.96305882 8.36870492 5.39576471 9.93611475 5.89058824 11.6218197 6.528 11.6218197 8.44235224L11.6218197 8.48329412C11.6218197 10.5028235 10.034918 11.6745882 8.01583607 11.6745882 6.56537705 11.6745882 4.95763934 11.0774111 3.82106557 10.1103522M27.915623 6.19835294L27.915623 6.15741176C27.915623 3.87176471 26.287728 2.00047059 24.1523674 2.00047059 21.957187 2.00047059 20.4475738 3.87176471 20.4475738 6.11717647L20.4475738 6.15741176C20.4475738 8.44235224 22.0553115 10.2959993 24.1913443 10.2959993 26.3865246 10.2959993 27.915623 8.44235224 27.915623 6.19835294zM18.8989836 6.19835294L18.8989836 6.15741176C18.8989836 3.15176471 21.1338264.600705882 24.1913443.600705882 27.229377.600705882 29.4642198 3.11223529 29.4642198 6.11717647L29.4642198 6.15741176C29.4642198 9.16305812 27.2098852 11.7148235 24.1523674 11.7148235 21.1143279 11.7148235 18.8989836 9.20470518 18.8989836 6.19835294L18.8989836 6.19835294zM31.7615574.826588235L33.2704985.826588235 33.2704985 2.67952941C33.9365738 1.52611765 34.9958525.600705882 36.7400328.600705882 39.1912951.600705882 40.620918 2.32870588 40.620918 4.86070588L40.620918 11.4684713 39.1119836 11.4684713 39.1119836 5.25176471C39.1119836 3.276 38.0923607 2.04070588 36.3098689 2.04070588 34.5643443 2.04070588 33.2704985 3.37905882 33.2704985 5.37529412L33.2704985 11.4684713 31.7615574 11.4684713 31.7615574.826588235"/>
    </g>
    <g transform="translate(77 206)">
      <mask id="nw_largelogo-d" fill="#fff">
        <use xlink:href="#nw_largelogo-c"/>
      </mask>
      <path fill="#FFFFFE" d="M0.6435,13.469379 L1.164625,12.224079 C1.6658125,12.489379 2.1264375,12.611179 2.7885,12.611179 C3.711125,12.611179 4.29275,12.121879 4.9135625,10.632979 L0.202125,0.119679 L1.90575,0.119679 L5.676,8.917279 L9.0041875,0.119679 L10.646625,0.119679 L6.2975,11.020779 C5.416125,13.203379 4.412375,14 2.8496875,14 C1.986875,14 1.3454375,13.8152 0.6435,13.469379" mask="url(#nw_largelogo-d)"/>
    </g>
    <g transform="translate(28)">
      <mask id="nw_largelogo-f" fill="#fff">
        <use xlink:href="#nw_largelogo-e"/>
      </mask>
      <path fill="#FFFFFE" d="M69.5870455 211.409019L69.5870455 211.369564C69.5870455 209.166912 67.9370455 207.363567 65.7709091 207.363567 63.5434091 207.363567 62.0120455 209.166912 62.0120455 211.33079L62.0120455 211.369564C62.0120455 213.571535 63.6422727 215.357874 65.8097727 215.357874 68.0372727 215.357874 69.5870455 213.571535 69.5870455 211.409019zM60.4418182 211.409019L60.4418182 211.369564C60.4418182 208.473056 62.7088636 206.01463 65.8097727 206.01463 68.8922727 206.01463 71.1586364 208.434962 71.1586364 211.33079L71.1586364 211.369564C71.1586364 214.266071 68.8725 216.725179 65.7709091 216.725179 62.6884091 216.725179 60.4418182 214.306206 60.4418182 211.409019L60.4418182 211.409019zM73.3704545 212.600818L73.3704545 206.23231 74.9018182 206.23231 74.9018182 212.222599C74.9018182 214.127981 75.9354545 215.317059 77.7443182 215.317059 79.4952273 215.317059 80.8261364 214.028664 80.8261364 212.103555L80.8261364 206.23231 82.3384091 206.23231 82.3384091 216.48777 80.8261364 216.48777 80.8261364 214.702792C80.13 215.813642 79.0765909 216.706131 77.3065909 216.706131 74.8213636 216.706131 73.3704545 215.040197 73.3704545 212.600818M85.3186364 206.23231L86.8493182 206.23231 86.8493182 208.909777C87.6040909 207.203708 89.0959091 205.973815 91.0438636 206.054085L91.0438636 207.700292 90.9245455 207.700292C88.6786364 207.700292 86.8493182 209.306364 86.8493182 212.401505L86.8493182 216.487772 85.3186364 216.487772 85.3186364 206.23231M97.6909091 215.178968L98.4661364 214.087165C99.5795455 214.920473 100.812273 215.396649 102.024545 215.396649 103.257273 215.396649 104.1525 214.761975 104.1525 213.770849L104.1525 213.730034C104.1525 212.698774 102.940227 212.302188 101.586818 211.924649 99.9770455 211.468881 98.1879545 210.913116 98.1879545 209.028821L98.1879545 208.989367C98.1879545 207.223436 99.6586364 206.054085 101.687045 206.054085 102.940227 206.054085 104.331136 206.489445 105.384545 207.184661L104.689773 208.334966C103.735227 207.720699 102.641591 207.34316 101.6475 207.34316 100.434545 207.34316 99.6586364 207.977154 99.6586364 208.830868L99.6586364 208.870323C99.6586364 209.843082 100.931591 210.21926 102.303409 210.635574 103.894773 211.112429 105.604091 211.726696 105.604091 213.571535L105.604091 213.610991C105.604091 215.557188 103.993636 216.686404 101.945455 216.686404 100.473409 216.686404 98.8431818 216.110912 97.6909091 215.178968" mask="url(#nw_largelogo-f)"/>
      <polygon fill="#FFFFFE" points="107.964 216.488 109.495 216.488 109.495 206.232 107.964 206.232" mask="url(#nw_largelogo-f)"/>
      <path fill="#FFFFFE" d="M120.820909 211.369564L120.820909 211.33079C120.820909 208.968959 119.012045 207.381934 117.102273 207.381934 115.114773 207.381934 113.484545 208.850596 113.484545 211.33079L113.484545 211.369564C113.484545 213.789897 115.155 215.337467 117.102273 215.337467 119.012045 215.337467 120.820909 213.730034 120.820909 211.369564zM111.913636 211.389972L111.913636 211.350517C111.913636 207.997561 114.36 206.01463 116.824091 206.01463 118.733864 206.01463 119.966591 207.04521 120.761591 208.196194L120.761591 202.007273 122.292273 202.007273 122.292273 216.487771 120.761591 216.487771 120.761591 214.424571C119.926364 215.654464 118.713409 216.706132 116.824091 216.706132 114.36 216.706132 111.913636 214.761975 111.913636 211.389972L111.913636 211.389972zM132.84 210.754618C132.66 208.89073 131.586136 207.303025 129.558409 207.303025 127.789091 207.303025 126.436364 208.771687 126.2175 210.754618L132.84 210.754618zM129.836591 215.396649C131.248636 215.396649 132.242727 214.821836 133.077955 213.949075L134.031818 214.801429C132.9975 215.952414 131.745682 216.725179 129.796364 216.725179 126.974318 216.725179 124.667045 214.564021 124.667045 211.369564 124.667045 208.394147 126.754773 206.01463 129.598636 206.01463 132.640227 206.01463 134.390455 208.434962 134.390455 211.449154 134.390455 211.588605 134.390455 211.747103 134.370682 211.985871L126.2175 211.985871C126.436364 214.146347 128.027727 215.396649 129.836591 215.396649L129.836591 215.396649zM107.667955 203.336483C107.667955 202.769154 108.15 202.303862 108.739091 202.303862 109.328182 202.303862 109.810227 202.769154 109.810227 203.336483 109.810227 203.904492 109.328182 204.368423 108.739091 204.368423 108.15 204.368423 107.667955 203.904492 107.667955 203.336483M.608863636 203.336483C.608863636 202.769154 1.09022727 202.303862 1.67931818 202.303862 2.26840909 202.303862 2.75045455 202.769154 2.75045455 203.336483 2.75045455 203.904492 2.26840909 204.368423 1.67931818 204.368423 1.09022727 204.368423.608863636 203.904492.608863636 203.336483M90.1990909.197272727L90.1936364.174824451C90.1486364.185028213 90.0995455.189789969 90.0525.19999373 90.1056818.198633229 90.1568182.197272727 90.1990909.197272727M97.6036364 36.3512414L97.6036364 95.7786301 90.1922727 88.5394013 90.1922727 111.43052C90.1922727 116.706545 89.7109091 120.166301 87.1677273 123.33763L87.1084091 123.409737C86.9802273 123.557351 86.8731818 123.692721 86.7490909 123.837614L95.1463636 131.732605 124.108636 131.732605 124.108636 36.3512414 97.6036364 36.3512414M34.1686432 74.0881536C34.1686432 74.0881536 45.8577273 85.1374671 46.9002273 86.1224702 45.7902273 81.9981097 45.0190909 76.5254922 47.2561364 72.950094L48.4561364 71.0324671C47.2384091 64.5238276 47.5465909 57.7730188 51.6531818 53.2779216L52.7297727 52.0997273 36.5502341 36.3512414 7.66159091 36.3512414 7.66159091 131.732605 34.1686432 131.732605 34.1686432 74.0881536" mask="url(#nw_largelogo-f)"/>
      <path fill="#FFFFFE" d="M85.2102273,121.775094 C82.2586364,125.187232 78.4322727,130.042182 79.2606818,133.582207 C79.2606818,133.582207 79.2606818,133.584248 79.2627273,133.586288 C79.8770455,136.517489 84.0225,138.321514 84.0225,138.321514 L92.9365909,143.141091 L87.1506818,148.179028 L94.0915909,150.361273 C94.0915909,150.361273 87.7295455,156.869912 86.9986364,157.522273 C85.1829545,157.827025 83.2568182,158.010013 81.1861364,158.010013 C66.4609091,158.010013 45.9831818,149.338176 40.9179545,149.274912 C34.8095455,149.200765 27.1370455,152.71426 27.1370455,152.71426 L31.1440909,148.387185 C31.1440909,148.387185 25.9002273,149.447696 20.8159091,149.015737 L27.9831818,144.158746 C21.6872727,143.955351 16.1720455,142.083981 13.575,140.251386 C13.575,140.251386 25.1659091,139.335088 40.8859091,139.50311 C47.2452273,139.571135 58.0288636,140.206489 58.0288636,140.206489 C52.6990909,137.946016 47.7156818,134.970599 45.5775,129.73811 L55.7420455,131.265953 C51.4738636,128.658552 45.2795455,122.132226 44.1368182,117.080003 L55.4706818,121.044505 C53.4586364,118.866342 46.4488636,112.318248 45.1888636,104.72869 L54.1602273,110.359125 C51.8086364,107.995934 45.4370455,95.4521097 46.5204545,91.7835172 L54.8822727,97.3935455 C50.8793182,92.455605 46.1952273,79.3709812 49.3834091,74.2745423 C51.9238636,84.1347774 57.5836364,87.7265016 57.5836364,87.7265016 C53.8684091,82.3566019 45.855,63.3374702 53.5077273,54.9629028 C55.5170455,73.9296552 63.5979545,80.3342163 63.5979545,80.3342163 C56.91,69.697815 49.2893182,37.0478182 63.5045455,30.4439436 C60.7206818,51.4215172 67.4379545,62.8252414 67.4379545,62.8252414 C63.1970455,43.4972759 63.3368182,16.1131003 77.7327273,13.6104577 C70.6643182,34.2567492 75.6859091,50.1780188 75.6859091,50.1780188 C74.6536364,1.88497492 90.2481818,2.69904673 90.2481818,2.69904673 C90.2481818,2.69904673 87.6845455,16.4130909 87.6845455,40.8517806 L87.6845455,111.43052 C87.6845455,116.305197 87.2659091,119.209868 85.2102273,121.775094 Z M94.4659091,138.860273 C100.739318,139.34121 105.197045,139.759564 109.673182,140.319411 C111.364773,140.532329 112.036364,142.484649 112.26,143.399586 C110.117727,142.868991 106.728409,142.728179 106.728409,142.728179 L106.542955,144.753966 C106.542955,144.753966 109.441364,143.928821 112.613864,143.892088 C112.613864,143.892088 119.123864,143.862837 118.812955,148.248414 C117.0375,147.023282 113.404091,147.510342 112.376591,147.679044 C109.107273,148.215082 105.998864,149.725918 102.399545,151.622458 C99.1056818,153.359818 95.5527273,155.227107 91.3793182,156.491013 C93.2065909,154.716918 97.9834091,149.45994 97.9834091,149.45994 L91.6172727,147.247765 L96.8297727,142.711172 L88.8204545,138.385458 C90.8202273,138.556201 92.7102273,138.726263 94.4659091,138.860273 L94.4659091,138.860273 Z" mask="url(#nw_largelogo-f)"/>
    </g>
  </g>
</svg>
