<svg xmlns="http://www.w3.org/2000/svg" width="136" height="37" viewBox="0 0 136 37"><g fill="#FFF" fill-rule="evenodd"><path d="M38.5432461 35.804811 39.0422839 35.804811C39.4696167 35.804811 39.4696167 35.5904762 39.4696167 34.8043397L39.4696167 30.5881198C39.4696167 29.6588513 39.3979117 29.6588513 39.0422839 29.6588513L38.5432461 29.6588513 38.5432461 29.3733137 44.527354 29.3733137 44.527354 30.8736573 44.1717261 30.8736573C44.1000211 29.8019833 43.2453555 29.6588513 42.1053185 29.6588513L40.6806344 29.6588513 40.6806344 32.5890623 41.8916521 32.5890623C42.8180227 32.5890623 43.3163362 32.3035248 43.3163362 31.5173883L43.743669 31.5173883 43.743669 33.8750712 43.3163362 33.8750712C43.3163362 33.0889347 42.7463177 32.8745999 41.8916521 32.8745999L40.6806344 32.8745999 40.6806344 34.8043397C40.6806344 35.3049386 40.6806344 35.804811 41.2506529 35.804811L41.6779857 35.804811 41.6779857 36.0191458 38.5432461 36.0191458 38.5432461 35.804811M46.1664288 35.804811 46.4510759 35.804811C46.807428 35.804811 46.8784087 35.7336082 46.8784087 35.4473441L46.8784087 31.3742563C46.8784087 30.9455866 46.807428 30.9455866 46.3800952 30.9455866L46.1664288 30.9455866 46.1664288 30.6593225 48.6594449 30.6593225 48.6594449 30.9455866 48.3747978 30.9455866C48.0184457 30.9455866 47.947465 30.9455866 47.947465 31.3742563L47.947465 35.4473441C47.947465 35.7336082 48.0184457 35.804811 48.3747978 35.804811L48.6594449 35.804811 48.6594449 36.0191458 46.1664288 36.0191458 46.1664288 35.804811M50.5121861 35.804811 50.8685382 35.804811C51.224166 35.804811 51.224166 35.5192734 51.224166 34.9474718L51.224166 31.9460579C51.224166 30.9455866 51.1531853 30.9455866 50.8685382 30.9455866L50.5121861 30.9455866 50.5121861 30.6593225 52.2932223 30.6593225 55.4989426 34.8043397 55.4989426 31.7317231C55.4989426 31.0167894 55.4989426 30.9455866 55.0006291 30.9455866L54.7152577 30.9455866 54.7152577 30.6593225 56.6389796 30.6593225 56.6389796 30.9455866 56.4253132 30.9455866C55.9262754 30.9455866 55.9262754 31.0879921 55.9262754 31.7317231L55.9262754 36.0910751 55.3562569 36.0910751 51.6522231 31.3742563 51.5805181 31.3742563 51.5805181 34.9474718C51.5805181 35.5192734 51.6522231 35.804811 52.0078509 35.804811L52.364203 35.804811 52.364203 36.0191458 50.5121861 36.0191458 50.5121861 35.804811M60.7000899 30.5881198C60.8427756 30.9455866 60.984737 31.1599215 61.056442 31.445459L62.6947925 34.876269C63.1221253 35.804811 63.264811 35.804811 63.5494581 35.804811L63.6921438 35.804811 63.6921438 36.0191458 61.1984034 36.0191458 61.1984034 35.804811 61.4127941 35.804811C61.8401269 35.804811 61.9111076 35.804811 61.9111076 35.6624055 61.9111076 35.5192734 61.9111076 35.4473441 61.8401269 35.3049386L61.3410891 34.3044674 58.848073 34.3044674 58.5627016 34.9474718C58.3490352 35.3049386 58.2780545 35.4473441 58.2780545 35.5904762 58.2780545 35.804811 58.5627016 35.804811 58.9190537 35.804811L58.9900344 35.804811 58.9900344 36.0191458 57.1380174 36.0191458 57.1380174 35.804811 57.2807031 35.804811C57.4943695 35.804811 57.7790167 35.7336082 57.9926831 35.3049386L59.916405 31.3742563C60.0590907 31.1599215 60.2010521 30.8736573 60.2727571 30.5881198L60.7000899 30.5881198ZM61.1984034 34.0901325 60.1300714 31.7317231 58.9900344 34.0901325 61.1984034 34.0901325 61.1984034 34.0901325ZM64.7612001 35.804811 65.1168279 35.804811C65.47318 35.804811 65.47318 35.5192734 65.47318 34.9474718L65.47318 31.9460579C65.47318 30.9455866 65.4021993 30.9455866 65.1168279 30.9455866L64.7612001 30.9455866 64.7612001 30.6593225 66.5422363 30.6593225 69.7479566 34.8043397 69.7479566 31.7317231C69.7479566 31.0167894 69.7479566 30.9455866 69.2489188 30.9455866L68.9642717 30.9455866 68.9642717 30.6593225 70.8879937 30.6593225 70.8879937 30.9455866 70.6743273 30.9455866C70.1752895 30.9455866 70.1043087 31.0879921 70.1043087 31.7317231L70.1043087 36.0910751 69.5342902 36.0910751 65.9005128 31.3742563 65.8295321 31.3742563 65.8295321 34.9474718C65.8295321 35.5192734 65.8295321 35.804811 66.1858842 35.804811L66.613217 35.804811 66.613217 36.0191458 64.7612001 36.0191458 64.7612001 35.804811M77.44212 32.0172607 77.1574729 32.0172607C77.0857679 31.3742563 76.5157494 30.8024546 75.6610838 30.8024546 74.093714 30.8024546 73.8800476 32.4459303 73.8800476 33.4464016 73.8800476 34.4468729 74.1646947 35.9479431 75.7320645 35.9479431 76.6584351 35.9479431 77.0857679 35.3049386 77.2284536 34.6612077L77.5131007 34.6612077 77.5131007 36.0910751 77.2284536 36.0910751C77.2284536 36.0910751 77.1574729 35.9479431 77.0857679 35.9479431 76.8011208 35.9479431 76.302083 36.1622779 75.6610838 36.1622779 73.6663812 36.1622779 72.7400106 34.9474718 72.7400106 33.3751988 72.7400106 31.9460579 73.8090669 30.5881198 75.6610838 30.5881198 76.0174359 30.5881198 76.2311023 30.6593225 76.4447687 30.6593225 76.5874544 30.7312518 76.8011208 30.8024546 76.9438065 30.8024546 77.0857679 30.8024546 77.1574729 30.7312518 77.1574729 30.5881198L77.44212 30.5881198 77.44212 32.0172607M79.5085276 35.804811 79.7931747 35.804811C80.1495268 35.804811 80.2205075 35.7336082 80.2205075 35.4473441L80.2205075 31.3742563C80.2205075 30.9455866 80.1495268 30.9455866 79.722194 30.9455866L79.5085276 30.9455866 79.5085276 30.6593225 82.002268 30.6593225 82.002268 30.9455866 81.7168966 30.9455866C81.3605445 30.9455866 81.2895638 30.9455866 81.2895638 31.3742563L81.2895638 35.4473441C81.2895638 35.7336082 81.3605445 35.804811 81.7168966 35.804811L82.002268 35.804811 82.002268 36.0191458 79.5085276 36.0191458 79.5085276 35.804811M86.4190061 30.5881198C86.4899868 30.9455866 86.6326725 31.1599215 86.7753582 31.445459L88.342728 34.876269C88.7700608 35.804811 88.9127465 35.804811 89.2683743 35.804811L89.3400793 35.804811 89.3400793 36.0191458 86.8463389 36.0191458 86.8463389 35.804811 87.0600053 35.804811C87.4873381 35.804811 87.5590431 35.804811 87.5590431 35.6624055 87.5590431 35.5192734 87.5590431 35.4473441 87.4873381 35.3049386L86.9890246 34.3044674 84.4952842 34.3044674 84.2106371 34.9474718C83.9969707 35.3049386 83.9252657 35.4473441 83.9252657 35.5904762 83.9252657 35.804811 84.2106371 35.804811 84.5669892 35.804811L84.6379699 35.804811 84.6379699 36.0191458 82.7852287 36.0191458 82.7852287 35.804811 82.9279144 35.804811C83.2132858 35.804811 83.4269522 35.7336082 83.6406186 35.3049386L85.5643405 31.3742563C85.7063019 31.1599215 85.8489876 30.8736573 85.9199683 30.5881198L86.4190061 30.5881198ZM86.9180439 34.0901325 85.7780069 31.7317231 84.6379699 34.0901325 86.9180439 34.0901325 86.9180439 34.0901325ZM90.1947449 35.804811 90.4801163 35.804811C90.8357441 35.804811 90.9784298 35.7336082 90.9784298 35.4473441L90.9784298 31.3742563C90.9784298 30.9455866 90.8357441 30.9455866 90.4801163 30.9455866L90.1947449 30.9455866 90.1947449 30.6593225 92.6884853 30.6593225 92.6884853 30.9455866 92.4031139 30.9455866C91.9757811 30.9455866 91.9757811 31.0167894 91.9757811 31.3742563L91.9757811 35.804811 93.3294845 35.804811C94.0421887 35.804811 94.6831879 35.4473441 94.6831879 34.6612077L94.9678351 34.6612077 94.9678351 36.0191458 90.1947449 36.0191458 90.1947449 35.804811M106.367481 31.0879921 106.011129 31.0879921C105.868443 30.1594502 105.084758 29.4445164 104.016426 29.4445164 101.950019 29.4445164 101.593666 31.445459 101.593666 32.7321944 101.593666 34.1613353 101.950019 35.8767403 103.87374 35.9479431 104.657425 35.9479431 105.44111 35.5192734 105.44111 34.5900049L105.44111 33.8750712C105.44111 33.5183309 105.298425 33.3751988 105.013777 33.3751988L104.51474 33.3751988 104.51474 33.0889347 107.293127 33.0889347 107.293127 33.3751988 107.00848 33.3751988C106.652128 33.3751988 106.581147 33.5183309 106.581147 33.9470005L106.581147 36.1622779 106.295776 36.1622779C106.224795 36.0191458 106.224795 35.8767403 105.939424 35.8767403 105.583796 35.8767403 105.013777 36.1622779 103.80276 36.1622779 101.166334 36.1622779 100.239963 34.6612077 100.239963 32.6602651 100.239963 30.8024546 101.522686 29.2301816 103.87374 29.2301816 104.443759 29.2301816 104.800111 29.3013844 105.084758 29.3733137 105.44111 29.4445164 105.583796 29.5157192 105.797462 29.5157192 105.939424 29.5157192 105.939424 29.3733137 106.011129 29.2301816L106.367481 29.2301816 106.367481 31.0879921M109.003183 35.804811 109.288554 35.804811C109.644182 35.804811 109.786868 35.7336082 109.786868 35.4473441L109.786868 31.3742563C109.786868 30.9455866 109.644182 30.9455866 109.288554 30.9455866L109.003183 30.9455866 109.003183 30.6593225 111.924256 30.6593225C112.992588 30.6593225 113.989939 31.0167894 113.989939 31.8741286 113.989939 32.5178596 113.206254 33.0889347 112.422569 33.2320668 113.491626 33.4464016 113.705292 33.5895336 113.705292 34.5900049L113.776273 35.5192734C113.776273 35.6624055 113.847978 35.804811 113.989939 35.804811 114.20433 35.804811 114.346291 35.6624055 114.417996 35.4473441L114.702643 35.5192734C114.488977 35.9479431 114.20433 36.1622779 113.705292 36.1622779 112.921607 36.1622779 112.707941 35.6624055 112.707941 35.1618066L112.63696 34.1613353C112.63696 33.5183309 112.208903 33.3039961 111.354237 33.3039961L110.784219 33.3039961 110.784219 35.3761414C110.784219 35.7336082 110.784219 35.804811 111.211552 35.804811L111.496923 35.804811 111.496923 36.0191458 109.003183 36.0191458 109.003183 35.804811ZM110.784219 33.0889347 111.496923 33.0889347C112.208903 33.0889347 112.850626 32.8033972 112.850626 32.0172607 112.850626 31.1599215 112.351589 30.9455866 111.425218 30.9455866L110.784219 30.9455866 110.784219 33.0889347 110.784219 33.0889347ZM118.905715 30.5881198C120.758456 30.5881198 121.613122 31.9460579 121.613122 33.3751988 121.613122 34.8043397 120.758456 36.1622779 118.905715 36.1622779 117.053698 36.1622779 116.199033 34.8043397 116.199033 33.3751988 116.199033 31.9460579 117.053698 30.5881198 118.905715 30.5881198ZM118.905715 35.9479431C120.402104 35.9479431 120.473085 34.232538 120.473085 33.3751988 120.473085 32.4459303 120.402104 30.8024546 118.905715 30.8024546 117.41005 30.8024546 117.338345 32.5178596 117.338345 33.3751988 117.338345 34.232538 117.41005 35.9479431 118.905715 35.9479431L118.905715 35.9479431ZM129.236305 30.9455866 128.951657 30.9455866C128.524325 30.9455866 128.524325 31.1599215 128.524325 31.5173883L128.524325 34.4468729C128.524325 35.3761414 127.81162 36.1622779 126.244251 36.1622779 124.6059 36.1622779 123.893196 35.4473441 123.893196 34.1613353L123.893196 31.445459C123.893196 30.9455866 123.822215 30.9455866 123.536844 30.9455866L123.180492 30.9455866 123.180492 30.6593225 125.603251 30.6593225 125.603251 30.9455866 125.246899 30.9455866C124.962252 30.9455866 124.890547 30.9455866 124.890547 31.445459L124.890547 34.3756701C124.890547 35.1618066 125.033233 35.804811 126.315231 35.804811 127.81162 35.804811 128.167973 35.1618066 128.167973 34.1613353L128.167973 31.5173883C128.167973 31.1599215 128.167973 30.9455866 127.81162 30.9455866L127.384288 30.9455866 127.384288 30.6593225 129.236305 30.6593225 129.236305 30.9455866M130.732694 35.804811 130.94636 35.804811C131.373693 35.804811 131.444674 35.7336082 131.444674 35.4473441L131.444674 31.3742563C131.444674 30.9455866 131.302712 30.9455866 130.94636 30.9455866L130.732694 30.9455866 130.732694 30.6593225 133.154729 30.6593225C134.294766 30.6593225 135.505784 30.9455866 135.505784 32.0884634 135.505784 33.160864 134.223785 33.5183309 133.297415 33.5183309L132.442749 33.5183309 132.442749 35.3761414C132.442749 35.7336082 132.51373 35.804811 132.870082 35.804811L133.154729 35.804811 133.154729 36.0191458 130.732694 36.0191458 130.732694 35.804811ZM132.442749 33.3039961 133.012043 33.3039961C133.867433 33.3039961 134.437452 32.7321944 134.437452 32.0884634 134.437452 31.302327 133.795728 30.9455866 132.870082 30.9455866L132.442749 30.9455866 132.442749 33.3039961 132.442749 33.3039961ZM50.5831668 21.3688169 50.5831668 24.0846932C49.5858155 24.0846932 47.947465 25.0851645 45.667391 25.0851645 39.7542638 25.0851645 38.5432461 21.2256848 38.5432461 19.2247423 38.5432461 16.651998 40.1815966 13.6505842 45.8810574 13.6505842 47.0210944 13.6505842 48.4457785 14.0073245 50.0131483 14.0073245L50.0131483 17.2237997 49.6575205 17.2237997C49.1584827 15.3652626 47.8047793 14.1504566 45.5964103 14.1504566 43.1743748 14.1504566 41.6779857 16.0801964 41.6779857 19.1535395 41.6779857 22.0830241 42.8180227 24.5133628 45.9527624 24.5133628 46.7364473 24.5133628 47.4484272 24.3702307 47.87576 23.9415611L47.87576 21.3688169C47.87576 20.5826804 47.6620936 20.2964163 46.6647423 20.2252135L46.6647423 19.8677467C47.1637801 19.939676 48.3747978 19.939676 49.4431298 19.939676 50.4412054 19.939676 51.295871 19.939676 51.9368702 19.8677467L51.9368702 20.2252135C50.8685382 20.2964163 50.5831668 20.7258125 50.5831668 21.3688169M62.124774 23.5840943 62.124774 17.9380069C62.124774 17.2950025 61.9111076 17.0094649 61.1274227 17.0094649L61.1274227 16.651998C61.6264605 16.7232008 62.4811261 16.7232008 62.7657732 16.7232008 63.0511446 16.7232008 63.8348295 16.7232008 64.1911816 16.651998L69.4633095 22.726755 69.4633095 18.0099362C69.4633095 17.2950025 69.2489188 17.0094649 68.3942532 17.0094649L68.3942532 16.651998C68.821586 16.7232008 69.3206238 16.7232008 69.6769759 16.7232008 70.1043087 16.7232008 70.6026223 16.7232008 71.1016601 16.651998L71.1016601 17.0094649C70.2462702 17.0094649 70.0326038 17.2950025 70.0326038 17.9380069L70.0326038 25.0132351 68.821586 25.0132351 62.6947925 18.224271 62.7657732 23.5128915C62.7657732 24.3702307 63.0511446 24.5133628 63.7638488 24.5133628L63.7638488 24.8708297C63.4074967 24.8708297 62.7657732 24.8708297 62.4811261 24.8708297 62.196479 24.8708297 61.4837748 24.8708297 61.1274227 24.8708297L61.1274227 24.5133628C61.9111076 24.5133628 62.124774 24.2270987 62.124774 23.5840943M73.0963627 23.5840943 73.0963627 18.0099362C73.0963627 17.3669318 72.8826963 17.0806676 72.0280307 17.0806676L72.0280307 16.7232008C72.4553635 16.7232008 73.1673434 16.7232008 73.8090669 16.7232008 75.8747502 16.7232008 78.1548242 16.7232008 79.4368226 16.7232008L79.4368226 18.6529406 79.0094898 18.6529406C78.8675284 17.5093373 78.2258049 17.1518704 76.6584351 17.1518704L75.233751 17.1518704 75.233751 20.4395484 76.5157494 20.4395484C77.7274914 20.4395484 77.9411578 20.0820815 78.0121385 19.3678743L78.4394713 19.3678743C78.4394713 19.7965439 78.4394713 20.2252135 78.4394713 20.5826804 78.4394713 21.1544821 78.4394713 21.5831517 78.4394713 22.0118213L78.0121385 22.0118213C78.0121385 21.1544821 77.6557864 20.9401473 76.5157494 20.9401473L75.233751 20.9401473 75.233751 23.655297C75.233751 24.1558959 75.8037695 24.4414335 77.0147872 24.4414335 78.3684906 24.4414335 79.2948612 24.2270987 79.6512133 22.7979578L80.0785461 22.7979578C80.0068411 23.2985567 79.8648797 24.299028 79.8648797 24.8708297 78.582157 24.8708297 76.2311023 24.8708297 74.1646947 24.8708297 73.0963627 24.8708297 72.2416971 24.8708297 72.0280307 24.8708297L72.0280307 24.5845655C72.8826963 24.5133628 73.0963627 24.299028 73.0963627 23.5840943M53.2195929 23.5840943 53.2195929 18.0099362C53.2195929 17.3669318 52.9342215 17.0806676 52.0795559 17.0806676L52.0795559 16.7232008C52.5068887 16.7232008 53.2195929 16.7232008 53.9315728 16.7232008 55.9262754 16.7232008 58.2780545 16.7232008 59.4890722 16.7232008L59.5600529 18.6529406 59.1327201 18.6529406C58.9190537 17.5093373 58.3490352 17.1518704 56.7816653 17.1518704L55.2852762 17.1518704 55.2852762 20.4395484 56.6389796 20.4395484C57.8499974 20.4395484 57.9926831 20.0820815 58.0643881 19.3678743L58.5627016 19.3678743C58.5627016 19.7965439 58.4917209 20.2252135 58.4917209 20.5826804 58.4917209 21.1544821 58.5627016 21.5831517 58.5627016 22.0118213L58.0643881 22.0118213C58.0643881 21.1544821 57.7790167 20.9401473 56.6389796 20.9401473L55.2852762 20.9401473 55.2852762 23.655297C55.2852762 24.1558959 55.8552947 24.4414335 57.0663125 24.4414335 58.4200159 24.4414335 59.4173672 24.2270987 59.7027386 22.7979578L60.1300714 22.7979578C60.0590907 23.2985567 59.9873857 24.299028 59.9873857 24.8708297 58.7053873 24.8708297 56.2826275 24.8708297 54.2169442 24.8708297 53.2195929 24.8708297 52.364203 24.8708297 52.0795559 24.8708297L52.0795559 24.5845655C52.9342215 24.5133628 53.2195929 24.299028 53.2195929 23.5840943M107.435813 22.7979578C107.151166 24.2270987 106.295776 24.4414335 104.586445 24.4414335 103.446408 24.4414335 103.090056 24.2270987 103.090056 23.5840943L103.090056 18.0099362C103.090056 17.3669318 103.303722 17.0806676 104.158388 17.0806676L104.158388 16.7232008C103.090056 16.7232008 102.662723 16.7232008 102.23539 16.7232008 101.807333 16.7232008 100.880962 16.7232008 99.8836109 16.7232008L99.8836109 17.0806676C100.739001 17.0806676 100.952667 17.3669318 100.952667 18.0099362L100.952667 23.5840943C100.952667 24.2270987 100.667296 24.5133628 99.8836109 24.5133628 99.3852974 24.5133628 99.0289453 24.299028 98.7442982 23.7272263L95.03954 16.5807953 94.6122072 16.5807953 91.619429 22.8691605C91.0501348 24.0127639 90.7647634 24.4414335 90.2664499 24.4414335 89.8383928 24.4414335 89.41106 24.1558959 89.1264129 23.655297L87.4163574 20.868218C88.6273751 20.5107511 89.3400793 19.5822091 89.3400793 18.7960727 89.3400793 17.4381345 88.1290616 16.7232008 85.7780069 16.7232008 84.922617 16.7232008 83.4979329 16.7232008 82.6432672 16.7232008 82.1442294 16.7232008 81.5742109 16.7232008 81.0041924 16.7232008L81.0041924 17.0806676C81.8595823 17.0806676 82.0732487 17.3669318 82.0732487 18.0099362L82.0732487 23.5840943C82.0732487 24.299028 81.8595823 24.5133628 81.0041924 24.5845655L81.0041924 24.8708297C82.0732487 24.8708297 82.5715623 24.8708297 82.9996193 24.8708297 83.4269522 24.8708297 84.2106371 24.8708297 85.2789691 24.8708297L85.2789691 24.5845655C84.4243035 24.5133628 84.2106371 24.299028 84.2106371 23.5840943L84.2106371 17.1518704C84.3525985 17.1518704 84.6379699 17.0806676 84.922617 17.0806676 86.6326725 17.0806676 86.9890246 18.0811389 86.9890246 18.9384782 86.9890246 20.0820815 86.4190061 20.7258125 85.2079884 20.7258125L84.8516363 20.7258125 84.8516363 20.9401473C85.2079884 21.01135 85.5643405 21.4400196 85.9199683 22.1549534L86.5616918 23.2985567C87.3453767 24.6557683 88.5563944 24.9420324 90.3374306 24.9420324 90.551097 24.9420324 91.3347819 24.8708297 91.3347819 24.8708297 91.619429 24.8708297 91.8330954 24.8708297 92.9021517 24.8708297L92.9021517 24.5845655C92.0474861 24.5133628 91.9048004 24.4414335 91.9048004 24.0846932 91.9048004 24.0127639 91.9048004 23.7984291 92.2611525 23.0122926L92.6167803 22.0830241 95.6805393 22.0830241 96.1795771 23.1554246C96.4642242 23.7272263 96.5352049 24.0127639 96.5352049 24.0846932 96.5352049 24.4414335 96.3932435 24.5845655 95.6095586 24.5845655L95.6095586 24.8708297C96.5352049 24.8708297 97.5325562 24.8708297 98.031594 24.8708297 98.5306318 24.8708297 99.0289453 24.8708297 99.7416495 24.8708297 99.7416495 24.8708297 101.593666 24.8708297 101.950019 24.8708297 104.443759 24.8708297 106.367481 24.8708297 107.649479 24.8708297L107.863146 22.7979578 107.435813 22.7979578ZM92.831171 21.6543544 94.0421887 18.7241433 95.4668729 21.6543544 92.831171 21.6543544 92.831171 21.6543544ZM27.5716574 9.93423662 27.5716574 4.28814924C27.5716574 3.64514482 27.357991 3.35888071 26.5033254 3.35888071L26.5033254 3.00141384C26.9306582 3.00141384 27.6426381 3.07334315 28.2843616 3.07334315 30.3500449 3.07334315 32.630119 3.00141384 33.8411367 3.00141384L33.9121174 4.93115366 33.4847846 4.93115366C33.2711182 3.85947963 32.7010997 3.43081001 31.1337298 3.43081001L29.7090457 3.43081001 29.7090457 6.78969072 30.9910441 6.78969072C32.2020619 6.78969072 32.4164526 6.36029455 32.4874333 5.64608738L32.9147661 5.64608738C32.9147661 6.074757 32.9147661 6.50342661 32.9147661 6.93209622 32.9147661 7.43269514 32.9147661 7.86136475 32.9147661 8.36196367L32.4874333 8.36196367C32.4874333 7.43269514 32.1310812 7.21836033 30.9910441 7.21836033L29.7090457 7.21836033 29.7090457 9.93423662C29.7090457 10.434109 30.2073592 10.7203731 31.4900819 10.7203731 32.8437854 10.7203731 33.770156 10.5060383 34.0548031 9.07617084L34.5538409 9.07617084C34.4821359 9.64797251 34.3401745 10.577241 34.3401745 11.1490427 33.0574518 11.1490427 30.706397 11.1490427 28.6399894 11.1490427 27.5716574 11.1490427 26.7169918 11.1490427 26.5033254 11.2202455L26.5033254 10.8635052C27.357991 10.7915758 27.5716574 10.577241 27.5716574 9.93423662M23.93788 9.86230731 23.93788 4.21694649C23.93788 3.50201276 24.1522707 3.35888071 24.7932699 3.35888071L24.7932699 3.00141384C24.2942321 3.00141384 23.6532329 3.07334315 23.2968808 3.07334315 22.9405287 3.07334315 22.1568438 3.00141384 21.729511 3.00141384L18.8084377 9.2912322 16.0300502 3.00141384C15.5317367 3.00141384 14.6053661 3.07334315 14.320719 3.07334315 13.9643669 3.07334315 13.3226434 3.00141384 12.8953106 3.00141384L12.8953106 3.35888071C13.7507005 3.43081001 13.8926619 3.50201276 13.8926619 4.28814924 13.8926619 4.6456161 13.8926619 5.00308297 13.8926619 5.35982327L13.7507005 9.64797251C13.7507005 10.2917035 13.5370341 10.7915758 13.0379963 10.7915758 13.0379963 10.7915758 13.0379963 10.7915758 12.9670156 10.7915758 12.4679778 10.7203731 12.1833307 10.2197742 11.8979593 9.64797251L6.91120275 1.15463195e-14 6.48314565 1.15463195e-14 2.56544541 8.50436917C1.56736981 10.577241 1.211742 10.7203731-3.37507799e-14 10.7915758L-3.37507799e-14 11.1490427C1.42540841 11.1490427 1.63907481 11.1490427 2.06640761 11.1490427 2.49374042 11.1490427 2.56544541 11.1490427 4.06111023 11.1490427L4.06111023 10.7915758C3.06375892 10.7915758 2.77911182 10.6484438 2.77911182 10.2197742 2.77911182 10.0054394 2.77911182 9.79110457 3.27742532 8.71870398L3.77646312 7.43269514 7.90855406 7.43269514 8.69223896 8.93303878C9.04786677 9.64797251 9.19055247 10.0054394 9.19055247 10.2197742 9.19055247 10.6484438 8.83420037 10.7915758 7.90855406 10.7915758L7.90855406 11.1490427C9.11957177 11.1490427 10.4015702 11.1490427 11.1142744 11.1490427 11.5416072 11.1490427 11.8979593 11.1490427 12.4679778 11.1490427L13.8216812 11.1490427C13.8926619 11.1490427 13.9643669 11.1490427 14.0353476 11.1490427 14.5343854 11.1490427 15.0326989 11.1490427 15.5317367 11.2202455L15.5317367 10.8635052C14.6763468 10.7915758 14.3916997 10.577241 14.3916997 10.0054394L14.3916997 4.4312813 14.4626804 4.4312813 17.5264393 11.1490427 18.5237906 11.1490427 21.729511 4.07381443 21.801216 4.07381443 21.801216 9.71990182C21.801216 10.6484438 21.6585303 10.7915758 20.7321597 10.8635052L20.7321597 11.2202455C21.4448639 11.1490427 22.3705102 11.1490427 22.869548 11.1490427 23.4395665 11.1490427 24.4369178 11.1490427 25.077917 11.2202455L25.077917 10.8635052C24.2232514 10.7915758 23.93788 10.6484438 23.93788 9.86230731ZM3.99012953 6.93209622 5.69946075 2.78707904 7.69488766 6.93209622 3.99012953 6.93209622 3.99012953 6.93209622ZM50.0131483 3.35888071 50.0131483 3.00141384C48.9448163 3.00141384 48.5174835 3.07334315 48.0901507 3.07334315 47.6620936 3.07334315 46.807428 3.00141384 45.739096 3.00141384L45.739096 3.35888071C46.5937616 3.35888071 46.807428 3.64514482 46.807428 4.28814924L46.807428 9.93423662C46.807428 10.5060383 46.5227809 10.8635052 45.8810574 10.8635052 45.8100767 10.8635052 45.8100767 10.8635052 45.5247053 10.8635052 44.955411 10.7915758 44.3136875 10.6484438 43.8863547 9.93423662L42.1762992 7.14643103C43.3880412 6.78969072 44.1000211 5.93162494 44.1000211 5.14548846 44.1000211 3.71634757 42.8180227 3.00141384 40.5379487 3.00141384 39.6832831 3.00141384 38.258599 3.07334315 37.4032091 3.07334315 36.9048956 3.07334315 36.3348771 3.00141384 35.7648586 3.00141384L35.7648586 3.35888071C36.6195242 3.35888071 36.8331906 3.64514482 36.8331906 4.28814924L36.8331906 9.93423662C36.8331906 10.577241 36.6195242 10.8635052 35.7648586 10.8635052L35.7648586 11.2202455C36.7622099 11.1490427 37.3322284 11.1490427 37.7595612 11.1490427 38.186894 11.1490427 38.9705789 11.1490427 40.0396352 11.2202455L40.0396352 10.8635052C39.1842453 10.8635052 38.9705789 10.577241 38.9705789 9.93423662L38.9705789 3.50201276C39.1132646 3.43081001 39.3979117 3.43081001 39.6832831 3.43081001 41.3926143 3.43081001 41.7489664 4.4312813 41.7489664 5.21741777 41.7489664 6.36029455 41.1789479 7.00402553 39.9679302 7.00402553L39.6115781 7.00402553 39.6115781 7.21836033C39.9679302 7.28956308 40.3242823 7.790162 40.6806344 8.50436917L41.3216336 9.57676976C42.1053185 11.0059107 43.2453555 11.1490427 45.0263918 11.1490427 45.0973725 11.1490427 46.0947238 11.1490427 46.2374095 11.1490427 47.0210944 11.1490427 47.7337986 11.1490427 48.0901507 11.1490427 48.5174835 11.1490427 48.9448163 11.1490427 50.0131483 11.2202455L50.0131483 10.8635052C49.1584827 10.7915758 48.9448163 10.577241 48.9448163 9.93423662L48.9448163 4.28814924C48.9448163 3.64514482 49.1584827 3.35888071 50.0131483 3.35888071M76.7294158 3.00141384C76.373788 3.00141384 75.8747502 3.00141384 75.3764367 3.00141384L75.3764367 3.35888071C76.302083 3.35888071 76.4447687 3.64514482 76.4447687 4.28814924L76.5157494 9.07617084 71.1726408 3.00141384C70.8162887 3.00141384 70.1043087 3.00141384 69.8189374 3.00141384 69.4633095 3.00141384 68.6789003 3.00141384 68.1096061 3.00141384L68.1096061 3.35888071C68.9642717 3.35888071 69.1779381 3.64514482 69.1779381 4.28814924L69.1779381 9.93423662C69.1779381 10.434109 69.0352524 10.7915758 68.2515675 10.7915758 67.8959397 10.7915758 67.6105683 10.5060383 67.3259212 10.0054394L63.6211631 2.85900835 63.1938303 2.85900835 60.2010521 9.14810015C59.4173672 10.7203731 57.9926831 10.8635052 56.9953317 10.8635052 54.7152577 10.8635052 53.5752207 8.86183603 53.5752207 6.71776141 53.5752207 4.50248405 54.7152577 3.35888071 56.4970182 3.35888071 58.0643881 3.35888071 59.3463865 4.07381443 59.7737193 5.57415808L60.1300714 5.57415808 60.1300714 3.1445459C59.1327201 3.1445459 57.4943695 2.85900835 56.7106846 2.85900835 52.5068887 2.85900835 51.0822046 5.07428571 51.0822046 7.00402553 51.0822046 8.29003436 51.7232038 11.2921748 56.2826275 11.2921748 56.852646 11.2921748 57.3516838 11.2921748 57.8499974 11.1490427 58.848073 11.1490427 59.6317579 11.1490427 59.916405 11.1490427 60.2727571 11.1490427 60.3437378 11.1490427 61.4837748 11.2202455L61.4837748 10.8635052C60.7000899 10.8635052 60.5574042 10.7203731 60.5574042 10.434109 60.5574042 10.2917035 60.5574042 10.1485714 60.9137563 9.36243495L61.2701084 8.43316642 64.2621623 8.43316642 64.8321808 9.50556701C65.1168279 10.0773687 65.1885329 10.2917035 65.1885329 10.434109 65.1885329 10.7203731 64.9748665 10.8635052 64.2621623 10.8635052L64.2621623 11.1490427C65.1885329 11.1490427 66.1141792 11.1490427 66.613217 11.1490427 67.0405498 11.1490427 68.7506053 11.1490427 68.7506053 11.1490427 69.0352524 11.1490427 69.3206238 11.1490427 69.4633095 11.1490427 69.7479566 11.1490427 70.4606609 11.1490427 70.8162887 11.2202455L70.8162887 10.8635052C70.0326038 10.7915758 69.8189374 10.6484438 69.7479566 9.79110457L69.6769759 4.50248405 75.8747502 11.2921748 77.0857679 11.2921748 77.0857679 4.21694649C77.0857679 3.57321551 77.2994343 3.35888071 78.0831192 3.35888071L78.0831192 3.00141384C77.5848057 3.00141384 77.1574729 3.00141384 76.7294158 3.00141384ZM61.4127941 8.00449681 62.6238118 5.00308297 64.0484959 8.00449681 61.4127941 8.00449681 61.4127941 8.00449681Z"/><polygon points="33.841 36.019 34.197 36.019 34.197 13.722 33.841 13.722"/></g></svg>