<svg width="130" height="73" viewBox="0 0 130 73" fill="none" xmlns="http://www.w3.org/2000/svg">
<path fill-rule="evenodd" clip-rule="evenodd" d="M26.1599 38.1027H25.6589C25.6028 37.2067 25.6589 36.6106 24.1725 36.6106H21.3489V45.8851C21.3489 47.0443 22.0544 47.0631 23.0398 47.0764V47.5096C22.1474 47.5096 21.3489 47.4775 20.5294 47.4775C19.6388 47.4775 18.7648 47.4923 17.8365 47.5096V47.0764C18.8219 47.0631 19.5282 47.0443 19.5282 45.8851V36.6106H17.0951C15.4227 36.6106 15.3481 37.0234 15.0304 38.1027H14.5479L14.7523 35.4631H15.1243C15.3288 35.9127 15.8307 35.93 16.2931 35.93H24.7306C25.401 35.93 25.8616 35.7796 25.9397 35.4631H26.3284L26.1599 38.1027Z" fill="white"/>
<path fill-rule="evenodd" clip-rule="evenodd" d="M28.0835 39.224C27.7334 39.224 27.4965 39.2616 27.2473 39.2984V42.9421C27.4552 42.9813 27.7474 43.0063 27.9843 43.0063C29.6989 43.0063 30.3675 41.9951 30.3675 41.1015C30.3675 40.0214 29.7252 39.224 28.0835 39.224V39.224ZM27.2473 43.4019V46.289C27.2473 47.1623 27.7764 47.1709 28.5134 47.1858V47.5093C27.8448 47.5093 27.2473 47.4842 26.6339 47.4842C25.9653 47.4842 25.309 47.4967 24.6123 47.5093V47.1858C25.309 47.2234 25.8793 47.0636 25.8793 46.3532V40.0441C25.8793 39.1755 25.3529 39.1621 24.6123 39.1488V38.8277C25.3783 38.8379 26.0487 38.852 26.7313 38.852C27.2201 38.852 27.7053 38.8277 28.5977 38.8277C31.23 38.8277 31.817 40.1436 31.817 41.0286C31.817 42.086 30.9264 42.8677 29.8375 43.1552C31.1054 44.8094 31.774 45.8049 32.3742 46.401C32.8199 46.8498 33.2385 47.1858 33.9492 47.1858V47.5093C33.5991 47.5093 33.2516 47.4842 32.9033 47.4842C32.5128 47.4842 32.1092 47.4967 31.7187 47.5093C30.4499 46.2647 29.5163 44.8094 28.5134 43.4019H27.2473Z" fill="white"/>
<path fill-rule="evenodd" clip-rule="evenodd" d="M35.6195 43.7399H38.4905L36.9971 40.0837H36.9716L35.6195 43.7399ZM40.3568 45.0339C40.5516 45.5187 40.928 46.5745 41.1518 46.8494C41.3606 47.0985 41.7774 47.1854 42.224 47.1854V47.5097C41.6949 47.5097 41.1518 47.4839 40.6236 47.4839C39.9383 47.4839 39.2706 47.4956 38.5888 47.5097V47.1854H38.8371C39.1872 47.1854 39.6049 47.1236 39.6049 46.7742C39.6049 46.6372 39.4934 46.2886 39.3952 46.0529L38.7002 44.249H35.4256L35.1202 45.1216C34.9377 45.6424 34.7421 46.2158 34.7421 46.6027C34.7421 47.1854 35.201 47.162 35.688 47.1854H36.0082V47.5097C35.4651 47.5097 34.9088 47.4839 34.3648 47.4839C33.8085 47.4839 33.2364 47.4956 32.6792 47.5097V47.1854C33.5294 47.0985 33.683 46.999 34.0331 46.3035C34.2525 45.8531 34.4227 45.3714 34.6017 44.9077L36.3846 40.469C36.497 40.1808 36.6803 39.7203 36.6803 39.349C36.6803 39.2229 36.6803 39.125 36.6514 39.0247C36.9436 38.9002 37.2638 38.7639 37.4586 38.4772H37.6947L40.3568 45.0339Z" fill="white"/>
<path fill-rule="evenodd" clip-rule="evenodd" d="M51.8661 47.6226H51.5458L44.2604 40.4801V45.1217C44.2604 46.8394 44.413 47.1863 45.917 47.1863V47.5098C45.3037 47.5098 44.6789 47.4832 44.0638 47.4832C43.4522 47.4832 42.824 47.4957 42.2107 47.5098V47.1863C43.0609 47.1863 43.7006 47.1863 43.7006 45.6081V40.6039C43.7006 39.5347 43.1846 39.1486 41.9878 39.1486V38.8275C42.4204 38.8376 42.8398 38.8525 43.2706 38.8525C43.6462 38.8525 44.0366 38.8275 44.413 38.8275C44.9851 39.5841 46.2794 40.7174 47.8675 42.284C49.0538 43.4557 50.3621 44.6846 51.3089 45.6081V40.6563C51.3089 39.5089 51.0158 39.1619 49.6233 39.1486V38.8275C50.2656 38.8376 50.9193 38.8525 51.5607 38.8525C52.103 38.8525 52.6338 38.8275 53.177 38.8275V39.1486C52.3258 39.1486 51.8661 39.2112 51.8661 40.4316V47.6226Z" fill="white"/>
<path fill-rule="evenodd" clip-rule="evenodd" d="M53.7471 45.4563H54.0665C54.3034 46.3884 55.0834 47.2985 56.2408 47.2985C57.3139 47.2985 58.1483 46.6265 58.1483 45.6412C58.1483 43.329 54.0252 44.0136 54.0252 41.0772C54.0252 39.4738 55.3072 38.642 57.0085 38.642C57.578 38.642 58.1483 38.7533 58.7064 38.8277L58.9301 40.4161H58.609C58.4537 39.5483 57.8158 39.0384 56.812 39.0384C55.7538 39.0384 55.1387 39.7206 55.1387 40.6315C55.1387 42.9421 59.432 42.3084 59.432 45.1681C59.432 46.7886 57.8009 47.6949 56.1557 47.6949C55.4309 47.6949 54.6789 47.5453 54.0252 47.2704L53.7471 45.4563Z" fill="white"/>
<path fill-rule="evenodd" clip-rule="evenodd" d="M62.5643 43.7399H65.4362L63.9463 40.0837H63.9182L62.5643 43.7399ZM67.3043 45.0339C67.4982 45.5187 67.8737 46.5745 68.0984 46.8494C68.3081 47.0985 68.7249 47.1854 69.1706 47.1854V47.5097C68.6398 47.5097 68.0984 47.4839 67.5684 47.4839C66.8866 47.4839 66.2171 47.4956 65.5336 47.5097V47.1854H65.7846C66.1329 47.1854 66.5497 47.1236 66.5497 46.7742C66.5497 46.6372 66.4391 46.2886 66.3417 46.0529L65.6459 44.249H62.3704L62.0633 45.1216C61.8834 45.6424 61.6878 46.2158 61.6878 46.6027C61.6878 47.1854 62.1484 47.162 62.6363 47.1854H62.9566V47.5097C62.4125 47.5097 61.8554 47.4839 61.314 47.4839C60.7533 47.4839 60.183 47.4956 59.624 47.5097V47.1854C60.476 47.0985 60.6287 46.999 60.9762 46.3035C61.2008 45.8531 61.3666 45.3714 61.5491 44.9077L63.3321 40.469C63.4453 40.1808 63.6243 39.7203 63.6243 39.349C63.6243 39.2229 63.6243 39.125 63.5962 39.0247C63.8884 38.9002 64.2087 38.7639 64.4061 38.4772H64.6412L67.3043 45.0339Z" fill="white"/>
<path fill-rule="evenodd" clip-rule="evenodd" d="M75.7462 45.8051C77.0009 43.4765 78.353 41.187 79.5095 38.8279C79.8859 38.8381 80.2755 38.8514 80.6511 38.8514C81.0565 38.8514 81.4741 38.8279 81.8777 38.8279V39.149C81.4048 39.149 81.0837 39.1756 80.902 39.2978C80.7195 39.4216 80.6388 39.6362 80.6388 40.0443C80.6388 42.0095 80.7643 44.0984 80.8195 45.9774C80.8459 46.9111 80.9441 47.186 82.3375 47.186V47.5095C81.5715 47.5095 80.8029 47.4836 80.0395 47.4836C79.356 47.4836 78.6865 47.4961 78.0047 47.5095V47.186C78.4926 47.186 78.8392 47.186 79.0778 47.074C79.327 46.9487 79.4411 46.7129 79.4411 46.2296L79.3402 40.2933H79.313L76.0243 46.3878C75.8734 46.6878 75.5944 47.298 75.4812 47.6222H75.2039C74.0202 45.2443 72.6821 42.9165 71.3589 40.5675H71.3317L71.2185 45.0712C71.2185 45.2325 71.2054 45.6813 71.2054 45.8529C71.2054 46.4646 71.2756 46.7998 71.4976 46.9714C71.7213 47.1476 72.0679 47.186 72.6251 47.186V47.5095C72.0556 47.5095 71.4713 47.4836 70.8974 47.4836C70.2858 47.4836 69.6593 47.4961 69.0469 47.5095V47.186C70.0349 47.186 70.6465 46.9714 70.7026 45.3085C70.7588 43.6018 70.857 41.9108 70.857 40.2072C70.857 39.7701 70.786 39.4952 70.5903 39.348C70.3964 39.1999 70.091 39.149 69.6313 39.149V38.8279C70.1182 38.8381 70.6193 38.8514 71.1054 38.8514C71.4002 38.8514 71.7055 38.8279 71.9986 38.8279L75.7462 45.8051Z" fill="white"/>
<path fill-rule="evenodd" clip-rule="evenodd" d="M85.7926 42.7555H87.6343C88.7627 42.7555 88.7627 41.9738 88.8031 41.6872H89.0813C89.0532 41.9605 89.0277 42.6333 89.0277 43.0814C89.0277 43.4769 89.097 44.0636 89.0813 44.4615H88.8031C88.8031 43.2678 88.3582 43.2678 87.2834 43.2678H85.7926V45.3818C85.7926 46.7642 85.8487 47.112 87.2281 47.112H88.0933C89.4568 47.0493 90.0728 46.8864 90.6141 45.5541L90.9493 45.6081C90.7256 46.2308 90.5194 46.8629 90.3764 47.5099C88.9856 47.5099 87.5922 47.484 86.198 47.484C85.167 47.484 84.136 47.484 83.105 47.5099V47.1856C84.3185 47.1856 84.4299 46.9859 84.4299 45.7805V40.2554C84.4299 39.2364 84.2062 39.1855 83.105 39.1494V38.8275C84.0395 38.8526 84.9862 38.8526 85.9181 38.8526C87.257 38.8526 88.582 38.8526 89.9324 38.8275V40.6823L89.6516 40.7434C89.4436 39.574 88.8171 39.2238 87.4229 39.2238H85.7926V42.7555Z" fill="white"/>
<path fill-rule="evenodd" clip-rule="evenodd" d="M95.0715 39.224C94.724 39.224 94.4871 39.2616 94.2362 39.2984V42.9421C94.4459 42.9813 94.7389 43.0063 94.9759 43.0063C96.6895 43.0063 97.3564 41.9951 97.3564 41.1015C97.3564 40.0214 96.7149 39.224 95.0715 39.224V39.224ZM94.2361 43.4019V46.289C94.2361 47.1623 94.7652 47.1709 95.5032 47.1858V47.5093C94.8363 47.5093 94.2361 47.4842 93.6219 47.4842C92.9542 47.4842 92.2996 47.4967 91.6021 47.5093V47.1858C92.2996 47.2234 92.8708 47.0636 92.8708 46.3532V40.0441C92.8708 39.1755 92.3417 39.1621 91.6021 39.1488V38.8277C92.3689 38.8379 93.0384 38.852 93.7211 38.852C94.2081 38.852 94.6942 38.8277 95.5865 38.8277C98.2197 38.8277 98.8076 40.1436 98.8076 41.0286C98.8076 42.086 97.9144 42.8677 96.8272 43.1552C98.0934 44.8094 98.762 45.8049 99.3648 46.401C99.8088 46.8498 100.228 47.1858 100.939 47.1858V47.5093C100.589 47.5093 100.241 47.4842 99.8939 47.4842C99.5017 47.4842 99.0998 47.4967 98.7085 47.5093C97.4388 46.2647 96.507 44.8094 95.5032 43.4019H94.2361Z" fill="white"/>
<path fill-rule="evenodd" clip-rule="evenodd" d="M102.163 40.044C102.163 39.1762 101.635 39.1621 100.897 39.1488V38.8276C101.551 38.8386 102.19 38.8519 102.818 38.8519C103.459 38.8519 104.102 38.8386 104.797 38.8276V39.1488C104.058 39.1621 103.529 39.1762 103.529 40.044V46.2889C103.529 47.1615 104.058 47.1716 104.797 47.1857V47.5092C104.127 47.5092 103.529 47.4834 102.916 47.4834C102.249 47.4834 101.595 47.4967 100.897 47.5092V47.1857C101.635 47.1716 102.163 47.1615 102.163 46.2889V40.044Z" fill="white"/>
<path fill-rule="evenodd" clip-rule="evenodd" d="M114.438 41.0781H114.088C113.824 39.6221 112.666 39.0378 111.108 39.0378C109.504 39.0378 107.177 39.9957 107.177 42.9822C107.177 45.4941 109.185 47.2987 111.329 47.2987C112.709 47.2987 113.852 46.4513 114.129 45.1456L114.453 45.22L114.129 47.0348C113.545 47.3598 111.97 47.6951 111.052 47.6951C107.79 47.6951 105.731 45.816 105.731 43.0198C105.731 40.4695 108.278 38.6422 111.01 38.6422C112.14 38.6422 113.224 38.961 114.298 39.2986L114.438 41.0781Z" fill="white"/>
<path fill-rule="evenodd" clip-rule="evenodd" d="M117.474 43.7399H120.344L118.853 40.0837H118.828L117.474 43.7399ZM122.21 45.0339C122.406 45.5187 122.782 46.5745 123.005 46.8494C123.213 47.0985 123.633 47.1854 124.078 47.1854V47.5097C123.549 47.5097 123.005 47.4839 122.478 47.4839C121.794 47.4839 121.126 47.4956 120.442 47.5097V47.1854H120.691C121.042 47.1854 121.458 47.1236 121.458 46.7742C121.458 46.6372 121.348 46.2886 121.251 46.0529L120.555 44.249H117.28L116.974 45.1216C116.791 45.6424 116.597 46.2158 116.597 46.6027C116.597 47.1854 117.057 47.162 117.545 47.1854H117.864V47.5097C117.322 47.5097 116.764 47.4839 116.222 47.4839C115.664 47.4839 115.092 47.4956 114.533 47.5097V47.1854C115.385 47.0985 115.539 46.999 115.888 46.3035C116.109 45.8531 116.276 45.3714 116.459 44.9077L118.24 40.469C118.351 40.1808 118.535 39.7203 118.535 39.349C118.535 39.2229 118.535 39.125 118.507 39.0247C118.798 38.9002 119.119 38.7639 119.313 38.4772H119.55L122.21 45.0339Z" fill="white"/>
<mask id="mask0" mask-type="alpha" maskUnits="userSpaceOnUse" x="6" y="22" width="9" height="26">
<path fill-rule="evenodd" clip-rule="evenodd" d="M6.60596 22.7347H14.6204V47.7761H6.60596V22.7347Z" fill="white"/>
</mask>
<g mask="url(#mask0)">
<path fill-rule="evenodd" clip-rule="evenodd" d="M10.6958 36.2845H11.3828L11.424 36.9464H10.6958V36.2845ZM10.6958 35.1324H11.3109L11.3521 35.7942H10.6958V35.1324ZM10.6958 33.9559H11.238L11.281 34.6428H10.6958V33.9559ZM10.6958 32.8296H11.1678L11.2073 33.4656H10.6958V32.8296ZM10.6958 31.6774H11.0968L11.1371 32.3393H10.6958V31.6774ZM14.538 47.2869H10.6957V46.6251H14.4284L14.3459 46.1332H10.6957V45.4729H14.2634L14.1818 44.9826H10.6957V44.3215H14.0721L13.9888 43.832H10.6957V43.1928H13.88L13.7966 42.7033H10.6957V42.0415H13.715L13.6325 41.5511H10.6957V40.8901H13.5237L13.4404 40.4005H10.6957V39.7379H13.3298L13.2473 39.2484H10.6957V38.5881H13.1657L13.0832 38.0978H10.6957V37.4367H12.9736L12.8902 36.9464H11.5872L11.9847 30.5261H11.0248L11.066 31.1879H10.6957V22.7343L9.42343 30.5261H8.55476L8.79342 34.3781L6.60596 47.7764H10.4764H10.6957H14.6205L14.538 47.2869Z" fill="white"/>
</g>
<path fill-rule="evenodd" clip-rule="evenodd" d="M12.6983 35.7943H12.1771L12.1499 36.2838H12.7817L12.6983 35.7943Z" fill="white"/>
<path fill-rule="evenodd" clip-rule="evenodd" d="M12.5338 34.6423H12.26L12.2319 35.1318H12.6171L12.5338 34.6423Z" fill="white"/>
<path fill-rule="evenodd" clip-rule="evenodd" d="M121.509 39.429C121.509 38.8494 122.035 38.3763 122.687 38.3763C123.336 38.3763 123.867 38.8494 123.867 39.429C123.867 40.0102 123.336 40.4825 122.687 40.4825C122.035 40.4825 121.509 40.0086 121.509 39.429M121.293 39.429C121.293 40.1151 121.919 40.6736 122.687 40.6736C123.455 40.6736 124.079 40.1151 124.079 39.429C124.079 38.7436 123.455 38.186 122.687 38.186C121.919 38.186 121.293 38.7436 121.293 39.429" fill="white"/>
<path fill-rule="evenodd" clip-rule="evenodd" d="M122.34 40.0142V39.4996H122.756C122.83 39.4996 122.885 39.5074 122.919 39.5207C122.981 39.5482 123.013 39.5999 123.017 39.6797L123.027 39.8795C123.031 39.9265 123.033 39.9594 123.038 39.9742C123.041 39.9907 123.046 40.0032 123.052 40.0142H123.275V39.9883C123.248 39.9774 123.228 39.9515 123.217 39.9132C123.209 39.8912 123.206 39.8568 123.204 39.8113L123.199 39.65C123.194 39.5795 123.18 39.5309 123.154 39.4996C123.126 39.4683 123.087 39.4432 123.035 39.4236C123.094 39.3954 123.143 39.3602 123.174 39.3124C123.207 39.267 123.225 39.209 123.225 39.1362C123.225 38.9975 123.162 38.9043 123.035 38.8526C122.967 38.8252 122.883 38.8127 122.78 38.8127H122.157V40.0142H122.34ZM122.34 38.9521H122.785C122.848 38.9521 122.898 38.9607 122.936 38.9772C123.003 39.0077 123.039 39.0657 123.039 39.151C123.039 39.2309 123.015 39.2865 122.964 39.3163C122.915 39.3476 122.846 39.3641 122.76 39.3641H122.34V38.9521Z" fill="white"/>
</svg>
