<svg xmlns="http://www.w3.org/2000/svg" width="98" height="49" viewBox="0 0 98 49"><path fill="#FFF" fill-rule="evenodd" d="M50.7182846,2.30846416 C55.2729917,2.30846416 59.6700291,2.97423356 63.8208182,4.2066892 C62.9580635,4.77685204 61.8508321,5.43392994 60.3839719,6.16227819 C55.0338298,8.82361752 54.3269732,9.03916688 51.9530691,10.2073054 C50.4932952,10.9269621 49.2833127,11.6970296 48.3018628,12.4184247 C48.2752893,12.3906118 48.2575736,12.3749671 48.2575736,12.3749671 C48.2575736,12.3749671 47.2601795,11.1112221 46.6135564,10.6557871 C45.9669332,10.1986139 44.7303772,9.95525168 44.2945709,9.73796401 C43.4459888,9.31729509 43.3361514,9.02699877 42.1474278,8.66021719 C41.1057445,8.33863145 40.4732939,8.51419988 39.7823815,8.38904219 C39.240281,8.28822071 38.5263382,7.99444778 37.6405531,8.08657776 C37.1391987,8.13698849 36.3508499,8.48638706 35.7892621,8.5333212 C35.0700046,8.59242344 34.3436608,8.31255693 33.806875,8.4064252 C33.2523736,8.50203177 32.5100856,9.08957762 31.6384731,9.25123964 C31.0290529,9.36249093 30.3487699,9.23385663 29.8970195,9.33989301 C29.4470407,9.44766769 28.5010221,10.245548 28.0457286,10.4089483 C27.590435,10.568872 26.5487517,10.6557871 26.6213861,11.5388442 C26.6851626,12.3349862 28.4567329,12.5122929 28.4567329,12.5122929 C28.4567329,12.5122929 36.0815712,13.5361524 43.3326083,17.2561172 C42.2732093,18.5320304 41.2669574,19.9713439 40.3209388,21.4854044 C39.7504932,21.3150508 38.976317,21.0769035 38.4785058,21.0282311 C37.690157,20.9482692 36.8805494,21.3237423 36.3933676,21.304621 C35.3162529,21.2594252 35.1780704,21.0212779 33.9503722,21.2281358 C33.0202979,21.3863212 32.9334909,21.6609728 32.1185686,21.886952 C31.5906407,22.031231 30.9085861,21.8000369 29.9395372,22.1059779 C29.4753858,22.2519952 28.711839,23.0516138 28.2122562,23.2810696 C27.8118813,23.4653296 27.0660502,23.4740211 26.518635,23.8703538 C26.0863719,24.1849863 26.1164886,24.5830573 25.2466476,25.1080243 C24.6903745,25.4452548 24.2616545,25.3374801 23.6770364,25.8867833 C23.3599253,26.1822945 23.2571742,26.7089998 22.3146988,27.4182268 C21.0533408,28.3690776 21.2428988,29.126977 21.3598225,29.4085818 C21.6981924,30.2307983 23.592001,29.4137967 23.592001,29.4137967 C23.592001,29.4137967 29.7570655,27.3521713 37.2844674,26.9680067 C35.3853441,30.7818398 33.6952661,34.4722535 32.8112526,36.857203 C32.5933494,37.4482254 32.4126493,37.9575477 32.2673805,38.3712634 C32.1185686,38.3295442 32.1522284,38.3504038 32.1185686,38.3295442 C31.6384731,38.0357713 31.6367015,37.3647869 31.9077517,36.0714908 C32.1894314,34.7190923 33.2541451,32.1429298 33.580114,31.458039 L33.1531656,31.458039 C32.7634202,32.1116403 31.6951633,34.0533229 31.4329709,34.6026261 C31.0839716,35.3292361 30.9440175,35.5395706 30.1060648,37.2587506 C29.9643392,37.5490469 29.4594417,38.392123 29.0342648,38.3712634 C28.7065243,38.3556187 28.332723,38.1348544 28.332723,37.8115304 C28.332723,37.6498684 28.5701134,37.3161145 28.6551488,37.1909568 C29.7163193,35.6525601 30.3204248,34.0933038 30.5418711,33.4640388 L30.1184658,33.4640388 C30.1184658,33.4640388 27.3495015,39.6332702 21.5493805,39.6332702 C19.5244757,39.6332702 17.4960278,38.6980641 17.4960278,38.6980641 C17.4960278,38.6980641 14.7447792,39.9253048 10.9890502,39.9253048 C8.09430446,39.9253048 6.27844496,39.3638335 5.59639041,39.1048266 C9.57356562,18.2869299 27.6205517,2.30846416 50.7182846,2.30846416 M66.6057266,3.52006018 C67.1159388,3.24193197 67.4667098,2.96728036 67.9574347,2.82126305 C68.4641038,2.67003083 68.9459709,2.82300135 69.3977213,2.80214173 C69.7555785,2.78302042 70.4482625,2.20938098 70.763602,2.2319789 C71.1338602,2.25979172 71.4421134,2.3606132 71.6954479,2.4927241 C71.975356,2.63874141 73.0418413,1.91734636 73.3430083,1.93125277 C73.5485104,1.93994428 74.2500522,1.95037408 74.0923825,2.70305856 C73.9559716,3.30624912 73.5538251,5.04455044 72.680441,7.20525898 C72.4129339,7.87102839 72.099366,8.57677873 71.736194,9.30165038 C71.332276,10.1064839 70.8663531,10.9356536 70.3295673,11.7613468 C68.1115613,15.1649407 66.1646056,14.4035648 61.9712988,16.3070047 C58.7505841,17.7671778 57.398876,18.7945139 56.8585471,19.3020979 C56.6229283,19.1595572 56.3501064,18.9892037 56.0524826,18.8032054 C56.640644,18.2486873 57.9427481,17.3534621 60.7524585,15.9436997 C63.6914936,14.4678819 68.5190225,12.4253779 69.5376754,10.8122342 C69.6191676,10.6835999 69.5323607,10.59147 69.4579547,10.4976017 C68.3613527,11.2224733 67.3976185,11.7196275 66.892721,11.9716812 C62.151999,14.3288178 60.5292407,14.9111487 58.4263868,15.9471763 C57.4024192,16.4495454 55.9568179,17.3656302 54.9186777,18.0748572 C54.6476274,17.8958121 54.3748056,17.7132905 54.1037554,17.5255539 C55.0232003,16.8128504 56.2934162,15.928055 57.7655911,15.2049217 C59.868445,14.1671558 61.6754466,13.2980051 66.7421375,10.4037334 C67.2080605,10.1395116 69.7396344,8.60806815 71.6600165,7.23654841 C71.7025342,7.07314808 71.7397372,6.91322436 71.7751686,6.76025385 C70.0372582,7.7458707 64.3841775,10.7061978 63.2273421,11.2833139 C58.483077,13.6404505 58.6992086,13.4753119 56.5945831,14.5130777 C55.1773269,15.2118749 53.8929385,16.1053618 52.9912093,16.7311502 C52.7130727,16.5208158 52.4526519,16.3156962 52.2188046,16.1192682 C53.3650106,15.3752752 54.4155517,14.6434503 55.9302443,13.8542615 C58.0614433,12.7452253 58.3200926,12.5401057 63.0625861,10.1864458 C65.4719217,8.99049444 69.7219187,6.20921233 71.9381531,4.82204787 C71.9611835,4.63604963 71.9842139,4.57347078 72.0090159,4.41354706 C69.6492843,5.69293683 62.9314899,9.12955855 61.8136291,9.68407667 C57.0729071,12.0412133 56.5343498,12.2306881 54.4297243,13.268454 C53.1878536,13.8803361 52.0239319,14.624329 51.2054664,15.2014451 C51.0123653,15.0206617 50.8228073,14.8416167 50.6332493,14.6660483 C51.396796,14.0976237 52.6776413,13.2076135 54.521846,12.1715859 C56.5945831,11.0051857 56.9967296,10.8609067 61.7374516,8.50377007 C62.1466843,8.30038882 64.4249236,7.06097997 66.7261934,5.69815174 C67.3745881,5.31398714 68.0690436,4.89505653 68.6837785,4.52132174 C69.1036407,4.26405315 69.5075587,3.86772044 69.8831316,3.66260089 L69.6475127,3.5461347 C68.6377177,3.96680362 67.3621871,4.64126453 67.0185025,4.83595428 C64.5666493,6.23528685 61.356564,7.61028319 60.4034592,8.08483945 C55.6645088,10.441976 55.1241798,10.6331892 53.0195544,11.6674785 C51.862719,12.2393796 50.5747874,13.0928856 49.6677435,13.7464869 C49.4498403,13.5361524 49.2478813,13.343201 49.0707243,13.1693708 C50.0415448,12.3819203 51.3489636,11.4797419 53.0266407,10.6540488 C55.1312661,9.61802122 55.5865597,9.42854638 60.3255101,7.06967148 C61.1935795,6.64031105 61.9181517,6.23702515 62.5328866,5.86676697 C62.6391808,5.89457979 64.7190043,4.73860941 66.6057266,3.52006018 M64.0989547,19.660188 C64.0032899,20.2790232 63.6454327,20.5136939 63.3637531,20.6440665 C63.0820734,20.7761774 62.6250083,21.1116696 62.5009983,21.2976678 C62.4460797,21.3828446 62.3769884,21.3446019 62.3344707,21.3028827 C62.3078972,21.2802848 62.0882225,21.1620803 61.9801567,21.0699503 C61.9429537,21.0369226 61.9181517,21.0056332 61.9146086,20.9760821 C61.900436,20.8596159 61.9287812,20.7674859 61.9287812,20.7674859 L61.9447253,20.5501982 C61.974842,20.491096 61.9482684,20.2112295 61.9482684,20.2112295 C61.9482684,20.2112295 61.8490605,19.7401498 61.9146086,19.3559852 C61.999644,18.864046 62.5063131,18.4764048 62.5063131,18.4764048 L62.7295309,18.55289 C62.7295309,18.55289 62.4761964,18.8379714 62.3238413,19.2343041 C62.2458922,19.4376854 62.1927451,20.0200163 62.3451002,20.3607234 C62.366359,20.4128724 62.3610443,20.6510197 62.3610443,20.6510197 L62.4868258,20.7570561 C62.4868258,20.7570561 62.6409524,20.6562346 62.6905564,20.6162537 C62.9917233,20.3746298 63.1192764,20.2842381 63.1192764,20.2842381 C63.1192764,20.2842381 62.6533534,19.9765588 62.8801144,19.5280771 C63.096246,19.09524 63.5993719,19.2360424 63.5993719,19.2360424 C63.7517269,18.7215052 63.6720063,18.1930616 63.6720063,18.1930616 L63.9855742,18.2938831 C63.9855742,18.2938831 64.2087921,18.9613908 64.0989547,19.660188 M58.6460615,27.0340622 C57.7018145,27.0288473 56.3695937,26.6342529 55.9001276,25.9215493 C56.0188228,27.2600413 57.613236,28.330835 59.0570658,28.4264415 L59.0570658,28.5133566 C58.7505841,28.60201 58.4246152,28.6506824 58.0844737,28.6472058 C56.2562132,28.636776 54.7716374,27.206154 54.7716374,25.4539463 C54.7716374,25.2401352 54.8159266,24.9237644 54.8619874,24.6977852 C56.1924367,25.7529341 59.225365,27.2756861 60.8587527,25.0628285 L60.915443,25.2088458 C60.5558142,26.1770796 59.7550645,27.0410154 58.6460615,27.0340622 M45.87304,39.7549513 C45.7065124,39.7740726 45.7632026,39.7931939 45.5895888,39.8088386 C46.2840443,36.9302116 48.053843,29.9318105 52.3941901,22.7682707 C52.9929808,23.2028461 53.4713048,23.5678893 53.829162,23.8512325 C50.6899395,28.6002717 47.3806463,34.6443454 45.87304,39.7549513 M42.1438846,39.8748941 C41.9844433,39.8662025 42.051763,39.8540344 41.8958648,39.8383897 C42.6470106,36.7633347 44.7445498,28.8175593 49.8785603,21.0421375 C50.3940873,21.379368 50.8706397,21.6992154 51.3046744,21.9982032 C47.7969653,26.9853897 43.8251048,34.0533229 42.1438846,39.8748941 M38.358039,38.882324 C39.3749203,35.0528462 41.7913421,26.9732216 47.2247481,19.3994428 C47.7562192,19.712337 48.2593451,20.018278 48.7358975,20.3155276 C45.1165795,25.0923796 40.6132479,32.7148309 38.6025157,39.0717988 C38.4430744,39.00922 38.5121656,38.9483794 38.358039,38.882324 M35.2701921,37.4760382 C35.1337812,37.3943381 35.2312175,37.3178528 35.1107507,37.2448441 C36.4075402,33.0624912 39.5095597,24.511787 44.5603064,17.901027 C45.0705187,18.1739403 45.5612436,18.4451153 46.0360245,18.7128137 C42.5442595,22.9055965 37.739761,30.6914482 35.2701921,37.4760382 M97.4257342,47.1288255 C97.4186479,46.6786054 97.4062469,46.2301237 97.3849881,45.7833802 C97.142283,45.7955484 84.6119666,46.6316713 78.4291864,46.6316713 C70.3242526,46.6316713 58.6779498,46.5082519 58.6779498,46.5082519 L4.83107207,45.9832849 C4.83638678,45.8581272 4.86296033,45.0046213 4.87004661,44.8794636 L58.6212595,44.7038951 C58.6212595,44.7038951 70.3242526,44.8377443 78.4291864,44.8377443 C84.5712205,44.8377443 97.0731917,44.7890719 97.3229831,44.7977634 C97.2751507,44.1372089 97.2166889,43.2315539 97.1440545,42.5779526 C96.89072,42.591859 84.4720126,43.5444481 78.4291864,43.5444481 C70.3242526,43.5444481 58.6779498,43.0368642 58.6779498,43.0368642 L44.8738744,43.0768451 L26.6461881,42.5484015 L5.09503603,42.3606649 C5.11629488,42.1833582 5.22967537,41.3368055 5.25270579,41.161237 C6.00030843,41.27075 6.70185025,41.5210654 9.3007438,41.5210654 C12.7181028,41.5210654 14.4170387,40.7197085 14.4170387,40.7197085 C14.4170387,40.7197085 16.897237,41.4358886 20.314596,41.4358886 C21.9196387,41.4358886 25.3795154,39.8418663 27.5319732,40.474608 C30.9794489,41.489776 32.343558,39.9652857 32.343558,39.9652857 C32.343558,39.9652857 33.1443078,40.999575 34.6093964,41.3003011 C35.8494955,41.5558314 37.2401782,40.7301383 37.2401782,40.7301383 C37.2401782,40.7301383 39.1800476,42.1173028 44.7498645,42.0825367 C51.5881256,42.0425558 53.4482744,38.5572616 53.4482744,38.5572616 L53.6945226,38.5572616 C53.6945226,38.5572616 53.4447312,39.5081125 53.8362483,40.347712 C54.5395617,41.853081 56.7044205,42.0616771 56.7044205,42.0616771 C56.451086,37.8358666 58.3395798,35.0789207 58.3395798,35.0789207 L58.5929144,35.0789207 L58.3626102,35.9758842 C57.588434,38.9987902 58.9295127,41.7765957 58.9295127,41.7765957 L59.5956231,41.4411035 C59.5956231,41.4411035 58.9879745,39.5011593 59.6345977,36.8467731 C60.2794493,34.1906487 61.1776354,32.8330354 61.1776354,32.8330354 L61.5053759,32.8330354 C61.5053759,32.8330354 60.8304076,34.8929225 60.8481233,36.5269257 C60.8676106,37.8897539 61.6010407,41.0412942 64.2477666,41.979977 C66.274443,42.6978954 67.6668972,41.0830135 67.6668972,41.0830135 C67.6668972,41.0830135 71.9133511,42.1451156 75.516725,42.1451156 C83.8714502,42.1451156 85.7493147,40.7683809 85.7493147,40.7683809 C85.7493147,40.7683809 86.3020446,41.7539978 90.5786152,41.7539978 C93.0729861,41.7539978 94.9721094,41.5871209 96.1254017,41.4480567 C96.4885736,41.4028609 96.7773395,41.36288 96.9881564,41.3298523 C96.89072,40.6327934 96.7791111,39.9392112 96.6551012,39.2525822 C94.293598,26.4256567 86.7165921,15.3787518 76.1580334,8.30212712 L75.5486132,9.9795879 C85.8556089,16.6963842 93.3369501,27.1731263 95.6453061,39.5654764 C94.4512678,39.9722389 92.7665045,40.4363654 90.5786152,40.4363654 C87.2958955,40.4363654 86.5093183,39.4125059 86.5093183,39.4125059 C86.5093183,39.4125059 85.31528,40.2399373 83.1575074,40.2399373 C81.2973587,40.2399373 79.7826661,38.9153517 79.7826661,38.9153517 C79.7826661,38.9153517 77.7524466,40.7370915 74.432524,40.7370915 C70.2923643,40.7370915 68.2001398,38.2043865 67.4826539,37.0936119 C66.7598532,35.9706693 66.3523921,35.0372015 66.3523921,35.0372015 L66.0193369,35.0372015 C66.1096869,35.4856832 66.2018086,36.0054353 66.4161686,36.5651683 C66.9759848,38.0322946 67.3072684,38.5277105 67.5180853,38.9118751 C67.6332374,39.1222096 67.9060592,39.6888958 67.321441,39.857511 C66.9777564,39.9548559 66.7049345,39.7288767 66.5986403,39.5446168 C66.3736509,39.2473673 65.6473071,38.2113397 65.1459527,36.6294855 C64.6091669,34.9520247 64.4816139,33.7091393 64.3930354,32.8330354 L64.1361577,32.8330354 C64.0174625,33.6830647 63.8899094,34.8425117 63.9908889,36.4139361 C64.106041,38.1348544 64.5949944,39.3394972 64.7190043,39.6228404 C64.7384916,39.6645596 64.8412426,39.880109 64.8571868,40.007005 C64.9245064,40.5302336 64.5011012,40.8066236 64.0582086,40.7092787 C63.6737779,40.6241019 63.3478089,40.2607969 63.1423068,39.9235665 C61.3654218,36.9927905 63.5231944,31.4337028 64.2034774,29.5441693 C65.1317802,26.9784365 65.417003,24.6126084 65.417003,24.6126084 C65.417003,24.6126084 66.6198992,22.6848323 67.2629792,21.4019659 C68.0849878,19.7679626 68.6713775,18.172202 69.2187927,17.6350669 C70.0620602,16.8076355 71.2897583,14.8833359 72.6591821,12.4479758 C72.9213745,11.982111 74.0764383,9.49286353 74.2996562,8.86707505 C74.4590975,8.4133784 74.6947164,7.93186894 74.8346704,7.44340627 C75.5060955,5.08974627 75.9064704,2.56920936 75.9365871,2.17982986 C75.9808764,1.59923722 74.8984469,1.1889981 74.8984469,1.1889981 C74.8984469,1.1889981 74.0073471,0.85350595 73.3642671,0.855244251 C73.0294403,0.856982552 72.5528879,1.20464282 72.1578278,1.38368785 C71.6352145,1.61835853 71.3747937,1.46538802 71.3747937,1.46538802 C71.3747937,1.46538802 70.5811302,1.15075548 70.1594965,1.23419394 C69.7980962,1.30546429 69.3746909,1.76089924 69.0522651,1.89648674 C68.4711901,2.13637233 68.3223782,2.01295293 68.3223782,2.01295293 C68.3223782,2.01295293 67.6509531,1.8339079 67.1655428,1.99035501 C66.7261934,2.13463402 66.2974734,2.35365999 65.5640433,2.93599093 C60.3131091,1.03776589 54.6387696,0 48.7164102,0 C22.0684506,0 0.416319008,20.9952034 0.00531471074,47.0471253 C0.00177157025,47.2939641 0,48.3717109 0,48.3717109 L97.4328205,48.3717109 C97.4328205,48.3717109 97.4310489,47.3756643 97.4257342,47.1288255"/></svg>