<svg width="130" height="73" viewBox="0 0 130 73" fill="none" xmlns="http://www.w3.org/2000/svg">
<path fill-rule="evenodd" clip-rule="evenodd" d="M62.276 18.0735C63.7044 17.1923 65.6831 17.0822 67.2214 17.8535C68.54 18.4045 69.4192 19.6162 69.9691 21.049C70.0796 21.049 70.2993 21.1594 70.4088 21.1594C76.0138 22.7021 80.8503 26.9996 83.1576 32.5094C83.598 33.6111 84.038 34.7132 84.1473 35.815H80.0804C79.5311 34.2726 78.9815 32.8398 78.1023 31.5177C76.6738 29.3136 74.6958 27.4402 72.3872 26.2277C71.6176 25.7874 70.8489 25.5671 70.0796 25.236H69.4192C68.2108 27.33 65.4631 28.2118 63.265 27.2202C62.4954 26.8892 61.8365 26.3384 61.1771 25.7874C61.0666 25.5671 60.8469 25.3468 60.7373 25.1259C59.6381 25.236 58.6485 25.7874 57.7696 26.2277C55.3515 27.5503 53.2633 29.5339 51.8348 31.9583C51.1751 33.1705 50.5156 34.3827 50.2962 35.7048C48.8668 35.815 47.4383 35.7048 46.0093 35.7048C46.7789 32.0685 48.757 28.542 51.3954 26.008C53.8129 23.5835 56.8905 21.82 60.188 20.9388C60.4071 19.8371 61.1771 18.7347 62.276 18.0735" fill="white"/>
<path fill-rule="evenodd" clip-rule="evenodd" d="M88.9839 38.1003H91.8411V40.7457H89.203L89.0934 40.6352C88.9839 39.7534 88.9839 38.9824 88.9839 38.1003" fill="white"/>
<mask id="mask0" mask-type="alpha" maskUnits="userSpaceOnUse" x="44" y="39" width="8" height="17">
<path fill-rule="evenodd" clip-rule="evenodd" d="M44.3608 39.2161H51.6152V55.4298H44.3608V39.2161Z" fill="white"/>
</mask>
<g mask="url(#mask0)">
<path fill-rule="evenodd" clip-rule="evenodd" d="M46.5592 39.2161H49.1974V42.8524H51.6152V44.9464H49.1974V51.7776C49.1974 52.1093 49.1974 52.4394 49.3069 52.7698C49.4168 52.9907 49.7469 53.1003 49.9664 53.211C50.516 53.211 51.0656 53.211 51.6152 53.1003V55.3041C50.1864 55.4152 48.7573 55.6343 47.4387 54.9737C46.5592 54.4229 46.3398 53.3209 46.3398 52.3286V44.9464H44.3608V42.7426H46.5592C46.5592 41.7503 46.4497 40.428 46.5592 39.2161" fill="white"/>
</g>
<mask id="mask1" mask-type="alpha" maskUnits="userSpaceOnUse" x="78" y="39" width="9" height="17">
<path fill-rule="evenodd" clip-rule="evenodd" d="M78.7617 39.3142H86.0166V55.4298H78.7617V39.3142Z" fill="white"/>
</mask>
<g mask="url(#mask1)">
<path fill-rule="evenodd" clip-rule="evenodd" d="M80.6305 39.3142H83.4887V42.9503H85.9059V45.0443H83.4887V51.9865C83.4887 52.4265 83.5982 52.7581 83.9278 53.0886C84.0383 53.0886 84.2574 53.1984 84.3678 53.1984H86.0166V55.2921C84.6974 55.4023 83.3782 55.6229 82.059 55.0718C81.6202 54.8509 81.2906 54.5208 81.0706 54.0796C80.741 53.3092 80.741 52.3169 80.741 51.4355V44.824H78.7617V42.6198H80.8505C80.6305 41.8482 80.6305 40.5258 80.6305 39.3142" fill="white"/>
</g>
<path fill-rule="evenodd" clip-rule="evenodd" d="M18.6426 44.9613C18.3133 45.5123 17.7637 45.9523 17.2141 46.1732C15.7851 46.5033 14.3566 46.2827 13.0374 46.3938V40.7736H16.5547C17.4336 40.7736 18.4232 41.324 18.7528 42.2064C19.0824 43.0879 19.0824 44.0789 18.6426 44.9613M22.0498 43.4183C22.0498 41.9861 21.5005 40.5533 20.5114 39.5614C19.7418 38.9002 18.7528 38.5698 17.8736 38.3492C16.9941 38.239 16.2251 38.239 15.3457 38.239H10.0703V55.4297H13.0374V48.8182C14.6859 48.8182 16.3347 48.9281 17.9835 48.7072C18.2032 48.7072 18.3134 48.5976 18.5328 48.5976C19.4126 48.2672 20.2914 47.826 20.9509 47.0547C21.7208 46.063 22.0498 44.741 22.0498 43.4183" fill="white"/>
<mask id="mask2" mask-type="alpha" maskUnits="userSpaceOnUse" x="23" y="42" width="9" height="14">
<path fill-rule="evenodd" clip-rule="evenodd" d="M23.8091 42.675H31.0628V55.4299H23.8091V42.675Z" fill="white"/>
</mask>
<g mask="url(#mask2)">
<path fill-rule="evenodd" clip-rule="evenodd" d="M26.3364 45.4025C26.7762 44.0801 27.9852 43.0879 29.3041 42.7574C29.8537 42.6476 30.5132 42.6476 31.0628 42.7574V45.4025C30.183 45.2917 29.3041 45.1822 28.5348 45.5123C27.6557 45.9535 27.1061 46.7251 26.7762 47.6066C26.4463 49.0388 26.5565 50.471 26.5565 52.0143V55.43H23.8091V42.8685H26.4463C26.3364 43.8595 26.3364 44.6308 26.3364 45.4025" fill="white"/>
</g>
<mask id="mask3" mask-type="alpha" maskUnits="userSpaceOnUse" x="65" y="42" width="13" height="14">
<path fill-rule="evenodd" clip-rule="evenodd" d="M65.9272 42.1608H77.9934V55.4298H65.9272V42.1608Z" fill="white"/>
</mask>
<g mask="url(#mask3)">
<path fill-rule="evenodd" clip-rule="evenodd" d="M70.5188 42.3169C71.3992 42.2061 72.1676 42.0966 73.0474 42.2061C74.1468 42.3169 75.355 42.7571 76.2342 43.5288C77.2238 44.3001 77.7734 45.512 77.7734 46.7245H75.0257C74.8057 46.0631 74.5857 45.4025 74.0364 44.961C73.0474 44.1894 71.5084 44.1894 70.4095 44.8511C69.7504 45.2911 69.3103 45.8425 69.0903 46.6138C68.7607 47.606 68.7607 48.5973 68.7607 49.5896C68.87 50.5818 69.0903 51.463 69.7504 52.2346C70.08 52.6746 70.6292 52.8955 71.1788 53.1158C71.9485 53.2256 72.7172 53.2256 73.3772 52.8955C74.3657 52.454 74.8057 51.3519 75.0257 50.3609H77.9934C77.9934 50.3609 77.883 50.471 77.7734 50.471C77.7734 50.6913 77.7734 50.9119 77.6626 51.1325C77.2238 52.6746 76.3446 54.1068 75.0257 54.7689C73.1572 55.6503 70.9588 55.6503 69.0903 54.7689C67.7711 54.1068 66.7827 52.8955 66.3426 51.463C65.6838 49.3687 65.793 47.055 66.7827 45.0717C67.6618 43.7494 68.9811 42.7571 70.5188 42.3169" fill="white"/>
</g>
<mask id="mask4" mask-type="alpha" maskUnits="userSpaceOnUse" x="88" y="42" width="4" height="14">
<path fill-rule="evenodd" clip-rule="evenodd" d="M88.8735 42.8672H91.7317V55.4299H88.8735V42.8672Z" fill="white"/>
</mask>
<g mask="url(#mask4)">
<path fill-rule="evenodd" clip-rule="evenodd" d="M88.984 43.4182C88.984 43.1985 88.8735 42.9779 89.0936 42.8672H91.7317V55.4299H88.8735C88.984 51.3524 88.984 47.3856 88.984 43.4182" fill="white"/>
</g>
<mask id="mask5" mask-type="alpha" maskUnits="userSpaceOnUse" x="93" y="42" width="15" height="14">
<path fill-rule="evenodd" clip-rule="evenodd" d="M93.7095 42.8398H107.337V55.4298H93.7095V42.8398Z" fill="white"/>
</mask>
<g mask="url(#mask5)">
<path fill-rule="evenodd" clip-rule="evenodd" d="M93.7095 42.8671H96.7867C96.8963 43.0877 97.0068 43.3083 97.116 43.5289C97.7764 45.182 98.5448 46.9446 99.2048 48.5974C99.7544 49.9201 100.194 51.132 100.743 52.4544C100.853 52.1239 100.963 51.7935 101.183 51.463C101.842 49.8102 102.502 48.1574 103.161 46.3939C103.272 46.173 103.381 45.9536 103.381 45.733C103.711 44.7408 104.151 43.8593 104.48 42.8671C105.47 42.8671 106.458 42.7575 107.337 42.9778C106.679 44.5202 106.019 46.0631 105.359 47.7159C104.26 50.2505 103.272 52.8956 102.173 55.4298H98.9848C98.4352 53.9976 97.7764 52.5651 97.116 51.0219C96.0171 48.2673 94.8087 45.622 93.7095 42.8671" fill="white"/>
</g>
<mask id="mask6" mask-type="alpha" maskUnits="userSpaceOnUse" x="52" y="42" width="13" height="14">
<path fill-rule="evenodd" clip-rule="evenodd" d="M52.834 42.234H64.8411V55.4298H52.834V42.234Z" fill="white"/>
</mask>
<g mask="url(#mask6)">
<path fill-rule="evenodd" clip-rule="evenodd" d="M55.5718 47.7885C55.6816 46.9074 56.0115 45.9151 56.6707 45.2546C57.1104 44.9241 57.5498 44.7032 58.0994 44.4829C58.8691 44.3731 59.6387 44.3731 60.2975 44.8134C61.2872 45.3641 61.8368 46.5769 61.9463 47.679C59.8581 47.7885 57.7702 47.7885 55.5718 47.7885M64.8038 49.5524C64.914 48.2297 64.8038 46.7975 64.1441 45.5847C63.4852 44.1525 62.1663 42.9409 60.6277 42.4997C58.869 41.9484 57.0002 42.2788 55.4619 43.271C54.0334 44.262 53.2635 45.8053 52.9339 47.4581C52.7142 49.1112 52.8241 50.8739 53.5937 52.4171C54.2525 53.7398 55.4619 54.7308 56.891 55.172C58.5395 55.6132 60.4074 55.5024 61.9463 54.7308C63.2655 53.9601 64.2545 52.6374 64.5844 51.2052H61.9463C61.6167 51.9759 61.0671 52.7476 60.2975 53.0777C59.0891 53.5189 57.6597 53.4093 56.6707 52.4171C55.9013 51.7562 55.6816 50.6542 55.5718 49.6623C58.649 49.5524 61.7266 49.6623 64.8038 49.5524" fill="white"/>
</g>
<path fill-rule="evenodd" clip-rule="evenodd" d="M41.1737 49.9876C40.9543 51.0893 40.4044 52.3025 39.3055 52.8532C38.3159 53.2935 36.9973 53.4042 36.0085 52.7424C35.0189 52.1917 34.5792 51.0893 34.3598 49.9876C34.1397 48.5554 34.2496 47.0121 35.1288 45.91C35.5682 45.2495 36.2277 44.8083 36.9973 44.5886C37.5469 44.4778 37.9863 44.4778 38.5359 44.5886C39.4151 44.8083 40.1847 45.4701 40.6241 46.2417C41.2836 47.3434 41.2836 48.6649 41.1737 49.9876M43.9214 47.3435C43.8116 47.1229 43.8116 46.9023 43.7017 46.6817C43.3718 45.6907 42.9324 44.6984 42.1628 43.9268C41.2836 43.0456 39.9644 42.4946 38.6461 42.2737C37.217 42.0534 35.5682 42.2737 34.2496 43.0456C33.1507 43.5964 32.3811 44.5886 31.9417 45.6907C31.1721 47.4533 31.1721 49.4366 31.7216 51.3103C32.1617 52.8532 33.2606 54.1747 34.7992 54.8365C36.5579 55.6081 38.6461 55.6081 40.4044 54.9466C40.6242 54.8365 40.7343 54.7257 40.9543 54.6162C41.0639 54.6162 41.1737 54.5063 41.1737 54.5063C42.2726 53.8442 43.0423 52.7425 43.482 51.5305C43.482 51.4198 43.5919 51.2004 43.5919 51.0894C43.7017 50.8691 43.7017 50.5386 43.8116 50.318C44.0313 49.327 44.0313 48.3345 43.9214 47.3435" fill="white"/>
<mask id="mask7" mask-type="alpha" maskUnits="userSpaceOnUse" x="107" y="42" width="13" height="14">
<path fill-rule="evenodd" clip-rule="evenodd" d="M107.919 42.1364H119.929V55.4299H107.919V42.1364Z" fill="white"/>
</mask>
<g mask="url(#mask7)">
<path fill-rule="evenodd" clip-rule="evenodd" d="M110.635 47.7559C110.745 46.8747 111.075 45.9932 111.734 45.3315C112.723 44.3404 114.482 44.1199 115.581 45.001C116.461 45.6628 116.9 46.6541 117.011 47.7559H110.635ZM119.867 49.5198C120.197 47.0953 119.208 44.3405 117.011 43.0178C115.581 42.1366 113.823 41.9157 112.284 42.3569C110.855 42.7972 109.646 43.7894 108.877 45.1118C107.778 47.0953 107.668 49.5198 108.327 51.6129C108.877 53.1561 110.085 54.4785 111.515 55.0298C113.163 55.5806 114.922 55.5806 116.57 54.9185C118.109 54.2579 119.318 52.8257 119.647 51.1726H117.011C116.68 51.9433 116.241 52.7149 115.362 52.9355C114.043 53.3767 112.394 53.266 111.515 52.1636C110.855 51.503 110.635 50.5111 110.635 49.5198C113.713 49.5198 116.79 49.6296 119.867 49.5198V49.5198Z" fill="white"/>
</g>
</svg>
