<svg width="130" height="73" viewBox="0 0 130 73" fill="none" xmlns="http://www.w3.org/2000/svg">
<path fill-rule="evenodd" clip-rule="evenodd" d="M95.7119 70.2625C97.4575 70.2625 98.8734 68.8516 98.8734 67.1114V5.88872C98.8734 4.14826 97.4575 2.73755 95.7119 2.73755H34.2885C32.5429 2.73755 31.127 4.14826 31.127 5.88872V67.1114C31.127 68.8516 32.5429 70.2625 34.2885 70.2625H95.7119ZM74.5839 36.8232C76.7864 41.5042 78.8656 44.4182 78.8656 44.4182C80.1497 46.3444 80.8395 46.0215 80.8395 46.0215C81.16 46.0215 81.1465 45.2132 81.1465 45.2132C81.5458 38.0587 81.178 31.8197 81.178 31.8197C80.9638 29.4643 80.1497 29.3167 80.1497 29.3167H81.4662C81.4036 28.6704 81.1906 28.1992 81.1906 28.1992C78.3453 20.281 76.6633 16.7773 76.6633 16.7773C74.3383 23.048 72.8552 28.1254 72.8552 28.1254C72.7169 28.6704 72.6264 29.3772 72.6264 29.3772C75.7156 29.3167 76.388 29.8183 76.388 29.8183C78.2689 30.5681 78.3758 32.7902 78.3758 32.7902C78.4369 34.8809 77.183 35.7348 77.183 35.7348C76.1739 36.6479 74.5839 36.8232 74.5839 36.8232ZM70.0719 29.3772C70.0719 29.3772 70.5449 29.3167 70.5449 28.906C70.5449 28.906 70.7591 28.4643 69.8727 26.2863C69.8727 26.2863 68.2813 22.1651 64.9471 15.8358C64.9471 15.8358 64.457 14.483 63.0207 14.5413C63.0207 14.5413 62.439 14.394 59.1054 14.5413C59.1054 14.5413 57.9734 14.5413 58.0348 15.9831V19.663C58.0348 19.663 59.9612 19.7572 62.8982 19.6096C62.8982 19.6096 63.4179 19.5742 63.9379 19.3975L63.6324 21.8117C63.6324 21.8117 63.541 21.4286 58.2792 21.6056C58.2792 21.6056 58.0953 21.6056 58.0348 21.7828C58.0348 21.7828 57.9428 23.8781 58.0348 26.5269C58.0348 26.5269 58.1879 27.6306 59.5951 27.6453C59.5951 27.6453 64.3965 27.7629 65.4368 27.2337C65.4368 27.2337 65.8969 27.1599 66.5388 26.0556C66.5388 26.0556 66.5529 26.4183 66.233 29.3772H70.0719ZM61.0631 37.1478C60.9865 33.9683 59.9917 32.5841 59.9917 32.5841C58.845 30.5681 56.5356 30.7007 56.5356 30.7007C53.7842 30.5251 52.5486 32.5841 52.5486 32.5841C51.582 33.9389 51.6431 37.1478 51.6431 37.1478C51.4589 41.386 52.5306 43.0691 52.5306 43.0691C53.8453 45.3305 55.9856 45.2955 55.9856 45.2955C59.2278 45.3902 60.2552 43.0105 60.2552 43.0105C61.2341 40.9147 61.0631 37.1478 61.0631 37.1478ZM81.772 60.9774C81.772 60.9774 82.8725 61.2725 85.1059 61.0065C85.1059 61.0065 87.3696 61.1374 87.829 59.7521L87.3696 61.8131C87.3696 61.8131 87.2776 62.9035 86.7273 62.8733C86.7273 62.8733 86.5425 63.1094 81.5267 62.8139C81.5267 62.8139 80.425 62.549 76.4192 62.784C76.4192 62.784 77.3055 62.579 77.4577 60.3715C77.4577 60.3715 77.703 54.1322 77.5814 47.1849C77.5814 47.1849 77.6266 46.1677 76.8775 46.0964C76.8775 46.0964 76.1739 46.1829 75.7605 45.5655C75.7605 45.5655 73.5541 41.2704 72.1284 37.8243C71.9665 37.4229 71.814 37.0404 71.6774 36.6771C71.6774 36.6771 71.3402 36.2643 72.0132 36.3816C72.0132 36.3816 73.5424 36.4122 74.4299 35.5581C74.4299 35.5581 75.7452 34.322 75.3489 32.7323C75.3489 32.7323 75.2875 31.3255 73.7865 30.9359C73.7865 30.9359 72.5341 30.5251 70.5449 30.9065C70.5449 30.9065 69.8421 30.9964 69.811 31.8197V44.771C69.811 44.771 69.5965 46.1544 71.2799 46.0359L73.575 46.043C73.575 46.043 74.3383 45.9195 74.0941 46.5674L73.7575 48.1558C73.7575 48.1558 73.696 47.9022 72.8399 47.8434C72.8399 47.8434 72.0132 47.568 68.191 47.7744C68.191 47.7744 67.3032 47.7441 67.2738 48.2737V53.3131H71.1289C71.1289 53.3131 73.4822 53.3717 73.8191 53.1947L73.3297 55.6029C73.3297 55.6029 73.0224 55.3094 72.2585 55.3394C72.2585 55.3394 71.0948 55.103 67.243 55.2783L67.3032 60.754C67.3032 60.754 67.2738 62.6384 68.191 62.8433C68.191 62.8433 66.1709 62.579 63.2037 62.8433C63.2037 62.8433 64.2126 62.5193 64.3356 61.0769C64.3356 61.0769 64.796 54.5724 64.6112 48.5677C64.6112 48.5677 64.7649 46.0899 63.7231 45.7951L65.3151 45.7999C65.3151 45.7999 66.5388 46.0068 66.7829 43.3289C66.7829 43.3289 67.0235 40.8842 67.0491 37.8243C67.0617 36.1357 67.0109 34.2522 66.8138 32.4965C66.8138 32.4965 66.8449 29.7878 65.0108 29.6122L58.7072 29.5828C58.7072 29.5828 61.1851 30.2896 62.4084 31.7606C62.4084 31.7606 64.1987 33.6588 64.1829 37.2354C64.1829 37.2354 64.2014 37.4418 64.214 37.8243C64.2584 39.1192 64.1858 42.5183 62.4389 44.2712C62.4389 44.2712 61.9803 45.2712 59.1053 45.978C59.1053 45.978 57.8506 46.449 57.8826 48.3619C57.8826 48.3619 57.7283 54.3075 57.8826 61.5482C57.8826 61.5482 57.8826 62.4325 58.9828 62.8733C58.9828 62.8733 57.0253 62.4905 53.447 62.7554C53.447 62.7554 54.2431 62.6966 54.4879 61.6073C54.4879 61.6073 54.9779 60.4594 55.0082 54.2195V48.3319C55.0082 48.3319 55.0387 46.2429 53.7537 45.9483C53.7537 45.9483 51.3984 45.5935 50.2978 44.3286C50.2978 44.3286 48.7064 43.181 48.6456 38.5608C48.6456 38.5608 48.6174 38.2897 48.6074 37.8243C48.5806 36.7472 48.6614 34.5971 49.5319 32.8799C49.5319 32.8799 50.5728 30.3187 53.8453 29.729C53.8453 29.729 52.6646 27.6688 44.9565 16.4541V28.0222C44.9565 28.0222 45.0663 29.2582 46.4736 29.3772H49.9294C49.9294 29.3772 49.2872 29.5231 44.8519 36.9999C44.8519 36.9999 44.6298 37.3358 44.3539 37.8243C43.8868 38.649 43.2654 39.9117 43.323 40.7086V44.5943C43.323 44.5943 43.323 45.5935 44.8216 45.7999H47.758C46.1064 45.9195 46.1378 47.242 46.1378 47.242C45.8005 53.1899 46.0447 60.3537 46.0447 60.3537C45.9844 61.1484 47.2689 61.2363 47.2689 61.2363C47.2689 61.2363 50.0834 61.3876 51.0617 61.1968C51.0617 61.1968 52.132 61.0769 52.7128 60.2115L52.3464 62.2256C52.3464 62.2256 52.3 62.6822 51.582 62.8371C51.582 62.8371 51.1692 63.0783 48.2169 62.784C48.2169 62.784 45.3416 62.579 42.0991 62.7554C42.0991 62.7554 43.3536 62.3729 43.323 59.9296C43.323 59.9296 43.4141 54.8073 43.323 48.5097C43.323 48.5097 43.2619 46.0068 41.5488 46.0964L39.1935 46.1258C39.1935 46.1258 40.6619 45.7133 40.7236 44.1519L40.7168 39.9982C40.7168 39.6592 40.6146 38.6066 39.8469 37.3666C39.6558 37.058 39.4433 36.6582 39.1982 36.1971C38.5385 34.956 37.6427 33.2707 36.2938 31.7247C34.4853 29.6518 32.9578 29.3945 32.9578 29.3945H37.0656C37.0656 29.3945 38.0351 29.6829 39.1503 31.0444C39.8105 31.8505 42.6499 36.9999 42.6499 36.9999L45.6789 31.8488C45.6789 31.8488 46.7486 29.6422 45.1275 29.4934H41.0599C41.0599 29.4934 42.498 29.4934 42.5888 28.0815C42.5888 28.0815 43.0521 20.631 42.6799 15.2772C42.6799 15.2772 42.7116 13.3931 41.8846 12.8639H47.0242C47.0242 12.8639 46.9025 13.8644 48.3706 16.1604L55.0431 26.3742L55.0387 15.4248C55.0387 15.4248 55.1295 12.9806 53.9984 12.8054C53.9984 12.8054 55.9421 12.9515 66.3731 12.8348C66.3731 12.8348 67.015 12.6575 67.4745 14.0117C67.4745 14.0117 68.4954 17.2489 71.8299 23.5484C71.8299 23.5484 73.2245 19.9864 74.9993 14.1879C74.9993 14.1879 75.3792 13.01 74.7672 12.7751C74.7672 12.7751 76.205 13.01 78.4061 12.7751C78.4061 12.7751 78.2847 13.3055 79.9972 17.5731C79.9972 17.5731 80.5786 18.9865 82.8423 24.3429C82.8423 24.3429 84.34 20.6932 86.0839 14.9226C86.0839 14.9226 86.849 13.2456 85.8712 12.893C85.8712 12.893 86.9715 13.07 89.5401 12.8639C89.5401 12.8639 88.8679 13.1401 83.3934 29.33H84.8295C84.8295 29.33 84.1928 29.4064 84.1326 30.5251C84.1326 30.5251 84.13 32.974 84.1285 37.8243C84.1267 39.8277 84.1267 42.2548 84.1267 45.0942C84.1267 45.0942 84.095 46.1677 85.1359 46.0662H86.5737C86.5737 46.0662 87.5834 46.0215 87.4298 46.3893L87.0323 48.244C87.0323 48.244 86.7882 47.8142 85.9315 47.8142C85.9315 47.8142 85.1359 47.607 81.4362 47.6972C81.4362 47.6972 80.5319 47.6551 80.541 48.3907L80.5472 52.9775C84.6776 53.0072 84.0042 53.0072 84.0042 53.0072C86.4524 53.066 86.6342 52.9182 86.6342 52.9182L86.2376 55.1901C86.2376 55.1901 85.9923 54.9552 85.1059 54.9269C85.1059 54.9269 84.2798 54.7788 80.5472 54.8853V60.0665C80.5472 60.0665 80.5786 60.9177 81.772 60.9774ZM92.4162 31.0009C90.0298 33.2092 87.5167 36.0588 87.5167 36.0588C93.7624 45.5655 95.2113 46.0713 95.2113 46.0713H91.7429C91.0698 46.1592 90.5195 45.3947 90.5195 45.3947C84.7069 36.7404 84.4023 36.7059 84.4023 36.7059C88.2873 32.2904 90.5801 29.8531 90.5801 29.8531C91.101 29.2938 92.049 29.3238 92.049 29.3238H94.4954C93.7624 29.5884 92.4162 31.0009 92.4162 31.0009Z" fill="white"/>
</svg>
