<svg width="130" height="73" viewBox="0 0 130 73" fill="none" xmlns="http://www.w3.org/2000/svg">
<mask id="mask0" mask-type="alpha" maskUnits="userSpaceOnUse" x="51" y="34" width="9" height="10">
<path fill-rule="evenodd" clip-rule="evenodd" d="M51.6138 34.0507H59.5428V43.5903H51.6138V34.0507Z" fill="white"/>
</mask>
<g mask="url(#mask0)">
<path fill-rule="evenodd" clip-rule="evenodd" d="M56.2083 37.6528C54.8836 37.3889 54.3439 37.2442 54.3439 36.8746C54.3439 36.5332 54.6449 36.1695 55.489 36.1695C56.1746 36.1695 56.7542 36.4653 57.0403 36.9625C57.1061 37.0757 57.2561 37.1151 57.3743 37.0483L59.0697 36.1162C59.1316 36.0816 59.1765 36.0224 59.1937 35.9535C59.2102 35.8859 59.1981 35.8142 59.1601 35.7576C58.3951 34.6088 57.1998 34.0507 55.5073 34.0507H55.4184C54.2516 34.0507 53.2288 34.4241 52.538 35.1013C52.0145 35.6149 51.7265 36.2701 51.7265 36.9468C51.7265 38.9314 53.4029 39.4972 55.0423 39.7887L55.1803 39.8143C56.1754 40.0011 56.962 40.1488 56.962 40.5848C56.962 40.9718 56.5851 41.3622 55.7444 41.3622C54.9131 41.3622 54.2963 41.0141 53.9593 40.3553C53.9264 40.2918 53.8697 40.2436 53.8024 40.2229C53.7384 40.2042 53.6703 40.2101 53.6118 40.2426L51.7455 41.2702C51.6867 41.302 51.642 41.3571 51.624 41.4226C51.605 41.4872 51.6127 41.5548 51.6446 41.6124C52.3931 42.9426 53.6981 43.5904 55.6349 43.5904H55.7159C57.2284 43.5904 58.1408 43.0053 58.6391 42.5153C59.205 41.959 59.5428 41.2103 59.5428 40.5118C59.5428 38.59 57.9399 38.0019 56.2083 37.6528" fill="white"/>
</g>
<mask id="mask1" mask-type="alpha" maskUnits="userSpaceOnUse" x="60" y="34" width="9" height="10">
<path fill-rule="evenodd" clip-rule="evenodd" d="M60.0918 34.0507H68.0211V43.5903H60.0918V34.0507Z" fill="white"/>
</mask>
<g mask="url(#mask1)">
<path fill-rule="evenodd" clip-rule="evenodd" d="M64.6863 37.6528C63.3618 37.3889 62.8219 37.2442 62.8219 36.8746C62.8219 36.5332 63.123 36.1695 63.9671 36.1695C64.6527 36.1695 65.2322 36.4653 65.5186 36.9625C65.5841 37.0757 65.7341 37.1151 65.8523 37.0483L67.5477 36.1162C67.6096 36.0816 67.6545 36.0224 67.6718 35.9535C67.6882 35.8859 67.6761 35.8142 67.6381 35.7576C66.8734 34.6088 65.6779 34.0507 63.9853 34.0507H63.8964C62.7297 34.0507 61.7068 34.4241 61.016 35.1013C60.4925 35.6149 60.2046 36.2701 60.2046 36.9468C60.2046 38.9314 61.8812 39.4972 63.5203 39.7887L63.6585 39.8143C64.6537 40.0011 65.44 40.1488 65.44 40.5848C65.44 40.9718 65.0632 41.3622 64.2224 41.3622C63.3911 41.3622 62.7736 41.0141 62.4373 40.3553C62.4045 40.2918 62.3477 40.2436 62.2804 40.2229C62.2164 40.2042 62.1484 40.2101 62.0888 40.2426L60.2236 41.2702C60.165 41.302 60.12 41.3571 60.1021 41.4226C60.0831 41.4872 60.0908 41.5548 60.1226 41.6124C60.8704 42.9426 62.1761 43.5904 64.113 43.5904H64.1939C65.7064 43.5904 66.6188 43.0053 67.1172 42.5153C67.6831 41.959 68.0211 41.2103 68.0211 40.5118C68.0211 38.59 66.4179 38.0019 64.6863 37.6528" fill="white"/>
</g>
<path fill-rule="evenodd" clip-rule="evenodd" d="M98.7678 39.3107V36.6305C98.7678 36.5265 98.8521 36.443 98.9563 36.443H100.493C100.625 36.443 100.731 36.3372 100.731 36.2065V34.4712C100.731 34.3413 100.625 34.2358 100.493 34.2358H98.9563C98.8521 34.2358 98.7678 34.1513 98.7678 34.0473V31.2799C98.7678 31.1012 98.5744 30.9869 98.4166 31.0737L96.2694 32.2517C96.1936 32.2932 96.1471 32.3721 96.1471 32.4582V34.0473C96.1471 34.1513 96.0626 34.2358 95.9581 34.2358H95.0068C94.8769 34.2358 94.7705 34.3413 94.7705 34.4712V36.2065C94.7705 36.3372 94.8769 36.443 95.0068 36.443H95.9581C96.0626 36.443 96.1471 36.5272 96.1471 36.6305L96.1425 39.8952C96.1425 41.8224 97.7138 43.3631 99.6466 43.371C99.97 43.3718 100.283 43.3984 100.58 43.3349C100.669 43.3152 100.731 43.2302 100.731 43.1387V40.9943C100.731 40.9108 100.649 40.8491 100.57 40.8739C100.443 40.9144 100.309 40.9367 100.169 40.9367C99.5197 40.9367 98.9779 40.4938 98.8194 39.8952C98.8194 39.8952 98.7678 39.6537 98.7678 39.3107" fill="white"/>
<path fill-rule="evenodd" clip-rule="evenodd" d="M104.446 38.8866V34.46C104.446 34.3302 104.339 34.2244 104.209 34.2244H102.042C101.911 34.2244 101.806 34.3302 101.806 34.46V39.1384C101.806 40.4491 102.19 41.5607 102.919 42.3537C103.645 43.1439 104.66 43.5617 105.853 43.5617C106.832 43.5617 107.695 43.3322 108.494 42.6977L108.542 42.6606V43.1381C108.542 43.2677 108.648 43.3737 108.779 43.3737H110.946C111.076 43.3737 111.182 43.2677 111.182 43.1381V34.46C111.182 34.3302 111.076 34.2244 110.946 34.2244H108.779C108.648 34.2244 108.542 34.3302 108.542 34.46V38.8436C108.542 40.3072 107.769 41.1809 106.474 41.1809C105.185 41.1809 104.446 40.3448 104.446 38.8866" fill="white"/>
<path fill-rule="evenodd" clip-rule="evenodd" d="M86.9578 38.8866V34.46C86.9578 34.3302 86.8518 34.2244 86.7215 34.2244H84.5545C84.4232 34.2244 84.3174 34.3302 84.3174 34.46V39.1384C84.3174 40.4491 84.7027 41.5607 85.4315 42.3537C86.1566 43.1439 87.1718 43.5617 88.3653 43.5617C89.3432 43.5617 90.2071 43.3322 91.0065 42.6977L91.054 42.6606V43.1859C91.054 43.2899 91.1385 43.3737 91.2428 43.3737H93.5065C93.61 43.3737 93.6947 43.2899 93.6947 43.1859V34.46C93.6947 34.3302 93.5892 34.2244 93.4584 34.2244H91.2911C91.1601 34.2244 91.054 34.3302 91.054 34.46V38.8436C91.054 40.3072 90.2813 41.1809 88.9869 41.1809C87.6969 41.1809 86.9578 40.3448 86.9578 38.8866" fill="white"/>
<path fill-rule="evenodd" clip-rule="evenodd" d="M126.047 29.2001H123.832C123.701 29.2001 123.595 29.3059 123.595 29.4357V43.1853C123.595 43.2893 123.679 43.3736 123.783 43.3736H126.047C126.151 43.3736 126.236 43.2893 126.236 43.1853V29.3883C126.236 29.2843 126.151 29.2001 126.047 29.2001" fill="white"/>
<path fill-rule="evenodd" clip-rule="evenodd" d="M40.6167 38.7681C40.6167 41.6968 42.5898 43.6445 45.5064 43.5661C46.379 43.5421 47.2139 43.2032 47.8977 42.6625V43.1302C47.8977 43.2601 48.0038 43.3658 48.134 43.3658H50.301C50.432 43.3658 50.5374 43.2601 50.5374 43.1302V34.4624C50.5374 34.332 50.432 34.2262 50.301 34.2262H48.134C48.0038 34.2262 47.8977 34.332 47.8977 34.4624V34.9373L47.8501 34.9012C47.1162 34.3369 46.2711 34.0508 45.3366 34.0508C42.514 34.0508 40.6167 35.9467 40.6167 38.7681M45.577 36.2992C46.9429 36.2992 47.8977 37.3148 47.8977 38.7681C47.8977 40.2437 46.9213 41.3141 45.577 41.3141C44.2102 41.3141 43.2184 40.2437 43.2184 38.7681C43.2184 37.3148 44.1886 36.2992 45.577 36.2992" fill="white"/>
<path fill-rule="evenodd" clip-rule="evenodd" d="M112.258 38.7681C112.258 41.6968 114.232 43.6445 117.148 43.5661C118.021 43.5421 118.855 43.2032 119.539 42.6625V43.1776C119.539 43.2816 119.624 43.3658 119.727 43.3658H121.991C122.095 43.3658 122.18 43.2816 122.18 43.1776V34.4127C122.18 34.3095 122.095 34.2262 121.992 34.2262H119.727C119.624 34.2262 119.539 34.3105 119.539 34.4145V34.9373L119.492 34.9012C118.758 34.3369 117.913 34.0508 116.978 34.0508C114.156 34.0508 112.258 35.9467 112.258 38.7681M117.219 36.2992C118.586 36.2992 119.539 37.3148 119.539 38.7681C119.539 40.2437 118.563 41.3141 117.219 41.3141C115.852 41.3141 114.86 40.2437 114.86 38.7681C114.86 37.3148 115.83 36.2992 117.219 36.2992" fill="white"/>
<path fill-rule="evenodd" clip-rule="evenodd" d="M37.3975 29.3194L32.6303 36.3474L27.8639 29.3194C27.8131 29.2446 27.7285 29.2001 27.6371 29.2001H25.9928C25.8418 29.2001 25.7192 29.3223 25.7192 29.4718V43.1011C25.7192 43.2514 25.8418 43.3736 25.9928 43.3736H28.0915C28.2426 43.3736 28.3648 43.2514 28.3648 43.1011V34.767L32.4045 40.7225C32.5129 40.8816 32.7485 40.8816 32.8571 40.7225L36.8963 34.767V43.1011C36.8963 43.2514 37.0188 43.3736 37.1699 43.3736H39.2688C39.4196 43.3736 39.5414 43.2514 39.5414 43.1011V29.4718C39.5414 29.3223 39.4196 29.2001 39.2688 29.2001H37.6233C37.5328 29.2001 37.4483 29.2446 37.3975 29.3194" fill="white"/>
<path fill-rule="evenodd" clip-rule="evenodd" d="M80.7393 29.3194L75.9721 36.3474L71.2057 29.3194C71.1549 29.2446 71.0703 29.2001 70.9789 29.2001H69.3346C69.1836 29.2001 69.061 29.3223 69.061 29.4718V43.1011C69.061 43.2514 69.1836 43.3736 69.3346 43.3736H71.4333C71.5844 43.3736 71.7069 43.2514 71.7069 43.1011V34.767L75.7463 40.7225C75.8547 40.8816 76.0903 40.8816 76.1989 40.7225L80.2381 34.767V43.1011C80.2381 43.2514 80.3606 43.3736 80.5117 43.3736H82.6106C82.7614 43.3736 82.8832 43.2514 82.8832 43.1011V29.4718C82.8832 29.3223 82.7614 29.2001 82.6106 29.2001H80.9651C80.8746 29.2001 80.7901 29.2446 80.7393 29.3194" fill="white"/>
<path fill-rule="evenodd" clip-rule="evenodd" d="M22.3243 41.4473C22.3243 40.2634 21.3617 39.3047 20.1752 39.3047C18.9877 39.3047 18.0254 40.2634 18.0254 41.4473C18.0254 42.6314 18.9877 43.5902 20.1752 43.5902C21.3617 43.5902 22.3243 42.6314 22.3243 41.4473" fill="white"/>
<path fill-rule="evenodd" clip-rule="evenodd" d="M15.6001 41.4473C15.6001 40.2634 14.6376 39.3047 13.4511 39.3047C12.2638 39.3047 11.3013 40.2634 11.3013 41.4473C11.3013 42.6314 12.2638 43.5902 13.4511 43.5902C14.6376 43.5902 15.6001 42.6314 15.6001 41.4473" fill="white"/>
<mask id="mask2" mask-type="alpha" maskUnits="userSpaceOnUse" x="4" y="39" width="5" height="5">
<path fill-rule="evenodd" clip-rule="evenodd" d="M4.57764 39.3047H8.87648V43.5902H4.57764V39.3047Z" fill="white"/>
</mask>
<g mask="url(#mask2)">
<path fill-rule="evenodd" clip-rule="evenodd" d="M8.8765 41.4473C8.8765 40.2634 7.91398 39.3047 6.72746 39.3047C5.54016 39.3047 4.57764 40.2634 4.57764 41.4473C4.57764 42.6314 5.54016 43.5902 6.72746 43.5902C7.91398 43.5902 8.8765 42.6314 8.8765 41.4473" fill="white"/>
</g>
<path fill-rule="evenodd" clip-rule="evenodd" d="M18.9634 36.1934C18.9634 35.0095 18.0009 34.0508 16.8144 34.0508C15.6268 34.0508 14.6646 35.0095 14.6646 36.1934C14.6646 37.3775 15.6268 38.3363 16.8144 38.3363C18.0009 38.3363 18.9634 37.3775 18.9634 36.1934" fill="white"/>
<path fill-rule="evenodd" clip-rule="evenodd" d="M12.2466 36.1934C12.2466 35.0095 11.2841 34.0508 10.0976 34.0508C8.91002 34.0508 7.94775 35.0095 7.94775 36.1934C7.94775 37.3775 8.91002 38.3363 10.0976 38.3363C11.2841 38.3363 12.2466 37.3775 12.2466 36.1934" fill="white"/>
</svg>
