<svg width="130" height="73" viewBox="0 0 130 73" fill="none" xmlns="http://www.w3.org/2000/svg">
<path fill-rule="evenodd" clip-rule="evenodd" d="M60.2626 28.8017C59.9974 28.7892 59.7694 28.7867 59.5433 28.7651C59.3703 28.7485 59.3007 28.6276 59.2926 28.4644C59.2832 28.2769 59.3944 28.2014 59.5608 28.2001C60.2891 28.1949 61.0172 28.1964 61.7453 28.1937C61.9194 28.1932 62.0214 28.2643 62.0255 28.446C62.0299 28.6352 61.9671 28.772 61.7499 28.7765C61.5459 28.7808 61.3417 28.7774 61.1808 28.7774C60.9661 29.0353 61.0418 29.2705 61.0412 29.4861C61.0352 31.8112 61.0416 34.1362 61.0304 36.4612C61.0294 36.6776 61.188 37.0041 60.8235 37.0837C60.521 37.1498 60.4106 36.8679 60.2664 36.6721C58.8263 34.7158 57.3859 32.7596 55.9441 30.8046C55.8852 30.7245 55.8121 30.6547 55.6538 30.5862C55.437 32.5009 55.5515 34.4174 55.5199 36.3018C55.7746 36.4382 55.987 36.3935 56.1915 36.3937C56.4143 36.3939 56.5606 36.4599 56.5486 36.7059C56.5381 36.9178 56.3967 36.9755 56.2072 36.975C55.4998 36.9731 54.7924 36.973 54.0849 36.974C53.886 36.9742 53.7715 36.8964 53.7713 36.6837C53.771 36.4714 53.8814 36.3928 54.0835 36.3977C54.289 36.4026 54.4948 36.3987 54.6576 36.3987C54.8632 36.2039 54.8038 36.0086 54.8042 35.8334C54.8085 33.7964 54.809 31.7594 54.8053 29.7224C54.804 28.9871 54.6614 28.82 53.919 28.7875C53.516 28.7698 53.466 28.5911 53.5774 28.1983C54.1344 28.1983 54.7096 28.1913 55.2845 28.201C55.6109 28.2065 55.7112 28.5045 55.8626 28.7085C57.2128 30.5273 58.5521 32.354 59.8946 34.1785C59.978 34.2918 60.0464 34.4205 60.2626 34.4847C60.2626 32.5968 60.2626 30.7293 60.2626 28.8017" fill="white"/>
<path fill-rule="evenodd" clip-rule="evenodd" d="M59.9063 46.795C59.6012 46.795 59.3535 46.7936 59.1059 46.7955C58.9167 46.7967 58.771 46.7506 58.7888 46.5216C58.8027 46.3431 58.9115 46.2795 59.0834 46.2801C59.9991 46.283 60.9148 46.2811 61.8305 46.2839C62.1932 46.2851 62.1649 46.4993 62.0743 46.7667C61.791 46.7841 61.504 46.8017 61.1236 46.8251C61.1236 47.5661 61.1272 48.2965 61.1211 49.027C61.1195 49.2202 61.17 49.4119 60.9177 49.5515C59.1981 50.5032 56.0946 50.0148 54.7226 48.5145C53.5038 47.1816 53.2001 45.6078 53.7655 43.92C54.3437 42.1938 55.6476 41.274 57.4314 40.9747C58.396 40.8129 59.3355 40.945 60.308 41.2392C60.4561 40.9349 60.6519 40.6822 61.0825 40.8773C61.0825 41.5628 61.0825 42.2708 61.082 42.9792C60.496 43.117 60.496 43.117 60.4127 42.2579C58.6623 41.3843 57.3204 41.4597 56.1484 42.4974C54.908 43.596 54.5454 45.5811 55.3005 47.1413C56.0218 48.632 57.7061 49.4706 59.3869 49.202C59.7576 49.1428 59.9374 49.0234 59.9147 48.6168C59.8819 48.0255 59.9063 47.4312 59.9063 46.795" fill="white"/>
<path fill-rule="evenodd" clip-rule="evenodd" d="M84.1543 47.0117C84.1555 47.0117 84.1566 47.0117 84.1577 47.0117C84.1577 47.5049 84.1369 47.9992 84.1642 48.4908C84.1869 48.9007 84.3338 49.2776 84.8131 49.3426C85.4553 49.4297 86.0448 49.3155 86.5275 48.8279C87.4181 47.9278 87.5389 46.0468 86.7539 45.0607C86.369 44.5771 85.6673 44.3682 85.0619 44.6171C84.5028 44.8471 84.0549 45.1815 84.1463 45.9033C84.1924 46.2673 84.1543 46.642 84.1543 47.0117ZM84.1617 49.8119C84.1617 50.6345 84.1421 51.41 84.1695 52.1839C84.1846 52.6123 84.561 52.4433 84.7994 52.4717C85.0671 52.5036 85.4328 52.386 85.3325 52.9249C84.2625 52.9249 83.1948 52.9249 82.1253 52.9249C82.1481 52.5617 82.1481 52.5617 83.0753 52.3982C83.0753 49.8259 83.0753 47.246 83.0753 44.6581C82.7345 44.4847 82.3584 44.6633 82.0308 44.5242C82.0537 44.0862 83.1458 43.6653 84.0987 43.7358C84.1345 43.8975 84.1727 44.0695 84.2058 44.2186C84.3402 44.2958 84.4307 44.2596 84.5199 44.1999C86.2238 43.0607 87.9205 43.7336 88.3836 45.7321C88.8417 47.7094 87.6953 49.5998 85.843 49.9406C85.3005 50.0404 84.7788 49.8968 84.1617 49.8119V49.8119Z" fill="white"/>
<path fill-rule="evenodd" clip-rule="evenodd" d="M86.3476 36.4528C86.4492 36.7879 86.4105 36.9933 85.9649 36.9792C85.2788 36.9577 84.5916 36.978 83.905 36.9704C83.6733 36.9678 83.3419 37.0682 83.3389 36.6826C83.3357 36.2847 83.678 36.4246 83.9016 36.3982C84.0223 36.3839 84.1448 36.3842 84.3608 36.373C84.3608 35.5563 84.3608 34.7634 84.3608 33.9706C84.3608 33.4355 84.3274 32.8978 84.3703 32.3662C84.4121 31.8464 84.2233 31.6543 83.7057 31.7145C83.545 31.7333 83.2942 31.8176 83.2434 31.5457C83.1945 31.2832 83.4273 31.2656 83.6041 31.2195C84.1602 31.0746 84.7173 30.9331 85.2615 30.7936C85.5526 31.1578 85.277 31.5723 85.5008 31.9108C85.768 31.9443 85.887 31.7254 86.0362 31.5748C86.4724 31.1349 86.9862 30.8585 87.6093 30.7796C88.6526 30.6475 89.3947 31.3079 89.4285 32.4638C89.4594 33.5125 89.4365 34.5627 89.4374 35.6122C89.4375 35.8376 89.4374 36.0629 89.4374 36.2572C89.64 36.4672 89.8611 36.388 90.0597 36.3926C90.2751 36.3976 90.4319 36.4362 90.4234 36.6922C90.4165 36.9035 90.29 36.9749 90.0959 36.9748C89.2843 36.974 88.4724 36.9885 87.6613 36.9686C87.2547 36.9587 87.3491 36.6888 87.4286 36.4233C87.7096 36.4067 87.9743 36.3909 88.2828 36.3725C88.2828 34.9657 88.324 33.5752 88.2636 32.1893C88.2373 31.5843 87.5278 31.2536 86.9825 31.6067C86.147 32.1476 85.273 32.7024 85.3932 33.9422C85.4681 34.7157 85.407 35.5021 85.407 36.2668C85.6944 36.4971 86.007 36.3298 86.3476 36.4528" fill="white"/>
<path fill-rule="evenodd" clip-rule="evenodd" d="M104.585 36.4149C104.879 36.3979 105.146 36.3826 105.387 36.3688C105.557 36.1576 105.507 35.9439 105.507 35.7434C105.511 33.6252 105.5 31.5068 105.518 29.3888C105.522 28.9589 105.443 28.716 104.944 28.7754C104.501 28.8281 104.472 28.5777 104.576 28.1937C105.503 28.1937 106.414 28.1944 107.326 28.1932C107.524 28.193 107.712 28.1998 107.722 28.4652C107.734 28.7689 107.522 28.774 107.303 28.7806C107.119 28.7863 106.926 28.7434 106.698 28.9114C106.698 29.8898 106.698 30.9141 106.698 31.9386C106.698 33.1931 106.715 34.4479 106.69 35.7019C106.681 36.1904 106.863 36.3607 107.345 36.3398C107.989 36.312 108.635 36.3093 109.279 36.3405C109.775 36.3646 110.028 36.2228 109.971 35.6887C109.947 35.4605 109.881 35.1648 110.292 35.1666C110.707 35.1683 110.604 35.4676 110.608 35.695C110.633 36.9718 110.63 36.9718 109.346 36.9721C107.911 36.9725 106.476 36.968 105.041 36.977C104.673 36.9793 104.4 36.9395 104.585 36.4149" fill="white"/>
<path fill-rule="evenodd" clip-rule="evenodd" d="M81.6437 49.2527C81.0508 49.7812 80.2397 49.6873 79.551 49.9221C79.2601 49.5854 79.5453 49.1761 79.2961 48.8873C79.0371 48.8062 78.9211 49.0058 78.7825 49.1448C78.504 49.4245 78.202 49.6624 77.8284 49.8139C76.5163 50.3459 75.4049 49.6462 75.3786 48.2464C75.36 47.2592 75.3415 46.2701 75.3879 45.2847C75.4146 44.7136 75.2369 44.4842 74.6596 44.5749C74.5215 44.5966 74.3696 44.5972 74.2524 44.4926C74.3896 44.0927 75.5653 43.6753 76.3604 43.7429C76.491 44.1755 76.4076 44.6272 76.4181 45.0711C76.444 46.1601 76.4008 47.2533 76.4822 48.3377C76.549 49.2266 77.3164 49.5667 78.0461 49.038C78.853 48.4535 79.586 47.8019 79.4223 46.6207C79.3335 45.9803 79.4064 45.318 79.4064 44.7103C79.0741 44.4899 78.7605 44.6486 78.4895 44.5377C78.4255 44.0725 79.3895 43.6583 80.4324 43.7379C80.4324 45.4655 80.4324 47.2008 80.4324 48.9681C80.8614 48.9972 81.2239 49.0218 81.5865 49.0464C81.6055 49.1151 81.6246 49.1838 81.6437 49.2527" fill="white"/>
<path fill-rule="evenodd" clip-rule="evenodd" d="M116.984 31.0679C117.457 31.0679 117.907 31.0679 118.444 31.0679C118.358 32.2252 117.413 31.4283 116.986 31.8608C116.986 33.285 116.986 34.8125 116.986 36.3974C117.313 36.3974 117.618 36.4003 117.925 36.3962C118.098 36.3939 118.202 36.4593 118.215 36.6394C118.227 36.8375 118.137 36.9681 117.935 36.9695C117 36.9764 116.065 36.9911 115.13 36.9638C114.772 36.9533 114.889 36.6715 114.928 36.4245C115.225 36.406 115.509 36.3884 115.837 36.368C115.837 34.8423 115.837 33.3346 115.837 31.8088C115.513 31.6292 115.147 31.7819 114.736 31.6829C114.789 30.9763 115.51 31.2973 115.87 30.9109C115.849 29.593 115.812 28.1343 117.433 27.4056C118.472 26.9383 119.443 27.1743 120.469 27.6753C120.311 27.8937 120.179 28.0634 120.062 28.2435C119.837 28.5927 119.624 28.5584 119.308 28.3129C118.188 27.4422 117.155 27.8894 116.994 29.3208C116.933 29.8681 116.984 30.4277 116.984 31.0679" fill="white"/>
<path fill-rule="evenodd" clip-rule="evenodd" d="M81.3404 33.9993C81.3755 33.4217 81.2087 32.8802 80.956 32.3916C80.5261 31.5601 79.5972 30.9304 78.5744 31.8209C77.4741 32.7786 77.5814 35.3534 78.7562 36.227C79.3171 36.6442 79.9307 36.6172 80.4526 36.157C81.1077 35.5793 81.2571 34.8024 81.3404 33.9993ZM76.6397 33.9255C76.6445 32.4899 77.4728 31.3064 78.7494 30.9108C80.5079 30.3658 82.2586 31.6463 82.4797 33.6392C82.7115 35.729 80.9548 37.4543 78.9857 37.0707C77.6074 36.8023 76.6342 35.4975 76.6397 33.9255V33.9255Z" fill="white"/>
<path fill-rule="evenodd" clip-rule="evenodd" d="M69.0384 46.8464C68.9701 47.4018 69.1467 47.9493 69.4201 48.4619C69.9426 49.4416 70.9694 49.6488 71.7333 48.9494C72.8099 47.9633 72.7793 45.6 71.6773 44.6311C71.0451 44.0752 70.2625 44.1149 69.7049 44.7569C69.1963 45.3424 68.9909 46.0377 69.0384 46.8464ZM67.8469 46.7526C67.866 44.9848 69.1393 43.6236 70.7672 43.6305C72.3919 43.6373 73.7315 45.0859 73.7253 46.8287C73.719 48.5772 72.3768 49.9829 70.7245 49.9715C69.0636 49.9598 67.8271 48.5768 67.8469 46.7526V46.7526Z" fill="white"/>
<path fill-rule="evenodd" clip-rule="evenodd" d="M66.108 34.2872C65.4918 34.4195 64.9099 34.5445 64.3282 34.6693C64.2878 34.678 64.2465 34.683 64.2068 34.694C64.0823 34.7286 63.9558 34.7895 63.9391 34.9199C63.892 35.2869 63.8479 35.6785 64.1107 35.9775C64.371 36.2736 64.729 36.362 65.1282 36.2497C66.0426 35.9926 66.2509 35.5993 66.108 34.2872ZM66.0729 36.3397C65.5057 36.9318 64.8828 37.2355 64.0916 37.0967C63.3407 36.9648 62.8671 36.4597 62.8265 35.7214C62.7825 34.9213 63.124 34.4105 63.8866 34.2025C64.4461 34.0499 65.0123 33.9033 65.5853 33.8221C66.0645 33.7543 66.2206 33.5334 66.1645 33.0846C66.1367 32.8619 66.1454 32.6321 66.1612 32.4071C66.2191 31.5784 65.6201 31.2191 64.7966 31.4174C64.6441 31.4541 64.4956 31.5164 64.4733 31.6679C64.3634 32.4161 63.7315 32.3198 63.2525 32.5088C63.0495 31.8439 63.2044 31.3896 63.7677 31.1192C64.6707 30.6858 65.6055 30.6134 66.5222 31.0885C67.009 31.3409 67.2007 31.7815 67.1989 32.3171C67.1949 33.4065 67.2146 34.4963 67.1905 35.5852C67.18 36.0487 67.2485 36.3597 67.8196 36.2817C67.9842 36.2592 68.1734 36.2657 68.213 36.4829C68.2542 36.7087 68.0551 36.7462 67.9059 36.8014C67.732 36.8656 67.5494 36.9064 67.3715 36.9607C66.6413 37.1834 66.4381 37.0949 66.0729 36.3397V36.3397Z" fill="white"/>
<path fill-rule="evenodd" clip-rule="evenodd" d="M94.3961 34.3124C93.7401 34.3198 93.1434 34.6837 92.4824 34.6737C92.4221 34.6728 92.3367 34.8019 92.3023 34.8863C92.1568 35.2422 92.1544 35.6177 92.3627 35.9342C92.5865 36.2744 92.9524 36.3538 93.3516 36.2606C94.2991 36.0392 94.5805 35.5313 94.3961 34.3124ZM94.3367 36.3957C93.9086 36.7014 93.5236 37.0695 92.9477 37.1225C92.0095 37.2088 91.2536 36.7217 91.0976 35.8689C90.9413 35.0154 91.4179 34.3682 92.3678 34.1467C92.8522 34.0338 93.3323 33.8812 93.8235 33.8242C94.3658 33.7612 94.5253 33.4957 94.4659 33C94.4342 32.7364 94.483 32.4626 94.4456 32.2004C94.3452 31.4968 93.5456 31.1104 92.934 31.4612C92.8537 31.5073 92.7557 31.6062 92.751 31.6856C92.6976 32.5838 91.9767 32.3096 91.472 32.495C91.2417 31.782 91.5933 31.3613 92.0779 31.1129C92.8351 30.7249 93.6588 30.6413 94.487 30.9417C95.1522 31.1829 95.4834 31.629 95.4901 32.3391C95.5006 33.4485 95.5087 34.5582 95.4852 35.6673C95.4763 36.0875 95.5385 36.3534 96.0482 36.284C96.2272 36.2597 96.4707 36.2306 96.5199 36.4645C96.5815 36.7575 96.2783 36.7452 96.1087 36.828C95.9994 36.8814 95.8683 36.8895 95.7493 36.9256C94.8962 37.1846 94.7832 37.1448 94.3367 36.3957V36.3957Z" fill="white"/>
<path fill-rule="evenodd" clip-rule="evenodd" d="M120.397 32.9472C121.045 33.0743 122.858 33.0563 123.311 32.9275C123.394 32.075 122.992 31.4996 122.259 31.4188C121.243 31.3069 120.541 31.8699 120.397 32.9472ZM124.153 35.9655C124.207 36.1837 124.364 36.3281 124.027 36.5483C122.966 37.2404 121.458 37.3338 120.498 36.6901C119.409 35.9606 118.905 34.4832 119.261 33.0611C119.581 31.7862 120.521 30.9458 121.808 30.7866C123.238 30.6095 124.494 31.7008 124.507 33.1053C124.51 33.4783 124.393 33.6133 124.008 33.6063C122.948 33.5867 121.888 33.6132 120.828 33.5932C120.377 33.5846 120.252 33.7394 120.325 34.1787C120.546 35.5052 121.182 36.3106 122.167 36.4389C122.609 36.4965 123.03 36.4291 123.431 36.2199C123.643 36.1088 123.835 35.9261 124.153 35.9655V35.9655Z" fill="white"/>
<path fill-rule="evenodd" clip-rule="evenodd" d="M96.8582 28.0074C96.8028 27.7998 96.9182 27.6971 97.0977 27.6481C97.6176 27.5063 98.1336 27.347 98.6603 27.2395C99.1299 27.1439 99.0207 27.5239 99.0217 27.7631C99.0284 29.5936 99.0255 31.4242 99.0255 33.2546C99.0255 34.2776 99.0255 35.3005 99.0255 36.292C99.356 36.4775 99.6623 36.3333 99.9522 36.4359C100.098 36.8187 100.006 36.9972 99.5473 36.9799C98.8825 36.9548 98.2158 36.9784 97.5509 36.9709C97.3173 36.9682 96.9987 37.0549 96.9965 36.6658C96.9944 36.2956 97.3035 36.4252 97.507 36.3979C97.6476 36.3791 97.7906 36.3696 97.9839 36.3509C97.9839 35.1414 97.9839 33.9528 97.9839 32.7641C97.9839 31.4478 97.9587 30.1307 97.9955 28.8154C98.0109 28.2882 97.8892 28.034 97.3155 28.1235C97.1613 28.1475 96.9777 28.174 96.8582 28.0074" fill="white"/>
<path fill-rule="evenodd" clip-rule="evenodd" d="M62.7096 44.4736C62.636 44.2843 62.7395 44.144 62.9059 44.0958C63.422 43.9463 63.9449 43.8175 64.4685 43.6948C64.7301 43.6336 64.8505 43.7613 64.862 44.025C64.8718 44.252 64.7598 44.5342 65.0889 44.65C66.6953 43.4654 66.6953 43.4654 67.3826 44.1123C67.2418 44.4756 66.9268 44.7133 66.6932 45.0062C65.901 44.6285 64.9001 45.2072 64.8624 46.0851C64.8235 46.9872 64.8583 47.8922 64.8503 48.796C64.8472 49.1314 64.9906 49.2918 65.333 49.2778C65.5196 49.2702 65.7069 49.269 65.8936 49.2726C66.0742 49.2761 66.1454 49.3745 66.1385 49.5515C66.1325 49.7048 66.0545 49.7823 65.9114 49.7832C64.9565 49.7888 64.0016 49.7921 63.0467 49.7888C62.8996 49.7884 62.8311 49.6811 62.8266 49.5408C62.821 49.361 62.9276 49.252 63.0934 49.2771C63.8534 49.3921 63.811 48.9024 63.8051 48.4035C63.7931 47.3766 63.7687 46.3481 63.8141 45.323C63.8402 44.7356 63.6623 44.4821 63.0566 44.5742C62.9402 44.592 62.8033 44.6068 62.7096 44.4736" fill="white"/>
<path fill-rule="evenodd" clip-rule="evenodd" d="M69.7419 31.8488C69.4486 31.6578 69.1708 31.741 68.907 31.7243C68.7591 31.715 68.5921 31.733 68.5784 31.5334C68.5666 31.3615 68.6921 31.293 68.8499 31.2539C69.131 31.1842 69.4081 31.0987 69.7302 31.0076C69.7302 30.4427 69.7302 29.8737 69.7302 29.2919C70.0475 29.1632 70.3303 29.2444 70.6327 29.2247C70.8449 29.8224 70.6332 30.4268 70.7831 31.0599C71.289 31.0599 71.7999 31.0599 72.2892 31.0599C72.3937 31.3002 72.3755 31.4753 72.3058 31.6448C72.1754 31.7561 72.024 31.7194 71.8822 31.7211C70.7272 31.7355 70.7272 31.7346 70.7272 32.8502C70.7272 33.735 70.719 34.6198 70.73 35.5044C70.7395 36.2762 71.0119 36.4474 71.7588 36.2095C71.9432 36.1507 72.1729 35.8622 72.3453 36.1912C72.5165 36.5175 72.1807 36.6051 71.9949 36.7352C71.6666 36.9649 71.3049 37.0894 70.8868 37.0647C70.1912 37.0235 69.7635 36.6414 69.7511 35.9453C69.7308 34.7933 69.7433 33.6409 69.742 32.4886C69.7417 32.267 69.7419 32.0453 69.7419 31.8488" fill="white"/>
<path fill-rule="evenodd" clip-rule="evenodd" d="M73.8678 36.2909C73.8678 34.8951 73.8662 33.4632 73.8694 32.0315C73.87 31.7759 73.7138 31.7244 73.5048 31.7241C73.2599 31.7236 73.0151 31.7239 72.7666 31.7239C72.8155 31.2452 73.2892 31.0477 74.9121 30.8112C74.9121 31.7327 74.9121 32.6403 74.9121 33.548C74.9121 34.4704 74.9121 35.3928 74.9121 36.2923C75.1603 36.454 75.3954 36.3849 75.6181 36.3947C75.8066 36.4028 75.9479 36.4443 75.9549 36.6617C75.9613 36.8643 75.8537 36.9717 75.6547 36.9726C74.8242 36.9766 73.9933 36.9826 73.1628 36.9717C72.7945 36.967 72.8772 36.7065 72.9148 36.4733C73.19 36.2882 73.5333 36.499 73.8678 36.2909" fill="white"/>
<path fill-rule="evenodd" clip-rule="evenodd" d="M110.861 31.5067C111.6 31.0664 112.333 31.0009 113.164 30.7321C113.164 31.7389 113.164 32.6517 113.164 33.5643C113.164 34.486 113.164 35.4076 113.164 36.3067C113.432 36.4531 113.665 36.3881 113.887 36.3929C114.095 36.3975 114.198 36.4757 114.194 36.6832C114.191 36.851 114.118 36.9687 113.94 36.9693C113.086 36.9725 112.233 36.9861 111.381 36.9582C111.036 36.9469 111.097 36.6855 111.182 36.4275C111.465 36.4098 111.751 36.3921 112.078 36.3717C112.078 34.8451 112.078 33.3327 112.078 31.805C111.744 31.5808 111.264 31.8876 110.861 31.5067" fill="white"/>
<path fill-rule="evenodd" clip-rule="evenodd" d="M112.596 29.2655C112.133 29.252 111.872 29.0168 111.873 28.5801C111.874 28.1483 112.148 27.8986 112.578 27.8647C112.971 27.8335 113.359 28.2209 113.327 28.6049C113.29 29.0433 113.026 29.2592 112.596 29.2655" fill="white"/>
<path fill-rule="evenodd" clip-rule="evenodd" d="M74.3496 29.266C73.8824 29.2769 73.6407 29.0062 73.6316 28.5919C73.6226 28.1751 73.8819 27.8758 74.3178 27.8693C74.7738 27.8626 75.0792 28.1492 75.0791 28.5947C75.0791 29.0148 74.7908 29.2528 74.3496 29.266" fill="white"/>
<path fill-rule="evenodd" clip-rule="evenodd" d="M90.2681 43.1362C90.437 43.1362 90.5383 43.0588 90.5383 42.9111C90.5383 42.7598 90.4334 42.6771 90.2752 42.6771H90.0334V43.1362H90.2681ZM89.7811 43.6305V42.6296C89.7811 42.5452 89.8237 42.4872 89.9055 42.4872H90.309C90.6058 42.4872 90.7906 42.649 90.7906 42.904C90.7906 43.0746 90.684 43.2206 90.524 43.2787L90.7196 43.5759C90.7391 43.6041 90.748 43.6305 90.748 43.6638C90.748 43.7271 90.7001 43.7711 90.6307 43.7711C90.5755 43.7711 90.5435 43.7483 90.5062 43.6885L90.2733 43.3174H90.0334V43.6305C90.0334 43.7184 89.989 43.7711 89.9055 43.7711C89.8237 43.7711 89.7811 43.7148 89.7811 43.6305ZM91.4288 43.1362C91.427 42.4959 90.9097 41.9842 90.2628 41.9842C89.6175 41.9842 89.1039 42.4959 89.1039 43.1362C89.1039 43.7764 89.6194 44.2882 90.2646 44.2882C90.9115 44.2882 91.4305 43.7764 91.4288 43.1362ZM88.8301 43.1362C88.8301 42.3605 89.4806 41.7168 90.2627 41.7168C91.0465 41.7168 91.7007 42.3605 91.7007 43.1362C91.7007 43.9119 91.0484 44.5556 90.2646 44.5556C89.4824 44.5556 88.8301 43.9119 88.8301 43.1362V43.1362Z" fill="white"/>
<path fill-rule="evenodd" clip-rule="evenodd" d="M35.2187 20.075L5.49316 50.1874L35.7044 49.9949L35.2187 20.075Z" fill="#D0D0D0"/>
<path fill-rule="evenodd" clip-rule="evenodd" d="M28.3804 50.1875H51.2677L28.3804 27.375V50.1875Z" fill="white"/>
</svg>
