<svg xmlns="http://www.w3.org/2000/svg" width="268" height="68" viewBox="0 0 268 68">
  <path fill="#FFF" fill-rule="evenodd" d="M33.789 0C15.128 0 0 15.128 0 33.789 0 41.493 2.581 48.593 6.922 54.278L35.011 17.364 31.991 17.369 28.987 17.369C25.778 17.369 22.773 17.591 20.608 18.016 19.291 18.274 18.118 18.752 17.163 19.42 16.041 20.205 14.638 21.875 13.724 23.512 13.618 23.702 13.465 23.992 13.267 24.381L11.623 24.019 14.376 13.411 49.56 13.411 21.606 50.792C23.424 50.632 24.148 50.596 25.619 50.597 26.755 50.597 28.476 50.666 30.781 50.803L35.748 51.098C37.542 51.205 39.053 51.26 40.198 51.26 42.765 51.26 44.434 51.061 46.082 50.558 47.367 50.166 48.587 49.575 49.7 48.807 51.659 47.456 53.571 45.276 54.711 43.094 54.826 42.874 55.006 42.54 55.218 42.09L56.706 42.475C56.227 44.326 55.965 45.032 55.224 46.689 53.722 50.046 52.027 52.293 49.694 54.019 47.301 55.79 44.647 56.663 41.511 56.712L41.035 56.715C38.712 56.715 36.914 56.521 31.355 55.67 25.697 54.802 22.819 54.509 19.975 54.509 18.071 54.509 16.3 54.649 14.471 54.944 12.043 55.337 11.093 55.621 8.888 56.626 15.065 63.357 23.934 67.578 33.789 67.578 52.45 67.578 67.578 52.45 67.578 33.789 67.578 15.128 52.45 0 33.789 0M111.185 16.903L85.317 16.903 82.14 23.924C83.2 23.359 83.621 23.16 84.549 22.79 86.017 22.205 87.633 21.748 89.199 21.475 90.555 21.238 91.805 21.129 93.836 21.071 94.743 21.045 95.593 21.032 96.388 21.032L100.218 21.032 80.094 49.791 108.54 49.791 111.823 42.288C110.681 42.944 110.272 43.157 109.4 43.551 107.748 44.299 105.941 44.853 104.086 45.18 102.619 45.438 100.968 45.583 98.915 45.635 98.229 45.653 97.352 45.661 96.284 45.661L91.244 45.661 111.185 16.903M196.678 49.791C196.167 49.343 195.989 49.139 195.662 48.631 195.454 48.306 195.283 47.97 195.154 47.628 194.872 46.879 194.699 45.777 194.699 44.737L194.699 24.926 194.712 22.999C194.726 20.796 194.784 20.193 195.063 19.299 195.174 18.946 195.331 18.601 195.532 18.271 195.873 17.711 196.105 17.454 196.77 16.903L186.206 16.903C186.898 17.498 187.117 17.731 187.431 18.205 187.652 18.541 187.823 18.901 187.939 19.274 188.185 20.071 188.261 20.862 188.278 22.816 188.286 23.818 188.29 24.478 188.29 24.796L188.29 44.489C188.29 45.642 188.089 46.872 187.769 47.667 187.634 48.004 187.46 48.327 187.248 48.631 186.998 48.992 186.827 49.19 186.246 49.791L196.678 49.791M229.709 17.203C228.899 16.94 228.579 16.855 227.703 16.668 225.815 16.267 223.99 16.083 221.922 16.083 218.386 16.083 215.333 16.65 212.542 17.828 210.888 18.526 209.366 19.429 208.023 20.511 203.969 23.776 201.768 28.505 201.768 33.952 201.768 39.24 203.892 43.808 207.775 46.873 210.981 49.403 215.102 50.679 220.064 50.679 223.159 50.679 226.045 50.218 229.292 49.204 229.411 49.167 229.589 49.11 229.826 49.035L229.826 43.057C229.04 43.583 228.77 43.755 228.289 44.033 227.657 44.4 226.983 44.735 226.27 45.036 224.287 45.875 222.48 46.26 220.531 46.26 217.124 46.26 214.214 45.044 212.06 42.718 209.93 40.417 208.777 37.219 208.777 33.607 208.777 30.158 209.846 26.964 211.748 24.731 212.571 23.764 213.581 22.939 214.731 22.295 216.59 21.253 218.749 20.718 221.091 20.718 223.102 20.718 225.05 21.109 227 21.904 228.215 22.4 228.659 22.644 229.709 23.389L229.709 17.203M258.546 34.864L258.546 42.887C258.546 44.669 258.518 45.317 258.402 46.235 258.338 46.739 258.22 47.216 258.05 47.654 257.812 48.269 257.424 48.831 256.865 49.373 256.767 49.469 256.614 49.608 256.409 49.791L266.92 49.791C266.48 49.357 266.321 49.175 266.034 48.774 265.774 48.411 265.569 48.048 265.422 47.693 265.106 46.925 265.022 46.344 264.993 44.724 264.975 43.752 264.966 43.183 264.966 43.018L264.993 24.926 264.993 22.972C264.993 21.527 265.11 20.412 265.357 19.495 265.473 19.069 265.648 18.661 265.878 18.284 266.225 17.716 266.473 17.453 267.181 16.903L256.449 16.903C257.065 17.417 257.28 17.657 257.647 18.244 257.884 18.625 258.068 19.009 258.194 19.391 258.448 20.161 258.546 21.121 258.546 22.842L258.546 30.839 243.801 30.839 243.801 24.835C243.801 23.019 243.829 21.828 243.893 20.941 243.931 20.399 244.019 19.918 244.153 19.508 244.387 18.795 244.98 17.818 245.521 17.255 245.599 17.174 245.72 17.057 245.886 16.903L235.348 16.903C235.978 17.554 236.144 17.748 236.429 18.167 236.66 18.504 236.848 18.881 236.99 19.287 237.28 20.119 237.327 20.569 237.354 22.764L237.38 24.848 237.38 42.848C237.38 44.682 237.35 45.481 237.25 46.312 237.198 46.742 237.089 47.18 236.925 47.615 236.654 48.33 236.267 48.897 235.661 49.465 235.582 49.539 235.46 49.648 235.297 49.791L245.703 49.791C245.252 49.321 245.094 49.125 244.83 48.709 244.631 48.395 244.457 48.051 244.309 47.68 243.966 46.817 243.862 46.196 243.828 44.802 243.81 44.103 243.801 43.447 243.801 42.835L243.801 34.864 258.546 34.864M115.665 16.903C116.316 17.434 116.54 17.682 116.863 18.232 117.074 18.59 117.231 18.975 117.332 19.378 117.456 19.872 117.526 20.379 117.54 20.888 117.551 21.25 117.56 21.932 117.567 22.933L117.58 24.835 117.58 34.239C117.58 37.56 117.605 38.703 117.71 40.035 117.895 42.392 118.643 44.354 120.015 46.079 121.404 47.823 123.288 49.132 125.564 49.933 127.33 50.556 129.317 50.864 131.561 50.864 134.033 50.864 136.448 50.489 138.224 49.829 140.086 49.138 141.878 47.937 143.121 46.547 144.638 44.85 145.496 42.794 145.778 40.178 145.946 38.613 145.999 37.206 145.999 34.291L145.999 24.835 145.986 22.972 145.985 22.709C145.985 21.049 146.121 20.007 146.284 19.452 146.625 18.288 147.219 17.605 147.758 17.19 147.966 17.029 148.03 16.982 148.134 16.903L138.393 16.903C138.793 17.501 138.922 17.758 139.109 18.336 139.235 18.722 139.326 19.136 139.383 19.573 139.534 20.742 139.591 22.226 139.591 25.03L139.591 35.242C139.591 38.081 139.521 39.503 139.318 40.816 139.181 41.697 138.894 42.511 138.471 43.213 137.641 44.591 136.19 45.603 134.42 46.039 133.713 46.213 132.929 46.301 132.087 46.301 130.391 46.301 128.925 45.95 127.621 45.232 126.792 44.774 126.123 44.19 125.668 43.526 124.766 42.209 124.501 40.882 124.469 37.508L124.43 33.366 124.43 25.03C124.43 22.228 124.488 20.707 124.639 19.573 124.753 18.708 125.016 17.938 125.446 17.203 125.486 17.135 125.547 17.036 125.629 16.903L115.665 16.903M162.007 43.03C162.007 43.632 162.011 44.182 162.02 44.684 162.046 46.204 162.158 46.997 162.449 47.719 162.59 48.068 162.778 48.404 163.01 48.722 163.301 49.122 163.44 49.284 163.921 49.791L153.462 49.791C154.072 49.234 154.261 49.036 154.557 48.644 154.796 48.326 154.99 47.975 155.13 47.602 155.401 46.881 155.507 45.983 155.507 44.424L155.507 22.842C155.507 21.098 155.412 20.078 155.182 19.338 155.053 18.926 154.86 18.522 154.609 18.14 154.298 17.668 154.087 17.432 153.502 16.903L161.994 16.903C163.042 16.903 164.058 16.916 165.041 16.942 167.66 17.012 169.192 17.167 170.668 17.515 172.768 18.01 174.655 19.054 176.008 20.471 177.48 22.013 178.237 23.848 178.237 25.871 178.237 26.72 178.1 27.575 177.831 28.404 177.351 29.888 176.537 31.065 175.24 32.155 174.095 33.117 172.84 33.843 171.189 34.499 170.609 34.73 170.364 34.815 169.731 35.007L174.836 41.012C175.456 41.74 176.255 42.635 177.232 43.695 178.772 45.363 179.799 46.416 180.958 47.511 181.457 47.984 181.931 48.414 182.377 48.8 182.803 49.169 183.021 49.349 183.576 49.791L179.447 49.791C178.837 49.791 178.268 49.782 177.741 49.764 176.312 49.717 175.419 49.507 174.471 48.996 173.368 48.4 172.249 47.513 171.072 46.3 170.707 45.924 170.173 45.334 169.47 44.528 168.848 43.816 168.392 43.287 168.102 42.939L162.007 35.633 162.007 43.03zM162.54 32.876C163.012 32.876 163.587 32.826 164.26 32.728 166.029 32.469 167.226 32.081 168.402 31.387 169.012 31.025 169.531 30.608 169.939 30.149 170.781 29.201 171.217 27.936 171.217 26.442 171.217 24.726 170.639 23.348 169.522 22.399 168.882 21.856 168.123 21.452 167.295 21.214 166.053 20.857 164.484 20.662 162.863 20.662 162.595 20.662 162.42 20.666 162.007 20.68L162.007 32.858C162.263 32.872 162.375 32.876 162.54 32.876L162.54 32.876z"/>
</svg>
