<svg width="130" height="73" viewBox="0 0 130 73" fill="none" xmlns="http://www.w3.org/2000/svg">
<path fill-rule="evenodd" clip-rule="evenodd" d="M64.8953 11.7645C49.4864 11.7645 39.4211 24.3996 39.4211 36.1705C39.4211 42.9204 41.0727 46.2954 42.8808 49.5129C45.161 43.3911 49.7201 31.226 49.7201 31.226C49.7201 31.226 51.8439 30.1272 51.8439 30.2854L54.91 22.515L56.8765 21.4959L59.3133 16.3148L64.6589 17.1783L75.508 23.2216L87.6944 26.596C84.5511 18.5916 75.6665 11.7645 64.8953 11.7645V11.7645ZM64.7375 63.875C58.0547 63.875 49.8794 61.5204 43.9823 54.2998H85.4155C80.6193 60.4993 72.3641 63.875 64.7375 63.875V63.875ZM72.9135 53.0441H69.1408L76.1381 44.3331L76.8453 45.6672L72.9135 53.0441ZM76.6096 25.3409L64.5804 18.3563L60.1784 17.5719V20.7879L63.5588 23.9276L58.8405 23.5354C58.8405 23.5354 58.9983 23.7714 62.9295 27.9301L80.8551 30.9136L83.9997 32.9537L75.8237 33.3459L72.4427 45.6672L61.3571 53.044H54.1242L56.5616 48.2565L56.1687 48.0996L49.6416 53.044H48.0699L54.7528 43.7062C55.0678 41.0365 54.91 42.2131 55.3036 37.4262L54.2813 36.0129L51.6075 46.3732L46.0254 53.044H44.6116L47.9128 48.4127L52.5512 34.2094L51.3724 34.7585L49.3273 40.409L47.9128 41.1934C47.9128 41.1934 44.6116 49.1991 42.8808 53.1225C40.3661 49.5129 37.5352 44.6468 37.5352 36.1705C37.5352 23.4576 48.4635 10.0375 64.8954 10.0375C80.6979 10.0375 89.1109 22.5941 90.5248 29.1074L76.6096 25.3409ZM84.3939 43.7062L82.113 45.6672L77.5532 53.044H74.5651L77.5532 47.7858L79.9114 45.8227L83.2938 36.3273L86.9106 37.8184L84.3939 43.7062ZM86.5157 53.044H80.4615L86.202 44.0186L87.9315 38.1328L91.5483 39.3892C91.2333 43.9402 89.7396 48.5715 86.5157 53.044V53.044ZM79.1255 42.2131L77.3168 42.5275L77.7889 38.9172L77.3168 38.2119L77.7889 34.1303L82.428 36.0129L79.1255 42.2131V42.2131Z" fill="white"/>
</svg>
