<svg width="60" height="60" viewBox="0 0 60 60" fill="none" xmlns="http://www.w3.org/2000/svg">
<path fill-rule="evenodd" clip-rule="evenodd" d="M47.801 8H30.3193C27.9987 8 26.1183 9.84195 26.1183 12.115V41.8499C26.1183 42.7584 25.3658 43.4956 24.4364 43.4956H17.4453C16.5178 43.4956 15.7653 42.7584 15.7653 41.8499V34.998C15.7653 34.0914 16.5178 33.3523 17.4453 33.3523H25.1398V25.7478H12.199C9.88041 25.7478 8 27.5897 8 29.8609V46.987C8 49.2601 9.88041 51.102 12.199 51.102H29.6827C32.0013 51.102 33.8836 49.2601 33.8836 46.987V35.4753H33.8777V24.439H33.8836V17.2521C33.8836 16.3417 34.6342 15.6065 35.5636 15.6065H42.5567C43.4841 15.6065 44.2367 16.3417 44.2367 17.2521V24.1022C44.2367 25.0106 43.4841 25.7478 42.5567 25.7478H34.8582V33.3523H47.801C50.1216 33.3523 52 31.5104 52 29.2392V12.115C52 9.84195 50.1216 8 47.801 8Z" fill="white"/>
</svg>
