<svg width="130" height="73" viewBox="0 0 130 73" fill="none" xmlns="http://www.w3.org/2000/svg">
<mask id="mask0" mask-type="alpha" maskUnits="userSpaceOnUse" x="6" y="17" width="118" height="39">
<path fill-rule="evenodd" clip-rule="evenodd" d="M6.40869 17.3375H123.346V55.4036H6.40869V17.3375Z" fill="white"/>
</mask>
<g mask="url(#mask0)">
<path fill-rule="evenodd" clip-rule="evenodd" d="M37.437 19.3764C37.5445 19.2665 37.7164 19.4221 37.5773 19.5464C37.4975 19.5171 37.4032 19.4098 37.437 19.3764V19.3764ZM34.0316 33.3002C34.1819 32.1801 33.0175 32.0925 31.4284 34.5865C29.8381 36.8632 30.6542 38.9266 33.0046 36.3672C33.3781 35.8706 33.5329 35.677 34.1471 34.5598C34.6664 33.3569 34.0338 33.7511 34.0477 33.4555L34.0316 33.3002ZM63.9603 20.3329C63.9017 21.1722 63.4735 22.728 63.1361 23.7245C63.7884 23.6907 65.0017 24.2449 65.626 24.7708C66.8606 23.0407 68.0363 21.6826 68.9489 20.7461C68.252 21.3712 65.1791 22.099 63.9603 20.3329V20.3329ZM115.374 43.0322C116.422 44.4738 116.608 44.5662 117.325 45.2928C117.825 45.7098 118.731 46.6229 119.337 47.0402C122.953 49.5117 124.385 46.4902 120.849 44.6396C119.572 43.9472 118.204 43.4245 115.374 43.0322V43.0322ZM25.5545 34.3018C18.2044 37.4735 13.625 41.752 9.42375 47.4892C7.78866 50.0763 6.15486 53.1294 7.77578 54.3967C10.1433 55.7226 14.5476 53.9796 19.9747 44.3353C22.0396 40.6271 24.1679 37.0432 25.5545 34.3018V34.3018ZM111.461 32.8381C110.562 33.3093 109.989 33.6378 108.91 35.5234C110.374 35.2861 111.626 34.9518 112.399 33.984C113.356 32.6751 112.298 32.3994 111.461 32.8381V32.8381ZM98.32 33.4555C98.5776 31.993 97.2287 32.3096 95.5453 34.7579C94.3564 36.4567 94.8042 39.2522 97.6176 36.0387C97.9418 35.5402 98.1269 35.3212 98.3886 34.7914C99.0366 33.546 98.322 33.9054 98.3358 33.611L98.32 33.4555ZM73.7103 33.0342C72.5977 34.3753 72.6592 34.4381 71.9809 35.6216C71.4565 36.5566 71.5769 37.1646 71.9577 37.363C72.3061 37.4841 72.703 37.3598 73.4457 36.6406C74.341 35.4564 74.4025 35.3321 75.2981 33.8355C76.2835 31.9354 74.5132 31.974 73.7103 33.0342V33.0342ZM59.3519 32.3827L58.6645 31.4835C57.335 32.9814 55.8818 34.7598 53.2191 36.6989C54.1675 37.2371 55.4043 37.4587 56.5453 37.2741C58.4086 36.8931 59.6744 35.0233 60.5691 33.527L59.3519 32.3827ZM66.6607 26.9418L63.2417 33.7949L63.0566 34.1373C63.9284 34.5067 65.2654 34.8126 65.9189 34.8094C67.678 32.1592 67.8241 29.2446 66.6607 26.9418V26.9418ZM62.8895 24.3161C62.0515 26.6256 60.5649 29.1599 59.2823 30.7041L59.1281 30.9537C59.535 31.6974 60.1908 32.5028 60.908 32.935C62.3271 30.659 63.5273 28.0748 65.3182 25.3625C64.8807 24.7428 63.393 24.3267 62.8895 24.3161V24.3161ZM59.4462 25.5435C58.4894 26.8842 58.1546 28.5956 58.8145 30.3016C60.1441 28.7109 61.6556 26.1718 62.2685 24.2562C61.2239 24.2665 60.109 24.6671 59.4462 25.5435V25.5435ZM117.353 22.2472C116.038 23.4031 115.405 24.4791 114.541 25.8501L115.874 24.927C116.736 24.282 117.177 23.8771 117.746 23.3026C119.586 21.3673 118.126 21.4053 117.353 22.2472V22.2472ZM45.9795 22.5866C44.5269 24.272 44.0939 24.9258 43.4472 26.1109C44.5321 25.5773 46.6822 23.4858 47.3161 22.6436C48.0894 21.8011 47.4018 20.9493 45.9795 22.5866V22.5866ZM73.5799 17.4936C70.5148 20.1181 69.1733 22.3773 66.9533 26.272C67.6351 27.5096 68.2381 28.9241 68.261 30.5099L69.465 28.6394C71.687 25.242 74.9076 20.9622 79.3963 18.929C79.3963 18.929 79.4825 18.9979 79.4896 18.9912L79.4587 19.1461C75.102 22.1786 69.756 32.727 68.7126 34.4242C71.94 33.1978 74.6304 30.4819 76.2236 32.5257L76.5942 31.9344C76.8118 31.9331 77.9302 31.9286 78.179 31.9273L75.6483 36.4171C75.4668 36.9746 75.6873 37.8439 76.8318 36.5018L77.4495 35.754C78.9794 33.7569 79.442 32.9469 80.2626 32.3846C80.7265 31.9157 82.3403 31.5044 82.6549 32.4362L82.8442 32.917C83.8978 32.4152 84.9039 31.4317 86.0416 32.1721C86.3928 32.5424 86.8821 32.8526 86.2367 34.192C85.558 35.2516 85.681 35.0964 85.0024 36.2023C84.4461 37.0593 84.6553 38.5504 87.0512 35.8986C88.5411 33.9276 89.9521 31.0674 93.079 31.9553C93.5616 32.2642 93.7493 32.4809 93.6272 32.9479C93.5033 33.2278 93.0291 33.3869 92.7294 33.2403C92.2909 33.0465 92.4809 32.0848 91.358 32.8023C90.4456 33.7543 89.567 35.2345 89.229 36.0748C88.9827 36.6976 89.0774 37.2255 89.7309 37.4406C90.5551 37.4989 91.1902 36.9994 91.7784 36.3743C93.8211 34.7495 95.3905 31.2613 98.5467 31.9463C100.118 32.4532 99.1332 34.3215 101.024 33.2107C102.665 32.3019 103.283 31.5363 105.366 31.993C105.766 32.2139 106.115 32.5495 106.085 33.0471C106.009 33.3589 105.901 33.4365 105.618 33.5492C104.7 33.8307 105.32 32.2268 104.046 32.8416C103.271 33.346 102.737 34.3215 102.151 35.3968C101.226 36.831 101.652 38.4139 103.974 36.7569C105.214 35.8654 105.631 35.335 106.141 34.7882C110.641 29.9705 110.911 26.9699 115.77 22.5966C117.61 20.6147 120.437 20.4472 118.785 22.9106C118.553 23.1911 118.507 23.2688 117.858 23.9557C116.478 25.3344 115.598 25.8301 113.862 26.8945C112.628 28.6562 111.869 30.2104 110.681 32.1424L110.312 32.906C111.316 32.2796 112.296 31.8249 112.668 31.7144C115.136 31.1131 115.004 33.1341 114.635 33.7263C113.461 35.4406 111.38 35.5901 109.61 35.9392C111.729 37.3289 112.747 38.9717 114.514 41.7147C116.939 42.1086 118.62 42.7227 119.523 43.1536C120.675 43.7398 121.36 44.1414 122.109 44.7591C125.417 48.1021 121.496 50.1607 117.334 47.3607C115.465 45.9382 114.901 45.0393 113.182 42.5604C106.015 41.6126 97.3633 41.8055 91.4011 42.5462L91.2755 42.4232C95.8064 41.1904 105.482 40.5115 112.306 41.3517C111.493 39.9881 109.706 36.4522 108.648 36.1453C108.146 36.879 107.813 37.5469 107.446 38.1711C107.452 38.1582 105.271 38.1814 105.271 38.1814C105.918 36.935 106.92 35.2989 107.443 34.1463C106.238 35.4883 105.264 36.5334 104.071 37.3933C102.042 38.6928 101.076 38.2619 100.39 37.5798C99.7639 36.5576 100.347 35.1827 100.685 34.0358C100.039 34.1505 100.146 34.5305 99.3805 34.3524C98.735 35.7234 98.4282 36.5166 97.3758 37.3759C95.61 38.7199 94.179 38.3224 93.5851 37.4236C93.3485 36.7878 93.2847 36.5234 93.5596 35.2954C92.1541 36.65 90.453 38.9298 88.1808 37.9759C87.5579 37.6674 87.4146 37.1099 87.3599 36.5881C87.3609 36.5675 87.4108 36.3315 87.4874 36.1138C85.8024 38.0954 84.0192 38.7865 83.0054 37.7344C82.2869 36.8819 83.8312 34.8242 84.1856 34.1386L84.3547 33.8429C85.0185 32.8452 83.6989 33.1308 83.4829 33.287C82.6758 33.5711 81.9814 34.7237 81.3652 35.8609L80.1016 38.2281L78.0355 38.2377C78.9147 36.6175 79.8099 35.1936 80.6402 33.5946C80.6888 33.3956 80.7146 32.7399 79.9712 33.2716C79.6625 33.6925 79.2456 34.2223 78.4739 35.2516C77.8755 36.0468 76.2198 38.65 74.6336 38.2835C73.917 38.0377 73.8623 37.8558 73.7596 37.448C73.72 37.3279 73.8136 37.0812 73.728 37.1685C72.9879 37.7965 72.1477 38.2944 71.0898 38.173C70.518 38.1534 69.9917 37.6355 69.887 37.1141C69.7039 36.0967 70.2106 35.0165 70.8255 34.1663L70.6072 34.2291C69.9894 34.5576 69.0561 34.7956 68.3746 35.0155C67.7256 36.0139 67.1925 37.1437 66.5544 38.1943C66.5544 38.1943 64.2326 38.1952 64.2239 38.2049L65.7345 35.2764C64.7712 35.2803 63.4017 34.9447 62.7788 34.6052C61.6076 36.7237 59.9049 38.0999 57.7 38.5128C55.808 38.8699 53.9408 37.9134 52.5684 37.105C50.4002 38.8242 46.2376 38.9665 48.7085 35.631C49.1408 34.9447 48.6315 35.7392 49.2178 34.8043C49.5481 34.2771 49.4338 34.5237 49.6804 34.0568C50.5145 32.9341 48.9422 32.0854 47.2147 34.9527C46.4427 36.1685 46.1491 36.5427 45.1775 38.1952L43.3486 38.191C44.2693 36.5823 45.1959 35.164 46.0895 33.5589C46.3976 33.0603 46.1462 32.2687 45.1411 33.3772L44.9705 33.5946C44.3836 34.3437 43.102 36.0896 42.2682 37.1656C40.6293 39.0999 38.3426 38.2248 39.4829 36.1685C39.9764 35.2332 40.007 35.2642 40.1924 34.8899C40.4409 34.4381 40.5465 34.2352 40.6228 34.0645C41.7496 32.3038 39.405 32.5933 37.6179 36.0516L36.3839 38.1701C36.3839 38.1701 34.4572 38.1794 34.4495 38.1943C35.9683 35.3749 36.8327 34.1595 37.9115 32.1653L37.5075 32.4481C36.8157 33.0761 36.0536 33.5721 35.13 33.5382C34.725 35.4426 33.767 36.5344 33.0861 37.1289C31.3834 38.5965 30.0783 38.1524 29.5786 37.8587C29.1028 37.4397 28.9196 36.9247 28.8897 36.3286C28.9528 34.9099 29.7615 34.0059 30.5966 32.88C29.9756 33.0693 29.1695 33.0732 28.4242 33.3569C27.516 35.0394 23.7005 43.7897 20.984 47.7501C15.5176 55.4199 8.99787 56.5361 6.95393 54.5252C5.46918 52.6666 7.13035 48.6805 10.5592 44.2209C13.9595 40.0715 19.534 36.0377 25.9704 33.5692C28.5607 29.0194 31.6651 24.8256 35.564 21.0788C33.5799 22.082 29.8822 21.9734 28.3534 20.6285C28.8321 23.5634 26.4221 26.6823 23.7543 27.6269C26.2318 25.7815 28.3965 23.2546 27.7613 20.2891C27.3844 19.7944 27.1387 19.8559 26.9176 19.2044C26.821 18.3657 27.5981 18.4875 27.9448 19.4797C28.6949 20.5648 30.2969 21.1812 32.1618 21.2646C34.5229 21.2073 35.8882 20.5329 37.4827 19.3293L37.5773 19.5464C33.6157 23.2626 29.671 30.678 28.7793 32.7328C31.5717 31.8816 33.8059 31.374 34.4627 32.241C34.8625 32.5363 34.7878 32.7705 35.2118 33.0155C36.1145 33.3231 38.0638 31.4188 39.2685 29.8278C41.4322 27.1141 42.4115 23.6601 46.8586 21.1532C47.6335 20.7928 48.7236 21.2073 47.9062 22.5786C47.1352 23.825 44.5955 25.9505 43.2015 26.889C42.068 27.652 40.9483 30.3805 39.4977 32.5308C40.6759 32.013 43.7626 30.8803 42.6722 33.6677C42.4881 34.1038 41.8706 35.2564 41.3159 36.1286C40.7593 36.7843 41.0742 37.7459 42.1716 36.3276C42.434 36.0158 43.3538 34.7244 43.7468 34.2381C44.9679 32.7247 45.739 31.4784 47.357 32.03C47.7778 32.2619 47.8338 32.87 47.8125 33.3183C48.3701 32.8651 48.9431 32.459 49.6874 32.1447C50.2827 31.9402 50.8033 31.7515 51.4272 32.0439C52.2687 32.63 51.5743 33.8307 51.405 34.0957L49.8626 36.5576C49.5542 37.2435 49.774 37.802 50.7363 37.5173C51.4806 37.2342 51.7285 37.0474 52.1769 36.7495C51.7723 36.3005 51.3821 35.9147 51.7295 35.7811C51.8338 35.8297 52.5964 36.4529 52.5964 36.4529C54.2676 35.2017 56.3418 33.3589 58.4134 30.8632C58.0992 29.9943 57.9736 29.8082 57.9398 29.2178C57.5909 27.603 58.3815 23.6211 62.5142 23.634C62.5142 23.634 63.1413 21.7258 63.158 21.6111C63.3402 20.739 63.5553 20.0859 63.2047 18.758C63.1223 18.359 63.0994 18.0372 63.4211 17.9107C64.2172 17.9786 63.9271 18.9503 64.1551 19.4459C64.3595 19.9912 64.5246 20.3828 65.0491 20.577C68.504 22.0224 71.499 17.844 73.5477 17.3374L73.5799 17.4936Z" fill="white"/>
</g>
</svg>
