<svg xmlns="http://www.w3.org/2000/svg" xmlns:xlink="http://www.w3.org/1999/xlink" width="142" height="80" viewBox="0 0 142 80">
  <defs>
    <polygon id="white-a" points="0 0 127 0 127 74 0 74"/>
  </defs>
  <g fill="none" fill-rule="evenodd" transform="translate(8 3)">
    <mask id="white-b" fill="#fff">
      <use xlink:href="#white-a"/>
    </mask>
    <path fill="#FFF" d="M106.933331,56.77685 L104.622598,56.77685 L104.622598,71.2170991 L113.48493,71.2170991 L113.48493,69.2074559 L106.933331,69.2074559 L106.933331,56.77685 Z M97.4372593,66.7801708 C97.4372593,65.058801 95.9331589,64.2867247 94.4426303,64.2867247 L92.3337035,64.2867247 L92.3337035,69.2730263 L94.5116691,69.2730263 C95.9667932,69.2730263 97.4372593,68.5027221 97.4372593,66.7801708 L97.4372593,66.7801708 Z M92.3337035,62.3899098 L93.8761587,62.3899098 C94.9176404,62.3899098 96.0311113,61.912014 96.0311113,60.5752056 C96.0311113,59.2076794 94.9076092,58.7197414 93.8543259,58.7197414 L92.3337035,58.7197414 L92.3337035,62.3899098 Z M99.7468115,66.7801708 C99.7468115,69.6930311 97.2956413,71.2170991 94.8733848,71.2170991 L90.1150227,71.2170991 L90.1150227,56.77685 L94.1251702,56.77685 C96.170369,56.77685 98.3412537,58.108342 98.3412537,60.5752056 C98.3412537,62.0839147 97.4313585,62.8500838 97.1988691,63.0408877 C98.7932508,63.7408957 99.7468115,65.2188872 99.7468115,66.7801708 L99.7468115,66.7801708 Z M81.2237777,65.546739 C79.5556366,61.4902371 79.6370669,61.730071 79.2729908,60.6602698 C79.0145381,61.3862697 79.0741357,61.2220484 77.2944705,65.546739 L81.2237777,65.546739 Z M79.7816352,56.5783667 L86.0281656,71.2170991 L83.6572456,71.2170991 L82.0610936,67.4789974 L82.0463418,67.4447354 L76.4736766,67.4447354 L74.8857857,71.2170991 L72.5585312,71.2170991 L78.8038815,56.5783667 L79.7816352,56.5783667 Z M63.8773527,71.2170991 L66.186905,71.2170991 L66.186905,58.7853117 L70.9942433,58.7853117 L70.9942433,56.77685 L59.0723747,56.77685 L59.0723747,58.7853117 L63.8773527,58.7853117 L63.8773527,71.2170991 Z M51.5200091,71.2170991 L53.8307415,71.2170991 L53.8307415,56.77685 L51.5200091,56.77685 L51.5200091,71.2170991 Z M39.6111222,69.4047577 C37.2602647,69.4047577 35.9137144,68.1364732 35.9137144,65.9248024 L35.9137144,56.77685 L33.603572,56.77685 L33.603572,66.1002475 C33.603572,69.3055161 36.0163873,71.4563423 39.6111222,71.4563423 C43.244802,71.4563423 45.5938892,69.3539555 45.5938892,66.1002475 L45.5938892,56.77685 L43.3297728,56.77685 L43.3297728,65.9248024 C43.3297728,68.1364732 41.9737812,69.4047577 39.6111222,69.4047577 L39.6111222,69.4047577 Z M26.5551302,64.0179452 C26.5551302,60.6059232 23.7534557,58.5649717 21.0438328,58.5649717 C18.3731549,58.5649717 15.5354858,60.4759639 15.5354858,64.0179452 C15.5354858,67.5735132 18.3731549,69.4910034 21.0438328,69.4910034 C23.7534557,69.4910034 26.5551302,67.4447354 26.5551302,64.0179452 L26.5551302,64.0179452 Z M29.4866211,71.8308613 L30.2141832,71.5496767 L28.5035567,73.8605891 L28.4303875,73.880083 C28.1666241,73.9586493 27.8450334,74 27.5287534,74 C25.8842153,74 24.7660238,73.5988984 23.39233,72.9006626 C22.2759087,72.3223437 21.2438681,71.8704398 20.4891626,71.5390437 L20.2490022,71.4338948 L20.2307099,71.4297597 C16.738058,71.116676 13.2011504,68.4542827 13.2011504,63.9742317 C13.2011504,59.3045582 17.1894651,56.5127964 21.0438328,56.5127964 C24.8999707,56.5127964 28.8871052,59.3045582 28.8871052,63.9742317 C28.8871052,67.1942684 26.8814415,69.943498 23.8968438,70.814816 L23.7333931,70.8608925 L23.8933033,70.9193742 C24.1960117,71.0268859 24.5193726,71.1633432 24.8810883,71.3340624 C26.7551655,72.2071526 28.1329898,72.356015 29.4866211,71.8308613 L29.4866211,71.8308613 Z M63.500295,0.98650914 C52.0304237,0.98650914 42.7001631,10.3276283 42.7001631,21.8095314 C42.7001631,25.9883132 43.93991,29.8800032 46.0653589,33.1437535 C47.1605375,29.9816077 48.6764393,25.8878902 49.1992454,24.5788457 C49.6164282,23.5303105 50.4897387,22.9484474 51.5377113,22.5485272 C51.8528112,23.2343578 53.0341407,24.7158937 54.8816645,24.8163168 C54.3387958,25.5683085 54.1541024,25.9800431 53.6354268,27.1018281 C52.8429565,28.8054762 52.1915141,30.1428754 51.3075822,31.4643251 C51.3075822,31.4643251 50.8561751,32.1542907 50.0755063,32.2464437 C48.9378424,31.6190948 49.1302067,29.7364573 48.8357595,29.0394029 C48.7319063,28.7907081 48.508268,28.7599904 48.3560288,28.9112158 C48.1436019,29.1238764 48.381992,30.3413587 48.3330158,31.2233097 C48.2976114,31.8435699 47.9010812,32.9860302 47.1617176,34.6743195 C48.8263183,36.7885208 50.8903994,38.5730981 53.2394867,39.9122695 C53.6006124,37.60372 54.2314022,34.6678215 54.9282804,32.4874591 L54.9377216,32.4567414 C54.9406719,32.4508342 54.9406719,32.4455177 54.9406719,32.4390197 C54.9406719,32.4094835 54.917659,32.3852638 54.8875652,32.3852638 C54.8657325,32.3852638 54.8468501,32.397669 54.8379989,32.4165722 L54.8256074,32.4455177 C54.2550052,33.6570927 52.2806154,37.1193263 51.874644,37.5954498 C51.7625298,37.7259998 51.4126155,37.6196695 51.2757182,37.1016045 C51.124069,36.5291929 51.1010561,36.3815119 50.7163274,36.3596551 C49.5373582,36.2958569 49.2623834,35.3654666 49.2234385,35.1593039 C49.124306,34.6306059 49.4122624,34.3275645 49.6783861,34.2797158 C49.8565886,34.2466353 50.0536736,34.2265507 50.2672806,34.1686597 C51.6545461,33.7628323 52.1484386,33.1561587 52.8978335,31.8199409 C53.6259856,30.5197573 54.3995735,28.4687635 55.4740994,26.5341423 C56.6158939,24.481967 57.8461996,22.7440568 59.1065991,22.2254011 C61.4851901,21.2447992 62.6446868,22.3417738 62.9249722,22.6223677 C60.4431182,22.5414385 59.1065991,24.2515846 57.904617,26.1631676 L57.8957659,26.1761635 C57.8827842,26.1974296 57.8751133,26.2210585 57.8751133,26.2470504 C57.8751133,26.318528 57.9335306,26.3764189 58.0043396,26.3764189 C58.0415143,26.3764189 58.0739684,26.3628323 58.0981615,26.3380219 L58.1135034,26.3208909 C59.0251688,25.3733695 61.0774485,23.895378 64.5093227,23.9438174 C58.3176693,31.41943 61.1919229,40.1881376 62.1366325,42.5835236 C62.5898098,42.6130598 63.041807,42.6343259 63.500295,42.6343259 C64.2325777,42.6343259 64.9571894,42.5935659 65.6699996,42.5185439 C58.0426945,25.1305819 74.5104982,15.3730023 83.3568976,28.0186318 C83.5333299,27.4527181 83.6820287,26.8743993 83.810665,26.2889918 C76.8914495,15.8426279 66.4961041,22.251393 65.8853768,22.820851 C65.8853768,22.820851 65.9154706,21.8065778 66.9587227,21.2536601 C69.9987873,19.7171869 72.6877576,19.2605572 75.5130351,19.6522072 C78.6044362,20.0822543 81.645091,21.9595753 83.9959485,25.3450148 C84.1930334,24.1948751 84.3016071,23.0163806 84.3016071,21.8095314 C84.3016071,10.3276283 74.9695763,0.98650914 63.500295,0.98650914 L63.500295,0.98650914 Z M67.9116932,42.1576116 C69.3013191,41.8551609 70.6378382,41.4144807 71.908859,40.8491578 C66.2577139,31.3154626 75.8310853,22.4067534 81.9725824,31.363902 C82.3933057,30.5534286 82.7644626,29.7140097 83.0766121,28.844464 C73.4430531,15.881025 60.7316647,27.7285863 67.9116932,42.1576116 L67.9116932,42.1576116 Z M61.2940059,26.1165004 C61.3046272,26.0964157 61.3128883,26.0763311 61.3128883,26.0532929 C61.3128883,25.9912669 61.2621418,25.9410553 61.1990038,25.9410553 C61.1748108,25.9410553 61.152978,25.948144 61.1346857,25.9605492 L61.1317353,25.9635028 C59.0334298,27.3599745 56.5958314,31.8985072 55.4558071,41.0127884 C56.1497349,41.3051968 56.8649054,41.5562545 57.5942377,41.7736409 C57.7181534,32.0816317 59.9067403,28.2980442 61.2904654,26.119454 L61.2940059,26.1165004 Z M73.5557574,40.0286421 C76.9085617,38.1678614 79.6919439,35.407408 81.5872637,32.0733615 C75.939069,23.7217051 68.186078,31.7626407 73.5557574,40.0286421 L73.5557574,40.0286421 Z M63.500295,43.6184721 C51.487555,43.6184721 41.7153285,33.8343099 41.7153285,21.8095314 C41.7153285,9.78416221 51.487555,0 63.500295,0 C75.5130351,0 85.2852616,9.78416221 85.2852616,21.8095314 C85.2852616,33.8343099 75.5130351,43.6184721 63.500295,43.6184721 L63.500295,43.6184721 Z M68.5572349,14.3959448 C68.7136047,14.7291131 68.787364,15.1148559 68.5041282,15.5460845 C68.5938195,15.7173944 68.6410255,15.9005189 68.6427957,16.080099 C68.6439759,16.443985 68.4693138,16.6720045 68.3642805,16.7877864 C68.3743118,16.8137782 68.3902438,16.8444959 68.4091262,16.8864373 C68.7336672,17.5498204 68.5389426,18.2923605 67.9116932,18.774982 C67.2809034,19.2617386 66.297249,19.2989543 66.0104727,19.2989543 C65.3478188,19.2989543 64.4308428,19.2044384 64.3924879,19.2003033 C64.3895376,19.2003033 64.384817,19.1991219 64.3830467,19.1991219 C64.3370209,19.5305181 64.2756531,20.2760118 64.4621167,21.0870759 C63.9440312,20.1094276 63.9216083,19.0094995 63.8679116,18.4158218 C64.5228944,18.5002954 65.301793,18.5741359 65.8983585,18.5859503 C66.5621925,18.5989463 67.0448736,18.5162449 67.4585159,18.2031612 C67.8237721,17.9278838 67.9187741,17.6230702 67.7222793,17.2237407 C67.5552881,16.882893 67.459696,16.5928474 67.7960386,16.2744472 C67.9577191,16.1214497 67.8526858,15.874527 67.6933656,15.726846 C67.5310951,15.5773928 67.530505,15.4799234 67.6921855,15.3233815 C67.9943037,15.0351082 67.9895831,14.9246428 67.7777463,14.5578031 C67.7151984,14.4497006 67.6750733,14.3232857 67.64911,14.1998244 C67.6113452,14.0072483 67.6833343,13.9003273 67.8975314,13.849525 C68.297012,13.7567814 68.6144722,13.3769458 68.6162424,12.9728906 C68.6162424,12.8376148 68.5041282,12.6857987 68.4091262,12.5711982 C67.9712908,12.0425002 67.5216539,11.5256167 67.079688,11.0016444 C66.8542794,10.7364094 66.8696214,10.4593598 66.9976676,10.1439131 C67.072017,9.96374232 67.0867689,9.73276922 67.0495941,9.54078391 C66.9079762,8.79706235 66.4760416,8.17798356 66.132028,7.52109843 C66.0942633,7.44962082 66.0264047,7.3533328 66.0458771,7.29662329 C66.3285229,6.5593997 65.3826332,5.09676698 64.076798,5.06545861 C63.8785329,5.06014209 63.6389626,5.04891834 63.4896737,4.94199729 C62.9721782,4.57161332 62.2263238,4.29751736 60.4631807,4.29751736 C59.5892802,4.29751736 58.7254108,4.42452303 57.9069773,4.73819749 C56.5250224,5.27221202 55.3926691,6.67163726 55.8546976,7.95587132 C55.9048539,7.76565818 56.6448076,5.36790932 58.8074312,5.63846092 C58.8074312,5.63846092 58.1583491,6.11635667 58.1424171,7.01248503 C58.1424171,7.51755408 58.8333945,7.63983396 59.0222184,7.18970224 C59.6211442,5.74065618 60.4236457,6.25399537 60.4596403,6.27348926 C60.4596403,6.27348926 59.6229144,6.54167798 59.9132311,7.75916021 C59.959847,7.9505548 59.8618947,8.13072563 59.6122931,8.13072563 C59.1260715,8.13072563 59.2647391,7.82827493 58.236829,8.88803385 C58.0261724,9.07942843 56.8442528,9.6855113 56.1556357,8.57140576 C56.0954481,8.6411112 55.8865616,8.88094516 55.7650062,9.18280514 C55.1914537,10.6170831 56.8129789,10.5450148 56.8106186,10.5473777 C56.3934358,11.1150635 56.1987111,11.4848567 56.1650769,11.5327054 C54.1954076,11.4754051 54.3470568,9.7002794 54.5518127,9.27909316 C54.1541024,9.41082462 53.7351494,10.056486 53.9345946,10.9278039 C51.4344483,12.1553285 52.9438593,14.463878 54.7016917,14.5205875 C54.7146733,14.4538357 54.5848569,16.6418775 56.2376561,16.6418775 C56.9032603,16.6418775 56.7533813,16.2933504 57.7364457,16.3866848 C57.4532099,16.6926798 56.8814275,17.2160613 56.0323101,17.2160613 C54.8492104,17.2160613 53.8986001,16.2584976 53.8850284,15.1006785 C53.5239027,15.0102978 53.0069973,14.7669195 52.4476065,14.1667438 C52.2174774,13.9345893 50.8892193,12.0295043 53.2123432,10.5497406 C52.9320578,7.66110002 54.8745836,6.85535244 55.0185618,6.78151193 C56.3934358,2.60627445 62.3590906,3.22594396 63.887384,4.28629361 C67.1735098,4.69034885 66.8649008,7.18970224 66.8542794,7.24877465 C67.214225,7.92160932 67.6402589,8.55604694 67.8025294,9.39782869 C67.9217245,10.0239962 67.7063473,10.3772491 67.6768435,10.5243394 C69.0959731,12.201405 69.3839295,12.4193821 69.3821674,12.9770256 C69.3780288,13.5429393 69.0534877,14.0917219 68.5572349,14.3959448 L68.5572349,14.3959448 Z M61.7076482,21.2447992 C61.5778318,21.2052207 58.5991349,20.1395546 55.6422707,23.7825497 C53.842543,23.5958809 53.2217844,22.5538437 53.0146682,21.9778878 C53.5008898,21.8160294 56.7864255,20.7054682 57.6337727,19.7313643 C58.7047582,18.5014768 59.1750477,15.7126686 59.1750477,15.7126686 C59.1785882,15.7020356 59.2488071,15.4409356 59.5462047,15.4409356 C59.6176037,15.4409356 60.1026451,15.4846492 60.528679,16.0440648 C61.4503756,17.2739523 60.5776552,18.3650196 61.7076482,21.2447992 L61.7076482,21.2447992 Z M55.6345997,12.599553 C54.5689249,14.305564 52.9361883,12.4010697 54.2780181,11.8747346 C54.601379,12.2327133 54.877534,12.4701844 55.6345997,12.599553 L55.6345997,12.599553 Z M56.3975663,13.4141614 C56.4996492,13.6817594 56.7468905,14.2323142 57.4048237,14.2323142 C57.9164185,14.2323142 58.1612995,13.980075 58.5702212,14.037966 C58.0857699,15.2778957 56.3456397,15.3151114 55.8074916,14.1011735 C56.008117,13.9345893 56.2470973,13.6215055 56.3975663,13.4141614 L56.3975663,13.4141614 Z M65.0858257,16.8190948 C65.1135592,16.8521753 65.0893661,16.9023868 65.0462907,16.9001044 C64.5016517,16.8728506 62.1584652,16.6519199 61.7123688,14.8378063 C61.635069,14.5241319 61.5359365,14.2329049 61.5211846,14.2329049 C61.4969915,14.2329049 61.4108406,14.2429472 61.3777965,14.3983077 C61.3400317,14.5755249 61.350653,14.7125728 61.2143458,14.7740081 C61.0101799,14.8655704 60.3245132,14.7775525 59.7592217,13.8442085 C59.2027812,12.929177 59.6724807,12.6946595 59.7314881,12.6716213 C59.9622073,12.5830127 60.3528368,12.6674862 60.4850135,13.1312046 C60.6042086,13.5535723 61.2326381,13.7591442 61.1653696,12.6603975 C61.137046,12.2368484 61.0426341,11.7329608 61.5837325,11.319454 C62.1242409,10.9065379 62.7048744,10.7039195 62.4936277,10.5290652 C62.4930376,10.5278838 62.4918574,10.5261116 62.4906773,10.5261116 C62.456453,10.5066177 61.9206652,10.2029856 61.105182,10.2029856 C59.0198581,10.2029856 57.84974,12.0519518 57.817876,12.0944839 C57.5977782,12.3851201 57.3405056,12.4489183 57.1882663,12.4122934 C57.1723343,12.4087491 57.1652534,12.3892552 57.1752847,12.3750778 C59.5102102,8.8720843 62.0127168,7.34860701 63.681448,7.34860701 C64.2933554,7.34860701 64.5813118,7.63628961 64.6674627,7.74084777 C64.6804444,7.75797877 64.6692329,7.78160773 64.6503506,7.78160773 C64.4556259,7.78928714 63.6631556,7.84776882 62.5573557,8.28844895 C61.2898753,8.79292728 60.9145879,9.28027461 60.8083744,9.37419973 C60.8001134,9.38128842 60.797163,9.39428435 60.8024737,9.40373593 C60.9529427,9.66424523 61.2757135,9.6512493 61.2904654,9.6512493 C61.4444749,9.6512493 61.64274,9.60871717 61.895882,9.49293526 C64.2986661,8.38355552 64.5057823,8.35401932 64.8008196,8.8254171 C65.2551771,9.55259839 65.4457712,9.82787579 64.8916911,10.2337032 C64.2561807,10.6991937 63.1385793,10.9183524 64.2254968,11.8617386 C64.7813471,12.3449509 65.5035985,12.5404806 65.3950248,13.6203241 C65.2899915,14.6836274 63.6395527,15.1254889 65.0858257,16.8190948 L65.0858257,16.8190948 Z M66.218769,13.0910354 C66.1916256,12.9404007 66.0860022,12.4341502 66.0163734,11.9290812 C65.9821491,11.6774327 66.0559084,11.4458689 66.1798241,11.3956574 C66.653064,11.9243554 67.119813,12.3372715 67.3605635,12.6196376 C67.5812514,12.8789654 67.5246043,13.0869003 67.2283868,13.2782949 C66.9787852,13.4383811 66.7781598,13.509268 66.6259205,13.509268 C66.392251,13.509268 66.2636147,13.3450467 66.218769,13.0910354 L66.218769,13.0910354 Z M119.381546,64.9696017 L125.532484,64.9696017 L125.532484,62.958777 L119.381546,62.958777 L119.381546,58.7853117 L126.507288,58.7853117 L126.507288,56.7780315 L117.071404,56.7780315 L117.071404,71.2182805 L127,71.2182805 L127,69.2086373 L119.381546,69.2086373 L119.381546,64.9696017 Z M2.31073239,69.2086373 L9.76337541,69.2086373 L9.76337541,71.2182805 L0,71.2182805 L0,56.7780315 L9.27125314,56.7780315 L9.27125314,58.7853117 L2.31073239,58.7853117 L2.31073239,62.958777 L8.29644979,62.958777 L8.29644979,64.9696017 L2.31073239,64.9696017 L2.31073239,69.2086373 Z" mask="url(#white-b)"/>
  </g>
</svg>
