<svg xmlns="http://www.w3.org/2000/svg" width="32" height="19" viewBox="0 0 32 19"><path fill="#3B3D3F" fill-rule="evenodd" d="M27.6711849 13.6035439C27.4922405 13.2955615 27.2447007 12.9436887 26.7719891 12.9436887 26.3850218 12.9436887 26.2057046 13.1087463 26.2057046 13.2745541 26.2057046 14.1107209 29.1131789 13.8410018 29.1131789 15.5530993 29.1131789 16.6672381 28.1450149 17.3162146 26.7380643 17.3162146 25.4142482 17.3162146 24.5530781 16.6991243 24.244399 15.8528289L25.7098793 15.4491881C25.9343055 15.841575 26.1814725 16.2024509 26.7380643 16.2024509 27.0929707 16.2024509 27.3390193 16.047897 27.3390193 15.8201925 27.3390193 14.9558909 24.4330362 15.2953844 24.4330362 13.5022586 24.4330362 12.9549426 25.0459209 11.8933221 26.7380643 11.8933221 27.6939258 11.8933221 28.6639538 12.2838334 29.0054394 13.2955615L27.6711849 13.6035439ZM22.1001972 13.8856049C22.0878948 13.4013109 22.0427859 12.8427409 21.3803187 12.8427409 20.8356565 12.8427409 20.6708785 13.4013109 20.6708785 13.8856049L22.1001972 13.8856049ZM20.6708785 14.8748251C20.6708785 15.3279833 20.7752628 16.1011281 21.533167 16.1011281 21.9935762 16.1011281 22.3835259 15.8126524 22.501331 15.3906301L23.7901038 15.8017736C23.7077148 16.0388563 23.1153341 17.2152669 21.415362 17.2152669 19.5837911 17.2152669 18.7565459 15.9259419 18.7565459 14.4929418 18.7565459 13.0295561 19.6330008 11.7923744 21.3915027 11.7923744 23.2331392 11.7923744 23.8728656 13.1736064 23.8728656 14.5240777L23.8728656 14.8748251 20.6708785 14.8748251ZM13.3975328 11.9150422 15.3111198 11.9150422 15.3111198 12.6064084 15.3346063 12.6064084C15.7364857 12.0797246 16.3393047 11.7923744 17.0233944 11.7923744 17.7928555 11.7923744 18.2890535 12.244032 18.2890535 12.957531L18.2890535 17.092224 16.374348 17.092224 16.374348 13.4316965C16.374348 13.1529742 16.2669814 12.9676595 15.9139389 12.9676595 15.7126264 12.9676595 15.5478484 13.0393095 15.4166225 13.1822344L15.3111198 13.3090287 15.3111198 17.092224 13.3975328 17.092224 13.3975328 11.9150422ZM9.3676481 16.1633998C9.84035966 16.1633998 10.0528562 15.7935207 10.0528562 14.482063 10.0528562 13.2853954 9.91119183 12.8423658 9.3676481 12.8423658 8.82447718 12.8423658 8.68430403 13.2853954 8.68430403 14.482063 8.68430403 15.7935207 8.89568215 16.1633998 9.3676481 16.1633998M9.3676481 11.7923744C11.1518733 11.7923744 12.038021 12.9361485 12.038021 14.482063 12.038021 16.0902493 11.1876622 17.2152669 9.3676481 17.2152669 7.54949806 17.2152669 6.69876638 16.0902493 6.69876638 14.482063 6.69876638 12.9361485 7.58454134 11.7923744 9.3676481 11.7923744M5.90453268 16.8594338C5.90453268 18.1168726 4.90020702 18.4912533 3.56520696 18.4912533 3.11635466 18.4912533 3.02874645 18.4481132 2.7226769 18.4057234L2.7226769 17.0158634C2.86471404 17.0454987 3.00563279 17.0668812 3.15848116 17.0668812 3.9499375 17.0668812 3.99840162 16.6955016 3.99840162 16.1084217L3.99840162 9.43296702 5.90453268 9.43296702 5.90453268 16.8594338ZM8.37996801 7.57201756C7.82896826 7.57201756 7.68394871 7.04458349 7.64592301 6.73059892 7.61087973 6.45525282 7.6000685 6.02835384 7.61311653 5.4649072 7.61311653 5.24883179 7.61759015 4.52220321 7.66679987 4.1969647 7.75701769 3.49584502 8.19543156 3.41969344 8.37996801 3.41969344 8.87803003 3.41969344 9.16769634 3.87510237 9.26872538 4.07129584 9.53043162 4.54583645 9.56696611 5.06314199 9.56696611 5.507297 9.56696611 7.14024188 8.79042181 7.57201756 8.37996801 7.57201756L8.37996801 7.57201756ZM10.7159385 7.45272593 10.7159385 1.77635684e-15 10.6708296 1.77635684e-15 8.76618975 1.77635684e-15 8.76618975.319986672 9.58784296.319986672 9.58784296 3.87322672C9.42455616 3.59112827 9.02826879 3.06744551 8.26961894 3.06744551 7.32158622 3.06744551 6.31241415 3.91899269 6.31241415 5.49716846 6.31241415 7.24978011 7.52178031 7.90325816 8.28266697 7.90325816 8.9894975 7.90325816 9.37236404 7.47523379 9.58784296 7.0592136L9.58784296 7.7727126 11.4309707 7.7727126 11.4309707 7.45272593 10.7159385 7.45272593ZM24.9559641 3.71886035C24.9552185 3.71961061 24.849343 3.93718654 24.768818 4.10261928L24.768818 3.19855377 22.9048134 3.19855377 22.9048134 3.51854044 23.6500425 3.51854044 23.6500425 7.45253837 22.9148791 7.45253837 22.9148791 7.77290017 25.4708021 7.77290017 25.4708021 7.45253837 24.768818 7.45253837 24.768818 6.17259168C24.7792564 5.48310105 24.789322 4.88926881 25.0901724 4.16489101 25.3067697 3.64495956 25.4998806 3.63745694 25.500999 3.63745694 25.5591559 3.63745694 25.5632567 3.63745694 25.5837608 3.85090643 25.6214137 4.20540515 25.828691 4.39822244 26.1388613 4.39822244 26.491531 4.39822244 26.7468996 4.14200802 26.7468996 3.7886347 26.7468996 3.38987053 26.4322557 3.10139486 25.9979426 3.10139486 25.5971816 3.10139486 25.2355647 3.31559461 24.9559641 3.71886035M20.9084646 5.83411105C20.8853509 6.41443858 20.8562724 6.75655798 20.5337996 7.07316847 20.4689323 7.13243915 20.2650102 7.3113766 19.9589406 7.3113766 19.6644279 7.3113766 19.3225695 7.12418627 19.3225695 6.59525168 19.3225695 5.71594481 20.1744196 5.50887255 20.9084646 5.49199165L20.9084646 5.83411105ZM22.546179 7.28174126 22.4734828 7.34701404C22.4033962 7.4107863 22.3087048 7.49481562 22.2076757 7.49481562 22.0119553 7.49481562 22.0033808 7.30612477 22.0033808 6.91111191L22.0033808 4.63744342C22.0033808 4.21279523 22.0033808 3.84554206 21.6883641 3.51730251 21.4050354 3.2442072 20.8838597 3.06752054 20.3582104 3.06752054 19.2580749 3.06752054 18.5180651 3.68723681 18.5180651 4.26681408 18.5180651 4.58417483 18.7432369 4.82463375 19.0384952 4.82463375 19.3736432 4.82463375 19.5816661 4.5582908 19.5816661 4.30995413 19.5816661 4.14902297 19.4996499 4.03235726 19.4325458 3.93894966L19.3557488 3.78852216C19.3557488 3.66697974 19.7099096 3.37812894 20.196042 3.37812894 20.8547812 3.37812894 20.8853509 3.82153368 20.907719 4.14602192 20.907719 4.14602192 20.9084646 5.117611 20.9084646 5.20051493 20.6728544 5.20239059 20.0226896 5.22227252 19.4705714 5.38808039 18.6727775 5.63829271 18.2160964 6.15072154 18.2160964 6.79069489 18.2160964 7.45580201 18.7249696 7.90333319 19.4821283 7.90333319 20.0976226 7.90333319 20.604259 7.59460044 20.907719 7.07054255 20.9323238 7.26373498 20.9785511 7.49744154 21.2063325 7.68538213 21.3763297 7.82418057 21.6152951 7.90333319 21.8617165 7.90333319 22.334428 7.90333319 22.5935247 7.64186694 22.7038738 7.53007793L22.733325 7.50006745 22.546179 7.28174126ZM18.3838941 3.1986663 16.6589443 3.1986663 16.6589443 3.51865298 17.3885156 3.51865298C17.356082 3.62706581 16.6004145 6.10368013 16.5284639 6.341138 16.4501757 6.12093615 16.0207091 4.90138554 16.0207091 4.90138554L15.9360833 4.6740562 15.4059604 3.1986663 14.9414505 3.1986663C14.9414505 3.1986663 14.0534387 6.05303745 13.9777601 6.29724768 13.9058095 6.08905002 13.6150248 5.23900336 13.6150248 5.23900336L13.4383172 4.7310761C13.4383172 4.72845019 13.0711083 3.76999069 12.9749256 3.51865298L13.7112074 3.51865298 13.7112074 3.1986663 11.2208974 3.1986663 11.2208974 3.51865298 11.7648139 3.51865298C11.7864363 3.57604801 13.4502468 7.90318314 13.4502468 7.90318314L13.850635 7.90318314C13.850635 7.90318314 14.7334275 5.07919759 14.8057509 4.8499926 14.8914951 5.07432089 15.9804466 7.90318314 15.9804466 7.90318314L16.4032028 7.90318314C16.4032028 7.90318314 17.7560973 3.58242523 17.7758558 3.51865298L18.429003 3.51865298 18.429003 3.1986663 18.3838941 3.1986663ZM28.9486245 7.57201756C28.4315497 7.57201756 28.2652805 7.11510811 28.2171892 6.73059892 28.1713346 6.3858536 28.1746898 5.85129205 28.1828915 5.4649072 28.1828915 5.24808153 28.1892291 4.52182808 28.2384388 4.1969647 28.3264198 3.49584502 28.7644609 3.41969344 28.9486245 3.41969344 29.447805 3.41969344 29.7367257 3.87510237 29.8392459 4.07129584 30.1016978 4.54583645 30.1374866 5.06314199 30.1374866 5.507297 30.1374866 7.14024188 29.3605695 7.57201756 28.9486245 7.57201756L28.9486245 7.57201756ZM31.2879503 7.45272593 31.2879503 1.77635684e-15 31.2409773 1.77635684e-15 29.3370831 1.77635684e-15 29.3370831.319986672 30.1591091.319986672 30.1591091 3.87210133C29.9954495 3.59112827 29.5995349 3.06744551 28.8408851 3.06744551 27.8921068 3.06744551 26.8829347 3.91899269 26.8829347 5.49716846 26.8829347 7.24978011 28.091928 7.90325816 28.8524419 7.90325816 29.5588996 7.90325816 29.9425118 7.47523379 30.1591091 7.0592136L30.1591091 7.7727126 32 7.7727126 32 7.45272593 31.2879503 7.45272593ZM5.52789192.000187565458.0223680547.000187565458.0223680547.320174238.963690356.320174238.963690356 7.45253837 2.66453526e-15 7.45253837 2.66453526e-15 7.77290017 5.76312929 7.77290017 5.97748981 5.28690758 5.74113404 5.28690758 5.73218682 5.32216989C5.60543451 5.8319728 5.46824377 6.33089692 5.18677908 6.79981057 4.79906613 7.45253837 4.45161568 7.45253837 3.42044836 7.45253837L2.23195906 7.45253837 2.23195906 4.00771115 2.52274377 4.00771115C3.53564384 4.01934021 3.79585888 4.19377609 3.83910379 5.47672383L3.84096779 5.52061414 4.10341963 5.52061414 4.10341963 2.262227 3.83202057 2.262227 3.82978376 2.30499192C3.79585888 2.8264239 3.77647323 3.08676475 3.67134338 3.27733126 3.47226769 3.65658862 3.05249386 3.66671715 2.56859828 3.67684568L2.23195906 3.67684568 2.23195906.320174238 3.04056423.320174238C4.04526269.320174238 4.59775364.320174238 5.02349228 1.04755309 5.02349228 1.04905361 5.25723845 1.57086072 5.25723845 1.57086072 5.25798406 1.57086072 5.42835407 2.20670762 5.42835407 2.20670762L5.46265176 2.20295631 5.66210024 2.20295631 5.57113682.000187565458 5.52789192.000187565458Z"/></svg>