<?xml version="1.0" encoding="UTF-8"?>
<svg width="50px" height="50px" viewBox="0 0 50 50" version="1.1" xmlns="http://www.w3.org/2000/svg" xmlns:xlink="http://www.w3.org/1999/xlink">
    <title>Group 17</title>
    <g id="Symbols" stroke="none" stroke-width="1" fill="none" fill-rule="evenodd">
        <g id="Group-17" fill="#FFFFFF">
            <path d="M9.36097561,27.4081707 C10.6634146,34.9020732 17.0878049,40.3167073 24.7280488,40.3167073 C27.5439024,40.3167073 30.2963415,39.5593902 32.704878,38.1252439 L37.7902439,43.2118293 C33.945122,45.9471951 29.4268293,47.3910976 24.7012195,47.3910976 C12.8829268,47.3910976 3.24878049,38.5959756 2.14756098,26.8728049 L9.36097561,27.4081707 Z M32.2853659,36.0008537 L32.2853659,36.0008537 C30.0439024,37.5032927 27.4304878,38.2971951 24.7280488,38.2971951 C17.8585366,38.2971951 12.0621951,33.1569512 11.2439024,26.3410976 L11.1463415,25.5154878 L0,24.6886585 L0.0524390244,25.8252439 C0.645121951,39.0508537 11.4719512,49.4106098 24.7012195,49.4106098 C30.2768293,49.4106098 35.552439,47.580122 39.9536585,44.1154878 L40.847561,43.4106098 L32.9756098,35.539878 L32.2853659,36.0008537 Z" id="Fill-1"></path>
            <path d="M38.1296341,32.7173171 C39.5759756,30.3026829 40.3393902,27.5368293 40.3393902,24.705122 C40.3393902,21.8734146 39.5759756,19.11 38.1296341,16.6941463 L43.2076829,11.614878 C45.9418293,15.4612195 47.3857317,19.9782927 47.3857317,24.705122 C47.3857317,29.4307317 45.9418293,33.9490244 43.2076829,37.7965854 L38.1296341,32.7173171 Z M44.1113415,9.45390244 L43.4089024,8.55878049 L35.5406098,16.4270732 L36.0040244,17.1173171 C37.5186585,19.362439 38.3186585,21.9868293 38.3186585,24.705122 C38.3186585,27.4246341 37.5186585,30.0490244 36.0040244,32.2953659 L35.5406098,32.9843902 L43.4076829,40.8526829 L44.1089024,39.957561 C47.5747561,35.5563415 49.4052439,30.2819512 49.4052439,24.705122 C49.4052439,19.1282927 47.5747561,13.855122 44.1113415,9.45390244 L44.1113415,9.45390244 Z" id="Fill-3"></path>
            <path d="M23.0745122,2.08902439 C23.6489024,2.04268293 24.1830488,2.0195122 24.700122,2.0195122 C29.4269512,2.0195122 33.9452439,3.46341463 37.7903659,6.2 L32.705,11.2853659 C30.3171951,9.86341463 27.5915854,9.10731707 24.800122,9.09390244 L23.0745122,2.08902439 Z M24.3208537,11.1329268 L24.3293902,11.1317073 C24.4623171,11.1231707 24.5940244,11.1134146 24.7281707,11.1134146 C27.4318293,11.1134146 30.0452439,11.9073171 32.2854878,13.4097561 L32.9757317,13.8707317 L40.8476829,6 L39.9537805,5.29512195 C35.550122,1.83170732 30.2769512,0 24.700122,0 C23.7769512,0 22.8220732,0.0634146341 21.6940244,0.2 L20.5635366,0.337804878 L23.2367073,11.1902439 L24.3208537,11.1329268 Z" id="Fill-5"></path>
            <path d="M2.69,19.2330488 C4.38390244,12.4293902 9.19,6.75134146 15.64,3.93182927 L17.3680488,10.9513415 C13.8241463,12.8476829 11.194878,15.9647561 9.9302439,19.7696341 L2.69,19.2330488 Z M11.635122,21.1037805 L11.635122,21.1037805 C12.6863415,17.2708537 15.3607317,14.1013415 18.9704878,12.407439 L19.7217073,12.055 L17.0497561,1.20865854 L15.985122,1.61109756 C8.02902439,4.61597561 2.0802439,11.6464634 0.459512195,19.9610976 L0.243658537,21.0769512 L11.4143902,21.905 L11.635122,21.1037805 Z" id="Fill-7"></path>
            <path d="M23.7170732,31.6460976 L23.7170732,33.7192683 L25.7365854,33.7192683 L25.7365854,31.6460976 C27.8439024,31.237561 29.347561,29.6241463 29.347561,27.7253659 C29.347561,25.3534146 27.447561,23.6960976 24.7280488,23.6960976 C23.0756098,23.6960976 22.1280488,22.9631707 22.1280488,21.6863415 C22.1280488,20.5778049 23.2939024,19.6765854 24.7280488,19.6765854 C26.1609756,19.6765854 27.3268293,20.5778049 27.3268293,21.6863415 L27.3268293,21.9912195 L29.347561,21.9912195 L29.347561,21.6863415 C29.347561,19.787561 27.8439024,18.1741463 25.7365854,17.7656098 L25.7365854,15.6912195 L23.7170732,15.6912195 L23.7170732,17.7656098 C21.6109756,18.1753659 20.1085366,19.7887805 20.1085366,21.6863415 C20.1085366,23.692439 21.5365854,25.7156098 24.7280488,25.7156098 C26.3317073,25.7156098 27.3268293,26.4863415 27.3268293,27.7253659 C27.3268293,28.8326829 26.1609756,29.735122 24.7280488,29.735122 C23.2939024,29.735122 22.1280488,28.8326829 22.1280488,27.7253659 L22.1280488,27.4204878 L20.1085366,27.4204878 L20.1085366,27.7253659 C20.1085366,29.6229268 21.6109756,31.2363415 23.7170732,31.6460976" id="Fill-9"></path>
        </g>
    </g>
</svg>