<?xml version="1.0" encoding="UTF-8"?>
<svg width="50px" height="50px" viewBox="0 0 50 50" version="1.1" xmlns="http://www.w3.org/2000/svg" xmlns:xlink="http://www.w3.org/1999/xlink">
    <title>icon / marijuana / active</title>
    <g id="icon-/-marijuana-/-active" stroke="none" stroke-width="1" fill="none" fill-rule="evenodd">
        <path d="M25,32 C24.647,32 24.321,31.814 24.141,31.512 C23.972,31.228 20,24.462 20,16 C20,7.538 23.972,0.772 24.141,0.488 C24.502,-0.117 25.498,-0.117 25.86,0.488 C26.028,0.772 30,7.538 30,16 C30,24.462 26.028,31.228 25.859,31.512 C25.679,31.814 25.353,32 25,32 Z" id="Path" fill="#FFFFFF" fill-rule="nonzero"></path>
        <path d="M25,45 C24.448,45 24,44.553 24,44 L24,31 C24,30.447 24.448,30 25,30 C25.552,30 26,30.447 26,31 L26,44 C26,44.553 25.552,45 25,45 Z" id="Path" fill="#FFFFFF" fill-rule="nonzero"></path>
        <path d="M25,40 C24.744,40 24.488,39.902 24.293,39.707 L18.293,33.707 C17.902,33.316 17.902,32.684 18.293,32.293 C18.684,31.902 19.316,31.902 19.707,32.293 L25.707,38.293 C26.098,38.684 26.098,39.316 25.707,39.707 C25.512,39.902 25.256,40 25,40 Z" id="Path" fill="#FFFFFF" fill-rule="nonzero"></path>
        <path d="M19,34 C18.938,34 18.876,33.994 18.814,33.982 C18.588,33.939 13.23,32.886 9.217,28.873 C5.204,24.86 4.151,19.502 4.108,19.276 C4.046,18.951 4.15,18.616 4.383,18.382 C4.617,18.148 4.953,18.045 5.277,18.107 C5.503,18.15 10.86,19.204 14.874,23.216 L14.874,23.216 C18.887,27.229 19.94,32.587 19.983,32.813 C20.045,33.138 19.941,33.473 19.708,33.707 C19.518,33.896 19.263,34 19,34 Z" id="Path" fill="#FFFFFF" fill-rule="nonzero"></path>
        <path d="M25,40 C24.744,40 24.488,39.902 24.293,39.707 C23.902,39.316 23.902,38.684 24.293,38.293 L30.293,32.293 C30.684,31.902 31.316,31.902 31.707,32.293 C32.098,32.684 32.098,33.316 31.707,33.707 L25.707,39.707 C25.512,39.902 25.256,40 25,40 Z" id="Path" fill="#FFFFFF" fill-rule="nonzero"></path>
        <path d="M31,34 C30.737,34 30.482,33.896 30.293,33.707 C30.059,33.474 29.956,33.139 30.018,32.813 C30.061,32.587 31.114,27.229 35.127,23.216 L35.127,23.216 C39.14,19.203 44.498,18.15 44.724,18.107 C45.05,18.046 45.384,18.148 45.618,18.382 C45.852,18.615 45.955,18.95 45.893,19.276 C45.85,19.502 44.797,24.86 40.784,28.873 C36.771,32.887 31.413,33.939 31.187,33.982 C31.124,33.994 31.062,34 31,34 Z" id="Path" fill="#FFFFFF" fill-rule="nonzero"></path>
        <path d="M30.001,41 C29.936,41 29.87,40.994 29.804,40.98 L24.804,39.98 C24.262,39.872 23.911,39.345 24.02,38.803 C24.128,38.261 24.652,37.905 25.197,38.019 L30.197,39.019 C30.739,39.127 31.09,39.654 30.981,40.196 C30.886,40.672 30.468,41 30.001,41 Z" id="Path" fill="#FFFFFF" fill-rule="nonzero"></path>
        <path d="M19.999,41 C19.532,41 19.114,40.672 19.02,40.196 C18.912,39.654 19.263,39.128 19.804,39.019 L24.804,38.019 C25.348,37.906 25.873,38.261 25.981,38.803 C26.089,39.345 25.738,39.871 25.197,39.98 L20.197,40.98 C20.13,40.994 20.064,41 19.999,41 Z" id="Path" fill="#FFFFFF" fill-rule="nonzero"></path>
        <path d="M12.045,44 C7.523,44 3.936,40.883 3.785,40.75 C3.57,40.561 3.447,40.287 3.447,40 C3.447,39.713 3.571,39.439 3.785,39.25 C3.936,39.117 7.522,36 12.045,36 C16.568,36 20.154,39.117 20.305,39.25 C20.52,39.439 20.643,39.713 20.643,40 C20.643,40.287 20.519,40.561 20.305,40.75 C20.154,40.883 16.568,44 12.045,44 Z" id="Path" fill="#FFFFFF" fill-rule="nonzero"></path>
        <path d="M37.955,44 C33.432,44 29.846,40.883 29.695,40.75 C29.48,40.561 29.357,40.287 29.357,40 C29.357,39.713 29.481,39.439 29.695,39.25 C29.846,39.117 33.432,36 37.955,36 C42.477,36 46.064,39.117 46.215,39.25 C46.43,39.439 46.553,39.713 46.553,40 C46.553,40.287 46.429,40.561 46.215,40.75 C46.064,40.883 42.478,44 37.955,44 Z" id="Path" fill="#FFFFFF" fill-rule="nonzero"></path>
    </g>
</svg>