<svg xmlns="http://www.w3.org/2000/svg" width="40" height="40" viewBox="0 0 40 40"><g fill="#999"><path d="M34.6666667,0 L5.33333333,0 C2.38781467,0 0,2.38781467 0,5.33333333 L0,34.6666667 C0,37.6121853 2.38781467,40 5.33333333,40 L34.6666667,40 C37.6121853,40 40,37.6121853 40,34.6666667 L40,5.33333333 C40,2.38781467 37.6121853,0 34.6666667,0 Z M32,21.3333333 L8,21.3333333 C7.26362033,21.3333333 6.66666667,20.7363797 6.66666667,20 C6.66666667,12.6362033 12.6362033,6.66666667 20,6.66666667 C27.3637967,6.66666667 33.3333333,12.6362033 33.3333333,20 C33.3333333,20.353622 33.1928575,20.6927605 32.942809,20.942809 C32.6927605,21.1928575 32.353622,21.3333333 32,21.3333333 Z"/><path d="M24,19 L24,9.71370854 C23.999663,9.37836008 23.7574709,9.08838484 23.4177798,9.01661948 C23.0780887,8.94485413 22.7323621,9.11062185 22.5866667,9.41511855 L18,19 L24,19 Z"/></g></svg>