<?xml version="1.0" encoding="UTF-8"?>
<svg width="50px" height="50px" viewBox="0 0 50 50" version="1.1" xmlns="http://www.w3.org/2000/svg" xmlns:xlink="http://www.w3.org/1999/xlink">
    <title>Health History / Mental Health inactive</title>
    <g id="Health-History-/-Mental-Health-inactive" stroke="none" stroke-width="1" fill="none" fill-rule="evenodd">
        <path d="M35.6137504,13.3549308 C36.2608826,13.3229623 36.8177219,13.8208135 36.8494518,14.4660317 C36.9056645,15.6063721 36.9424868,15.9677723 36.9988954,17.1081127 C37.0388515,17.9268187 35.983932,18.2367574 35.5030876,17.5453407 C34.5733247,16.2089007 32.4589807,16.8636705 32.4589807,18.5045911 C32.4589807,20.144732 34.5721495,20.8010613 35.5030876,19.4636467 C35.9845196,18.7724249 37.0388515,19.0825586 36.9988954,19.9010696 C36.9428785,21.0416049 36.8862741,22.5723901 36.8300613,23.7129254 C36.7991149,24.3446935 36.3515673,24.7988804 35.7150117,24.8312388 C34.5768502,24.888938 33.0461788,24.9431286 31.9080173,24.9988785 C31.0885254,25.0390341 30.7780821,23.9899209 31.468696,23.510978 C32.8017414,22.5868149 32.1497126,20.4809863 30.5138625,20.4809863 C28.8787959,20.4809863 28.2255919,22.5854504 29.5590291,23.510978 C30.2498388,23.9905057 29.9393956,25.0390341 29.1200995,24.9988785 C27.9813504,24.9431286 27.6258586,24.9060919 26.4876971,24.850147 C25.8417401,24.8185683 25.3403301,24.2676962 25.3716682,23.625012 C25.4272934,22.4928586 25.4831144,21.3607053 25.5385437,20.2287469 C25.5585218,19.8207584 25.023815,19.6511693 24.757441,20.0320625 C23.6122284,21.6686947 21,20.8683122 21,18.8587789 C21,16.8506102 23.6098781,16.0476936 24.757441,17.6854954 C25.0244026,18.0665835 25.5585218,17.8966045 25.5385437,17.4890059 C25.4840937,16.3831681 25.4298396,15.2773303 25.3759772,14.1714925 C25.3530612,13.7087287 25.7318608,13.3319291 26.1968402,13.3547359 C27.3083642,13.4093163 28.4198883,13.4640916 29.5310206,13.5184771 C29.9413542,13.5387498 30.1115594,13.0067858 29.726688,12.7397318 C28.0810448,11.5978319 28.8876098,9 30.9055891,9 C32.9247435,9 33.7293499,11.5993914 32.0842942,12.7397318 C31.7002064,13.006396 31.8696281,13.5387498 32.2803534,13.5184771 C33.3914857,13.4640916 34.5028139,13.4093163 35.6137504,13.3549308" id="Path" fill="#999999"></path>
        <path d="M47,17.9134946 C46.9859016,18.0106833 46.9629918,18.1074816 46.9588798,18.2050606 C46.8484426,20.8531589 46.1934563,23.3677692 45.0252505,25.7406948 C44.2954645,27.2233099 43.4904872,28.6692352 42.7189936,30.1315537 C41.8860155,31.7101865 41.1769854,33.3344862 40.8276594,35.0971528 C40.6091348,36.1996001 40.7663707,37.2712125 41.0600865,38.3326766 C41.5541166,40.1185671 42.3536111,41.7758485 43.2647177,43.3786808 C43.9854964,44.6470124 44.7581648,45.8860702 45.503224,47.1407408 C45.8145628,47.664935 45.7477914,48.2451396 45.3442259,48.6454086 C44.8102505,49.1742867 43.9012978,49.1038347 43.5086976,48.4633262 C42.0491257,46.0818137 40.5543078,43.7182556 39.5061339,41.1138727 C38.9656967,39.7711859 38.5358925,38.3994206 38.3804189,36.9515438 C38.2523588,35.7589335 38.4399454,34.6059403 38.755592,33.4611437 C39.2825182,31.5519134 40.1620993,29.798224 41.1086475,28.0720518 C41.9563115,26.5264008 42.8190528,24.9887512 43.4540665,23.3377149 C44.2739253,21.2046384 44.6502732,18.9954503 44.576061,16.7163957 C44.4570082,13.053476 43.1491894,9.87610927 40.5668397,7.25221052 C38.5578233,5.21124859 36.1188069,3.88788248 33.3715847,3.11486181 C31.1352322,2.48547739 28.8536475,2.25128784 26.5395583,2.47240181 C24.0251548,2.71283641 21.689918,3.52918215 19.5144627,4.79634277 C16.6460337,6.4668949 14.3088388,8.67979098 12.6751913,11.5843269 C11.6033242,13.4900443 10.9959199,15.5251515 11.0987204,17.7341445 C11.1139936,18.0608389 11.1286794,18.3937784 11.2030874,18.7099342 C11.3534699,19.3486862 11.2281512,19.9493824 11.0192213,20.5444191 C10.6348452,21.6386697 10.078939,22.6511492 9.50051457,23.6505531 C8.52733607,25.3322292 7.53927596,27.0053184 6.56100638,28.6840672 C6.34678962,29.0517448 6.36813297,29.1087309 6.80146175,29.2041631 C7.75584244,29.4149337 8.71257286,29.6145803 9.67028233,29.8085673 C10.5105055,29.9787451 10.9087842,30.6555529 10.6352368,31.4709228 C10.4545036,32.0101443 10.2735747,32.5495609 10.0938206,33.0891726 C10.0773725,33.1389379 10.0681694,33.1910451 10.0421266,33.2954546 C10.6859517,33.3846418 11.3090209,33.4964673 11.9369854,33.5513067 C12.6180146,33.6108298 13.1194854,34.102823 13.1091075,34.767531 C13.0985337,35.4234569 12.5690619,35.9484319 11.8937113,35.9341853 C11.4807468,35.9254032 11.069153,35.8639285 10.6557969,35.8260678 C10.6557969,35.8311419 10.6499226,35.8508529 10.656776,35.8565125 C11.3785337,36.4956548 11.3769672,37.2969733 11.1682332,38.1412267 C11.0352778,38.6781062 10.8815665,39.2101068 10.7607514,39.7495234 C10.7137568,39.9591231 10.7217851,40.1831644 10.7215893,40.4005704 C10.7211976,40.7264841 10.8651184,40.9801895 11.1288752,41.1765184 C11.5943169,41.5227286 12.1253552,41.7266687 12.6706876,41.898798 C13.9802687,42.3121426 15.3309699,42.5342323 16.6846084,42.7387578 C17.8445902,42.9138145 19.0092714,43.0594024 20.1661202,43.2520233 C21.6043488,43.4914821 22.6985383,44.2682108 23.5044945,45.4690177 C24.1118989,46.3739651 24.5826275,47.3503404 25.0102778,48.3472073 C25.3016439,49.0255763 24.8935747,49.7786909 24.1722086,49.9514057 C24.1205146,49.9637006 24.0703871,49.9836067 24.0198679,50 L23.7846995,50 C23.1921767,49.8858326 22.8988525,49.4808798 22.6544809,48.9613693 C22.293602,48.1945937 21.8823998,47.4481145 21.4473087,46.7199802 C21.0964162,46.1321644 20.5450137,45.7695609 19.8680965,45.6345116 C19.3243306,45.526199 18.775082,45.4409149 18.2256375,45.365584 C16.5205191,45.1311993 14.8144217,44.9026693 13.1441576,44.4742976 C12.0045401,44.181951 10.8966439,43.8134927 9.88978597,43.1819616 C8.67869763,42.4220165 8.21501821,41.2977115 8.32193078,39.9304348 C8.36794627,39.3383256 8.54495902,38.7548033 8.68241803,38.1718665 C8.80010018,37.6714815 8.70454463,37.4671511 8.22147996,37.2920944 C8.17742259,37.2762866 8.13258197,37.2626255 8.0887204,37.245842 C7.29510018,36.9425665 7.05601548,35.937503 7.63052368,35.3126072 C7.69631603,35.2411794 7.77385701,35.180095 7.84571949,35.1143267 C7.82085155,35.1311103 7.7957878,35.1478939 7.77091985,35.1646775 C7.64090164,34.9999642 7.49756831,34.8438378 7.38360656,34.6687811 C7.13864754,34.2925166 7.13022769,33.8963459 7.31233151,33.4876852 C7.53986339,32.9777374 7.75838798,32.4638865 7.98905282,31.9318859 C7.88429417,31.9028074 7.82633424,31.8842674 7.76739526,31.8709966 C7.20306922,31.744144 6.63306466,31.6387587 6.07520036,31.4873161 C5.22381603,31.2564442 4.57431239,30.7589866 4.21852459,29.9358103 C4.11787796,29.703182 4.07147086,29.4475251 4,29.2022116 L4,28.7338325 C4.14020036,28.358934 4.23183971,27.9563231 4.42843352,27.6136258 C5.47641166,25.7861667 6.56100638,23.9791991 7.61153005,22.1531061 C8.02704007,21.4306313 8.40260474,20.683957 8.76387523,19.9329892 C8.85806011,19.7374409 8.88410291,19.4755389 8.84964026,19.2585233 C8.67145264,18.1332425 8.63229053,17.0060101 8.76250455,15.8764358 C8.99904372,13.8235693 9.6937796,11.9215598 10.7360792,10.1452321 C12.5641667,7.02953529 15.1006967,4.61991998 18.20449,2.79285117 C20.7447404,1.29735574 23.4768852,0.349473537 26.4226594,0.0826926084 C28.8843898,-0.140372938 31.3159654,0.0922553484 33.7044627,0.727299344 C36.8946084,1.57584615 39.7295537,3.0754399 42.0896585,5.39742928 C44.9598497,8.22116978 46.5623634,11.6495096 46.9161931,15.655517 C46.9412568,15.9400573 46.9718033,16.2240122 47,16.5081622 L47,17.9134946 Z" id="Fill-1" fill="#999999"></path>
    </g>
</svg>