<?xml version="1.0" encoding="UTF-8"?>
<svg width="50px" height="50px" viewBox="0 0 50 50" version="1.1" xmlns="http://www.w3.org/2000/svg" xmlns:xlink="http://www.w3.org/1999/xlink">
    <title>Health History / Mental Health active</title>
    <g id="Health-History-/-Mental-Health-active" stroke="none" stroke-width="1" fill="none" fill-rule="evenodd">
        <g id="Group-14-Copy" transform="translate(4.000000, 0.000000)" fill="#FFFFFF">
            <path d="M31.6137504,13.3549308 C32.2608826,13.3229623 32.8177219,13.8208135 32.8494518,14.4660317 C32.9056645,15.6063721 32.9424868,15.9677723 32.9988954,17.1081127 C33.0388515,17.9268187 31.983932,18.2367574 31.5030876,17.5453407 C30.5733247,16.2089007 28.4589807,16.8636705 28.4589807,18.5045911 C28.4589807,20.144732 30.5721495,20.8010613 31.5030876,19.4636467 C31.9845196,18.7724249 33.0388515,19.0825586 32.9988954,19.9010696 C32.9428785,21.0416049 32.8862741,22.5723901 32.8300613,23.7129254 C32.7991149,24.3446935 32.3515673,24.7988804 31.7150117,24.8312388 C30.5768502,24.888938 29.0461788,24.9431286 27.9080173,24.9988785 C27.0885254,25.0390341 26.7780821,23.9899209 27.468696,23.510978 C28.8017414,22.5868149 28.1497126,20.4809863 26.5138625,20.4809863 C24.8787959,20.4809863 24.2255919,22.5854504 25.5590291,23.510978 C26.2498388,23.9905057 25.9393956,25.0390341 25.1200995,24.9988785 C23.9813504,24.9431286 23.6258586,24.9060919 22.4876971,24.850147 C21.8417401,24.8185683 21.3403301,24.2676962 21.3716682,23.625012 C21.4272934,22.4928586 21.4831144,21.3607053 21.5385437,20.2287469 C21.5585218,19.8207584 21.023815,19.6511693 20.757441,20.0320625 C19.6122284,21.6686947 17,20.8683122 17,18.8587789 C17,16.8506102 19.6098781,16.0476936 20.757441,17.6854954 C21.0244026,18.0665835 21.5585218,17.8966045 21.5385437,17.4890059 C21.4840937,16.3831681 21.4298396,15.2773303 21.3759772,14.1714925 C21.3530612,13.7087287 21.7318608,13.3319291 22.1968402,13.3547359 C23.3083642,13.4093163 24.4198883,13.4640916 25.5310206,13.5184771 C25.9413542,13.5387498 26.1115594,13.0067858 25.726688,12.7397318 C24.0810448,11.5978319 24.8876098,9 26.9055891,9 C28.9247435,9 29.7293499,11.5993914 28.0842942,12.7397318 C27.7002064,13.006396 27.8696281,13.5387498 28.2803534,13.5184771 C29.3914857,13.4640916 30.5028139,13.4093163 31.6137504,13.3549308" id="Path"></path>
            <path d="M43,17.9134946 C42.9859016,18.0106833 42.9629918,18.1074816 42.9588798,18.2050606 C42.8484426,20.8531589 42.1934563,23.3677692 41.0252505,25.7406948 C40.2954645,27.2233099 39.4904872,28.6692352 38.7189936,30.1315537 C37.8860155,31.7101865 37.1769854,33.3344862 36.8276594,35.0971528 C36.6091348,36.1996001 36.7663707,37.2712125 37.0600865,38.3326766 C37.5541166,40.1185671 38.3536111,41.7758485 39.2647177,43.3786808 C39.9854964,44.6470124 40.7581648,45.8860702 41.503224,47.1407408 C41.8145628,47.664935 41.7477914,48.2451396 41.3442259,48.6454086 C40.8102505,49.1742867 39.9012978,49.1038347 39.5086976,48.4633262 C38.0491257,46.0818137 36.5543078,43.7182556 35.5061339,41.1138727 C34.9656967,39.7711859 34.5358925,38.3994206 34.3804189,36.9515438 C34.2523588,35.7589335 34.4399454,34.6059403 34.755592,33.4611437 C35.2825182,31.5519134 36.1620993,29.798224 37.1086475,28.0720518 C37.9563115,26.5264008 38.8190528,24.9887512 39.4540665,23.3377149 C40.2739253,21.2046384 40.6502732,18.9954503 40.576061,16.7163957 C40.4570082,13.053476 39.1491894,9.87610927 36.5668397,7.25221052 C34.5578233,5.21124859 32.1188069,3.88788248 29.3715847,3.11486181 C27.1352322,2.48547739 24.8536475,2.25128784 22.5395583,2.47240181 C20.0251548,2.71283641 17.689918,3.52918215 15.5144627,4.79634277 C12.6460337,6.4668949 10.3088388,8.67979098 8.67519126,11.5843269 C7.60332423,13.4900443 6.99591985,15.5251515 7.0987204,17.7341445 C7.11399362,18.0608389 7.12867942,18.3937784 7.20308743,18.7099342 C7.35346995,19.3486862 7.22815118,19.9493824 7.01922131,20.5444191 C6.63484517,21.6386697 6.07893898,22.6511492 5.50051457,23.6505531 C4.52733607,25.3322292 3.53927596,27.0053184 2.56100638,28.6840672 C2.34678962,29.0517448 2.36813297,29.1087309 2.80146175,29.2041631 C3.75584244,29.4149337 4.71257286,29.6145803 5.67028233,29.8085673 C6.51050546,29.9787451 6.90878415,30.6555529 6.63523679,31.4709228 C6.45450364,32.0101443 6.27357468,32.5495609 6.09382058,33.0891726 C6.0773725,33.1389379 6.0681694,33.1910451 6.04212659,33.2954546 C6.68595173,33.3846418 7.30902095,33.4964673 7.93698543,33.5513067 C8.61801457,33.6108298 9.11948543,34.102823 9.10910747,34.767531 C9.0985337,35.4234569 8.56906193,35.9484319 7.89371129,35.9341853 C7.48074681,35.9254032 7.06915301,35.8639285 6.6557969,35.8260678 C6.6557969,35.8311419 6.64992259,35.8508529 6.65677596,35.8565125 C7.3785337,36.4956548 7.37696721,37.2969733 7.16823315,38.1412267 C7.03527778,38.6781062 6.88156648,39.2101068 6.76075137,39.7495234 C6.71375683,39.9591231 6.72178506,40.1831644 6.72158925,40.4005704 C6.72119763,40.7264841 6.8651184,40.9801895 7.12887523,41.1765184 C7.59431694,41.5227286 8.12535519,41.7266687 8.67068761,41.898798 C9.98026867,42.3121426 11.3309699,42.5342323 12.6846084,42.7387578 C13.8445902,42.9138145 15.0092714,43.0594024 16.1661202,43.2520233 C17.6043488,43.4914821 18.6985383,44.2682108 19.5044945,45.4690177 C20.1118989,46.3739651 20.5826275,47.3503404 21.0102778,48.3472073 C21.3016439,49.0255763 20.8935747,49.7786909 20.1722086,49.9514057 C20.1205146,49.9637006 20.0703871,49.9836067 20.0198679,50 L19.7846995,50 C19.1921767,49.8858326 18.8988525,49.4808798 18.6544809,48.9613693 C18.293602,48.1945937 17.8823998,47.4481145 17.4473087,46.7199802 C17.0964162,46.1321644 16.5450137,45.7695609 15.8680965,45.6345116 C15.3243306,45.526199 14.775082,45.4409149 14.2256375,45.365584 C12.5205191,45.1311993 10.8144217,44.9026693 9.14415756,44.4742976 C8.00454007,44.181951 6.8966439,43.8134927 5.88978597,43.1819616 C4.67869763,42.4220165 4.21501821,41.2977115 4.32193078,39.9304348 C4.36794627,39.3383256 4.54495902,38.7548033 4.68241803,38.1718665 C4.80010018,37.6714815 4.70454463,37.4671511 4.22147996,37.2920944 C4.17742259,37.2762866 4.13258197,37.2626255 4.0887204,37.245842 C3.29510018,36.9425665 3.05601548,35.937503 3.63052368,35.3126072 C3.69631603,35.2411794 3.77385701,35.180095 3.84571949,35.1143267 C3.82085155,35.1311103 3.7957878,35.1478939 3.77091985,35.1646775 C3.64090164,34.9999642 3.49756831,34.8438378 3.38360656,34.6687811 C3.13864754,34.2925166 3.13022769,33.8963459 3.31233151,33.4876852 C3.53986339,32.9777374 3.75838798,32.4638865 3.98905282,31.9318859 C3.88429417,31.9028074 3.82633424,31.8842674 3.76739526,31.8709966 C3.20306922,31.744144 2.63306466,31.6387587 2.07520036,31.4873161 C1.22381603,31.2564442 0.574312386,30.7589866 0.21852459,29.9358103 C0.11787796,29.703182 0.0714708561,29.4475251 0,29.2022116 L0,28.7338325 C0.140200364,28.358934 0.231839709,27.9563231 0.428433515,27.6136258 C1.47641166,25.7861667 2.56100638,23.9791991 3.61153005,22.1531061 C4.02704007,21.4306313 4.40260474,20.683957 4.76387523,19.9329892 C4.85806011,19.7374409 4.88410291,19.4755389 4.84964026,19.2585233 C4.67145264,18.1332425 4.63229053,17.0060101 4.76250455,15.8764358 C4.99904372,13.8235693 5.6937796,11.9215598 6.73607923,10.1452321 C8.56416667,7.02953529 11.1006967,4.61991998 14.20449,2.79285117 C16.7447404,1.29735574 19.4768852,0.349473537 22.4226594,0.0826926084 C24.8843898,-0.140372938 27.3159654,0.0922553484 29.7044627,0.727299344 C32.8946084,1.57584615 35.7295537,3.0754399 38.0896585,5.39742928 C40.9598497,8.22116978 42.5623634,11.6495096 42.9161931,15.655517 C42.9412568,15.9400573 42.9718033,16.2240122 43,16.5081622 L43,17.9134946 Z" id="Fill-1"></path>
        </g>
    </g>
</svg>