<svg width="14" height="12" viewBox="0 0 14 12" fill="none" xmlns="http://www.w3.org/2000/svg">
<path fill-rule="evenodd" clip-rule="evenodd" d="M12.6286 9.41035C12.6286 9.74335 12.3576 10.0144 12.0246 10.0144H1.3396C1.0066 10.0144 0.735596 9.74335 0.735596 9.41035V3.33935C0.735596 3.00635 1.0066 2.73535 1.3396 2.73535H12.0246C12.3576 2.73535 12.6286 3.00635 12.6286 3.33935V9.41035ZM1.33951 2C0.600512 2 -0.000488281 2.6 -0.000488281 3.339V9.41C-0.000488281 10.149 0.600512 10.75 1.33951 10.75H12.0245C12.7635 10.75 13.3645 10.149 13.3645 9.41V3.339C13.3645 2.6 12.7635 2 12.0245 2H1.33951Z" fill="#7192AA"/>
<path fill-rule="evenodd" clip-rule="evenodd" d="M12.0514 2.97246C11.9534 2.96646 11.8584 2.99646 11.7844 3.06046L7.17641 7.04046C6.91341 7.26846 6.45041 7.26846 6.18741 7.04046L1.57941 3.06046C1.42541 2.92846 1.19241 2.94546 1.06041 3.09946C0.996407 3.17346 0.965407 3.26846 0.972407 3.36746C0.979407 3.46546 1.02441 3.55446 1.09841 3.61846L5.70641 7.59746C5.96741 7.82346 6.31341 7.94746 6.68241 7.94746C7.05041 7.94746 7.39641 7.82346 7.65741 7.59746L12.2654 3.61846C12.3394 3.55446 12.3844 3.46546 12.3914 3.36746C12.3994 3.26846 12.3674 3.17346 12.3034 3.09946C12.2394 3.02446 12.1494 2.97946 12.0514 2.97246Z" fill="#7192AA"/>
</svg>
