<svg xmlns="http://www.w3.org/2000/svg" xmlns:xlink="http://www.w3.org/1999/xlink" width="43" height="30" viewBox="0 0 43 30">
  <defs>
    <polygon id="mini-a" points="0 29.333 21.368 29.333 21.368 4.464 0 4.464"/>
    <polygon id="mini-c" points="0 29.135 21.368 29.135 21.368 4.365 0 4.365"/>
  </defs>
  <g fill="none" fill-rule="evenodd" transform="translate(-5 -5)">
    <g fill="#FFF" transform="translate(42 7)">
      <rect width="6" height="6"/>
      <rect width="6" height="6" y="10"/>
      <rect width="6" height="6" y="20"/>
    </g>
    <g transform="translate(5.333 5.333)">
      <path fill="#FFF" d="M10.3322103,0 C9.03681463,0 7.98121048,0.945484468 7.98121048,2.10820819 L7.98121048,2.99691422 C7.98121048,3.41904958 8.34611068,3.76218885 8.79181021,3.76218885 C9.24011617,3.76218885 9.60240994,3.41904958 9.60240994,2.99691422 L9.60240994,2.10820819 C9.60240994,1.79222382 9.93082012,1.53548653 10.3322103,1.53548653 L26.4920763,1.53548653 C26.8934665,1.53548653 27.2218767,1.79222382 27.2218767,2.10820819 L27.2218767,21.8917918 C27.2218767,22.2077762 26.8934665,22.4669821 26.4920763,22.4669821 L23.9820842,22.4669821 C23.5363847,22.4669821 23.1714845,22.8101214 23.1714845,23.2322567 C23.1714845,23.6568607 23.5363847,24 23.9820842,24 L26.4920763,24 C27.787472,24 28.8404697,23.0520469 28.8404697,21.8917918 L28.8404697,2.10820819 C28.8404697,0.945484468 27.787472,0 26.4920763,0 L10.3322103,0 Z"/>
      <mask id="mini-b" fill="#fff">
        <use xlink:href="#mini-a"/>
      </mask>
      <path fill="#FFF" d="M5.865967,9.677554 C5.865967,10.0354116 5.52017845,10.3261708 5.0947839,10.3261708 L2.63943638,10.3261708 L5.865967,7.10296765 L5.865967,9.677554 Z M1.54734159,11.8694316 L5.0947839,11.8694316 C6.37096756,11.8694316 7.41082091,10.8853233 7.41082091,9.677554 L7.41082091,6.00951398 L18.5407346,6.00951398 C18.9661291,6.00951398 19.3119177,6.30027325 19.3119177,6.65813081 L19.3119177,27.6027388 C19.3119177,27.9605963 18.9661291,28.2513556 18.5407346,28.2513556 L2.3185247,28.2513556 C1.89313015,28.2513556 1.54734159,27.9605963 1.54734159,27.6027388 L1.54734159,11.8694316 Z M18.5407346,4.46376812 L6.6396378,4.46376812 C6.60481018,4.46376812 6.57495793,4.48116397 6.54261799,4.48364909 C6.50530268,4.48861934 6.47296274,4.4960747 6.43813512,4.50601519 C6.30628768,4.5408069 6.18687869,4.5979647 6.09483425,4.68991421 C6.09234656,4.69239934 6.09234656,4.68991421 6.09234656,4.69239934 L0.226379558,10.5523169 C0.134335122,10.6442664 0.0771183109,10.7660374 0.0398029992,10.8977489 C0.0298522494,10.9325406 0.0248768745,10.9648472 0.0199014996,10.9996389 C0.0149261247,11.0319455 0,11.0642521 0,11.0965586 L0,27.6027388 C0,28.8129932 1.03985335,29.7971014 2.3185247,29.7971014 L18.5407346,29.7971014 C19.8194059,29.7971014 20.8592593,28.8129932 20.8592593,27.6027388 L20.8592593,6.65813081 C20.8592593,5.44787641 19.8194059,4.46376812 18.5407346,4.46376812 L18.5407346,4.46376812 Z" mask="url(#mini-b)"/>
      <path fill="#FFF" d="M15.8810142 15.3623188C16.1711174 15.3623188 16.4075881 15.0636275 16.4075881 14.6971918 16.4075881 14.3307561 16.1711174 14.0289855 15.8810142 14.0289855L5.20326645 14.0289855C4.91072541 14.0289855 4.67425474 14.3307561 4.67425474 14.6971918 4.67425474 15.0636275 4.91072541 15.3623188 5.20326645 15.3623188L15.8810142 15.3623188zM15.8810142 19.2173913C16.1711174 19.2173913 16.4075881 18.9187 16.4075881 18.5522643 16.4075881 18.1827493 16.1711174 17.884058 15.8810142 17.884058L5.20326645 17.884058C4.91072541 17.884058 4.67425474 18.1827493 4.67425474 18.5522643 4.67425474 18.9187 4.91072541 19.2173913 5.20326645 19.2173913L15.8810142 19.2173913zM15.8810142 23.1014493C16.1711174 23.1014493 16.4075881 22.802758 16.4075881 22.4363223 16.4075881 22.0668072 16.1711174 21.7681159 15.8810142 21.7681159L5.20326645 21.7681159C4.91072541 21.7681159 4.67425474 22.0668072 4.67425474 22.4363223 4.67425474 22.802758 4.91072541 23.1014493 5.20326645 23.1014493L15.8810142 23.1014493z" mask="url(#mini-b)"/>
    </g>
    <g transform="translate(5.333 5.333)">
      <path fill="#FFF" d="M10.3322103,0 C9.03681463,0 7.98121048,0.924473702 7.98121048,2.06135912 L7.98121048,2.93031612 C7.98121048,3.3430707 8.34611068,3.67858465 8.79181021,3.67858465 C9.24011617,3.67858465 9.60240994,3.3430707 9.60240994,2.93031612 L9.60240994,2.06135912 C9.60240994,1.75239663 9.93082012,1.5013646 10.3322103,1.5013646 L26.4920763,1.5013646 C26.8934665,1.5013646 27.2218767,1.75239663 27.2218767,2.06135912 L27.2218767,21.4053075 C27.2218767,21.71427 26.8934665,21.9677158 26.4920763,21.9677158 L23.9820842,21.9677158 C23.5363847,21.9677158 23.1714845,22.3032298 23.1714845,22.7159844 C23.1714845,23.1311527 23.5363847,23.4666667 23.9820842,23.4666667 L26.4920763,23.4666667 C27.787472,23.4666667 28.8404697,22.5397792 28.8404697,21.4053075 L28.8404697,2.06135912 C28.8404697,0.924473702 27.787472,0 26.4920763,0 L10.3322103,0 Z"/>
      <mask id="mini-d" fill="#fff">
        <use xlink:href="#mini-c"/>
      </mask>
      <path fill="#FFF" d="M5.865967,9.46249725 C5.865967,9.81240242 5.52017845,10.0967004 5.0947839,10.0967004 L2.63943638,10.0967004 L5.865967,6.94512392 L5.865967,9.46249725 Z M1.54734159,11.6056664 L5.0947839,11.6056664 C6.37096756,11.6056664 7.41082091,10.6434272 7.41082091,9.46249725 L7.41082091,5.87596922 L18.5407346,5.87596922 C18.9661291,5.87596922 19.3119177,6.16026718 19.3119177,6.51017235 L19.3119177,26.9893446 C19.3119177,27.3392497 18.9661291,27.6235477 18.5407346,27.6235477 L2.3185247,27.6235477 C1.89313015,27.6235477 1.54734159,27.3392497 1.54734159,26.9893446 L1.54734159,11.6056664 Z M6.6396378,4.36457327 C6.60481018,4.36457327 6.57495793,4.38158255 6.54261799,4.38401245 C6.50530268,4.38887224 6.47296274,4.39616193 6.43813512,4.40588152 C6.30628768,4.43990008 6.18687869,4.49578771 6.09483425,4.5856939 L0.226379558,10.317821 C0.134335122,10.4077272 0.0771183109,10.5267921 0.0398029992,10.6555767 C0.0298522494,10.6895952 0.0248768745,10.7211839 0.0199014996,10.7552025 C0.0149261247,10.7867911 0,10.8183798 0,10.8499685 L0,26.9893446 C0,28.1727044 1.03985335,29.1349436 2.3185247,29.1349436 C6.13552502,29.1349436 8.99827525,29.1349436 10.9067754,29.1349436 C12.6032108,29.1349436 15.1478638,29.1349436 18.5407346,29.1349436 C19.8194059,29.1349436 20.8592593,28.1727044 20.8592593,26.9893446 L20.8592593,6.51017235 C20.8592593,5.32681249 19.8194059,4.36457327 18.5407346,4.36457327 L6.6396378,4.36457327 Z" mask="url(#mini-d)"/>
      <path fill="#FFF" d="M15.8810142 15.020934C16.1711174 15.020934 16.4075881 14.7288803 16.4075881 14.3705876 16.4075881 14.0122949 16.1711174 13.7172303 15.8810142 13.7172303L5.20326645 13.7172303C4.91072541 13.7172303 4.67425474 14.0122949 4.67425474 14.3705876 4.67425474 14.7288803 4.91072541 15.020934 5.20326645 15.020934L15.8810142 15.020934zM15.8810142 18.7903382C16.1711174 18.7903382 16.4075881 18.4982844 16.4075881 18.1399917 16.4075881 17.7786882 16.1711174 17.4866345 15.8810142 17.4866345L5.20326645 17.4866345C4.91072541 17.4866345 4.67425474 17.7786882 4.67425474 18.1399917 4.67425474 18.4982844 4.91072541 18.7903382 5.20326645 18.7903382L15.8810142 18.7903382zM15.8810142 22.5880837C16.1711174 22.5880837 16.4075881 22.29603 16.4075881 21.9377373 16.4075881 21.5764337 16.1711174 21.28438 15.8810142 21.28438L5.20326645 21.28438C4.91072541 21.28438 4.67425474 21.5764337 4.67425474 21.9377373 4.67425474 22.29603 4.91072541 22.5880837 5.20326645 22.5880837L15.8810142 22.5880837z" mask="url(#mini-d)"/>
    </g>
  </g>
</svg>
