<?xml version="1.0" encoding="UTF-8"?>
<svg width="50px" height="50px" viewBox="0 0 50 50" version="1.1" xmlns="http://www.w3.org/2000/svg" xmlns:xlink="http://www.w3.org/1999/xlink">
    <!-- Generator: Sketch 56.3 (81716) - https://sketch.com -->
    <title>lifestyle / motorcycle</title>
    <desc>Created with Sketch.</desc>
    <g id="lifestyle-/-motorcycle" stroke="none" stroke-width="1" fill="none" fill-rule="evenodd">
        <path d="M23.4546875,20.1474453 L20.25625,19.1664234 C21.2265625,17.9751825 23.6703125,15.3124088 26.1859375,15.2423358 C29.45625,15.1372263 30.8578125,17.2744526 31.2890625,17.940146 C31.2890625,17.940146 31.2890625,17.940146 31.2890625,17.940146 L23.4546875,20.1474453 Z M48,30.3080292 C48,34.0218978 44.909375,37 41.1359375,37 C37.3265625,37 34.271875,33.9868613 34.271875,30.3080292 C34.271875,27.8554745 35.6015625,25.7532847 37.6140625,24.5620438 L37.5421875,24.3868613 C37.5421875,24.3868613 35.134375,25.4379562 34.2359375,28.5912409 C33.840625,30.0277372 33.19375,29.1167883 33.265625,28.3109489 C33.409375,25.2627737 36.93125,23.0905109 36.93125,23.0905109 C30.7140625,26.4890511 33.121875,33.7416058 33.121875,33.7416058 L17.95625,33.2160584 C17.95625,33.2160584 16.23125,33.6014599 16.0515625,33.7416058 C15.9796875,33.7766423 15.584375,33.4963504 15.08125,33.1109489 C14.003125,35.4233577 11.5953125,37 8.828125,37 C5.090625,37 2,34.0218978 2,30.3080292 C2,26.5941606 5.090625,23.6160584 8.8640625,23.6160584 C11.2359375,23.6160584 13.3203125,24.8072993 14.578125,26.5941606 L15.8,26.1386861 L16.80625,26.5941606 L17.6328125,26.5941606 L18.8546875,27.7153285 C18.8546875,27.7153285 18.8546875,27.7153285 18.7109375,26.0335766 C18.5671875,24.3518248 20.759375,25.3328467 20.5796875,24.8072993 C20.4359375,24.2817518 18.459375,20.9182482 14.4703125,20.6379562 C10.48125,20.3927007 4.803125,16.5386861 4.803125,16.5386861 L5.378125,15.4175182 C5.378125,15.4175182 11.990625,15.6277372 12.5296875,16.3284672 C13.06875,17.0291971 13.1765625,18.6058394 13.1765625,18.6058394 L19.609375,19.7270073 L23.4546875,20.9182482 L31.971875,18.5007299 C33.0140625,19.0613139 34.990625,19.6218978 36.7515625,19.3065693 C39.0515625,18.8861314 31.109375,13.8759124 31.109375,13.8759124 C30.965625,13.3854015 33.6609375,13 33.6609375,13 C33.6609375,13 41.24375,18.6759124 42.10625,21.6890511 C40.8125,21.8291971 39.6625,22.0744526 38.6921875,22.4248175 C40.4890625,22.2846715 43.25625,22.249635 45.3046875,22.9153285 C43.903125,23.020438 42.7171875,23.3708029 41.8546875,23.7211679 C45.26875,23.9664234 48,26.8394161 48,30.3080292 Z M7.89375,25.7532847 L9.7625,28.3810219 L12.565625,27.3649635 C11.703125,26.3489051 10.3734375,25.6832117 8.9,25.6832117 C8.540625,25.6481752 8.2171875,25.6832117 7.89375,25.7532847 Z M9.33125,30.3430657 C9.2953125,30.0978102 9.115625,29.9226277 8.8640625,29.9226277 C8.5765625,29.9226277 8.3609375,30.1328467 8.3609375,30.4131387 C8.3609375,30.4481752 8.3609375,30.5182482 8.396875,30.5532847 C8.46875,30.7635036 8.6484375,30.9036496 8.8640625,30.9036496 C9.1515625,30.9036496 9.3671875,30.6934307 9.3671875,30.4481752 C9.3671875,30.3781022 9.3671875,30.3430657 9.33125,30.3430657 Z M4.084375,29.9576642 L7.4265625,29.2569343 L7.4265625,29.2218978 L8.325,28.9065693 L6.45625,26.2788321 C5.1265625,27.0145985 4.1921875,28.3810219 4.084375,29.9576642 Z M7.5703125,30.6934307 L7.5703125,30.6934307 L7.5703125,30.6934307 L4.1921875,31.3941606 C4.5515625,32.7956204 5.521875,33.9167883 6.815625,34.5124088 L7.5703125,30.6934307 L7.5703125,30.6934307 Z M12.49375,33.3562044 L8.9359375,31.4291971 L8.253125,34.9328467 C8.46875,34.9678832 8.6484375,34.9678832 8.8640625,34.9678832 C10.3015625,35.0029197 11.5953125,34.3722628 12.49375,33.3562044 Z M13.428125,31.7445255 C12.6734375,31.1138686 12.0625,30.5883212 12.0625,30.5883212 L10.76875,30.7635036 L13.284375,32.129927 C13.3203125,32.0248175 13.3921875,31.8846715 13.428125,31.7445255 Z M45.915625,30.3080292 C45.915625,27.7153285 43.759375,25.6481752 41.1359375,25.6481752 C40.7765625,25.6481752 40.4171875,25.6832117 40.0578125,25.7532847 L42.034375,29.8875912 C42.25,30.3080292 42.034375,30.8335766 41.603125,31.0087591 L41.603125,31.0087591 C41.171875,31.2189781 40.6328125,31.0087591 40.453125,30.5883212 L38.440625,26.3839416 C37.146875,27.2248175 36.3203125,28.6613139 36.3203125,30.2729927 C36.3203125,32.8656934 38.4765625,34.9328467 41.1,34.9328467 C43.7953125,35.0029197 45.915625,32.9007299 45.915625,30.3080292 Z M41.24375,30.7985401 C41.4953125,30.7985401 41.7109375,30.5883212 41.7109375,30.3430657 C41.7109375,30.0978102 41.4953125,29.8875912 41.24375,29.8875912 C40.9921875,29.8875912 40.7765625,30.0978102 40.7765625,30.3430657 C40.740625,30.5883212 40.95625,30.7985401 41.24375,30.7985401 Z M33.625,16.4335766 C33.121875,16.4335766 32.690625,16.8540146 32.690625,17.3445255 C32.690625,17.8350365 33.121875,18.2554745 33.625,18.2554745 C34.128125,18.2554745 34.559375,17.8350365 34.559375,17.3445255 C34.559375,16.8540146 34.128125,16.4335766 33.625,16.4335766 Z M13.9671875,17.9751825 L19.5734375,19.0262774 C19.5734375,19.0262774 20.54375,18.1854015 20.7234375,17.870073 C20.903125,17.5547445 13.715625,16.7138686 13.715625,16.7138686 L13.9671875,17.9751825 Z" id="motor_x5F_bike" fill="#999999" fill-rule="nonzero"></path>
    </g>
</svg>