<?xml version="1.0" encoding="UTF-8"?>
<svg width="50px" height="50px" viewBox="0 0 50 50" version="1.1" xmlns="http://www.w3.org/2000/svg" xmlns:xlink="http://www.w3.org/1999/xlink">
    <!-- Generator: Sketch 56.3 (81716) - https://sketch.com -->
    <title>lifestyle / mountain</title>
    <desc>Created with Sketch.</desc>
    <g id="lifestyle-/-mountain" stroke="none" stroke-width="1" fill="none" fill-rule="evenodd">
        <g id="6" transform="translate(3.000000, 8.000000)" fill="#999999" fill-rule="nonzero">
            <path d="M24.2286429,0 L14.0497031,19.8055648 L10.4852813,13.5916093 L0,34 L43.7142857,34 L24.2286429,0 Z M3.54529687,31.65988 L3.18704464,31.4700569 L6.74190402,24.7667567 L7.10015625,24.9565798 L3.54529687,31.65988 Z M11.0607388,22.0511171 C10.5751004,21.785296 11.0655201,25.0752192 9.01470536,25.1082319 C8.08577679,25.1223311 7.49187723,24.0067765 7.17119196,23.1429438 L10.556317,16.558283 L13.2768482,21.3103944 L12.6733862,22.4878478 C12.2628817,22.5304892 11.7348951,22.4214785 11.0607388,22.0511171 Z M15.9591295,23.133659 L12.0788036,30.44907 L11.456558,30.1120652 L15.539404,22.4073793 L17.6609129,18.4052756 L18.2879397,18.737466 L15.9591295,23.133659 Z M25.2047009,13.6676073 C24.3608103,13.2023344 25.2142634,18.9465465 21.631058,19.003631 C19.7404152,19.0321732 18.6465335,16.3784325 18.1752388,14.873603 L24.2945558,2.96220327 L30.084308,13.0644375 C29.5279754,14.0235256 28.1701004,15.2958906 25.2047009,13.6676073 Z" id="icon_1_"></path>
        </g>
    </g>
</svg>