<?xml version="1.0" encoding="UTF-8"?>
<svg width="50px" height="50px" viewBox="0 0 50 50" version="1.1" xmlns="http://www.w3.org/2000/svg" xmlns:xlink="http://www.w3.org/1999/xlink">
    <title>Health History / Muscle, Bone, Joint active</title>
    <defs>
        <polygon id="path-1" points="0 0 35 0 35 47 0 47"></polygon>
        <polygon id="path-3" points="5 2 30 2 30 50 5 50"></polygon>
    </defs>
    <g id="Health-History-/-Muscle,-Bone,-Joint-active" stroke="none" stroke-width="1" fill="none" fill-rule="evenodd">
        <g id="Group-12-Copy" transform="translate(8.000000, 0.000000)">
            <mask id="mask-2" fill="white">
                <use xlink:href="#path-1"></use>
            </mask>
            <g id="Clip-2"></g>
            <path d="M14.7398629,1.67804706 C14.7240167,1.66355782 14.7085569,1.64906858 14.6934837,1.63380658 L16.3277678,0 C18.866638,2.2750037 21.2578679,4.63037438 23.4668665,7.08543102 C25.6971223,9.56425001 27.7665971,12.1713471 29.6437918,14.9308709 C29.7268877,15.0525805 29.9547251,15.3752076 30.1850748,15.7015052 C31.5818591,17.6778374 33.085702,19.8050509 33.2453234,23.6891329 C33.410549,27.7109592 33.6492082,31.5222086 33.9680647,35.5621948 C34.2556152,39.1993801 34.5965017,42.8914314 35,47 L32.6767928,47 C32.2684633,42.8408157 31.9295093,39.175811 31.6581914,35.7432137 C31.3445527,31.7675597 31.1058935,27.935639 30.9354502,23.7795457 C30.8040427,20.5868902 29.501949,18.7444386 28.2920338,17.0325833 C28.1490316,16.8301204 28.0069955,16.6292029 27.7321993,16.2256293 C25.936168,13.5854968 23.929305,11.0608918 21.7458148,8.63404087 C19.5544016,6.1986896 17.2093575,3.88775259 14.7398629,1.67804706 L14.7398629,1.67804706 Z M1.66443053,14.6590528 C3.29716867,15.7689285 5.08063893,16.8813157 6.88652576,17.9322685 C8.86169637,19.0815549 10.8625687,20.1570428 12.7214051,21.0752742 C14.5106727,21.9591177 15.5256024,23.0854146 16.0771274,24.471745 C16.5994722,25.7858223 16.6603448,27.2529061 16.5658473,28.9406126 C16.1952009,35.561422 17.7050343,41.0248311 19.2770931,46.7127267 L19.3559376,47 L16.9577508,47 C15.3667539,41.2406241 13.8718004,35.67637 14.2559741,28.8138801 C14.3336591,27.4219472 14.2986815,26.2496712 13.930354,25.3231326 C13.590627,24.4690403 12.9187096,23.7519196 11.6977793,23.1491672 C9.78985843,22.2065939 7.74260695,21.1061845 5.72704786,19.9335221 C3.80250779,18.8137938 1.90598843,17.6279944 0.184550233,16.4501159 L0,16.3233834 L1.66443053,14.6590528 Z" id="Fill-1" fill="#FFFFFF" mask="url(#mask-2)"></path>
            <mask id="mask-4" fill="white">
                <use xlink:href="#path-3"></use>
            </mask>
            <g id="Clip-5"></g>
            <path d="M5,5.06563785 C9.84407769,9.01074765 17.0207213,16.1633206 18.3990988,20.3065201 C19.1044345,22.4263327 15.6469028,24.3490257 17.7498024,26.2950005 C21.9464834,30.1789954 26.2561928,24.3874407 24.3214112,20.1084304 C23.4639145,18.2125116 20.8779368,15.5686633 17.9631318,12.2979511 C14.9882982,8.96030363 10.9722729,4.87123438 8.00161849,2 L5,5.06563785 Z M29.3586821,38.0796918 C29.4143415,38.8763192 29.4732303,39.7150479 29.5381979,40.5904455 C29.7545667,43.5016471 29.9147062,46.8623824 30,50 L25.987204,50 C26.0350749,47.2981411 25.9680177,44.3981924 25.7364518,41.7789841 L29.3586821,38.0796918 Z M23.9847953,40.4482322 C24.033806,41.0463818 24.086236,41.6408451 24.1428452,42.2312341 C24.3992964,44.9129154 24.7380019,47.5131102 25.1903058,50 L22.8792058,50 C22.4610954,47.6217588 22.1415762,45.1403015 21.8942433,42.5835661 L23.9847953,40.4482322 Z M23.5775128,33.8412307 C23.6460898,35.3809372 23.7292939,36.9053164 23.8320644,38.4093241 L21.7149175,40.571432 C21.5198246,38.1749534 21.3809611,35.7224043 21.2776207,33.2345444 C20.068311,33.0414991 18.9790584,32.7520281 19.0561837,31.2542289 C19.1713018,29.0189771 27.4900079,25.1332361 28.6736725,30.9717425 C28.9002994,32.0908235 29.0536002,33.8363803 29.2135497,36.033023 L25.5219826,39.8031309 C25.2222197,37.5168531 24.7666864,35.5860115 24.1147306,34.4048455 C23.9827057,34.1652365 23.7978709,33.98325 23.5775128,33.8412307 L23.5775128,33.8412307 Z M24.6367512,20.1881707 C25.5480077,21.976799 25.6956096,22.6240345 25.5928391,24.3005218 C25.5067855,25.711014 27.326639,25.6749271 27.6332406,24.5746656 C28.0545804,23.0621213 28.1393043,21.4424805 27.0354245,19.7299063 C26.2244689,18.4717162 24.0528023,19.0425096 24.6367512,20.1881707 L24.6367512,20.1881707 Z" id="Fill-4" fill="#FFFFFF" mask="url(#mask-4)"></path>
        </g>
    </g>
</svg>