<?xml version="1.0" encoding="UTF-8"?>
<svg width="50px" height="50px" viewBox="0 0 50 50" version="1.1" xmlns="http://www.w3.org/2000/svg" xmlns:xlink="http://www.w3.org/1999/xlink">
    <title>Health History / Muscle, Bone, Joint inactive</title>
    <defs>
        <polygon id="path-1" points="8 0 43 0 43 47 8 47"></polygon>
        <polygon id="path-3" points="13 2 38 2 38 50 13 50"></polygon>
    </defs>
    <g id="Health-History-/-Muscle,-Bone,-Joint-inactive" stroke="none" stroke-width="1" fill="none" fill-rule="evenodd">
        <mask id="mask-2" fill="white">
            <use xlink:href="#path-1"></use>
        </mask>
        <g id="Clip-2"></g>
        <path d="M22.7398629,1.67804706 C22.7240167,1.66355782 22.7085569,1.64906858 22.6934837,1.63380658 L24.3277678,0 C26.866638,2.2750037 29.2578679,4.63037438 31.4668665,7.08543102 C33.6971223,9.56425001 35.7665971,12.1713471 37.6437918,14.9308709 C37.7268877,15.0525805 37.9547251,15.3752076 38.1850748,15.7015052 C39.5818591,17.6778374 41.085702,19.8050509 41.2453234,23.6891329 C41.410549,27.7109592 41.6492082,31.5222086 41.9680647,35.5621948 C42.2556152,39.1993801 42.5965017,42.8914314 43,47 L40.6767928,47 C40.2684633,42.8408157 39.9295093,39.175811 39.6581914,35.7432137 C39.3445527,31.7675597 39.1058935,27.935639 38.9354502,23.7795457 C38.8040427,20.5868902 37.501949,18.7444386 36.2920338,17.0325833 C36.1490316,16.8301204 36.0069955,16.6292029 35.7321993,16.2256293 C33.936168,13.5854968 31.929305,11.0608918 29.7458148,8.63404087 C27.5544016,6.1986896 25.2093575,3.88775259 22.7398629,1.67804706 L22.7398629,1.67804706 Z M9.66443053,14.6590528 C11.2971687,15.7689285 13.0806389,16.8813157 14.8865258,17.9322685 C16.8616964,19.0815549 18.8625687,20.1570428 20.7214051,21.0752742 C22.5106727,21.9591177 23.5256024,23.0854146 24.0771274,24.471745 C24.5994722,25.7858223 24.6603448,27.2529061 24.5658473,28.9406126 C24.1952009,35.561422 25.7050343,41.0248311 27.2770931,46.7127267 L27.3559376,47 L24.9577508,47 C23.3667539,41.2406241 21.8718004,35.67637 22.2559741,28.8138801 C22.3336591,27.4219472 22.2986815,26.2496712 21.930354,25.3231326 C21.590627,24.4690403 20.9187096,23.7519196 19.6977793,23.1491672 C17.7898584,22.2065939 15.7426069,21.1061845 13.7270479,19.9335221 C11.8025078,18.8137938 9.90598843,17.6279944 8.18455023,16.4501159 L8,16.3233834 L9.66443053,14.6590528 Z" id="Fill-1" fill="#999999" mask="url(#mask-2)"></path>
        <mask id="mask-4" fill="white">
            <use xlink:href="#path-3"></use>
        </mask>
        <g id="Clip-5"></g>
        <path d="M13,5.06563785 C17.8440777,9.01074765 25.0207213,16.1633206 26.3990988,20.3065201 C27.1044345,22.4263327 23.6469028,24.3490257 25.7498024,26.2950005 C29.9464834,30.1789954 34.2561928,24.3874407 32.3214112,20.1084304 C31.4639145,18.2125116 28.8779368,15.5686633 25.9631318,12.2979511 C22.9882982,8.96030363 18.9722729,4.87123438 16.0016185,2 L13,5.06563785 Z M37.3586821,38.0796918 C37.4143415,38.8763192 37.4732303,39.7150479 37.5381979,40.5904455 C37.7545667,43.5016471 37.9147062,46.8623824 38,50 L33.987204,50 C34.0350749,47.2981411 33.9680177,44.3981924 33.7364518,41.7789841 L37.3586821,38.0796918 Z M31.9847953,40.4482322 C32.033806,41.0463818 32.086236,41.6408451 32.1428452,42.2312341 C32.3992964,44.9129154 32.7380019,47.5131102 33.1903058,50 L30.8792058,50 C30.4610954,47.6217588 30.1415762,45.1403015 29.8942433,42.5835661 L31.9847953,40.4482322 Z M31.5775128,33.8412307 C31.6460898,35.3809372 31.7292939,36.9053164 31.8320644,38.4093241 L29.7149175,40.571432 C29.5198246,38.1749534 29.3809611,35.7224043 29.2776207,33.2345444 C28.068311,33.0414991 26.9790584,32.7520281 27.0561837,31.2542289 C27.1713018,29.0189771 35.4900079,25.1332361 36.6736725,30.9717425 C36.9002994,32.0908235 37.0536002,33.8363803 37.2135497,36.033023 L33.5219826,39.8031309 C33.2222197,37.5168531 32.7666864,35.5860115 32.1147306,34.4048455 C31.9827057,34.1652365 31.7978709,33.98325 31.5775128,33.8412307 L31.5775128,33.8412307 Z M32.6367512,20.1881707 C33.5480077,21.976799 33.6956096,22.6240345 33.5928391,24.3005218 C33.5067855,25.711014 35.326639,25.6749271 35.6332406,24.5746656 C36.0545804,23.0621213 36.1393043,21.4424805 35.0354245,19.7299063 C34.2244689,18.4717162 32.0528023,19.0425096 32.6367512,20.1881707 L32.6367512,20.1881707 Z" id="Fill-4" fill="#999999" mask="url(#mask-4)"></path>
    </g>
</svg>