<svg xmlns="http://www.w3.org/2000/svg" width="29" height="42" viewBox="0 0 29 42"><g fill="#FFF"><path d="M20.6558438,15.298627 C19.765463,14.4394067 18.549183,13.9705202 17.290966,14.0014376 C16.032749,14.0323551 14.842727,14.5603701 13.9987319,15.4622082 C12.8809158,14.2669649 11.1800241,13.7510781 9.55544421,14.1145426 C7.9308643,14.4780071 6.63803775,15.6636733 6.17815671,17.2118922 C5.71827567,18.760111 6.16364975,20.4274476 7.34162004,21.5675229 L13.9987319,28 L20.6558438,21.570099 C22.4480521,19.8379568 22.4480521,17.0307692 20.6558438,15.298627 Z"/><polygon points="1 36.5 28 36.5 28 34.5 1 34.5"/><polygon points="1 7.5 28 7.5 28 5.5 1 5.5"/><path d="M3.7,0 L25.3029497,0 C27.3394839,0.00601153391 28.993876,1.63997904 29,3.66666667 L29,38.3333333 C28.993876,40.360021 27.3394839,41.9939885 25.3,42 L3.6970503,42 C1.66051606,41.9939885 0.00612395441,40.360021 0,38.3333333 L0,3.66364277 C0.00612395441,1.63997904 1.66051606,0.00601153391 3.7,0 Z M3.7029497,1.99999565 C2.7608389,2.0027746 2.00277201,2.75148265 1.99999543,3.66666667 L1.99999543,38.3303094 C2.00277201,39.2485174 2.7608389,39.9972254 3.7,39.9999956 L25.2970503,39.9999956 C26.2391611,39.9972254 26.997228,39.2485174 26.9999954,38.3303094 L26.9999954,3.66969057 C26.997228,2.75148265 26.2391611,2.0027746 25.3,1.99999565 L3.7029497,1.99999565 Z"/></g></svg>