<svg xmlns="http://www.w3.org/2000/svg" width="40" height="40" viewBox="0 0 40 40"><g fill="#FFF"><path d="M16.8039216,25.1222222 C15.8430141,24.858793 14.9052392,24.5169096 14,24.1 L14,27.0388889 C15.7974061,27.6979463 17.6940761,28.0436796 19.6078431,28.0611111 L19.6078431,31 L21.3921569,31 L21.3921569,27.9333333 C22.9227803,27.8925078 24.398777,27.3544054 25.5980392,26.4 C26.4930913,25.527439 26.9986518,24.3294137 27,23.0777778 C26.9801613,22.1049911 26.5659952,21.1822621 25.8529412,20.5222222 C24.8777269,19.4922642 23.6456776,18.7423161 22.2843137,18.35 L21.2647059,17.9666667 L21.2647059,12.9833333 C22.7485518,13.1264117 24.2062398,13.4702765 25.5980392,14.0055556 L26.6176471,11.45 C24.9793031,10.6922024 23.1964557,10.2998422 21.3921569,10.3 L21.3921569,8 L19.6078431,8 L19.6078431,10.4277778 C18.1722944,10.5521857 16.8018094,11.0840563 15.6568627,11.9611111 C14.7009264,12.690764 14.1361186,13.8232761 14.127451,15.0277778 C14.1341769,16.0934305 14.4927086,17.1268522 15.1470588,17.9666667 C16.0688202,18.9088624 17.2064477,19.6107359 18.4607843,20.0111111 L19.6078431,20.3944444 L19.6078431,25.5055556 C18.6603038,25.504147 17.7172413,25.3752178 16.8039216,25.1222222 L16.8039216,25.1222222 Z M21.3921569,21.0333333 C22.0802389,21.2684556 22.7258377,21.6136579 23.3039216,22.0555556 C23.6501266,22.3875566 23.836045,22.8535445 23.8137255,23.3333333 C23.8137255,24.4833333 23.0490196,25.1222222 21.3921569,25.3777778 L21.3921569,21.0333333 Z M17.8235294,16.1777778 C17.4751636,15.8472442 17.2888318,15.3802202 17.3137255,14.9 C17.3326387,14.4019294 17.5648909,13.936234 17.9509804,13.6222222 C18.4150067,13.2270229 18.9992643,13.0017322 19.6078431,12.9833333 L19.6078431,17.2 C18.9488271,16.9869404 18.3411964,16.6388326 17.8235294,16.1777778 L17.8235294,16.1777778 Z"/><path d="M29.0333664,2.16118204 C22.3624432,-1.22430861 14.3569751,-0.595647188 8.2970391,3.78958514 L4.95573515,0.450359772 C4.62765764,0.122004985 4.14445318,0.00252440952 3.70102044,0.140110078 C3.2575877,0.277695747 2.92705503,0.649657831 2.84274152,1.10596685 L0.822214783,11.9653175 C0.754206331,12.3304446 0.852350961,12.706878 1.09000133,12.992412 C1.32765171,13.2779461 1.68014471,13.4429483 2.05177465,13.4426188 C2.13275339,13.4427726 2.21354413,13.434824 2.29293832,13.4188921 L13.060334,11.2959739 C13.5130155,11.2068227 13.8797022,10.8756299 14.014103,10.4345262 C14.1485037,9.99342247 14.0287446,9.5141979 13.7026041,9.1880411 L10.0876481,5.57908025 C16.7183338,1.02704478 25.6006216,1.5809204 31.6136693,6.92138513 C37.626717,12.2618499 39.2203453,21.0121181 35.475791,28.1274598 C31.7312367,35.2428015 23.6138556,38.8888633 15.8035038,36.9636069 C7.99315194,35.0383506 2.50335827,28.0381122 2.49911452,19.9986896 C2.49911452,19.30901 1.93967072,18.7499142 1.24956181,18.7499142 C0.559452904,18.7499142 0,19.30901 0,19.9986896 C-0.00877594429,29.2547467 6.34482078,37.3050487 15.3538724,39.4527473 C24.3629241,41.6004458 33.6685354,37.2831958 37.8414634,29.0198429 C40.238842,24.2911241 40.6576381,18.8041215 39.0056597,13.7667194 C37.3536814,8.7293174 33.7663506,4.5544601 29.0333664,2.16118204 Z"/></g></svg>