<svg xmlns="http://www.w3.org/2000/svg" width="44" height="44" viewBox="0 0 44 44">
  <path fill="#FFF" d="M17.2496405 38.0096444C18.2528123 40.0449496 20.0627102 41.2747759 21.9842603 41.2935463 23.7293447 41.3105929 25.3954966 40.3269662 26.4587177 38.6358948L26.7590721 38.1076433 28.6034528 38.9399274C27.2445303 41.5923023 24.7216695 43.2410253 21.9629602 43.2140772 19.4031191 43.1890717 17.0688166 41.7253699 15.6924939 39.3740905L15.3922199 38.8159826 17.2496405 38.0096444zM21.9488372-2.97751242e-14C30.282662-2.97751242e-14 37.560155 6.12285485 38.0068598 13.3396709L38.0285714 14.0413187 38.0285714 19.8564103C38.0285714 23.0830769 39.4958472 24.9446154 40.9631229 26.4515751L42.2440547 27.7393874C43.1787093 28.7090007 43.8976744 29.6534212 43.8976744 30.9192674 43.8976744 32.9580952 40.6000727 34.7199084 34.8292696 35.7545582L33.0246571 36.042688C29.8960574 36.4850458 26.1697674 36.734359 21.9488372 36.734359 17.727907 36.734359 14.001617 36.4850458 10.8730174 36.042688L9.0684048 35.7545582C3.29760174 34.7199084 0 32.9580952 0 30.9192674 0 29.6534212.718965116 28.7090007 1.65361977 27.7393874L2.9345515 26.4515751C4.25509967 25.0953114 5.57564784 23.4518388 5.82655199 20.784467L5.86910299 19.8564103 5.86910299 14.1831502C6.06478647 6.42263132 13.1505745.172602862 21.9488372-2.97751242e-14zM21.3002145 3.87335856C15.2427499 4.29895684 10.4919508 8.4714769 10.0010838 13.5445337L9.96212625 14.1831502 9.96212625 19.8564103C9.96212625 23.4040823 8.79127577 25.9263949 6.54106959 28.4195135L5.81148141 29.1887868 4.55348837 30.4535873 4.69609565 30.5273439C5.1386558 30.7366278 5.69744675 30.9511346 6.3620782 31.1589984L7.06160497 31.3642084C10.5807479 32.3332021 15.7702389 32.8930891 21.9488372 32.8930891 28.1274355 32.8930891 33.3169265 32.3332021 36.8360694 31.3642084 37.8147858 31.0947195 38.6114986 30.8063892 39.2015788 30.5273439L39.340093 30.4535873 37.94159 29.0427614C35.5121266 26.5475907 34.1543943 24.1062397 33.9598879 20.7225431L33.9355482 19.8564103 33.9355482 14.0413187C33.9355482 8.90935456 28.7620242 4.20269169 22.6571389 3.86108972L21.9488372 3.84126984 21.3002145 3.87335856z"/>
</svg>
