<?xml version="1.0" encoding="UTF-8"?>
<svg width="18px" height="20px" viewBox="0 0 18 20" version="1.1" xmlns="http://www.w3.org/2000/svg" xmlns:xlink="http://www.w3.org/1999/xlink">
    <title>Combined Shape</title>
    <g id="Symbols" stroke="none" stroke-width="1" fill="none" fill-rule="evenodd">
        <g id="icon-/-illustration" transform="translate(-1.000000, 0.000000)" fill="#FFFFFF" fill-rule="nonzero">
            <path d="M19,0 L19,14.6299836 L13.0633423,20 L1,20 L1,0 L19,0 Z M17.3636364,1.49779736 L2.63636364,1.49779736 L2.63636364,18.5017915 L11,18.501 L11,14 L17.363,14 L17.3636364,1.49779736 Z M16.221,15.035 L12.2070558,15.0352284 L12.208,18.501 L12.3901818,18.5017915 L16.221,15.035 Z M10,13 L10,14 L5,14 L5,13 L10,13 Z M15,10 L15,11 L5,11 L5,10 L15,10 Z M15,7 L15,8 L5,8 L5,7 L15,7 Z M15,4 L15,5 L5,5 L5,4 L15,4 Z" id="Combined-Shape"></path>
        </g>
    </g>
</svg>