<svg xmlns="http://www.w3.org/2000/svg" width="48" height="48" viewBox="0 0 48 48">
  <path fill="#FFF" d="M40.8102644,6.87421018 C34.8425867,1.02360511 26.2625892,-1.30812604 18.1526748,0.716701644 C10.0427604,2.74152932 3.56754218,8.83214323 1.05327139,16.8004629 L26.8392117,16.8004629 C28.65294,16.8005545 30.3544104,17.6782562 31.4052627,19.1558554 C32.4561151,20.6334545 32.7263191,22.5281161 32.1303798,24.2403525 L28.694442,34.114606 C28.1336721,35.7219592 26.6174173,36.7991801 24.9143503,36.8001662 L0,36.8001662 C0.229702802,42.9128755 5.31597914,48 11.3290703,48 L30.3191692,48 C40.0793862,47.9889783 47.9888553,40.0831664 48,30.3274622 L48,24.0003561 C48.0201539,17.5544975 45.4262158,11.3755649 40.8102644,6.87421018 Z"/>
</svg>
