<svg width="50" height="35" viewBox="0 0 50 35" fill="none" xmlns="http://www.w3.org/2000/svg">
<path fill-rule="evenodd" clip-rule="evenodd" d="M14.0785 13.1285H47.9528L40.174 32.7663H6.29887L14.0785 13.1285ZM30.0143 10.6001C29.991 10.4178 29.8934 10.2485 29.7458 10.1348C29.599 10.0243 29.4216 9.9791 29.249 10.0041C29.0667 10.0259 28.9046 10.1186 28.7909 10.263C28.6788 10.4082 28.6288 10.588 28.6513 10.7695L28.7747 11.755H27.2851L27.1424 10.6001C27.119 10.4138 27.0254 10.2493 26.877 10.1364C26.7326 10.0251 26.5536 9.97668 26.3762 10.0041C26.1939 10.0259 26.0318 10.1186 25.9197 10.2622C25.8068 10.4074 25.7568 10.5872 25.7802 10.7695L25.9019 11.755H24.4131L24.2696 10.6001C24.2462 10.417 24.1478 10.2469 24.0002 10.1339C23.8558 10.0243 23.6816 9.97748 23.5042 10.0041C23.3219 10.0259 23.159 10.1186 23.0461 10.263C22.9332 10.4074 22.884 10.588 22.9066 10.7695L23.0291 11.755H21.5403L21.3968 10.6001C21.375 10.4178 21.2766 10.2485 21.1282 10.1356C20.9822 10.0235 20.8032 9.97748 20.6306 10.0041C20.4483 10.0259 20.2862 10.1186 20.1741 10.263C20.0612 10.4074 20.0112 10.588 20.0346 10.7695L20.1564 11.755H18.6675L18.524 10.6001C18.5014 10.4178 18.403 10.2485 18.2546 10.1356C18.1078 10.0243 17.9312 9.9791 17.7578 10.0041C17.5763 10.0259 17.4134 10.1186 17.3005 10.263C17.1876 10.4074 17.1384 10.588 17.161 10.7695L17.2844 11.755H15.7947L15.6512 10.6001C15.6294 10.4186 15.531 10.2493 15.3818 10.1356C15.235 10.0251 15.06 9.9791 14.885 10.0041C14.7027 10.0259 14.5406 10.1186 14.4285 10.263C14.3156 10.4074 14.2656 10.588 14.289 10.7695L14.4108 11.755H13.6115C13.3284 11.755 13.0776 11.9252 12.9728 12.1881L12.9308 12.2938L12.7808 10.6235C12.7639 10.4388 12.676 10.2727 12.5324 10.1541C12.3921 10.038 12.2122 9.98555 12.0356 10.0009C11.8525 10.0178 11.6872 10.1041 11.5702 10.2452C11.4525 10.3856 11.3968 10.563 11.413 10.7461L11.7952 14.9956C11.7985 15.0303 11.8146 15.0601 11.8227 15.0924L10.6089 18.1555L9.90801 10.6219C9.87414 10.2557 9.55234 9.97264 9.16037 10.0017C8.9781 10.0186 8.81357 10.1057 8.69582 10.2469C8.57888 10.388 8.52323 10.5654 8.54097 10.7485L9.49185 20.9751L7.2191 26.7142L5.62059 8.55883H32.1516L32.7307 11.755H30.1587L30.0143 10.6001ZM3.8874 31.3379L1.43319 2.17932H14.2519L17.8965 5.5449C18.0239 5.66184 18.1893 5.72636 18.3627 5.72636H35.4648L36.5439 11.755H34.1259L33.4009 7.7499C33.3412 7.42326 33.0565 7.18615 32.725 7.18615H4.86973C4.67778 7.18615 4.49309 7.2668 4.36405 7.40874C4.2342 7.54988 4.16887 7.74103 4.185 7.93298L6.09079 29.5628L5.00523 32.3017L3.8874 31.3379ZM49.5311 12.0551C49.4037 11.8671 49.1908 11.755 48.9633 11.755H37.9399L36.7148 4.91904C36.656 4.5916 36.3721 4.35368 36.039 4.35368H18.6312L14.9866 0.988106C14.8592 0.871162 14.6939 0.806641 14.5205 0.806641H0.687163C0.495213 0.806641 0.311328 0.886485 0.18148 1.02762C0.050825 1.16876 -0.013696 1.35991 0.00243425 1.55105L2.54295 31.7331C2.55827 31.913 2.64215 32.0775 2.77845 32.1961L4.91651 34.039L4.9278 34.0244C5.03668 34.093 5.15604 34.139 5.28831 34.139H40.6409C40.9232 34.139 41.1749 33.9688 41.2797 33.7059L49.6021 12.6946C49.6852 12.4825 49.6586 12.243 49.5311 12.0551Z" fill="white"/>
</svg>
