<svg xmlns="http://www.w3.org/2000/svg" width="48" height="48" viewBox="0 0 48 48">
  <path fill="#A3A3A3" d="M41.8102644,7.87421018 C35.8425867,2.02360511 27.2625892,-0.308126037 19.1526748,1.71670164 C11.0427604,3.74152932 4.56754218,9.83214323 2.05327139,17.8004629 L27.8392117,17.8004629 C29.65294,17.8005545 31.3544104,18.6782562 32.4052627,20.1558554 C33.4561151,21.6334545 33.7263191,23.5281161 33.1303798,25.2403525 L29.694442,35.114606 C29.1336721,36.7219592 27.6174173,37.7991801 25.9143503,37.8001662 L1,37.8001662 C1.2297028,43.9128755 6.31597914,49 12.3290703,49 L31.3191692,49 C41.0793862,48.9889783 48.9888553,41.0831664 49,31.3274622 L49,25.0003561 C49.0201539,18.5544975 46.4262158,12.3755649 41.8102644,7.87421018 Z" transform="translate(-1 -1)"/>
</svg>
