<svg xmlns="http://www.w3.org/2000/svg" width="45" height="52" viewBox="0 0 45 52"><g fill="none" fill-rule="evenodd" stroke="#FFF" stroke-width="2" transform="translate(1 1)"><path d="M9.14751289 46C10.5667928 44.9896781 11.6563498 42.4196925 11.6563498 42.4196925 11.6563498 42.4196925 12.8826423 41.5994312 13.266021 40.5524309 13.6493996 39.5054307 13.2876563 38.0833109 13.2876563 38.0833109 13.2876563 38.0833109 14.3746171 35.0106652 13.863157 34.1487239 13.351697 33.2867826 11.1786409 32.7324393 11.1786409 32.7324393 11.1786409 32.7324393 10.2838023 31.1319293 8.43008419 30.8234977 7.21504209 30.7009586 6 29.8998701 6 28.2376738 6 26.5754775 7.72563671 23.8662809 7.72563671 23.8662809 7.72563671 23.8662809 9.51531409 23.0226788 9.77147681 22.4074828 10.0276395 21.7922868 10.114181 20.3568294 10.114181 20.3568294 10.114181 20.3568294 11.8164515 17.4625739 10.8575721 15.8003776 10.5520808 15.2702086 9.13193543 14.8767499 9.13193543 14.8767499L7.14061644 12M39 41.6272855C36.886471 40.6148848 33.1892693 39.7699551 33.1892693 39.7699551 33.1892693 39.7699551 30.4877598 36.7655737 28.7145519 37.0146764 26.941344 37.2637792 25.1369681 39.2523936 25.1369681 39.2523936 25.1369681 39.2523936 25.2616402 42.919927 24.7014581 43.106754 24.141276 43.2935811 22.647738 42.2988532 21.7152244 43.0444783 20.7818684 43.7901035 21.3201486 45.8931705 21.3201486 45.8931705 21.3201486 45.8931705 19.2883303 46.5260262 19.0398285 47.2093757 18.7913267 47.8927252 19.7794373 49.415955 19.9672879 50"/><path d="M21.9639038,7.01157692 C21.8084423,7.00826923 21.6562885,7 21.5,7 C9.62621154,7 0,16.6262115 0,28.5 C0,40.3737885 9.62621154,50 21.5,50 C33.3737885,50 43,40.3737885 43,28.5 C43,26.1920577 42.6361538,23.9692885 41.9630385,21.8854423"/><path stroke-linecap="square" d="M42,9.74 C42,15.7516667 32,25 32,25 C32,25 22,15.7516667 22,9.74 C22,3.57666667 27.1675,0 32,0 C36.8325,0 42,3.57666667 42,9.74 Z"/><circle cx="31.5" cy="10.5" r="3.5" stroke-linecap="square"/></g></svg>