<svg width="12" height="12" viewBox="0 0 12 12" fill="none" xmlns="http://www.w3.org/2000/svg">
<mask id="path-1-inside-1" fill="white">
<path fill-rule="evenodd" clip-rule="evenodd" d="M8.12057 1.55757L10.2306 3.60296L11.3246 2.509C11.8983 1.93525 11.8983 1.00503 11.3246 0.431285C10.7508 -0.14246 9.8206 -0.14246 9.24686 0.431285L8.12057 1.55757ZM2.86384 10.969L9.58996 4.24288L7.48653 2.19088L0.785388 8.89202L0 11.7669L2.86384 10.969Z"/>
</mask>
<path d="M10.2306 3.60296L8.83857 5.039L10.2524 6.40955L11.6448 5.01717L10.2306 3.60296ZM8.12057 1.55757L6.70636 0.143358L5.26997 1.57975L6.72853 2.99361L8.12057 1.55757ZM11.3246 2.509L12.7388 3.92321L12.7388 3.92321L11.3246 2.509ZM11.3246 0.431285L12.7388 -0.982928L12.7388 -0.982929L11.3246 0.431285ZM9.24686 0.431285L10.6611 1.8455L9.24686 0.431285ZM9.58996 4.24288L11.0042 5.65709L12.436 4.22527L10.9866 2.81127L9.58996 4.24288ZM2.86384 10.969L3.4006 12.8956L3.90662 12.7546L4.27805 12.3832L2.86384 10.969ZM7.48653 2.19088L8.88313 0.759271L7.46914 -0.620156L6.07232 0.776664L7.48653 2.19088ZM0.785388 8.89202L-0.628826 7.47781L-1.00406 7.85304L-1.14391 8.36495L0.785388 8.89202ZM0 11.7669L-1.9293 11.2398L-2.85801 14.6393L0.536766 13.6935L0 11.7669ZM11.6227 2.16692L9.51261 0.121528L6.72853 2.99361L8.83857 5.039L11.6227 2.16692ZM9.91036 1.09479L8.8164 2.18874L11.6448 5.01717L12.7388 3.92321L9.91036 1.09479ZM9.91036 1.8455C9.70305 1.6382 9.70305 1.30209 9.91036 1.09479L12.7388 3.92321C14.0936 2.56842 14.0936 0.371866 12.7388 -0.982928L9.91036 1.8455ZM10.6611 1.8455C10.4538 2.0528 10.1177 2.0528 9.91036 1.8455L12.7388 -0.982929C11.384 -2.33772 9.18744 -2.33772 7.83264 -0.982928L10.6611 1.8455ZM9.53479 2.97178L10.6611 1.8455L7.83264 -0.982928L6.70636 0.143358L9.53479 2.97178ZM8.17575 2.82866L1.44962 9.55479L4.27805 12.3832L11.0042 5.65709L8.17575 2.82866ZM6.08993 3.62248L8.19336 5.67448L10.9866 2.81127L8.88313 0.759271L6.08993 3.62248ZM2.1996 10.3062L8.90074 3.60509L6.07232 0.776664L-0.628826 7.47781L2.1996 10.3062ZM1.9293 12.2939L2.71469 9.41909L-1.14391 8.36495L-1.9293 11.2398L1.9293 12.2939ZM2.32707 9.04238L-0.536766 9.84025L0.536766 13.6935L3.4006 12.8956L2.32707 9.04238Z" fill="#6F6F6F" mask="url(#path-1-inside-1)"/>
</svg>
