<svg width="40" height="40" viewBox="0 0 40 40" fill="none" xmlns="http://www.w3.org/2000/svg">
	<path d="M30.5882 24.7672C27.8638 24.5195 26.3777 28.2347 24.3963 29.2254C21.1765 30.9591 15.2322 24.7672 15.2322 24.7672C15.2322 24.7672 9.04024 18.8229 10.5263 15.6031C11.7647 13.6217 15.4799 12.1356 15.2322 9.41113C14.9845 6.93435 9.5356 -1.98206 6.81114 0.494723C0.866867 5.94364 0.371511 8.17274 0.371511 12.6309C0.123833 20.309 10.031 29.9684 10.031 29.9684C11.0217 30.9591 19.6904 39.8755 27.3684 39.6278C31.8266 39.6278 34.0557 39.1325 39.5046 33.1882C41.9814 30.4638 33.3127 25.0148 30.5882 24.7672Z" fill="#6F6F6F"/>
</svg>
