<svg width="16" height="16" viewBox="0 0 16 16" fill="none" xmlns="http://www.w3.org/2000/svg">
<path fill-rule="evenodd" clip-rule="evenodd" d="M9.84712 11.0401L10.9801 9.53258C11.2362 9.18835 11.7062 9.08432 12.0837 9.28835L15.5501 11.1538C15.899 11.3454 16.0727 11.75 15.9713 12.1349L15.2258 15.0235C15.1351 15.3752 14.9016 15.673 14.5816 15.8449C14.2617 16.0169 13.8844 16.0473 13.541 15.9289C10.4569 14.7926 7.66425 12.9846 5.36559 10.6358C3.01619 8.33776 1.20768 5.54588 0.0711619 2.46256C-0.0473078 2.11925 -0.0168733 1.74207 0.155108 1.42219C0.32709 1.10231 0.624967 0.868838 0.976733 0.778217L3.86614 0.0286856C4.25116 -0.0726849 4.65578 0.100927 4.84752 0.449771L6.71342 3.9153C6.9175 4.29265 6.81344 4.76256 6.46913 5.01854L4.96125 6.15126C4.77349 6.2903 4.64976 6.49916 4.61805 6.73058C4.58634 6.96201 4.64933 7.19644 4.79277 7.38083C5.35111 8.09141 5.9517 8.76777 6.59127 9.40625C7.22944 10.0477 7.90751 10.6483 8.62144 11.2043C8.80509 11.3468 9.03826 11.4096 9.26868 11.3788C9.49909 11.3479 9.70748 11.2259 9.84712 11.0401V11.0401Z" class="pf-svg-primary-path"/>
</svg>
