<?xml version="1.0" encoding="UTF-8"?>
<svg width="50px" height="50px" viewBox="0 0 50 50" version="1.1" xmlns="http://www.w3.org/2000/svg" xmlns:xlink="http://www.w3.org/1999/xlink">
    <title>icon / physician  / inactive</title>
    <defs>
        <polygon id="path-1" points="0.00046875 0.0003125 50 0.0003125 50 37.5 0.00046875 37.5"></polygon>
    </defs>
    <g id="icon-/-physician--/-inactive" stroke="none" stroke-width="1" fill="none" fill-rule="evenodd">
        <g id="Page-1" transform="translate(0.000000, 6.000000)">
            <g id="Group-3">
                <mask id="mask-2" fill="white">
                    <use xlink:href="#path-1"></use>
                </mask>
                <g id="Clip-2"></g>
                <path d="M46.8520313,31.3315625 C45.7910938,32.0628125 44.1473437,32.764375 42.0926563,33.364375 C39.9051563,34.001875 37.3426563,34.5065625 34.4754687,34.8596875 C31.4785938,35.23 28.2895312,35.4175 25.0004688,35.4175 C21.7098438,35.4175 18.5207813,35.23 15.5223438,34.8596875 C12.6567188,34.5065625 10.0942188,34.001875 7.90359375,33.364375 C5.85359375,32.764375 4.20671875,32.0628125 3.14734375,31.3315625 C2.28015625,30.733125 2.08328125,30.3096875 2.08328125,30.208125 L2.08328125,28.9596875 C5.80984375,31.4471875 14.1567188,33.2096875 23.9582813,33.326875 L23.9582813,33.333125 L26.0410938,33.333125 L26.0410938,33.326875 C35.8410938,33.2096875 44.1879688,31.4471875 47.9160938,28.9596875 L47.9160938,30.208125 C47.9160938,30.3096875 47.7207813,30.733125 46.8520313,31.3315625 L46.8520313,31.3315625 Z M3.14734375,24.9190625 C4.20671875,24.18625 5.85359375,23.4846875 7.90359375,22.88625 C9.72546875,22.355 11.8051563,21.9190625 14.1035938,21.5815625 C14.5957812,22.2503125 15.1473438,22.8675 15.7520313,23.433125 C10.1285938,24.08625 5.51140625,25.3175 2.75984375,26.8753125 C2.21921875,26.4315625 2.08328125,26.1253125 2.08328125,26.0425 C2.08328125,25.9409375 2.28015625,25.5175 3.14734375,24.9190625 L3.14734375,24.9190625 Z M16.8973438,5.439375 C19.0614063,3.2753125 21.9395313,2.0846875 25.0004688,2.0846875 C28.0598438,2.0846875 30.9379688,3.2753125 33.1020313,5.439375 C35.2660938,7.6034375 36.4582813,10.4815625 36.4582813,13.5425 C36.4582813,16.6034375 35.2660938,19.48 33.1020313,21.6440625 C30.9379688,23.808125 28.0598438,25.0003125 25.0004688,25.0003125 C21.9395313,25.0003125 19.0614063,23.808125 16.8973438,21.6440625 C14.7332813,19.48 13.5410938,16.6034375 13.5410938,13.5425 C13.5410938,10.4815625 14.7332813,7.6034375 16.8973438,5.439375 L16.8973438,5.439375 Z M26.0410938,27.0440625 C28.1129688,26.88625 30.0535938,26.2628125 31.7598438,25.276875 C32.6801563,25.355 33.5864063,25.4471875 34.4754688,25.558125 C37.3426563,25.91125 39.9051563,26.414375 42.0926563,27.051875 C43.2254688,27.3815625 44.2317188,27.745625 45.0864063,28.1253125 C44.2317188,28.505 43.2254688,28.8675 42.0926563,29.19875 C39.9051563,29.8346875 37.3426563,30.339375 34.4754688,30.6925 C31.7942188,31.02375 28.9629688,31.208125 26.0410938,31.2425 L26.0410938,27.0440625 Z M23.9582813,27.0440625 L23.9582813,31.2425 C21.0379688,31.208125 18.2035938,31.02375 15.5223438,30.6925 C12.6567188,30.339375 10.0942188,29.8346875 7.90359375,29.19875 C6.77546875,28.8675 5.76765625,28.505 4.91296875,28.1253125 C5.76765625,27.745625 6.77546875,27.3815625 7.90359375,27.051875 C10.0942188,26.414375 12.6567188,25.91125 15.5223438,25.558125 C16.4129688,25.4471875 17.3192188,25.355 18.2395313,25.276875 C19.9442188,26.2628125 21.8848438,26.88625 23.9582813,27.0440625 L23.9582813,27.0440625 Z M42.0926562,22.88625 C44.1473437,23.4846875 45.7910937,24.18625 46.8520312,24.9190625 C47.7207812,25.5175 47.9160937,25.9409375 47.9160937,26.0425 C47.9160937,26.1253125 47.7817187,26.4315625 47.2379687,26.8753125 C44.4879687,25.3175 39.8692187,24.08625 34.2489062,23.433125 C34.8504687,22.8675 35.4035937,22.2503125 35.8957812,21.5815625 C38.1926562,21.9190625 40.2723437,22.355 42.0926562,22.88625 L42.0926562,22.88625 Z M37.0848437,19.658125 C38.0160938,17.820625 38.5426563,15.7425 38.5426563,13.5425 C38.5426563,6.0628125 32.4785938,0.0003125 25.0004688,0.0003125 C17.5223438,0.0003125 11.4582813,6.0628125 11.4582813,13.5425 C11.4582813,15.7425 11.9832813,17.820625 12.9145313,19.658125 C5.21453125,20.9003125 0.00046875,23.2925 0.00046875,26.0425 L0.00046875,30.208125 C0.00046875,34.23625 11.1926563,37.5003125 25.0004688,37.5003125 C38.8082813,37.5003125 50.0004688,34.23625 50.0004688,30.208125 L50.0004688,26.0425 C50.0004688,23.2925 44.7848438,20.9003125 37.0848437,19.658125 L37.0848437,19.658125 Z" id="Fill-1" fill="#999999" mask="url(#mask-2)"></path>
            </g>
            <path d="M26.040625,13.5421875 C26.040625,14.1171875 25.5734375,14.584375 25,14.584375 C24.425,14.584375 23.9578125,14.1171875 23.9578125,13.5421875 C23.9578125,12.9671875 24.425,12.5 25,12.5 C25.5734375,12.5 26.040625,12.9671875 26.040625,13.5421875 M21.875,13.5421875 C21.875,15.2671875 23.2734375,16.6671875 25,16.6671875 C26.725,16.6671875 28.1234375,15.2671875 28.1234375,13.5421875 C28.1234375,11.8171875 26.725,10.4171875 25,10.4171875 C23.2734375,10.4171875 21.875,11.8171875 21.875,13.5421875" id="Fill-4" fill="#999999"></path>
            <path d="M17.7078125,13.6726562 L17.7078125,13.5429687 C17.7078125,11.5945312 18.465625,9.76328125 19.8421875,8.38671875 C21.21875,7.01015625 23.0546875,6.25234375 25,6.25078125 C25.5734375,6.25078125 26.040625,5.78359375 26.040625,5.20859375 C26.040625,4.63359375 25.5734375,4.16796875 25,4.16796875 C19.821875,4.16796875 15.625,8.36484375 15.625,13.5429687 C15.625,13.5773437 15.6234375,13.6382812 15.625,13.6726562 C15.625,14.2476562 16.090625,14.7148437 16.665625,14.7148437 C17.2421875,14.7148437 17.7078125,14.2476562 17.7078125,13.6726562" id="Fill-6" fill="#999999"></path>
        </g>
    </g>
</svg>