<svg width="41" height="41" viewBox="0 0 41 41" fill="none" xmlns="http://www.w3.org/2000/svg">
<path fill-rule="evenodd" clip-rule="evenodd" d="M7.67624 22.475C8.74424 28.62 14.0122 33.06 20.2772 33.06C22.5862 33.06 24.8432 32.439 26.8182 31.263L30.9882 35.434C27.8352 37.677 24.1302 38.861 20.2552 38.861C10.5642 38.861 2.66424 31.649 1.76124 22.036L7.67624 22.475ZM26.4742 29.5211C24.6362 30.7531 22.4932 31.4041 20.2772 31.4041C14.6442 31.4041 9.89124 27.1891 9.22024 21.6001L9.14024 20.9231L0.000244141 20.2451L0.0432441 21.1771C0.529244 32.0221 9.40724 40.5171 20.2552 40.5171C24.8272 40.5171 29.1532 39.0161 32.7622 36.1751L33.4952 35.5971L27.0402 29.1431L26.4742 29.5211Z" fill="white"/>
<path fill-rule="evenodd" clip-rule="evenodd" d="M31.2666 26.8286C32.4526 24.8486 33.0786 22.5806 33.0786 20.2586C33.0786 17.9366 32.4526 15.6706 31.2666 13.6896L35.4306 9.52463C37.6726 12.6786 38.8566 16.3826 38.8566 20.2586C38.8566 24.1336 37.6726 27.8386 35.4306 30.9936L31.2666 26.8286ZM36.1716 7.75255L35.5956 7.01855L29.1436 13.4706L29.5236 14.0366C30.7656 15.8776 31.4216 18.0296 31.4216 20.2586C31.4216 22.4886 30.7656 24.6406 29.5236 26.4826L29.1436 27.0476L35.5946 33.4996L36.1696 32.7656C39.0116 29.1566 40.5126 24.8316 40.5126 20.2586C40.5126 15.6856 39.0116 11.3616 36.1716 7.75255Z" fill="white"/>
<path fill-rule="evenodd" clip-rule="evenodd" d="M18.9213 1.713C19.3923 1.675 19.8303 1.656 20.2543 1.656C24.1303 1.656 27.8353 2.84 30.9883 5.084L26.8183 9.254C24.8603 8.088 22.6253 7.468 20.3363 7.457L18.9213 1.713ZM19.9433 9.129L19.9503 9.128C20.0593 9.121 20.1673 9.113 20.2773 9.113C22.4943 9.113 24.6373 9.764 26.4743 10.996L27.0403 11.374L33.4953 4.92L32.7623 4.342C29.1513 1.502 24.8273 0 20.2543 0C19.4973 0 18.7143 0.052 17.7893 0.164L16.8623 0.277L19.0543 9.176L19.9433 9.129Z" fill="white"/>
<path fill-rule="evenodd" clip-rule="evenodd" d="M2.20608 15.7711C3.59508 10.1921 7.53608 5.53613 12.8251 3.22413L14.2421 8.98013C11.3361 10.5351 9.18008 13.0911 8.14308 16.2111L2.20608 15.7711ZM9.54107 17.3052C10.4031 14.1622 12.5961 11.5632 15.5561 10.1742L16.1721 9.88521L13.9811 0.991211L13.1081 1.32121C6.58407 3.78521 1.70607 9.55021 0.377073 16.3682L0.200073 17.2832L9.36007 17.9622L9.54107 17.3052Z" fill="white"/>
<path fill-rule="evenodd" clip-rule="evenodd" d="M19.4483 25.9502V27.6502H21.1043V25.9502C22.8323 25.6152 24.0653 24.2922 24.0653 22.7352C24.0653 20.7902 22.5073 19.4312 20.2773 19.4312C18.9223 19.4312 18.1453 18.8302 18.1453 17.7832C18.1453 16.8742 19.1013 16.1352 20.2773 16.1352C21.4523 16.1352 22.4083 16.8742 22.4083 17.7832V18.0332H24.0653V17.7832C24.0653 16.2262 22.8323 14.9032 21.1043 14.5682V12.8672H19.4483V14.5682C17.7213 14.9042 16.4893 16.2272 16.4893 17.7832C16.4893 19.4282 17.6603 21.0872 20.2773 21.0872C21.5923 21.0872 22.4083 21.7192 22.4083 22.7352C22.4083 23.6432 21.4523 24.3832 20.2773 24.3832C19.1013 24.3832 18.1453 23.6432 18.1453 22.7352V22.4852H16.4893V22.7352C16.4893 24.2912 17.7213 25.6142 19.4483 25.9502Z" fill="white"/>
</svg>
