<svg width="20" height="20" viewBox="0 0 20 20" fill="none" xmlns="http://www.w3.org/2000/svg">
<mask id="mask0" mask-type="alpha" maskUnits="userSpaceOnUse" x="0" y="1" width="19" height="19">
<path fill-rule="evenodd" clip-rule="evenodd" d="M0.000274658 1.24658H18.7504V19.997H0.000274658L0.000274658 1.24658Z" fill="white"/>
</mask>
<g mask="url(#mask0)">
<path fill-rule="evenodd" clip-rule="evenodd" d="M16.9176 10.6216C16.9176 14.7809 13.5342 18.1631 9.37613 18.1631C5.21678 18.1631 1.83331 14.7809 1.83331 10.6216C1.83331 6.46355 5.21678 3.08008 9.37613 3.08008C13.5342 3.08008 16.9176 6.46355 16.9176 10.6216ZM9.37614 1.24561C4.20628 1.24561 0.000274658 5.45161 0.000274658 10.6215C0.000274658 15.7913 4.20628 19.9973 9.37614 19.9973C14.546 19.9973 18.7507 15.7913 18.7507 10.6215C18.7507 5.45161 14.546 1.24561 9.37614 1.24561Z" fill="#F8F8F8"/>
</g>
<path fill-rule="evenodd" clip-rule="evenodd" d="M10.2923 9.99643V5.66244C10.2923 5.15718 9.88034 4.74658 9.37508 4.74658C8.86983 4.74658 8.45923 5.15718 8.45923 5.66244V9.99643H4.41719C3.91194 9.99643 3.5 10.4084 3.5 10.9123C3.5 11.4189 3.91194 11.8295 4.41719 11.8295H8.45923V15.5796C8.45923 16.0848 8.86983 16.4967 9.37508 16.4967C9.88034 16.4967 10.2923 16.0848 10.2923 15.5796V11.8295H14.3343C14.8396 11.8295 15.2502 11.4189 15.2502 10.9123C15.2502 10.4084 14.8396 9.99643 14.3343 9.99643H10.2923Z" fill="#F8F8F8"/>
</svg>
