<svg width="20" height="20" viewBox="0 0 20 20" fill="none" xmlns="http://www.w3.org/2000/svg">
<path fill-rule="evenodd" clip-rule="evenodd" d="M11.8833 7.13915H15.9293V5.84814H11.8833V7.13915Z" fill="white"/>
<path fill-rule="evenodd" clip-rule="evenodd" d="M11.8833 11.54H15.9293V10.2495H11.8833V11.54Z" fill="white"/>
<mask id="mask0" mask-type="alpha" maskUnits="userSpaceOnUse" x="0" y="0" width="20" height="20">
<path fill-rule="evenodd" clip-rule="evenodd" d="M19.2952 19.9999V0H0.399902L0.399902 19.9999H19.2952Z" fill="white"/>
</mask>
<g mask="url(#mask0)">
<path fill-rule="evenodd" clip-rule="evenodd" d="M18.0042 15.511C18.0042 18.465 16.8007 18.709 15.4592 18.709H14.8457H10.6172H4.06419C3.79919 18.67 1.97069 18.303 1.71869 15.585H12.4457C12.7017 16.7995 13.4442 18.325 15.0432 18.325C15.3997 18.325 15.6882 18.036 15.6882 17.6795C15.6882 17.3235 15.3997 17.034 15.0432 17.034C13.8877 17.034 13.6422 14.8985 13.6402 14.8785C13.6082 14.5475 13.3302 14.2945 12.9977 14.2945H4.48719V2.15148C4.48719 1.67698 4.87369 1.29098 5.34819 1.29098H17.1437C17.6182 1.29098 18.0042 1.67698 18.0042 2.15148V15.511ZM17.1439 0H5.3484C4.1619 0 3.1969 0.9655 3.1969 2.1515V14.2945H1.0449C0.688402 14.2945 0.399902 14.5835 0.399902 14.94C0.399902 19.558 3.9184 19.9925 3.9539 19.9965C3.9774 19.999 4.0004 20 4.0234 20H5.3484H14.8459H15.4594C18.0764 20 19.2954 18.5735 19.2954 15.511V2.1515C19.2954 0.9655 18.3299 0 17.1439 0Z" fill="white"/>
</g>
<path fill-rule="evenodd" clip-rule="evenodd" d="M8.30483 6.40544L7.06683 5.48844L6.29883 6.52544L8.42983 8.10494L11.3078 5.22744L10.3953 4.31494L8.30483 6.40544Z" fill="white"/>
<path fill-rule="evenodd" clip-rule="evenodd" d="M8.30435 10.7482L7.06685 9.83073L6.29785 10.8677L8.42935 12.4477L11.3074 9.57023L10.3949 8.65723L8.30435 10.7482Z" fill="white"/>
</svg>
