<svg xmlns="http://www.w3.org/2000/svg" width="81" height="81" viewBox="0 0 81 81">
  <g fill="#5E5E5E" fill-rule="evenodd">
    <path d="M68.6525563,42.9614406 C68.6274876,42.9801476 68.4144035,43.1609824 68.3391974,43.7346653 L65.7445849,43.4478239 L68.2389225,20.8684144 L68.8907092,42.9614406 L68.6901594,42.9364978 L68.6525563,42.9614406 Z M67.631006,49.4465513 C67.4805937,51.1613642 67.2863112,52.9946551 67.1672347,53.2814966 C67.1233645,53.3438534 66.8100055,53.8302367 66.4527763,54.3540341 C66.1832875,54.7531178 65.8949973,55.1771443 65.6693788,55.4452787 L66.791204,46.0543395 L67.8942276,46.1416391 C67.8628917,46.5344871 67.7563496,47.956223 67.631006,49.4465513 L67.631006,49.4465513 Z M66.3336998,57.546704 L66.7347993,56.8981929 L66.7598681,57.5778824 L66.3336998,57.546704 Z M63.8581638,45.6427844 L64.8358439,45.8049122 L63.6012095,56.9854925 L62.5608576,56.7423008 L63.8581638,45.6427844 Z M62.4480484,63.6389667 L61.4641012,64.6242046 L16.6161627,55.5388139 C16.3278725,55.18338 16.2589335,54.7468822 16.2589335,54.3976839 C16.2589335,54.2106134 16.2840022,54.0547213 16.2965366,53.9674217 L61.5393073,62.7534996 L61.5581089,62.7472639 C61.6270478,62.7410283 61.6834524,62.7347926 61.7335899,62.7347926 C62.3853766,62.7347926 62.4417812,63.2835327 62.4480484,63.5641385 L62.4480484,63.6264953 L62.4480484,63.6389667 Z M22.9961517,49.8518707 C22.4195712,50.1262408 17.9322705,52.2650802 16.5033535,52.8637058 L16.3216053,51.1925426 C16.660033,51.0553576 18.0826828,50.5003818 19.5429357,49.9391703 C20.3764706,49.6211504 21.2225399,49.2968949 21.8868609,49.0599389 C22.3757009,48.8728684 22.7893348,48.7356834 22.9773502,48.6795622 L22.9961517,49.8518707 Z M14.9741616,49.3717231 L19.0979659,19.9580046 C19.135569,19.9580046 19.1669049,19.9517689 19.1982408,19.9455332 L23.3157779,38.147493 C23.2092358,38.1973785 23.0964266,38.265971 22.9898846,38.3532706 L22.9397471,38.384449 L22.9460143,46.341181 C22.7579989,46.4658946 21.9996701,46.9647493 20.9217152,47.5072538 C19.6745465,48.1308221 17.9949423,48.8167473 16.2965366,49.0661746 C16.2965366,49.0661746 15.6698186,49.1597098 14.9741616,49.3717231 L14.9741616,49.3717231 Z M25.0517867,40.7976584 L25.13326,50.0389412 L24.6632216,49.9516416 L24.6381528,40.7290659 L25.0517867,40.7976584 Z M26.562177,41.0470858 L27.1575591,41.1032069 L27.188895,50.4629677 L26.4242991,50.3257826 L26.562177,41.0470858 Z M28.6240792,41.2653347 L29.2695987,41.3027488 L29.2758659,50.8682871 L28.4611325,50.7435734 L28.6240792,41.2653347 Z M30.779989,41.514762 L31.4693788,41.5708832 L31.3565695,51.2548995 L30.6170423,51.0990074 L30.779989,41.514762 Z M32.8544255,46.7215576 C32.873227,45.474421 32.8982958,44.2397557 32.9358988,43.2981675 C32.9484332,42.8304912 32.9672347,42.4376432 32.9923035,42.1632731 C33.0048378,42.0260881 33.011105,41.9200814 33.0173722,41.8452532 C33.0236394,41.8265462 33.0236394,41.8203105 33.0299065,41.8078391 L33.7568994,41.8514889 L33.5187466,51.6789259 L32.8168224,51.5666836 C32.8230896,51.1052431 32.8293568,48.9165182 32.8544255,46.7215576 L32.8544255,46.7215576 Z M35.2484882,42.0884449 L36.0318857,42.1695088 L35.7498626,52.1403665 L34.9539307,51.9221176 L35.2484882,42.0884449 Z M37.5986806,42.3316365 L38.4196811,42.3939934 L38.0812534,52.4521507 L37.091039,52.3149656 L37.5986806,42.3316365 Z M39.9300715,42.6060066 L40.8012095,42.6434207 L40.4189115,52.9011199 L39.4788345,52.7140494 L39.9300715,42.6060066 Z M42.3930731,42.9302622 L43.2579439,42.9863833 L42.7503024,53.3189107 L41.8603628,53.1131331 L42.3930731,42.9302622 Z M44.8247389,43.2981675 L45.7961517,43.3355816 L45.2383727,53.6930517 L44.235624,53.4872741 L44.8247389,43.2981675 Z M47.3629467,43.6411301 L48.3970313,43.6598371 L47.7201759,54.1233138 L46.780099,53.9798931 L47.3629467,43.6411301 Z M49.919956,43.8531433 L51.0104453,43.977857 L50.302254,54.5660473 L49.186696,54.3789768 L49.919956,43.8531433 Z M52.5960418,44.2023416 L53.6175921,44.370705 L52.8592633,54.9900738 L51.7687741,54.8217104 L52.5960418,44.2023416 Z M55.2595932,44.5702469 L56.3751512,44.6949605 L55.4914788,55.6011708 L54.382188,55.3517434 L55.2595932,44.5702469 Z M58.11116,44.9194452 L59.33326,45.0628659 L58.2114349,55.9877832 L57.0206707,55.8194197 L58.11116,44.9194452 Z M60.9251237,45.2624077 L62.1158879,45.3684144 L61.0442001,56.4305167 L59.8032985,56.2185034 L60.9251237,45.2624077 Z M69.9561297,43.2669891 C69.9247938,43.1796895 69.8370533,43.0736829 69.7054426,43.0736829 L69.5487631,43.0487401 L68.8468389,19.4466785 C69.0160528,19.2970221 69.1163277,19.0787732 69.1163277,18.8355816 C69.1163277,18.374141 68.7402969,18 68.2639912,18 C67.8002199,18 67.4241891,18.374141 67.4241891,18.8418173 C67.4241891,19.0974803 67.5432655,19.3282006 67.7312809,19.4840926 L65.0990654,43.3729957 L24.6130841,38.8645966 C24.6068169,38.7523543 24.5880154,38.5652838 24.5190764,38.3906847 C24.4376031,38.1724357 24.2558549,37.9479511 23.9362287,37.9479511 L19.7810885,19.5464495 C19.8562947,19.4155001 19.9001649,19.2720794 19.9001649,19.1161873 C19.9001649,18.6547468 19.517867,18.2806058 19.0540957,18.2806058 C18.5903244,18.2806058 18.2080264,18.6547468 18.2080264,19.122423 C18.2080264,19.359379 18.3083013,19.5776279 18.4712479,19.7210486 L14.2973062,49.4403156 L14.6357339,49.4839654 C13.8460693,49.7708068 13.0188015,50.2073047 13,50.949351 C13,51.1987783 13.1065421,51.460677 13.3196262,51.7350471 L13.3321605,51.7599898 L13.3697636,51.7724612 C13.3760308,51.7724612 13.8335349,51.9158819 14.2409016,51.9221176 C14.3662452,51.9158819 14.4790544,51.9096462 14.5855965,51.8659964 C14.6357339,52.4272079 14.8049478,54.3602698 15.0242991,56.661237 L63.9083013,67 L63.9083013,66.9688216 L65.1680044,65.0669382 L68.2326553,58.6317129 L68.2326553,57.920845 L69.9937328,43.7284296 C69.9937328,43.7284296 70,43.6536014 70,43.5538305 C70,43.4665309 69.9937328,43.3605243 69.9561297,43.2669891 L69.9561297,43.2669891 Z"/>
    <path d="M1.48757424,79.5630666 L79.5567365,79.5060957 L79.4997656,1.43693342 L1.43060331,1.49390435 L1.48757424,79.5630666 Z M81,80.9430291 L0.0506408253,81 L0,0.0506408253 L80.9430291,0 L81,80.9430291 Z"/>
  </g>
</svg>
