<svg width="80" height="81" viewBox="0 0 80 81" fill="none" xmlns="http://www.w3.org/2000/svg">
<path fill-rule="evenodd" clip-rule="evenodd" d="M13.4135 10.4558V15.8097C13.4135 15.9479 13.4171 16.0861 13.4219 16.223L13.4316 16.5976C13.5201 23.7515 14.8159 30.8448 17.2838 37.6836L17.411 38.0533C17.4619 38.2 17.5116 38.3467 17.5674 38.4933C17.9553 39.5285 18.3189 40.4424 18.6825 41.2885C19.9892 44.3467 21.5468 47.3442 23.3128 50.1964C27.7832 57.4097 33.5153 63.663 40.3625 68.7976C48.3129 62.84 54.7032 55.4618 59.3662 46.857C60.6195 44.5467 61.7322 42.1758 62.6765 39.8109C62.7613 39.6 62.8341 39.3976 62.9092 39.1952L63.1601 38.5079C63.1613 38.5042 63.1625 38.5006 63.1638 38.497C64.6389 34.5612 65.7383 30.4473 66.4341 26.2679C67.0183 22.7576 67.3141 19.2388 67.3141 15.8097V10.4558H13.4135ZM40.3638 71.823C40.0874 71.823 39.8098 71.7382 39.5747 71.5673C32.0959 66.1212 25.8559 59.4109 21.0304 51.623C19.1928 48.6545 17.5722 45.5358 16.2122 42.3551C15.8341 41.4715 15.4535 40.5188 15.051 39.4461C14.9868 39.2752 14.9274 39.1018 14.868 38.9285L14.7553 38.6036C12.1856 31.4812 10.8353 24.0873 10.7432 16.6327L10.7359 16.3091C10.7298 16.1418 10.725 15.977 10.725 15.8097V9.10545C10.725 8.36 11.3274 7.75515 12.0692 7.75515H68.6583C69.4001 7.75515 70.0025 8.36 70.0025 9.10545V15.8097C70.0025 19.3867 69.6947 23.0558 69.0862 26.7127C68.3625 31.0618 67.2171 35.3442 65.6825 39.4412L65.4328 40.1273C65.3492 40.3552 65.2644 40.5855 65.171 40.8194C64.1892 43.2776 63.0304 45.7455 61.7274 48.1491C56.7177 57.3927 49.7965 65.2715 41.1541 71.5661C40.9177 71.737 40.6401 71.823 40.3638 71.823ZM6.68861 3.70061V15.8097C6.68861 15.9418 6.69346 16.0739 6.69709 16.2061L6.70679 16.6024C6.78679 23.7697 7.95285 30.8776 10.1747 37.7261C10.525 38.8036 10.8935 39.863 11.2741 40.8739C11.691 41.9891 12.0935 42.9964 12.5032 43.9564C13.9419 47.3224 15.6583 50.6218 17.6038 53.7649C23.1444 62.7067 30.4207 70.28 39.2304 76.2752L40.3625 77.0461L41.4947 76.2764C48.4607 71.5358 54.5092 65.7745 59.4728 59.1515C63.3504 53.9794 66.5274 48.32 68.9153 42.3297C69.045 42.0061 69.1638 41.6812 69.2825 41.3576L69.4547 40.8848C69.8789 39.7539 70.285 38.56 70.7383 37.1164C72.9286 30.1479 74.0389 22.9806 74.0389 15.8097V3.70061H6.68861ZM40.3638 80.0267C40.1007 80.0267 39.8377 79.9503 39.611 79.7952L37.7238 78.5115C28.5989 72.3018 21.0607 64.457 15.3201 55.1915C13.3044 51.9321 11.525 48.5115 10.0328 45.0218C9.60618 44.0242 9.18921 42.9782 8.75891 41.8255C8.36376 40.7782 7.98073 39.6788 7.61952 38.5624C5.31285 31.4533 4.10194 24.0739 4.0183 16.6303L4.00982 16.2921C4.00497 16.1321 4.00012 15.9709 4.00012 15.8097V2.3503C4.00012 1.60485 4.60133 1 5.34436 1H75.3832C76.125 1 76.7274 1.60485 76.7274 2.3503V15.8097C76.7274 23.2558 75.5747 30.697 73.3032 37.9285C72.8341 39.4194 72.4122 40.6582 71.9747 41.8267L71.8062 42.2885C71.6777 42.6376 71.5492 42.9879 71.411 43.3345C68.9335 49.5455 65.6401 55.4133 61.6207 60.7758C56.4777 67.6376 50.2147 73.6036 43.0038 78.5115L41.1177 79.7939C40.891 79.9503 40.628 80.0267 40.3638 80.0267Z" fill="#F8F8F8"/>
</svg>
