<?xml version="1.0" encoding="UTF-8"?>
<svg width="41px" height="49px" viewBox="0 0 41 49" version="1.1" xmlns="http://www.w3.org/2000/svg" xmlns:xlink="http://www.w3.org/1999/xlink">
    <title>Group</title>
    <defs>
        <polygon id="path-1" points="0 0 41 0 41 49 0 49"></polygon>
    </defs>
    <g id="Symbols" stroke="none" stroke-width="1" fill="none" fill-rule="evenodd">
        <g id="lifestyle-/-aviation-copy" transform="translate(-5.000000, 0.000000)">
            <g id="Group" transform="translate(5.000000, 0.000000)">
                <mask id="mask-2" fill="white">
                    <use xlink:href="#path-1"></use>
                </mask>
                <g id="Clip-2"></g>
                <path d="M9.57511442,9.63781671 L9.57511442,4.27341571 C7.79465502,6.02046009 5.96321845,7.81746181 4.10797444,9.63781671 L9.57511442,9.63781671 Z M38.587367,46.5982925 L38.587367,2.40489153 L11.9769531,2.40489153 L11.9769531,2.68496697 C11.9770073,5.32176154 11.976465,7.9586103 11.9773327,10.5954049 C11.9776039,11.4703087 11.4208138,12.0306222 10.5382035,12.0312724 C7.90810637,12.0331688 5.27806344,12.0325728 2.64796628,12.0337106 C2.56992781,12.0337648 2.49188934,12.0419466 2.40273351,12.0469856 L2.40273351,46.5982925 L38.587367,46.5982925 Z M40.9901819,24.502188 C40.990453,31.6172095 40.9903988,38.7321768 40.9906157,45.8471983 C40.9906157,46.3889268 40.9965269,46.9307094 40.9928934,47.4724378 C40.9868738,48.3553609 40.3505809,48.9903936 39.4725261,48.9903394 C31.6916729,48.9897434 23.9108197,48.9874677 16.1300207,48.9871967 C11.2861581,48.9870342 6.44229549,48.9793401 1.59854136,49 C0.721462689,49.0037228 -0.00675176494,48.3479919 -1.98335838e-05,47.4086636 C0.0145610352,45.4043009 0.00393175067,43.3997757 0.00393175067,41.3953047 C0.00398598171,35.8256017 0.00431136797,30.2558988 0.00436559902,24.6861958 C0.0044740611,20.2087275 0.00436559902,15.7312049 0.00441983006,11.2537366 C0.00441983006,10.6462834 0.233003679,10.1206475 0.650257329,9.69904427 C3.59153221,6.72717782 6.54495485,3.76734015 9.48726013,0.796503186 C10.017694,0.260897515 10.6245936,0.00265809909 11.3894682,0.00352503796 C20.7155808,0.0142534065 30.0416391,0.0170167741 39.3676975,-7.10542736e-15 C40.2597982,-0.00162241159 41.0015161,0.636390414 41,1.61337634 C40.9885007,9.10757522 40.9914834,16.6017199 40.9899649,24.0959188 C40.9899107,24.231378 40.9899649,24.366783 40.9901819,24.502188 L40.9901819,24.502188 Z" id="Fill-1" fill="#999999" mask="url(#mask-2)"></path>
                <path d="M13.5428206,37.9732418 C14.2901906,38.7155284 14.9876952,39.3992658 15.6742773,40.0937833 C16.0676891,40.4917744 16.1015282,41.0069148 15.789116,41.4631996 C15.469252,41.9304687 14.9077675,42.1254281 14.4321312,41.9165211 C14.2962643,41.856848 14.168921,41.7591639 14.0625549,41.6538164 C13.3806173,40.9781001 12.7055701,40.2954355 11.9777992,39.5643887 C11.6493095,39.9101658 11.3386327,40.2437324 11.0207082,40.5701464 C10.670731,40.9294624 10.3140165,41.2820855 9.9604155,41.6378252 C9.48518757,42.1159254 8.80998723,42.1208811 8.35369491,41.6493715 C7.87759931,41.1573749 7.88331572,40.5231436 8.36528086,40.0452478 C9.04134887,39.3748959 9.71573258,38.7027559 10.4305905,37.9918386 C10.19683,37.7687796 9.97445134,37.5631935 9.75957543,37.350046 C9.28245904,36.8769526 8.80682279,36.4023776 8.33491241,35.9241241 C7.88045751,35.4635478 7.8904102,34.8354474 8.35313348,34.3587266 C8.79528788,33.9031571 9.44537683,33.8733716 9.89722872,34.3160664 C10.595652,35.0003148 11.2775385,35.701525 12.0075041,36.4369145 C12.4617549,35.9693388 12.9020208,35.5135649 13.3454001,35.0609075 C13.5953401,34.8057641 13.8446166,34.5494455 14.1046624,34.3048777 C14.5530436,33.883232 15.1819001,33.9056605 15.6348239,34.3493771 C16.0797854,34.785277 16.1317946,35.4137861 15.7152109,35.8565832 C15.1270328,36.4817204 14.5111913,37.0808017 13.9028015,37.686678 C13.8012331,37.7878873 13.6777177,37.8669746 13.5428206,37.9732418" id="Fill-4" fill="#999999" mask="url(#mask-2)"></path>
                <path d="M26.0026333,28.9999105 C23.7307142,28.999865 21.4587951,29.0002287 19.186876,28.9996377 C18.4769919,28.9994559 18.0074952,28.6079179 18,28.0131784 C17.9926724,27.4150749 18.4773141,27.0004892 19.1887557,27.0003983 C23.7325402,26.9999437 28.276271,26.9996709 32.8200017,27.0007619 C33.4728502,27.0009438 33.8937431,27.3254298 33.9884802,27.8910756 C34.0694686,28.3745316 33.7160304,28.8400313 33.161034,28.9688165 C33.0516888,28.9941826 32.9328378,28.9986831 32.8183369,28.9987285 C30.5464178,29.0004105 28.2745524,28.9999559 26.0026333,28.9999105" id="Fill-6" fill="#999999" mask="url(#mask-2)"></path>
                <path d="M26.0027481,17.9990266 C23.7294617,17.9990266 21.456229,17.9997532 19.1829426,17.9984817 C18.6350832,17.9981638 18.2496857,17.7786445 18.0814772,17.3802947 C17.9037088,16.9592845 18.0175128,16.4743348 18.4162294,16.2269329 C18.6120968,16.1054116 18.8852478,16.0105016 19.1237581,16.0098658 C23.7062068,15.9972868 28.2886555,15.9995574 32.8711042,16.0016009 C33.5249801,16.0019188 33.9948041,16.4241097 34,16.9983384 C34.0050083,17.5638934 33.5326064,17.9955754 32.8763137,17.9970739 C30.5851431,18.0022054 28.2939187,17.9990266 26.0027481,17.9990266" id="Fill-8" fill="#999999" mask="url(#mask-2)"></path>
                <path d="M25.9718887,38.9950917 C23.6783907,38.9950917 21.3849465,38.9950917 19.0914486,38.9950917 C18.441755,38.9950917 17.8981931,38.4432511 18.0162068,37.9033873 C18.1605652,37.2433472 18.5017027,36.9997733 19.2967225,37 C23.3642431,37.0013158 27.4318175,37.0043554 31.4993919,37.0061247 C31.9202626,37.0063061 32.3411333,36.9989567 32.762004,37.0008621 C33.5190658,37.0042193 34.0197772,37.3897001 33.9994004,37.9950734 C33.9810128,38.5421959 33.6360042,39.002305 32.7454982,39 C30.4876463,38.9940483 28.2297944,38.9979952 25.9718887,38.9979952 L25.9718887,38.9950917 Z" id="Fill-10" fill="#999999" mask="url(#mask-2)"></path>
                <path d="M11.0061432,17.6032951 C11.48958,16.8700423 11.9553144,16.1627079 12.4219981,15.4560693 C12.8471343,14.8122263 13.2665186,14.1640925 13.7014833,13.5275554 C13.9848329,13.1128611 14.3988004,12.9383903 14.8715711,13.0192765 C15.3828179,13.1067729 15.7899725,13.3777273 15.9572236,13.9294934 C16.0712001,14.305397 15.9429836,14.6283623 15.7427289,14.9328309 C15.22439,15.7209935 14.7057719,16.5089823 14.1865395,17.2964491 C13.5153012,18.3145143 12.8460174,19.3340291 12.1704792,20.3490211 C11.8244173,20.8690125 11.2241561,21.1222242 10.7206715,20.942419 C10.5447088,20.8795654 10.359141,20.7658608 10.2411996,20.6202075 C9.2428304,19.3873154 8.25172082,18.1478712 7.27513054,16.8963086 C6.9411867,16.4682782 6.91778829,15.9717699 7.16936304,15.4867423 C7.4136223,15.0158625 7.77409178,14.7127275 8.32655105,14.7345871 C8.64206655,14.7470534 8.86633385,14.9225679 9.05569899,15.1576889 C9.61597634,15.8532527 10.1717862,16.5527594 10.7291039,17.2509325 C10.8119197,17.354722 10.8933395,17.4597292 11.0061432,17.6032951" id="Fill-12" fill="#999999" mask="url(#mask-2)"></path>
                <path d="M11.0013856,27.5900859 C11.4953954,26.8429079 11.9792159,26.1112792 12.4629805,25.3795924 C12.8685343,24.766324 13.2647947,24.1461512 13.6818814,23.5414116 C14.23154,22.7445107 15.4373964,22.8477858 15.8818037,23.7165151 C16.0860922,24.1158649 16.0068737,24.4998394 15.7868535,24.8402991 C14.8754771,26.2502944 13.9474172,27.6487438 13.024284,29.0505584 C12.7249333,29.5051429 12.4295576,29.9628605 12.1184501,30.4087421 C11.7818696,30.8912341 11.1365329,31.1258078 10.6629576,30.9319639 C10.5044646,30.8670979 10.3415489,30.7595873 10.2331623,30.6258519 C9.2497335,29.4127755 8.27425452,28.1926787 7.30431803,26.9680564 C6.77201465,26.295956 6.96113127,25.3081122 7.69134088,24.8772577 C8.15590267,24.6031725 8.64778504,24.6802807 8.99897762,25.1096847 C9.61979296,25.8685247 10.2282357,26.6382143 10.8422208,27.4029723 C10.8882963,27.4603538 10.937395,27.5150664 11.0013856,27.5900859" id="Fill-14" fill="#999999" mask="url(#mask-2)"></path>
            </g>
        </g>
    </g>
</svg>