<svg xmlns="http://www.w3.org/2000/svg" width="134" height="335" viewBox="0 0 134 335">
  <path fill="#FFF" d="M54.0530936,325.827728 C55.8201909,324.344958 58.5524686,324.583376 60.0345664,326.349672 C61.5166642,328.115967 61.2770056,330.848136 59.5099083,332.330907 C57.742811,333.813677 55.0105333,333.575259 53.5284355,331.808964 C52.0463377,330.042668 52.2859963,327.310499 54.0530936,325.827728 Z M34.428249,301.820527 C39.8335182,297.284968 45.4870949,297.300101 48.8399211,301.295843 C51.3868129,304.331111 51.1558504,307.383082 50.5820536,310.133809 L50.4020646,310.949672 L50.4020646,310.949672 L50.0388168,312.519543 L50.0388168,312.519543 L49.9326381,313.022434 C49.5841545,314.763382 49.505174,316.299595 50.5309085,317.522018 C51.0633673,318.156577 51.9121679,318.58808 52.6573258,318.650656 L52.841213,318.658519 L49.3857294,323.900929 C47.6766083,323.651081 46.0561838,322.74108 44.7943675,321.237306 C42.8192388,318.883439 42.9800824,316.378664 43.4702946,314.073811 L43.588445,313.54563 L43.588445,313.54563 L43.7768032,312.768764 L43.7768032,312.768764 L43.9637192,312.013257 L43.9637192,312.013257 L44.0793055,311.523048 C44.4457083,309.908303 44.5958513,308.491697 43.7074296,307.432918 C42.5898209,306.101004 40.6468401,305.827739 38.342268,307.761505 C36.3277819,309.451859 35.4231848,311.835524 35.419727,314.436773 L35.4236242,314.749936 L28.7488956,313.688033 C28.6983958,309.117793 30.8247363,304.844234 34.428249,301.820527 Z M106.500594,298.914558 C111.79668,295.978889 118.717718,297.961765 121.652054,303.255448 C124.586391,308.549131 122.600374,315.469268 117.304287,318.404936 C112.008201,321.340605 105.087164,319.357729 102.152827,314.064046 C99.2184907,308.770363 101.204508,301.850226 106.500594,298.914558 Z M71.9191434,235.629009 C87.0670876,227.232367 100.726992,229.99784 106.99842,241.311796 C111.42888,249.304559 110.044793,256.172755 107.698262,262.241172 L107.380114,263.045583 L107.380114,263.045583 L107.053115,263.840687 L107.053115,263.840687 L106.551612,265.016264 L106.551612,265.016264 L105.048378,268.425425 L105.048378,268.425425 L104.730986,269.160165 L104.730986,269.160165 L104.42519,269.886965 L104.42519,269.886965 L104.133546,270.605997 C102.573104,274.539625 101.770766,278.12854 103.640056,281.500829 C104.674055,283.366213 106.63274,284.865092 108.465193,285.320249 L108.703406,285.373643 L97.9444655,296.426545 C93.9275227,294.995365 90.4279356,292.005129 88.0677207,287.747189 C84.7386479,281.741383 85.6584271,276.275355 87.5138615,271.333971 L87.7916832,270.614585 C87.8389718,270.495311 87.8867209,270.376349 87.9348824,270.257698 L88.2284154,269.549528 L88.2284154,269.549528 L88.5295383,268.848822 L88.5295383,268.848822 L88.8359436,268.15557 L88.8359436,268.15557 L89.6099244,266.454979 L89.6099244,266.454979 L90.2182677,265.12789 L90.2182677,265.12789 L90.6560868,264.151991 L90.6560868,264.151991 L90.9348596,263.510618 C91.0711439,263.191775 91.2024867,262.875696 91.32759,262.562374 L91.5690927,261.939404 C92.6924282,258.946141 93.1518613,256.210184 91.7749546,253.726179 C89.6844786,249.95486 85.1129539,248.353985 78.6545281,251.933949 C72.9081531,255.119216 69.6119322,260.602493 68.4639194,267.060166 L68.3920915,267.482687 L52.744033,261.684352 C54.7192202,250.570276 61.8205139,241.226771 71.9191434,235.629009 Z M32.6022479,239.676967 C34.7699136,238.888001 37.2558708,240.046535 38.0444786,242.213217 C38.8330864,244.379899 37.673424,246.86533 35.5057583,247.654296 C33.3380926,248.443262 30.8521354,247.284728 30.0635276,245.118046 C29.2749198,242.951364 30.4345822,240.465933 32.6022479,239.676967 Z M22.3718725,210.405485 C29.0024167,207.992164 34.3098654,209.940022 36.0938669,214.841525 C37.3074995,218.175954 36.4230145,220.760986 35.1620038,222.980207 L34.8651011,223.486016 C34.8147645,223.569294 34.7640669,223.652074 34.7131061,223.734378 L34.4049673,224.22267 L34.4049673,224.22267 L33.489676,225.629526 C33.4407739,225.705616 33.3923923,225.781405 33.3446291,225.856915 L33.0662546,226.306799 C32.1683008,227.796405 31.5960781,229.191772 32.1331969,230.667494 C32.4181986,231.45053 33.0742928,232.149963 33.7574831,232.460905 L33.9154668,232.525626 L28.8753643,236.270035 C27.3547687,235.450701 26.1433067,234.041362 25.4719083,232.19671 C24.3820404,229.202322 25.5062693,226.841091 26.817419,224.791568 L27.1223875,224.323988 L27.1223875,224.323988 L27.8775108,223.197693 L27.8775108,223.197693 L28.1621084,222.761933 L28.1621084,222.761933 L28.4284293,222.333289 C29.1518847,221.128049 29.5885928,219.997929 29.1718995,218.853073 C28.5772323,217.219239 26.8448896,216.297916 24.0179134,217.326851 C21.5467803,218.22627 19.8814757,220.156792 18.9885471,222.599983 L18.8851009,222.895594 L12.9761,219.614839 C14.4917599,215.302946 17.9515097,212.014366 22.3718725,210.405485 Z M117.868567,194.174947 C121.120066,192.991499 124.849002,194.7293 126.031914,197.979323 C127.214825,201.229346 125.475332,204.957493 122.223833,206.140941 C118.972335,207.32439 115.243399,205.586589 114.060487,202.336566 C112.877575,199.086543 114.617069,195.358396 117.868567,194.174947 Z M103.312804,153.40794 C112.957232,149.897656 120.659021,152.681073 123.227983,159.739239 C125.061162,164.775857 123.544226,168.6345 121.561891,171.944146 L121.218042,172.506253 L121.218042,172.506253 L120.868304,173.058309 L120.868304,173.058309 L120.164081,174.135081 L120.164081,174.135081 L119.644476,174.921512 L119.644476,174.921512 L119.144322,175.692457 C119.090233,175.777345 119.036707,175.86199 118.983809,175.946407 L118.674517,176.450291 C117.421747,178.539378 116.646403,180.504233 117.399764,182.574076 C117.815738,183.716954 118.785989,184.734226 119.791598,185.169862 L119.980437,185.244616 L112.640451,190.666498 C110.435093,189.492372 108.681616,187.466188 107.714802,184.809889 C106.233192,180.739198 107.615833,177.472826 109.385978,174.628825 L109.74444,174.065543 L109.74444,174.065543 L110.108832,173.512846 L110.108832,173.512846 L111.193559,171.911468 L111.193559,171.911468 L111.537641,171.394317 L111.537641,171.394317 L111.865638,170.884355 C113.033423,169.026845 113.788026,167.30062 113.152691,165.555052 C112.29637,163.202331 109.783854,161.882156 105.671888,163.378789 C102.050555,164.696847 99.6126992,167.520005 98.311096,171.084053 L98.1886799,171.431249 L89.6191606,166.729004 C91.8413353,160.505456 96.8831854,155.74813 103.312804,153.40794 Z M42.556451,170.523684 C47.4336989,168.74851 53.0271027,171.355212 54.8014702,176.230247 C56.5758377,181.105282 53.9665974,186.697502 49.0893496,188.472675 C44.2121017,190.247848 38.6186979,187.641146 36.8443304,182.766111 C35.0699629,177.891077 37.6792032,172.298857 42.556451,170.523684 Z M20.5404651,109.932738 C35.007107,104.667311 46.5597902,108.842437 50.4132335,119.429685 C53.0145149,126.576647 51.1186878,132.142325 48.3890151,136.92545 L48.0030875,137.587864 L48.0030875,137.587864 L47.6085482,138.240603 L47.6085482,138.240603 L47.2076087,138.884149 L47.2076087,138.884149 L46.5990371,139.833286 L46.5990371,139.833286 L44.9868694,142.280873 L44.9868694,142.280873 L44.4076018,143.172069 C44.3445121,143.270394 44.2818929,143.368496 44.2197903,143.466386 L43.8537425,144.05126 L43.8537425,144.05126 L43.5023046,144.631521 C41.6708609,147.714808 40.5571355,150.621885 41.6709049,153.681941 C42.3050386,155.424209 43.797921,156.971874 45.3324762,157.606883 L45.5419153,157.687751 L34.5319351,165.820574 C31.2238982,164.059385 28.593683,161.02011 27.1434624,157.035661 C25.0247592,151.214572 26.8107953,146.489986 29.2826703,142.365502 L29.6679356,141.735634 L29.6679356,141.735634 L30.0614182,141.114833 L30.0614182,141.114833 L30.4605133,140.502698 L30.4605133,140.502698 L31.0639817,139.599865 L31.0639817,139.599865 L32.2560584,137.844558 L32.2560584,137.844558 L32.8270851,136.989373 L32.8270851,136.989373 L33.1925369,136.426651 C33.4313858,136.053365 33.6600848,135.683714 33.875161,135.317162 L34.187124,134.769591 C35.4407807,132.497176 36.0944642,130.335365 35.3002958,128.153406 C34.0158147,124.624323 30.2470397,122.644061 24.0790916,124.889011 C18.6022666,126.882412 14.9300767,131.170878 12.9899171,136.579482 L12.8542789,136.9677 L3.74811293e-13,129.914333 C3.333262,120.579011 10.8960371,113.443022 20.5404651,109.932738 Z M106.562724,95.5781542 C114.475183,94.1829743 122.301528,99.6603935 123.696074,107.569261 C125.090621,115.478129 119.60965,123.301987 111.697192,124.697167 C103.784734,126.092346 95.9583888,120.614927 94.5638421,112.70606 C93.1692953,104.797192 98.6502663,96.973334 106.562724,95.5781542 Z M55.6093111,85.7764319 C57.5060186,85.0860869 59.6812312,86.0998042 60.371263,87.995651 C61.0612948,89.8914978 60.0465902,92.0662501 58.1498827,92.7565952 C56.2531752,93.4469402 54.0779626,92.4332229 53.3879308,90.5373761 C52.697899,88.6415293 53.7126036,86.466777 55.6093111,85.7764319 Z M90.2512092,0.967819824 C113.449098,-3.12259383 129.715683,6.05597855 132.663247,22.7724487 C134.88438,35.3691178 129.200466,43.5949832 122.983032,50.4135446 L122.203607,51.2587494 L122.203607,51.2587494 L121.421824,52.0905811 L121.421824,52.0905811 L120.251728,53.3160675 L120.251728,53.3160675 L118.335102,55.3099008 L118.335102,55.3099008 L117.58952,56.0941602 L117.58952,56.0941602 L116.860778,56.8727639 C112.545236,61.5299912 109.311751,65.9512661 110.270185,71.3868151 C110.759806,74.1635962 112.620098,76.8714654 114.785014,78.1970473 L115.018086,78.3337247 L96.251157,87.573578 C91.7457889,84.1052785 88.6053242,78.9136254 87.4960256,72.6224808 C85.7756621,62.8658141 90.3463791,56.0784283 95.5715471,50.3858817 L96.2563389,49.6494305 L96.2563389,49.6494305 L96.945774,48.9244727 L96.945774,48.9244727 L97.9825523,47.8565644 L97.9825523,47.8565644 L100.69645,45.1013439 L100.69645,45.1013439 L101.348313,44.4285626 L101.348313,44.4285626 L101.983972,43.7603421 C105.639314,39.8738941 108.325702,36.1730564 107.560286,31.8321666 C106.577764,26.2600099 101.437828,22.3475953 91.547255,24.0915701 C82.7163866,25.6486905 76.006964,31.1223551 71.6298202,38.7195573 L71.3933811,39.1360454 L53.9430888,25.3474685 C61.4772669,12.3428506 74.7859501,3.69476226 90.2512092,0.967819824 Z M46.2466588,59.6338299 C52.2744263,57.4399019 57.0631066,59.1110221 58.633028,63.4243456 C59.821321,66.6891538 58.6658634,69.158693 57.3093962,71.2775389 L57.0055211,71.7428015 L57.0055211,71.7428015 L56.1064443,73.0801583 C56.0587603,73.1523826 56.0116714,73.2243066 55.9652865,73.2959528 L55.6962966,73.7226774 C54.9198972,74.9939353 54.4421463,76.1898288 54.8979299,77.442084 C55.1472474,78.1270783 55.7294656,78.7356608 56.3413293,79.0064037 L56.4947373,79.0668998 L51.8949686,82.4218454 C50.525444,81.7122606 49.4414143,80.4785724 48.8505837,78.8552786 C47.894451,76.2283255 48.9253943,74.1366939 50.1272983,72.3178078 L50.430285,71.8686165 L50.430285,71.8686165 L51.1775336,70.7893743 L51.1775336,70.7893743 L51.4557926,70.3727786 C52.217062,69.2031419 52.7224045,68.1209476 52.3263792,67.0328769 C51.8030721,65.5951025 50.2427242,64.7973997 47.6727458,65.7327954 C45.4337495,66.5477234 43.9101486,68.2599843 43.0767464,70.4164668 L42.9719539,70.7002291 L37.650917,67.8572479 C39.0639465,64.0339379 42.2281472,61.0964485 46.2466588,59.6338299 Z" opacity=".297" transform="translate(.851 .88)"/>
</svg>
