<svg width="30" height="30" viewBox="0 0 30 30" fill="none" xmlns="http://www.w3.org/2000/svg">
<path fill-rule="evenodd" clip-rule="evenodd" d="M15 30C23.2843 30 30 23.2843 30 15C30 6.71573 23.2843 0 15 0C6.71573 0 0 6.71573 0 15C0 23.2843 6.71573 30 15 30Z" fill="#EA5959"/>
<path fill-rule="evenodd" clip-rule="evenodd" d="M19.0833 10.2021H21.4167C21.7388 10.2021 22 10.4717 22 10.8037V21.3984C22 21.7305 21.7388 22 21.4167 22H8.58333C8.26117 22 8 21.7305 8 21.3984V10.8037C8 10.4717 8.26117 10.2021 8.58333 10.2021H10.9167V9.60156C10.9167 9.26953 11.1778 9 11.5 9C11.8222 9 12.0833 9.26953 12.0833 9.60156V10.2021H17.9167V9.60156C17.9167 9.26953 18.1778 9 18.5 9C18.8222 9 19.0833 9.26953 19.0833 9.60156V10.2021ZM9.16667 20.7969H20.8333V11.4043H19.0833V12.0059C19.0833 12.3379 18.8222 12.6064 18.5 12.6064C18.1778 12.6064 17.9167 12.3379 17.9167 12.0059V11.4043H12.0833V12.0059C12.0833 12.3379 11.8222 12.6064 11.5 12.6064C11.1778 12.6064 10.9167 12.3379 10.9167 12.0059V11.4043H9.16667V20.7969Z" fill="#F8F8F8"/>
<path d="M13.5 15C13.7761 15 14 14.7761 14 14.5C14 14.2239 13.7761 14 13.5 14C13.2239 14 13 14.2239 13 14.5C13 14.7761 13.2239 15 13.5 15Z" fill="#F8F8F8"/>
<path d="M11.5 15C11.7761 15 12 14.7761 12 14.5C12 14.2239 11.7761 14 11.5 14C11.2239 14 11 14.2239 11 14.5C11 14.7761 11.2239 15 11.5 15Z" fill="#F8F8F8"/>
<path d="M14.5 17C14.7761 17 15 16.7761 15 16.5C15 16.2239 14.7761 16 14.5 16C14.2239 16 14 16.2239 14 16.5C14 16.7761 14.2239 17 14.5 17Z" fill="#F8F8F8"/>
<path d="M13.5 17C13.7761 17 14 16.7761 14 16.5C14 16.2239 13.7761 16 13.5 16C13.2239 16 13 16.2239 13 16.5C13 16.7761 13.2239 17 13.5 17Z" fill="#F8F8F8"/>
<path d="M18.5 17C18.7761 17 19 16.7761 19 16.5C19 16.2239 18.7761 16 18.5 16C18.2239 16 18 16.2239 18 16.5C18 16.7761 18.2239 17 18.5 17Z" fill="#F8F8F8"/>
<path d="M17.5 17C17.7761 17 18 16.7761 18 16.5C18 16.2239 17.7761 16 17.5 16C17.2239 16 17 16.2239 17 16.5C17 16.7761 17.2239 17 17.5 17Z" fill="#F8F8F8"/>
<path d="M18.5 19C18.7761 19 19 18.7761 19 18.5C19 18.2239 18.7761 18 18.5 18C18.2239 18 18 18.2239 18 18.5C18 18.7761 18.2239 19 18.5 19Z" fill="#F8F8F8"/>
<path d="M17.5 19C17.7761 19 18 18.7761 18 18.5C18 18.2239 17.7761 18 17.5 18C17.2239 18 17 18.2239 17 18.5C17 18.7761 17.2239 19 17.5 19Z" fill="#F8F8F8"/>
<path d="M11.5 17C11.7761 17 12 16.7761 12 16.5C12 16.2239 11.7761 16 11.5 16C11.2239 16 11 16.2239 11 16.5C11 16.7761 11.2239 17 11.5 17Z" fill="#F8F8F8"/>
</svg>
