<?xml version="1.0" encoding="UTF-8"?>
<svg width="30px" height="30px" viewBox="0 0 30 30" version="1.1" xmlns="http://www.w3.org/2000/svg" xmlns:xlink="http://www.w3.org/1999/xlink">
    <!-- Generator: Sketch 51.2 (57519) - http://www.bohemiancoding.com/sketch -->
    <title>getotknow / feedback</title>
    <desc>Created with Sketch.</desc>
    <defs></defs>
    <g id="getotknow-/-feedback" stroke="none" stroke-width="1" fill="none" fill-rule="evenodd">
        <circle id="Oval-2" fill="#627B86" cx="15" cy="15" r="15"></circle>
        <g id="todo" transform="translate(8.000000, 7.000000)" fill="#F8F8F8" fill-rule="nonzero">
            <path d="M13.3,1 L11.2,1 L11.2,2.56097561 L12.25,2.56097561 C12.4432,2.56097561 12.6,2.73580488 12.6,2.95121951 L12.6,15.0487805 C12.6,15.2641951 12.4432,15.4390244 12.25,15.4390244 L1.75,15.4390244 C1.5568,15.4390244 1.4,15.2641951 1.4,15.0487805 L1.4,2.95121951 C1.4,2.73580488 1.5568,2.56097561 1.75,2.56097561 L2.8,2.56097561 L2.8,1 L0.7,1 C0.31325,1 0,1.34926829 0,1.7804878 L0,16.2195122 C0,16.6507317 0.31325,17 0.7,17 L13.3,17 C13.68675,17 14,16.6507317 14,16.2195122 L14,1.7804878 C14,1.34926829 13.68675,1 13.3,1 Z" id="Shape"></path>
            <path d="M9.7,1.66666667 L8.5,1.66666667 C8.5,0.746333333 7.8283,0 7,0 C6.1717,0 5.5,0.746333333 5.5,1.66666667 L4.3,1.66666667 C4.1344,1.66666667 4,1.816 4,2 L4,3.66666667 C4,3.85066667 4.1344,4 4.3,4 L9.7,4 C9.8656,4 10,3.85066667 10,3.66666667 L10,2 C10,1.816 9.8656,1.66666667 9.7,1.66666667 Z M7,2.33333333 C6.6685,2.33333333 6.4,2.035 6.4,1.66666667 C6.4,1.29833333 6.6685,1 7,1 C7.3315,1 7.6,1.29833333 7.6,1.66666667 C7.6,2.035 7.3315,2.33333333 7,2.33333333 Z" id="Shape"></path>
            <path d="M5.87501953,12 C5.79502203,12 5.71502453,11.9643644 5.65408893,11.893457 L4.09163776,10.0753165 C3.96945408,9.93313788 3.96945408,9.70332492 4.09163776,9.56114634 C4.21382144,9.41896775 4.41131527,9.41896775 4.53349895,9.56114634 L5.87501953,11.1222018 L8.46650105,8.10663394 C8.58868473,7.96445535 8.78617856,7.96445535 8.90836224,8.10663394 C9.03054592,8.24881253 9.03054592,8.47862549 8.90836224,8.62080407 L6.09595013,11.893457 C6.03501453,11.9643644 5.95501703,12 5.87501953,12 Z" id="Shape"></path>
        </g>
    </g>
</svg>