<svg width="20" height="20" viewBox="0 0 20 20" fill="none" xmlns="http://www.w3.org/2000/svg">
<path fill-rule="evenodd" clip-rule="evenodd" d="M19.2067 6.10346C18.6827 4.90079 17.9613 3.83412 17.0613 2.93546C16.16 2.03412 15.0947 1.31279 13.8933 0.791458C11.4747 -0.263209 8.52533 -0.263209 6.10667 0.791458C4.90533 1.31279 3.84 2.03412 2.93867 2.93546C2.03867 3.83412 1.31733 4.90079 0.793333 6.10346C0.266667 7.31146 0 8.62346 0 9.99679C0 11.3701 0.266667 12.6821 0.793333 13.8901C1.316 15.0901 2.03867 16.1568 2.93867 17.0581C3.84 17.9595 4.90533 18.6808 6.10667 19.2021C7.316 19.7301 8.62533 19.9968 10 19.9968C11.3747 19.9968 12.684 19.7301 13.8933 19.2021C15.0947 18.6808 16.16 17.9595 17.0613 17.0581C17.9613 16.1568 18.684 15.0901 19.2067 13.8901C19.7333 12.6821 20 11.3701 20 9.99679C20 8.62346 19.7333 7.31146 19.2067 6.10346Z" fill="#BD4747"/>
<path fill-rule="evenodd" clip-rule="evenodd" d="M15 15H12.4777L10 11.3418L7.50742 15H5L8.5905 9.87256L5.22255 5H7.72997L10 8.41829L12.2404 5H14.7774L11.4095 9.85757L15 15Z" fill="white"/>
</svg>
