<svg xmlns="http://www.w3.org/2000/svg" width="44" height="44" viewBox="0 0 44 44">
  <defs>
    <filter id="reports-a">
      <feColorMatrix in="SourceGraphic" values="0 0 0 0 1.000000 0 0 0 0 1.000000 0 0 0 0 1.000000 0 0 0 1.000000 0"/>
    </filter>
  </defs>
  <g fill="none" fill-rule="evenodd" filter="url(#reports-a)" transform="translate(-8 -8)">
    <g fill="#FFF" fill-rule="nonzero" transform="translate(8 8)">
      <path d="M0.916666667,0 C1.38676619,0 1.7742149,0.377461519 1.82716625,0.863748233 L1.83333333,0.977777778 L1.83333333,42.0444444 L43.0833333,42.0444444 C43.5895944,42.0444444 44,42.4822105 44,43.0222222 C44,43.5236617 43.6461298,43.9369403 43.190236,43.9934218 L43.0833333,44 L0.916666667,44 C0.446567147,44 0.059118436,43.6225385 0.00616708704,43.1362518 L0,43.0222222 L0,0.977777778 C0,0.437766022 0.410405646,0 0.916666667,0 Z"/>
      <path d="M41.3268502,39.3111111 L4.68328423,39.3111111 C4.32424963,39.3106263 4.02765973,38.9697678 4.00661865,38.5334474 C3.98557757,38.097127 4.24736804,37.7163637 4.60388984,37.6647415 C15.776106,36.0646322 18.9925968,28.2334313 22.3943411,19.942106 C25.8150859,11.6226941 29.3477971,3.02159027 41.2474558,1.31739538 C41.4399847,1.2880778 41.6334582,1.36226375 41.7774304,1.52061008 C41.9223195,1.67723951 42.0054348,1.90180118 42.0054348,2.13768889 L42.0054348,38.4850351 C42.0054348,38.9412643 41.7016221,39.3111111 41.3268502,39.3111111 Z"/>
    </g>
  </g>
</svg>
