<?xml version="1.0" encoding="UTF-8"?>
<svg width="50px" height="50px" viewBox="0 0 50 50" version="1.1" xmlns="http://www.w3.org/2000/svg" xmlns:xlink="http://www.w3.org/1999/xlink">
    <title>Health History / Urinary / Reproductive active</title>
    <g id="Health-History-/-Urinary-/-Reproductive-active" stroke="none" stroke-width="1" fill="none" fill-rule="evenodd">
        <g id="Group-15-Copy" transform="translate(3.000000, 0.000000)">
            <path d="M17.2267953,16.1654135 C16.1421884,16.180257 15.1574643,16.2579901 14.1907074,16.4861113 C9.96723193,17.4835554 6.95355486,19.9571465 5.35620362,24.0572726 C4.12940386,27.2058524 4.2358553,30.4108764 5.34770296,33.5651201 C6.91317672,38.0066468 9.87913418,41.2091319 14.0755621,43.2229651 C17.1170595,44.6825108 20.3179443,45.1358235 23.620837,44.3672817 C27.3468307,43.4999135 30.1468321,41.3575668 31.8684089,37.8820395 C33.3357387,34.9195895 33.514639,31.8010874 32.7178953,28.6218441 C31.7965397,24.9467108 29.7743487,21.9823076 26.8340864,19.661253 C23.9892634,17.4155878 20.7576603,16.2226391 17.2267953,16.1654135 L17.2267953,16.1654135 Z M10.0487057,49.9957053 C10.2180132,49.0256784 10.3774071,48.0880574 10.548464,47.152779 C10.5811203,46.9749375 10.5472977,46.8786961 10.3836274,46.7787457 C6.96346142,44.6870095 4.19544988,41.9573083 2.30293863,38.3832992 C1.01670743,35.9540351 0.278052663,33.3623514 0.0659809934,30.619766 C-0.252612469,26.4983721 0.595285446,22.6018667 2.3338455,18.8826172 C3.71998948,15.9169002 5.58178824,13.2754366 7.84187744,10.9225017 C8.73079013,9.99678887 9.69531774,9.14467234 10.625634,8.25917391 C10.6699533,8.21700732 10.716022,8.17679289 10.7720043,8.12584159 C10.4446636,7.98762887 10.1243207,7.87049945 9.81991714,7.72076901 C8.43124618,7.03868535 7.33998096,6.05284605 6.79279329,4.56608327 C6.22461227,3.02270794 6.47478298,1.5427777 7.23812436,0.126097356 C7.26961438,0.0675326456 7.36311252,0.0351268391 7.43445102,0.00877271939 C7.4822692,-0.00879669374 7.54194473,0.00545405247 7.59637192,0.00545405247 L43.6574974,0.00545405247 L44,0.00545405247 C43.9325492,0.545420683 43.8794826,1.06215664 43.8021183,1.57518351 C43.3670895,4.46359503 42.4908117,7.23390105 41.5643831,9.99112762 C40.8597453,12.0879395 40.1508312,14.18358 39.480016,16.291324 C39.0306029,17.7035143 38.7116207,19.1488914 38.542702,20.6272599 C38.3720339,22.1185126 38.4911905,23.5785309 39.0142747,24.9827174 C39.6178334,26.6018364 40.2519102,28.2100234 40.9112568,29.807083 C41.7144467,31.7518219 42.5277444,33.690509 43.0545219,35.7353935 C43.612595,37.9020925 43.8205846,40.0951457 43.5395071,42.3227521 C43.2778678,44.3947716 42.6276572,46.3459525 41.6849005,48.2010873 C41.4131533,48.7355879 41.1036958,49.2505669 40.8249508,49.7813584 C40.7368954,49.9490487 40.6292073,50 40.4431829,50 C34.479712,49.9949244 28.5160467,49.9957053 22.5527702,49.9957053 L10.353498,49.9957053 L10.0487057,49.9957053 Z" id="Fill-1" fill="#FFFFFF"></path>
            <path d="M15.3072253,29.2579542 C15.9637386,29.7599482 16.6200508,30.2619422 17.2986756,30.7806492 C17.3999869,30.6294268 17.5218017,30.4534369 17.637184,30.2736212 C17.8846328,29.88741 18.2201259,29.6248347 18.6555232,29.4675714 C19.9010088,29.0173273 21.1394589,28.5475512 22.3831354,28.0924744 C22.9731129,27.8766149 23.4955494,28.0413286 23.8016945,28.5207701 C24.1601033,29.0827698 24.0242175,29.7396107 23.4625831,30.0998463 C22.5493744,30.6856066 21.6349596,31.2695547 20.7131073,31.8416224 C20.2672572,32.1180916 20.0734792,32.4781258 20.1575033,33.0133445 C20.3307778,34.1180132 20.487368,35.2255009 20.6272741,36.3348009 C20.7251681,37.1102437 20.7675822,37.8891096 20.5649596,38.6611292 C20.2266523,39.9492382 19.2181627,40.8148909 17.8944825,40.9647037 C16.7487,41.0941791 15.663624,40.8601972 14.6382492,40.3817625 C11.6773062,39.0004232 9.58072535,36.7864545 8.41403741,33.7231434 C8.02849167,32.7113024 7.88577141,31.6555645 8.09924876,30.5692197 C8.27674453,29.6657111 8.81827749,29.003232 9.46996638,28.4096186 C9.96345688,27.9603813 10.4826772,27.5385291 10.9629008,27.0755993 C11.2497484,26.7989287 11.4895587,26.471515 11.7384146,26.1575926 C11.8817379,25.9767701 11.9187246,25.758897 11.8383188,25.5398158 C11.6063481,24.9071383 11.3713622,24.2752662 11.1275316,23.6470186 C10.909632,23.0854216 10.6758521,22.5300668 10.4541332,21.9698794 C10.3152322,21.6187051 10.3950349,21.3134412 10.6533385,21.0399924 C11.4356868,20.2121957 12.3434681,19.5579725 13.371054,19.0730942 C13.5043266,19.0100681 13.6729778,19.0225525 13.8253467,19 C13.8038382,19.1534374 13.8044412,19.3145265 13.7561978,19.459104 C13.6442327,19.7941694 13.5067388,20.1205762 13.3827129,20.4518158 C13.2259216,20.8704461 13.2434099,21.2784043 13.5067388,21.6472984 C13.940729,22.2550072 14.3825588,22.8572791 14.8330322,23.4529062 C15.1528462,23.8761679 15.496581,24.281307 15.8218224,24.7009442 C16.5635657,25.6584177 16.6146234,26.6954289 16.1187207,27.7658662 C15.8801166,28.2809487 15.5769867,28.7666324 15.3072253,29.2579542" id="Fill-4" fill="#FFFFFF"></path>
            <path d="M25.5010254,40 C23.0241529,39.9991754 21,37.9777002 21,35.5053138 C21,33.0275693 23.004577,31.0180469 25.4940193,31.0001176 C27.9729524,30.9821884 30.0051418,33.0160286 30,35.5098477 C29.9948387,37.9962477 27.9865525,40.0008241 25.5010254,40" id="Fill-6" fill="#FFFFFF"></path>
        </g>
    </g>
</svg>