<?xml version="1.0" encoding="UTF-8"?>
<svg width="50px" height="50px" viewBox="0 0 50 50" version="1.1" xmlns="http://www.w3.org/2000/svg" xmlns:xlink="http://www.w3.org/1999/xlink">
    <title>Health History / Urinary / Reproductive inactive</title>
    <g id="Health-History-/-Urinary-/-Reproductive-inactive" stroke="none" stroke-width="1" fill="none" fill-rule="evenodd">
        <polygon id="Clip-2" points="3 0 47 0 47 50 3 50"></polygon>
        <path d="M20.2267953,16.1654135 C19.1421884,16.180257 18.1574643,16.2579901 17.1907074,16.4861113 C12.9672319,17.4835554 9.95355486,19.9571465 8.35620362,24.0572726 C7.12940386,27.2058524 7.2358553,30.4108764 8.34770296,33.5651201 C9.91317672,38.0066468 12.8791342,41.2091319 17.0755621,43.2229651 C20.1170595,44.6825108 23.3179443,45.1358235 26.620837,44.3672817 C30.3468307,43.4999135 33.1468321,41.3575668 34.8684089,37.8820395 C36.3357387,34.9195895 36.514639,31.8010874 35.7178953,28.6218441 C34.7965397,24.9467108 32.7743487,21.9823076 29.8340864,19.661253 C26.9892634,17.4155878 23.7576603,16.2226391 20.2267953,16.1654135 L20.2267953,16.1654135 Z M13.0487057,49.9957053 C13.2180132,49.0256784 13.3774071,48.0880574 13.548464,47.152779 C13.5811203,46.9749375 13.5472977,46.8786961 13.3836274,46.7787457 C9.96346142,44.6870095 7.19544988,41.9573083 5.30293863,38.3832992 C4.01670743,35.9540351 3.27805266,33.3623514 3.06598099,30.619766 C2.74738753,26.4983721 3.59528545,22.6018667 5.3338455,18.8826172 C6.71998948,15.9169002 8.58178824,13.2754366 10.8418774,10.9225017 C11.7307901,9.99678887 12.6953177,9.14467234 13.625634,8.25917391 C13.6699533,8.21700732 13.716022,8.17679289 13.7720043,8.12584159 C13.4446636,7.98762887 13.1243207,7.87049945 12.8199171,7.72076901 C11.4312462,7.03868535 10.339981,6.05284605 9.79279329,4.56608327 C9.22461227,3.02270794 9.47478298,1.5427777 10.2381244,0.126097356 C10.2696144,0.0675326456 10.3631125,0.0351268391 10.434451,0.00877271939 C10.4822692,-0.00879669374 10.5419447,0.00545405247 10.5963719,0.00545405247 L46.6574974,0.00545405247 L47,0.00545405247 C46.9325492,0.545420683 46.8794826,1.06215664 46.8021183,1.57518351 C46.3670895,4.46359503 45.4908117,7.23390105 44.5643831,9.99112762 C43.8597453,12.0879395 43.1508312,14.18358 42.480016,16.291324 C42.0306029,17.7035143 41.7116207,19.1488914 41.542702,20.6272599 C41.3720339,22.1185126 41.4911905,23.5785309 42.0142747,24.9827174 C42.6178334,26.6018364 43.2519102,28.2100234 43.9112568,29.807083 C44.7144467,31.7518219 45.5277444,33.690509 46.0545219,35.7353935 C46.612595,37.9020925 46.8205846,40.0951457 46.5395071,42.3227521 C46.2778678,44.3947716 45.6276572,46.3459525 44.6849005,48.2010873 C44.4131533,48.7355879 44.1036958,49.2505669 43.8249508,49.7813584 C43.7368954,49.9490487 43.6292073,50 43.4431829,50 C37.479712,49.9949244 31.5160467,49.9957053 25.5527702,49.9957053 L13.353498,49.9957053 L13.0487057,49.9957053 Z" id="Fill-1" fill="#999999"></path>
        <path d="M18.3072253,29.2579542 C18.9637386,29.7599482 19.6200508,30.2619422 20.2986756,30.7806492 C20.3999869,30.6294268 20.5218017,30.4534369 20.637184,30.2736212 C20.8846328,29.88741 21.2201259,29.6248347 21.6555232,29.4675714 C22.9010088,29.0173273 24.1394589,28.5475512 25.3831354,28.0924744 C25.9731129,27.8766149 26.4955494,28.0413286 26.8016945,28.5207701 C27.1601033,29.0827698 27.0242175,29.7396107 26.4625831,30.0998463 C25.5493744,30.6856066 24.6349596,31.2695547 23.7131073,31.8416224 C23.2672572,32.1180916 23.0734792,32.4781258 23.1575033,33.0133445 C23.3307778,34.1180132 23.487368,35.2255009 23.6272741,36.3348009 C23.7251681,37.1102437 23.7675822,37.8891096 23.5649596,38.6611292 C23.2266523,39.9492382 22.2181627,40.8148909 20.8944825,40.9647037 C19.7487,41.0941791 18.663624,40.8601972 17.6382492,40.3817625 C14.6773062,39.0004232 12.5807253,36.7864545 11.4140374,33.7231434 C11.0284917,32.7113024 10.8857714,31.6555645 11.0992488,30.5692197 C11.2767445,29.6657111 11.8182775,29.003232 12.4699664,28.4096186 C12.9634569,27.9603813 13.4826772,27.5385291 13.9629008,27.0755993 C14.2497484,26.7989287 14.4895587,26.471515 14.7384146,26.1575926 C14.8817379,25.9767701 14.9187246,25.758897 14.8383188,25.5398158 C14.6063481,24.9071383 14.3713622,24.2752662 14.1275316,23.6470186 C13.909632,23.0854216 13.6758521,22.5300668 13.4541332,21.9698794 C13.3152322,21.6187051 13.3950349,21.3134412 13.6533385,21.0399924 C14.4356868,20.2121957 15.3434681,19.5579725 16.371054,19.0730942 C16.5043266,19.0100681 16.6729778,19.0225525 16.8253467,19 C16.8038382,19.1534374 16.8044412,19.3145265 16.7561978,19.459104 C16.6442327,19.7941694 16.5067388,20.1205762 16.3827129,20.4518158 C16.2259216,20.8704461 16.2434099,21.2784043 16.5067388,21.6472984 C16.940729,22.2550072 17.3825588,22.8572791 17.8330322,23.4529062 C18.1528462,23.8761679 18.496581,24.281307 18.8218224,24.7009442 C19.5635657,25.6584177 19.6146234,26.6954289 19.1187207,27.7658662 C18.8801166,28.2809487 18.5769867,28.7666324 18.3072253,29.2579542" id="Fill-4" fill="#999999"></path>
        <path d="M28.5010254,40 C26.0241529,39.9991754 24,37.9777002 24,35.5053138 C24,33.0275693 26.004577,31.0180469 28.4940193,31.0001176 C30.9729524,30.9821884 33.0051418,33.0160286 33,35.5098477 C32.9948387,37.9962477 30.9865525,40.0008241 28.5010254,40" id="Fill-6" fill="#999999"></path>
    </g>
</svg>