<?xml version="1.0" encoding="UTF-8"?>
<svg width="50px" height="50px" viewBox="0 0 50 50" version="1.1" xmlns="http://www.w3.org/2000/svg" xmlns:xlink="http://www.w3.org/1999/xlink">
    <title>Health History / Respiratory inactive</title>
    <g id="Health-History-/-Respiratory-inactive" stroke="none" stroke-width="1" fill="none" fill-rule="evenodd">
        <path d="M33.8596238,10.8442766 C32.9572547,10.8442766 31.7267514,11.0080595 30.7423487,11.9088654 L30.7423487,12.6458885 C30.7423487,16.7404609 34.0236909,20.0161189 38.1253685,20.0161189 C38.6175699,20.0161189 38.9457041,20.3436847 38.9457041,20.8350334 C38.9457041,21.3263821 38.6175699,21.6539479 38.1253685,21.6539479 C33.1213218,21.6539479 29.1016777,17.6412669 29.1016777,12.6458885 L29.1016777,2 L20.8983223,2 L20.8983223,12.6458885 C20.8983223,17.6412669 16.8786782,21.6539479 11.8746315,21.6539479 C11.3824301,21.6539479 11.0542959,21.3263821 11.0542959,20.8350334 C11.0542959,20.3436847 11.3824301,20.0161189 11.8746315,20.0161189 C15.9763091,20.0161189 19.2576513,16.7404609 19.2576513,12.6458885 L19.2576513,11.9088654 C18.5193493,11.1718424 17.4529131,10.7623851 16.1403762,10.7623851 C10.5620946,10.7623851 3.99941035,16.576678 2.35873928,27.7139152 C1.6204373,33.0368594 2.03060507,38.1141293 3.50720903,42.1268103 C4.98381299,46.0575999 7.36278603,48.432452 10.2339604,48.8419092 C12.4488663,49.169475 14.5817387,48.432452 16.4685105,46.794623 C19.9139197,43.8465308 21.9647585,38.3598037 21.9647585,32.054162 L21.9647585,30.0887672 C21.9647585,29.2698527 21.9647585,28.4509382 21.9647585,27.7139152 C18.6013828,28.041481 15.2380072,29.0241784 12.1207321,30.5801159 C11.7105644,30.7438988 11.218363,30.5801159 11.0542959,30.2525501 C10.8902288,29.8430929 11.0542959,29.3517442 11.3824301,29.1879613 C14.9098729,27.3863494 18.7654499,26.403652 22.621027,26.0760862 C22.7030605,26.0760862 22.7850941,26.0760862 22.7850941,25.9941948 C22.7850941,25.9941948 22.7850941,25.9941948 22.7850941,25.9941948 C22.7850941,25.9941948 22.8671276,25.9941948 22.8671276,25.9941948 C24.261698,25.9123033 25.738302,25.9123033 27.1328724,25.9941948 C27.1328724,25.9941948 27.2149059,25.9941948 27.2149059,25.9941948 C27.2969395,25.9941948 27.378973,25.9941948 27.378973,26.0760862 C31.2345501,26.403652 35.0901271,27.3863494 38.6175699,29.1879613 C39.0277376,29.3517442 39.1918047,29.8430929 38.9457041,30.2525501 C38.781637,30.5801159 38.5355363,30.7438988 38.2074021,30.7438988 C38.1253685,30.7438988 37.9613014,30.7438988 37.8792679,30.6620074 C34.7619928,29.1060698 31.3986172,28.1233724 28.0352415,27.7958066 C28.0352415,28.5328297 28.0352415,29.3517442 28.0352415,30.1706587 L28.0352415,32.1360535 C28.0352415,38.4416951 30.0860803,43.9284222 33.5314895,46.8765144 C35.4182613,48.5143434 37.6331672,49.2513665 39.7660396,48.9238007 C42.637214,48.5143434 45.016187,46.1394914 46.492791,42.2087018 C47.9693949,38.1960208 48.3795627,33.1187509 47.6412607,27.8776981 C46.0005897,16.6585695 39.4379054,10.8442766 33.8596238,10.8442766 Z" id="Path" fill="#999999" fill-rule="nonzero"></path>
    </g>
</svg>