<?xml version="1.0" encoding="UTF-8"?>
<svg width="50px" height="50px" viewBox="0 0 50 50" version="1.1" xmlns="http://www.w3.org/2000/svg" xmlns:xlink="http://www.w3.org/1999/xlink">
    <title>Health History / Respiratory active</title>
    <g id="Health-History-/-Respiratory-active" stroke="none" stroke-width="1" fill="none" fill-rule="evenodd">
        <g id="lungs-copy" transform="translate(2.000000, 2.000000)" fill="#FFFFFF" fill-rule="nonzero">
            <path d="M31.8596238,8.84427656 C30.9572547,8.84427656 29.7267514,9.00805946 28.7423487,9.90886541 L28.7423487,10.6458885 C28.7423487,14.7404609 32.0236909,18.0161189 36.1253685,18.0161189 C36.6175699,18.0161189 36.9457041,18.3436847 36.9457041,18.8350334 C36.9457041,19.3263821 36.6175699,19.6539479 36.1253685,19.6539479 C31.1213218,19.6539479 27.1016777,15.6412669 27.1016777,10.6458885 L27.1016777,0 L18.8983223,0 L18.8983223,10.6458885 C18.8983223,15.6412669 14.8786782,19.6539479 9.87463147,19.6539479 C9.38243015,19.6539479 9.05429593,19.3263821 9.05429593,18.8350334 C9.05429593,18.3436847 9.38243015,18.0161189 9.87463147,18.0161189 C13.9763091,18.0161189 17.2576513,14.7404609 17.2576513,10.6458885 L17.2576513,9.90886541 C16.5193493,9.17184236 15.4529131,8.76238511 14.1403762,8.76238511 C8.56209461,8.76238511 1.99941035,14.576678 0.35873928,25.7139152 C-0.3795627,31.0368594 0.0306050666,36.1141293 1.50720903,40.1268103 C2.98381299,44.0575999 5.36278603,46.432452 8.2339604,46.8419092 C10.4488663,47.169475 12.5817387,46.432452 14.4685105,44.794623 C17.9139197,41.8465308 19.9647585,36.3598037 19.9647585,30.054162 L19.9647585,28.0887672 C19.9647585,27.2698527 19.9647585,26.4509382 19.9647585,25.7139152 C16.6013828,26.041481 13.2380072,27.0241784 10.1207321,28.5801159 C9.71056436,28.7438988 9.21836304,28.5801159 9.05429593,28.2525501 C8.89022883,27.8430929 9.05429593,27.3517442 9.38243015,27.1879613 C12.9098729,25.3863494 16.7654499,24.403652 20.621027,24.0760862 C20.7030605,24.0760862 20.7850941,24.0760862 20.7850941,23.9941948 C20.7850941,23.9941948 20.7850941,23.9941948 20.7850941,23.9941948 C20.7850941,23.9941948 20.8671276,23.9941948 20.8671276,23.9941948 C22.261698,23.9123033 23.738302,23.9123033 25.1328724,23.9941948 C25.1328724,23.9941948 25.2149059,23.9941948 25.2149059,23.9941948 C25.2969395,23.9941948 25.378973,23.9941948 25.378973,24.0760862 C29.2345501,24.403652 33.0901271,25.3863494 36.6175699,27.1879613 C37.0277376,27.3517442 37.1918047,27.8430929 36.9457041,28.2525501 C36.781637,28.5801159 36.5355363,28.7438988 36.2074021,28.7438988 C36.1253685,28.7438988 35.9613014,28.7438988 35.8792679,28.6620074 C32.7619928,27.1060698 29.3986172,26.1233724 26.0352415,25.7958066 C26.0352415,26.5328297 26.0352415,27.3517442 26.0352415,28.1706587 L26.0352415,30.1360535 C26.0352415,36.4416951 28.0860803,41.9284222 31.5314895,44.8765144 C33.4182613,46.5143434 35.6331672,47.2513665 37.7660396,46.9238007 C40.637214,46.5143434 43.016187,44.1394914 44.492791,40.2087018 C45.9693949,36.1960208 46.3795627,31.1187509 45.6412607,25.8776981 C44.0005897,14.6585695 37.4379054,8.84427656 31.8596238,8.84427656 Z" id="Path"></path>
        </g>
    </g>
</svg>