<?xml version="1.0" encoding="UTF-8"?>
<svg width="30px" height="30px" viewBox="0 0 30 30" version="1.1" xmlns="http://www.w3.org/2000/svg" xmlns:xlink="http://www.w3.org/1999/xlink">
    <!-- Generator: Sketch 54.1 (76490) - https://sketchapp.com -->
    <title>icon / roles</title>
    <desc>Created with Sketch.</desc>
    <g id="icon-/-roles" stroke="none" stroke-width="1" fill="none" fill-rule="evenodd" stroke-linecap="square">
        <g id="multiple-11" stroke="#FFFFFF">
            <rect id="Rectangle-path" x="2.06896552" y="4.13793103" width="6.20689655" height="6.20689655" rx="1.5"></rect>
            <path d="M6.20689655,28.9655172 L2.06896552,28.9655172 L2.06896552,22.7586207 L0,22.7586207 L0,16.5517241 C-1.14850658e-16,15.409066 0.926307414,14.4827586 2.06896552,14.4827586 L4.13793103,14.4827586" id="Shape"></path>
            <path d="M23.2241379,4.13793103 L26.4310345,4.13793103 C27.2594616,4.13793103 27.9310345,4.80950391 27.9310345,5.63793103 L27.9310345,8.84482759 C27.9310345,9.67325471 27.2594616,10.3448276 26.4310345,10.3448276 L23.2241379,10.3448276 C22.3957108,10.3448276 21.7241379,9.67325471 21.7241379,8.84482759 L21.7241379,5.63793103 C21.7241379,4.80950391 22.3957108,4.13793103 23.2241379,4.13793103 Z" id="Rectangle-path" transform="translate(24.827586, 7.241379) rotate(-180.000000) translate(-24.827586, -7.241379) "></path>
            <path d="M23.7931034,28.9655172 L27.9310345,28.9655172 L27.9310345,22.7586207 L30,22.7586207 L30,16.5517241 C30,15.409066 29.0736926,14.4827586 27.9310345,14.4827586 L25.862069,14.4827586" id="Shape"></path>
            <rect id="Rectangle-path" x="11.3793103" y="0" width="8.27586207" height="8.27586207" rx="2"></rect>
            <path d="M20.6896552,30 L10.3448276,30 L10.3448276,22.183908 L8.27586207,22.183908 L8.27586207,16.3218391 C8.27586207,14.1634849 10.1284769,12.4137931 12.4137931,12.4137931 L18.6206897,12.4137931 C20.9060059,12.4137931 22.7586207,14.1634849 22.7586207,16.3218391 L22.7586207,22.183908 L20.6896552,22.183908 L20.6896552,30 Z" id="Shape"></path>
        </g>
    </g>
</svg>