<svg width="30" height="30" viewBox="0 0 30 30" fill="none" xmlns="http://www.w3.org/2000/svg">
<path fill-rule="evenodd" clip-rule="evenodd" d="M14.2343 8.608C13.9823 8.715 13.7643 8.861 13.5813 9.044C13.3883 9.237 13.2513 9.457 13.1703 9.704C13.0893 9.952 13.0493 10.21 13.0493 10.478C13.0823 10.929 13.2643 11.319 13.5973 11.646C13.9303 11.974 14.3233 12.16 14.7743 12.203C15.0753 12.235 15.3653 12.197 15.6453 12.089C15.9243 11.982 16.1603 11.821 16.3543 11.606C16.5363 11.413 16.6683 11.193 16.7493 10.945C16.8293 10.698 16.8703 10.44 16.8703 10.171C16.8383 9.72 16.6543 9.331 16.3213 9.003C15.9883 8.675 15.5963 8.49 15.1453 8.447H15.0723H15.0003C14.7423 8.447 14.4863 8.501 14.2343 8.608ZM14.8713 13.702H14.6933C13.8773 13.627 13.1683 13.301 12.5663 12.726C11.9643 12.152 11.6253 11.451 11.5503 10.623C11.5073 10.139 11.5613 9.677 11.7123 9.237C11.8623 8.796 12.1093 8.409 12.4533 8.076C12.7863 7.7 13.2003 7.413 13.6943 7.213C14.1883 7.015 14.6993 6.953 15.2253 7.028C16.0533 7.103 16.7653 7.428 17.3613 8.004C17.9583 8.579 18.2943 9.274 18.3693 10.09C18.4123 10.586 18.3583 11.05 18.2083 11.485C18.0573 11.921 17.8153 12.31 17.4823 12.654C17.1813 12.987 16.8133 13.245 16.3783 13.427C15.9423 13.611 15.4843 13.702 15.0003 13.702H14.8713ZM10.2763 21.504H19.7233V20.746C19.7233 20.112 19.6023 19.512 19.3603 18.949C19.1183 18.384 18.7853 17.89 18.3603 17.465C17.9363 17.042 17.4423 16.708 16.8783 16.466C16.3143 16.224 15.7143 16.103 15.0803 16.103H15.0003C14.3653 16.103 13.7673 16.224 13.2023 16.466C12.6383 16.708 12.1443 17.042 11.7193 17.465C11.2953 17.89 10.9593 18.384 10.7123 18.949C10.4643 19.512 10.3413 20.112 10.3413 20.746V21.504H10.2763ZM21.2223 23.003H8.77734V20.746C8.77734 19.908 8.93934 19.115 9.26134 18.369C9.58434 17.622 10.0243 16.968 10.5833 16.41C11.1423 15.851 11.7953 15.411 12.5423 15.087C13.2883 14.765 14.0813 14.604 14.9193 14.604H15.0003C15.8383 14.604 16.6303 14.765 17.3783 15.087C18.1243 15.411 18.7773 15.851 19.3363 16.41C19.8953 16.968 20.3383 17.622 20.6663 18.369C20.9933 19.115 21.1573 19.908 21.1573 20.746V23.003H21.2223Z" fill="white"/>
</svg>
