<?xml version="1.0" encoding="UTF-8"?>
<svg width="52px" height="52px" viewBox="0 0 52 52" version="1.1" xmlns="http://www.w3.org/2000/svg" xmlns:xlink="http://www.w3.org/1999/xlink">
    <title>coins copy 2</title>
    <g id="Symbols" stroke="none" stroke-width="1" fill="none" fill-rule="evenodd">
        <g id="coins-copy-2" transform="translate(1.000000, 1.000000)" fill="#FFFFFF" fill-rule="nonzero">
            <path d="M1,5.35714286 L1,12.5 C1,14.7378169 4.95630292,16.8571429 10,16.8571429 C14.9407645,16.8571429 18.8380654,14.8234373 18.9950811,12.6368441 L19,12.5 L19,5.35714286 L21,5.35714286 L21,12.5 C21,16.1797319 16.0018786,18.8571429 10,18.8571429 C4.10529785,18.8571429 -0.821175587,16.2745 -0.995241379,12.6961601 L-1,12.5 L-1,5.35714286 L1,5.35714286 Z" id="Path"></path>
            <path d="M1,12.5 L1,19.6428571 C1,21.880674 4.95630292,24 10,24 C14.9407645,24 18.8380654,21.9662944 18.9950811,19.7797013 L19,19.6428571 L19,12.5 L21,12.5 L21,19.6428571 C21,23.3225891 16.0018786,26 10,26 C4.10529785,26 -0.821175587,23.4173571 -0.995241379,19.8390172 L-1,19.6428571 L-1,12.5 L1,12.5 Z" id="Path"></path>
            <path d="M1,19.6428571 L1,26.7857143 C1,28.9778614 4.79646894,31.0563047 9.69258528,31.1402261 L10,31.1428571 L10,33.1428571 C4.10529785,33.1428571 -0.821175587,30.5602143 -0.995241379,26.9818744 L-1,26.7857143 L-1,19.6428571 L1,19.6428571 Z" id="Path"></path>
            <path d="M1,26.7857143 L1,33.9285714 C1,36.1207186 4.79646894,38.1991618 9.69258528,38.2830832 L10,38.2857143 L10,40.2857143 C4.10529785,40.2857143 -0.821175587,37.7030714 -0.995241379,34.1247315 L-1,33.9285714 L-1,26.7857143 L1,26.7857143 Z" id="Path"></path>
            <path d="M10,-1 C3.99806269,-1 -1,1.67753359 -1,5.35714286 C-1,9.03675213 3.99806269,11.7142857 10,11.7142857 C16.0019373,11.7142857 21,9.03675213 21,5.35714286 C21,1.67753359 16.0019373,-1 10,-1 Z M10,1 C15.0437577,1 19,3.11941552 19,5.35714286 C19,7.59487019 15.0437577,9.71428571 10,9.71428571 C4.95624231,9.71428571 1,7.59487019 1,5.35714286 C1,3.11941552 4.95624231,1 10,1 Z" id="Oval"></path>
            <path d="M31,12.5 L31,19.6428571 C31,21.880674 34.9563029,24 40,24 C44.9407645,24 48.8380654,21.9662944 48.9950811,19.7797013 L49,19.6428571 L49,12.5 L51,12.5 L51,19.6428571 C51,23.3225891 46.0018786,26 40,26 C34.1052978,26 29.1788244,23.4173571 29.0047586,19.8390172 L29,19.6428571 L29,12.5 L31,12.5 Z" id="Path"></path>
            <path d="M51,19.6428571 L51,26.7857143 C51,30.3997367 46.1787891,33.0469157 40.3205462,33.1403054 L40,33.1428571 L40,31.1428571 C44.9407645,31.1428571 48.8380654,29.1091516 48.9950811,26.9225584 L49,26.7857143 L49,19.6428571 L51,19.6428571 Z" id="Path"></path>
            <path d="M51,26.7857143 L51,33.9285714 C51,37.5425939 46.1787891,40.1897728 40.3205462,40.2831625 L40,40.2857143 L40,38.2857143 C44.9407645,38.2857143 48.8380654,36.2520087 48.9950811,34.0654156 L49,33.9285714 L49,26.7857143 L51,26.7857143 Z" id="Path"></path>
            <path d="M40,6.14285714 C33.9980627,6.14285714 29,8.82039073 29,12.5 C29,16.1796093 33.9980627,18.8571429 40,18.8571429 C46.0019373,18.8571429 51,16.1796093 51,12.5 C51,8.82039073 46.0019373,6.14285714 40,6.14285714 Z M40,8.14285714 C45.0437577,8.14285714 49,10.2622727 49,12.5 C49,14.7377273 45.0437577,16.8571429 40,16.8571429 C34.9562423,16.8571429 31,14.7377273 31,12.5 C31,10.2622727 34.9562423,8.14285714 40,8.14285714 Z" id="Oval"></path>
            <path d="M16,30.3571429 L16,37.5 C16,39.7378169 19.9563029,41.8571429 25,41.8571429 C29.9407645,41.8571429 33.8380654,39.8234373 33.9950811,37.6368441 L34,37.5 L34,30.3571429 L36,30.3571429 L36,37.5 C36,41.1797319 31.0018786,43.8571429 25,43.8571429 C19.1052978,43.8571429 14.1788244,41.2745 14.0047586,37.6961601 L14,37.5 L14,30.3571429 L16,30.3571429 Z" id="Path"></path>
            <path d="M16,37.5 L16,44.6428571 C16,46.880674 19.9563029,49 25,49 C29.9407645,49 33.8380654,46.9662944 33.9950811,44.7797013 L34,44.6428571 L34,37.5 L36,37.5 L36,44.6428571 C36,48.3225891 31.0018786,51 25,51 C19.1052978,51 14.1788244,48.4173571 14.0047586,44.8390172 L14,44.6428571 L14,37.5 L16,37.5 Z" id="Path"></path>
            <path d="M25,24 C18.9980627,24 14,26.6775336 14,30.3571429 C14,34.0367521 18.9980627,36.7142857 25,36.7142857 C31.0019373,36.7142857 36,34.0367521 36,30.3571429 C36,26.6775336 31.0019373,24 25,24 Z M25,26 C30.0437577,26 34,28.1194155 34,30.3571429 C34,32.5948702 30.0437577,34.7142857 25,34.7142857 C19.9562423,34.7142857 16,32.5948702 16,30.3571429 C16,28.1194155 19.9562423,26 25,26 Z" id="Oval"></path>
        </g>
    </g>
</svg>