<svg xmlns="http://www.w3.org/2000/svg" width="47" height="50" viewBox="0 0 47 50">
  <g fill="#999" transform="translate(.54 .16)">
    <path d="M46.46,0 L46.46,38.4309091 C46.46,44.6344706 41.5265935,49.68 35.42,49.68 C29.4059306,49.68 24.5297665,44.7862072 24.3833846,38.7120781 L24.38184,38.64 L19.78,38.64 L19.78,34.96 L31.74,34.96 L31.74,38.64 L28.062771,38.640795 C28.1709454,42.732645 31.4325025,46 35.42,46 C39.4003451,46 42.6573516,42.7443559 42.7766165,38.662806 L42.78,38.4309091 L42.78,0 L46.46,0 Z"/>
    <path d="M37.26,6.9 C39.0383569,6.9 40.48,8.34164311 40.48,10.12 L40.48,27.6 C40.48,29.3783569 39.0383569,30.82 37.26,30.82 L3.22,30.82 C1.44164311,30.82 0,29.3783569 0,27.6 L0,10.12 C0,8.34164311 1.44164311,6.9 3.22,6.9 L37.26,6.9 Z M37.26,9.66 L3.22,9.66 C2.96594902,9.66 2.76,9.86594902 2.76,10.12 L2.76,27.6 C2.76,27.854051 2.96594902,28.06 3.22,28.06 L16.445,28.06 L18.17,21.16 L22.31,21.16 L24.035,28.06 L37.26,28.06 C37.514051,28.06 37.72,27.854051 37.72,27.6 L37.72,10.12 C37.72,9.86594902 37.514051,9.66 37.26,9.66 Z"/>
  </g>
</svg>
