<svg xmlns="http://www.w3.org/2000/svg" xmlns:xlink="http://www.w3.org/1999/xlink" width="44" height="44" viewBox="0 0 44 44">
  <defs>
    <filter id="search-a">
      <feColorMatrix in="SourceGraphic" values="0 0 0 0 1.000000 0 0 0 0 1.000000 0 0 0 0 1.000000 0 0 0 1.000000 0"/>
    </filter>
    <polygon id="search-b" points="0 44 44 44 44 0 0 0"/>
  </defs>
  <g fill="none" fill-rule="evenodd" filter="url(#search-a)" transform="translate(-8 -8)">
    <g transform="translate(8 8)">
      <mask id="search-c" fill="#fff">
        <use xlink:href="#search-b"/>
      </mask>
      <path fill="#FFF" d="M26.983,26.983 C29.3003333,24.6656667 30.459,21.8753333 30.459,18.612 C30.459,15.3523333 29.3003333,12.562 26.983,10.2446667 C24.6656667,7.92733333 21.8753333,6.765 18.6156667,6.765 C15.3523333,6.765 12.562,7.92733333 10.2446667,10.2446667 C7.92733333,12.562 6.76866667,15.3523333 6.76866667,18.612 C6.76866667,21.8753333 7.92733333,24.6656667 10.2446667,26.983 C12.562,29.3003333 15.3523333,30.459 18.6156667,30.459 C21.8753333,30.459 24.6656667,29.3003333 26.983,26.983 L26.983,26.983 Z M43.021,38.2323333 C43.6736667,38.885 44,39.677 44,40.612 C44,41.5286667 43.6626667,42.3243333 42.9953333,42.9916667 C42.3243333,43.6626667 41.5323333,44 40.6156667,44 C39.6623333,44 38.8703333,43.6626667 38.236,42.9916667 L29.1646667,33.9496667 C26.0076667,36.135 22.4913333,37.2276667 18.6156667,37.2276667 C16.093,37.2276667 13.684,36.74 11.3813333,35.761 C9.08233333,34.782 7.09866667,33.462 5.434,31.7936667 C3.76566667,30.129 2.44566667,28.1453333 1.46666667,25.8426667 C0.487666667,23.5473333 0,21.1346667 0,18.612 C0,16.093 0.487666667,13.684 1.46666667,11.3813333 C2.44566667,9.08233333 3.76566667,7.09866667 5.434,5.434 C7.09866667,3.76566667 9.08233333,2.44566667 11.3813333,1.46666667 C13.684,0.487666667 16.093,0 18.6156667,0 C21.1346667,0 23.5473333,0.487666667 25.8463333,1.46666667 C28.1453333,2.44566667 30.129,3.76566667 31.7936667,5.434 C33.462,7.09866667 34.782,9.08233333 35.761,11.3813333 C36.74,13.684 37.2276667,16.093 37.2276667,18.612 C37.2276667,22.4913333 36.135,26.0076667 33.9496667,29.1646667 L43.021,38.2323333 Z" mask="url(#search-c)"/>
    </g>
  </g>
</svg>
