<svg width="80" height="81" viewBox="0 0 80 81" fill="none" xmlns="http://www.w3.org/2000/svg">
<mask id="mask0" mask-type="alpha" maskUnits="userSpaceOnUse" x="4" y="1" width="73" height="80">
<path fill-rule="evenodd" clip-rule="evenodd" d="M76.7273 80.0263V1H4.00012V80.0263H76.7273Z" fill="white"/>
</mask>
<path fill-rule="evenodd" clip-rule="evenodd" d="M13.4135 10.457V15.811C13.4135 15.9492 13.4171 16.0873 13.4219 16.2243L13.4316 16.5988C13.5201 23.7528 14.8159 30.8461 17.2838 37.6849L17.411 38.0546C17.4619 38.2013 17.5116 38.3479 17.5674 38.4946C17.9553 39.5298 18.3189 40.4437 18.6825 41.2898C19.9892 44.3479 21.5468 47.3455 23.3128 50.1976C27.7831 57.411 33.5153 63.6643 40.3625 68.7989C48.3128 62.8413 54.7032 55.4631 59.3662 46.8582C60.6195 44.5479 61.7322 42.177 62.6765 39.8122C62.7613 39.6013 62.8341 39.3988 62.9092 39.1964L63.1601 38.5092C63.1613 38.5055 63.1625 38.5019 63.1638 38.4982C64.6389 34.5625 65.7383 30.4485 66.4341 26.2692C67.0183 22.7589 67.3141 19.2401 67.3141 15.811V10.457H13.4135ZM40.3638 71.8218C40.0874 71.8218 39.8098 71.7369 39.5747 71.566C32.0959 66.12 25.8559 59.4097 21.0304 51.6218C19.1929 48.6533 17.5722 45.5345 16.2122 42.3539C15.8341 41.4703 15.4535 40.5175 15.051 39.4448C14.9868 39.2739 14.9274 39.1006 14.868 38.9272L14.7553 38.6024C12.1856 31.48 10.8353 24.086 10.7432 16.6315L10.7359 16.3078C10.7298 16.1406 10.725 15.9757 10.725 15.8085V9.10421C10.725 8.35875 11.3274 7.75391 12.0692 7.75391H68.6583C69.4001 7.75391 70.0025 8.35875 70.0025 9.10421V15.8085C70.0025 19.3854 69.6947 23.0545 69.0862 26.7115C68.3626 31.0606 67.2171 35.343 65.6826 39.44L65.4329 40.126C65.3492 40.3539 65.2644 40.5842 65.171 40.8181C64.1892 43.2763 63.0304 45.7442 61.7274 48.1478C56.7177 57.3915 49.7965 65.2703 41.1541 71.5648C40.9177 71.7357 40.6401 71.8218 40.3638 71.8218ZM6.6886 3.69922V15.8083C6.6886 15.9404 6.69345 16.0726 6.69708 16.2047L6.70678 16.601C6.78678 23.7683 7.95284 30.8762 10.1747 37.7247C10.525 38.8022 10.8934 39.8616 11.2741 40.8726C11.691 41.9877 12.0934 42.995 12.5031 43.955C13.9419 47.321 15.6583 50.6204 17.6038 53.7635C23.1444 62.7053 30.4207 70.2786 39.2304 76.2738L40.3625 77.0447L41.4947 76.275C48.4607 71.5344 54.5092 65.7732 59.4728 59.1501C63.3504 53.978 66.5274 48.3186 68.9153 42.3283C69.045 42.0047 69.1637 41.6798 69.2825 41.3562L69.4547 40.8835C69.8789 39.7526 70.285 38.5586 70.7383 37.115C72.9286 30.1465 74.0389 22.9792 74.0389 15.8083V3.69922H6.6886ZM40.3638 80.0267C40.1007 80.0267 39.8377 79.9503 39.611 79.7952L37.7238 78.5115C28.5989 72.3018 21.0607 64.457 15.3201 55.1915C13.3044 51.9321 11.525 48.5115 10.0328 45.0218C9.60618 44.0242 9.18921 42.9782 8.75891 41.8255C8.36376 40.7782 7.98073 39.6788 7.61952 38.5624C5.31285 31.4533 4.10194 24.0739 4.0183 16.6303L4.00982 16.2921C4.00497 16.1321 4.00012 15.9709 4.00012 15.8097V2.3503C4.00012 1.60485 4.60133 1 5.34436 1H75.3832C76.125 1 76.7274 1.60485 76.7274 2.3503V15.8097C76.7274 23.2558 75.5747 30.697 73.3032 37.9285C72.8341 39.4194 72.4122 40.6582 71.9747 41.8267L71.8062 42.2885C71.6777 42.6376 71.5492 42.9879 71.411 43.3345C68.9335 49.5455 65.6401 55.4133 61.6207 60.7758C56.4777 67.6376 50.2147 73.6036 43.0038 78.5115L41.1177 79.7939C40.891 79.9503 40.628 80.0267 40.3638 80.0267Z" fill="#F8F8F8"/>
</svg>
