<svg width="20" height="20" viewBox="0 0 20 20" fill="none" xmlns="http://www.w3.org/2000/svg">
<path fill-rule="evenodd" clip-rule="evenodd" d="M12.828 12.828C12.047 13.609 11.104 14 10 14C8.896 14 7.953 13.609 7.172 12.828C6.391 12.047 6 11.104 6 10C6 8.896 6.391 7.953 7.172 7.172C7.953 6.391 8.896 6 10 6C11.104 6 12.047 6.391 12.828 7.172C13.609 7.953 14 8.896 14 10C14 11.104 13.609 12.047 12.828 12.828ZM18.234 15.609C18.234 15.516 18.198 15.411 18.125 15.297C17.541 14.599 17.073 14 16.719 13.5C16.937 13.073 17.104 12.677 17.219 12.312L19.641 11.937C19.734 11.927 19.818 11.872 19.89 11.773C19.963 11.675 20 11.573 20 11.469V8.578C20 8.464 19.963 8.362 19.89 8.273C19.818 8.185 19.729 8.13 19.625 8.109L17.25 7.75C17.135 7.396 16.958 6.969 16.719 6.469C16.875 6.24 17.109 5.927 17.422 5.531C17.734 5.136 17.953 4.854 18.078 4.687C18.151 4.573 18.187 4.474 18.187 4.39C18.187 4.109 17.437 3.276 15.937 1.89C15.833 1.807 15.724 1.765 15.609 1.765C15.484 1.765 15.38 1.802 15.297 1.875L13.453 3.265C13.026 3.047 12.635 2.886 12.281 2.781L11.922 0.39C11.911 0.286 11.859 0.195 11.766 0.117C11.672 0.039 11.568 0 11.453 0H8.547C8.307 0 8.151 0.125 8.078 0.375C7.953 0.854 7.833 1.656 7.719 2.781C7.271 2.927 6.87 3.094 6.516 3.281L4.719 1.875C4.614 1.802 4.505 1.765 4.39 1.765C4.193 1.765 3.781 2.073 3.156 2.687C2.531 3.302 2.104 3.765 1.875 4.078C1.802 4.161 1.765 4.265 1.765 4.39C1.765 4.484 1.802 4.589 1.875 4.703C2.458 5.401 2.927 6 3.281 6.5C3.062 6.927 2.896 7.323 2.781 7.687L0.359 8.062C0.266 8.073 0.182 8.128 0.109 8.226C0.036 8.326 0 8.427 0 8.531V11.422C0 11.536 0.036 11.638 0.109 11.726C0.182 11.815 0.271 11.865 0.375 11.875L2.75 12.25C2.875 12.646 3.057 13.073 3.297 13.531C3.13 13.761 2.885 14.078 2.562 14.484C2.24 14.891 2.026 15.167 1.922 15.312C1.849 15.417 1.812 15.516 1.812 15.609C1.812 15.891 2.562 16.724 4.062 18.109C4.166 18.193 4.276 18.234 4.39 18.234C4.526 18.234 4.63 18.198 4.703 18.125L6.547 16.734C6.974 16.953 7.364 17.115 7.719 17.219L8.078 19.609C8.088 19.714 8.141 19.805 8.234 19.883C8.328 19.961 8.432 20 8.547 20H11.453C11.693 20 11.849 19.875 11.922 19.625C12.047 19.136 12.166 18.328 12.281 17.203C12.698 17.078 13.099 16.917 13.484 16.719L15.281 18.125C15.385 18.198 15.495 18.234 15.609 18.234C15.807 18.234 16.216 17.925 16.836 17.305C17.456 16.685 17.885 16.219 18.125 15.906C18.198 15.833 18.234 15.734 18.234 15.609Z" transform="translate(0 0.000244141)" fill="#A8A8A8"/>
</svg>
