<svg width="14" height="14" viewBox="0 0 14 14" fill="none" xmlns="http://www.w3.org/2000/svg">
<path fill-rule="evenodd" clip-rule="evenodd" d="M12.9391 5.40851L14 7L12.9392 8.59108L13.0622 10.5L11.3481 11.3477L10.5 13.0622L8.59149 12.9391L7 14L5.40892 12.9391L3.5 13.0622L2.65234 11.3477L0.938219 10.5L1.06127 8.59108L0 7L1.06127 5.40873L0.938219 3.5L2.65234 2.65234L3.5 0.937809L5.40892 1.06086L7 0L8.59149 1.06086L10.5 0.937809L11.3477 2.65234L13.0622 3.5L12.9391 5.40851ZM10.9124 10.9123L11.0893 10.8247L12.4548 10.1497L12.3569 8.62868L12.3441 8.43213L12.4535 8.26807L13.299 7L12.4535 5.73213L12.3441 5.56785L12.3569 5.37111L12.4548 3.85055L11.0889 3.17508L10.912 3.08771L10.8248 2.91083L10.1493 1.54492L8.62878 1.64298L8.43183 1.6558L8.26777 1.54621L6.9997 0.701123L5.73204 1.54621L5.56798 1.6558L5.37102 1.64298L3.85046 1.54492L3.17502 2.91085L3.08785 3.08774L2.91096 3.1751L1.54506 3.85058L1.64289 5.37113L1.65572 5.56809L1.54634 5.73215L0.70082 7L1.54634 8.26804L1.65572 8.4321L1.64289 8.62865L1.54506 10.1496L2.91096 10.8247L3.08785 10.9123L3.17502 11.0892L3.85049 12.4551L5.37105 12.3568L5.56801 12.344L5.73207 12.4538L6.9997 13.2989L8.26779 12.4538L8.43185 12.344L8.62881 12.3568L10.1494 12.4551L10.8248 11.0892L10.9124 10.9123Z" fill="currentColor"/>
<path d="M4.30922 7.72625L3.26118 5.92285H2.69232V8.61516H3.23272V6.80747L4.28807 8.61516H4.84617V5.92285H4.30922V7.72625Z" fill="currentColor"/>
<path d="M6.38598 7.45796H7.42473V6.99276H6.38598V6.40675H7.51761V5.92285H5.9231V8.61516H7.53848V8.11965H6.38598V7.45796Z" fill="currentColor"/>
<path d="M10.371 7.77547L9.94702 5.92285H9.44088L9.0103 7.75268L8.61792 5.92285H8.0769L8.72796 8.61516H9.27561L9.68875 6.77736L10.109 8.61516H10.6462L11.3077 5.92285H10.777L10.371 7.77547Z" fill="currentColor"/>
</svg>
