<svg width="14" height="14" viewBox="0 0 14 14" fill="none" xmlns="http://www.w3.org/2000/svg">
<path fill-rule="evenodd" clip-rule="evenodd" d="M3.60075 6.81508C1.85071 7.29507 0.685486 7.97381 0.685486 9.71828C0.685486 9.92677 1.74198 10.4998 5.14287 10.4998C8.54377 10.4998 9.60026 9.92677 9.60026 9.71828C9.60026 7.97381 8.43504 7.29507 6.685 6.81508C6.06198 6.68384 5.80263 6.42659 5.6961 5.8356C5.67185 5.70586 5.72255 5.57311 5.82614 5.49286C6.42932 5.02637 7.07365 4.20889 7.07365 3.31415C7.07365 1.03945 5.86434 0.699707 5.14287 0.699707C4.4214 0.699707 3.2121 1.03945 3.2121 3.31415C3.2121 4.20889 3.85642 5.02637 4.45961 5.49286C4.5632 5.57311 4.61389 5.70586 4.58965 5.8356C4.48312 6.42659 4.22377 6.68384 3.60075 6.81508ZM5.14286 11.1995C2.79698 11.1995 0 10.9423 0 9.7183C0 7.3896 1.73535 6.60062 3.43322 6.13638C3.43984 6.13413 3.44718 6.13263 3.4538 6.13113C3.73298 6.07338 3.82335 6.02463 3.8689 5.90688C3.19078 5.31964 2.52661 4.37316 2.52661 3.31418C2.52661 1.23898 3.50449 0 5.14286 0C6.78122 0 7.7591 1.23898 7.7591 3.31418C7.7591 4.37316 7.09494 5.31964 6.41682 5.90688C6.46237 6.02463 6.55273 6.07338 6.83192 6.13113C6.83853 6.13263 6.84588 6.13413 6.85249 6.13638C8.55037 6.60062 10.2857 7.3896 10.2857 9.7183C10.2857 10.9423 7.48873 11.1995 5.14286 11.1995Z" transform="translate(2 1.00024)" fill="currentColor"/>
<path fill-rule="evenodd" clip-rule="evenodd" d="M0.22849 1.85325C0.102122 1.85325 0 1.749 0 1.62V0.23325C0 0.10425 0.102122 0 0.22849 0C0.354857 0 0.45698 0.10425 0.45698 0.23325V1.62C0.45698 1.749 0.354857 1.85325 0.22849 1.85325Z" transform="translate(3.48578 9.68286)" fill="currentColor"/>
<path fill-rule="evenodd" clip-rule="evenodd" d="M0.22849 1.85325C0.102122 1.85325 0 1.749 0 1.62V0.23325C0 0.10425 0.102122 0 0.22849 0C0.354857 0 0.45698 0.10425 0.45698 0.23325V1.62C0.45698 1.749 0.354857 1.85325 0.22849 1.85325Z" transform="translate(10.3429 9.68286)" fill="currentColor"/>
<path fill-rule="evenodd" clip-rule="evenodd" d="M1.60016 1.656C1.27249 1.656 0.944816 1.57575 0.67151 1.4145C0.238041 1.158 0 0.73875 0 0.23325C0 0.10425 0.102857 0 0.22849 0H0.229224C0.354857 0 0.457714 0.105 0.45698 0.234C0.45698 0.65925 0.697959 0.89025 0.9 1.01025C1.30555 1.2495 1.89404 1.2495 2.30033 1.01025C2.50237 0.89025 2.74335 0.65925 2.74261 0.234C2.74261 0.105 2.84547 0 2.9711 0C3.09747 0 3.19959 0.10425 3.20033 0.23325C3.20033 0.73875 2.96229 1.158 2.52882 1.4145C2.25551 1.57575 1.92784 1.656 1.60016 1.656Z" transform="translate(5.54279 6.90894)" fill="currentColor"/>
</svg>
