<svg width="14" height="14" viewBox="0 0 14 14" fill="none" xmlns="http://www.w3.org/2000/svg">
<path fill-rule="evenodd" clip-rule="evenodd" d="M4.3582 4.90464C4.3582 5.04864 4.2192 5.16564 4.0482 5.16564H3.0612L4.3582 3.86864V4.90464ZM2.6222 5.78664H4.0482C4.5612 5.78664 4.9792 5.39064 4.9792 4.90464V3.42864H9.4532C9.6242 3.42864 9.7632 3.54564 9.7632 3.68964V12.1176C9.7632 12.2616 9.6242 12.3786 9.4532 12.3786H2.9322C2.7612 12.3786 2.6222 12.2616 2.6222 12.1176V5.78664ZM9.4532 2.80664H4.6692C4.6552 2.80664 4.6432 2.81364 4.6302 2.81464C4.6152 2.81664 4.6022 2.81964 4.5882 2.82364C4.5352 2.83764 4.4872 2.86064 4.4502 2.89764C4.4492 2.89864 4.4492 2.89764 4.4492 2.89864L2.0912 5.25664C2.0542 5.29364 2.0312 5.34264 2.0162 5.39564C2.0122 5.40964 2.0102 5.42264 2.0082 5.43664C2.0062 5.44964 2.0002 5.46264 2.0002 5.47564V12.1176C2.0002 12.6046 2.4182 13.0006 2.9322 13.0006H9.4532C9.9672 13.0006 10.3852 12.6046 10.3852 12.1176V3.68964C10.3852 3.20264 9.9672 2.80664 9.4532 2.80664V2.80664Z" fill="currentColor"/>
<path fill-rule="evenodd" clip-rule="evenodd" d="M4.1247 7.31581H8.5047C8.6237 7.31581 8.7207 7.21881 8.7207 7.09981C8.7207 6.98081 8.6237 6.88281 8.5047 6.88281H4.1247C4.0047 6.88281 3.9077 6.98081 3.9077 7.09981C3.9077 7.21881 4.0047 7.31581 4.1247 7.31581" fill="currentColor"/>
<path fill-rule="evenodd" clip-rule="evenodd" d="M4.1247 8.4789H8.5047C8.6237 8.4789 8.7207 8.3819 8.7207 8.2629C8.7207 8.1429 8.6237 8.0459 8.5047 8.0459H4.1247C4.0047 8.0459 3.9077 8.1429 3.9077 8.2629C3.9077 8.3819 4.0047 8.4789 4.1247 8.4789" fill="currentColor"/>
<path fill-rule="evenodd" clip-rule="evenodd" d="M4.1247 9.64296H8.5047C8.6237 9.64296 8.7207 9.54596 8.7207 9.42696C8.7207 9.30696 8.6237 9.20996 8.5047 9.20996H4.1247C4.0047 9.20996 3.9077 9.30696 3.9077 9.42696C3.9077 9.54596 4.0047 9.64296 4.1247 9.64296" fill="currentColor"/>
<path fill-rule="evenodd" clip-rule="evenodd" d="M11.8676 1H5.6676C5.1706 1 4.7656 1.383 4.7656 1.854V2.214C4.7656 2.385 4.9056 2.524 5.0766 2.524C5.2486 2.524 5.3876 2.385 5.3876 2.214V1.854C5.3876 1.726 5.5136 1.622 5.6676 1.622H11.8676C12.0216 1.622 12.1476 1.726 12.1476 1.854V9.868C12.1476 9.996 12.0216 10.101 11.8676 10.101H10.9046C10.7336 10.101 10.5936 10.24 10.5936 10.411C10.5936 10.583 10.7336 10.722 10.9046 10.722H11.8676C12.3646 10.722 12.7686 10.338 12.7686 9.868V1.854C12.7686 1.383 12.3646 1 11.8676 1" fill="currentColor"/>
</svg>
