<svg width="14" height="14" viewBox="0 0 14 14" fill="none" xmlns="http://www.w3.org/2000/svg">
<mask id="mask0" mask-type="alpha" maskUnits="userSpaceOnUse" x="1" y="1" width="12" height="12">
<path fill-rule="evenodd" clip-rule="evenodd" d="M11.1998 11.7187V0L0 0V11.7187H11.1998Z" transform="translate(1.00024 1.00024)" fill="white"/>
</mask>
<g mask="url(#mask0)">
<path fill-rule="evenodd" clip-rule="evenodd" d="M10.5671 9.24682L3.24792 11.0476V10.3356C3.25752 10.334 3.26792 10.3348 3.27672 10.3324C3.73192 10.2252 4.08472 9.96522 4.26152 9.59482C4.42072 9.25962 4.42392 8.88122 4.29752 8.51082C4.13993 8.05082 3.71992 8.36682 3.82072 8.62602C3.92552 8.89242 3.93672 9.15642 3.83112 9.37802C3.73272 9.58522 3.53672 9.73882 3.27672 9.82282C3.26792 9.82602 3.25672 9.82442 3.24792 9.82682V9.39722V8.16922C3.25752 8.16682 3.26792 8.16762 3.27672 8.16602C3.73192 8.05882 4.08472 7.79882 4.26152 7.42762C4.42072 7.09322 4.42392 6.71482 4.29752 6.34442C4.13993 5.88442 3.71992 6.20042 3.82072 6.45962C3.92552 6.72602 3.93672 6.99002 3.83112 7.21162C3.73272 7.41882 3.53672 7.57242 3.27672 7.65642C3.26792 7.65882 3.25672 7.65802 3.24792 7.66042V5.90442C3.25752 5.90202 3.26792 5.90282 3.27672 5.90122C3.73192 5.79322 4.08472 5.53402 4.26152 5.16282C4.42072 4.82842 4.42392 4.45002 4.29752 4.07962C4.13993 3.61882 3.71992 3.93562 3.82072 4.19482C3.92552 4.46122 3.93672 4.72522 3.83112 4.94602C3.73272 5.15402 3.53672 5.30682 3.27672 5.39162C3.26792 5.39402 3.25672 5.39322 3.24792 5.39562V2.92682L9.30233 1.54842L9.84472 1.41322L10.5671 1.23242V9.24682ZM1.61354 10.2364L1.63114 10.2332L1.17274 9.94922L1.17194 9.87402C1.20554 9.89642 1.23114 9.92602 1.26714 9.94682C1.33274 9.98602 1.39994 10.0236 1.46954 10.0588C1.84314 10.2468 2.23434 10.3476 2.61594 10.3724V10.886L1.61354 10.2364ZM0.556738 7.72265C0.577538 7.68025 0.599138 7.64105 0.627938 7.60425V8.63385C0.454338 8.30185 0.434338 7.98025 0.556738 7.72265ZM0.556738 5.55639C0.577538 5.51399 0.599138 5.47479 0.627938 5.43799V6.46679C0.454338 6.13559 0.434338 5.81319 0.556738 5.55639ZM0.556738 3.29156C0.577538 3.24916 0.599138 3.20996 0.627938 3.17236V4.20196C0.454338 3.87076 0.434338 3.54836 0.556738 3.29156ZM2.61589 2.85873V5.44753C2.30629 5.42353 1.98629 5.33953 1.67909 5.18433C1.53029 5.10993 1.39269 5.02273 1.26469 4.92753C1.23029 4.90113 1.20309 4.87073 1.16949 4.84353V1.96753L2.61589 2.85873ZM1.16949 7.70605C1.20469 7.72925 1.23029 7.75885 1.26709 7.78045C1.33269 7.81965 1.39989 7.85725 1.46949 7.89245C1.84309 8.08045 2.23429 8.18045 2.61589 8.20605V9.48446V9.87965C2.30629 9.85485 1.98629 9.77166 1.67909 9.61646C1.53029 9.54206 1.39269 9.45485 1.26469 9.35965C1.23029 9.33325 1.20309 9.30205 1.16949 9.27485V7.70605ZM2.61589 7.71316C2.30629 7.68836 1.98629 7.60436 1.67909 7.44996C1.53029 7.37476 1.39269 7.28836 1.26469 7.19316C1.23029 7.16676 1.20309 7.13556 1.16949 7.10836V5.44116C1.20469 5.46356 1.23029 5.49396 1.26709 5.51476C1.33269 5.55476 1.39989 5.59236 1.46949 5.62756C1.84309 5.81476 2.23429 5.91556 2.61589 5.94116V7.71316ZM9.30231 0.627441V0.942641L3.00791 2.37624L1.59991 1.52584L9.30231 0.627441ZM11.1007 0.629935C11.0311 0.573935 10.9439 0.553935 10.8567 0.573135L9.84472 0.806735V0.295535C9.84472 0.210735 9.80952 0.129935 9.74632 0.0747354C9.68312 0.0187354 9.60072 -0.00766455 9.51672 0.00193545L0.868724 1.01954C0.720724 1.03714 0.627924 1.16354 0.627924 1.31314V1.44434V2.53234C0.344724 2.66674 0.234324 2.84834 0.127124 3.07474C-0.0728762 3.49474 -0.0376761 3.99714 0.238324 4.48994C0.311124 4.61954 0.401524 4.74274 0.500724 4.86114C0.305524 4.98754 0.217524 5.14834 0.127124 5.33954C-0.0728762 5.75954 -0.0376761 6.26194 0.238324 6.75474C0.299124 6.86354 0.369524 6.96754 0.448724 7.06834C0.291924 7.18834 0.208724 7.33394 0.127124 7.50594C-0.0728762 7.92594 -0.0376761 8.42914 0.238324 8.92194C0.340724 9.10433 0.474324 9.27474 0.627924 9.43394V10.0451V10.1107C0.627924 10.2115 0.660724 10.3059 0.745524 10.3603L2.70552 11.6155C2.71912 11.6299 2.73432 11.6443 2.74952 11.6563C2.80232 11.6971 2.87672 11.7187 2.94232 11.7187C2.94232 11.7187 2.94632 11.7187 2.94872 11.7187H2.95112C2.95592 11.7187 2.95832 11.7179 2.96152 11.7179C2.97832 11.7171 2.99592 11.7147 3.01192 11.7115C3.01912 11.7099 3.02632 11.7091 3.03352 11.7067L10.9839 9.76514C11.1167 9.73314 11.1999 9.61473 11.1999 9.47873V0.861935C11.1999 0.771535 11.1711 0.686735 11.1007 0.629935Z" transform="translate(1.00024 1.00024)" fill="#6F6F6F"/>
</g>
</svg>
