<svg width="178" height="25" viewBox="0 0 178 25" fill="none" xmlns="http://www.w3.org/2000/svg">
<path fill-rule="evenodd" clip-rule="evenodd" d="M16.5524 7.45951C16.5449 7.4651 16.4816 7.51915 16.4592 7.69064L15.6875 7.6049L16.4294 0.855469L16.6232 7.45951L16.5636 7.45205L16.5524 7.45951ZM16.2475 9.40072C16.2027 9.91331 16.145 10.4613 16.1096 10.5471C16.0965 10.5657 16.0033 10.7111 15.8971 10.8677C15.8169 10.987 15.7312 11.1137 15.6641 11.1939L15.9977 8.38672L16.3258 8.41281C16.3165 8.53024 16.2848 8.95523 16.2475 9.40072ZM15.8633 11.8228L15.9826 11.6289L15.99 11.8321L15.8633 11.8228ZM15.128 8.26172L15.4188 8.31018L15.0516 11.6523L14.7422 11.5796L15.128 8.26172ZM14.7062 13.641L14.4135 13.9355L1.075 11.2197C0.989254 11.1135 0.96875 10.983 0.96875 10.8786C0.96875 10.8227 0.976206 10.7761 0.979934 10.75L14.4359 13.3763L14.4415 13.3745C14.462 13.3726 14.4788 13.3707 14.4937 13.3707C14.6876 13.3707 14.7043 13.5348 14.7062 13.6186V13.6373V13.641ZM2.97341 9.5223C2.80192 9.60432 1.46732 10.2437 1.04234 10.4226L0.988281 9.92305C1.08894 9.88205 1.51206 9.71615 1.94636 9.5484C2.19427 9.45333 2.4459 9.35641 2.64348 9.28558C2.78887 9.22966 2.9119 9.18865 2.96781 9.17188L2.97341 9.5223ZM0.585938 9.37809L1.81243 0.585759C1.82361 0.585759 1.83293 0.583895 1.84225 0.582031L3.06688 6.02295C3.03519 6.03786 3.00164 6.05837 2.96995 6.08446L2.95504 6.09378L2.9569 8.47221C2.90099 8.50949 2.67545 8.6586 2.35484 8.82077C1.98391 9.00717 1.48437 9.2122 0.979235 9.28676C0.979235 9.28676 0.792838 9.31472 0.585938 9.37809ZM3.58396 6.81347L3.60819 9.57587L3.46839 9.54978L3.46094 6.79297L3.58396 6.81347ZM4.0332 6.89062L4.21027 6.9074L4.21959 9.70522L3.99219 9.66421L4.0332 6.89062ZM4.64612 6.95312L4.83811 6.96431L4.83997 9.82364L4.59766 9.78636L4.64612 6.95312ZM5.28674 7.03125L5.49178 7.04803L5.45823 9.94277L5.23828 9.89617L5.28674 7.03125ZM5.90571 8.58599C5.91131 8.2132 5.91876 7.84413 5.92995 7.56268C5.93367 7.42288 5.93927 7.30545 5.94672 7.22343C5.95045 7.18243 5.95231 7.15074 5.95418 7.12837C5.95604 7.12278 5.95604 7.12092 5.95791 7.11719L6.17413 7.13024L6.1033 10.0678L5.89453 10.0343C5.8964 9.89636 5.89826 9.24211 5.90571 8.58599ZM6.61886 7.19922L6.85185 7.22345L6.76797 10.2039L6.53125 10.1387L6.61886 7.19922ZM7.31504 7.27344L7.55922 7.29208L7.45857 10.2987L7.16406 10.2576L7.31504 7.27344ZM8.00921 7.35547L8.2683 7.36665L8.1546 10.4329L7.875 10.377L8.00921 7.35547ZM8.74047 7.45312L8.9977 7.4699L8.84671 10.5585L8.58203 10.497L8.74047 7.45312ZM9.46428 7.5625L9.75319 7.57368L9.5873 10.6697L9.28906 10.6082L9.46428 7.5625ZM10.2202 7.66406L10.5278 7.66965L10.3265 10.7974L10.0469 10.7545L10.2202 7.66406ZM10.9798 7.72656L11.3041 7.76384L11.0935 10.9289L10.7617 10.8729L10.9798 7.72656ZM11.7773 7.83203L12.0811 7.88236L11.8556 11.0567L11.5312 11.0064L11.7773 7.83203ZM12.5695 7.94141L12.9013 7.97869L12.6385 11.2388L12.3086 11.1642L12.5695 7.94141ZM13.4181 8.04688L13.7816 8.08975L13.4479 11.3554L13.0938 11.3051L13.4181 8.04688ZM14.2555 8.14844L14.6097 8.18013L14.2909 11.4868L13.9219 11.4234L14.2555 8.14844ZM16.9397 7.5528C16.9304 7.5267 16.9043 7.49501 16.8652 7.49501L16.8186 7.48756L16.6098 0.43244C16.6601 0.387705 16.69 0.322466 16.69 0.249772C16.69 0.111838 16.5781 0 16.4365 0C16.2985 0 16.1867 0.111838 16.1867 0.251636C16.1867 0.328058 16.2221 0.397025 16.278 0.443624L15.4952 7.58448L3.45393 6.23684C3.45207 6.20328 3.44648 6.14737 3.42597 6.09517C3.40174 6.02994 3.34769 5.96283 3.25262 5.96283L2.01681 0.462264C2.03918 0.423121 2.05223 0.380249 2.05223 0.33365C2.05223 0.195717 1.93853 0.0838785 1.80059 0.0838785C1.66266 0.0838785 1.54896 0.195717 1.54896 0.335514C1.54896 0.406345 1.57878 0.471584 1.62724 0.514455L0.385841 9.39812L0.486496 9.41117C0.251636 9.49691 0.0055919 9.62739 0 9.84921C0 9.92376 0.0316874 10.0021 0.0950623 10.0841L0.0987903 10.0915L0.109974 10.0952C0.111838 10.0952 0.247908 10.1381 0.369066 10.14C0.406345 10.1381 0.439896 10.1363 0.471584 10.1232C0.486496 10.291 0.536823 10.8688 0.602062 11.5566L15.141 14.6471V14.6377L15.5157 14.0692L16.4271 12.1456V11.9331L16.9509 7.69073C16.9509 7.69073 16.9528 7.66836 16.9528 7.63854C16.9528 7.61244 16.9509 7.58076 16.9397 7.5528Z" transform="translate(3.44922 4.88281)" fill="white"/>
<path fill-rule="evenodd" clip-rule="evenodd" d="M0.438651 23.427L23.427 23.4102L23.4102 0.421875L0.421875 0.438651L0.438651 23.427ZM23.8513 23.8346L0.0149117 23.8513L0 0.0149117L23.8346 0L23.8513 23.8346Z" fill="white"/>
<path fill-rule="evenodd" clip-rule="evenodd" d="M3.36719 7.47365H4.47625C5.51075 7.47365 6.28616 7.26861 6.80062 6.85854C7.31507 6.45033 7.5723 5.85386 7.5723 5.07286C7.5723 4.28254 7.35794 3.70098 6.9255 3.32259C6.49493 2.94607 5.81831 2.75781 4.89937 2.75781H3.36719V7.47365ZM10.9732 4.95256C10.9732 6.66368 10.4401 7.97033 9.37203 8.87621C8.30211 9.78024 6.78484 10.2332 4.81276 10.2332H3.36819V15.8829H0V0H5.07558C7.00106 0 8.46614 0.413801 9.46896 1.24327C10.4736 2.07273 10.9732 3.31041 10.9732 4.95256Z" transform="translate(28.7812 3.92969)" fill="white"/>
<path fill-rule="evenodd" clip-rule="evenodd" d="M3.37891 6.27865C3.37891 7.48091 3.57649 8.39053 3.97165 9.00564C4.36495 9.62075 5.00988 9.9283 5.90085 9.9283C6.78251 9.9283 7.41999 9.62261 7.80583 9.01123C8.19353 8.39985 8.38925 7.48837 8.38925 6.27865C8.38925 5.07639 8.19167 4.1761 7.80024 3.57404C7.41067 2.97384 6.7676 2.67188 5.87849 2.67188C4.99497 2.67188 4.35563 2.97197 3.96606 3.56844C3.57462 4.16678 3.37891 5.06894 3.37891 6.27865ZM11.7765 6.27971C11.7765 8.25738 11.2546 9.80447 10.2127 10.9191C9.16886 12.0338 7.71683 12.593 5.85472 12.593C4.68788 12.593 3.65897 12.3376 2.76986 11.8269C1.87888 11.3161 1.1948 10.5817 0.715764 9.62553C0.236724 8.66931 0 7.55466 0 6.27971C0 4.29645 0.518183 2.75308 1.55268 1.65148C2.58905 0.551734 4.04295 0 5.91996 0C7.0868 0 8.11571 0.2535 9.00669 0.760499C9.8958 1.2675 10.5799 1.99631 11.0589 2.94507C11.538 3.89383 11.7765 5.00475 11.7765 6.27971Z" transform="translate(40.6328 7.21875)" fill="white"/>
<path fill-rule="evenodd" clip-rule="evenodd" d="M6.77925 0C7.22846 0 7.60126 0.0335514 7.89949 0.0969263L7.64972 3.20416C7.38131 3.13333 7.05325 3.09605 6.67114 3.09605C5.61427 3.09605 4.7904 3.36819 4.19952 3.9106C3.60864 4.45488 3.31413 5.21352 3.31413 6.1921V12.3749H0V0.227404H2.51076L2.99912 2.27031H3.16315C3.53967 1.58996 4.04667 1.04196 4.68788 0.624429C5.33095 0.208764 6.02621 0 6.77925 0Z" transform="translate(54.0352 7.4375)" fill="white"/>
<path fill-rule="evenodd" clip-rule="evenodd" d="M5.67205 12.5911C1.89193 12.5911 0 10.5165 0 6.36545C0 4.30204 0.514455 2.72512 1.54336 1.6347C2.57227 0.544279 4.04481 0 5.9647 0C7.37013 0 8.63017 0.274003 9.74669 0.825738L8.7681 3.38869C8.24619 3.17806 7.76156 3.00658 7.31234 2.87237C6.86313 2.73817 6.41205 2.67107 5.9647 2.67107C4.24053 2.67107 3.37937 3.89569 3.37937 6.34308C3.37937 8.71964 4.24053 9.90699 5.9647 9.90699C6.60217 9.90699 7.19119 9.82311 7.73546 9.65162C8.27788 9.482 8.82216 9.21546 9.36457 8.85385V11.6889C8.82775 12.03 8.2872 12.2649 7.74106 12.3954C7.19305 12.5259 6.50338 12.5911 5.67205 12.5911Z" transform="translate(62.2891 7.23438)" fill="white"/>
<path fill-rule="evenodd" clip-rule="evenodd" d="M11.2118 16.9043H7.8995V9.81006C7.8995 8.05607 7.24711 7.18 5.94419 7.18C5.01594 7.18 4.34491 7.49688 3.93484 8.1269C3.52104 8.75506 3.31413 9.77651 3.31413 11.1894V16.9043H0V0H3.31413V3.44275C3.31413 3.71116 3.28804 4.34118 3.23958 5.33281L3.16315 6.31139H3.33464C4.07463 5.12405 5.24893 4.52944 6.85567 4.52944C8.28347 4.52944 9.36644 4.91342 10.1046 5.68137C10.8446 6.44933 11.2118 7.54907 11.2118 8.98432V16.9043Z" transform="translate(73.3555 2.92188)" fill="white"/>
<path fill-rule="evenodd" clip-rule="evenodd" d="M10.3543 11.702C10.3543 13.1354 9.83989 14.2649 8.80725 15.0907C7.77461 15.9164 6.33935 16.3302 4.49775 16.3302C2.80341 16.3302 1.30478 16.0115 0 15.374V12.2444C1.07365 12.7234 1.97953 13.0608 2.72139 13.2547C3.46512 13.4504 4.1436 13.5492 4.75871 13.5492C5.49871 13.5492 6.06349 13.4075 6.45865 13.1242C6.85381 12.8427 7.05325 12.4233 7.05325 11.8642C7.05325 11.5529 6.96565 11.2751 6.79043 11.0328C6.61709 10.7905 6.36172 10.5575 6.02621 10.3338C5.68883 10.1083 5.00289 9.75041 3.96652 9.25646C2.9954 8.79979 2.26658 8.36176 1.78195 7.94237C1.29732 7.52297 0.909616 7.03461 0.618837 6.47542C0.329922 5.9181 0.186397 5.26571 0.186397 4.52012C0.186397 3.11469 0.661709 2.01122 1.6142 1.20599C2.56668 0.402617 3.88264 0 5.56394 0C6.38968 0 7.17628 0.0987903 7.92559 0.294507C8.67677 0.490223 9.4615 0.764227 10.2779 1.12024L9.19123 3.73912C8.34499 3.39056 7.64413 3.14824 7.08867 3.01031C6.53507 2.87237 5.99079 2.80341 5.45397 2.80341C4.81649 2.80341 4.32813 2.95252 3.98703 3.2489C3.64592 3.54713 3.47816 3.93484 3.47816 4.41201C3.47816 4.70838 3.54713 4.96747 3.6832 5.18742C3.82113 5.40923 4.03922 5.62359 4.33932 5.83049C4.64314 6.03553 5.35145 6.40646 6.47542 6.94328C7.96101 7.65345 8.97873 8.36362 9.5286 9.07752C10.0803 9.79142 10.3543 10.6656 10.3543 11.702Z" transform="translate(86.1484 3.5)" fill="white"/>
<path fill-rule="evenodd" clip-rule="evenodd" d="M3.37891 6.27865C3.37891 7.48091 3.57649 8.39053 3.97165 9.00564C4.36495 9.62075 5.00988 9.9283 5.90085 9.9283C6.78251 9.9283 7.41999 9.62261 7.80583 9.01123C8.19353 8.39985 8.38925 7.48837 8.38925 6.27865C8.38925 5.07639 8.19167 4.1761 7.80024 3.57404C7.41067 2.97384 6.7676 2.67188 5.87849 2.67188C4.99497 2.67188 4.35563 2.97197 3.96606 3.56844C3.57462 4.16678 3.37891 5.06894 3.37891 6.27865ZM11.7765 6.27971C11.7765 8.25738 11.2546 9.80447 10.2127 10.9191C9.16886 12.0338 7.71683 12.593 5.85472 12.593C4.68788 12.593 3.65897 12.3376 2.76986 11.8269C1.87888 11.3161 1.1948 10.5817 0.715764 9.62553C0.236724 8.66931 0 7.55466 0 6.27971C0 4.29645 0.518183 2.75308 1.55268 1.65148C2.58905 0.551734 4.04295 0 5.91996 0C7.0868 0 8.11571 0.2535 9.00669 0.760499C9.8958 1.2675 10.5799 1.99631 11.0589 2.94507C11.538 3.89383 11.7765 5.00475 11.7765 6.27971Z" transform="translate(97.1914 7.23438)" fill="white"/>
<path fill-rule="evenodd" clip-rule="evenodd" d="M8.00761 7.3664H5.13896V17.0255H1.82482V7.3664H0V5.76898L1.82482 4.878V3.98889C1.82482 2.60396 2.16407 1.59369 2.84442 0.956215C3.52663 0.318738 4.61705 0 6.11568 0C7.26202 0 8.27975 0.171485 9.16886 0.510727L8.32262 2.94507C7.65532 2.73444 7.03834 2.62819 6.47542 2.62819C6.00384 2.62819 5.66273 2.76986 5.45397 3.04759C5.24334 3.32718 5.13896 3.6832 5.13896 4.1175V4.878H8.00761V7.3664Z" transform="translate(109.379 2.78906)" fill="white"/>
<path fill-rule="evenodd" clip-rule="evenodd" d="M6.34308 12.3096C6.92277 12.3096 7.61803 12.1829 8.42886 11.9294V14.3954C7.60312 14.7645 6.58912 14.9509 5.38687 14.9509C4.06158 14.9509 3.09605 14.6154 2.49212 13.9443C1.88633 13.2752 1.58437 12.2705 1.58437 10.9303V5.07372H0V3.67202L1.82296 2.56482L2.77918 0H4.89851V2.58532H8.29838V5.07372H4.89851V10.9303C4.89851 11.4 5.03085 11.7486 5.29553 11.9723C5.55835 12.1978 5.90878 12.3096 6.34308 12.3096Z" transform="translate(116.949 4.86328)" fill="white"/>
<path fill-rule="evenodd" clip-rule="evenodd" d="M11.5063 12.1475L10.5724 7.89949L9.31052 2.53313H9.23596L7.0197 12.1475H3.4558L0 0H3.30481L4.70652 5.37941C4.93019 6.34308 5.1576 7.67209 5.39059 9.36644H5.45583C5.48379 8.8147 5.61054 7.94237 5.83422 6.74756L6.00943 5.8249L7.50806 0H11.1577L12.5818 5.8249C12.6116 5.98334 12.6563 6.2182 12.7179 6.53134C12.7794 6.84263 12.839 7.17441 12.8968 7.52484C12.9546 7.87526 13.0086 8.2201 13.0552 8.55748C13.1 8.89299 13.1279 9.16327 13.1354 9.36644H13.2006C13.2659 8.84453 13.3833 8.12876 13.5492 7.22101C13.7169 6.31139 13.8344 5.69815 13.9071 5.37941L15.3628 0H18.6117L15.1149 12.1475H11.5063Z" transform="translate(125.199 7.66406)" fill="white"/>
<path fill-rule="evenodd" clip-rule="evenodd" d="M7.53831 6.76953L6.25776 6.8124C5.29409 6.84223 4.57647 7.01557 4.10488 7.33431C3.63516 7.65305 3.39844 8.13768 3.39844 8.79007C3.39844 9.72392 3.93526 10.1918 5.00891 10.1918C5.775 10.1918 6.39011 9.96996 6.84864 9.5282C7.30904 9.08644 7.53831 8.50116 7.53831 7.76862V6.76953ZM8.51833 12.3954L7.87712 10.7439H7.79138C7.23219 11.4466 6.65809 11.9331 6.06908 12.2053C5.4782 12.4774 4.70838 12.6135 3.75962 12.6135C2.59464 12.6135 1.67571 12.2798 1.00468 11.6144C0.335514 10.9471 0 9.99832 0 8.76624C0 7.47824 0.45108 6.52761 1.35324 5.91437C2.2554 5.30299 3.6161 4.96375 5.43346 4.89851L7.53975 4.83327V4.30204C7.53975 3.06995 6.90973 2.45485 5.64968 2.45485C4.68042 2.45485 3.53967 2.74749 2.22744 3.33464L1.13143 1.09601C2.5294 0.365338 4.07836 0 5.78203 0C7.41113 0 8.65999 0.354154 9.5286 1.06433C10.3972 1.7745 10.8334 2.85187 10.8334 4.30204V12.3954H8.51833Z" transform="translate(143.848 7.19922)" fill="white"/>
<path fill-rule="evenodd" clip-rule="evenodd" d="M6.77925 0C7.22847 0 7.60126 0.0335514 7.8995 0.0969263L7.64973 3.20416C7.38131 3.13333 7.05326 3.09605 6.67114 3.09605C5.61427 3.09605 4.7904 3.36819 4.19952 3.9106C3.60864 4.45488 3.31414 5.21352 3.31414 6.1921V12.3749H0V0.227404H2.51077L2.99912 2.27031H3.16315C3.53968 1.58996 4.04668 1.04196 4.68788 0.624429C5.33095 0.208764 6.02621 0 6.77925 0Z" transform="translate(156.98 7.4375)" fill="white"/>
<path fill-rule="evenodd" clip-rule="evenodd" d="M5.76914 2.35938C5.06643 2.35938 4.51656 2.58305 4.11767 3.02668C3.71878 3.47403 3.49138 4.10591 3.43359 4.92233H8.08419C8.06928 4.10591 7.85492 3.47403 7.44299 3.02668C7.03105 2.58305 6.47186 2.35938 5.76914 2.35938ZM6.23684 12.593C4.28153 12.593 2.75308 12.0524 1.65148 10.9732C0.54987 9.89394 0 8.36549 0 6.38968C0 4.35423 0.510727 2.78104 1.52845 1.66825C2.54618 0.557326 3.95161 0 5.74661 0C7.46333 0 8.80165 0.490223 9.75787 1.46694C10.7122 2.44553 11.1913 3.79504 11.1913 5.51921V7.12781H3.35701C3.39428 8.06912 3.67202 8.80352 4.19393 9.33289C4.71584 9.86225 5.44651 10.1251 6.38968 10.1251C7.12036 10.1251 7.81189 10.0486 8.46428 9.89767C9.11666 9.74482 9.79701 9.50251 10.5072 9.17072V11.7337C9.92563 12.0245 9.30679 12.2388 8.64881 12.3805C7.98896 12.5221 7.18559 12.593 6.23684 12.593Z" transform="translate(165.234 7.21875)" fill="white"/>
</svg>
