<svg width="14" height="14" viewBox="0 0 14 14" fill="none" xmlns="http://www.w3.org/2000/svg">
<path fill-rule="evenodd" clip-rule="evenodd" d="M7 0C3.15 0 0 3.15002 0 7C0 10.85 3.15 14 7 14C10.85 14 14 10.85 14 7C14 3.15002 10.85 0 7 0ZM7.7875 11.375H6.0375V9.625H7.7875V11.375ZM8.575 7.69995C8.925 7.61243 9.275 7.4375 9.625 7.08752C10.325 6.38745 10.5 5.42493 10.15 4.46252C9.625 3.32495 8.4 2.53748 7 2.53748C4.725 2.53748 3.9375 4.375 3.85 5.33752L5.6 5.59998C5.60807 5.57581 5.61689 5.5448 5.6272 5.50867C5.72872 5.15271 5.97549 4.28748 7.0875 4.28748C7.875 4.28748 8.4 4.72498 8.575 5.16248C8.75 5.51245 8.575 5.6875 8.4875 5.77502C8.3125 5.94995 8.1375 6.03748 7.875 6.125C7.175 6.47498 6.125 7 6.125 8.75H7.875C7.875 8.07837 7.97812 8.02527 8.26353 7.87866C8.34992 7.83423 8.45301 7.78125 8.575 7.69995Z" fill="#6F6F6F"/>
</svg>
