<svg width="14" height="14" viewBox="0 0 14 14" fill="none" xmlns="http://www.w3.org/2000/svg">
<path fill-rule="evenodd" clip-rule="evenodd" d="M12.314 2.09804C12.022 2.09804 11.785 1.86204 11.785 1.56904C11.785 1.27704 12.022 1.04004 12.314 1.04004C12.606 1.04004 12.843 1.27704 12.843 1.56904C12.843 1.86204 12.606 2.09804 12.314 2.09804ZM1.202 9.97602H12.797V3.19202H1.202V9.97602ZM1.577 1.04004H5.974C6.266 1.04004 6.503 1.27704 6.503 1.56904C6.503 1.86204 6.266 2.09804 5.974 2.09804H1.577C1.285 2.09804 1.049 1.86204 1.049 1.56904C1.049 1.27704 1.285 1.04004 1.577 1.04004ZM9.249 1.04004C9.541 1.04004 9.778 1.27704 9.778 1.56904C9.778 1.86204 9.541 2.09804 9.249 2.09804C8.957 2.09804 8.72 1.86204 8.72 1.56904C8.72 1.27704 8.957 1.04004 9.249 1.04004ZM10.782 1.04004C11.074 1.04004 11.311 1.27704 11.311 1.56904C11.311 1.86204 11.074 2.09804 10.782 2.09804C10.49 2.09804 10.253 1.86204 10.253 1.56904C10.253 1.27704 10.49 1.04004 10.782 1.04004ZM0 11.179H14V0H0V11.179Z" transform="translate(0.00039959 1.00061)" fill="currentColor"/>
</svg>
