<?xml version="1.0" encoding="UTF-8"?>
<svg width="50px" height="50px" viewBox="0 0 50 50" version="1.1" xmlns="http://www.w3.org/2000/svg" xmlns:xlink="http://www.w3.org/1999/xlink">
    <!-- Generator: Sketch 54.1 (76490) - https://sketchapp.com -->
    <title>lifestyle / smoke</title>
    <desc>Created with Sketch.</desc>
    <g id="lifestyle-/-smoke" stroke="none" stroke-width="1" fill="none" fill-rule="evenodd">
        <g id="ic_smoking_rooms_24px" transform="translate(1.000000, 3.000000)" fill="#999999" fill-rule="nonzero">
            <path d="M0,33.7647059 L34.5,33.7647059 L34.5,41 L0,41 L0,33.7647059 Z M42.55,33.7647059 L46,33.7647059 L46,41 L42.55,41 L42.55,33.7647059 Z M36.8,33.7647059 L40.25,33.7647059 L40.25,41 L36.8,41 L36.8,33.7647059 Z M38.755,13.8194118 C40.181,12.3482353 41.055,10.3223529 41.055,8.07941176 C41.055,3.61764706 37.605,0 33.35,0 L33.35,3.61764706 C35.696,3.61764706 37.605,5.61941176 37.605,8.07941176 C37.605,10.5394118 35.696,12.5411765 33.35,12.5411765 L33.35,16.1588235 C38.502,16.1588235 42.55,20.5723529 42.55,25.9747059 L42.55,31.3529412 L46,31.3529412 L46,25.9505882 C46,20.5964706 43.056,15.9658824 38.755,13.8194118 Z M32.269,19.7764706 L28.75,19.7764706 C26.404,19.7764706 24.495,17.4129412 24.495,14.9529412 C24.495,12.4929412 26.404,10.7323529 28.75,10.7323529 L28.75,7.11470588 C24.495,7.11470588 21.045,10.7323529 21.045,15.1941176 C21.045,19.6558824 24.495,23.2735294 28.75,23.2735294 L32.269,23.2735294 C34.684,23.2735294 36.8,25.0582353 36.8,28.2176471 L36.8,31.3529412 L40.25,31.3529412 L40.25,27.3976471 C40.25,23.0323529 36.57,19.7764706 32.269,19.7764706 L32.269,19.7764706 Z" id="Shape"></path>
        </g>
    </g>
</svg>