<?xml version="1.0" encoding="UTF-8"?>
<svg width="20px" height="20px" viewBox="0 0 20 20" version="1.1" xmlns="http://www.w3.org/2000/svg" xmlns:xlink="http://www.w3.org/1999/xlink">
    <!-- Generator: Sketch 54.1 (76490) - https://sketchapp.com -->
    <title>icon / sms / inactive</title>
    <desc>Created with Sketch.</desc>
    <g id="icon-/-sms-/-inactive" stroke="none" stroke-width="1" fill="none" fill-rule="evenodd">
        <g id="Group">
            <g id="bubble" fill="#FFFFFF" fill-rule="nonzero">
                <path d="M18,0 L2,0 C0.9,0 0.01,0.9 0.01,2 L0,20 L4,16 L18,16 C19.1,16 20,15.1 20,14 L20,2 C20,0.9 19.1,0 18,0 Z" id="Shape"></path>
            </g>
            <path d="M4.78,11.34 C3.8125,11.34 3.1225,11.0175 2.65,10.545 L3.235,9.7125 C3.5875,10.08 4.135,10.395 4.825,10.395 C5.4175,10.395 5.695,10.1325 5.695,9.84 C5.695,8.97 2.815,9.5775 2.815,7.695 C2.815,6.8625 3.535,6.1725 4.7125,6.1725 C5.5075,6.1725 6.1675,6.4125 6.6625,6.87 L6.07,7.665 C5.665,7.29 5.125,7.1175 4.615,7.1175 C4.165,7.1175 3.91,7.3125 3.91,7.6125 C3.91,8.4 6.7825,7.8675 6.7825,9.735 C6.7825,10.65 6.1225,11.34 4.78,11.34 Z M12.9175,11.25 L11.845,11.25 L11.845,7.6425 L10.435,11.25 L9.97,11.25 L8.56,7.6425 L8.56,11.25 L7.495,11.25 L7.495,6.2475 L8.9875,6.2475 L10.2025,9.375 L11.4175,6.2475 L12.9175,6.2475 L12.9175,11.25 Z M15.6925,11.34 C14.725,11.34 14.035,11.0175 13.5625,10.545 L14.1475,9.7125 C14.5,10.08 15.0475,10.395 15.7375,10.395 C16.33,10.395 16.6075,10.1325 16.6075,9.84 C16.6075,8.97 13.7275,9.5775 13.7275,7.695 C13.7275,6.8625 14.4475,6.1725 15.625,6.1725 C16.42,6.1725 17.08,6.4125 17.575,6.87 L16.9825,7.665 C16.5775,7.29 16.0375,7.1175 15.5275,7.1175 C15.0775,7.1175 14.8225,7.3125 14.8225,7.6125 C14.8225,8.4 17.695,7.8675 17.695,9.735 C17.695,10.65 17.035,11.34 15.6925,11.34 Z" id="SMS" fill="#A2A2A2"></path>
        </g>
    </g>
</svg>