<?xml version="1.0" encoding="UTF-8"?>
<svg width="50px" height="50px" viewBox="0 0 50 50" version="1.1" xmlns="http://www.w3.org/2000/svg" xmlns:xlink="http://www.w3.org/1999/xlink">
    <title>lifestyle / Running Shoe / Active</title>
    <g id="lifestyle-/-Running-Shoe-/-Active" stroke="none" stroke-width="1" fill="none" fill-rule="evenodd">
        <ellipse id="Oval" fill="#FFFFFF" fill-rule="nonzero" cx="14" cy="10.5" rx="1" ry="1.5"></ellipse>
        <path d="M46.8750092,31.14725 C46.0117663,29.789 44.7022771,27.98225 43.6777855,27.69875 C43.1122902,27.27875 42.2385474,26.94125 41.3025551,26.5895 L40.825559,26.408 C40.8383089,26.03075 40.7220598,25.75775 40.4640619,25.577 C38.8860749,24.47525 37.2855881,22.84625 35.7481007,21.014 C35.7893504,20.906 35.8133502,20.789 35.8133502,20.663 C35.8133502,20.18975 35.4946028,19.8065 35.102356,19.8065 C34.989107,19.8065 34.8856078,19.81625 34.7738587,19.81775 C34.3253562,19.2486766 33.8867934,18.6718392 33.4583695,18.0875 C33.5318689,17.95325 33.5851185,17.801 33.5851185,17.6285 C33.5851185,17.1545 33.2663711,16.77125 32.8748743,16.77125 C32.8381246,16.77125 32.7098757,16.772 32.5141273,16.7795 C32.0142322,16.0698871 31.5224542,15.3545905 31.0388894,14.63375 C31.0696392,14.5385 31.089889,14.43725 31.089889,14.33 C31.089889,13.856 30.7718916,13.472 30.3803948,13.472 C30.3421452,13.472 30.3076454,13.475 30.2708957,13.475 C29.8153133,12.7794903 29.3635602,12.0814797 28.9156569,11.381 C28.9381567,11.29625 28.9599065,11.20925 28.9599065,11.11625 C28.9599065,10.643 28.6404091,10.25975 28.2496624,10.25975 L28.2001628,10.26125 C26.3731778,7.40825 26.0409305,6.97775 25.5346847,6.97775 C25.2001874,6.97775 24.88969,7.00025 24.5874425,7.031 C24.4734434,6.82625 24.3571943,6.6275 24.2439453,6.41975 C23.8906982,5.77325 23.1362044,5 21.5544674,5 C19.1582371,5 15.8702641,6.77975 13.94053,7.9685 C12.111295,7.19225 10.5558078,6.79025 9.33106787,6.79025 C8.08082814,6.79025 7.49883293,7.1975 7.25508493,7.44425 C7.24008505,7.457 7.2220852,7.4645 7.20783532,7.4795 C5.8593464,8.9525 4.99160354,11.7065 4.43435812,14.43425 C3.54636542,17.2595 3.44961621,19.55975 3.4638661,20.62025 C3.40885809,20.6845272 3.36153847,20.7550038 3.32286725,20.83025 C2.80462151,21.9065 2.91037065,26.08325 3.63936465,26.99 C5.50909928,29.32475 7.42233356,30.83825 9.4480669,32.441 C11.7392981,34.25375 14.1077786,36.128 16.8917557,39.46925 C19.290236,42.34925 24.283695,44 30.5933931,44 C38.999324,44 48,41.01575 48,36.575 C48,31.6865 47.4727543,31.1705 46.8750092,31.14725 M46.049266,31.90175 C44.4240294,34.4225 36.8783414,35.7815 30.234896,35.7815 C28.0171643,35.7815 26.0596804,35.6285 24.7209414,35.3495 C22.8669566,34.96325 21.120221,34.32425 19.4822344,33.53375 C21.0204718,31.52075 23.8044489,31.208 26.6409256,31.208 C27.7426665,31.208 28.8796572,31.2575 30.0848973,31.3115 C31.3156371,31.3655 32.5883767,31.421 33.8468663,31.421 C36.8843414,31.421 40.7085599,31.1195 43.5697864,28.81775 C44.0820322,29.12675 45.0997738,30.3965 46.049266,31.90175 M37.1288394,25.0265 C37.5630858,25.4795 37.9725824,25.90925 38.3243295,26.2925 C38.8050756,26.8175 39.8310672,27.20375 40.9155582,27.6125 C41.4765536,27.824 42.041299,28.04075 42.4875453,28.2605 C39.9645661,30.0665 36.7268427,30.32825 33.8468663,30.32825 C32.671626,30.32825 31.4746358,30.27725 30.3091454,30.2255 C30.3068954,29.03075 30.1328969,27.81575 29.8381493,27.07175 C31.5383853,26.07275 33.9826152,25.1105 37.1288394,25.0265 M33.8573663,21.5615 C34.4294529,22.185977 35.0077266,22.8047575 35.592102,23.41775 C32.7541253,23.738 30.5288936,24.69725 28.9419067,25.676 C28.3857589,24.891889 27.8252548,24.1108769 27.2604205,23.333 C28.7626581,22.502 30.9113905,21.73475 33.8573663,21.5615 M32.4376279,19.9745 C29.7249002,20.31125 27.7111668,21.12575 26.2704286,21.989 C25.8174323,21.3755 25.372686,20.7815 24.9391896,20.20925 C27.1306715,19.157 29.6454009,18.746 31.2466377,18.587 C31.6516344,19.06925 32.0468811,19.5275 32.4376279,19.9745 M23.913948,18.87425 C23.3721337,18.1760376 22.8233608,17.4832531 22.2677115,16.796 C23.8471985,16.1135 25.975681,15.47075 28.6194093,15.263 C29.060441,15.8533057 29.5107432,16.436628 29.9701482,17.01275 C28.2099127,17.267 25.9299314,17.7935 23.913948,18.87425 M30.0976472,15.1955 C30.4283944,15.6905 30.7696416,16.193 31.1221387,16.7015 C30.7246723,16.2062827 30.3338901,15.7057373 29.9498984,15.2 C29.999398,15.1985 30.0473976,15.1955 30.0976472,15.1955 M27.9991644,11.981 C28.3111618,12.46775 28.6396591,12.97775 28.9876563,13.514 C28.896157,13.5185 28.8091578,13.529 28.7184085,13.535 C28.3536475,13.0248143 27.9953716,12.5100229 27.6436673,11.99075 C27.7636663,11.98775 27.8784154,11.9825 27.9991644,11.981 M21.1554707,15.4535 C20.6365071,14.8362635 20.1082005,14.2269432 19.5707337,13.62575 C21.1907204,12.9245 23.4422019,12.2585 26.3634279,12.04775 C26.7279249,12.59825 27.0931719,13.1345 27.4576689,13.6535 C24.7989407,13.9835 22.694458,14.71925 21.1554707,15.4535 M25.3824359,8.07425 C25.6479337,8.34725 26.2486788,9.25475 26.9214233,10.29725 C26.7954243,10.30325 26.6686753,10.3085 26.5449264,10.316 C26.0778427,9.58142822 25.6247646,8.83804393 25.1859375,8.08625 C25.252687,8.084 25.3134365,8.07575 25.3824359,8.07425 M21.5544674,6.0935 C22.4019604,6.0935 22.9667058,6.37175 23.2802032,6.944 C23.9242629,8.1216348 24.6022915,9.2803705 25.3134365,10.41875 C22.2714615,10.7495 19.9779803,11.555 18.3662436,12.341 C16.7882566,10.70975 15.4547675,9.584 14.3770264,8.99 C16.1845115,7.865 19.3742353,6.0935 21.5544674,6.0935 M8.07857816,8.165 C8.19407721,8.0825 8.55032428,7.883 9.33031787,7.883 C9.9348129,7.883 10.902305,8.01425 12.3205433,8.51075 C10.4170589,8.72525 9.36406759,10.21925 8.51507457,11.45225 C7.96907906,12.24275 7.45608328,12.989 6.97608722,13.0145 C6.68208964,12.6395 7.20708533,10.34675 8.07857816,8.165 M5.86234638,13.08575 C5.90134606,13.29575 5.96734552,13.47875 6.06484471,13.62425 C6.26584306,13.9205 6.5778405,14.08175 6.94383749,14.08175 C8.03432853,14.08175 8.707073,13.10525 9.41956714,12.07025 C10.2715601,10.83575 11.1513029,9.55925 12.7802895,9.55925 C13.690782,9.55925 15.2657691,10.72625 17.3515019,12.8735 C16.8302562,13.175 16.4290095,13.45025 16.126012,13.6745 C16.0420757,13.6462743 15.9543047,13.6310976 15.8657641,13.6295 C15.2935189,13.6295 14.8300227,14.189 14.8300227,14.879 C14.8300227,15.569 15.2935189,16.1285 15.8657641,16.1285 C16.36676,16.1285 16.7845066,15.69875 16.8805058,15.12725 C17.4010417,14.7499626 17.9496326,14.4129826 18.5214923,14.11925 C19.0720932,14.7287 19.6119224,15.3477959 20.140729,15.97625 C19.6596566,16.2437449 19.1939321,16.537955 18.7457405,16.8575 C18.6568907,16.8256135 18.5633808,16.8086346 18.4689928,16.80725 C17.8974974,16.80725 17.4340013,17.366 17.4340013,18.05675 C17.4340013,18.7475 17.8974974,19.30625 18.4689928,19.30625 C18.9617387,19.30625 19.3719853,18.88925 19.4769845,18.332 C20.034067,17.9400991 20.6185645,17.5886959 21.2259701,17.2805 C21.7832155,17.96225 22.3607108,18.683 22.9554559,19.4465 C22.3422782,19.8512764 21.7780262,20.3256849 21.2739697,20.86025 C21.2462199,20.85725 21.2199701,20.8505 21.1914704,20.8505 C20.6177251,20.8505 20.1549789,21.41 20.1549789,22.1 C20.1549789,22.78925 20.6177251,23.3495 21.1914704,23.3495 C21.7517158,23.3495 22.206962,22.808 22.2219619,22.1345 C22.7336901,21.593597 23.3168109,21.1250275 23.9551977,20.74175 C24.4089439,21.33725 24.8731901,21.953 25.3479362,22.5905 C24.7996877,22.9852785 24.2919556,23.4334732 23.8321987,23.9285 C23.8089489,23.927 23.786449,23.92025 23.7631992,23.92025 C23.1924539,23.92025 22.7282077,24.4805 22.7282077,25.1705 C22.7282077,25.85975 23.1924539,26.42 23.7631992,26.42 C24.3286946,26.42 24.7846908,25.8725 24.7959407,25.19375 C25.2563117,24.7122909 25.766976,24.2815794 26.3191782,23.909 C26.894698,24.6976914 27.4649559,25.490209 28.0299142,26.2865 C27.5161641,26.6535125 27.0284972,27.0557283 26.5704262,27.49025 C26.5224265,27.482 26.4751769,27.473 26.4264273,27.473 C25.853432,27.473 25.3906859,28.03325 25.3906859,28.7225 C25.3906859,29.4125 25.853432,29.972 26.4264273,29.972 C26.9619229,29.972 27.3991693,29.47625 27.4501689,28.84325 C27.9079052,28.4152351 28.396466,28.0214253 28.9119069,27.665 C29.1301551,28.283 29.2231543,29.249 29.2188098,30.1805 C28.3604518,30.1408149 27.5015318,30.1185603 26.6424256,30.11375 C23.420452,30.11375 20.2502281,30.5015 18.4847426,33.0305 C13.7927812,30.52025 10.1118114,26.801 7.70058127,24.074 C7.75458083,21.641 7.15308577,20.12075 6.55084072,18.6665 C6.04834485,17.45 5.57434875,16.298 5.52334917,14.6075 C5.62459833,14.09675 5.73634742,13.58525 5.86234638,13.08575 M5.53459907,19.08275 C5.99434529,20.1935 6.42784173,21.2765 6.56809058,22.76675 C6.36934221,22.532 6.18334374,22.31075 6.01234515,22.10675 C5.25410138,21.20525 4.85360467,20.73725 4.56110708,20.50625 C4.56475497,19.4252695 4.6646486,18.3467608 4.85960462,17.2835 C5.05610301,17.92775 5.29760102,18.5105 5.53459907,19.08275 M30.5933931,42.9065 C24.6106923,42.9065 19.9254808,41.399 17.7362488,38.77175 C14.8795223,35.342 12.356543,33.34625 10.1305613,31.5845 C8.15507753,30.02225 6.28984287,28.5455 4.49660761,26.309 C4.13061061,25.8245 3.98136184,22.8365 4.19736007,21.6755 C4.45685793,21.96125 4.81760497,22.3895 5.17010207,22.8095 C8.09132806,26.2865 14.9327718,34.427 24.4974432,36.41975 C25.9066816,36.713 27.9451649,36.87425 30.234896,36.87425 C35.3738538,36.87425 44.0962821,36.0005 46.7160106,32.861 C46.8097598,33.482 46.902009,34.59575 46.902009,36.5735 C46.902009,39.8885 39.1283229,42.9065 30.5933931,42.9065" id="Shape" fill="#FFFFFF" fill-rule="nonzero"></path>
    </g>
</svg>