<svg xmlns="http://www.w3.org/2000/svg" width="38" height="35" viewBox="0 0 38 35">
  <g fill="none" fill-rule="evenodd" transform="translate(-2 -3)">
    <path fill="#59AF6E" fill-rule="nonzero" d="M19,0 C8.52305304,0 0,7.10286667 0,15.8333333 C0,24.5638 8.52305304,31.6666667 19,31.6666667 C20.6836396,31.6666667 22.3753417,31.4746083 24.0331578,31.0945667 L33.5630043,34.9405917 C33.6622339,34.9804667 33.7663043,35 33.8695652,35 C34.0478513,35 34.223717,34.9422167 34.3697361,34.8299167 C34.6012635,34.6525083 34.722277,34.36605 34.6908113,34.0747083 L33.7767874,25.782875 C36.503527,22.9720083 38,19.4539417 38,15.8333333 C38,7.10286667 29.476947,0 19,0 Z" transform="translate(2 3)"/>
    <path fill="#FFF" fill-rule="nonzero" d="M11.995,22.255 C12.2896667,22.255 12.5673333,22.2011667 12.828,22.0935 C13.0886667,21.9858333 13.3153333,21.8356667 13.508,21.643 C13.7006667,21.4503333 13.8536667,21.2265 13.967,20.9715 C14.0803333,20.7165 14.137,20.436 14.137,20.13 C14.137,19.8353333 14.0803333,19.5576667 13.967,19.297 C13.8536667,19.0363333 13.7006667,18.8096667 13.508,18.617 C13.3153333,18.4243333 13.0886667,18.2713333 12.828,18.158 C12.5673333,18.0446667 12.2896667,17.988 11.995,17.988 C11.7003333,17.988 11.4226667,18.0446667 11.162,18.158 C10.9013333,18.2713333 10.6775,18.4243333 10.4905,18.617 C10.3035,18.8096667 10.1561667,19.0363333 10.0485,19.297 C9.94083333,19.5576667 9.887,19.8353333 9.887,20.13 C9.887,20.436 9.94083333,20.7165 10.0485,20.9715 C10.1561667,21.2265 10.3035,21.4503333 10.4905,21.643 C10.6775,21.8356667 10.9013333,21.9858333 11.162,22.0935 C11.4226667,22.2011667 11.7003333,22.255 11.995,22.255 Z M29.488,22.255 C29.7826667,22.255 30.0603333,22.2011667 30.321,22.0935 C30.5816667,21.9858333 30.8083333,21.8356667 31.001,21.643 C31.1936667,21.4503333 31.3466667,21.2265 31.46,20.9715 C31.5733333,20.7165 31.63,20.436 31.63,20.13 C31.63,19.8353333 31.5733333,19.5576667 31.46,19.297 C31.3466667,19.0363333 31.1936667,18.8096667 31.001,18.617 C30.8083333,18.4243333 30.5816667,18.2713333 30.321,18.158 C30.0603333,18.0446667 29.7826667,17.988 29.488,17.988 C29.1933333,17.988 28.9156667,18.0446667 28.655,18.158 C28.3943333,18.2713333 28.1705,18.4243333 27.9835,18.617 C27.7965,18.8096667 27.6491667,19.0363333 27.5415,19.297 C27.4338333,19.5576667 27.38,19.8353333 27.38,20.13 C27.38,20.436 27.4338333,20.7165 27.5415,20.9715 C27.6491667,21.2265 27.7965,21.4503333 27.9835,21.643 C28.1705,21.8356667 28.3943333,21.9858333 28.655,22.0935 C28.9156667,22.2011667 29.1933333,22.255 29.488,22.255 Z M20.733,22.255 C21.0276667,22.255 21.3053333,22.2011667 21.566,22.0935 C21.8266667,21.9858333 22.0533333,21.8356667 22.246,21.643 C22.4386667,21.4503333 22.5916667,21.2265 22.705,20.9715 C22.8183333,20.7165 22.875,20.436 22.875,20.13 C22.875,19.8353333 22.8183333,19.5576667 22.705,19.297 C22.5916667,19.0363333 22.4386667,18.8096667 22.246,18.617 C22.0533333,18.4243333 21.8266667,18.2713333 21.566,18.158 C21.3053333,18.0446667 21.0276667,17.988 20.733,17.988 C20.4383333,17.988 20.1606667,18.0446667 19.9,18.158 C19.6393333,18.2713333 19.4155,18.4243333 19.2285,18.617 C19.0415,18.8096667 18.8941667,19.0363333 18.7865,19.297 C18.6788333,19.5576667 18.625,19.8353333 18.625,20.13 C18.625,20.436 18.6788333,20.7165 18.7865,20.9715 C18.8941667,21.2265 19.0415,21.4503333 19.2285,21.643 C19.4155,21.8356667 19.6393333,21.9858333 19.9,22.0935 C20.1606667,22.2011667 20.4383333,22.255 20.733,22.255 Z"/>
  </g>
</svg>
