<svg width="21" height="20" viewBox="0 0 21 20" fill="none" xmlns="http://www.w3.org/2000/svg">
<path d="M17.3546 11.706L20.077 9.0738L17.3546 11.706ZM17.3546 11.706H17.354L17.2088 11.8461C16.6421 12.3925 16.3828 13.1839 16.516 13.9597L16.5162 13.9603L17.1941 17.8759C17.3466 18.7614 16.6397 19.5 15.8128 19.5C15.6011 19.5 15.3793 19.4503 15.1587 19.3355L11.6151 17.4867L11.6144 17.4863C10.9154 17.1231 10.0833 17.1231 9.38428 17.4863L9.38358 17.4867L5.83959 19.3357L5.83723 19.3369C5.63616 19.4432 5.41234 19.4992 5.18492 19.5C4.35918 19.4994 3.65243 18.761 3.80556 17.8763L3.80557 17.8762L4.48257 13.9602L4.48266 13.9597C4.61593 13.184 4.35664 12.3927 3.79021 11.8464C3.79012 11.8463 3.79004 11.8462 3.78995 11.8461L0.923506 9.07365L0.575894 9.43304L0.923504 9.07364C0.0983294 8.27554 0.547894 6.87736 1.70036 6.71092L5.66249 6.14005C5.66253 6.14004 5.66257 6.14004 5.66261 6.14003C6.44257 6.02872 7.11803 5.54123 7.46939 4.83604L7.46948 4.83587L9.24247 1.27388L9.24248 1.27388L9.24363 1.27154C9.4777 0.795059 9.96433 0.495089 10.4952 0.500061V0.500083H10.4999C11.0076 0.500083 11.5017 0.758666 11.7582 1.27392L13.5298 4.83506C13.5299 4.83517 13.5299 4.83528 13.53 4.83538C13.8798 5.5411 14.5575 6.0278 15.3377 6.13997L19.3004 6.71092C20.4522 6.87727 20.9018 8.27509 20.0773 9.07359L17.3546 11.706Z" fill="#E1E1E1" stroke="#C6C6C6"/>
</svg>
