<svg width="21" height="20" viewBox="0 0 21 20" fill="none" xmlns="http://www.w3.org/2000/svg">
<path d="M17.5558 12.206C17.1084 12.6375 16.9036 13.2624 17.0088 13.875L17.6868 17.791C17.8968 19.01 16.9208 20 15.8128 20C15.5208 20 15.2198 19.931 14.9278 19.779L11.3838 17.93C10.8294 17.6418 10.1693 17.6418 9.61486 17.93L6.07087 19.779C5.79809 19.9232 5.49441 19.999 5.18587 20C4.07888 20 3.10188 19.01 3.31288 17.791L3.98988 13.875C4.09513 13.2624 3.89031 12.6375 3.44288 12.206L0.575894 9.43304C-0.552102 8.34205 0.0708958 6.44106 1.62889 6.21606L5.59187 5.64506C6.20918 5.55699 6.74379 5.17118 7.02187 4.61306L8.79486 1.05108C9.11373 0.401965 9.77668 -0.00669015 10.4999 8.29152e-05C11.1788 8.29152e-05 11.8568 0.350081 12.2058 1.05108L13.9778 4.61306C14.2538 5.17006 14.7898 5.55606 15.4088 5.64506L19.3718 6.21606C20.9298 6.44106 21.5518 8.34205 20.4248 9.43304L17.5568 12.206H17.5558Z" fill="#BEA33B"/>
</svg>
