<?xml version="1.0" encoding="UTF-8"?>
<svg width="21px" height="20px" viewBox="0 0 21 20" version="1.1" xmlns="http://www.w3.org/2000/svg" xmlns:xlink="http://www.w3.org/1999/xlink">
    <title>Group</title>
    <g id="Pacific-Life---ACC-UW" stroke="none" stroke-width="1" fill="none" fill-rule="evenodd">
        <g id="Illustration-Reminder" transform="translate(-236.000000, -550.000000)" fill="#FFFFFF" fill-rule="nonzero">
            <g id="Group" transform="translate(236.000000, 550.000000)">
                <path d="M20.6086463,7.28255355 L13.9068098,6.30858444 L10.9108181,0.234176972 C10.8255285,0.0890901716 10.6698337,0 10.5015683,0 C10.3333029,0 10.1776081,0.0890901716 10.0923185,0.234176972 L7.09495731,6.30721458 L0.391294729,7.28255355 C0.219334451,7.30738125 0.0763721685,7.4276972 0.0225065411,7.59292284 C-0.0313590863,7.75814848 0.0132117242,7.93963528 0.137482241,8.06108958 L4.98822236,12.7898398 L3.84332717,19.4665282 C3.81410964,19.6376978 3.88448279,19.81063 4.0249047,19.9127295 C4.16532661,20.014829 4.35149111,20.028423 4.50524823,19.947805 L10.4999705,16.7957615 L16.4946928,19.9464351 C16.64845,20.0270532 16.8346145,20.0134591 16.9750364,19.9113596 C17.1154583,19.8092601 17.1858314,19.636328 17.1566139,19.4651583 L16.0117187,12.7898398 L20.8624588,8.06108958 C20.9867101,7.93969794 21.0313287,7.7582949 20.9775684,7.59309546 C20.9238082,7.42789602 20.7809843,7.30752433 20.6091028,7.28255355 L20.6086463,7.28255355 Z" id="Path"></path>
            </g>
        </g>
    </g>
</svg>