<?xml version="1.0" encoding="UTF-8"?>
<svg width="50px" height="50px" viewBox="0 0 50 50" version="1.1" xmlns="http://www.w3.org/2000/svg" xmlns:xlink="http://www.w3.org/1999/xlink">
    <!-- Generator: Sketch 56.3 (81716) - https://sketch.com -->
    <title>lifestyle / substance</title>
    <desc>Created with Sketch.</desc>
    <g id="lifestyle-/-substance" stroke="none" stroke-width="1" fill="none" fill-rule="evenodd">
        <g id="_x33_" transform="translate(14.607011, 6.292573)" fill="#999999" fill-rule="nonzero">
            <path d="M20.2806498,0 L1.49375891,0 C1.49375891,0 -0.51707039,5.82220555 0.344713594,12.5806452 C0.775605586,15.9744936 3.7631234,21.4748687 3.7631234,24.8979745 C3.7631234,31.4808702 1.63738957,32.7974494 2.61407808,35.3135784 C3.73439726,38.1807952 17.9825591,38.1222806 19.1028783,35.3135784 C20.0508407,32.9144786 17.953833,31.5978995 17.953833,24.9857464 C17.953833,21.5626407 20.8551724,16.0330083 21.3722428,12.6391598 C22.4351097,5.90997749 20.2806498,0 20.2806498,0 Z M19.1316044,12.843961 C18.384725,16.0915229 15.7131946,21.591898 15.7131946,24.8979745 C15.7131946,30.3690923 16.86224,32.0660165 16.86224,33.5873968 C16.86224,35.6939235 4.91216871,35.6354089 4.91216871,33.5873968 C4.91216871,31.8027007 6.06121402,30.252063 6.06121402,24.8979745 C6.06121402,21.5626407 3.3322314,16.0622656 2.64280422,12.756189 C1.46503277,6.9339835 3.21732687,2.31132783 3.21732687,2.31132783 L18.5570818,2.31132783 C18.5570818,2.31132783 20.4530066,7.08027007 19.1316044,12.843961 Z M6.63573668,23.1717929 C7.2677116,26.7996999 5.48669137,33.5873968 5.48669137,33.5873968 C5.48669137,33.5873968 8.33057851,34.7576894 11.1744657,34.7576894 C13.7023653,34.7576894 16.2877173,33.5873968 16.2877173,33.5873968 C16.2877173,33.5873968 14.0183528,26.3315829 15.138672,23.1717929 C16.2589912,20.012003 18.5570818,14.2775694 18.5570818,11.5858965 C15.1961243,11.5858965 8.30185238,11.5858965 3.21732687,11.5858965 C3.21732687,15.3308327 6.63573668,19.5731433 6.63573668,23.1717929 Z M14.0183528,14.4823706 C14.6503277,14.4823706 15.1673981,15.0090023 15.1673981,15.6526632 C15.1673981,16.2963241 14.6503277,16.8229557 14.0183528,16.8229557 C13.3863779,16.8229557 12.8693075,16.2963241 12.8693075,15.6526632 C12.8693075,15.0090023 13.3863779,14.4823706 14.0183528,14.4823706 Z M13.1565688,17.963991 C13.6161869,17.963991 14.0183528,18.3443361 14.0183528,18.8417104 C14.0183528,19.3390848 13.6449131,19.7194299 13.1565688,19.7194299 C12.6969507,19.7194299 12.2947848,19.3390848 12.2947848,18.8417104 C12.2947848,18.3443361 12.6969507,17.963991 13.1565688,17.963991 Z M11.461727,20.2753188 C12.2373326,20.2753188 12.8693075,20.9189797 12.8693075,21.7089272 C12.8693075,22.4988747 12.2373326,23.1425356 11.461727,23.1425356 C10.6861214,23.1425356 10.0541465,22.4988747 10.0541465,21.7089272 C10.0541465,20.9189797 10.6861214,20.2753188 11.461727,20.2753188 Z M11.461727,25.4831208 C12.2373326,25.4831208 12.8693075,26.1267817 12.8693075,26.9167292 C12.8693075,27.7066767 12.2373326,28.3503376 11.461727,28.3503376 C10.6861214,28.3503376 10.0541465,27.7066767 10.0541465,26.9167292 C10.0254203,26.1267817 10.6861214,25.4831208 11.461727,25.4831208 Z" id="Shape"></path>
        </g>
    </g>
</svg>