<svg width="50px" height="50px" viewBox="0 0 50 50" xmlns="http://www.w3.org/2000/svg">
    <g id="icon-/-supplement-/-active" stroke="none" stroke-width="1" fill="none" fill-rule="evenodd" stroke-linecap="square">
        <path d="M28.20042,16.24275 L10.80158,33.64217 C10.80158,33.64217 9.57592834,37.5096744 8.86740891,37.5096744 C6.73218459,37.5096744 5.001,39.2409167 5.001,41.3762122 C5.001,43.5115077 6.73218459,45.24275 8.86740891,45.24275 C11.0026332,45.24275 12.7338178,43.5115077 12.7338178,41.3762122 C12.7338178,40.6676692 16.6011933,39.4419767 16.6011933,39.4419767 L34.001,22.04159" id="Path" stroke="#FFFFFF" stroke-width="2"></path>
        <path d="M41.3395954,14.379054 L43.7723936,12.0621034 L43.7723936,12.0621034 C45.4105355,10.5019683 45.4105355,7.97298644 43.7723936,6.41285133 C42.1342517,4.85271622 39.4788208,4.85271622 37.8406789,6.41285133 L35.2665015,8.86444893 C34.4940877,9.60008112 33.2802946,9.60008112 32.5078808,8.86444893 L31.312025,7.72553869 C30.5396112,6.98990651 29.3258181,6.98990651 28.5534043,7.72553869 L25.5216897,10.612886 C24.721829,11.3746581 24.6909521,12.6406115 25.4527241,13.4404722 C25.4751486,13.4640179 25.498144,13.4870132 25.5216897,13.5094377 L36.4623572,23.9291211 C37.234771,24.6647533 38.4485641,24.6647533 39.2209779,23.9291211 L42.2526926,21.0417738 C43.0525532,20.2800017 43.0834301,19.0140483 42.3216581,18.2141876 C42.2992336,18.1906419 42.2762383,18.1676466 42.2526926,18.1452221 L41.3395954,17.2756058 C40.5397348,16.5138337 40.5088578,15.2478802 41.2706299,14.4480196 C41.2930544,14.4244739 41.3160497,14.4014785 41.3395954,14.379054 Z" id="Path" stroke="#FFFFFF" stroke-width="2"></path>
    </g>
</svg>