<svg xmlns="http://www.w3.org/2000/svg" width="46" height="11" viewBox="0 0 46 11">
  <path fill="#999" d="M11,5.53416149 C11,8.47204969 8.47204969,11 5.46583851,11 C2.45962733,11 0,8.47204969 0,5.53416149 C0,2.52795031 2.45962733,0 5.46583851,0 C8.47204969,0 11,2.52795031 11,5.53416149 Z M28,5.53416149 C28,8.47204969 25.4720497,11 22.4658385,11 C19.4596273,11 17,8.47204969 17,5.53416149 C17,2.52795031 19.4596273,0 22.4658385,0 C25.4720497,0 28,2.52795031 28,5.53416149 Z M46,5.53416149 C46,8.47204969 43.4720497,11 40.4658385,11 C37.4596273,11 35,8.47204969 35,5.53416149 C35,2.52795031 37.4596273,0 40.4658385,0 C43.4720497,0 46,2.52795031 46,5.53416149 Z"/>
</svg>
