<svg width="46" height="46" viewBox="0 0 46 46" fill="none" xmlns="http://www.w3.org/2000/svg">
<path d="M23 44C34.598 44 44 34.598 44 23C44 11.402 34.598 2 23 2C11.402 2 2 11.402 2 23C2 34.598 11.402 44 23 44Z" fill="#E6E6E6"/>
<path fill-rule="evenodd" clip-rule="evenodd" d="M0 23C0 35.6816 10.3174 46 23 46C35.6826 46 46 35.6816 46 23C46 10.3184 35.6826 0 23 0C10.3174 0 0 10.3184 0 23ZM4 23C4 12.5234 12.5234 4 23 4C33.4766 4 42 12.5234 42 23C42 33.4766 33.4766 42 23 42C12.5234 42 4 33.4766 4 23Z" fill="#16252F"/>
<path d="M13.9991 34.9996C13.7764 34.9996 13.5528 34.9253 13.3672 34.7735C12.9395 34.4239 12.876 33.794 13.2256 33.3663L22.2256 22.3663C22.5752 21.9395 23.2051 21.8765 23.6329 22.2256C24.0606 22.5753 24.1241 23.2051 23.7745 23.6329L14.7745 34.6329C14.5762 34.8746 14.2891 34.9996 13.9991 34.9996Z" fill="#E86C60"/>
<path d="M23 26C24.6569 26 26 24.6569 26 23C26 21.3431 24.6569 20 23 20C21.3431 20 20 21.3431 20 23C20 24.6569 21.3431 26 23 26Z" fill="#223E49"/>
<path d="M32 24.0008H23C22.666 24.0008 22.3535 23.8339 22.1679 23.5555L14.1679 11.5555C13.8613 11.0961 13.9853 10.475 14.4453 10.1688C14.9052 9.86071 15.5254 9.98669 15.832 10.4462L23.5351 22.0008H32C32.5527 22.0008 33 22.4486 33 23.0008C33 23.5531 32.5527 24.0008 32 24.0008Z" fill="#223E49"/>
<path d="M23 10C22.4473 10 22 9.55225 22 9V7C22 6.44775 22.4473 6 23 6C23.5527 6 24 6.44775 24 7V9C24 9.55225 23.5527 10 23 10Z" fill="#B3B3B3"/>
<path d="M36 23C36 22.4473 36.4477 22 37 22H39C39.5522 22 40 22.4473 40 23C40 23.5527 39.5522 24 39 24H37C36.4477 24 36 23.5527 36 23Z" fill="#B3B3B3"/>
<path d="M23 36C23.5527 36 24 36.4477 24 37V39C24 39.5522 23.5527 40 23 40C22.4473 40 22 39.5522 22 39V37C22 36.4477 22.4473 36 23 36Z" fill="#B3B3B3"/>
<path d="M10 23C10 23.5527 9.55225 24 9 24H7C6.44775 24 6 23.5527 6 23C6 22.4473 6.44775 22 7 22H9C9.55225 22 10 22.4473 10 23Z" fill="#B3B3B3"/>
</svg>
