<svg width="20" height="20" viewBox="0 0 20 20" fill="none" xmlns="http://www.w3.org/2000/svg">
	<path fill-rule="evenodd" clip-rule="evenodd" d="M13.0327 4.15095H17.8844C18.2194 4.15095 18.4909 4.42127 18.4909 4.75472V6.56604C18.4909 6.8995 18.2194 7.16982 17.8844 7.16982H17.1931L15.6405 17.9532C15.535 18.6932 14.8994 19.2437 14.1486 19.2453H5.75505C5.01119 19.2348 4.38582 18.6865 4.28133 17.9532L2.7227 7.16982H2.11623C1.78129 7.16982 1.50977 6.8995 1.50977 6.56604V4.75472C1.50977 4.42127 1.78129 4.15095 2.11623 4.15095H6.96799C6.96799 2.48367 8.32561 1.13208 10.0003 1.13208C11.675 1.13208 13.0327 2.48367 13.0327 4.15095ZM7.841 16.2687H7.91377C8.39504 16.2332 8.75771 15.8183 8.72644 15.3388L8.3383 9.84451C8.30271 9.36538 7.88591 9.00432 7.40434 9.03545H7.33156C6.8503 9.07089 6.48763 9.48583 6.5189 9.96526L6.90704 15.4596C6.94263 15.9387 7.35943 16.2998 7.841 16.2687ZM13.0875 15.4656C13.0519 15.9448 12.6351 16.3058 12.1536 16.2747H12.0808C11.5995 16.2393 11.2369 15.8243 11.2681 15.3449L11.6563 9.85055C11.6919 9.37142 12.1087 9.01036 12.5902 9.04149H12.663C13.1443 9.07693 13.5069 9.49187 13.4757 9.9713L13.0875 15.4656ZM11.213 4.15092C11.213 3.48401 10.67 2.94337 10.0001 2.94337C9.33018 2.94337 8.78713 3.48401 8.78713 4.15092H11.213Z" fill="#5B5B5B"/>
</svg>
