<svg width="40" height="40" viewBox="0 0 40 40" fill="none" xmlns="http://www.w3.org/2000/svg">
<path d="M39.3085 8.21634C37.8562 8.85469 36.3055 9.28955 34.6727 9.48811C36.3367 8.48546 37.6166 6.90518 38.2222 5.01967C36.6616 5.93043 34.932 6.59339 33.0908 6.96262C31.6204 5.3889 29.5249 4.4043 27.1979 4.4043C22.7393 4.4043 19.1242 8.01942 19.1242 12.4731C19.1242 13.1131 19.1981 13.7285 19.3326 14.3176C12.6209 14.0009 6.67231 10.7779 2.69124 5.90581C1.99053 7.09061 1.59833 8.46741 1.59833 9.96729C1.59833 12.7734 3.026 15.2398 5.18884 16.6888C3.86455 16.6462 2.61904 16.2819 1.53269 15.678V15.7781C1.53269 19.6919 4.31091 22.9558 8.00808 23.6992C7.33035 23.8813 6.61487 23.9798 5.88134 23.9798C5.36607 23.9798 4.87213 23.9306 4.37819 23.8387C5.41366 27.0435 8.39043 29.3803 11.9334 29.446C9.17647 31.6104 5.68278 32.9003 1.91997 32.9003C1.27998 32.9003 0.641631 32.8625 0 32.7903C3.59215 35.0779 7.82429 36.4153 12.401 36.4153C27.2587 36.4153 35.3734 24.1143 35.3734 13.4643C35.3734 13.1213 35.3734 12.775 35.3488 12.4304C36.9258 11.2998 38.3026 9.87047 39.3856 8.24916L39.3085 8.21634Z" fill="#0084B4"/>
</svg>
