<svg width="80" height="81" viewBox="0 0 80 81" fill="none" xmlns="http://www.w3.org/2000/svg">
    <path fill-rule="evenodd" clip-rule="evenodd" d="M40.6457 43.6367C39.8325 43.6367 39.1755 44.2937 39.1755 45.1069V70.1009C39.1755 74.9286 35.476 77.4531 31.8247 77.4531C28.1706 77.4531 24.4725 74.9286 24.4725 70.1009V67.1606C24.4725 66.3475 23.8155 65.6905 23.0024 65.6905C22.1907 65.6905 21.5322 66.3475 21.5322 67.1606V70.1009C21.5322 76.7862 26.8353 80.392 31.8247 80.392C36.8128 80.392 42.1158 76.7862 42.1158 70.1009V45.1069C42.1158 44.2937 41.4588 43.6367 40.6457 43.6367Z" fill="white"/>
    <path fill-rule="evenodd" clip-rule="evenodd" d="M66.0919 37.3886C59.7303 37.3886 56.2237 40.9235 54.5876 43.2962C52.4802 40.9902 48.0116 37.3886 40.6452 37.3886C33.2802 37.3886 28.8102 40.9902 26.7043 43.2962C25.0667 40.9235 21.5616 37.3886 15.1985 37.3886C10.92 37.3886 7.94419 38.9907 5.94897 40.7589C9.17452 22.9864 25.3349 13.4688 40.6452 13.4688C55.957 13.4688 72.1173 22.9864 75.3429 40.7589C73.3476 38.9907 70.3719 37.3886 66.0919 37.3886ZM78.8336 45.7376C78.0361 26.0253 62.6194 11.2386 42.1152 10.5617V2.47157C42.1152 1.65845 41.4582 1 40.6451 1C39.8334 1 39.1749 1.65845 39.1749 2.47157V10.5617C18.6722 11.2386 3.25404 26.0253 2.45795 45.739C2.44092 45.8596 2.43524 45.976 2.44943 46.0952C2.43666 46.5095 2.41821 46.9225 2.41821 47.3425C2.41821 48.1542 3.07666 48.8127 3.88979 48.8127C4.70149 48.8127 5.35994 48.1542 5.35994 47.3425C5.35994 46.9494 5.37839 46.5677 5.38974 46.1817C5.99569 44.95 8.70043 40.3295 15.1983 40.3295C22.5378 40.3295 25.0424 46.2286 25.1432 46.4741C25.3518 46.992 25.8343 47.3482 26.3905 47.3936C26.9667 47.4475 27.4818 47.1637 27.7699 46.6841C27.8082 46.6216 31.6865 40.3295 40.6451 40.3295C49.5341 40.3295 53.367 46.4286 53.5217 46.6841C53.8069 47.1609 54.3405 47.4291 54.894 47.3908C55.4488 47.3482 55.9341 46.9949 56.1456 46.4812C56.2477 46.2286 58.7538 40.3295 66.0918 40.3295C72.5983 40.3295 75.303 44.9613 75.9018 46.1817C75.9132 46.5677 75.9316 46.9494 75.9316 47.3425C75.9316 48.1542 76.5887 48.8127 77.4018 48.8127C78.2135 48.8127 78.872 48.1542 78.872 47.3425C78.872 46.9239 78.8549 46.5124 78.8422 46.098C78.8564 45.9774 78.8493 45.861 78.8336 45.7376Z" fill="white"/>
</svg>
