<svg width="46" height="49" viewBox="0 0 46 49" fill="none" xmlns="http://www.w3.org/2000/svg">
<path fill-rule="evenodd" clip-rule="evenodd" d="M41.6222 33.6769L29.5217 28.1308V18.6602H16.4783V28.1308L4.37778 33.6769C2.4133 34.5772 0.82665 37.0511 0.826172 39.2058C6.31281 45.2235 14.2152 49.0004 23 49.0004C31.7848 49.0004 39.6872 45.2235 45.1738 39.2058C45.1734 37.0542 43.5835 34.5758 41.6222 33.6769Z" fill="#335262"/>
<path fill-rule="evenodd" clip-rule="evenodd" d="M23 25.5209C17.237 25.5209 12.5652 20.8491 12.5652 15.0861V11.1731C12.5652 5.41009 17.237 0.738281 23 0.738281C28.763 0.738281 33.4348 5.41009 33.4348 11.1731V15.0861C33.4348 20.8491 28.763 25.5209 23 25.5209Z" fill="#335262"/>
</svg>
