<svg width="18" height="12" viewBox="0 0 18 12" fill="none" xmlns="http://www.w3.org/2000/svg">
	<path fill-rule="evenodd" clip-rule="evenodd" d="M17.1855 1.14818C17.3594 1.06418 17.5684 1.07182 17.7324 1.17218C17.8984 1.272 18 1.4471 18 1.63637V10.3636C18 10.5529 17.8984 10.728 17.7324 10.8273C17.5684 10.9271 17.3613 10.9353 17.1855 10.8513L12.375 8.51891V11.4545C12.375 11.7562 12.123 12 11.8125 12H0.5625C0.251953 12 0 11.7562 0 11.4545V0.545456C0 0.24382 0.251953 0 0.5625 0H11.8125C12.123 0 12.375 0.24382 12.375 0.545456V3.48109L17.1855 1.14818ZM2.8125 3.54546C2.8125 3.9971 3.19141 4.36365 3.65625 4.36365C4.12109 4.36365 4.5 3.9971 4.5 3.54546C4.5 3.09383 4.12109 2.72728 3.65625 2.72728C3.19141 2.72728 2.8125 3.09383 2.8125 3.54546Z" fill="#DFDFDF"/>
</svg>
