<?xml version="1.0" encoding="UTF-8"?>
<svg width="40px" height="36px" viewBox="0 0 40 36" version="1.1" xmlns="http://www.w3.org/2000/svg" xmlns:xlink="http://www.w3.org/1999/xlink">
    <!-- Generator: Sketch 52.5 (67469) - http://www.bohemiancoding.com/sketch -->
    <title>warning</title>
    <desc>Created with Sketch.</desc>
    <g id="Producer-Report-+-Medical-Cert-+-Ownership-Transfer-+-Policy-Details" stroke="none" stroke-width="1" fill="none" fill-rule="evenodd">
        <g id="Owner-/-Person-/-Add-/-Requested" transform="translate(-243.000000, -598.000000)">
            <g id="warning" transform="translate(243.000000, 598.000000)">
                <g id="Group">
                    <polygon id="Triangle" fill="transparent" fill-rule="nonzero" points="20 3.42857143 36.6666667 34.2857143 3.33333333 34.2857143"></polygon>
                    <g id="40-Warning">
                        <path d="M20,23.4085714 C19.0795254,23.4085714 18.3333333,22.6410596 18.3333333,21.6942857 L18.3333333,14.3057143 C18.3333333,13.3589404 19.0795254,12.5914286 20,12.5914286 C20.9204746,12.5914286 21.6666667,13.3589404 21.6666667,14.3057143 L21.6666667,21.6942857 C21.6666667,22.6410596 20.9204746,23.4085714 20,23.4085714 Z" id="Path" fill="#FFC353"></path>
                        <ellipse id="Oval" fill="#FFC353" cx="20" cy="28.1228571" rx="2.08333333" ry="2.14285714"></ellipse>
                        <path d="M38.3333333,36 L1.66666667,36 C1.07152933,35.9993725 0.521876763,35.6723836 0.224572306,35.1420965 C-0.072732151,34.6118095 -0.072569136,33.9587014 0.225,33.4285714 L18.5583333,0.857142857 C18.8564981,0.328453419 19.4057762,0.00303747516 20,0.00303747516 C20.5942238,0.00303747516 21.1435019,0.328453419 21.4416667,0.857142857 L39.775,33.4285714 C40.0725691,33.9587014 40.0727322,34.6118095 39.7754277,35.1420965 C39.4781232,35.6723836 38.9284707,35.9993725 38.3333333,36 Z M4.55833333,32.5714286 L35.4416667,32.5714286 L20,5.14285714 L4.55833333,32.5714286 Z" id="Shape" fill="#FFC353" fill-rule="nonzero"></path>
                    </g>
                </g>
            </g>
        </g>
    </g>
</svg>
