<svg xmlns="http://www.w3.org/2000/svg" width="60" height="63" viewBox="0 0 60 63">
  <g fill="none" fill-rule="evenodd" transform="translate(.86 .853)">
    <polygon fill="#979797" fill-rule="nonzero" points="25.64 11.686 25.64 23.506 37.535 23.506 37.535 25.506 23.64 25.506 23.64 11.686"/>
    <path fill="#979797" fill-rule="nonzero" d="M19.6600245,0.508175915 C31.105126,-1.84082047 42.6363039,4.12842408 47.2655708,14.8011663 C51.8959316,25.4764307 48.3458074,37.9172245 38.7686428,44.5827911 C29.3070194,51.1679428 16.5347035,50.3264839 8.03204638,42.6081892 L7.73020817,42.3296129 L9.0987392,40.871147 C16.9096886,48.2004417 28.8268928,49.0653883 37.6261452,42.9412372 C46.4224949,36.8191063 49.6817347,25.3976665 45.4307363,15.5970197 C41.178644,5.79385051 30.5818024,0.308275738 20.0621236,2.46733806 C9.66614057,4.60101303 2.17584019,13.6196213 2.00305278,24.1346323 L2,24.5063629 L0,24.5063629 C0,12.8812963 8.2133978,2.85748533 19.6600245,0.508175915 Z"/>
    <polygon fill="#999" stroke="#979797" points="5.298 50.147 .14 35.617 15.614 36.472"/>
  </g>
</svg>
