<?xml version="1.0" encoding="UTF-8"?>
<svg width="50px" height="50px" viewBox="0 0 50 50" version="1.1" xmlns="http://www.w3.org/2000/svg" xmlns:xlink="http://www.w3.org/1999/xlink">
    <!-- Generator: Sketch 56.3 (81716) - https://sketch.com -->
    <title>lifestyle / weightheight</title>
    <desc>Created with Sketch.</desc>
    <g id="lifestyle-/-weightheight" stroke="none" stroke-width="1" fill="none" fill-rule="evenodd">
        <g id="ruler" transform="translate(6.000000, 6.000000)" fill="#999999" fill-rule="nonzero">
            <path d="M37.385,7.6864 L30.3136,0.615 C30.1261504,0.42738185 29.871813,0.321964892 29.6066,0.321964892 C29.341387,0.321964892 29.0870496,0.42738185 28.8996,0.615 L23.9496,5.565 L27.4855,9.1 C27.7434685,9.35151153 27.8461993,9.72234718 27.7544214,10.0707473 C27.6626436,10.4191473 27.3905473,10.6912436 27.0421473,10.7830214 C26.6937472,10.8747993 26.3229115,10.7720685 26.0714,10.5141 L22.5357,6.9784 L18.2928,11.2213 L21.8282,14.7574 C22.0872307,15.0086868 22.1907694,15.3800481 22.0991202,15.7291074 C22.007471,16.0781667 21.734854,16.3507644 21.3857882,16.4423889 C21.0367225,16.5340134 20.6653684,16.4304485 20.4141,16.1714 L16.8788,12.6354 L12.6358,16.8784 L16.1718,20.4137 C16.4308485,20.6649684 16.5344134,21.0363225 16.4427889,21.3853882 C16.3511644,21.734454 16.0785667,22.007071 15.7295074,22.0987202 C15.3804481,22.1903694 15.0090868,22.0868307 14.7578,21.8278 L11.2217,18.2924 L6.9788,22.5353 L10.5145,26.071 C10.7671761,26.3236761 10.8658573,26.6919595 10.7733715,27.0371215 C10.6808856,27.3822834 10.4112834,27.6518856 10.0661215,27.7443715 C9.72095951,27.8368573 9.35267609,27.7381761 9.1,27.4855 L5.5648,23.95 L0.615,28.9 C0.42738185,29.0874496 0.321964892,29.341787 0.321964892,29.607 C0.321964892,29.872213 0.42738185,30.1265504 0.615,30.314 L7.6864,37.3854 C7.87386264,37.5729936 8.12819516,37.6783936 8.3934,37.6783936 C8.65860484,37.6783936 8.91293736,37.5729936 9.1004,37.3854 L37.385,9.1 C37.5724957,8.9125666 37.677835,8.65831494 37.677835,8.3932 C37.677835,8.12808506 37.5724957,7.8738334 37.385,7.6864 Z" id="Path"></path>
        </g>
    </g>
</svg>