<?xml version="1.0" encoding="UTF-8"?>
<svg width="50px" height="50px" viewBox="0 0 50 50" version="1.1" xmlns="http://www.w3.org/2000/svg" xmlns:xlink="http://www.w3.org/1999/xlink">
    <title>icon / alcohol  / inactive</title>
    <defs>
        <polygon id="path-1" points="15.0000011 2.10150232 34.9171751 2.10150232 34.9171751 48.9479513 15.0000011 48.9479513"></polygon>
    </defs>
    <g id="icon-/-alcohol--/-inactive" stroke="none" stroke-width="1" fill="none" fill-rule="evenodd">
        <mask id="mask-2" fill="white">
            <use xlink:href="#path-1"></use>
        </mask>
        <g id="Clip-2"></g>
        <path d="M25.0007892,48.5426872 C26.8731135,48.5426872 28.7454378,48.5429001 30.6178703,48.5424743 C30.9599243,48.5424743 31.3083568,48.5780312 31.6411135,48.5225666 C31.6691135,48.5178825 31.6963568,48.5085142 31.7229514,48.4957392 C31.9576541,48.3827874 31.9882486,48.0593681 31.7927892,47.8888225 C31.7428432,47.8452812 31.6912757,47.8041885 31.636573,47.7676734 C31.5623027,47.7179575 31.4261946,47.7569211 31.3181946,47.7569211 C27.1233838,47.7568147 22.9286811,47.7567082 18.7338703,47.7572405 C18.5899784,47.7572405 18.416573,47.7146573 18.3091135,47.7778934 C18.2818703,47.7939685 18.2559243,47.8121728 18.2309514,47.831974 C17.9994919,48.0162527 18.0309514,48.3826809 18.2947351,48.5184148 C18.2994919,48.5208633 18.3042486,48.5232054 18.3091135,48.5255475 C18.4264108,48.5815443 18.5917081,48.5422614 18.7356,48.5423678 C20.8240324,48.5426872 22.9123568,48.5425807 25.0007892,48.5426872 L25.0007892,48.5426872 Z M24.6482486,37.1369965 C24.6482486,37.8288666 24.6654378,38.5212691 24.6448973,39.2125005 C24.5926811,40.9678854 24.5206811,42.7226316 24.4636,44.4776972 C24.4527892,44.8109106 24.5013297,45.1808519 24.9227351,45.194585 C25.3874919,45.209702 25.4220865,44.8227274 25.4305189,44.4704581 C25.4330054,44.3642131 25.4221946,44.2577551 25.4178703,44.1514036 C25.3695459,42.9461933 25.2756,41.7405572 25.2815459,40.5355597 C25.2981946,37.1128305 25.3549514,33.6901013 25.3973297,30.2673721 C25.410627,29.1980021 25.8917081,28.4463026 26.9271676,28.0532599 C27.2272757,27.9392434 27.5247892,27.7946735 27.7884649,27.6144403 C32.0634919,24.6915311 34.4550595,20.7731337 33.8509514,15.5477522 C33.3771135,11.4489086 32.5763568,7.38689948 31.9274919,3.30743125 C31.8843568,3.03638933 31.7904108,2.91662415 31.4844649,2.91704823 C27.1247892,2.92641828 22.7648973,2.92652474 18.4052216,2.91704823 C18.0979784,2.91651769 18.002627,3.03702808 17.9627351,3.30785708 C17.864573,3.97449669 17.7398162,4.63719737 17.6335459,5.30266595 C17.0910595,8.69867421 16.4461946,12.083185 16.0432757,15.4952684 C15.7123568,18.2975608 16.1651135,21.0229905 17.8611135,23.41872 C19.2800324,25.4232165 20.9477081,27.1558195 23.2497622,28.2043237 C23.9436,28.5202909 24.3932216,29.036186 24.4188432,29.8502699 C24.4950595,32.2791078 24.6578703,37.1366771 24.6482486,37.1369965 L24.6482486,37.1369965 Z M24.9244649,48.9479933 C22.7087892,48.9479933 20.4930054,48.9485049 18.2773297,48.9473338 C17.5461946,48.946908 17.2959243,48.7992508 17.2552757,48.3547889 C17.210627,47.8665728 17.4974378,47.5442182 18.142627,47.4060358 C19.4261946,47.1312678 20.7170054,46.8885437 21.9972216,46.5996169 C23.1310595,46.3439049 23.4598162,45.9662986 23.5749514,44.822621 C23.9832757,40.7699801 23.9749514,36.7118035 23.7151676,32.6513912 C23.6687892,31.9256674 23.5625189,31.1997307 23.5756,30.4754974 C23.5907351,29.6327763 23.2057622,29.124759 22.4673838,28.7657829 C20.7083568,27.9103933 19.3083568,26.62172 18.0381946,25.1703789 C15.5537622,22.331465 14.6888973,18.9877276 15.096573,15.3580442 C15.4543027,12.1735678 16.0691135,9.01698345 16.5744108,5.84868872 C16.7139784,4.97317862 16.8591676,4.09830728 17.0179784,3.22599092 C17.1581946,2.45630002 17.568573,2.10573403 18.3441405,2.10488236 C22.7396,2.10030467 27.1350595,2.10051759 31.5305189,2.10466945 C32.3157081,2.10530819 32.7383027,2.44639943 32.8682486,3.21066098 C33.4927892,6.88133073 34.1444649,10.548168 34.7086811,14.2279931 C35.0843568,16.6769516 34.9962486,19.1408141 34.0810054,21.4700074 C32.8919243,24.4961808 30.8029514,26.8510304 27.9424108,28.4497093 C26.8561405,29.0568389 26.3282486,29.7180491 26.2541946,30.9908603 C25.9854378,35.619545 25.8472757,40.2407777 26.3190595,44.8627556 C26.4307351,45.9562916 26.7698703,46.3445437 27.8803568,46.5972748 C29.0724649,46.8685296 30.2744108,47.0973077 31.4709514,47.3496131 C31.698627,47.3976256 31.9322486,47.4439348 32.1438162,47.534424 C32.5432757,47.7053955 32.6996,48.0338182 32.6183027,48.4469815 C32.5372216,48.8587608 32.2168973,48.9472274 31.8419784,48.946908 C29.5361405,48.9445659 27.2304108,48.9457369 24.9244649,48.9457369 L24.9244649,48.9479933 Z" id="Fill-1" fill="#999999" mask="url(#mask-2)"></path>
        <path d="M17.6779614,11.8402581 C18.5482521,11.9724761 19.3096839,12.0909841 20.0722774,12.2035719 C21.4434122,12.4058976 22.7685405,12.2198784 24.0733376,11.8319491 C25.7303869,11.3393255 27.4019585,10.8415087 29.1777419,11.0478851 C30.1083291,11.1560068 31.0192822,11.4170152 31.9269823,11.6468647 C32.1046187,11.6918375 32.3284941,11.8954095 32.3593975,12.0527624 C32.8667476,14.6298183 33.3276264,17.2058356 32.6866714,19.8295261 C32.3555636,21.1855652 31.6436237,22.3504959 30.7188454,23.4333745 C29.7718771,24.542219 28.6738772,25.5206112 27.3741919,26.2911729 C25.8813024,27.176192 24.2700273,27.2689419 22.7908467,26.3622154 C20.2466609,24.8023965 18.2149369,22.8315906 17.4005279,20.0739164 C16.8061604,18.0610459 16.9632332,16.022625 17.2932954,13.9899166 C17.4094736,13.2748179 17.5480742,12.5625234 17.6779614,11.8402581" id="Fill-4" fill="#999999" mask="url(#mask-2)"></path>
    </g>
</svg>