<svg xmlns="http://www.w3.org/2000/svg" width="35" height="25" viewBox="0 0 35 25">
  <g fill="none" fill-rule="evenodd">
    <polygon fill="#FFF" points="13.854 7.08 13.854 17.035 23.333 12.058"/>
    <path fill="red" fill-rule="nonzero" d="M34.6354167,5.38348083 C34.6354167,5.38348083 34.2708333,2.94985251 33.25,1.84365782 C31.9375,0.442477876 30.40625,0.442477876 29.75,0.368731563 C24.8645833,0 17.5,0 17.5,0 L17.5,0 C17.5,0 10.1354167,0 5.25,0.368731563 C4.59375,0.442477876 3.0625,0.442477876 1.75,1.84365782 C0.729166667,2.94985251 0.364583333,5.38348083 0.364583333,5.38348083 C0.364583333,5.38348083 0,8.25958702 0,11.1356932 L0,13.7905605 C0,16.6666667 0.364583333,19.5427729 0.364583333,19.5427729 C0.364583333,19.5427729 0.729166667,21.9764012 1.75,23.0825959 C3.0625,24.4837758 4.8125,24.4837758 5.61458333,24.6312684 C8.38541667,24.9262537 17.5,25 17.5,25 C17.5,25 24.8645833,25 29.75,24.6312684 C30.40625,24.5575221 31.9375,24.5575221 33.25,23.1563422 C34.2708333,22.0501475 34.6354167,19.6165192 34.6354167,19.6165192 C34.6354167,19.6165192 35,16.740413 35,13.8643068 L35,11.2094395 C35,8.25958702 34.6354167,5.38348083 34.6354167,5.38348083 Z M13.8541667,17.0353982 L13.8541667,7.07964602 L23.3333333,12.0943953 L13.8541667,17.0353982 Z"/>
  </g>
</svg>
