<svg xmlns="http://www.w3.org/2000/svg" width="136" height="92" viewBox="0 0 136 92">
  <path fill="#FFF" fill-rule="evenodd" d="M68.8044518 0C69.8152534.118791927 70.8318449.201068048 71.8358144.362153599 78.7197797 1.4660634 84.2119676 4.86157117 88.3283584 10.4632808 90.9866195 14.0807723 92.5861386 18.1577158 92.9125734 22.6164576 93.6323744 32.4497251 89.9062232 40.2669966 81.7804392 45.892973 78.3150653 48.2922695 74.4050268 49.5956295 70.1890496 49.9149117 62.2022233 50.5197337 55.4370669 47.8952179 49.8426292 42.1997921 49.7905201 42.1468673 49.7505697 42.0819246 49.6846806 41.9961818 50.853315 41.3658219 52.0913125 41.046193 53.3637019 40.8264049 56.6664953 40.2559032 59.9608353 40.430971 63.2579545 40.8936587 66.1720137 41.3026126 69.0844516 41.7405711 72.0099747 42.0471421 76.9606908 42.5659901 80.9478508 40.4233443 83.2680973 36.014754 83.9266411 34.7636254 84.3846226 33.4058383 84.9069878 32.0860693 85.0012474 31.8481387 85.2631827 31.4695761 84.7398911 31.3540198 84.3521991 31.2685081 83.9539694 30.9535015 83.6472203 31.6010793 82.9213978 33.1328942 81.8667087 34.4327876 80.571507 35.5312663 78.8183238 37.0183609 76.7721715 37.8540644 74.4904858 37.8519844 71.4680396 37.8493266 68.4462883 37.6519564 65.423379 37.5743025 63.5180371 37.5254222 61.611074 37.5422934 59.7049215 37.5299289 59.5553104 37.5290044 59.4056993 37.5298133 59.1341527 37.5298133 66.031319 28.3166212 72.8681544 19.1840873 79.7727318 9.96107286 79.5172812 9.9344949 79.3603747 9.90398802 79.2034683 9.90398802 70.8342766 9.9016769 62.465085 9.9035258 54.0960091 9.89647686 53.7465305 9.89613019 53.5446944 9.9509039 53.4447606 10.3491111 52.837168 12.7697855 52.1979625 15.1824865 51.571379 17.5984231 51.5578306 17.650539 51.5697578 17.7092416 51.5697578 17.848487 51.9117096 17.9205942 52.2597987 18.0377683 52.6106669 18.0466662 52.7539092 18.0502484 52.9354806 17.8423625 53.0440992 17.6908682 53.5588217 16.9729166 54.0191192 16.2135958 54.564065 15.5201422 55.7820294 13.9700693 57.5110108 13.3449094 59.3794131 13.2355931 62.4162182 13.0580986 65.4619397 13.0324451 68.5040715 12.9454311 68.5546753 12.9439289 68.6064371 12.976978 68.7449316 13.0227383 61.8632823 22.056587 55.0068769 31.0572711 48.1005626 40.1235911 47.8686191 39.8204868 47.6517292 39.5618717 47.4615887 39.2848832 44.9947419 35.6930452 43.5506238 31.738938 43.1190443 27.3940193 42.0303106 16.4334995 48.5011083 5.8431068 58.7701993 1.82971923 61.2438782.862974816 63.7920154.257575102 66.4487711.120987498 66.6954211.108276299 66.9394077.0416002857 67.1845522 0L68.8044518 0zM35.9634432 92C34.9359773 91.7336448 33.8665026 91.5705772 32.8883972 91.1822387 29.3656071 89.7832967 27.4413695 87.1837943 27.3647034 83.4019656 27.2752012 78.9799841 27.2857034 74.5560408 27.2621318 70.1327899 27.2558305 68.9551951 26.9959592 67.8846963 26 67.003693L33.1344989 67.003693C32.9849008 67.3882231 32.7563027 67.7592509 32.7029749 68.1534751 32.5516264 69.2739443 32.3831243 70.4036459 32.3796236 71.5301161 32.3672543 75.5683753 32.4107802 79.6068652 32.4515054 83.6451244 32.4865127 87.1217063 34.7952478 88.4623687 37.4608244 88.6564802 38.2628429 88.7148753 39.1057033 88.6697518 39.8862507 88.4883348 42.2400285 87.9414295 43.6065989 86.2835183 43.6460405 83.7124056 43.7188558 78.9647506 43.6718293 74.2152492 43.6574763 69.4665556 43.6561927 69.0501736 43.5575886 68.6262902 43.4491825 68.2201793 43.3418266 67.8181075 43.1649228 67.4342698 43.0027221 67L49.9583333 67C48.598531 68.0496104 48.5085621 69.4649399 48.506695 70.9040429 48.5029609 73.8656868 48.5347009 76.8277923 48.4989934 79.7889746 48.479506 81.4018779 48.4790392 83.0315149 48.2475239 84.6219141 47.7190296 88.2517542 45.1576581 90.821482 41.4529465 91.632319 40.8309825 91.7683817 40.2031839 91.8781321 39.5779526 92L35.9634432 92zM113 67L120.362191 67C120.367434 67.0495008 120.387951 67.0998018 120.37245 67.1164926 119.380467 68.1888194 119.082975 69.4916165 119.091067 70.9083911 119.102808 72.963989 119.094031 75.0197012 119.094031 77.1230851L129.827003 77.1230851C129.85242 77.0818154 129.889123 77.0501486 129.888895 77.0187105 129.865414 74.5249219 129.867808 72.0303331 129.798507 69.537802 129.771152 68.5568173 129.239997 67.748571 128.507095 67.0014862L136.000023 67.0014862C135.336079 67.6367655 134.874226 68.3361786 134.752607 69.2061581 134.673618 69.7702157 134.580951 70.3390748 134.579355 70.9061047 134.564651 76.3165536 134.581065 81.7271168 134.557471 87.1375657 134.551316 88.5557122 134.746908 89.8735996 135.90519 90.9870818L128.410324 90.9870818C129.211729 90.3043594 129.642808 89.5228641 129.768872 88.5920662 129.83008 88.1400427 129.886387 87.6831034 129.890034 87.227879 129.90793 84.9990854 129.90793 82.7700633 129.911235 80.5411554 129.911463 80.4124305 129.885133 80.2837055 129.867694 80.1243427L119.110672 80.1243427C119.100756 80.315258 119.082975 80.4987425 119.082861 80.6821126 119.081607 82.5681732 119.092093 84.454348 119.081493 86.3402942 119.072146 87.9917689 119.10201 89.6267815 120.417928 91L113.13883 91C113.132333 90.9686762 113.108055 90.916203 113.120821 90.9045423 114.108586 90.0018672 114.421238 88.8224221 114.423175 87.5485481 114.431952 81.8333206 114.42158 76.1179788 114.415197 70.4027513 114.413829 69.135508 114.070858 67.9951604 113 67M59.2505779 78.5943104C60.6393897 78.8537864 63.7862922 78.2416512 65.1466713 76.6830846 66.6220527 74.9925558 66.3700878 72.043198 64.5715442 70.7941776 62.9734166 69.6843048 61.1229773 69.7133889 59.2505779 69.7271896L59.2505779 78.5943104zM53.0612575 67.0415277C53.3755201 67.0278411 53.5426491 67.0140404 53.7095469 67.0143825 56.2881415 67.0184885 58.8691632 66.959636 61.4442903 67.0540738 63.0286639 67.112128 64.6212436 67.3186823 66.1782247 67.6194463 67.4774619 67.8704822 68.5896902 68.59519 69.5288951 69.5347782 71.8843042 71.8910481 71.8015488 75.5712728 69.353791 77.8349298 68.2657189 78.8411263 66.9715673 79.4903294 65.5911928 79.9962791 65.4131993 80.0616328 65.2331253 80.1213978 64.9464864 80.2213103 68.1738326 83.9542286 71.2227231 87.7605986 75 90.9069301 74.9694868 90.9489024 74.9492603 91 74.9298428 91 73.2956542 90.9785568 71.6559177 91.0272585 70.0292418 90.9060176 68.5543227 90.7960682 67.3995608 89.9108845 66.4484512 88.8818769 64.5560564 86.8343549 62.7527739 84.7063097 60.9177069 82.6073487 60.3922792 82.0062769 59.8841886 81.390606 59.3243181 80.7301113 59.2695331 80.855116 59.2207582 80.9143108 59.2209894 80.9731633 59.2343967 83.3101579 59.2530051 85.6470385 59.2693019 87.983919 59.2771613 89.1183137 59.6811142 90.0940574 60.5937356 90.9714854L53 90.9714854C54.435853 89.8470135 54.4743412 88.3607579 54.4734166 86.85728 54.4701803 81.7450901 54.4735321 76.6329002 54.4699491 71.5207103 54.469718 71.0271927 54.4410541 70.5336751 54.422908 70.0401575 54.3812991 68.9153434 54.0253121 67.9191838 53.0612575 67.0415277L53.0612575 67.0415277zM14.6614651 70.0666288C11.7833677 70.0174046 5.83886999 69.5588121 1.53713974 72.0086552 1.64196808 71.751848 1.71722066 71.5490396 1.80629049 71.3525974 2.19728421 70.4908893 2.58759278 69.6288401 2.98737929 68.7711108 3.24933595 68.209068 3.38967803 67.4383053 3.83605491 67.1566017 4.2881414 66.8712604 5.04968845 67.0631553 5.67580369 67.0628143 11.0757193 67.0601996 16.4757491 67.0613364 21.8757789 67.0613364 22.0814388 67.0613364 22.2869846 67.0613364 22.6239654 67.0613364 17.7525308 74.0631129 12.9437877 80.9748534 8.09370702 87.9459358 8.23176526 87.9767436 8.29685475 88.0047093 8.36148748 88.0037998 10.7558672 87.969809 13.1520741 87.9796993 15.5439416 87.8840929 18.0481742 87.7840529 20.4016732 87.0775204 22.598158 85.8669228 22.6948787 85.813606 22.7986793 85.7730216 23 85.6798025 22.92155 85.918307 22.884095 86.0735963 22.8209468 86.2177449 22.190949 87.6566156 21.5422238 89.0875285 20.9336941 90.5353801 20.7815902 90.897343 20.5838095 91.0005661 20.2092595 91 13.6684507 90.990221 7.12764193 90.9931768.586718963 90.9913579.421711392 90.9912442.25670382 90.9674847 0 90.947704 4.90272323 83.9651398 9.75634387 77.0524898 14.6614651 70.0666288M108.41856 86.3582518C108.41856 87.8011722 108.426241 89.1281383 108.406123 90.4546355 108.404294 90.5804382 108.253345 90.780339 108.130073 90.8171536 103.523191 92.191838 98.8904594 92.5867154 94.3068655 90.8114086 89.3691869 88.8989266 86.5079768 84.5383925 86.5813787 79.2654665 86.6711192 72.8068533 91.0754758 67.7858844 97.8801471 66.4348833 101.146287 65.7864074 104.406818 65.8723472 107.653327 66.6312668 108.217375 66.7631661 108.391613 66.9935503 108.371007 67.5455345 108.32443 68.7891402 108.356376 70.0355598 108.356376 71.3692089 108.143851 71.257241 108.012167 71.1881844 107.880726 71.1185415 104.072364 69.1004227 100.191331 68.6695515 96.3140778 70.8534531 93.6405179 72.3594507 92.4659659 74.8332964 92.0801793 77.69264 91.8030323 79.7459319 92.0489652 81.7498642 92.9391764 83.6480425 94.67546 87.350604 98.3407988 89.0859306 102.434965 88.6316105 104.364142 88.4175232 106.112985 87.7168738 107.752822 86.7402324 107.938277 86.6297887 108.127269 86.5252071 108.41856 86.3582518M77 91C78.3064672 89.6722299 78.3555364 88.0427875 78.3508017 86.3807287 78.336167 81.1163411 78.3445604 75.8519534 78.336167 70.5876802 78.3340148 69.2602534 78.1587216 67.9886749 77.0107608 67L83.9095018 67C83.9110083 67.0062944 83.9356505 67.0589383 83.9238136 67.0709548 82.9976326 68.0109913 82.7417411 69.2171083 82.7395889 70.5108888 82.7304423 76.1757132 82.7252771 81.8406521 82.7305499 87.505591 82.7317336 88.7976549 83.0460562 89.9877498 84 91L77 91z"/>
</svg>
