<svg width="74" height="71" viewBox="0 0 74 71" fill="none" xmlns="http://www.w3.org/2000/svg">
<path d="M67 16H7V12.8C7 10.149 9.23858 8 12 8H62C64.7614 8 67 10.149 67 12.8V16Z" fill="#E25A2A"/>
<path opacity="0.4" d="M60 8H13V4.8C13 2.14903 15.2546 0 18.0357 0H54.9643C57.7454 0 60 2.14903 60 4.8V8Z" class="pf-svg-primary-path"/>
<path d="M68.9545 17H5.04545C2.25893 17 0 19.2666 0 22.0625V65.9375C0 68.7334 2.25893 71 5.04545 71H68.9545C71.7411 71 74 68.7334 74 65.9375V22.0625C74 19.2666 71.7411 17 68.9545 17Z" class="pf-svg-primary-path"/>
<path d="M48.9996 38.4676C48.9846 37.8106 48.5436 37.2377 47.9107 37.0577L26.9117 31.058C26.3942 30.9081 25.8258 31.0535 25.4403 31.439C25.0548 31.8245 24.9078 32.387 25.0578 32.9119L31.0575 53.9107C31.239 54.5421 31.8105 54.9831 32.4689 54.9981C33.1529 55.0326 33.7169 54.5961 33.9239 53.9722L36.1572 47.2751L43.4394 54.5586C43.7319 54.8511 44.1158 54.9981 44.4998 54.9981C44.8838 54.9981 45.2678 54.8511 45.5603 54.5586L48.5601 51.5588C49.1466 50.9723 49.1466 50.0244 48.5601 49.4379L41.278 42.1544L47.9752 39.9225C48.5976 39.714 49.0146 39.1246 48.9996 38.4676Z" fill="white"/>
</svg>
