<svg width="30" height="30" viewBox="0 0 30 30" fill="none" xmlns="http://www.w3.org/2000/svg">
<!-- <mask id="mask0" mask-type="alpha" maskUnits="userSpaceOnUse" x="0" y="0" width="30" height="30">
<path fill-rule="evenodd" clip-rule="evenodd" d="M0 0H29.9999V29.9996H0V0Z" fill="white"/>
</mask>
<g mask="url(#mask0)">
<path fill-rule="evenodd" clip-rule="evenodd" d="M30 14.9995C30 23.2835 23.284 29.9995 15 29.9995C6.716 29.9995 0 23.2835 0 14.9995C0 6.71551 6.716 -0.000488281 15 -0.000488281C23.284 -0.000488281 30 6.71551 30 14.9995Z" fill="#797979"/>
</g> -->
<path fill-rule="evenodd" clip-rule="evenodd" d="M22.5132 13.8729C22.3946 13.8729 22.2988 13.7766 22.2988 13.6585V12.5254C22.2988 12.4068 22.3946 12.3105 22.5132 12.3105C22.6314 12.3105 22.7277 12.4068 22.7277 12.5254V13.6585C22.7277 13.7766 22.6314 13.8729 22.5132 13.8729Z" fill="white"/>
<path fill-rule="evenodd" clip-rule="evenodd" d="M19.6785 11.4444C19.4045 11.4444 19.1306 11.3784 18.9017 11.2463C18.5329 11.0333 18.3301 10.6821 18.3306 10.2584C18.3306 10.1402 18.4264 10.0444 18.5445 10.0444H18.545C18.6636 10.0444 18.7594 10.1407 18.7589 10.2589C18.7589 10.5975 18.9534 10.7807 19.1166 10.8747C19.4422 11.063 19.9148 11.063 20.2403 10.8747C20.4036 10.7807 20.598 10.5975 20.5975 10.2589C20.5975 10.1407 20.6934 10.0444 20.812 10.0444C20.9306 10.0444 21.0264 10.1402 21.0264 10.2584C21.0268 10.6821 20.8241 11.0333 20.4552 11.2463C20.2264 11.3784 19.9524 11.4444 19.6785 11.4444Z" fill="white"/>
<path fill-rule="evenodd" clip-rule="evenodd" d="M21.1026 10.0153C21.096 10.0135 21.0895 10.0121 21.083 10.0107C20.8886 9.97116 20.8156 9.94279 20.7774 9.8707C21.3374 9.38465 21.8798 8.61023 21.8798 7.74372C21.8798 6.02558 21.057 5 19.6788 5C18.3007 5 17.4774 6.02558 17.4774 7.74372C17.4774 8.61023 18.0202 9.38465 18.5802 9.8707C18.5421 9.94279 18.4691 9.97116 18.2746 10.0107C18.2677 10.0121 18.2616 10.0135 18.2546 10.0153C18.0984 10.0577 17.9416 10.1033 17.7863 10.1535C17.8407 10.354 17.8821 10.5665 17.91 10.7902C18.07 10.7367 18.2379 10.6865 18.4133 10.6391C18.9463 10.5284 19.1681 10.3102 19.2598 9.81023C19.2812 9.69116 19.2346 9.56977 19.1384 9.49628C18.6467 9.12047 18.1207 8.46233 18.1207 7.74372C18.1207 6.95907 18.3235 5.64372 19.6788 5.64372C21.0342 5.64372 21.2365 6.95907 21.2365 7.74372C21.2365 8.46233 20.7109 9.12047 20.2193 9.49628C20.123 9.56977 20.076 9.69116 20.0979 9.81023C20.1895 10.3102 20.4114 10.5284 20.9439 10.6391C22.3733 11.0265 23.3249 11.574 23.3249 12.9763C23.3249 13.1307 22.4272 13.5795 19.6788 13.5795C18.6105 13.5795 17.8226 13.5116 17.2574 13.4195C17.1821 13.5228 17.1012 13.6242 17.0146 13.7223C17.4263 13.8409 17.8467 13.9865 18.244 14.1767C18.7188 14.2102 19.2095 14.2228 19.6788 14.2228C21.6356 14.2228 23.9686 14.0065 23.9686 12.9763C23.9686 11.0498 22.5198 10.3986 21.1026 10.0153Z" fill="white"/>
<path fill-rule="evenodd" clip-rule="evenodd" d="M15.6068 21.7177C14.9463 21.7577 14.2003 21.781 13.3579 21.781C11.1617 21.781 9.6119 21.6247 8.5612 21.4159V19.7461C8.5612 19.5857 8.43097 19.4554 8.2705 19.4554C8.11004 19.4554 7.9798 19.5857 7.9798 19.7461V21.2819C7.04446 21.0336 6.6719 20.7466 6.6719 20.5559C6.6719 17.9461 8.42306 16.9345 11.0538 16.221C11.07 16.2177 11.0849 16.214 11.1007 16.2103C11.2305 16.6959 11.5421 17.0968 12.0114 17.368C12.4077 17.5968 12.8826 17.7117 13.3579 17.7117C13.7654 17.7117 14.1724 17.6266 14.53 17.4582C14.5254 17.3229 14.5207 17.188 14.5207 17.0489C14.5207 16.9512 14.5342 16.8573 14.5598 16.7675C14.5105 16.8038 14.4612 16.8368 14.4133 16.8643C13.8021 17.2182 12.9133 17.2182 12.3021 16.8643C12.0505 16.7191 11.7617 16.4638 11.6556 16.034C12.1277 15.8168 12.3524 15.4647 12.4663 14.8447C12.4956 14.6833 12.4319 14.5191 12.3021 14.4196C11.3924 13.7238 10.4203 12.5015 10.4203 11.1591C10.4203 9.98286 10.7063 7.24612 13.3579 7.24612C16.0091 7.24612 16.2952 9.98286 16.2952 11.1591C16.2952 12.5015 15.3231 13.7238 14.4133 14.4196C14.2835 14.5191 14.2198 14.6833 14.2496 14.8447C14.3631 15.4647 14.5882 15.8168 15.0598 16.034C15.0477 16.0838 15.0324 16.1303 15.0156 16.175C15.1263 16.1098 15.2505 16.0633 15.3849 16.0429C15.9254 15.961 16.4286 15.8401 16.897 15.6843C16.5603 15.5698 16.2179 15.468 15.8766 15.3759C15.8677 15.3731 15.8589 15.3712 15.85 15.3694C15.3714 15.2717 15.2366 15.1777 15.1626 14.9363C16.1691 14.0894 17.1672 12.7066 17.1672 11.1591C17.1672 8.16286 15.7431 6.37402 13.3579 6.37402C10.9724 6.37402 9.54818 8.16286 9.54818 11.1591C9.54818 12.7066 10.5463 14.0894 11.5528 14.9363C11.4789 15.1777 11.344 15.2717 10.8654 15.3694C10.8565 15.3712 10.8477 15.3731 10.8389 15.3759C8.34678 16.0494 5.7998 17.1926 5.7998 20.5559C5.7998 21.5126 7.11097 22.6531 13.3579 22.6531C14.4105 22.6531 15.3203 22.6196 16.1105 22.5615C15.9347 22.2996 15.7649 22.0201 15.6068 21.7177Z" fill="white"/>
<mask id="mask1" mask-type="alpha" maskUnits="userSpaceOnUse" x="15" y="14" width="10" height="11">
<path fill-rule="evenodd" clip-rule="evenodd" d="M24.4048 14.8042V24.9786H15.1025V14.8042L24.4048 14.8042Z" fill="white"/>
</mask>
<g mask="url(#mask1)">
<path fill-rule="evenodd" clip-rule="evenodd" d="M15.9813 17.4168C16.1371 21.7154 19.0008 23.6219 19.7557 24.0507C20.5264 23.6219 23.3729 21.7503 23.5264 17.4168C22.0362 17.1409 20.7701 16.6 19.7538 15.8056C18.7376 16.6 17.4715 17.1409 15.9813 17.4168ZM19.7537 24.9786C19.6914 24.9786 19.6291 24.9651 19.5709 24.9386C19.3886 24.8544 15.1025 22.8089 15.1025 17.0489C15.1025 16.8335 15.2602 16.6507 15.4732 16.6182C17.1086 16.3702 18.4523 15.7958 19.4672 14.9116C19.6314 14.7684 19.876 14.7684 20.0402 14.9116C21.0551 15.7958 22.3988 16.3702 24.0342 16.6182C24.2472 16.6507 24.4049 16.8335 24.4049 17.0489C24.4049 22.8089 20.1188 24.8544 19.9365 24.9386C19.8784 24.9651 19.816 24.9786 19.7537 24.9786Z" fill="white"/>
</g>
<path fill-rule="evenodd" clip-rule="evenodd" d="M17.2561 22.2748L16.8398 21.8693L22.1082 16.46L22.525 16.8655L17.2561 22.2748Z" fill="white"/>
</svg>
