<svg width="30" height="30" viewBox="0 0 30 30" fill="none" xmlns="http://www.w3.org/2000/svg">
<path fill-rule="evenodd" clip-rule="evenodd" d="M8.56932 14.0985H16.8663C17.0917 14.0985 17.2755 13.9148 17.2755 13.6894C17.2755 13.464 17.0917 13.2783 16.8663 13.2783H8.56932C8.34201 13.2783 8.15826 13.464 8.15826 13.6894C8.15826 13.9148 8.34201 14.0985 8.56932 14.0985" fill="white"/>
<path fill-rule="evenodd" clip-rule="evenodd" d="M8.56932 16.3017H16.8663C17.0917 16.3017 17.2755 16.1179 17.2755 15.8925C17.2755 15.6652 17.0917 15.4814 16.8663 15.4814H8.56932C8.34201 15.4814 8.15826 15.6652 8.15826 15.8925C8.15826 16.1179 8.34201 16.3017 8.56932 16.3017" fill="white"/>
<path fill-rule="evenodd" clip-rule="evenodd" d="M8.56932 18.5067H16.8663C17.0917 18.5067 17.2755 18.323 17.2755 18.0976C17.2755 17.8703 17.0917 17.6865 16.8663 17.6865H8.56932C8.34201 17.6865 8.15826 17.8703 8.15826 18.0976C8.15826 18.323 8.34201 18.5067 8.56932 18.5067" fill="white"/>
<path fill-rule="evenodd" clip-rule="evenodd" d="M23.2367 2.13477H11.4922C10.5507 2.13477 9.78351 2.86028 9.78351 3.75249V4.43443C9.78351 4.75835 10.0487 5.02166 10.3726 5.02166C10.6984 5.02166 10.9618 4.75835 10.9618 4.43443V3.75249C10.9618 3.51002 11.2004 3.31301 11.4922 3.31301H23.2367C23.5284 3.31301 23.7671 3.51002 23.7671 3.75249V18.9333C23.7671 19.1758 23.5284 19.3747 23.2367 19.3747H21.4125C21.0886 19.3747 20.8234 19.638 20.8234 19.9619C20.8234 20.2877 21.0886 20.551 21.4125 20.551H23.2367C24.1782 20.551 24.9435 19.8236 24.9435 18.9333V3.75249C24.9435 2.86028 24.1782 2.13477 23.2367 2.13477" fill="white"/>
<mask id="mask0" mask-type="alpha" maskUnits="userSpaceOnUse" x="4" y="5" width="17" height="20">
<path fill-rule="evenodd" clip-rule="evenodd" d="M4.54498 24.866H20.4286V5.55664H4.54498V24.866Z" fill="white"/>
</mask>
<g mask="url(#mask0)">
<path fill-rule="evenodd" clip-rule="evenodd" d="M9.01168 9.53086C9.01168 9.80364 8.74838 10.0253 8.42446 10.0253H6.5548L9.01168 7.56838V9.53086ZM5.72318 11.2016H8.42443C9.3962 11.2016 10.188 10.4515 10.188 9.53086V6.73489H18.663C18.987 6.73489 19.2503 6.95652 19.2503 7.2293V23.1943C19.2503 23.4671 18.987 23.6887 18.663 23.6887H6.31041C5.98648 23.6887 5.72318 23.4671 5.72318 23.1943V11.2016ZM18.6631 5.55664H9.60083C9.57431 5.55664 9.55158 5.5699 9.52695 5.57179C9.49854 5.57558 9.47391 5.58127 9.44739 5.58884C9.347 5.61536 9.25607 5.65893 9.18598 5.72902C9.18409 5.73091 9.18409 5.72902 9.18409 5.73091L4.71736 10.1976C4.64727 10.2677 4.60371 10.3605 4.57529 10.4609C4.56771 10.4875 4.56393 10.5121 4.56014 10.5386C4.55635 10.5632 4.54498 10.5879 4.54498 10.6125V23.1943C4.54498 24.1169 5.33679 24.867 6.31046 24.867H18.6631C19.6368 24.867 20.4286 24.1169 20.4286 23.1943V7.22929C20.4286 6.30678 19.6368 5.55664 18.6631 5.55664V5.55664Z" fill="white"/>
</g>
</svg>
