<?xml version="1.0" encoding="UTF-8"?>
<svg width="50px" height="41px" viewBox="0 0 50 41" version="1.1" xmlns="http://www.w3.org/2000/svg" xmlns:xlink="http://www.w3.org/1999/xlink">
    <!-- Generator: Sketch 54.1 (76490) - https://sketchapp.com -->
    <title>icon / upload / white</title>
    <desc>Created with Sketch.</desc>
    <g id="icon-/-upload-/-white" stroke="none" stroke-width="1" fill="none" fill-rule="evenodd">
        <g id="9-Upload-to-Cloud" fill="#FFFFFF" fill-rule="nonzero">
            <path d="M40.1,13 C38.7125418,6.93402803 33.8319596,2.28583716 27.7055639,1.19573116 C21.5791681,0.105625151 15.3947564,2.78495588 12,8 C5.372583,8.27614237 0.223857625,13.872583 0.5,20.5 C0.776142375,27.127417 6.372583,32.2761424 13,32 C14.1045695,32 15,31.1045695 15,30 C15,28.8954305 14.1045695,28 13,28 C8.581722,28 5,24.418278 5,20 C5,15.581722 8.581722,12 13,12 L13.63,12 L13.83,11.94 L14,11.87 L14.18,11.77 L14.33,11.67 C14.3872094,11.6354472 14.4408107,11.5952462 14.49,11.55 C14.5307897,11.5041956 14.5741956,11.4607897 14.62,11.42 C14.6659526,11.3750674 14.7062505,11.3246951 14.74,11.27 C14.7865826,11.2182786 14.8268641,11.1612131 14.86,11.1 L14.91,11.03 C17.3255366,6.62904782 22.314846,4.30136582 27.2392113,5.27800491 C32.1635766,6.254644 35.8868952,10.3102834 36.44,15.3 L36.44,15.36 C36.4355243,15.3864789 36.4355243,15.4135211 36.44,15.44 C36.44,15.54 36.44,15.64 36.51,15.74 L36.51,15.8 C36.5482958,15.9036972 36.5951228,16.0040408 36.65,16.1 C36.7143658,16.203153 36.788004,16.3002216 36.87,16.39 C37.2463234,16.8126653 37.7840935,17.0561153 38.35,17.06 L38.66,17.06 C38.9379025,17.0171908 39.2188343,16.9971242 39.5,17 C42.5375661,17 45,19.4624339 45,22.5 C45,25.5375661 42.5375661,28 39.5,28 L38,28 C36.8954305,28 36,28.8954305 36,30 C36,31.1045695 36.8954305,32 38,32 L39.5,32 C44.7467051,32.1656854 49.1343146,28.0467051 49.3,22.8 C49.4656854,17.5532949 45.3467051,13.1656854 40.1,13 L40.1,13 Z" id="Path"></path>
            <path d="M26.86,19.94 C26.7263016,19.8054658 26.5663055,19.6999364 26.39,19.63 C26.217003,19.5661772 26.0343794,19.532358 25.85,19.53 C25.6612804,19.5307752 25.4745009,19.5681311 25.3,19.64 C25.1075304,19.7199681 24.933838,19.8391687 24.79,19.99 L18.86,25.92 C18.4315594,26.3489736 18.3034836,26.9936842 18.535426,27.553847 C18.7673685,28.1140099 19.3137167,28.4794667 19.92,28.48 C20.2981023,28.4482917 20.6509344,28.2772216 20.91,28 L24.29,24.61 L24.29,39 C24.29,39.8284271 24.9615729,40.5 25.79,40.5 C26.6184271,40.5 27.29,39.8284271 27.29,39 L27.29,24.62 L30.68,28 C31.0604879,28.3787015 31.614108,28.5256483 32.1323171,28.385487 C32.6505261,28.2453256 33.0545959,27.8393499 33.1923171,27.3204869 C33.3300383,26.801624 33.1804879,26.2487015 32.8,25.87 L26.86,19.94 Z" id="Path"></path>
        </g>
    </g>
</svg>
