<svg xmlns="http://www.w3.org/2000/svg" xmlns:xlink="http://www.w3.org/1999/xlink" width="40" height="40" viewBox="0 0 40 40">
  <defs>
    <polygon id="insured-copy-a" points="0 0 40 0 40 39.999 0 39.999"/>
  </defs>
  <g fill="none" fill-rule="evenodd">
    <mask id="insured-copy-b" fill="#fff">
      <use xlink:href="#insured-copy-a"/>
    </mask>
    <g fill="#FFF" fill-rule="nonzero" transform="translate(10.667 13.333)">
      <polygon points="2.515 12 2.515 7.09 8.235 7.09 8.235 4.874 2.515 4.874 2.515 2.393 8.359 2.393 8.359 .177 0 .177 0 12"/>
      <path d="M18.6666667,12 L18.6666667,9.78434269 L13.8494624,9.78434269 C16.913346,7.55096012 18.5781151,5.79615953 18.5781151,3.77548006 C18.5781151,1.41802068 16.5945604,0 14.0619861,0 C12.4149273,0 10.6616066,0.602658789 9.51043643,1.93205318 L10.9449715,3.59822747 C11.7419355,2.76514032 12.7691335,2.23338257 14.115117,2.23338257 C15.0891841,2.23338257 16.0278305,2.72968981 16.0278305,3.77548006 C16.0278305,5.22895126 14.6110057,6.43426883 9.77609108,10.014771 L9.77609108,12 L18.6666667,12 Z"/>
    </g>
  </g>
</svg>
