<svg width="30" height="30" viewBox="0 0 30 30" fill="none" xmlns="http://www.w3.org/2000/svg">
<path fill-rule="evenodd" clip-rule="evenodd" d="M15 8.05361C15 8.05361 13.4116 8.23402 12.9994 7.37611C12.9994 7.37611 12.9973 7.3724 12.994 7.36538C12.5801 6.53968 11.4726 6.34316 10.7856 6.9678C9.53818 8.10232 6.93189 10.1707 5 9.65671C5 9.65671 5.53114 10.9436 7.27202 10.6727C7.27202 10.6727 8.0968 11.5079 9.51724 10.9663C9.51724 10.9663 10.319 11.5307 11.5103 11.0113C11.5103 11.0113 12.3351 11.6661 13.3199 11.079C13.3199 11.079 14.3436 11.8015 15 11.079V8.05361Z" fill="white"/>
<mask id="mask1" mask-type="alpha" maskUnits="userSpaceOnUse" x="14" y="6" width="11" height="6">
<path fill-rule="evenodd" clip-rule="evenodd" d="M14.9756 6.66699H24.9066V11.3176H14.9756V6.66699Z" fill="white"/>
</mask>
<g mask="url(#mask1)">
<path fill-rule="evenodd" clip-rule="evenodd" d="M14.9756 8.07525C14.9756 8.07525 16.5531 8.25005 16.9628 7.41885C16.9628 7.41885 16.9645 7.41525 16.9678 7.40845C17.3788 6.60845 18.4787 6.41805 19.161 7.02325C20.3998 8.12245 22.9882 10.1265 24.9068 9.62845C24.9068 9.62845 24.3793 10.8753 22.6504 10.6129C22.6504 10.6129 21.8313 11.4221 20.4206 10.8973C20.4206 10.8973 19.6244 11.4441 18.4417 10.9409C18.4417 10.9409 17.6222 11.5753 16.6442 11.0065C16.6442 11.0065 15.6275 11.7065 14.9756 11.0065V8.07525Z" fill="white"/>
</g>
<path fill-rule="evenodd" clip-rule="evenodd" d="M14.8011 25H14.7994C14.8011 25 14.6001 24.7045 14.6001 24.7045V7H15.0001V24.7045L14.8011 25Z" fill="white"/>
<path fill-rule="evenodd" clip-rule="evenodd" d="M15.9926 13.1575C15.9926 13.1575 15.4527 12.287 16.712 11.9063C16.712 11.9063 17.9885 11.3385 19.2377 12.8252C19.2377 12.8252 20.209 13.9608 19.5983 14.9339C19.5983 14.9339 19.426 15.4996 16.6332 16.5621C16.5245 16.6036 16.4138 16.6405 16.3026 16.6741C15.7239 16.8497 13.4997 17.6509 14.9081 19.2595L14.214 19.7998C14.214 19.7998 12.3823 18.3672 14.214 16.7451C14.214 16.7451 15.1001 15.9341 16.5999 15.4475C18.0997 14.961 18.627 14.5556 18.627 14.5556C18.627 14.5556 19.4593 14.1228 18.1275 13.9608C18.1275 13.9608 16.5325 14.0654 15.9926 13.1575" fill="white"/>
<path fill-rule="evenodd" clip-rule="evenodd" d="M15.7519 20.2002C15.7519 20.2002 17.0108 21.3605 16.461 22.2309C16.461 22.2309 16.2267 22.5584 15.4374 22.947C14.724 23.2981 14.0681 23.7634 13.5683 24.3771C13.4157 24.5642 13.2729 24.767 13.157 24.9786C13.157 24.9786 12.9286 25.137 13.0228 24.5963C13.0228 24.5963 12.9571 23.1725 14.1968 22.6587C14.1968 22.6587 16.4662 21.8815 15.1566 20.9184V20.6811L15.7519 20.2002Z" fill="white"/>
<path fill-rule="evenodd" clip-rule="evenodd" d="M13.6231 16.5998C13.6657 16.5594 13.7061 16.519 13.7522 16.4794C13.772 16.4622 14.0699 16.2006 14.6002 15.8859C14.2761 15.7251 13.899 15.5643 13.4707 15.4291C11.9378 14.945 11.3989 14.5418 11.3989 14.5418C11.3989 14.5418 10.5479 14.1111 11.9099 13.9499C11.9099 13.9499 13.5396 14.054 14.0914 13.1507C14.0914 13.1507 14.6437 12.2845 13.3562 11.9057C13.3562 11.9057 12.0515 11.3408 10.7748 12.8201C10.7748 12.8201 9.78213 13.9499 10.4063 14.9181C10.4063 14.9181 10.5823 15.4814 13.4367 16.5386C13.4978 16.561 13.5606 16.5798 13.6231 16.5998" fill="white"/>
<path fill-rule="evenodd" clip-rule="evenodd" d="M15.7707 19.9087C15.3398 20.2962 14.4536 20.8807 14.4536 20.8807C13.773 21.3833 14.0503 21.8356 14.4811 22.1549C14.3408 22.2227 14.2005 22.2841 14.0709 22.328C13.8893 22.4065 13.7323 22.4981 13.5954 22.6C13.2598 22.3724 13.1405 22.2091 13.1405 22.2091C12.5861 21.3292 13.8516 20.1568 13.8516 20.1568C14.3133 19.7898 15.066 19.3447 15.066 19.3447C15.7913 18.4985 15.569 17.8663 15.0935 17.4246C15.3772 17.2481 15.7162 17.1019 16.0376 17C17.4434 18.5735 15.7707 19.9087 15.7707 19.9087" fill="white"/>
<path fill-rule="evenodd" clip-rule="evenodd" d="M16.3352 23C16.2116 23.0699 16.0776 23.142 15.9186 23.2162C15.7367 23.3016 15.5649 23.3929 15.3999 23.4873C15.7673 23.7413 16.105 24.03 16.3921 24.3658C16.5557 24.5563 16.7084 24.7626 16.8324 24.978C16.8324 24.978 17.0762 25.1393 16.9755 24.5889C16.9755 24.5889 17.0211 23.6392 16.3352 23" fill="white"/>
<path fill-rule="evenodd" clip-rule="evenodd" d="M16.1999 6.4C16.1999 7.17334 15.5732 7.8 14.7999 7.8C14.0266 7.8 13.3999 7.17334 13.3999 6.4C13.3999 5.62709 14.0266 5 14.7999 5C15.5732 5 16.1999 5.62709 16.1999 6.4" fill="white"/>
</svg>
