<svg  class="uk-border-circle uk-display-block uk-background-primary uk-margin-auto" width="35" height="35" viewBox="0 -2 15 26" fill="none" xmlns="http://www.w3.org/2000/svg">
		<mask id="mask0" mask-type="alpha" maskUnits="userSpaceOnUse" x="-1" y="0" width="35" height="35">
		<path fill-rule="evenodd" clip-rule="evenodd" d="M-0.000335693 0.0465088H16.9724V21.9445H-0.000335693V0.0465088Z" fill="white"/>
		</mask>
		<g mask="url(#mask0)">
		<path fill-rule="evenodd" clip-rule="evenodd" d="M16.5864 7.8824C16.4195 7.82807 16.3103 7.79249 16.1714 7.74733C16.1855 7.95468 16.1961 8.10928 16.2066 8.26393C16.2329 8.27426 16.2591 8.28458 16.2854 8.29495C16.3766 8.16989 16.4679 8.04486 16.5864 7.8824V7.8824ZM15.9742 10.132C16.2375 9.84208 16.4352 9.01487 16.3215 8.75082C16.2617 9.20361 15.9035 9.5838 15.9742 10.132V10.132ZM4.47586 0.0464935C4.54176 0.0801215 4.60719 0.114726 4.67376 0.147191C5.13228 0.371052 5.59771 0.582633 6.04733 0.822494C6.31428 0.964913 6.36952 0.972355 6.48247 0.689006C6.55195 0.514726 6.58424 0.326308 6.64657 0.0947261C6.89152 0.233424 7.11467 0.345796 7.32247 0.480633C7.66986 0.706029 7.81747 0.702075 8.13838 0.422912C8.26195 0.315424 8.384 0.206261 8.55428 0.0559819C8.73652 0.323284 8.92633 0.557238 9.06309 0.817703C9.15543 0.993564 9.23343 1.03459 9.40533 0.938308C9.64557 0.803703 9.8919 0.679052 10.1765 0.758215C10.1765 0.906727 10.1488 1.04947 10.1818 1.17724C10.2766 1.54454 10.559 1.66845 10.91 1.5111C11.0583 1.44463 11.1996 1.36319 11.375 1.27259C11.375 1.4697 11.3759 1.62705 11.3748 1.7844C11.3716 2.27556 11.5888 2.67715 11.9592 2.98054C12.3589 3.3078 12.7832 3.61022 13.2196 3.88943C13.6019 4.13403 13.8212 4.42975 13.8188 4.89357C13.818 5.04008 13.9262 5.21719 14.0382 5.32905C14.5502 5.84031 15.1877 6.17133 15.8475 6.46157C16.2269 6.62845 16.5778 6.81566 16.8097 7.17943C16.9601 7.41561 17.0282 7.65599 16.9183 7.90394C16.6856 8.42924 16.6043 8.98473 16.5175 9.54189C16.4607 9.90599 16.283 10.215 16.0143 10.4694C15.8543 10.6209 15.8456 10.7683 15.9745 10.9365C16.0693 11.0604 16.1526 11.1937 16.2562 11.3099C16.4142 11.4875 16.4108 11.6627 16.3059 11.8644C16.0655 12.3266 15.6281 12.4807 15.159 12.6046C14.8119 12.6963 14.4859 12.6112 14.1546 12.5385C14.1015 12.5268 14.0472 12.5206 13.9853 12.5106C13.8439 12.8117 13.8987 13.1074 13.976 13.3986C14.0314 13.6071 14.102 13.8128 14.1824 14.0134C14.4585 14.7025 14.3798 15.3625 14.0217 15.9996C13.919 16.1824 13.8086 16.3632 13.6815 16.5304C13.1942 17.1713 12.8792 17.8756 12.8106 18.6782C12.8049 18.745 12.7555 18.8083 12.7264 18.8732C12.665 18.8207 12.5667 18.7782 12.5484 18.7139C12.4792 18.4705 12.4206 18.2219 12.3872 17.9715C12.3526 17.7121 12.3648 17.4466 12.3287 17.1874C12.3177 17.1083 12.2265 17.0051 12.15 16.9817C12.0993 16.9662 11.9858 17.0589 11.942 17.1283C11.8514 17.2719 11.7858 17.4312 11.7156 17.5865C11.687 17.6495 11.6881 17.7293 11.6491 17.7831C11.582 17.8758 11.494 17.9541 11.4149 18.0384C11.3891 17.9323 11.3433 17.8266 11.3408 17.72C11.324 16.988 11.0611 16.3677 10.484 15.8891C10.3962 15.8163 10.2844 15.7713 10.1176 15.6755C10.1675 15.8178 10.1897 15.8952 10.2213 15.9687C10.464 16.5342 10.5573 17.1242 10.5419 17.7352C10.5226 18.496 10.5931 19.2477 10.7977 19.9853C10.9993 20.7126 11.451 21.2446 12.1109 21.6189C12.1707 21.6528 12.2261 21.694 12.2876 21.7345C12.1708 21.9382 11.9746 21.9532 11.8024 21.9417C10.9409 21.8847 10.2252 21.4962 9.61957 20.9251C9.45243 20.7674 9.37876 20.5039 9.29824 20.2769C9.27371 20.2078 9.35295 20.0365 9.41433 20.0205C9.51862 19.9933 9.67367 20.0185 9.75767 20.0831C9.87052 20.1701 9.932 20.3186 10.0231 20.435C10.159 20.6087 10.3017 20.7774 10.4414 20.9482C10.4652 20.9357 10.489 20.923 10.5128 20.9105C10.4662 20.5959 10.4128 20.2823 10.3743 19.9668C10.2938 19.3071 10.2461 18.6425 10.1369 17.9875C10.0575 17.5117 9.90438 17.0473 9.77557 16.5801C9.755 16.5056 9.68962 16.4429 9.632 16.355C9.42714 16.7645 9.24628 17.1467 9.04609 17.519C8.91747 17.7581 8.77147 17.9904 8.611 18.2103C8.53871 18.3093 8.41219 18.3706 8.31024 18.4492C8.28728 18.4289 8.26428 18.4087 8.24133 18.3886C8.25452 18.3257 8.25376 18.2557 8.28305 18.2011C8.60924 17.5926 8.52176 16.9875 8.25957 16.3909C8.06828 15.9558 7.75914 15.6165 7.36814 15.3263C6.96019 15.0234 6.59052 14.6699 6.216 14.3262C6.03066 14.1562 5.95081 13.9316 5.94805 13.6775C5.94509 13.4071 5.93681 13.1354 5.90566 12.8671C5.86724 12.5354 5.76619 12.4845 5.43086 12.5018C5.14833 12.5165 4.86166 12.5022 4.58066 12.4695C4.49305 12.4592 4.4179 12.3472 4.33709 12.2818C4.39752 12.2171 4.44924 12.1409 4.51986 12.0894C5.04157 11.7094 5.15481 11.1701 5.06357 10.5975C5.01019 10.2625 4.83924 9.94259 4.70266 9.62348C4.49305 9.13343 4.29543 8.63975 4.43333 8.09924C4.50128 7.83292 4.627 7.58068 4.721 7.33664C4.36724 7.05715 3.98238 6.78454 3.63538 6.47194C3.01347 5.91171 2.65109 5.19064 2.39652 4.41505C2.33966 4.24189 2.31676 4.05715 2.54509 3.96324C3.54619 3.55138 4.55524 3.15933 5.66586 3.17161C6.10162 3.17645 6.53509 3.23738 6.90705 3.49887C7.17547 3.68761 7.26047 3.86561 7.21562 4.19301C7.165 4.15822 7.11795 4.13631 7.08495 4.1017C6.60528 3.5984 5.99786 3.45319 5.31938 3.47603C4.66119 3.49822 4.04105 3.66812 3.43405 3.89757C3.073 4.03403 3.04276 4.10129 3.12214 4.47491C3.26738 5.1585 3.59186 5.75445 4.07157 6.26496C4.38495 6.5985 4.78847 6.79208 5.24243 6.88743C5.35295 6.91068 5.45814 6.95817 5.58552 7.0012C5.54447 7.0724 5.53024 7.1191 5.49881 7.14813C4.981 7.62701 4.76719 8.23078 4.81757 8.90571C4.83781 9.17669 4.99295 9.44003 5.09809 9.70245C5.21833 10.0025 5.37124 10.2913 5.47352 10.5967C5.59214 10.9508 5.51719 11.2999 5.35109 11.6298C5.27838 11.7742 5.19933 11.9157 5.11481 12.0742C5.54486 12.178 5.82866 11.8504 6.23262 11.7548C6.26647 11.991 6.31186 12.213 6.32733 12.437C6.35352 12.8151 6.34795 13.1954 6.38243 13.5725C6.39581 13.7187 6.45814 13.8731 6.5389 13.9988C6.81119 14.4228 7.16686 14.7735 7.57919 15.0724C8.14666 15.4837 8.63771 15.9568 8.88195 16.6741C8.96276 16.5485 9.05405 16.4281 9.12133 16.2961C9.18795 16.1654 9.23833 16.0253 9.28205 15.8852C9.49343 15.2078 10.1922 15.2855 10.6174 15.5543C10.9973 15.7945 11.252 16.1303 11.4756 16.4995C11.5073 16.5517 11.5464 16.5996 11.5921 16.6637C11.6694 16.602 11.7392 16.5525 11.8016 16.4953C11.9617 16.3486 12.1456 16.2462 12.3603 16.3402C12.577 16.4349 12.6363 16.6468 12.6623 16.8592C12.6807 17.0099 12.6818 17.1626 12.6941 17.3759C12.7678 17.2856 12.8044 17.2504 12.8294 17.2086C13.0517 16.8355 13.2514 16.4478 13.4973 16.0904C13.9433 15.4422 14.0402 14.7561 13.828 14.0124C13.6819 13.5004 13.5566 12.9826 13.4065 12.4718C13.3833 12.3932 13.2881 12.3139 13.2063 12.2759C12.5562 11.9736 11.8993 11.6853 11.249 11.3833C11.0496 11.2907 10.8706 11.1564 10.6716 11.0628C10.1602 10.8224 9.87728 10.4178 9.75347 9.89134C9.65271 9.4631 9.54743 9.03566 9.45933 8.60492C9.44509 8.5351 9.51005 8.44989 9.53838 8.3718C9.58124 8.43534 9.64114 8.49352 9.66438 8.56329C9.85667 9.14138 10.0423 9.72162 10.2299 10.3012C10.3255 10.5967 10.5487 10.7914 10.819 10.9078C11.7942 11.3278 12.7715 11.7449 13.7631 12.1253C14.093 12.2518 14.466 12.2942 14.8237 12.3224C15.2761 12.3581 15.6498 12.1469 15.9716 11.8503C16.1262 11.7078 16.1358 11.5672 16.0049 11.3817C15.7994 11.0905 15.6241 10.7777 15.4517 10.4657C15.3815 10.3387 15.3013 10.2878 15.17 10.3469C14.8208 10.5042 14.4705 10.66 14.1282 10.831C13.8266 10.9817 13.5485 11.1874 13.2342 11.2999C13.056 11.3638 12.8177 11.3191 12.6211 11.2687C12.4026 11.2127 12.1948 11.1052 11.9944 10.9984C11.9182 10.9578 11.8757 10.8569 11.8179 10.7835C11.9019 10.7565 11.9907 10.6964 12.0693 10.7072C13.1863 10.8607 14.2168 10.5655 15.2279 10.1498C15.4827 10.0451 15.6679 9.88799 15.7785 9.63813C15.8567 9.46124 15.9663 9.29748 16.0429 9.12003C16.1948 8.76822 16.0942 8.5391 15.7341 8.39515C15.581 8.33394 15.4199 8.29152 15.2682 8.22752C14.9152 8.07859 14.6659 7.8304 14.5608 7.46357C14.538 7.38413 14.5575 7.29315 14.5575 7.15333C14.7425 7.24482 14.8751 7.30775 15.0052 7.37529C15.2696 7.5125 15.541 7.57129 15.8482 7.54706C16.1159 7.52599 16.3897 7.57831 16.6749 7.59929C16.6783 7.38208 16.5784 7.18622 16.4018 7.05385C16.191 6.89594 15.9596 6.75585 15.719 6.64617C14.9299 6.28654 14.1809 5.87464 13.6167 5.20654C13.547 5.12398 13.4859 5.0045 13.4852 4.90171C13.4831 4.56887 13.3208 4.34966 13.0409 4.18724C12.6942 3.98612 12.3445 3.78887 12.0091 3.57073C11.428 3.19268 11.0456 2.68319 10.9903 1.97784C10.7495 1.92752 10.4935 1.92524 10.2972 1.81836C10.1059 1.71417 9.97552 1.50301 9.78319 1.30208C9.54343 1.48919 9.27138 1.70147 8.98124 1.92789C8.8619 1.52933 8.74881 1.15166 8.61909 0.718587C8.46762 0.845424 8.36843 0.929517 8.26805 1.01226C8.03481 1.20463 7.93319 1.19542 7.68766 1.02859C7.46457 0.876913 7.22128 0.753703 6.96114 0.603052C6.81557 1.08198 6.86109 1.56129 6.56176 1.96301C5.95719 1.49631 5.49114 0.86254 4.70138 0.624075C4.60714 0.907936 4.52719 1.17901 4.42738 1.44291C4.24766 1.9178 4.24466 1.91259 3.79919 1.66854C3.066 1.26691 2.27762 1.13933 1.45171 1.21687C1.57009 1.57529 1.6849 1.92296 1.80833 2.29677C1.59785 2.32622 1.444 2.34766 1.29014 2.36915C0.875283 2.42715 0.520474 2.59184 0.249902 2.91487C0.174998 3.00436 0.0835215 3.0805 -0.000335693 3.16277V2.55812C0.38076 2.36082 0.764236 2.16761 1.13971 1.96059C1.18443 1.93594 1.221 1.82096 1.20028 1.7731C1.12766 1.60575 1.04747 1.43501 0.93476 1.29222C0.750331 1.05859 0.757426 0.982448 1.05295 0.927796C1.91538 0.768168 2.78066 0.819006 3.64638 0.912448C4.19238 0.971424 4.06924 1.00059 4.18366 0.534075C4.19452 0.489703 4.17995 0.438401 4.19466 0.396122C4.23586 0.277936 4.28624 0.162819 4.333 0.0464935H4.47586Z" fill="white"/>
		</g>
		<path fill-rule="evenodd" clip-rule="evenodd" d="M0.000183105 8.27908C0.155231 8.16205 0.344136 8.07029 0.458993 7.92331C0.792993 7.4961 1.09728 7.04671 1.41337 6.6061C1.43128 6.58117 1.44737 6.55322 1.47085 6.53447C1.48628 6.5222 1.51352 6.5241 1.58275 6.51001C1.56947 6.65782 1.57604 6.79392 1.54285 6.92006C1.33914 7.69364 0.898897 8.3414 0.375945 8.93833C0.285135 9.04196 0.127135 9.0894 0.000183105 9.1628V8.27908Z" fill="white"/>
		<path fill-rule="evenodd" clip-rule="evenodd" d="M3.16408 21.6721C2.87869 21.6721 2.59336 21.6747 2.30803 21.6713C1.97669 21.6675 1.90131 21.5471 2.07517 21.2699C2.69874 20.2755 3.11422 19.1925 3.48617 18.0934C3.87798 16.9355 4.04784 15.7379 4.09741 14.5216C4.10136 14.4242 4.17317 14.3294 4.21346 14.2334C4.2986 14.3112 4.42631 14.3739 4.46222 14.4694C4.78946 15.3403 5.01969 16.232 5.10327 17.1623C5.2386 18.6689 4.96503 20.0973 4.33369 21.4702C4.26688 21.6155 4.18974 21.6872 4.01846 21.6796C3.73422 21.667 3.44888 21.6762 3.16408 21.6762V21.6721Z" fill="white"/>
		<path fill-rule="evenodd" clip-rule="evenodd" d="M3.37578 7.86771C3.37578 8.07962 3.40502 8.29604 3.37112 8.50264C3.12007 10.0332 2.87621 11.5658 2.30759 13.0261C2.00297 13.8085 1.63383 14.5578 1.17193 15.2632C1.01464 15.5033 0.936258 15.5083 0.749973 15.2826C0.695401 15.2165 0.645258 15.1466 0.597449 15.0756C0.234877 14.5369 0.255639 14.4956 0.632116 13.9805C0.910925 13.599 1.16702 13.1943 1.37583 12.7728C2.03645 11.4393 2.66869 10.0924 3.02502 8.64199C3.07102 8.45469 3.10045 8.26325 3.15297 8.0779C3.17735 7.9919 3.23869 7.9159 3.28326 7.83534C3.31412 7.84613 3.34497 7.85692 3.37578 7.86771" fill="white"/>
		<mask id="mask1" mask-type="alpha" maskUnits="userSpaceOnUse" x="5" y="16" width="4" height="6">
		<path fill-rule="evenodd" clip-rule="evenodd" d="M5.98682 16.2572H8.98407V21.995H5.98682V16.2572Z" fill="white"/>
		</mask>
		<g mask="url(#mask1)">
		<path fill-rule="evenodd" clip-rule="evenodd" d="M6.00653 16.2667C6.08082 16.2667 6.16725 16.2425 6.22706 16.2713C6.4022 16.3554 6.59001 16.4358 6.7313 16.562C7.33582 17.1023 7.53592 17.795 7.41125 18.5653C7.20006 19.8699 7.73668 20.8675 8.69545 21.7078C8.77207 21.775 8.85274 21.8377 8.92955 21.9047C8.94574 21.9188 8.95331 21.9423 8.98407 21.9933C8.45254 21.9933 7.94226 22.0002 7.43254 21.986C7.35663 21.9839 7.27049 21.8944 7.21125 21.8268C6.69239 21.2349 6.59087 20.5337 6.63777 19.7845C6.68163 19.0844 6.72701 18.3817 6.70992 17.6816C6.69687 17.1461 6.43096 16.6927 5.98682 16.351C5.99344 16.3229 5.99996 16.2948 6.00653 16.2667" fill="white"/>
		</g>
		<path fill-rule="evenodd" clip-rule="evenodd" d="M11.5303 6.03426C11.5651 5.79115 11.3974 5.78836 11.2544 5.7792C11.2193 5.77692 11.14 5.8618 11.1478 5.88268C11.2119 6.05323 11.3577 6.05523 11.5303 6.03426M10.0694 5.63976C10.6879 5.62106 11.3246 5.69338 11.8896 5.29301C11.9022 5.36929 11.9253 5.42111 11.9159 5.4665C11.8693 5.69111 11.9322 5.87571 12.0986 6.03557C12.1407 6.07603 12.1743 6.13989 12.1817 6.19678C12.1956 6.30445 12.1594 6.34287 12.0282 6.30924C11.8879 6.27324 11.7232 6.25078 11.5879 6.2878C11.2661 6.37589 11.1435 6.37031 10.9486 6.11134C10.7819 5.8899 10.5529 5.81901 10.2986 5.77576C10.2182 5.76208 10.1395 5.73827 10.06 5.71911C10.0631 5.69264 10.0663 5.66618 10.0694 5.63976" fill="white"/>
	</svg>
