<svg xmlns="http://www.w3.org/2000/svg" xmlns:xlink="http://www.w3.org/1999/xlink" width="65" height="78" viewBox="0 -10 60 100">
  <defs>
    <polygon id="nw_logo-a" points=".027 .206 57.729 .206 57.729 47.782 .027 47.782"/>
    <polygon id="nw_logo-c" points=".28 .311 40.899 .311 40.899 77.973 .28 77.973"/>
  </defs>
  <g fill="none" fill-rule="evenodd">
    <path fill="#FFFFFE" d="M62.7089063,19.9029923 L62.9225725,19.9029923 C63.1722022,19.9029923 63.3740216,19.8182997 63.3740216,19.6117533 C63.3740216,19.430269 63.2437064,19.3088474 62.9585361,19.3088474 C62.8396446,19.3088474 62.7562936,19.3209463 62.7089063,19.3334774 L62.7089063,19.9029923 Z M62.6974825,21.0303554 L62.2460334,21.0303554 L62.2460334,19.0422383 C62.423736,19.0055093 62.6733658,18.9813114 62.9940766,18.9813114 C63.3625978,18.9813114 63.5276074,19.0422383 63.6706156,19.126931 C63.7772371,19.2120557 63.860165,19.3693421 63.860165,19.5633575 C63.860165,19.7815707 63.6938862,19.9513881 63.4573725,20.024414 L63.4573725,20.0486119 C63.6464988,20.1212056 63.7539666,20.2668251 63.8127777,20.5334342 C63.872858,20.8363401 63.9075524,20.9577617 63.9557859,21.0303554 L63.4687963,21.0303554 C63.4099852,20.9577617 63.3740216,20.7754132 63.3139412,20.5455331 C63.2792469,20.3273199 63.1603554,20.2300961 62.9111487,20.2300961 L62.6974825,20.2300961 L62.6974825,21.0303554 Z M61.4979903,19.987685 C61.4979903,20.8726369 62.139835,21.5761046 63.0173472,21.5761046 C63.872858,21.5761046 64.5011635,20.8726369 64.5011635,19.9997839 C64.5011635,19.114832 63.872858,18.3996975 63.0059234,18.3996975 C62.139835,18.3996975 61.4979903,19.114832 61.4979903,19.987685 Z M65,19.987685 C65,21.1150481 64.1339116,22 63.0059234,22 C61.8902052,22 61,21.1150481 61,19.987685 C61,18.8849519 61.8902052,18 63.0059234,18 C64.1339116,18 65,18.8849519 65,19.987685 L65,19.987685 Z"/>
    <g transform="translate(0 17)">
      <mask id="nw_logo-b" fill="#fff">
        <use xlink:href="#nw_logo-a"/>
      </mask>
      <path fill="#FFFFFE" d="M44.5887176.206666667L44.5887176 29.848 40.9143511 26.2377778 40.9143511 37.6555556C40.9143511 40.2875556 40.6757099 42.0133333 39.4147634 43.5946667L39.385542 43.6302222C39.322229 43.704 39.2686565 43.772 39.2075573 43.844L43.3702748 47.7822222 57.7285954 47.7822222 57.7285954.206666667 44.5887176.206666667M13.1403206 19.0293333C13.1403206 19.0293333 18.9354504 24.5404444 19.4525802 25.032 18.9018015 22.9746667 18.5197099 20.2448889 19.6283511 18.4613333L20.2234046 17.5048889C19.6203817 14.2586667 19.772687 10.8911111 21.8088855 8.64933333L22.3423969 8.06133333 14.3211298.206222222 0 .206222222 0 47.7822222 13.1403206 47.7822222 13.1403206 19.0293333" mask="url(#nw_logo-b)"/>
    </g>
    <g transform="translate(2)">
      <mask id="nw_logo-d" fill="#fff">
        <use xlink:href="#nw_logo-c"/>
      </mask>
      <path fill="#FFFFFE" d="M37.3978571,73.0824343 L40.3160659,70.5623657 L35.8195824,68.1519429 C35.8195824,68.1519429 33.7281319,67.2489257 33.4181538,65.7829714 C33.4172527,65.78208 33.4172527,65.7811886 33.4172527,65.7811886 C32.9991429,64.00992 34.9297473,61.5816686 36.4183626,59.8745829 C37.455978,58.5913714 37.6668352,57.1387886 37.6668352,54.7002857 L37.6668352,19.3952571 C37.6668352,7.17065143 38.9603626,0.310673522 38.9603626,0.310673522 C38.9603626,0.310673522 31.0933187,-0.09672 31.6137033,24.0609943 C31.6137033,24.0609943 29.0802637,16.0965257 32.6463626,5.76888 C25.383956,7.02044571 25.3136703,20.7190286 27.4528791,30.3870171 C27.4528791,30.3870171 24.0638462,24.6827657 25.4682088,14.1893143 C18.2968132,17.4920571 22.1418022,33.8248114 25.515967,39.1453029 C25.515967,39.1453029 21.4389451,35.9419543 20.4247582,26.4540343 C16.5649011,30.6433029 20.6072308,40.1566286 22.4810659,42.8429486 C22.4810659,42.8429486 19.6263846,41.0462743 18.3445714,36.114 C16.7361099,38.6634857 19.0992418,45.2083543 21.1186044,47.6785029 L16.9005604,44.8722857 C16.3535934,46.7077371 19.5678132,52.9825029 20.7541099,54.1640914 L16.2287912,51.3476229 C16.8645165,55.1442171 20.4008791,58.4202171 21.4155165,59.5090971 L15.698044,57.5261143 C16.2742967,60.0533143 19.3993077,63.3186171 21.5524835,64.6227771 L16.4243297,63.8583771 C17.5033956,66.4751657 20.0174615,67.9638514 22.7063407,69.0946286 C22.7063407,69.0946286 17.2664066,68.7768343 14.0575934,68.74296 C6.12747253,68.6582743 0.279791209,69.11736 0.279791209,69.11736 C1.59043956,70.0337486 4.37213187,70.9697486 7.54850549,71.0713714 L3.93284615,73.50096 C6.49737363,73.7171314 9.14254945,73.1867314 9.14254945,73.1867314 L7.12183516,75.35112 C7.12183516,75.35112 10.9920549,73.5936686 14.0738132,73.6306629 C16.6293297,73.6623086 26.959978,78 34.3886374,78 C35.433011,78 36.4048462,77.9086286 37.3208132,77.7561943 C37.6893626,77.4299314 40.8990769,74.1739886 40.8990769,74.1739886 L37.3978571,73.0824343" mask="url(#nw_logo-d)"/>
    </g>
    <path fill="#FFFFFE" d="M51.8954933,70.7370312 C50.3091001,70.7551924 48.8602271,71.1653706 48.8602271,71.1653706 L48.9530978,70.1585294 C48.9530978,70.1585294 50.6475426,70.2285166 51.7186817,70.4925189 C51.6066117,70.0371592 51.2708482,69.0666404 50.4251885,68.9612167 C48.1873606,68.6825967 45.958909,68.4748499 42.8222886,68.2352102 C41.9444814,68.1696525 40.9997001,68.0846048 40,68 L44.0041582,70.1496702 L41.3984192,72.4052072 L44.5810285,73.5050694 C44.5810285,73.5050694 42.1927321,76.1185156 41.2792053,77 C43.3656718,76.371887 45.1422715,75.4434492 46.7884949,74.580126 C48.5878657,73.6370706 50.1425578,72.8862585 51.7767259,72.6195984 C52.290194,72.5358795 54.1069781,72.293582 54.9946082,72.9026479 C55.1499881,70.7224136 51.8954933,70.7370312 51.8954933,70.7370312"/>
  </g>
</svg>
