<svg width="40" height="40" viewBox="0 0 40 40" fill="none" xmlns="http://www.w3.org/2000/svg">
<path fill-rule="evenodd" clip-rule="evenodd" d="M14.7082 18.4691H32.7745L28.6258 28.9426H10.5591L14.7082 18.4691ZM23.2077 17.1207C23.1953 17.0235 23.1432 16.9332 23.0645 16.8725C22.9862 16.8136 22.8916 16.7895 22.7995 16.8028C22.7023 16.8144 22.6159 16.8639 22.5552 16.9409C22.4954 17.0183 22.4688 17.1143 22.4808 17.211L22.5466 17.7367H21.7521L21.676 17.1207C21.6635 17.0213 21.6136 16.9336 21.5345 16.8734C21.4575 16.814 21.362 16.7882 21.2674 16.8028C21.1702 16.8144 21.0837 16.8639 21.0239 16.9405C20.9637 17.0179 20.937 17.1138 20.9495 17.211L21.0145 17.7367H20.2204L20.1439 17.1207C20.1314 17.0231 20.0789 16.9323 20.0002 16.8721C19.9232 16.8136 19.8303 16.7886 19.7357 16.8028C19.6384 16.8144 19.5516 16.8639 19.4913 16.9409C19.4311 17.0179 19.4049 17.1143 19.4169 17.211L19.4823 17.7367H18.6883L18.6117 17.1207C18.6001 17.0235 18.5476 16.9332 18.4685 16.8729C18.3906 16.8132 18.2951 16.7886 18.2031 16.8028C18.1059 16.8144 18.0194 16.8639 17.9596 16.9409C17.8994 17.0179 17.8727 17.1143 17.8852 17.211L17.9501 17.7367H17.1561L17.0795 17.1207C17.0675 17.0235 17.015 16.9332 16.9359 16.8729C16.8576 16.8136 16.7634 16.7895 16.6709 16.8028C16.5741 16.8144 16.4872 16.8639 16.427 16.9409C16.3668 17.0179 16.3406 17.1143 16.3526 17.211L16.4184 17.7367H15.624L15.5474 17.1207C15.5358 17.0239 15.4833 16.9336 15.4037 16.8729C15.3254 16.814 15.2321 16.7895 15.1388 16.8028C15.0415 16.8144 14.9551 16.8639 14.8953 16.9409C14.8351 17.0179 14.8084 17.1143 14.8209 17.211L14.8858 17.7367H14.4596C14.3086 17.7367 14.1748 17.8274 14.1189 17.9677L14.0965 18.024L14.0165 17.1332C14.0075 17.0347 13.9606 16.9461 13.884 16.8828C13.8092 16.8209 13.7133 16.7929 13.6191 16.8011C13.5214 16.8101 13.4333 16.8562 13.3709 16.9314C13.3081 17.0063 13.2784 17.1009 13.287 17.1986L13.4909 19.465C13.4926 19.4835 13.5012 19.4994 13.5055 19.5166L12.8582 21.1503L12.4844 17.1323C12.4663 16.937 12.2947 16.7861 12.0856 16.8015C11.9884 16.8106 11.9007 16.857 11.8379 16.9323C11.7755 17.0076 11.7458 17.1022 11.7553 17.1999L12.2624 22.654L11.0503 25.7149L10.1977 16.032H24.3476L24.6564 17.7367H23.2847L23.2077 17.1207ZM9.27273 28.1809L7.96382 12.6296H14.8005L16.7443 14.4246C16.8122 14.487 16.9004 14.5214 16.9929 14.5214H26.114L26.6895 17.7367H25.4L25.0133 15.6006C24.9814 15.4264 24.8296 15.2999 24.6528 15.2999H9.79664C9.69427 15.2999 9.59577 15.343 9.52694 15.4187C9.45769 15.4939 9.42285 15.5959 9.43145 15.6983L10.4479 27.2342L9.86891 28.6949L9.27273 28.1809ZM33.6163 17.8966C33.5483 17.7964 33.4348 17.7366 33.3135 17.7366H27.4343L26.781 14.0907C26.7496 13.9161 26.5981 13.7892 26.4205 13.7892H17.1364L15.1926 11.9942C15.1246 11.9319 15.0364 11.8975 14.9439 11.8975H7.56619C7.46382 11.8975 7.36575 11.94 7.2965 12.0153C7.22681 12.0906 7.1924 12.1925 7.20101 12.2945L8.55594 28.3916C8.56412 28.4875 8.60885 28.5753 8.68155 28.6385L9.82185 29.6214L9.82787 29.6136C9.88594 29.6502 9.9496 29.6747 10.0201 29.6747H28.8749C29.0254 29.6747 29.1596 29.5839 29.2155 29.4437L33.6542 18.2377C33.6985 18.1246 33.6843 17.9968 33.6163 17.8966Z" fill="white"/>
</svg>
