<svg width="40" height="40" viewBox="0 0 40 40" fill="none" xmlns="http://www.w3.org/2000/svg">
<path fill-rule="evenodd" clip-rule="evenodd" d="M22.5107 16.1852H27.9054V14.4639H22.5107V16.1852Z" fill="white"/>
<path fill-rule="evenodd" clip-rule="evenodd" d="M22.5107 22.0537H27.9054V20.333H22.5107V22.0537Z" fill="white"/>
<mask id="mask1" mask-type="alpha" maskUnits="userSpaceOnUse" x="7" y="6" width="26" height="28">
<path fill-rule="evenodd" clip-rule="evenodd" d="M32.3934 33.3335V6.66699H7.19971V33.3335H32.3934Z" fill="white"/>
</mask>
<g mask="url(#mask1)">
<path fill-rule="evenodd" clip-rule="evenodd" d="M30.6721 27.3483C30.6721 31.287 29.0674 31.6123 27.2788 31.6123H26.4608H20.8228H12.0854C11.7321 31.5603 9.29411 31.071 8.95811 27.447H23.2608C23.6021 29.0663 24.5921 31.1003 26.7241 31.1003C27.1994 31.1003 27.5841 30.715 27.5841 30.2396C27.5841 29.765 27.1994 29.379 26.7241 29.379C25.1834 29.379 24.8561 26.5316 24.8534 26.505C24.8108 26.0636 24.4401 25.7263 23.9968 25.7263H12.6494V9.53564C12.6494 8.90297 13.1648 8.38831 13.7974 8.38831H29.5248C30.1574 8.38831 30.6721 8.90297 30.6721 9.53564V27.3483ZM29.525 6.66699H13.7977C12.2157 6.66699 10.929 7.95433 10.929 9.53566V25.7263H8.05971C7.58437 25.7263 7.19971 26.1117 7.19971 26.587C7.19971 32.7443 11.891 33.3237 11.9384 33.329C11.9697 33.3323 12.0004 33.3337 12.031 33.3337H13.7977H26.461H27.279C30.7684 33.3337 32.3937 31.4317 32.3937 27.3483V9.53566C32.3937 7.95433 31.1064 6.66699 29.525 6.66699Z" fill="white"/>
</g>
<path fill-rule="evenodd" clip-rule="evenodd" d="M17.7396 15.2073L16.0889 13.9846L15.0649 15.3673L17.9063 17.4733L21.7436 13.6366L20.5269 12.4199L17.7396 15.2073Z" fill="white"/>
<path fill-rule="evenodd" clip-rule="evenodd" d="M17.7393 20.998L16.0893 19.7746L15.064 21.1573L17.906 23.264L21.7433 19.4273L20.5266 18.21L17.7393 20.998Z" fill="white"/>
</svg>
