<svg width="18" height="18" viewBox="0 0 18 18" fill="none" xmlns="http://www.w3.org/2000/svg">
<path fill-rule="evenodd" clip-rule="evenodd" d="M2.3298 2.15375V3.37322C2.3298 3.4047 2.3307 3.43617 2.3319 3.46737L2.3343 3.55268C2.3562 5.18214 2.6769 6.7978 3.2877 8.35548L3.3192 8.43968C3.3318 8.47309 3.3441 8.5065 3.3579 8.5399C3.4539 8.77568 3.5439 8.98385 3.6339 9.17656C3.9573 9.87312 4.3428 10.5559 4.7799 11.2055C5.8863 12.8485 7.305 14.2728 8.9997 15.4423C10.9674 14.0854 12.549 12.4048 13.7031 10.4449C14.0133 9.91868 14.2887 9.37865 14.5224 8.84001C14.5434 8.79197 14.5614 8.74586 14.58 8.69976L14.6421 8.54321C14.6424 8.54239 14.6427 8.54156 14.643 8.54073C15.0081 7.64428 15.2802 6.70724 15.4524 5.7553C15.597 4.95575 15.6702 4.15427 15.6702 3.37322V2.15375H2.3298ZM9 16.1314C8.9316 16.1314 8.8629 16.1121 8.8047 16.0732C6.9537 14.8327 5.4093 13.3043 4.215 11.5305C3.7602 10.8543 3.3591 10.144 3.0225 9.41951C2.9289 9.21825 2.8347 9.00124 2.7351 8.75691C2.7192 8.71798 2.7045 8.6785 2.6898 8.63902L2.6619 8.56503C2.0259 6.94274 1.6917 5.25862 1.6689 3.56069L1.6671 3.48697C1.6656 3.44887 1.6644 3.41132 1.6644 3.37322V1.84619C1.6644 1.6764 1.8135 1.53863 1.9971 1.53863H16.0029C16.1865 1.53863 16.3356 1.6764 16.3356 1.84619V3.37322C16.3356 4.18795 16.2594 5.02367 16.1088 5.85662C15.9297 6.84722 15.6462 7.82263 15.2664 8.7558L15.2046 8.91207C15.1839 8.96397 15.1629 9.01643 15.1398 9.06971C14.8968 9.62961 14.61 10.1917 14.2875 10.7392C13.0476 12.8446 11.3346 14.6392 9.1956 16.0729C9.1371 16.1118 9.0684 16.1314 9 16.1314ZM0.6654 0.61512V3.37322C0.6654 3.40332 0.6666 3.43341 0.6675 3.4635L0.6699 3.55378C0.6897 5.18628 0.9783 6.80525 1.5282 8.36514C1.6149 8.61058 1.7061 8.85188 1.8003 9.08214C1.9035 9.33613 2.0031 9.56556 2.1045 9.78422C2.4606 10.5509 2.8854 11.3024 3.3669 12.0183C4.7382 14.055 6.5391 15.78 8.7195 17.1455L8.9997 17.3211L9.2799 17.1458C11.004 16.066 12.501 14.7538 13.7295 13.2452C14.6892 12.0672 15.4755 10.7781 16.0665 9.41372C16.0986 9.34 16.128 9.26601 16.1574 9.19229L16.2 9.08462C16.305 8.82703 16.4055 8.55509 16.5177 8.22627C17.0598 6.63905 17.3346 5.00655 17.3346 3.37322V0.61512H0.6654ZM9 18C8.9349 18 8.8698 17.9826 8.8137 17.9473L8.3466 17.6549C6.0882 16.2405 4.2225 14.4537 2.8017 12.3433C2.3028 11.6009 1.8624 10.8218 1.4931 10.0269C1.3875 9.79968 1.2843 9.56142 1.1778 9.29886C1.08 9.06032 0.9852 8.80991 0.8958 8.55564C0.3249 6.93639 0.0252 5.25558 0.0045 3.56013L0.0024 3.4831C0.0012 3.44666 0 3.40994 0 3.37322V0.30756C0 0.137767 0.1488 0 0.3327 0H17.6673C17.8509 0 18 0.137767 18 0.30756V3.37322C18 5.06922 17.7147 6.76412 17.1525 8.41125C17.0364 8.75083 16.932 9.03299 16.8237 9.29914L16.782 9.40433C16.7502 9.48384 16.7184 9.56363 16.6842 9.64259C16.071 11.0573 15.2559 12.3938 14.2611 13.6152C12.9882 15.1781 11.4381 16.537 9.6534 17.6549L9.1866 17.947C9.1305 17.9826 9.0654 18 9 18Z" fill="#F8F8F8"/>
</svg>
