<svg xmlns="http://www.w3.org/2000/svg" width="20" height="19" viewBox="0 0 20 19">
  <path fill="#FFF" d="M6,13 C7.65685425,13 9,14.3431458 9,16 C9,17.6568542 7.65685425,19 6,19 C4.40231912,19 3.09633912,17.75108 3.00509269,16.1762728 L3,16 L0,16 L0,15 L3.17067428,15.0000889 C3.58248558,13.8348501 4.69374794,13 6,13 Z M6,14 C4.8954305,14 4,14.8954305 4,16 C4,17.1045695 4.8954305,18 6,18 C7.1045695,18 8,17.1045695 8,16 C8,14.8954305 7.1045695,14 6,14 Z M20,15 L20,16 L10,16 L10,15 L20,15 Z M14,7 C15.3062521,7 16.4175144,7.8348501 16.8293257,9.00008893 L20,9 L20,10 L17,10 C17,11.6568542 15.6568542,13 14,13 C12.3431458,13 11,11.6568542 11,10 C11,8.34314575 12.3431458,7 14,7 Z M14,8 C12.8954305,8 12,8.8954305 12,10 C12,11.1045695 12.8954305,12 14,12 C15.1045695,12 16,11.1045695 16,10 C16,8.8954305 15.1045695,8 14,8 Z M10,9 L10,10 L0,10 L0,9 L10,9 Z M6,0 C7.65685425,0 9,1.34314575 9,3 C9,4.65685425 7.65685425,6 6,6 C4.69411778,6 3.58311485,5.16562257 3.17102423,4.00090072 L0,4 L0,3 L3,3 C3,1.34314575 4.34314575,0 6,0 Z M6,1 C4.8954305,1 4,1.8954305 4,3 C4,4.1045695 4.8954305,5 6,5 C7.1045695,5 8,4.1045695 8,3 C8,1.8954305 7.1045695,1 6,1 Z M20,3 L20,4 L10,4 L10,3 L20,3 Z"/>
</svg>
