<svg xmlns="http://www.w3.org/2000/svg" width="16" height="16" viewBox="-4 -4 24 24">
  <g fill="none" fill-rule="evenodd" stroke="#FFF" stroke-linecap="round" stroke-linejoin="round">
    <rect width="3" height="3" x="1.5" y="2.5" rx="1.5"/>
    <path d="M3.5,14.5 L1.5,14.5 L1.5,11.5 L0.5,11.5 L0.5,8.5 C0.5,7.94771525 0.94771525,7.5 1.5,7.5 L2.5,7.5"/>
    <rect width="3" height="3" x="11.5" y="2.5" rx="1.5" transform="rotate(-180 13 4)"/>
    <path d="M12.5,14.5 L14.5,14.5 L14.5,11.5 L15.5,11.5 L15.5,8.5 C15.5,7.94771525 15.0522847,7.5 14.5,7.5 L13.5,7.5"/>
    <rect width="4" height="4" x="6" y=".5" rx="2"/>
    <path d="M10.5,15.5 L5.5,15.5 L5.5,11.5 L4.5,11.5 L4.5,8.5 C4.5,7.3954305 5.3954305,6.5 6.5,6.5 L9.5,6.5 C10.6045695,6.5 11.5,7.3954305 11.5,8.5 L11.5,11.5 L10.5,11.5 L10.5,15.5 Z"/>
  </g>
</svg>
