<svg width="40" height="40" viewBox="0 0 40 40" fill="none" xmlns="http://www.w3.org/2000/svg">
<path fill-rule="evenodd" clip-rule="evenodd" d="M18.9791 11.4769C18.6431 11.6195 18.3524 11.8142 18.1084 12.0582C17.8511 12.3155 17.6684 12.6089 17.5604 12.9382C17.4524 13.2689 17.3991 13.6129 17.3991 13.9702C17.4431 14.5715 17.6858 15.0915 18.1298 15.5275C18.5738 15.9649 19.0978 16.2129 19.6991 16.2702C20.1004 16.3129 20.4871 16.2622 20.8604 16.1182C21.2324 15.9755 21.5471 15.7609 21.8058 15.4742C22.0484 15.2169 22.2244 14.9235 22.3324 14.5929C22.4391 14.2635 22.4938 13.9195 22.4938 13.5609C22.4511 12.9595 22.2058 12.4409 21.7618 12.0035C21.3178 11.5662 20.7951 11.3195 20.1938 11.2622H20.0964H20.0004C19.6564 11.2622 19.3151 11.3342 18.9791 11.4769ZM19.8285 18.2689H19.5912C18.5032 18.1689 17.5578 17.7342 16.7552 16.9675C15.9525 16.2022 15.5005 15.2675 15.4005 14.1635C15.3432 13.5182 15.4152 12.9022 15.6165 12.3155C15.8165 11.7275 16.1458 11.2115 16.6045 10.7675C17.0485 10.2662 17.6005 9.88352 18.2592 9.61685C18.9178 9.35285 19.5992 9.27019 20.3005 9.37019C21.4045 9.47019 22.3538 9.90352 23.1485 10.6715C23.9445 11.4382 24.3925 12.3649 24.4925 13.4529C24.5498 14.1142 24.4778 14.7329 24.2778 15.3129C24.0765 15.8942 23.7538 16.4129 23.3098 16.8715C22.9085 17.3155 22.4178 17.6595 21.8378 17.9022C21.2565 18.1475 20.6458 18.2689 20.0005 18.2689H19.8285ZM13.7018 28.6715H26.2978V27.6609C26.2978 26.8155 26.1365 26.0155 25.8138 25.2649C25.4911 24.5115 25.0471 23.8529 24.4805 23.2862C23.9151 22.7222 23.2565 22.2769 22.5045 21.9542C21.7525 21.6315 20.9525 21.4702 20.1071 21.4702H20.0005C19.1538 21.4702 18.3565 21.6315 17.6031 21.9542C16.8511 22.2769 16.1925 22.7222 15.6258 23.2862C15.0605 23.8529 14.6125 24.5115 14.2831 25.2649C13.9525 26.0155 13.7885 26.8155 13.7885 27.6609V28.6715H13.7018ZM28.2965 30.6702H11.7031V27.6609C11.7031 26.5435 11.9191 25.4862 12.3485 24.4915C12.7791 23.4955 13.3658 22.6235 14.1111 21.8795C14.8565 21.1342 15.7271 20.5475 16.7231 20.1155C17.7178 19.6862 18.7751 19.4715 19.8925 19.4715H20.0005C21.1178 19.4715 22.1738 19.6862 23.1711 20.1155C24.1658 20.5475 25.0365 21.1342 25.7818 21.8795C26.5271 22.6235 27.1178 23.4955 27.5551 24.4915C27.9911 25.4862 28.2098 26.5435 28.2098 27.6609V30.6702H28.2965Z" fill="white"/>
</svg>
