<svg xmlns="http://www.w3.org/2000/svg" width="32" height="36" viewBox="0 0 32 36">
	<g fill="none" fill-rule="evenodd" transform="translate(-4 -2)">
		<g transform="translate(4 2.667)">
		<path fill="#525252" d="M11.2022857,21.0952923 C5.75771429,22.5810398 2.13257143,24.6819795 2.13257143,30.0817429 C2.13257143,30.7271144 5.41942857,32.5007255 16,32.5007255 C26.5805714,32.5007255 29.8674286,30.7271144 29.8674286,30.0817429 C29.8674286,24.6819795 26.2422857,22.5810398 20.7977143,21.0952923 C18.8594286,20.6890332 18.0525714,19.8927655 17.7211429,18.0634389 C17.6457143,17.6618228 17.8034286,17.2509208 18.1257143,17.0025224 C20.0022857,15.5585616 22.0068571,13.0281479 22.0068571,10.2586218 C22.0068571,3.21757182 18.2445714,2.1659412 16,2.1659412 C13.7554286,2.1659412 9.99314286,3.21757182 9.99314286,10.2586218 C9.99314286,13.0281479 11.9977143,15.5585616 13.8742857,17.0025224 C14.1965714,17.2509208 14.3542857,17.6618228 14.2788571,18.0634389 C13.9474286,19.8927655 13.1405714,20.6890332 11.2022857,21.0952923 M16,34.6666667 C8.70171429,34.6666667 0,33.8703989 0,30.0817429 C0,22.8735463 5.39885714,20.4313489 10.6811429,18.9943526 C10.7017143,18.9873881 10.7245714,18.9827452 10.7451429,18.9781022 C11.6137143,18.7993482 11.8948571,18.648452 12.0365714,18.2839796 C9.92685714,16.4662604 7.86057143,13.5365522 7.86057143,10.2586218 C7.86057143,3.8350856 10.9028571,0 16,0 C21.0971429,0 24.1394286,3.8350856 24.1394286,10.2586218 C24.1394286,13.5365522 22.0731429,16.4662604 19.9634286,18.2839796 C20.1051429,18.648452 20.3862857,18.7993482 21.2548571,18.9781022 C21.2754286,18.9827452 21.2982857,18.9873881 21.3188571,18.9943526 C26.6011429,20.4313489 32,22.8735463 32,30.0817429 C32,33.8703989 23.2982857,34.6666667 16,34.6666667"/>
		<path fill="#525252" d="M5.42829932 32.7044025C5.00707483 32.7044025 4.66666667 32.3732556 4.66666667 31.963491L4.66666667 27.5585216C4.66666667 27.148757 5.00707483 26.8176101 5.42829932 26.8176101 5.84952381 26.8176101 6.18993197 27.148757 6.18993197 27.5585216L6.18993197 31.963491C6.18993197 32.3732556 5.84952381 32.7044025 5.42829932 32.7044025M26.7616327 32.7044025C26.3404082 32.7044025 26 32.3732556 26 31.963491L26 27.5585216C26 27.148757 26.3404082 26.8176101 26.7616327 26.8176101 27.1828571 26.8176101 27.5232653 27.148757 27.5232653 27.5585216L27.5232653 31.963491C27.5232653 32.3732556 27.1828571 32.7044025 26.7616327 32.7044025M16.3333333 24.2012579C15.3094582 24.2012579 14.2855831 23.9793774 13.4315886 23.533543 12.077135 22.8243551 11.3333333 21.6651855 11.3333333 20.2675463 11.3333333 19.9108787 11.6547291 19.6226415 12.0472911 19.6226415L12.0495868 19.6226415C12.4421488 19.6226415 12.7635445 19.9129523 12.7612489 20.2696199 12.7612489 21.4453787 13.5142332 22.0840625 14.1455464 22.4158463 15.412764 23.0773403 17.251607 23.0773403 18.5211203 22.4158463 19.1524334 22.0840625 19.9054178 21.4453787 19.9031221 20.2696199 19.9031221 19.9129523 20.2245179 19.6226415 20.6170799 19.6226415L20.6170799 19.6226415C21.0119376 19.6226415 21.3310376 19.9108787 21.3333333 20.2675463 21.3333333 21.6651855 20.5895317 22.8243551 19.2350781 23.533543 18.3810836 23.9793774 17.3572084 24.2012579 16.3333333 24.2012579"/>
		</g>
	</g>
</svg>
