<svg class="uk-display-block uk-margin-auto pf-padding-tiny-bottom" xmlns="http://www.w3.org/2000/svg" xmlns:xlink="http://www.w3.org/1999/xlink" width="32" height="36" viewBox="0 0 32 36">
	<defs>
		<polygon id="cases-b" points=".001 34.286 23.958 34.286 23.958 5.161 .001 5.161"/>
	</defs>
	<g fill="none" fill-rule="evenodd" transform="translate(-5 -2)">
		<g transform="translate(5.714 2.857)">
			<path fill="#525252" d="M6.07057143 18.0448571L18.5848571 18.0448571C18.9248571 18.0448571 19.202 17.7677143 19.202 17.4277143 19.202 17.0877143 18.9248571 16.8077143 18.5848571 16.8077143L6.07057143 16.8077143C5.72771429 16.8077143 5.45057143 17.0877143 5.45057143 17.4277143 5.45057143 17.7677143 5.72771429 18.0448571 6.07057143 18.0448571M6.07057143 21.3691429L18.5848571 21.3691429C18.9248571 21.3691429 19.202 21.092 19.202 20.752 19.202 20.4091429 18.9248571 20.132 18.5848571 20.132L6.07057143 20.132C5.72771429 20.132 5.45057143 20.4091429 5.45057143 20.752 5.45057143 21.092 5.72771429 21.3691429 6.07057143 21.3691429M6.07057143 24.6937143L18.5848571 24.6937143C18.9248571 24.6937143 19.202 24.4165714 19.202 24.0765714 19.202 23.7337143 18.9248571 23.4565714 18.5848571 23.4565714L6.07057143 23.4565714C5.72771429 23.4565714 5.45057143 23.7337143 5.45057143 24.0765714 5.45057143 24.4165714 5.72771429 24.6937143 6.07057143 24.6937143"/>
			<path fill="#525252" d="M28.1931429,0.000571428571 L10.4788571,0.000571428571 C9.05885714,0.000571428571 7.90171429,1.09485714 7.90171429,2.44057143 L7.90171429,3.46914286 C7.90171429,3.95771429 8.30171429,4.35485714 8.79028571,4.35485714 C9.28171429,4.35485714 9.67885714,3.95771429 9.67885714,3.46914286 L9.67885714,2.44057143 C9.67885714,2.07485714 10.0388571,1.77771429 10.4788571,1.77771429 L28.1931429,1.77771429 C28.6331429,1.77771429 28.9931429,2.07485714 28.9931429,2.44057143 L28.9931429,25.3377143 C28.9931429,25.7034286 28.6331429,26.0034286 28.1931429,26.0034286 L25.4417143,26.0034286 C24.9531429,26.0034286 24.5531429,26.4005714 24.5531429,26.8891429 C24.5531429,27.3805714 24.9531429,27.7777143 25.4417143,27.7777143 L28.1931429,27.7777143 C29.6131429,27.7777143 30.7674286,26.6805714 30.7674286,25.3377143 L30.7674286,2.44057143 C30.7674286,1.09485714 29.6131429,0.000571428571 28.1931429,0.000571428571"/>
			<path fill="#525252" d="M6.73771429,11.1557143 C6.73771429,11.5671429 6.34057143,11.9014286 5.852,11.9014286 L3.032,11.9014286 L6.73771429,8.19571429 L6.73771429,11.1557143 Z M1.77771429,13.6757143 L5.852,13.6757143 C7.31771429,13.6757143 8.512,12.5442857 8.512,11.1557143 L8.512,6.93857143 L21.2948571,6.93857143 C21.7834286,6.93857143 22.1805714,7.27285714 22.1805714,7.68428571 L22.1805714,31.7642857 C22.1805714,32.1757143 21.7834286,32.51 21.2948571,32.51 L2.66342857,32.51 C2.17485714,32.51 1.77771429,32.1757143 1.77771429,31.7642857 L1.77771429,13.6757143 Z M21.2948571,5.16142857 L7.62628571,5.16142857 C7.58628571,5.16142857 7.552,5.18142857 7.51485714,5.18428571 C7.472,5.19 7.43485714,5.19857143 7.39485714,5.21 C7.24342857,5.25 7.10628571,5.31571429 7.00057143,5.42142857 C6.99771429,5.42428571 6.99771429,5.42142857 6.99771429,5.42428571 L0.260571429,12.1614286 C0.154857143,12.2671429 0.0891428571,12.4071429 0.0462857143,12.5585714 C0.0348571429,12.5985714 0.0291428571,12.6357143 0.0234285714,12.6757143 C0.0177142857,12.7128571 0.000571428571,12.75 0.000571428571,12.7871429 L0.000571428571,31.7642857 C0.000571428571,33.1557143 1.19485714,34.2871429 2.66342857,34.2871429 L21.2948571,34.2871429 C22.7634286,34.2871429 23.9577143,33.1557143 23.9577143,31.7642857 L23.9577143,7.68428571 C23.9577143,6.29285714 22.7634286,5.16142857 21.2948571,5.16142857 L21.2948571,5.16142857 Z" mask="url(#cases-c)"/>
		</g>
	</g>
</svg>
