<svg class="uk-display-block uk-margin-auto pf-padding-tiny-bottom" xmlns="http://www.w3.org/2000/svg" width="32" height="32" viewBox="0 0 32 32">
	<g fill="none" fill-rule="evenodd" transform="translate(-4 -4)">
		<g fill="#525252" fill-rule="nonzero" transform="translate(5.333 5.333)">
			<path d="M9.77777778 16.7657005L1.11022302e-16 16.7657005C-.528272369 16.7657005-.956521739 17.1939499-.956521739 17.7222222L-.956521739 27.3981481C-.956521739 28.9968978.350045613 30.2898551 1.95555556 30.2898551L27.3777778 30.2898551C28.9832877 30.2898551 30.2898551 28.9968978 30.2898551 27.3981481L30.2898551 17.7222222C30.2898551 17.1939499 29.8616057 16.7657005 29.3333333 16.7657005L19.5555556 16.7657005 19.4634361 16.7700792C18.9783827 16.8164289 18.5990338 17.2250247 18.5990338 17.7222222L18.5986087 22.5707246 10.734087 22.5707246 10.7342995 17.7222222C10.7342995 17.1939499 10.3060501 16.7657005 9.77777778 16.7657005zM20.5116522 18.6783188L28.3768116 18.6783188 28.3768116 27.3981481C28.3768116 27.9358429 27.9312012 28.3768116 27.3777778 28.3768116L1.95555556 28.3768116 1.86437451 28.3727876C1.35399524 28.3275165.956521739 27.905971.956521739 27.3981481L.956521739 18.6783188 8.82104348 18.6783188 8.82125604 23.5277778C8.82125604 24.0560501 9.24950541 24.4842995 9.77777778 24.4842995L19.5555556 24.4842995 19.647675 24.4799208C20.1327284 24.4335711 20.5120773 24.0249753 20.5120773 23.5277778L20.5116522 18.6783188zM25.0555556-.956521739C25.5527531-.956521739 25.9613489-.577172816 26.0076986-.092119427L26.0120773-5.55111512e-16 26.0120773 13.4444444C26.0120773 13.9727168 25.5838279 14.4009662 25.0555556 14.4009662 24.558358 14.4009662 24.1497622 14.0216173 24.1034125 13.5365639L24.0990338 13.4444444 24.0986087.956521739 5.23408696.956521739 5.23429952 13.4444444C5.23429952 13.941642 4.85495059 14.3502378 4.3698972 14.3965875L4.27777778 14.4009662C3.78058025 14.4009662 3.37198442 14.0216173 3.32563473 13.5365639L3.32125604 13.4444444 3.32125604-5.55111512e-16C3.32125604-.497197524 3.70060496-.90579336 4.18565835-.952143052L4.27777778-.956521739 25.0555556-.956521739z"/>
			<path d="M19.5555556 4.84903382C20.0838279 4.84903382 20.5120773 5.27728319 20.5120773 5.80555556 20.5120773 6.30275308 20.1327284 6.71134892 19.647675 6.75769861L19.5555556 6.76207729 9.77777778 6.76207729C9.24950541 6.76207729 8.82125604 6.33382792 8.82125604 5.80555556 8.82125604 5.30835803 9.20060496 4.8997622 9.68565835 4.8534125L9.77777778 4.84903382 19.5555556 4.84903382zM19.5555556 10.9601449C20.0838279 10.9601449 20.5120773 11.3883943 20.5120773 11.9166667 20.5120773 12.4138642 20.1327284 12.82246 19.647675 12.8688097L19.5555556 12.8731884 9.77777778 12.8731884C9.24950541 12.8731884 8.82125604 12.444939 8.82125604 11.9166667 8.82125604 11.4194691 9.20060496 11.0108733 9.68565835 10.9645236L9.77777778 10.9601449 19.5555556 10.9601449z"/>
		</g>
	</g>
</svg>
