<svg xmlns="http://www.w3.org/2000/svg" width="42" height="53" viewBox="0 0 42 53">
  <path fill="#555" d="M18.6923077,9 L18.6923077,14.0357143 L14.6538462,14.0357143 C14.2422959,14.0357143 13.9023195,14.356093 13.8524507,14.7697688 L13.8461538,14.875 L13.8461538,50.125 C13.8461538,50.5526484 14.1544725,50.9059231 14.5525762,50.9577426 L14.6538462,50.9642857 L45.3461538,50.9642857 C45.7577041,50.9642857 46.0976805,50.643907 46.1475493,50.2302312 L46.1538462,50.125 L46.1538462,14.875 C46.1538462,14.4473516 45.8455275,14.0940769 45.4474238,14.0422574 L45.3461538,14.0357143 L41.3076923,14.0357143 L41.3076923,9 L49.3846154,9 C50.2301417,9 50.923437,9.67417194 50.9940733,10.5336867 L51,10.6785714 L51,54.3214286 C51,55.2000282 50.3512061,55.9204422 49.5240462,55.9938415 L49.3846154,56 L10.6153846,56 C9.7698583,56 9.07656297,55.3258281 9.00592669,54.4663133 L9,54.3214286 L9,10.6785714 C9,9.7999718 9.64879395,9.07955778 10.4759538,9.00615851 L10.6153846,9 L18.6923077,9 Z M37.7654059,27.2513527 C38.078198,27.5864895 38.078198,28.1281941 37.7654059,28.463331 L28.1656459,38.7488616 C28.0096498,38.9160015 27.8048549,39 27.60006,39 C27.3952651,39 27.1904702,38.9160015 27.0344741,38.7488616 L22.2345941,33.6060963 C21.921802,33.2709594 21.921802,32.7292548 22.2345941,32.394118 C22.5473863,32.0589811 23.0529737,32.0589811 23.3657659,32.394118 L27.60006,36.9308941 L36.6342341,27.2513527 C36.9470263,26.9162158 37.4526137,26.9162158 37.7654059,27.2513527 Z M30,3 C32.6908547,3 34.8848696,5.18573345 34.9956141,7.92544309 L35,8.14285714 L40,8.14285714 L40,14.1428571 C40,14.5796044 39.6818935,14.9403956 39.2711516,14.9933176 L39.1666667,15 L20.8333333,15 C20.4087179,15 20.0579487,14.6728047 20.0064967,14.2503273 L20,14.1428571 L20,8.14285714 L25,8.14285714 C25,5.30228571 27.2383333,3 30,3 Z M30,6.42857143 C29.0791667,6.42857143 28.3333333,7.19571429 28.3333333,8.14285714 C28.3333333,9.09 29.0791667,9.85714286 30,9.85714286 C30.9208333,9.85714286 31.6666667,9.09 31.6666667,8.14285714 C31.6666667,7.19571429 30.9208333,6.42857143 30,6.42857143 Z" transform="translate(-9 -3)"/>
</svg>
