<?xml version="1.0" encoding="UTF-8"?>
<svg width="15px" height="15px" viewBox="0 0 15 15" version="1.1" xmlns="http://www.w3.org/2000/svg" xmlns:xlink="http://www.w3.org/1999/xlink">
    <title>Icon / table / Actions</title>
    <g id="Icon-/-table-/-Actions" stroke="none" stroke-width="1" fill="none" fill-rule="evenodd">
        <g id="settings-gear" fill="#A3A3A3" fill-rule="nonzero">
            <path d="M14.8972217,9.78475 L13.1629382,8.525 C13.229357,8.18703633 13.2629792,7.84390504 13.2633743,7.5 L13.2633743,7.5 C13.262318,7.15603167 13.2279969,6.81289746 13.1608512,6.475 L14.8961782,5.21575 C15.0014203,5.13955377 15.0307556,5.00006384 14.9645269,4.89075 L13.5892047,2.6085 C13.5233878,2.49931141 13.3830216,2.45418695 13.2618091,2.50325 L11.2530872,3.31675 C10.7087665,2.8671918 10.0820404,2.51844267 9.40480228,2.28825 L9.13479876,0.219 C9.11848784,0.0939156092 9.00755251,0 8.87601278,0 L6.12484648,0 C5.99330674,0 5.88237142,0.0939156092 5.86606049,0.219 L5.59605697,2.28825 C4.91872502,2.51817928 4.29189528,2.86676732 3.74751113,3.31625 L1.7387893,2.50275 C1.61757681,2.45368695 1.47721056,2.49881141 1.41139372,2.608 L0.0352888264,4.8915 C-0.030939829,5.00081384 -0.00160457472,5.14030377 0.103637544,5.2165 L1.83948626,6.475 C1.70542483,7.15229472 1.70542483,7.84770528 1.83948626,8.525 L0.103637544,9.78425 C-0.00160457472,9.86044623 -0.030939829,9.99993616 0.0352888264,10.10925 L1.4106111,12.39225 C1.47642794,12.5014386 1.61679419,12.546563 1.73800668,12.4975 L3.74672852,11.684 C4.29132147,12.1335354 4.91843482,12.4820488 5.59605697,12.71175 L5.86579962,14.781 C5.88211054,14.9060844 5.99304587,15 6.1245856,15 L8.87601278,15 C9.00755251,15 9.11848784,14.9060844 9.13479876,14.781 L9.40480228,12.71175 C10.0821342,12.4818207 10.708964,12.1332327 11.2533481,11.68375 L13.26207,12.49725 C13.3832824,12.546313 13.5236487,12.5011886 13.5894655,12.392 L14.9647878,10.109 C15.0307152,10.0000377 15.0017617,9.86109015 14.8972217,9.78475 Z M7.50042963,10.25 C5.91559186,10.25 4.630827,9.01878306 4.630827,7.5 C4.630827,5.98121694 5.91559186,4.75 7.50042963,4.75 C9.08526739,4.75 10.3700323,5.98121694 10.3700323,7.5 C10.3700323,8.22934535 10.0677,8.92881861 9.5295451,9.44454365 C8.99139022,9.96026869 8.26149556,10.25 7.50042963,10.25 Z" id="Shape"></path>
        </g>
    </g>
</svg>