<?xml version="1.0" encoding="UTF-8"?>
<svg width="15px" height="15px" viewBox="0 0 15 15" version="1.1" xmlns="http://www.w3.org/2000/svg" xmlns:xlink="http://www.w3.org/1999/xlink">
    <title>Icon / table / description</title>
    <g id="Icon-/-table-/-description" stroke="none" stroke-width="1" fill="none" fill-rule="evenodd">
        <g id="align-left-2" fill="#A3A3A3" fill-rule="nonzero">
            <path d="M14.516129,0 L0.483870968,0 C0.216641129,0 0,0.216626613 0,0.483870968 L0,14.516129 C0,14.7833589 0.216641129,15 0.483870968,15 L14.516129,15 C14.7833589,15 15,14.7833589 15,14.516129 L15,0.483870968 C15,0.216626613 14.7833589,0 14.516129,0 Z M7.5,12.0967742 L2.17741935,12.0967742 C2.04381048,12.0967742 1.93548387,11.9884476 1.93548387,11.8548387 C1.93548387,11.7212298 2.04381048,11.6129032 2.17741935,11.6129032 L7.5,11.6129032 C7.63360887,11.6129032 7.74193548,11.7212298 7.74193548,11.8548387 C7.74193548,11.9884476 7.63360887,12.0967742 7.5,12.0967742 Z M12.8225806,9.19354839 L2.17741935,9.19354839 C2.04381048,9.19354839 1.93548387,9.08522177 1.93548387,8.9516129 C1.93548387,8.81800403 2.04381048,8.70967742 2.17741935,8.70967742 L12.8225806,8.70967742 C12.9561895,8.70967742 13.0645161,8.81800403 13.0645161,8.9516129 C13.0645161,9.08522177 12.9561895,9.19354839 12.8225806,9.19354839 Z M1.93548387,6.0483871 C1.93548387,5.91477823 2.04381048,5.80645161 2.17741935,5.80645161 L7.5,5.80645161 C7.63360887,5.80645161 7.74193548,5.91477823 7.74193548,6.0483871 C7.74193548,6.18199597 7.63360887,6.29032258 7.5,6.29032258 L2.17741935,6.29032258 C2.04381048,6.29032258 1.93548387,6.18199597 1.93548387,6.0483871 Z M12.8225806,3.38709677 L2.17741935,3.38709677 C2.04381048,3.38709677 1.93548387,3.27877016 1.93548387,3.14516129 C1.93548387,3.01155242 2.04381048,2.90322581 2.17741935,2.90322581 L12.8225806,2.90322581 C12.9561895,2.90322581 13.0645161,3.01155242 13.0645161,3.14516129 C13.0645161,3.27877016 12.9561895,3.38709677 12.8225806,3.38709677 Z" id="Shape"></path>
        </g>
    </g>
</svg>