<?xml version="1.0" encoding="UTF-8"?>
<svg width="15px" height="15px" viewBox="0 0 15 15" version="1.1" xmlns="http://www.w3.org/2000/svg" xmlns:xlink="http://www.w3.org/1999/xlink">
    <title>Icon / table / factfinds</title>
    <g id="Icon-/-table-/-factfinds" stroke="none" stroke-width="1" fill="none" fill-rule="evenodd">
        <path d="M7.5,0 C8.44179915,0 9.20970436,0.728577815 9.24846492,1.64181436 L9.25,1.71428571 L11,1.71428571 L11,2 L12.9166667,2 C13.5149751,2 14,2.44771525 14,3 L14,14 C14,14.5522847 13.5149751,15 12.9166667,15 L2.08333333,15 C1.48502485,15 1,14.5522847 1,14 L1,3 C1,2.44771525 1.48502485,2 2.08333333,2 L4,2 L4,1.71428571 L5.75,1.71428571 C5.75,0.767428571 6.53341667,0 7.5,0 Z M10.3323975,5 L6.08380125,9.56487416 L4.66760249,8.04351539 L4,8.76087885 L6.08380125,11 L11,5.71736346 L10.3323975,5 Z M7.5,1 C7.22375,1 7,1.22375 7,1.5 C7,1.77625 7.22375,2 7.5,2 C7.77625,2 8,1.77625 8,1.5 C8,1.22375 7.77625,1 7.5,1 Z" id="Combined-Shape" fill="#A3A3A3" fill-rule="nonzero"></path>
    </g>
</svg>