<?xml version="1.0" encoding="UTF-8"?>
<svg width="24px" height="24px" viewBox="0 0 24 24" version="1.1" xmlns="http://www.w3.org/2000/svg" xmlns:xlink="http://www.w3.org/1999/xlink">
    <title>larger / library</title>
    <defs>
        <linearGradient x1="98.7703599%" y1="1.65464789%" x2="-15.7189336%" y2="155.715552%" id="linearGradient-1">
            <stop stop-color="#A0166E" offset="0%"></stop>
            <stop stop-color="#28585C" offset="100%"></stop>
        </linearGradient>
    </defs>
    <g id="Symbols" stroke="none" stroke-width="1" fill="none" fill-rule="evenodd">
        <g id="FF-/-Library-/-List" transform="translate(-27.000000, -31.000000)" fill="url(#linearGradient-1)">
            <g id="Combined-Shape" transform="translate(27.000000, 31.000000)">
                <path d="M20.2500828,3.09677419 C20.2500828,2.6691989 19.914293,2.32258065 19.5000753,2.32258065 L4.4999247,2.32258065 C4.08570698,2.32258065 3.74991717,2.6691989 3.74991717,3.09677419 L3.74991717,4.64516129 L20.2500828,4.64516129 L20.2500828,3.09677419 Z M17.5000552,0.516129032 C17.5000552,0.231078839 17.2761953,0 17.0000502,0 L6.99994478,0 C6.72380465,0 6.49994478,0.231078839 6.49994478,0.516129032 L6.49994478,1.5483871 L17.5000552,1.5483871 L17.5000552,0.516129032 Z M23.2501129,6.19354839 L0.749887054,6.19354839 C0.526297842,6.19354839 0.314384466,6.29659792 0.171932166,6.47449071 C0.0294798657,6.6523835 -0.0286551159,6.88660625 0.0133796598,7.11329032 L3.01340978,23.3713548 C3.08105221,23.7361353 3.39011701,24 3.74991717,24 L20.2500828,24 C20.609883,24 20.9189478,23.7361353 20.9865902,23.3713548 L23.9866203,7.11329032 C24.0286551,6.88660625 23.9705201,6.6523835 23.8280678,6.47449071 C23.6856155,6.29659792 23.4737022,6.19354839 23.2501129,6.19354839 Z"></path>
            </g>
        </g>
    </g>
</svg>