<?xml version="1.0" encoding="UTF-8"?>
<svg width="15px" height="15px" viewBox="0 0 15 15" version="1.1" xmlns="http://www.w3.org/2000/svg" xmlns:xlink="http://www.w3.org/1999/xlink">
    <title>Icon / table / Name</title>
    <g id="Icon-/-table-/-Name" stroke="none" stroke-width="1" fill="none" fill-rule="evenodd">
        <g id="Account-Circle" fill="#A3A3A3" fill-rule="nonzero">
            <path d="M7.5,0 C3.3645,0 0,3.3645 0,7.5 C0,11.6355 3.3645,15 7.5,15 C11.6355,15 15,11.6355 15,7.5 C15,3.3645 11.6355,0 7.5,0 Z M3.94575,12.3225 C4.44375,10.80525 5.8545,9.75 7.5,9.75 C9.1455,9.75 10.55625,10.80525 11.05425,12.3225 C10.05825,13.059 8.83125,13.5 7.5,13.5 C6.16875,13.5 4.94175,13.059 3.94575,12.3225 Z M5.625,6.375 C5.625,5.3415 6.4665,4.5 7.5,4.5 C8.5335,4.5 9.375,5.3415 9.375,6.375 C9.375,7.4085 8.5335,8.25 7.5,8.25 C6.4665,8.25 5.625,7.4085 5.625,6.375 Z M12.2175,11.1945 C11.7117397,10.154596 10.8753111,9.31183676 9.83925,8.79825 C10.5000796,8.1652441 10.8741392,7.290091 10.875,6.375 C10.875,4.51425 9.36075,3 7.5,3 C5.63925,3 4.125,4.51425 4.125,6.375 C4.12586081,7.290091 4.49992037,8.1652441 5.16075,8.79825 C4.12452087,9.31160363 3.28802592,10.1544297 2.7825,11.1945 C1.95206511,10.1420638 1.50028264,8.84061327 1.5,7.5 C1.5,4.19175 4.19175,1.5 7.5,1.5 C10.80825,1.5 13.5,4.19175 13.5,7.5 C13.4997174,8.84061327 13.0479349,10.1420638 12.2175,11.1945 L12.2175,11.1945 Z" id="Shape"></path>
        </g>
    </g>
</svg>