<?xml version="1.0" encoding="UTF-8"?>
<svg width="15px" height="15px" viewBox="0 0 15 15" version="1.1" xmlns="http://www.w3.org/2000/svg" xmlns:xlink="http://www.w3.org/1999/xlink">
    <title>Icon / table / Sent</title>
    <g id="Icon-/-table-/-Sent" stroke="none" stroke-width="1" fill="none" fill-rule="evenodd">
        <g id="send" fill="#A3A3A3" fill-rule="nonzero">
            <path d="M14.9959111,0.294378876 C14.9944416,0.283287507 14.9922774,0.272309385 14.9894326,0.261515577 C14.9798015,0.22146616 14.9635284,0.183501011 14.9413553,0.149351709 L14.9396505,0.145779611 C14.9372637,0.141850303 14.932831,0.140064254 14.9301032,0.136492157 C14.9161741,0.116586856 14.9004138,0.0981617736 14.8830489,0.0814818517 C14.8738426,0.0736232367 14.8629315,0.0689795096 14.8533842,0.0618353142 C14.843837,0.0546911187 14.8356536,0.0493329721 14.8257654,0.0436176158 C14.7929514,0.0238748622 14.7572293,0.00999209523 14.7200637,0.00253849185 C14.7152901,0.00253849185 14.7105164,0.00253849185 14.7060838,0.00253849185 C14.6720228,-0.00170631896 14.6375487,-0.000622847182 14.6037918,0.00575337981 C14.5922854,0.00795779153 14.5809026,0.0108197425 14.5696945,0.0143264144 C14.5601472,0.0171840925 14.550259,0.0175413023 14.5407118,0.0211134001 L0.219834944,5.73646977 C0.101982046,5.78339752 0.0184660374,5.89462486 0.00268729571,6.02566888 C-0.013091446,6.1567129 0.0414426398,6.28618331 0.144479854,6.36230129 L2.23157716,7.90580472 L9.22425673,4.47409043 L3.41066269,8.77668215 L3.41066269,14.2855713 C3.4110967,14.4230568 3.4868111,14.5480792 3.60535842,14.6070601 C3.65091437,14.6303945 3.70092657,14.6426075 3.75163595,14.642781 C3.8303174,14.6427657 3.90657258,14.6142439 3.96747202,14.5620516 L7.33185515,11.6779399 L11.7368887,14.9353358 C11.7949088,14.9779246 11.864151,15.0005229 11.9349941,15 C12.097048,15 12.2367371,14.8805635 12.2691479,14.714223 L14.996934,0.425832073 C14.9971191,0.423454623 14.9971191,0.421065328 14.996934,0.418687877 C14.996934,0.411186472 14.996934,0.403685067 14.996934,0.396183662 C15.0013402,0.362378472 15.0009955,0.328079407 14.9959111,0.294378876 Z" id="Path"></path>
        </g>
    </g>
</svg>