<?xml version="1.0" encoding="UTF-8"?>
<svg width="15px" height="15px" viewBox="0 0 15 15" version="1.1" xmlns="http://www.w3.org/2000/svg" xmlns:xlink="http://www.w3.org/1999/xlink">
    <title>Icon / table / Status</title>
    <g id="Icon-/-table-/-Status" stroke="none" stroke-width="1" fill="none" fill-rule="evenodd">
        <g id="battery-status" transform="translate(0.000000, 3.000000)" fill="#A3A3A3" fill-rule="nonzero">
            <path d="M13.3636364,0 L1.63636364,0 C0.732998844,0.000826844745 0.000902012449,0.671915607 0,1.5 L0,7.5 C0.000902012449,8.32808439 0.732998844,8.99917316 1.63636364,9 L13.3636364,9 C14.2670012,8.99917316 14.999098,8.32808439 15,7.5 L15,1.5 C14.999098,0.671915607 14.2670012,0.000826844745 13.3636364,0 Z M10,7.24999997 L2.18181818,7.24999997 C2.03119507,7.24999997 1.90909091,7.13807119 1.90909091,7 L1.90909091,2 C1.90909091,1.86192881 2.03119507,1.74999997 2.18181818,1.74999997 L7.27272727,1.74999997 C7.37609799,1.74999997 7.47061148,1.80348709 7.51681818,1.88825 L10.2440909,6.88825 C10.2862475,6.9656933 10.2817081,7.05761487 10.2320909,7.13125 C10.1824287,7.20505057 10.0945946,7.24999997 10,7.24999997 Z" id="Shape"></path>
        </g>
    </g>
</svg>