<svg width="30" height="30" viewBox="0 0 30 30" fill="none" xmlns="http://www.w3.org/2000/svg">
<path fill-rule="evenodd" clip-rule="evenodd" d="M15 30C23.2843 30 30 23.2843 30 15C30 6.71573 23.2843 0 15 0C6.71573 0 0 6.71573 0 15C0 23.2843 6.71573 30 15 30Z" fill="#4089BC"/>
<path d="M21.1538 13.1538H16.8462V8.84615C16.8462 7.82655 16.0196 7 15 7C13.9804 7 13.1538 7.82655 13.1538 8.84615V13.1538H8.84615C7.82655 13.1538 7 13.9804 7 15C7 16.0196 7.82655 16.8462 8.84615 16.8462H13.1538V21.1538C13.1538 22.1734 13.9804 23 15 23C16.0196 23 16.8462 22.1734 16.8462 21.1538V16.8462H21.1538C22.1734 16.8462 23 16.0196 23 15C23 13.9804 22.1734 13.1538 21.1538 13.1538Z" />
</svg>
