<svg width="160" height="160" viewBox="0 0 160 160" fill="none" xmlns="http://www.w3.org/2000/svg">
<path d="M132.857 47.619C142.588 47.619 150.476 39.7306 150.476 29.9999C150.476 20.2692 142.588 12.3809 132.857 12.3809C123.126 12.3809 115.238 20.2692 115.238 29.9999C115.238 39.7306 123.126 47.619 132.857 47.619Z" fill="white"/>
<path d="M27.1429 47.619C36.8736 47.619 44.7619 39.7306 44.7619 29.9999C44.7619 20.2692 36.8736 12.3809 27.1429 12.3809C17.4121 12.3809 9.5238 20.2692 9.5238 29.9999C9.5238 39.7306 17.4121 47.619 27.1429 47.619Z" fill="white"/>
<path fill-rule="evenodd" clip-rule="evenodd" d="M122.012 57.1431C112.485 57.1431 104.762 64.82 104.762 74.3723V97.758C104.762 99.668 106.202 101.791 107.982 102.501L115.119 105.348L118.283 143.215C118.442 145.121 120.135 146.667 122.014 146.667H142.748C144.649 146.667 146.322 145.098 146.479 143.215L149.643 105.348L156.723 102.994C158.533 102.393 160 100.364 160 98.4669V74.3851C160 64.8626 152.261 57.1431 142.75 57.1431H122.012Z" fill="white"/>
<path fill-rule="evenodd" clip-rule="evenodd" d="M17.2505 57.1431C7.72329 57.1431 0 64.82 0 74.3723V97.758C0 99.668 1.44012 101.791 3.22029 102.501L10.3571 105.348L13.5211 143.215C13.6804 145.121 15.3736 146.667 17.2516 146.667H37.9864C39.8875 146.667 41.5597 145.098 41.717 143.215L44.881 105.348L51.961 102.994C53.7709 102.393 55.2381 100.364 55.2381 98.4669V74.3851C55.2381 64.8626 47.4993 57.1431 37.9876 57.1431H17.2505Z" fill="white"/>
<path d="M78.0953 41.9048C89.6669 41.9048 99.0476 32.5241 99.0476 20.9524C99.0476 9.3807 89.6669 0 78.0953 0C66.5236 0 57.1429 9.3807 57.1429 20.9524C57.1429 32.5241 66.5236 41.9048 78.0953 41.9048Z" class="pf-svg-primary-path"/>
<path fill-rule="evenodd" clip-rule="evenodd" d="M64.9547 47.6191C53.2765 47.6191 43.8095 57.0242 43.8095 68.7023V100.295C43.8095 102.236 45.2125 104.509 46.9377 105.368L57.9047 110.833L61.4427 156.78C61.5942 158.602 63.1165 160 64.9524 160H93.1428C94.9787 160 96.501 158.602 96.6526 156.78L99.9685 110.117L111.037 105.241C112.831 104.45 114.286 102.248 114.286 100.295V68.7023C114.286 57.0584 104.854 47.6191 93.1405 47.6191H64.9547Z" class="pf-svg-primary-path"/>
<path d="M78.0953 41.9048C89.6669 41.9048 99.0476 32.5241 99.0476 20.9524C99.0476 9.3807 89.6669 0 78.0953 0C66.5236 0 57.1429 9.3807 57.1429 20.9524C57.1429 32.5241 66.5236 41.9048 78.0953 41.9048Z" class="pf-svg-primary-path"/>
<path fill-rule="evenodd" clip-rule="evenodd" d="M64.9547 47.6191C53.2765 47.6191 43.8095 57.0242 43.8095 68.7023V100.295C43.8095 102.236 45.2125 104.509 46.9377 105.368L57.9047 110.833L61.4427 156.78C61.5942 158.602 63.1165 160 64.9524 160H93.1428C94.9787 160 96.501 158.602 96.6526 156.78L99.9685 110.117L111.037 105.241C112.831 104.45 114.286 102.248 114.286 100.295V68.7023C114.286 57.0584 104.854 47.6191 93.1405 47.6191H64.9547Z" class="pf-svg-primary-path"/>
</svg>
