<svg xmlns="http://www.w3.org/2000/svg" width="160" height="160" viewBox="0 0 160 160">
  <g fill="none" fill-rule="evenodd">
    <circle cx="132.857" cy="30" r="17.619" fill="#2167AE" fill-rule="nonzero"/>
    <circle cx="27.143" cy="30" r="17.619" fill="#2167AE" fill-rule="nonzero"/>
    <path fill="#2167AE" d="M122.012378 57.1428571C112.485195 57.1428571 104.761905 64.819832 104.761905 74.3720961L104.761905 97.7577794C104.761905 99.6677713 106.202028 101.790653 107.982181 102.500815L115.119048 105.347985 118.28301 143.214932C118.442312 145.121272 120.135499 146.666667 122.01355 146.666667L142.748355 146.666667C144.649374 146.666667 146.321595 145.09738 146.478895 143.214932L149.642857 105.347985 156.722935 102.994233C158.532806 102.392531 160 100.363951 160 98.4667005L160 74.3849356C160 64.8623888 152.261208 57.1428571 142.749527 57.1428571L122.012378 57.1428571zM17.2504636 57.1428571C7.72329381 57.1428571 0 64.819832 0 74.3720961L0 97.7577794C0 99.6677713 1.44011618 101.790653 3.22029154 102.500815L10.3571429 105.347985 13.5211154 143.214932C13.6803972 145.121272 15.373576 146.666667 17.2516505 146.666667L37.9864434 146.666667C39.8874627 146.666667 41.5596932 145.09738 41.7169833 143.214932L44.8809524 105.347985 51.9610303 102.994233C53.7709017 102.392531 55.2380952 100.363951 55.2380952 98.4667005L55.2380952 74.3849356C55.2380952 64.8623888 47.4993071 57.1428571 37.9876185 57.1428571L17.2504636 57.1428571z"/>
    <circle cx="78.095" cy="20.952" r="20.952" fill="#FF7747" fill-rule="nonzero"/>
    <path fill="#FF7747" d="M64.9547063,47.6190476 C53.2765559,47.6190476 43.8095238,57.0240676 43.8095238,68.7021715 L43.8095238,100.294564 C43.8095238,102.235802 45.2125638,104.508679 46.9377138,105.368315 L57.9047619,110.833333 L61.4426656,156.779584 C61.5941936,158.602266 63.1164765,160 64.952381,160 L93.1428571,160 C94.9787616,160 96.5010444,158.602266 96.6525725,156.779584 L99.9684772,110.116896 L111.036907,105.240763 C112.831194,104.450309 114.285714,102.248027 114.285714,100.294564 L114.285714,68.7021715 C114.285714,57.0582764 104.854096,47.6190476 93.1405318,47.6190476 L64.9547063,47.6190476 Z"/>
    <circle cx="78.095" cy="20.952" r="20.952" fill="#23366F" fill-rule="nonzero"/>
    <path fill="#23366F" d="M64.9547063,47.6190476 C53.2765559,47.6190476 43.8095238,57.0240676 43.8095238,68.7021715 L43.8095238,100.294564 C43.8095238,102.235802 45.2125638,104.508679 46.9377138,105.368315 L57.9047619,110.833333 L61.4426656,156.779584 C61.5941936,158.602266 63.1164765,160 64.952381,160 L93.1428571,160 C94.9787616,160 96.5010444,158.602266 96.6525725,156.779584 L99.9684772,110.116896 L111.036907,105.240763 C112.831194,104.450309 114.285714,102.248027 114.285714,100.294564 L114.285714,68.7021715 C114.285714,57.0582764 104.854096,47.6190476 93.1405318,47.6190476 L64.9547063,47.6190476 Z"/>
  </g>
</svg>
