<svg width="96" height="79" viewBox="0 0 96 79" fill="none" xmlns="http://www.w3.org/2000/svg">
<path d="M68.8696 8.31579C65.4121 8.31579 62.6087 5.52318 62.6087 2.07895C62.6087 0.930785 61.6744 0 60.5217 0H35.4783C34.3256 0 33.3913 0.930785 33.3913 2.07895C33.3913 5.52318 30.5879 8.31579 27.1304 8.31579C23.673 8.31579 20.8696 5.52318 20.8696 2.07895C20.8696 0.930785 19.9352 0 18.7826 0H4.16847C1.86627 0 0 1.8749 0 4.16384V74.8362C0 77.1358 1.87459 79 4.18673 79H91.8133C94.1255 79 96 77.1251 96 74.8362V4.16384C96 1.86421 94.1303 0 91.8315 0H77.2174C76.0648 0 75.1304 0.930785 75.1304 2.07895C75.1304 5.52318 72.327 8.31579 68.8696 8.31579Z" fill="white"/>
<path fill-rule="evenodd" clip-rule="evenodd" d="M54.2609 29.1053C54.2609 27.9572 55.1998 27.0264 56.362 27.0264H81.3771C82.5374 27.0264 83.4783 27.9491 83.4783 29.1053C83.4783 30.2535 82.5393 31.1843 81.3771 31.1843H56.362C55.2017 31.1843 54.2609 30.2615 54.2609 29.1053Z" fill="#747474"/>
<path fill-rule="evenodd" clip-rule="evenodd" d="M54.2609 41.5789C54.2609 40.4308 55.1998 39.5 56.362 39.5H81.3771C82.5374 39.5 83.4783 40.4228 83.4783 41.5789C83.4783 42.7271 82.5393 43.6579 81.3771 43.6579H56.362C55.2017 43.6579 54.2609 42.7351 54.2609 41.5789Z" fill="#747474"/>
<path fill-rule="evenodd" clip-rule="evenodd" d="M54.2609 54.0526C54.2609 52.9044 55.2063 51.9736 56.3416 51.9736H68.8758C70.0249 51.9736 70.9565 52.8964 70.9565 54.0526C70.9565 55.2007 70.0111 56.1315 68.8758 56.1315H56.3416C55.1925 56.1315 54.2609 55.2088 54.2609 54.0526Z" fill="#747474"/>
<path d="M12.5236 24.9473C11.3699 24.9473 10.4348 25.8716 10.4348 27.028V56.1297C10.4348 57.2788 11.3626 58.2104 12.5236 58.2104H41.7372C42.8909 58.2104 43.8261 57.2861 43.8261 56.1297V27.028C43.8261 25.8789 42.8982 24.9473 41.7372 24.9473H12.5236Z" fill="#747474"/>
</svg>
