<?xml version="1.0" encoding="UTF-8"?>
<svg width="14px" height="14px" viewBox="0 0 14 14" version="1.1" xmlns="http://www.w3.org/2000/svg" xmlns:xlink="http://www.w3.org/1999/xlink">
    <title>icon / active / clients</title>
    <g id="icon-/-active-/-clients" stroke="none" stroke-width="1" fill="none" fill-rule="evenodd">
        <path d="M5.60073469,7.81511308 C3.85069388,8.29510344 2.68546939,8.9738398 2.68546939,10.7183048 C2.68546939,10.9268006 3.74195918,11.4997891 7.14285714,11.4997891 C10.5437551,11.4997891 11.6002449,10.9268006 11.6002449,10.7183048 C11.6002449,8.9738398 10.4350204,8.29510344 8.68497959,7.81511308 C8.06195918,7.68386572 7.80261224,7.42662089 7.69608163,6.83563276 C7.67183673,6.70588537 7.72253061,6.57313803 7.82612245,6.49288965 C8.42930612,6.02639902 9.07363265,5.20891544 9.07363265,4.31418342 C9.07363265,2.03947912 7.86432653,1.69973594 7.14285714,1.69973594 C6.42138776,1.69973594 5.21208163,2.03947912 5.21208163,4.31418342 C5.21208163,5.20891544 5.85640816,6.02639902 6.45959184,6.49288965 C6.56318367,6.57313803 6.61387755,6.70588537 6.58963265,6.83563276 C6.48310204,7.42662089 6.2237551,7.68386572 5.60073469,7.81511308 M7.14285714,12.199525 C4.79697959,12.199525 2,11.9422802 2,10.7183048 C2,8.38960154 3.73534694,7.60061739 5.43322449,7.13637672 C5.43983673,7.13412676 5.44718367,7.13262679 5.45379592,7.13112682 C5.73297959,7.07337798 5.82334694,7.02462896 5.86889796,6.90688133 C5.19077551,6.31964313 4.52661224,5.37316214 4.52661224,4.31418342 C4.52661224,2.23897511 5.5044898,1 7.14285714,1 C8.78122449,1 9.75910204,2.23897511 9.75910204,4.31418342 C9.75910204,5.37316214 9.09493878,6.31964313 8.41681633,6.90688133 C8.46236735,7.02462896 8.55273469,7.07337798 8.83191837,7.13112682 C8.83853061,7.13262679 8.84587755,7.13412676 8.8524898,7.13637672 C10.5503673,7.60061739 12.2857143,8.38960154 12.2857143,10.7183048 C12.2857143,11.9422802 9.48873469,12.199525 7.14285714,12.199525" id="Fill-1" fill="#FFFFFF"></path>
        <path d="M7.10016327,8.656 C6.7724898,8.656 6.44481633,8.57575 6.1715102,8.4145 C5.73804082,8.158 5.5,7.73875 5.5,7.23325 C5.5,7.10425 5.60285714,7 5.7284898,7 L5.72922449,7 C5.85485714,7 5.95771429,7.105 5.95697959,7.234 C5.95697959,7.65925 6.19795918,7.89025 6.4,8.01025 C6.80555102,8.2495 7.39404082,8.2495 7.80032653,8.01025 C8.00236735,7.89025 8.24334694,7.65925 8.24261224,7.234 C8.24261224,7.105 8.34546939,7 8.47110204,7 L8.47110204,7 C8.59746939,7 8.69959184,7.10425 8.70032653,7.23325 C8.70032653,7.73875 8.46228571,8.158 8.02881633,8.4145 C7.7555102,8.57575 7.42783673,8.656 7.10016327,8.656" id="Fill-8" fill="#FFFFFF"></path>
    </g>
</svg>