<?xml version="1.0" encoding="UTF-8"?>
<svg width="12px" height="12px" viewBox="0 0 12 12" version="1.1" xmlns="http://www.w3.org/2000/svg" xmlns:xlink="http://www.w3.org/1999/xlink">
    <!-- Generator: Sketch 52.5 (67469) - http://www.bohemiancoding.com/sketch -->
    <title>close</title>
    <desc>Created with Sketch.</desc>
    <g id="close" stroke="none" stroke-width="1" fill="none" fill-rule="evenodd">
        <g id="19-Close" fill="#3A3A3A">
            <path d="M6.7075,6 L11.8525,0.8525 C12.0463618,0.657481273 12.0463618,0.342518727 11.8525,0.1475 C11.6574813,-0.0463617974 11.3425187,-0.0463617974 11.1475,0.1475 L6,5.2925 L0.8525,0.1475 C0.657481273,-0.0463617974 0.342518727,-0.0463617974 0.1475,0.1475 C-0.0463617974,0.342518727 -0.0463617974,0.657481273 0.1475,0.8525 L5.2925,6 L0.1475,11.1475 C-0.0463617974,11.3425187 -0.0463617974,11.6574813 0.1475,11.8525 C0.342518727,12.0463618 0.657481273,12.0463618 0.8525,11.8525 L6,6.7075 L11.1475,11.8525 C11.3458801,12.0223884 11.6415971,12.0109661 11.8262816,11.8262816 C12.0109661,11.6415971 12.0223884,11.3458801 11.8525,11.1475 L6.7075,6 Z" id="Path"></path>
        </g>
    </g>
</svg>