<?xml version="1.0" encoding="UTF-8"?>
<svg width="46px" height="46px" viewBox="0 0 46 46" version="1.1" xmlns="http://www.w3.org/2000/svg" xmlns:xlink="http://www.w3.org/1999/xlink">
    <!-- Generator: Sketch 52.6 (67491) - http://www.bohemiancoding.com/sketch -->
    <title>docx</title>
    <desc>Created with Sketch.</desc>
    <g id="Producer-Report-+-Medical-Cert-+-Ownership-Transfer-+-Policy-Details" stroke="none" stroke-width="1" fill="none" fill-rule="evenodd">
        <g id="docx">
            <polygon id="Path" fill="#1F457D" points="43 26 3 26 0 22 4 18 42 18 46 22"></polygon>
            <path d="M40,46 L6,46 C4.895,46 4,45.105 4,44 L4,2 C4,0.895 4.895,0 6,0 L30,0 L42,12 L42,44 C42,45.105 41.105,46 40,46 Z" id="Path" fill="#E6E6E6"></path>
            <path d="M30,0 L30,10 C30,11.105 30.895,12 32,12 L42,12 L30,0 Z" id="Path" fill="#B3B3B3"></path>
            <path d="M44,40 L2,40 C0.895,40 0,39.105 0,38 L0,22 L46,22 L46,38 C46,39.105 45.105,40 44,40 Z" id="Path" fill="#28559B"></path>
            <path d="M8.96,35 L5.792,35 L5.792,26.996 L8.948,26.996 C11.456,26.996 13.196,28.592 13.196,30.992 C13.196,33.416 11.456,35 8.96,35 Z M8.948,33.5 C10.532,33.5 11.456,32.36 11.456,30.992 C11.456,29.588 10.592,28.496 8.96,28.496 L7.496,28.496 L7.496,33.5 L8.948,33.5 Z M18.212,35.144 C15.788,35.144 14.024,33.416 14.024,31.004 C14.024,28.592 15.788,26.864 18.212,26.864 C20.624,26.864 22.388,28.592 22.388,31.004 C22.388,33.416 20.624,35.144 18.212,35.144 Z M18.212,33.632 C19.688,33.632 20.636,32.492 20.636,31.004 C20.636,29.504 19.688,28.376 18.212,28.376 C16.724,28.376 15.776,29.504 15.776,31.004 C15.776,32.492 16.724,33.632 18.212,33.632 Z M27.476,35.144 C25.064,35.144 23.204,33.464 23.204,31.004 C23.204,28.532 25.064,26.864 27.476,26.864 C29.228,26.864 30.248,27.812 30.812,28.82 L29.348,29.54 C29.012,28.892 28.292,28.376 27.476,28.376 C26.012,28.376 24.956,29.492 24.956,31.004 C24.956,32.516 26.012,33.632 27.476,33.632 C28.292,33.632 29.012,33.116 29.348,32.468 L30.812,33.176 C30.248,34.172 29.228,35.144 27.476,35.144 Z M39.092,35 L37.052,35 L35.048,32.072 L33.032,35 L31.004,35 L33.908,30.896 L31.184,26.996 L33.212,26.996 L35.048,29.732 L36.86,26.996 L38.912,26.996 L36.188,30.884 L39.092,35 Z" id="DOCX" fill="#FFFFFF"></path>
        </g>
    </g>
</svg>