<?xml version="1.0" encoding="UTF-8"?>
<svg width="46px" height="46px" viewBox="0 0 46 46" version="1.1" xmlns="http://www.w3.org/2000/svg" xmlns:xlink="http://www.w3.org/1999/xlink">
    <!-- Generator: Sketch 54.1 (76490) - https://sketchapp.com -->
    <title>icon / file / GIF</title>
    <desc>Created with Sketch.</desc>
    <g id="icon-/-file-/-GIF" stroke="none" stroke-width="1" fill="none" fill-rule="evenodd">
        <g id="pdf-copy-2">
            <polygon id="Path" fill="#005F4B" points="43 26 3 26 0 22 4 18 42 18 46 22"></polygon>
            <path d="M40,46 L6,46 C4.895,46 4,45.105 4,44 L4,2 C4,0.895 4.895,0 6,0 L30,0 L42,12 L42,44 C42,45.105 41.105,46 40,46 Z" id="Path" fill="#E6E6E6"></path>
            <path d="M30,0 L30,10 C30,11.105 30.895,12 32,12 L42,12 L30,0 Z" id="Path" fill="#B3B3B3"></path>
            <path d="M44,40 L2,40 C0.895,40 0,39.105 0,38 L0,22 L46,22 L46,38 C46,39.105 45.105,40 44,40 Z" id="Path" fill="#00A87E"></path>
        </g>
        <text id="GIF" font-family="ProximaNova-Extrabld, Proxima Nova" font-size="11" font-weight="600" letter-spacing="0.379999995" fill="#FFFFFF">
            <tspan x="13.8365" y="35">GI</tspan>
            <tspan x="25.7615" y="35">F</tspan>
        </text>
    </g>
</svg>