<?xml version="1.0" encoding="UTF-8"?>
<svg width="46px" height="46px" viewBox="0 0 46 46" version="1.1" xmlns="http://www.w3.org/2000/svg" xmlns:xlink="http://www.w3.org/1999/xlink">
    <!-- Generator: Sketch 52.6 (67491) - http://www.bohemiancoding.com/sketch -->
    <title>jpg</title>
    <desc>Created with Sketch.</desc>
    <g id="Producer-Report-+-Medical-Cert-+-Ownership-Transfer-+-Policy-Details" stroke="none" stroke-width="1" fill="none" fill-rule="evenodd">
        <g id="jpg">
            <polygon id="Path" fill="#C9AA28" points="43 26 3 26 0 22 4 18 42 18 46 22"></polygon>
            <path d="M40,46 L6,46 C4.895,46 4,45.105 4,44 L4,2 C4,0.895 4.895,0 6,0 L30,0 L42,12 L42,44 C42,45.105 41.105,46 40,46 Z" id="Path" fill="#E6E6E6"></path>
            <path d="M30,0 L30,10 C30,11.105 30.895,12 32,12 L42,12 L30,0 Z" id="Path" fill="#B3B3B3"></path>
            <path d="M44,40 L2,40 C0.895,40 0,39.105 0,38 L0,22 L46,22 L46,38 C46,39.105 45.105,40 44,40 Z" id="Path" fill="#EFD358"></path>
            <path d="M13.748,37.465 C13.361,37.465 12.994,37.428 12.647,37.353 L12.647,35.704 C12.762,35.725 12.883,35.75 13.012,35.777 C13.141,35.803 13.281,35.817 13.431,35.817 C13.782,35.817 14.033,35.712 14.183,35.501 C14.333,35.289 14.409,34.928 14.409,34.415 L14.409,27.148 L16.541,27.148 L16.541,34.233 C16.541,35.295 16.308,36.101 15.843,36.647 C15.378,37.193 14.679,37.465 13.748,37.465 Z" id="Path" fill="#FFFFFF"></path>
            <path d="M23.937,29.645 C23.937,30.523 23.678,31.201 23.161,31.678 C22.643,32.157 21.909,32.395 20.956,32.395 L20.36,32.395 L20.36,35 L18.238,35 L18.238,27.147 L20.956,27.147 C21.948,27.147 22.693,27.364 23.19,27.796 C23.688,28.23 23.937,28.847 23.937,29.645 Z M20.36,30.666 L20.747,30.666 C21.066,30.666 21.319,30.576 21.507,30.396 C21.695,30.217 21.789,29.97 21.789,29.656 C21.789,29.126 21.496,28.861 20.908,28.861 L20.36,28.861 L20.36,30.666 Z" id="Shape" fill="#FFFFFF" fill-rule="nonzero"></path>
            <path d="M28.341,30.402 L31.73,30.402 L31.73,34.634 C30.81,34.949 29.798,35.107 28.695,35.107 C27.485,35.107 26.549,34.756 25.889,34.054 C25.228,33.352 24.898,32.351 24.898,31.052 C24.898,29.784 25.26,28.797 25.983,28.092 C26.706,27.387 27.72,27.034 29.023,27.034 C29.517,27.034 29.983,27.08 30.422,27.173 C30.86,27.267 31.243,27.385 31.568,27.528 L30.897,29.192 C30.331,28.913 29.71,28.774 29.033,28.774 C28.413,28.774 27.934,28.975 27.596,29.378 C27.257,29.781 27.088,30.357 27.088,31.105 C27.088,31.839 27.241,32.399 27.547,32.784 C27.854,33.169 28.295,33.361 28.871,33.361 C29.186,33.361 29.476,33.331 29.741,33.27 L29.741,32.041 L28.339,32.041 L28.339,30.402 L28.341,30.402 Z" id="Path" fill="#FFFFFF"></path>
        </g>
    </g>
</svg>