<?xml version="1.0" encoding="UTF-8"?>
<svg width="46px" height="46px" viewBox="0 0 46 46" version="1.1" xmlns="http://www.w3.org/2000/svg" xmlns:xlink="http://www.w3.org/1999/xlink">
    <!-- Generator: Sketch 52.6 (67491) - http://www.bohemiancoding.com/sketch -->
    <title>png</title>
    <desc>Created with Sketch.</desc>
    <g id="Producer-Report-+-Medical-Cert-+-Ownership-Transfer-+-Policy-Details" stroke="none" stroke-width="1" fill="none" fill-rule="evenodd">
        <g id="png">
            <polygon id="Path" fill="#CE783E" points="43 26 3 26 0 22 4 18 42 18 46 22"></polygon>
            <path d="M40,46 L6,46 C4.895,46 4,45.105 4,44 L4,2 C4,0.895 4.895,0 6,0 L30,0 L42,12 L42,44 C42,45.105 41.105,46 40,46 Z" id="Path" fill="#E6E6E6"></path>
            <path d="M30,0 L30,10 C30,11.105 30.895,12 32,12 L42,12 L30,0 Z" id="Path" fill="#B3B3B3"></path>
            <path d="M44,40 L2,40 C0.895,40 0,39.105 0,38 L0,22 L46,22 L46,38 C46,39.105 45.105,40 44,40 Z" id="Path" fill="#EA9860"></path>
            <path d="M17.414,29.645 C17.414,30.523 17.155,31.201 16.639,31.678 C16.121,32.157 15.386,32.395 14.434,32.395 L13.837,32.395 L13.837,35 L11.715,35 L11.715,27.147 L14.434,27.147 C15.425,27.147 16.17,27.364 16.668,27.796 C17.165,28.23 17.414,28.847 17.414,29.645 Z M13.837,30.666 L14.224,30.666 C14.543,30.666 14.795,30.576 14.985,30.396 C15.173,30.217 15.266,29.97 15.266,29.656 C15.266,29.126 14.973,28.861 14.385,28.861 L13.837,28.861 L13.837,30.666 Z" id="Shape" fill="#FFFFFF" fill-rule="nonzero"></path>
            <path d="M26.143,35 L23.36,35 L20.493,29.468 L20.444,29.468 C20.512,30.338 20.546,31.002 20.546,31.461 L20.546,35 L18.667,35 L18.667,27.147 L21.438,27.147 L24.295,32.604 L24.326,32.604 C24.276,31.813 24.252,31.177 24.252,30.697 L24.252,27.147 L26.143,27.147 L26.143,35 Z" id="Path" fill="#FFFFFF"></path>
            <path d="M30.992,30.402 L34.381,30.402 L34.381,34.634 C33.461,34.949 32.449,35.107 31.347,35.107 C30.137,35.107 29.201,34.756 28.541,34.054 C27.879,33.352 27.549,32.351 27.549,31.052 C27.549,29.784 27.911,28.797 28.635,28.092 C29.358,27.387 30.371,27.034 31.674,27.034 C32.168,27.034 32.635,27.08 33.074,27.173 C33.512,27.267 33.894,27.385 34.22,27.528 L33.548,29.192 C32.982,28.913 32.36,28.774 31.685,28.774 C31.065,28.774 30.585,28.975 30.247,29.378 C29.909,29.781 29.739,30.357 29.739,31.105 C29.739,31.839 29.893,32.399 30.198,32.784 C30.505,33.169 30.946,33.361 31.522,33.361 C31.837,33.361 32.127,33.331 32.393,33.27 L32.393,32.041 L30.991,32.041 L30.991,30.402 L30.992,30.402 Z" id="Path" fill="#FFFFFF"></path>
        </g>
    </g>
</svg>